  0
SECTION
  2
ENTITIES
  0
LINE
 10
0.000000
 11
0.000000
 20
0.000000
 21
304.000000
  0
LINE
 10
0.000000
 11
62.000000
 20
304.000000
 21
304.000000
  0
LINE
 10
62.000000
 11
62.000000
 20
304.000000
 21
0.000000
  0
LINE
 10
62.000000
 11
0.000000
 20
0.000000
 21
0.000000
  0
LINE
 10
6.000000
 11
6.000000
 20
6.000000
 21
12.000000
  0
LINE
 10
6.000000
 11
12.000000
 20
12.000000
 21
12.000000
  0
LINE
 10
12.000000
 11
12.000000
 20
12.000000
 21
6.000000
  0
LINE
 10
12.000000
 11
6.000000
 20
6.000000
 21
6.000000
  0
LINE
 10
6.000000
 11
6.000000
 20
46.857000
 21
52.857000
  0
LINE
 10
6.000000
 11
12.000000
 20
52.857000
 21
52.857000
  0
LINE
 10
12.000000
 11
12.000000
 20
52.857000
 21
46.857000
  0
LINE
 10
12.000000
 11
6.000000
 20
46.857000
 21
46.857000
  0
LINE
 10
6.000000
 11
6.000000
 20
87.714000
 21
93.714000
  0
LINE
 10
6.000000
 11
12.000000
 20
93.714000
 21
93.714000
  0
LINE
 10
12.000000
 11
12.000000
 20
93.714000
 21
87.714000
  0
LINE
 10
12.000000
 11
6.000000
 20
87.714000
 21
87.714000
  0
LINE
 10
6.000000
 11
6.000000
 20
128.571000
 21
134.571000
  0
LINE
 10
6.000000
 11
12.000000
 20
134.571000
 21
134.571000
  0
LINE
 10
12.000000
 11
12.000000
 20
134.571000
 21
128.571000
  0
LINE
 10
12.000000
 11
6.000000
 20
128.571000
 21
128.571000
  0
LINE
 10
6.000000
 11
6.000000
 20
169.429000
 21
175.429000
  0
LINE
 10
6.000000
 11
12.000000
 20
175.429000
 21
175.429000
  0
LINE
 10
12.000000
 11
12.000000
 20
175.429000
 21
169.429000
  0
LINE
 10
12.000000
 11
6.000000
 20
169.429000
 21
169.429000
  0
LINE
 10
6.000000
 11
6.000000
 20
210.286000
 21
216.286000
  0
LINE
 10
6.000000
 11
12.000000
 20
216.286000
 21
216.286000
  0
LINE
 10
12.000000
 11
12.000000
 20
216.286000
 21
210.286000
  0
LINE
 10
12.000000
 11
6.000000
 20
210.286000
 21
210.286000
  0
LINE
 10
6.000000
 11
6.000000
 20
251.143000
 21
257.143000
  0
LINE
 10
6.000000
 11
12.000000
 20
257.143000
 21
257.143000
  0
LINE
 10
12.000000
 11
12.000000
 20
257.143000
 21
251.143000
  0
LINE
 10
12.000000
 11
6.000000
 20
251.143000
 21
251.143000
  0
LINE
 10
6.000000
 11
6.000000
 20
292.000000
 21
298.000000
  0
LINE
 10
6.000000
 11
12.000000
 20
298.000000
 21
298.000000
  0
LINE
 10
12.000000
 11
12.000000
 20
298.000000
 21
292.000000
  0
LINE
 10
12.000000
 11
6.000000
 20
292.000000
 21
292.000000
  0
LINE
 10
18.000000
 11
18.000000
 20
6.000000
 21
12.000000
  0
LINE
 10
18.000000
 11
24.000000
 20
12.000000
 21
12.000000
  0
LINE
 10
24.000000
 11
24.000000
 20
12.000000
 21
6.000000
  0
LINE
 10
24.000000
 11
18.000000
 20
6.000000
 21
6.000000
  0
LINE
 10
18.000000
 11
18.000000
 20
52.226000
 21
58.226000
  0
LINE
 10
18.000000
 11
24.000000
 20
58.226000
 21
58.226000
  0
LINE
 10
24.000000
 11
24.000000
 20
58.226000
 21
52.226000
  0
LINE
 10
24.000000
 11
18.000000
 20
52.226000
 21
52.226000
  0
LINE
 10
18.000000
 11
18.000000
 20
112.320000
 21
118.320000
  0
LINE
 10
18.000000
 11
24.000000
 20
118.320000
 21
118.320000
  0
LINE
 10
24.000000
 11
24.000000
 20
118.320000
 21
112.320000
  0
LINE
 10
24.000000
 11
18.000000
 20
112.320000
 21
112.320000
  0
LINE
 10
18.000000
 11
18.000000
 20
190.442000
 21
196.442000
  0
LINE
 10
18.000000
 11
24.000000
 20
196.442000
 21
196.442000
  0
LINE
 10
24.000000
 11
24.000000
 20
196.442000
 21
190.442000
  0
LINE
 10
24.000000
 11
18.000000
 20
190.442000
 21
190.442000
  0
LINE
 10
18.000000
 11
18.000000
 20
292.000000
 21
298.000000
  0
LINE
 10
18.000000
 11
24.000000
 20
298.000000
 21
298.000000
  0
LINE
 10
24.000000
 11
24.000000
 20
298.000000
 21
292.000000
  0
LINE
 10
24.000000
 11
18.000000
 20
292.000000
 21
292.000000
  0
LINE
 10
50.000000
 11
50.000000
 20
6.000000
 21
12.000000
  0
LINE
 10
50.000000
 11
56.000000
 20
12.000000
 21
12.000000
  0
LINE
 10
56.000000
 11
56.000000
 20
12.000000
 21
6.000000
  0
LINE
 10
56.000000
 11
50.000000
 20
6.000000
 21
6.000000
  0
LINE
 10
50.000000
 11
50.000000
 20
52.226000
 21
58.226000
  0
LINE
 10
50.000000
 11
56.000000
 20
58.226000
 21
58.226000
  0
LINE
 10
56.000000
 11
56.000000
 20
58.226000
 21
52.226000
  0
LINE
 10
56.000000
 11
50.000000
 20
52.226000
 21
52.226000
  0
LINE
 10
50.000000
 11
50.000000
 20
112.320000
 21
118.320000
  0
LINE
 10
50.000000
 11
56.000000
 20
118.320000
 21
118.320000
  0
LINE
 10
56.000000
 11
56.000000
 20
118.320000
 21
112.320000
  0
LINE
 10
56.000000
 11
50.000000
 20
112.320000
 21
112.320000
  0
LINE
 10
50.000000
 11
50.000000
 20
190.442000
 21
196.442000
  0
LINE
 10
50.000000
 11
56.000000
 20
196.442000
 21
196.442000
  0
LINE
 10
56.000000
 11
56.000000
 20
196.442000
 21
190.442000
  0
LINE
 10
56.000000
 11
50.000000
 20
190.442000
 21
190.442000
  0
LINE
 10
50.000000
 11
50.000000
 20
292.000000
 21
298.000000
  0
LINE
 10
50.000000
 11
56.000000
 20
298.000000
 21
298.000000
  0
LINE
 10
56.000000
 11
56.000000
 20
298.000000
 21
292.000000
  0
LINE
 10
56.000000
 11
50.000000
 20
292.000000
 21
292.000000
  0
LINE
 10
68.000000
 11
68.000000
 20
6.000000
 21
12.000000
  0
LINE
 10
68.000000
 11
74.000000
 20
12.000000
 21
12.000000
  0
LINE
 10
74.000000
 11
74.000000
 20
12.000000
 21
46.857000
  0
LINE
 10
74.000000
 11
68.000000
 20
46.857000
 21
46.857000
  0
LINE
 10
68.000000
 11
68.000000
 20
46.857000
 21
52.857000
  0
LINE
 10
68.000000
 11
74.000000
 20
52.857000
 21
52.857000
  0
LINE
 10
74.000000
 11
74.000000
 20
52.857000
 21
87.714000
  0
LINE
 10
74.000000
 11
68.000000
 20
87.714000
 21
87.714000
  0
LINE
 10
68.000000
 11
68.000000
 20
87.714000
 21
93.714000
  0
LINE
 10
68.000000
 11
74.000000
 20
93.714000
 21
93.714000
  0
LINE
 10
74.000000
 11
74.000000
 20
93.714000
 21
128.571000
  0
LINE
 10
74.000000
 11
68.000000
 20
128.571000
 21
128.571000
  0
LINE
 10
68.000000
 11
68.000000
 20
128.571000
 21
134.571000
  0
LINE
 10
68.000000
 11
74.000000
 20
134.571000
 21
134.571000
  0
LINE
 10
74.000000
 11
74.000000
 20
134.571000
 21
169.429000
  0
LINE
 10
74.000000
 11
68.000000
 20
169.429000
 21
169.429000
  0
LINE
 10
68.000000
 11
68.000000
 20
169.429000
 21
175.429000
  0
LINE
 10
68.000000
 11
74.000000
 20
175.429000
 21
175.429000
  0
LINE
 10
74.000000
 11
74.000000
 20
175.429000
 21
210.286000
  0
LINE
 10
74.000000
 11
68.000000
 20
210.286000
 21
210.286000
  0
LINE
 10
68.000000
 11
68.000000
 20
210.286000
 21
216.286000
  0
LINE
 10
68.000000
 11
74.000000
 20
216.286000
 21
216.286000
  0
LINE
 10
74.000000
 11
74.000000
 20
216.286000
 21
251.143000
  0
LINE
 10
74.000000
 11
68.000000
 20
251.143000
 21
251.143000
  0
LINE
 10
68.000000
 11
68.000000
 20
251.143000
 21
257.143000
  0
LINE
 10
68.000000
 11
74.000000
 20
257.143000
 21
257.143000
  0
LINE
 10
74.000000
 11
74.000000
 20
257.143000
 21
292.000000
  0
LINE
 10
74.000000
 11
68.000000
 20
292.000000
 21
292.000000
  0
LINE
 10
68.000000
 11
68.000000
 20
292.000000
 21
298.000000
  0
LINE
 10
68.000000
 11
74.000000
 20
298.000000
 21
298.000000
  0
LINE
 10
74.000000
 11
74.000000
 20
298.000000
 21
304.000000
  0
LINE
 10
74.000000
 11
184.000000
 20
304.000000
 21
304.000000
  0
LINE
 10
184.000000
 11
184.000000
 20
304.000000
 21
298.000000
  0
LINE
 10
184.000000
 11
190.000000
 20
298.000000
 21
298.000000
  0
LINE
 10
190.000000
 11
190.000000
 20
298.000000
 21
292.000000
  0
LINE
 10
190.000000
 11
184.000000
 20
292.000000
 21
292.000000
  0
LINE
 10
184.000000
 11
184.000000
 20
292.000000
 21
257.143000
  0
LINE
 10
184.000000
 11
190.000000
 20
257.143000
 21
257.143000
  0
LINE
 10
190.000000
 11
190.000000
 20
257.143000
 21
251.143000
  0
LINE
 10
190.000000
 11
184.000000
 20
251.143000
 21
251.143000
  0
LINE
 10
184.000000
 11
184.000000
 20
251.143000
 21
216.286000
  0
LINE
 10
184.000000
 11
190.000000
 20
216.286000
 21
216.286000
  0
LINE
 10
190.000000
 11
190.000000
 20
216.286000
 21
210.286000
  0
LINE
 10
190.000000
 11
184.000000
 20
210.286000
 21
210.286000
  0
LINE
 10
184.000000
 11
184.000000
 20
210.286000
 21
175.429000
  0
LINE
 10
184.000000
 11
190.000000
 20
175.429000
 21
175.429000
  0
LINE
 10
190.000000
 11
190.000000
 20
175.429000
 21
169.429000
  0
LINE
 10
190.000000
 11
184.000000
 20
169.429000
 21
169.429000
  0
LINE
 10
184.000000
 11
184.000000
 20
169.429000
 21
134.571000
  0
LINE
 10
184.000000
 11
190.000000
 20
134.571000
 21
134.571000
  0
LINE
 10
190.000000
 11
190.000000
 20
134.571000
 21
128.571000
  0
LINE
 10
190.000000
 11
184.000000
 20
128.571000
 21
128.571000
  0
LINE
 10
184.000000
 11
184.000000
 20
128.571000
 21
93.714000
  0
LINE
 10
184.000000
 11
190.000000
 20
93.714000
 21
93.714000
  0
LINE
 10
190.000000
 11
190.000000
 20
93.714000
 21
87.714000
  0
LINE
 10
190.000000
 11
184.000000
 20
87.714000
 21
87.714000
  0
LINE
 10
184.000000
 11
184.000000
 20
87.714000
 21
52.857000
  0
LINE
 10
184.000000
 11
190.000000
 20
52.857000
 21
52.857000
  0
LINE
 10
190.000000
 11
190.000000
 20
52.857000
 21
46.857000
  0
LINE
 10
190.000000
 11
184.000000
 20
46.857000
 21
46.857000
  0
LINE
 10
184.000000
 11
184.000000
 20
46.857000
 21
12.000000
  0
LINE
 10
184.000000
 11
190.000000
 20
12.000000
 21
12.000000
  0
LINE
 10
190.000000
 11
190.000000
 20
12.000000
 21
6.000000
  0
LINE
 10
190.000000
 11
184.000000
 20
6.000000
 21
6.000000
  0
LINE
 10
184.000000
 11
184.000000
 20
6.000000
 21
0.000000
  0
LINE
 10
184.000000
 11
74.000000
 20
0.000000
 21
0.000000
  0
LINE
 10
74.000000
 11
74.000000
 20
0.000000
 21
6.000000
  0
LINE
 10
74.000000
 11
68.000000
 20
6.000000
 21
6.000000
  0
LINE
 10
80.000000
 11
80.000000
 20
6.000000
 21
12.000000
  0
LINE
 10
80.000000
 11
86.000000
 20
12.000000
 21
12.000000
  0
LINE
 10
86.000000
 11
86.000000
 20
12.000000
 21
6.000000
  0
LINE
 10
86.000000
 11
80.000000
 20
6.000000
 21
6.000000
  0
LINE
 10
80.000000
 11
80.000000
 20
52.226000
 21
58.226000
  0
LINE
 10
80.000000
 11
86.000000
 20
58.226000
 21
58.226000
  0
LINE
 10
86.000000
 11
86.000000
 20
58.226000
 21
52.226000
  0
LINE
 10
86.000000
 11
80.000000
 20
52.226000
 21
52.226000
  0
LINE
 10
80.000000
 11
80.000000
 20
112.320000
 21
118.320000
  0
LINE
 10
80.000000
 11
86.000000
 20
118.320000
 21
118.320000
  0
LINE
 10
86.000000
 11
86.000000
 20
118.320000
 21
112.320000
  0
LINE
 10
86.000000
 11
80.000000
 20
112.320000
 21
112.320000
  0
LINE
 10
80.000000
 11
80.000000
 20
190.442000
 21
196.442000
  0
LINE
 10
80.000000
 11
86.000000
 20
196.442000
 21
196.442000
  0
LINE
 10
86.000000
 11
86.000000
 20
196.442000
 21
190.442000
  0
LINE
 10
86.000000
 11
80.000000
 20
190.442000
 21
190.442000
  0
LINE
 10
80.000000
 11
80.000000
 20
292.000000
 21
298.000000
  0
LINE
 10
80.000000
 11
86.000000
 20
298.000000
 21
298.000000
  0
LINE
 10
86.000000
 11
86.000000
 20
298.000000
 21
292.000000
  0
LINE
 10
86.000000
 11
80.000000
 20
292.000000
 21
292.000000
  0
LINE
 10
172.000000
 11
172.000000
 20
6.000000
 21
12.000000
  0
LINE
 10
172.000000
 11
178.000000
 20
12.000000
 21
12.000000
  0
LINE
 10
178.000000
 11
178.000000
 20
12.000000
 21
6.000000
  0
LINE
 10
178.000000
 11
172.000000
 20
6.000000
 21
6.000000
  0
LINE
 10
172.000000
 11
172.000000
 20
52.226000
 21
58.226000
  0
LINE
 10
172.000000
 11
178.000000
 20
58.226000
 21
58.226000
  0
LINE
 10
178.000000
 11
178.000000
 20
58.226000
 21
52.226000
  0
LINE
 10
178.000000
 11
172.000000
 20
52.226000
 21
52.226000
  0
LINE
 10
172.000000
 11
172.000000
 20
112.320000
 21
118.320000
  0
LINE
 10
172.000000
 11
178.000000
 20
118.320000
 21
118.320000
  0
LINE
 10
178.000000
 11
178.000000
 20
118.320000
 21
112.320000
  0
LINE
 10
178.000000
 11
172.000000
 20
112.320000
 21
112.320000
  0
LINE
 10
172.000000
 11
172.000000
 20
190.442000
 21
196.442000
  0
LINE
 10
172.000000
 11
178.000000
 20
196.442000
 21
196.442000
  0
LINE
 10
178.000000
 11
178.000000
 20
196.442000
 21
190.442000
  0
LINE
 10
178.000000
 11
172.000000
 20
190.442000
 21
190.442000
  0
LINE
 10
172.000000
 11
172.000000
 20
292.000000
 21
298.000000
  0
LINE
 10
172.000000
 11
178.000000
 20
298.000000
 21
298.000000
  0
LINE
 10
178.000000
 11
178.000000
 20
298.000000
 21
292.000000
  0
LINE
 10
178.000000
 11
172.000000
 20
292.000000
 21
292.000000
  0
LINE
 10
196.000000
 11
196.000000
 20
0.000000
 21
304.000000
  0
LINE
 10
196.000000
 11
258.000000
 20
304.000000
 21
304.000000
  0
LINE
 10
258.000000
 11
258.000000
 20
304.000000
 21
0.000000
  0
LINE
 10
258.000000
 11
196.000000
 20
0.000000
 21
0.000000
  0
LINE
 10
202.000000
 11
202.000000
 20
6.000000
 21
12.000000
  0
LINE
 10
202.000000
 11
208.000000
 20
12.000000
 21
12.000000
  0
LINE
 10
208.000000
 11
208.000000
 20
12.000000
 21
6.000000
  0
LINE
 10
208.000000
 11
202.000000
 20
6.000000
 21
6.000000
  0
LINE
 10
202.000000
 11
202.000000
 20
46.857000
 21
52.857000
  0
LINE
 10
202.000000
 11
208.000000
 20
52.857000
 21
52.857000
  0
LINE
 10
208.000000
 11
208.000000
 20
52.857000
 21
46.857000
  0
LINE
 10
208.000000
 11
202.000000
 20
46.857000
 21
46.857000
  0
LINE
 10
202.000000
 11
202.000000
 20
87.714000
 21
93.714000
  0
LINE
 10
202.000000
 11
208.000000
 20
93.714000
 21
93.714000
  0
LINE
 10
208.000000
 11
208.000000
 20
93.714000
 21
87.714000
  0
LINE
 10
208.000000
 11
202.000000
 20
87.714000
 21
87.714000
  0
LINE
 10
202.000000
 11
202.000000
 20
128.571000
 21
134.571000
  0
LINE
 10
202.000000
 11
208.000000
 20
134.571000
 21
134.571000
  0
LINE
 10
208.000000
 11
208.000000
 20
134.571000
 21
128.571000
  0
LINE
 10
208.000000
 11
202.000000
 20
128.571000
 21
128.571000
  0
LINE
 10
202.000000
 11
202.000000
 20
169.429000
 21
175.429000
  0
LINE
 10
202.000000
 11
208.000000
 20
175.429000
 21
175.429000
  0
LINE
 10
208.000000
 11
208.000000
 20
175.429000
 21
169.429000
  0
LINE
 10
208.000000
 11
202.000000
 20
169.429000
 21
169.429000
  0
LINE
 10
202.000000
 11
202.000000
 20
210.286000
 21
216.286000
  0
LINE
 10
202.000000
 11
208.000000
 20
216.286000
 21
216.286000
  0
LINE
 10
208.000000
 11
208.000000
 20
216.286000
 21
210.286000
  0
LINE
 10
208.000000
 11
202.000000
 20
210.286000
 21
210.286000
  0
LINE
 10
202.000000
 11
202.000000
 20
251.143000
 21
257.143000
  0
LINE
 10
202.000000
 11
208.000000
 20
257.143000
 21
257.143000
  0
LINE
 10
208.000000
 11
208.000000
 20
257.143000
 21
251.143000
  0
LINE
 10
208.000000
 11
202.000000
 20
251.143000
 21
251.143000
  0
LINE
 10
202.000000
 11
202.000000
 20
292.000000
 21
298.000000
  0
LINE
 10
202.000000
 11
208.000000
 20
298.000000
 21
298.000000
  0
LINE
 10
208.000000
 11
208.000000
 20
298.000000
 21
292.000000
  0
LINE
 10
208.000000
 11
202.000000
 20
292.000000
 21
292.000000
  0
LINE
 10
214.000000
 11
214.000000
 20
6.000000
 21
12.000000
  0
LINE
 10
214.000000
 11
220.000000
 20
12.000000
 21
12.000000
  0
LINE
 10
220.000000
 11
220.000000
 20
12.000000
 21
6.000000
  0
LINE
 10
220.000000
 11
214.000000
 20
6.000000
 21
6.000000
  0
LINE
 10
214.000000
 11
214.000000
 20
107.558000
 21
113.558000
  0
LINE
 10
214.000000
 11
220.000000
 20
113.558000
 21
113.558000
  0
LINE
 10
220.000000
 11
220.000000
 20
113.558000
 21
107.558000
  0
LINE
 10
220.000000
 11
214.000000
 20
107.558000
 21
107.558000
  0
LINE
 10
214.000000
 11
214.000000
 20
185.680000
 21
191.680000
  0
LINE
 10
214.000000
 11
220.000000
 20
191.680000
 21
191.680000
  0
LINE
 10
220.000000
 11
220.000000
 20
191.680000
 21
185.680000
  0
LINE
 10
220.000000
 11
214.000000
 20
185.680000
 21
185.680000
  0
LINE
 10
214.000000
 11
214.000000
 20
245.774000
 21
251.774000
  0
LINE
 10
214.000000
 11
220.000000
 20
251.774000
 21
251.774000
  0
LINE
 10
220.000000
 11
220.000000
 20
251.774000
 21
245.774000
  0
LINE
 10
220.000000
 11
214.000000
 20
245.774000
 21
245.774000
  0
LINE
 10
214.000000
 11
214.000000
 20
292.000000
 21
298.000000
  0
LINE
 10
214.000000
 11
220.000000
 20
298.000000
 21
298.000000
  0
LINE
 10
220.000000
 11
220.000000
 20
298.000000
 21
292.000000
  0
LINE
 10
220.000000
 11
214.000000
 20
292.000000
 21
292.000000
  0
LINE
 10
246.000000
 11
246.000000
 20
6.000000
 21
12.000000
  0
LINE
 10
246.000000
 11
252.000000
 20
12.000000
 21
12.000000
  0
LINE
 10
252.000000
 11
252.000000
 20
12.000000
 21
6.000000
  0
LINE
 10
252.000000
 11
246.000000
 20
6.000000
 21
6.000000
  0
LINE
 10
246.000000
 11
246.000000
 20
107.558000
 21
113.558000
  0
LINE
 10
246.000000
 11
252.000000
 20
113.558000
 21
113.558000
  0
LINE
 10
252.000000
 11
252.000000
 20
113.558000
 21
107.558000
  0
LINE
 10
252.000000
 11
246.000000
 20
107.558000
 21
107.558000
  0
LINE
 10
246.000000
 11
246.000000
 20
185.680000
 21
191.680000
  0
LINE
 10
246.000000
 11
252.000000
 20
191.680000
 21
191.680000
  0
LINE
 10
252.000000
 11
252.000000
 20
191.680000
 21
185.680000
  0
LINE
 10
252.000000
 11
246.000000
 20
185.680000
 21
185.680000
  0
LINE
 10
246.000000
 11
246.000000
 20
245.774000
 21
251.774000
  0
LINE
 10
246.000000
 11
252.000000
 20
251.774000
 21
251.774000
  0
LINE
 10
252.000000
 11
252.000000
 20
251.774000
 21
245.774000
  0
LINE
 10
252.000000
 11
246.000000
 20
245.774000
 21
245.774000
  0
LINE
 10
246.000000
 11
246.000000
 20
292.000000
 21
298.000000
  0
LINE
 10
246.000000
 11
252.000000
 20
298.000000
 21
298.000000
  0
LINE
 10
252.000000
 11
252.000000
 20
298.000000
 21
292.000000
  0
LINE
 10
252.000000
 11
246.000000
 20
292.000000
 21
292.000000
  0
LINE
 10
264.000000
 11
264.000000
 20
12.000000
 21
18.000000
  0
LINE
 10
264.000000
 11
270.000000
 20
18.000000
 21
18.000000
  0
LINE
 10
270.000000
 11
270.000000
 20
18.000000
 21
44.000000
  0
LINE
 10
270.000000
 11
264.000000
 20
44.000000
 21
44.000000
  0
LINE
 10
264.000000
 11
264.000000
 20
44.000000
 21
50.000000
  0
LINE
 10
264.000000
 11
270.000000
 20
50.000000
 21
50.000000
  0
LINE
 10
270.000000
 11
270.000000
 20
50.000000
 21
56.000000
  0
LINE
 10
270.000000
 11
380.000000
 20
56.000000
 21
56.000000
  0
LINE
 10
380.000000
 11
380.000000
 20
56.000000
 21
50.000000
  0
LINE
 10
380.000000
 11
386.000000
 20
50.000000
 21
50.000000
  0
LINE
 10
386.000000
 11
386.000000
 20
50.000000
 21
44.000000
  0
LINE
 10
386.000000
 11
380.000000
 20
44.000000
 21
44.000000
  0
LINE
 10
380.000000
 11
380.000000
 20
44.000000
 21
18.000000
  0
LINE
 10
380.000000
 11
386.000000
 20
18.000000
 21
18.000000
  0
LINE
 10
386.000000
 11
386.000000
 20
18.000000
 21
12.000000
  0
LINE
 10
386.000000
 11
380.000000
 20
12.000000
 21
12.000000
  0
LINE
 10
380.000000
 11
380.000000
 20
12.000000
 21
6.000000
  0
LINE
 10
380.000000
 11
374.000000
 20
6.000000
 21
6.000000
  0
LINE
 10
374.000000
 11
374.000000
 20
6.000000
 21
0.000000
  0
LINE
 10
374.000000
 11
368.000000
 20
0.000000
 21
0.000000
  0
LINE
 10
368.000000
 11
368.000000
 20
0.000000
 21
6.000000
  0
LINE
 10
368.000000
 11
282.000000
 20
6.000000
 21
6.000000
  0
LINE
 10
282.000000
 11
282.000000
 20
6.000000
 21
0.000000
  0
LINE
 10
282.000000
 11
276.000000
 20
0.000000
 21
0.000000
  0
LINE
 10
276.000000
 11
276.000000
 20
0.000000
 21
6.000000
  0
LINE
 10
276.000000
 11
270.000000
 20
6.000000
 21
6.000000
  0
LINE
 10
270.000000
 11
270.000000
 20
6.000000
 21
12.000000
  0
LINE
 10
270.000000
 11
264.000000
 20
12.000000
 21
12.000000
  0
LINE
 10
264.000000
 11
264.000000
 20
74.000000
 21
80.000000
  0
LINE
 10
264.000000
 11
270.000000
 20
80.000000
 21
80.000000
  0
LINE
 10
270.000000
 11
270.000000
 20
80.000000
 21
106.000000
  0
LINE
 10
270.000000
 11
264.000000
 20
106.000000
 21
106.000000
  0
LINE
 10
264.000000
 11
264.000000
 20
106.000000
 21
112.000000
  0
LINE
 10
264.000000
 11
270.000000
 20
112.000000
 21
112.000000
  0
LINE
 10
270.000000
 11
270.000000
 20
112.000000
 21
118.000000
  0
LINE
 10
270.000000
 11
380.000000
 20
118.000000
 21
118.000000
  0
LINE
 10
380.000000
 11
380.000000
 20
118.000000
 21
112.000000
  0
LINE
 10
380.000000
 11
386.000000
 20
112.000000
 21
112.000000
  0
LINE
 10
386.000000
 11
386.000000
 20
112.000000
 21
106.000000
  0
LINE
 10
386.000000
 11
380.000000
 20
106.000000
 21
106.000000
  0
LINE
 10
380.000000
 11
380.000000
 20
106.000000
 21
80.000000
  0
LINE
 10
380.000000
 11
386.000000
 20
80.000000
 21
80.000000
  0
LINE
 10
386.000000
 11
386.000000
 20
80.000000
 21
74.000000
  0
LINE
 10
386.000000
 11
380.000000
 20
74.000000
 21
74.000000
  0
LINE
 10
380.000000
 11
380.000000
 20
74.000000
 21
68.000000
  0
LINE
 10
380.000000
 11
374.000000
 20
68.000000
 21
68.000000
  0
LINE
 10
374.000000
 11
374.000000
 20
68.000000
 21
62.000000
  0
LINE
 10
374.000000
 11
368.000000
 20
62.000000
 21
62.000000
  0
LINE
 10
368.000000
 11
368.000000
 20
62.000000
 21
68.000000
  0
LINE
 10
368.000000
 11
282.000000
 20
68.000000
 21
68.000000
  0
LINE
 10
282.000000
 11
282.000000
 20
68.000000
 21
62.000000
  0
LINE
 10
282.000000
 11
276.000000
 20
62.000000
 21
62.000000
  0
LINE
 10
276.000000
 11
276.000000
 20
62.000000
 21
68.000000
  0
LINE
 10
276.000000
 11
270.000000
 20
68.000000
 21
68.000000
  0
LINE
 10
270.000000
 11
270.000000
 20
68.000000
 21
74.000000
  0
LINE
 10
270.000000
 11
264.000000
 20
74.000000
 21
74.000000
  0
LINE
 10
264.000000
 11
264.000000
 20
136.000000
 21
142.000000
  0
LINE
 10
264.000000
 11
270.000000
 20
142.000000
 21
142.000000
  0
LINE
 10
270.000000
 11
270.000000
 20
142.000000
 21
168.000000
  0
LINE
 10
270.000000
 11
264.000000
 20
168.000000
 21
168.000000
  0
LINE
 10
264.000000
 11
264.000000
 20
168.000000
 21
174.000000
  0
LINE
 10
264.000000
 11
270.000000
 20
174.000000
 21
174.000000
  0
LINE
 10
270.000000
 11
270.000000
 20
174.000000
 21
180.000000
  0
LINE
 10
270.000000
 11
380.000000
 20
180.000000
 21
180.000000
  0
LINE
 10
380.000000
 11
380.000000
 20
180.000000
 21
174.000000
  0
LINE
 10
380.000000
 11
386.000000
 20
174.000000
 21
174.000000
  0
LINE
 10
386.000000
 11
386.000000
 20
174.000000
 21
168.000000
  0
LINE
 10
386.000000
 11
380.000000
 20
168.000000
 21
168.000000
  0
LINE
 10
380.000000
 11
380.000000
 20
168.000000
 21
142.000000
  0
LINE
 10
380.000000
 11
386.000000
 20
142.000000
 21
142.000000
  0
LINE
 10
386.000000
 11
386.000000
 20
142.000000
 21
136.000000
  0
LINE
 10
386.000000
 11
380.000000
 20
136.000000
 21
136.000000
  0
LINE
 10
380.000000
 11
380.000000
 20
136.000000
 21
130.000000
  0
LINE
 10
380.000000
 11
374.000000
 20
130.000000
 21
130.000000
  0
LINE
 10
374.000000
 11
374.000000
 20
130.000000
 21
124.000000
  0
LINE
 10
374.000000
 11
368.000000
 20
124.000000
 21
124.000000
  0
LINE
 10
368.000000
 11
368.000000
 20
124.000000
 21
130.000000
  0
LINE
 10
368.000000
 11
282.000000
 20
130.000000
 21
130.000000
  0
LINE
 10
282.000000
 11
282.000000
 20
130.000000
 21
124.000000
  0
LINE
 10
282.000000
 11
276.000000
 20
124.000000
 21
124.000000
  0
LINE
 10
276.000000
 11
276.000000
 20
124.000000
 21
130.000000
  0
LINE
 10
276.000000
 11
270.000000
 20
130.000000
 21
130.000000
  0
LINE
 10
270.000000
 11
270.000000
 20
130.000000
 21
136.000000
  0
LINE
 10
270.000000
 11
264.000000
 20
136.000000
 21
136.000000
  0
LINE
 10
264.000000
 11
264.000000
 20
198.000000
 21
204.000000
  0
LINE
 10
264.000000
 11
270.000000
 20
204.000000
 21
204.000000
  0
LINE
 10
270.000000
 11
270.000000
 20
204.000000
 21
230.000000
  0
LINE
 10
270.000000
 11
264.000000
 20
230.000000
 21
230.000000
  0
LINE
 10
264.000000
 11
264.000000
 20
230.000000
 21
236.000000
  0
LINE
 10
264.000000
 11
270.000000
 20
236.000000
 21
236.000000
  0
LINE
 10
270.000000
 11
270.000000
 20
236.000000
 21
242.000000
  0
LINE
 10
270.000000
 11
380.000000
 20
242.000000
 21
242.000000
  0
LINE
 10
380.000000
 11
380.000000
 20
242.000000
 21
236.000000
  0
LINE
 10
380.000000
 11
386.000000
 20
236.000000
 21
236.000000
  0
LINE
 10
386.000000
 11
386.000000
 20
236.000000
 21
230.000000
  0
LINE
 10
386.000000
 11
380.000000
 20
230.000000
 21
230.000000
  0
LINE
 10
380.000000
 11
380.000000
 20
230.000000
 21
204.000000
  0
LINE
 10
380.000000
 11
386.000000
 20
204.000000
 21
204.000000
  0
LINE
 10
386.000000
 11
386.000000
 20
204.000000
 21
198.000000
  0
LINE
 10
386.000000
 11
380.000000
 20
198.000000
 21
198.000000
  0
LINE
 10
380.000000
 11
380.000000
 20
198.000000
 21
192.000000
  0
LINE
 10
380.000000
 11
374.000000
 20
192.000000
 21
192.000000
  0
LINE
 10
374.000000
 11
374.000000
 20
192.000000
 21
186.000000
  0
LINE
 10
374.000000
 11
368.000000
 20
186.000000
 21
186.000000
  0
LINE
 10
368.000000
 11
368.000000
 20
186.000000
 21
192.000000
  0
LINE
 10
368.000000
 11
282.000000
 20
192.000000
 21
192.000000
  0
LINE
 10
282.000000
 11
282.000000
 20
192.000000
 21
186.000000
  0
LINE
 10
282.000000
 11
276.000000
 20
186.000000
 21
186.000000
  0
LINE
 10
276.000000
 11
276.000000
 20
186.000000
 21
192.000000
  0
LINE
 10
276.000000
 11
270.000000
 20
192.000000
 21
192.000000
  0
LINE
 10
270.000000
 11
270.000000
 20
192.000000
 21
198.000000
  0
LINE
 10
270.000000
 11
264.000000
 20
198.000000
 21
198.000000
  0
LINE
 10
264.000000
 11
264.000000
 20
260.000000
 21
266.000000
  0
LINE
 10
264.000000
 11
270.000000
 20
266.000000
 21
266.000000
  0
LINE
 10
270.000000
 11
270.000000
 20
266.000000
 21
292.000000
  0
LINE
 10
270.000000
 11
264.000000
 20
292.000000
 21
292.000000
  0
LINE
 10
264.000000
 11
264.000000
 20
292.000000
 21
298.000000
  0
LINE
 10
264.000000
 11
270.000000
 20
298.000000
 21
298.000000
  0
LINE
 10
270.000000
 11
270.000000
 20
298.000000
 21
304.000000
  0
LINE
 10
270.000000
 11
380.000000
 20
304.000000
 21
304.000000
  0
LINE
 10
380.000000
 11
380.000000
 20
304.000000
 21
298.000000
  0
LINE
 10
380.000000
 11
386.000000
 20
298.000000
 21
298.000000
  0
LINE
 10
386.000000
 11
386.000000
 20
298.000000
 21
292.000000
  0
LINE
 10
386.000000
 11
380.000000
 20
292.000000
 21
292.000000
  0
LINE
 10
380.000000
 11
380.000000
 20
292.000000
 21
266.000000
  0
LINE
 10
380.000000
 11
386.000000
 20
266.000000
 21
266.000000
  0
LINE
 10
386.000000
 11
386.000000
 20
266.000000
 21
260.000000
  0
LINE
 10
386.000000
 11
380.000000
 20
260.000000
 21
260.000000
  0
LINE
 10
380.000000
 11
380.000000
 20
260.000000
 21
254.000000
  0
LINE
 10
380.000000
 11
374.000000
 20
254.000000
 21
254.000000
  0
LINE
 10
374.000000
 11
374.000000
 20
254.000000
 21
248.000000
  0
LINE
 10
374.000000
 11
368.000000
 20
248.000000
 21
248.000000
  0
LINE
 10
368.000000
 11
368.000000
 20
248.000000
 21
254.000000
  0
LINE
 10
368.000000
 11
282.000000
 20
254.000000
 21
254.000000
  0
LINE
 10
282.000000
 11
282.000000
 20
254.000000
 21
248.000000
  0
LINE
 10
282.000000
 11
276.000000
 20
248.000000
 21
248.000000
  0
LINE
 10
276.000000
 11
276.000000
 20
248.000000
 21
254.000000
  0
LINE
 10
276.000000
 11
270.000000
 20
254.000000
 21
254.000000
  0
LINE
 10
270.000000
 11
270.000000
 20
254.000000
 21
260.000000
  0
LINE
 10
270.000000
 11
264.000000
 20
260.000000
 21
260.000000
  0
ENDSEC
  0
EOF
