999
dxflib 2.0.4.8
  0
SECTION
  2
HEADER
  9
$ACADVER
  1
AC1015
  9
$HANDSEED
  5
FFFF
  9
$DIMASZ
 40
2.5
  9
$DIMGAP
 40
0.625
  9
$DIMEXO
 40
0.625
  9
$INSUNITS
 70
4
  9
$DIMTXT
 40
2.5
  9
$PLIMMAX
 10
210.0
 20
297.0
  9
$PLIMMIN
 10
0.0
 20
0.0
  9
$DIMEXE
 40
1.25
  0
ENDSEC
  0
SECTION
  2
TABLES
  0
TABLE
  2
VPORT
  5
8
100
AcDbSymbolTable
 70
1
  0
VPORT
  5
30
100
AcDbSymbolTableRecord
100
AcDbViewportTableRecord
  2
*Active
 70
0
 10
0.0
 20
0.0
 11
1.0
 21
1.0
 12
286.3055555555554861
 22
148.5
 13
0.0
 23
0.0
 14
10.0
 24
10.0
 15
10.0
 25
10.0
 16
0.0
 26
0.0
 36
1.0
 17
0.0
 27
0.0
 37
0.0
 40
297.0
 41
1.92798353909465
 42
50.0
 43
0.0
 44
0.0
 50
0.0
 51
0.0
 71
0
 72
100
 73
1
 74
3
 75
1
 76
1
 77
0
 78
0
281
0
 65
1
110
0.0
120
0.0
130
0.0
111
1.0
121
0.0
131
0.0
112
0.0
122
1.0
132
0.0
 79
0
146
0.0
  0
ENDTAB
  0
TABLE
  2
LTYPE
  5
5
100
AcDbSymbolTable
 70
21
  0
LTYPE
  5
14
100
AcDbSymbolTableRecord
100
AcDbLinetypeTableRecord
  2
ByBlock
 70
0
  3

 72
65
 73
0
 40
0.0
  0
LTYPE
  5
15
100
AcDbSymbolTableRecord
100
AcDbLinetypeTableRecord
  2
ByLayer
 70
0
  3

 72
65
 73
0
 40
0.0
  0
LTYPE
  5
16
100
AcDbSymbolTableRecord
100
AcDbLinetypeTableRecord
  2
CONTINUOUS
 70
0
  3
Solid line
 72
65
 73
0
 40
0.0
  0
LTYPE
  5
31
100
AcDbSymbolTableRecord
100
AcDbLinetypeTableRecord
  2
DOT
 70
0
  3
Dot . . . . . . . . . . . . . . . . . . . . . .
 72
65
 73
2
 40
6.3499999999999996
 49
0.0
 74
0
 49
-6.3499999999999996
 74
0
  0
LTYPE
  5
32
100
AcDbSymbolTableRecord
100
AcDbLinetypeTableRecord
  2
DOT2
 70
0
  3
Dot (.5x) .....................................
 72
65
 73
2
 40
3.1749999999999998
 49
0.0
 74
0
 49
-3.1749999999999998
 74
0
  0
LTYPE
  5
33
100
AcDbSymbolTableRecord
100
AcDbLinetypeTableRecord
  2
DOTX2
 70
0
  3
Dot (2x) .  .  .  .  .  .  .  .  .  .  .  .  .
 72
65
 73
2
 40
12.6999999999999993
 49
0.0
 74
0
 49
-12.6999999999999993
 74
0
  0
LTYPE
  5
34
100
AcDbSymbolTableRecord
100
AcDbLinetypeTableRecord
  2
DASHED
 70
0
  3
Dashed __ __ __ __ __ __ __ __ __ __ __ __ __ _
 72
65
 73
2
 40
19.0500000000000007
 49
12.6999999999999993
 74
0
 49
-6.3499999999999996
 74
0
  0
LTYPE
  5
35
100
AcDbSymbolTableRecord
100
AcDbLinetypeTableRecord
  2
DASHED2
 70
0
  3
Dashed (.5x) _ _ _ _ _ _ _ _ _ _ _ _ _ _ _ _ _
 72
65
 73
2
 40
9.5250000000000004
 49
6.3499999999999996
 74
0
 49
-3.1749999999999998
 74
0
  0
LTYPE
  5
36
100
AcDbSymbolTableRecord
100
AcDbLinetypeTableRecord
  2
DASHEDX2
 70
0
  3
Dashed (2x) ____  ____  ____  ____  ____  ___
 72
65
 73
2
 40
38.1000000000000014
 49
25.3999999999999986
 74
0
 49
-12.6999999999999993
 74
0
  0
LTYPE
  5
37
100
AcDbSymbolTableRecord
100
AcDbLinetypeTableRecord
  2
DASHDOT
 70
0
  3
Dash dot __ . __ . __ . __ . __ . __ . __ . __
 72
65
 73
4
 40
25.3999999999999986
 49
12.6999999999999993
 74
0
 49
-6.3499999999999996
 74
0
 49
0.0
 74
0
 49
-6.3499999999999996
 74
0
  0
LTYPE
  5
38
100
AcDbSymbolTableRecord
100
AcDbLinetypeTableRecord
  2
DASHDOT2
 70
0
  3
Dash dot (.5x) _._._._._._._._._._._._._._._.
 72
65
 73
4
 40
12.6999999999999993
 49
6.3499999999999996
 74
0
 49
-3.1749999999999998
 74
0
 49
0.0
 74
0
 49
-3.1749999999999998
 74
0
  0
LTYPE
  5
39
100
AcDbSymbolTableRecord
100
AcDbLinetypeTableRecord
  2
DASHDOTX2
 70
0
  3
Dash dot (2x) ____  .  ____  .  ____  .  ___
 72
65
 73
4
 40
50.7999999999999972
 49
25.3999999999999986
 74
0
 49
-12.6999999999999993
 74
0
 49
0.0
 74
0
 49
-12.6999999999999993
 74
0
  0
LTYPE
  5
3A
100
AcDbSymbolTableRecord
100
AcDbLinetypeTableRecord
  2
DIVIDE
 70
0
  3
Divide ____ . . ____ . . ____ . . ____ . . ____
 72
65
 73
6
 40
31.75
 49
12.6999999999999993
 74
0
 49
-6.3499999999999996
 74
0
 49
0.0
 74
0
 49
-6.3499999999999996
 74
0
 49
0.0
 74
0
 49
-6.3499999999999996
 74
0
  0
LTYPE
  5
3B
100
AcDbSymbolTableRecord
100
AcDbLinetypeTableRecord
  2
DIVIDE2
 70
0
  3
Divide (.5x) __..__..__..__..__..__..__..__.._
 72
65
 73
6
 40
15.875
 49
6.3499999999999996
 74
0
 49
-3.1749999999999998
 74
0
 49
0.0
 74
0
 49
-3.1749999999999998
 74
0
 49
0.0
 74
0
 49
-3.1749999999999998
 74
0
  0
LTYPE
  5
3C
100
AcDbSymbolTableRecord
100
AcDbLinetypeTableRecord
  2
DIVIDEX2
 70
0
  3
Divide (2x) ________  .  .  ________  .  .  _
 72
65
 73
6
 40
63.5
 49
25.3999999999999986
 74
0
 49
-12.6999999999999993
 74
0
 49
0.0
 74
0
 49
-12.6999999999999993
 74
0
 49
0.0
 74
0
 49
-12.6999999999999993
 74
0
  0
LTYPE
  5
3D
100
AcDbSymbolTableRecord
100
AcDbLinetypeTableRecord
  2
CENTER
 70
0
  3
Center ____ _ ____ _ ____ _ ____ _ ____ _ ____
 72
65
 73
4
 40
50.7999999999999972
 49
31.75
 74
0
 49
-6.3499999999999996
 74
0
 49
6.3499999999999996
 74
0
 49
-6.3499999999999996
 74
0
  0
LTYPE
  5
3E
100
AcDbSymbolTableRecord
100
AcDbLinetypeTableRecord
  2
CENTER2
 70
0
  3
Center (.5x) ___ _ ___ _ ___ _ ___ _ ___ _ ___
 72
65
 73
4
 40
28.5749999999999993
 49
19.0500000000000007
 74
0
 49
-3.1749999999999998
 74
0
 49
3.1749999999999998
 74
0
 49
-3.1749999999999998
 74
0
  0
LTYPE
  5
3F
100
AcDbSymbolTableRecord
100
AcDbLinetypeTableRecord
  2
CENTERX2
 70
0
  3
Center (2x) ________  __  ________  __  _____
 72
65
 73
4
 40
101.5999999999999943
 49
63.5
 74
0
 49
-12.6999999999999993
 74
0
 49
12.6999999999999993
 74
0
 49
-12.6999999999999993
 74
0
  0
LTYPE
  5
40
100
AcDbSymbolTableRecord
100
AcDbLinetypeTableRecord
  2
BORDER
 70
0
  3
Border __ __ . __ __ . __ __ . __ __ . __ __ .
 72
65
 73
6
 40
44.4500000000000028
 49
12.6999999999999993
 74
0
 49
-6.3499999999999996
 74
0
 49
12.6999999999999993
 74
0
 49
-6.3499999999999996
 74
0
 49
0.0
 74
0
 49
-6.3499999999999996
 74
0
  0
LTYPE
  5
41
100
AcDbSymbolTableRecord
100
AcDbLinetypeTableRecord
  2
BORDER2
 70
0
  3
Border (.5x) __.__.__.__.__.__.__.__.__.__.__.
 72
65
 73
6
 40
22.2250000000000014
 49
6.3499999999999996
 74
0
 49
-3.1749999999999998
 74
0
 49
6.3499999999999996
 74
0
 49
-3.1749999999999998
 74
0
 49
0.0
 74
0
 49
-3.1749999999999998
 74
0
  0
LTYPE
  5
42
100
AcDbSymbolTableRecord
100
AcDbLinetypeTableRecord
  2
BORDERX2
 70
0
  3
Border (2x) ____  ____  .  ____  ____  .  ___
 72
65
 73
6
 40
88.9000000000000057
 49
25.3999999999999986
 74
0
 49
-12.6999999999999993
 74
0
 49
25.3999999999999986
 74
0
 49
-12.6999999999999993
 74
0
 49
0.0
 74
0
 49
-12.6999999999999993
 74
0
  0
ENDTAB
  0
TABLE
  2
LAYER
  5
2
100
AcDbSymbolTable
 70
7
  0
LAYER
  5
10
100
AcDbSymbolTableRecord
100
AcDbLayerTableRecord
  2
0
 70
0
 62
7
  6
CONTINUOUS
370
0
390
F
  0
LAYER
  5
43
100
AcDbSymbolTableRecord
100
AcDbLayerTableRecord
  2
tpl_top
 70
0
 62
1
  6
CONTINUOUS
370
0
390
F
  0
LAYER
  5
44
100
AcDbSymbolTableRecord
100
AcDbLayerTableRecord
  2
tpl_bottom
 70
0
 62
5
  6
CONTINUOUS
370
0
390
F
  0
LAYER
  5
45
100
AcDbSymbolTableRecord
100
AcDbLayerTableRecord
  2
back1
 70
0
 62
3
  6
CONTINUOUS
370
0
390
F
  0
LAYER
  5
46
100
AcDbSymbolTableRecord
100
AcDbLayerTableRecord
  2
back2
 70
0
 62
2
  6
CONTINUOUS
370
0
390
F
  0
LAYER
  5
47
100
AcDbSymbolTableRecord
100
AcDbLayerTableRecord
  2
body
 70
0
 62
4
  6
CONTINUOUS
370
0
390
F
  0
LAYER
  5
48
100
AcDbSymbolTableRecord
100
AcDbLayerTableRecord
  2
axis
 70
0
 62
6
  6
CONTINUOUS
370
0
390
F
  0
ENDTAB
  0
TABLE
  2
STYLE
  5
3
100
AcDbSymbolTable
 70
1
  0
STYLE
  5
11
100
AcDbSymbolTableRecord
100
AcDbTextStyleTableRecord
  2
Standard
 70
0
 40
0.0
 41
0.75
 50
0.0
 71
0
 42
2.5
  3
txt
  4

  0
ENDTAB
  0
TABLE
  2
VIEW
  5
6
100
AcDbSymbolTable
 70
0
  0
ENDTAB
  0
TABLE
  2
UCS
  5
7
100
AcDbSymbolTable
 70
0
  0
ENDTAB
  0
TABLE
  2
APPID
  5
9
100
AcDbSymbolTable
 70
1
  0
APPID
  5
12
100
AcDbSymbolTableRecord
100
AcDbRegAppTableRecord
  2
ACAD
 70
0
  0
ENDTAB
  0
TABLE
  2
DIMSTYLE
  5
A
100
AcDbSymbolTable
 70
1
100
AcDbDimStyleTable
 71
0
  0
DIMSTYLE
105
27
100
AcDbSymbolTableRecord
100
AcDbDimStyleTableRecord
  2
Standard
 41
2.5
 42
0.625
 43
3.75
 44
1.25
 70
0
 73
0
 74
0
 77
1
 78
8
140
2.5
141
2.5
143
0.03937007874016
147
0.625
171
3
172
1
271
2
272
2
274
3
278
44
283
0
284
8
340
11
  0
ENDTAB
  0
TABLE
  2
BLOCK_RECORD
  5
1
100
AcDbSymbolTable
 70
1
  0
BLOCK_RECORD
  5
1F
100
AcDbSymbolTableRecord
100
AcDbBlockTableRecord
  2
*Model_Space
340
22
  0
BLOCK_RECORD
  5
1B
100
AcDbSymbolTableRecord
100
AcDbBlockTableRecord
  2
*Paper_Space
340
1E
  0
BLOCK_RECORD
  5
23
100
AcDbSymbolTableRecord
100
AcDbBlockTableRecord
  2
*Paper_Space0
340
26
  0
ENDTAB
  0
ENDSEC
  0
SECTION
  2
BLOCKS
  0
BLOCK
  5
20
100
AcDbEntity
  8
0
100
AcDbBlockBegin
  2
*Model_Space
 70
0
 10
0.0
 20
0.0
 30
0.0
  3
*Model_Space
  1

  0
ENDBLK
  5
21
100
AcDbEntity
  8
0
100
AcDbBlockEnd
  0
BLOCK
  5
1C
100
AcDbEntity
 67
1
  8
0
100
AcDbBlockBegin
  2
*Paper_Space
 70
0
 10
0.0
 20
0.0
 30
0.0
  3
*Paper_Space
  1

  0
ENDBLK
  5
1D
100
AcDbEntity
 67
1
  8
0
100
AcDbBlockEnd
  0
BLOCK
  5
24
100
AcDbEntity
  8
0
100
AcDbBlockBegin
  2
*Paper_Space0
 70
0
 10
0.0
 20
0.0
 30
0.0
  3
*Paper_Space0
  1

  0
ENDBLK
  5
25
100
AcDbEntity
  8
0
100
AcDbBlockEnd
  0
ENDSEC
  0
SECTION
  2
ENTITIES
  0
LINE
  5
49
100
AcDbEntity
100
AcDbLine
  8
tpl_top
 62
256
370
-1
  6
CONTINUOUS
 10
70.6430867609464883
 20
27.2934467027248644
 30
0.0
 11
61.8430867609467612
 21
27.2934467027245518
 31
0.0
  0
LINE
  5
4A
100
AcDbEntity
100
AcDbLine
  8
tpl_top
 62
256
370
-1
  6
CONTINUOUS
 10
72.1430867609467157
 20
26.1934467027247138
 30
0.0
 11
60.3430867609467612
 21
26.1934467027247138
 31
0.0
  0
LINE
  5
4B
100
AcDbEntity
100
AcDbLine
  8
tpl_top
 62
256
370
-1
  6
CONTINUOUS
 10
72.1430867609467157
 20
30.8934467027248445
 30
0.0
 11
70.6430867609464883
 21
30.8934467027248303
 31
0.0
  0
LINE
  5
4C
100
AcDbEntity
100
AcDbLine
  8
tpl_top
 62
256
370
-1
  6
CONTINUOUS
 10
61.8430867609467612
 20
30.8934467027249298
 30
0.0
 11
60.3430867609467612
 21
30.893446702724674
 31
0.0
  0
LINE
  5
4D
100
AcDbEntity
100
AcDbLine
  8
tpl_top
 62
256
370
-1
  6
CONTINUOUS
 10
60.3430867609467612
 20
26.1934467027247138
 30
0.0
 11
60.3430867609467612
 21
30.893446702724674
 31
0.0
  0
LINE
  5
4E
100
AcDbEntity
100
AcDbLine
  8
tpl_top
 62
256
370
-1
  6
CONTINUOUS
 10
56.3430867609467469
 20
4.6934467027247422
 30
0.0
 11
56.3430867609468748
 21
8.1939569599414881
 31
0.0
  0
LINE
  5
4F
100
AcDbEntity
100
AcDbLine
  8
tpl_top
 62
256
370
-1
  6
CONTINUOUS
 10
56.3430867609468748
 20
13.0929364455081014
 30
0.0
 11
56.3430867609467612
 21
26.093956959941579
 31
0.0
  0
LINE
  5
50
100
AcDbEntity
100
AcDbLine
  8
tpl_top
 62
256
370
-1
  6
CONTINUOUS
 10
56.8430867609467612
 20
31.0434467027247223
 30
0.0
 11
56.8430867609467612
 21
31.9934467027248246
 31
0.0
  0
LINE
  5
51
100
AcDbEntity
100
AcDbLine
  8
tpl_top
 62
256
370
-1
  6
CONTINUOUS
 10
61.8430867609467612
 20
27.2934467027245518
 30
0.0
 11
61.8430867609467612
 21
30.8934467027249298
 31
0.0
  0
LINE
  5
52
100
AcDbEntity
100
AcDbLine
  8
tpl_top
 62
256
370
-1
  6
CONTINUOUS
 10
72.143086760946602
 20
26.1934467027246995
 30
0.0
 11
72.1430867609467157
 21
30.8934467027248445
 31
0.0
  0
LINE
  5
53
100
AcDbEntity
100
AcDbLine
  8
tpl_top
 62
256
370
-1
  6
CONTINUOUS
 10
70.6430867609464883
 20
27.2934467027248644
 30
0.0
 11
70.6430867609464883
 21
30.8934467027248303
 31
0.0
  0
LINE
  5
54
100
AcDbEntity
100
AcDbLine
  8
tpl_top
 62
256
370
-1
  6
CONTINUOUS
 10
73.8930867609468294
 20
36.993446702724782
 30
0.0
 11
87.4430867609468976
 21
36.9934467027247251
 31
0.0
  0
LINE
  5
55
100
AcDbEntity
100
AcDbLine
  8
tpl_top
 62
256
370
-1
  6
CONTINUOUS
 10
90.4430867609467839
 20
4.6934467027246853
 30
0.0
 11
90.4430867609467839
 21
28.278465527468839
 31
0.0
  0
LINE
  5
56
100
AcDbEntity
100
AcDbLine
  8
tpl_top
 62
256
370
-1
  6
CONTINUOUS
 10
58.8430867609467469
 20
2.1934467027247422
 30
0.0
 11
61.7430867609467242
 21
2.1934467027247138
 31
0.0
  0
LINE
  5
57
100
AcDbEntity
100
AcDbLine
  8
tpl_top
 62
256
370
-1
  6
CONTINUOUS
 10
70.7430867609466247
 20
2.1934467027247138
 30
0.0
 11
87.9430867609467981
 21
2.1934467027246995
 31
0.0
  0
LINE
  5
58
100
AcDbEntity
100
AcDbLine
  8
tpl_top
 62
256
370
-1
  6
CONTINUOUS
 10
61.7430867609467384
 20
6.8934467027247024
 30
0.0
 11
70.7430867609467384
 21
6.8934467027244608
 31
0.0
  0
CIRCLE
  5
59
100
AcDbEntity
100
AcDbCircle
  8
tpl_top
 62
256
370
-1
  6
CONTINUOUS
 10
56.8430867609467612
 20
28.5434467027250491
 30
0.0
 40
0.9
  0
ARC
  5
5A
100
AcDbEntity
  8
tpl_top
 62
256
370
-1
  6
CONTINUOUS
100
AcDbCircle
 10
56.8430867609467612
 20
28.5434467027250491
 30
0.0
 40
2.5
100
AcDbArc
 50
89.9999999999999858
 51
258.4630409671818825
  0
ARC
  5
5B
100
AcDbEntity
  8
tpl_top
 62
256
370
-1
  6
CONTINUOUS
100
AcDbCircle
 10
73.8930867609468294
 20
34.4934467027247678
 30
0.0
 40
2.4999999999999432
100
AcDbArc
 50
89.9999999999999858
 51
180.0
  0
LINE
  5
5C
100
AcDbEntity
100
AcDbLine
  8
tpl_top
 62
256
370
-1
  6
CONTINUOUS
 10
71.3930867609469431
 20
34.4934467027247678
 30
0.0
 11
59.3430867609467612
 21
34.4934467027248388
 31
0.0
  0
ARC
  5
5D
100
AcDbEntity
  8
tpl_top
 62
256
370
-1
  6
CONTINUOUS
100
AcDbCircle
 10
59.3430867609467612
 20
31.9934467027248388
 30
0.0
 40
2.4999999999999432
100
AcDbArc
 50
89.9999999999999858
 51
180.0
  0
ARC
  5
5E
100
AcDbEntity
  8
tpl_top
 62
256
370
-1
  6
CONTINUOUS
100
AcDbCircle
 10
87.4430867609468976
 20
34.4934467027247251
 30
0.0
 40
2.5
100
AcDbArc
 50
360.0
 51
89.9999999999999858
  0
LINE
  5
5F
100
AcDbEntity
100
AcDbLine
  8
tpl_top
 62
256
370
-1
  6
CONTINUOUS
 10
89.9430867609468976
 20
33.2279552702521244
 30
0.0
 11
89.9430867609468976
 21
34.4934467027247535
 31
0.0
  0
CIRCLE
  5
60
100
AcDbEntity
100
AcDbCircle
  8
tpl_top
 62
256
370
-1
  6
CONTINUOUS
 10
89.9430867609468976
 20
30.7279552702519823
 30
0.0
 40
0.9
  0
ARC
  5
61
100
AcDbEntity
  8
tpl_top
 62
256
370
-1
  6
CONTINUOUS
100
AcDbCircle
 10
89.9430867609468976
 20
30.7279552702519823
 30
0.0
 40
2.5
100
AcDbArc
 50
281.5369590328181175
 51
89.9999999999999858
  0
ARC
  5
62
100
AcDbEntity
  8
tpl_top
 62
256
370
-1
  6
CONTINUOUS
100
AcDbCircle
 10
87.9430867609467839
 20
4.6934467027247138
 30
0.0
 40
2.5
100
AcDbArc
 50
270.0
 51
360.0
  0
CIRCLE
  5
63
100
AcDbEntity
100
AcDbCircle
  8
tpl_top
 62
256
370
-1
  6
CONTINUOUS
 10
56.8430867609468748
 20
10.6434467027246882
 30
0.0
 40
0.9
  0
ARC
  5
64
100
AcDbEntity
  8
tpl_top
 62
256
370
-1
  6
CONTINUOUS
100
AcDbCircle
 10
56.8430867609468891
 20
10.6434467027247592
 30
0.0
 40
2.5000000000001359
100
AcDbArc
 50
101.5369590328181317
 51
258.4630409671818825
  0
ARC
  5
65
100
AcDbEntity
  8
tpl_top
 62
256
370
-1
  6
CONTINUOUS
100
AcDbCircle
 10
58.8430867609467612
 20
4.6934467027246995
 30
0.0
 40
2.5
100
AcDbArc
 50
180.0
 51
270.0
  0
LINE
  5
66
100
AcDbEntity
100
AcDbLine
  8
tpl_top
 62
256
370
-1
  6
CONTINUOUS
 10
61.7430867609467384
 20
6.8934467027247024
 30
0.0
 11
61.7430867609467242
 21
2.1934467027247138
 31
0.0
  0
LINE
  5
67
100
AcDbEntity
100
AcDbLine
  8
tpl_top
 62
256
370
-1
  6
CONTINUOUS
 10
70.7430867609467384
 20
6.8934467027246882
 30
0.0
 11
70.7430867609466247
 21
2.1934467027247138
 31
0.0
  0
LINE
  5
68
100
AcDbEntity
100
AcDbLine
  8
tpl_top
 62
256
370
-1
  6
CONTINUOUS
 10
84.9430867609465565
 20
30.8934467027246171
 30
0.0
 11
76.1430867609468294
 21
30.8934467027246313
 31
0.0
  0
LINE
  5
69
100
AcDbEntity
100
AcDbLine
  8
tpl_top
 62
256
370
-1
  6
CONTINUOUS
 10
86.4430867609467839
 20
34.4934467027246541
 30
0.0
 11
84.9430867609465565
 21
34.4934467027247109
 31
0.0
  0
LINE
  5
6A
100
AcDbEntity
100
AcDbLine
  8
tpl_top
 62
256
370
-1
  6
CONTINUOUS
 10
76.1430867609468294
 20
34.4934467027247109
 30
0.0
 11
74.6430867609468294
 21
34.4934467027246541
 31
0.0
  0
LINE
  5
6B
100
AcDbEntity
100
AcDbLine
  8
tpl_top
 62
256
370
-1
  6
CONTINUOUS
 10
84.9430867609465423
 20
8.2934467027246228
 30
0.0
 11
76.1430867609468152
 21
8.2934467027246228
 31
0.0
  0
LINE
  5
6C
100
AcDbEntity
100
AcDbLine
  8
tpl_top
 62
256
370
-1
  6
CONTINUOUS
 10
86.4430867609467555
 20
4.6934467027245717
 30
0.0
 11
84.9430867609465849
 21
4.6934467027245859
 31
0.0
  0
LINE
  5
6D
100
AcDbEntity
100
AcDbLine
  8
tpl_top
 62
256
370
-1
  6
CONTINUOUS
 10
76.1430867609468436
 20
4.6934467027245859
 30
0.0
 11
74.643086760946801
 21
4.6934467027245859
 31
0.0
  0
LINE
  5
6E
100
AcDbEntity
100
AcDbLine
  8
tpl_top
 62
256
370
-1
  6
CONTINUOUS
 10
74.643086760946801
 20
4.6934467027245859
 30
0.0
 11
74.6430867609468294
 21
34.4934467027247109
 31
0.0
  0
LINE
  5
6F
100
AcDbEntity
100
AcDbLine
  8
tpl_top
 62
256
370
-1
  6
CONTINUOUS
 10
76.143086760946602
 20
4.6934467027245859
 30
0.0
 11
76.1430867609468152
 21
8.2934467027246228
 31
0.0
  0
LINE
  5
70
100
AcDbEntity
100
AcDbLine
  8
tpl_top
 62
256
370
-1
  6
CONTINUOUS
 10
76.1430867609468294
 20
30.8934467027246313
 30
0.0
 11
76.1430867609468294
 21
34.4934467027247109
 31
0.0
  0
LINE
  5
71
100
AcDbEntity
100
AcDbLine
  8
tpl_top
 62
256
370
-1
  6
CONTINUOUS
 10
86.4430867609470113
 20
4.6934467027245717
 30
0.0
 11
86.4430867609467839
 21
34.4934467027247109
 31
0.0
  0
LINE
  5
72
100
AcDbEntity
100
AcDbLine
  8
tpl_top
 62
256
370
-1
  6
CONTINUOUS
 10
84.9430867609467839
 20
4.6934467027245859
 30
0.0
 11
84.9430867609467981
 21
8.293446702724637
 31
0.0
  0
LINE
  5
73
100
AcDbEntity
100
AcDbLine
  8
tpl_top
 62
256
370
-1
  6
CONTINUOUS
 10
84.9430867609465565
 20
30.8934467027246171
 30
0.0
 11
84.9430867609465565
 21
34.4934467027247109
 31
0.0
  0
CIRCLE
  5
74
100
AcDbEntity
100
AcDbCircle
  8
tpl_top
 62
256
370
-1
  6
CONTINUOUS
 10
80.5430867609466929
 20
33.3934467027246313
 30
0.0
 40
0.9
  0
CIRCLE
  5
75
100
AcDbEntity
100
AcDbCircle
  8
tpl_top
 62
256
370
-1
  6
CONTINUOUS
 10
80.5430867609466929
 20
5.7934467027246086
 30
0.0
 40
0.9
  0
LINE
  5
76
100
AcDbEntity
100
AcDbLine
  8
tpl_bottom
 62
256
370
-1
  6
CONTINUOUS
 10
70.6458604849489689
 20
27.2934467027247081
 30
0.0
 11
61.845860484949263
 21
27.2934467027247081
 31
0.0
  0
LINE
  5
77
100
AcDbEntity
100
AcDbLine
  8
tpl_bottom
 62
256
370
-1
  6
CONTINUOUS
 10
69.7458604849492332
 20
12.2934467027247081
 30
0.0
 11
62.7458604849491053
 21
12.2934467027246654
 31
0.0
  0
LINE
  5
78
100
AcDbEntity
100
AcDbLine
  8
tpl_bottom
 62
256
370
-1
  6
CONTINUOUS
 10
72.1458604849492104
 20
26.1934467027246853
 30
0.0
 11
60.3458604849492488
 21
26.1934467027246711
 31
0.0
  0
LINE
  5
79
100
AcDbEntity
100
AcDbLine
  8
tpl_bottom
 62
256
370
-1
  6
CONTINUOUS
 10
72.1458604849491962
 20
30.8934467027246171
 30
0.0
 11
70.6458604849489689
 21
30.8934467027249582
 31
0.0
  0
LINE
  5
7A
100
AcDbEntity
100
AcDbLine
  8
tpl_bottom
 62
256
370
-1
  6
CONTINUOUS
 10
61.8458604849492275
 20
30.8934467027245034
 30
0.0
 11
60.3458604849492275
 21
30.8934467027245603
 31
0.0
  0
LINE
  5
7B
100
AcDbEntity
100
AcDbLine
  8
tpl_bottom
 62
256
370
-1
  6
CONTINUOUS
 10
60.3458604849492488
 20
26.1934467027246711
 30
0.0
 11
60.3458604849492275
 21
30.8934467027245603
 31
0.0
  0
LINE
  5
7C
100
AcDbEntity
100
AcDbLine
  8
tpl_bottom
 62
256
370
-1
  6
CONTINUOUS
 10
56.3458604849492559
 20
4.6934467027246995
 30
0.0
 11
56.3458604849493625
 21
8.1939569599414597
 31
0.0
  0
LINE
  5
7D
100
AcDbEntity
100
AcDbLine
  8
tpl_bottom
 62
256
370
-1
  6
CONTINUOUS
 10
56.3458604849493554
 20
13.0929364455080872
 30
0.0
 11
56.3458604849492417
 21
26.0939569599414654
 31
0.0
  0
LINE
  5
7E
100
AcDbEntity
100
AcDbLine
  8
tpl_bottom
 62
256
370
-1
  6
CONTINUOUS
 10
56.8458604849492559
 20
31.0434467027244949
 30
0.0
 11
56.845860484949263
 21
31.9934467027248814
 31
0.0
  0
LINE
  5
7F
100
AcDbEntity
100
AcDbLine
  8
tpl_bottom
 62
256
370
-1
  6
CONTINUOUS
 10
61.845860484949263
 20
27.2934467027247081
 30
0.0
 11
61.8458604849492275
 21
30.8934467027245034
 31
0.0
  0
LINE
  5
80
100
AcDbEntity
100
AcDbLine
  8
tpl_bottom
 62
256
370
-1
  6
CONTINUOUS
 10
72.1458604849490825
 20
26.1934467027246853
 30
0.0
 11
72.1458604849491962
 21
30.8934467027246171
 31
0.0
  0
LINE
  5
81
100
AcDbEntity
100
AcDbLine
  8
tpl_bottom
 62
256
370
-1
  6
CONTINUOUS
 10
70.6458604849489689
 20
27.2934467027247081
 30
0.0
 11
70.6458604849489689
 21
30.8934467027249582
 31
0.0
  0
LINE
  5
82
100
AcDbEntity
100
AcDbLine
  8
tpl_bottom
 62
256
370
-1
  6
CONTINUOUS
 10
73.8958604849493099
 20
36.9934467027247678
 30
0.0
 11
87.4458604849493781
 21
36.9934467027247251
 31
0.0
  0
LINE
  5
83
100
AcDbEntity
100
AcDbLine
  8
tpl_bottom
 62
256
370
-1
  6
CONTINUOUS
 10
90.4458604849492644
 20
4.6934467027247138
 30
0.0
 11
90.4458604849492929
 21
28.2784655274688532
 31
0.0
  0
LINE
  5
84
100
AcDbEntity
100
AcDbLine
  8
tpl_bottom
 62
256
370
-1
  6
CONTINUOUS
 10
58.8458604849492559
 20
2.1934467027246995
 30
0.0
 11
61.7458604849492474
 21
2.1934467027246924
 31
0.0
  0
LINE
  5
85
100
AcDbEntity
100
AcDbLine
  8
tpl_bottom
 62
256
370
-1
  6
CONTINUOUS
 10
70.7458604849491195
 20
2.1934467027246995
 30
0.0
 11
87.9458604849492787
 21
2.1934467027247138
 31
0.0
  0
LINE
  5
86
100
AcDbEntity
100
AcDbLine
  8
tpl_bottom
 62
256
370
-1
  6
CONTINUOUS
 10
61.7458604849492332
 20
6.8934467027246882
 30
0.0
 11
62.7458604849491195
 21
6.893446702724674
 31
0.0
  0
LINE
  5
87
100
AcDbEntity
100
AcDbLine
  8
tpl_bottom
 62
256
370
-1
  6
CONTINUOUS
 10
69.7458604849491195
 20
6.893446702724674
 30
0.0
 11
70.7458604849492474
 21
6.8934467027246882
 31
0.0
  0
CIRCLE
  5
88
100
AcDbEntity
100
AcDbCircle
  8
tpl_bottom
 62
256
370
-1
  6
CONTINUOUS
 10
56.8458604849492559
 20
28.5434467027247791
 30
0.0
 40
0.9
  0
ARC
  5
89
100
AcDbEntity
  8
tpl_bottom
 62
256
370
-1
  6
CONTINUOUS
100
AcDbCircle
 10
56.8458604849492559
 20
28.5434467027247791
 30
0.0
 40
2.5
100
AcDbArc
 50
90.0000000000000142
 51
258.4630409671818825
  0
ARC
  5
8A
100
AcDbEntity
  8
tpl_bottom
 62
256
370
-1
  6
CONTINUOUS
100
AcDbCircle
 10
73.8958604849492957
 20
34.4934467027247678
 30
0.0
 40
2.4999999999999432
100
AcDbArc
 50
90.0000000000000142
 51
180.0
  0
LINE
  5
8B
100
AcDbEntity
100
AcDbLine
  8
tpl_bottom
 62
256
370
-1
  6
CONTINUOUS
 10
71.3958604849494236
 20
34.4934467027247535
 30
0.0
 11
59.3458604849492346
 21
34.493446702724782
 31
0.0
  0
ARC
  5
8C
100
AcDbEntity
  8
tpl_bottom
 62
256
370
-1
  6
CONTINUOUS
100
AcDbCircle
 10
59.3458604849492275
 20
31.9934467027248388
 30
0.0
 40
2.4999999999999432
100
AcDbArc
 50
90.0000000000000142
 51
180.0
  0
ARC
  5
8D
100
AcDbEntity
  8
tpl_bottom
 62
256
370
-1
  6
CONTINUOUS
100
AcDbCircle
 10
87.4458604849493781
 20
34.4934467027247251
 30
0.0
 40
2.5
100
AcDbArc
 50
0.0
 51
90.0000000000000142
  0
LINE
  5
8E
100
AcDbEntity
100
AcDbLine
  8
tpl_bottom
 62
256
370
-1
  6
CONTINUOUS
 10
89.9458604849493781
 20
33.2279552702520817
 30
0.0
 11
89.9458604849493781
 21
34.4934467027247109
 31
0.0
  0
CIRCLE
  5
8F
100
AcDbEntity
100
AcDbCircle
  8
tpl_bottom
 62
256
370
-1
  6
CONTINUOUS
 10
89.9458604849493781
 20
30.7279552702520817
 30
0.0
 40
0.9
  0
ARC
  5
90
100
AcDbEntity
  8
tpl_bottom
 62
256
370
-1
  6
CONTINUOUS
100
AcDbCircle
 10
89.9458604849493781
 20
30.7279552702520817
 30
0.0
 40
2.5
100
AcDbArc
 50
281.5369590328181175
 51
90.0000000000000142
  0
ARC
  5
91
100
AcDbEntity
  8
tpl_bottom
 62
256
370
-1
  6
CONTINUOUS
100
AcDbCircle
 10
87.9458604849492644
 20
4.6934467027246995
 30
0.0
 40
2.5
100
AcDbArc
 50
270.0
 51
0.0
  0
CIRCLE
  5
92
100
AcDbEntity
100
AcDbCircle
  8
tpl_bottom
 62
256
370
-1
  6
CONTINUOUS
 10
56.8458604849493696
 20
10.6434467027246882
 30
0.0
 40
0.9
  0
ARC
  5
93
100
AcDbEntity
  8
tpl_bottom
 62
256
370
-1
  6
CONTINUOUS
100
AcDbCircle
 10
56.8458604849493696
 20
10.6434467027247592
 30
0.0
 40
2.5000000000001359
100
AcDbArc
 50
101.5369590328181459
 51
258.4630409671818825
  0
ARC
  5
94
100
AcDbEntity
  8
tpl_bottom
 62
256
370
-1
  6
CONTINUOUS
100
AcDbCircle
 10
58.845860484949263
 20
4.6934467027246711
 30
0.0
 40
2.5
100
AcDbArc
 50
180.0
 51
270.0
  0
LINE
  5
95
100
AcDbEntity
100
AcDbLine
  8
tpl_bottom
 62
256
370
-1
  6
CONTINUOUS
 10
62.7458604849491053
 20
12.2934467027246654
 30
0.0
 11
62.7458604849490129
 21
6.8934467027247308
 31
0.0
  0
LINE
  5
96
100
AcDbEntity
100
AcDbLine
  8
tpl_bottom
 62
256
370
-1
  6
CONTINUOUS
 10
61.7458604849492332
 20
6.8934467027246882
 30
0.0
 11
61.7458604849492474
 21
2.1934467027246924
 31
0.0
  0
LINE
  5
97
100
AcDbEntity
100
AcDbLine
  8
tpl_bottom
 62
256
370
-1
  6
CONTINUOUS
 10
69.7458604849492332
 20
12.2934467027246654
 30
0.0
 11
69.7458604849491053
 21
6.893446702724745
 31
0.0
  0
LINE
  5
98
100
AcDbEntity
100
AcDbLine
  8
tpl_bottom
 62
256
370
-1
  6
CONTINUOUS
 10
70.7458604849492474
 20
6.8934467027246882
 30
0.0
 11
70.7458604849491195
 21
2.1934467027246995
 31
0.0
  0
CIRCLE
  5
99
100
AcDbEntity
100
AcDbCircle
  8
tpl_bottom
 62
256
370
-1
  6
CONTINUOUS
 10
80.5458604849491735
 20
24.9984467027247206
 30
0.0
 40
0.9
  0
CIRCLE
  5
9A
100
AcDbEntity
100
AcDbCircle
  8
tpl_bottom
 62
256
370
-1
  6
CONTINUOUS
 10
80.5458604849493014
 20
14.1884467027250452
 30
0.0
 40
0.9
  0
LINE
  5
9B
100
AcDbEntity
100
AcDbLine
  8
back1
 62
256
370
-1
  6
CONTINUOUS
 10
24.3972262759972551
 20
16.704999999999572
 30
0.0
 11
15.597226275997528
 21
16.7049999999995862
 31
0.0
  0
LINE
  5
9C
100
AcDbEntity
100
AcDbLine
  8
back1
 62
256
370
-1
  6
CONTINUOUS
 10
25.8972262759974825
 20
20.3049999999996089
 30
0.0
 11
24.3972262759972551
 21
20.3049999999996658
 31
0.0
  0
LINE
  5
9D
100
AcDbEntity
100
AcDbLine
  8
back1
 62
256
370
-1
  6
CONTINUOUS
 10
15.597226275997528
 20
20.3049999999996658
 30
0.0
 11
14.097226275997528
 21
20.3049999999996089
 31
0.0
  0
LINE
  5
9E
100
AcDbEntity
100
AcDbLine
  8
back1
 62
256
370
-1
  6
CONTINUOUS
 10
24.3972262759972409
 20
-5.8950000000004223
 30
0.0
 11
15.5972262759975138
 21
-5.8950000000004223
 31
0.0
  0
LINE
  5
9F
100
AcDbEntity
100
AcDbLine
  8
back1
 62
256
370
-1
  6
CONTINUOUS
 10
25.8972262759974541
 20
-9.4950000000004735
 30
0.0
 11
24.3972262759972836
 21
-9.4950000000004593
 31
0.0
  0
LINE
  5
A0
100
AcDbEntity
100
AcDbLine
  8
back1
 62
256
370
-1
  6
CONTINUOUS
 10
15.5972262759975422
 20
-9.4950000000004593
 30
0.0
 11
14.0972262759974996
 21
-9.4950000000004593
 31
0.0
  0
LINE
  5
A1
100
AcDbEntity
100
AcDbLine
  8
back1
 62
256
370
-1
  6
CONTINUOUS
 10
14.0972262759974996
 20
-9.4950000000004593
 30
0.0
 11
14.097226275997528
 21
20.3049999999996658
 31
0.0
  0
LINE
  5
A2
100
AcDbEntity
100
AcDbLine
  8
back1
 62
256
370
-1
  6
CONTINUOUS
 10
15.5972262759973006
 20
-9.4950000000004593
 30
0.0
 11
15.5972262759975138
 21
-5.8950000000004223
 31
0.0
  0
LINE
  5
A3
100
AcDbEntity
100
AcDbLine
  8
back1
 62
256
370
-1
  6
CONTINUOUS
 10
15.597226275997528
 20
16.7049999999995862
 30
0.0
 11
15.597226275997528
 21
20.3049999999996658
 31
0.0
  0
LINE
  5
A4
100
AcDbEntity
100
AcDbLine
  8
back1
 62
256
370
-1
  6
CONTINUOUS
 10
25.8972262759977099
 20
-9.4950000000004735
 30
0.0
 11
25.8972262759974825
 21
20.3049999999996658
 31
0.0
  0
LINE
  5
A5
100
AcDbEntity
100
AcDbLine
  8
back1
 62
256
370
-1
  6
CONTINUOUS
 10
24.3972262759974825
 20
-9.4950000000004593
 30
0.0
 11
24.3972262759974967
 21
-5.8950000000004081
 31
0.0
  0
LINE
  5
A6
100
AcDbEntity
100
AcDbLine
  8
back1
 62
256
370
-1
  6
CONTINUOUS
 10
24.3972262759972551
 20
16.704999999999572
 30
0.0
 11
24.3972262759972551
 21
20.3049999999996658
 31
0.0
  0
LINE
  5
A7
100
AcDbEntity
100
AcDbLine
  8
back2
 62
256
370
-1
  6
CONTINUOUS
 10
34.0972262759974996
 20
-9.4950000000004593
 30
0.0
 11
34.097226275997528
 21
20.3049999999996658
 31
0.0
  0
LINE
  5
A8
100
AcDbEntity
100
AcDbLine
  8
back2
 62
256
370
-1
  6
CONTINUOUS
 10
45.8972262759977099
 20
-9.4950000000004735
 30
0.0
 11
45.8972262759974825
 21
20.3050000000000566
 31
0.0
  0
LINE
  5
A9
100
AcDbEntity
100
AcDbLine
  8
back2
 62
256
370
-1
  6
ByLayer
 10
40.8972262759973901
 20
19.2049999999995862
 30
0.0
 11
40.8972262759973901
 21
20.3049999999998683
 31
0.0
  0
ARC
  5
AA
100
AcDbEntity
  8
back2
 62
256
370
-1
  6
ByLayer
100
AcDbCircle
 10
39.9972262759973916
 20
19.2049999999995862
 30
0.0
 40
0.9
100
AcDbArc
 50
180.0
 51
0.0
  0
ARC
  5
AB
100
AcDbEntity
  8
back2
 62
256
370
-1
  6
ByLayer
100
AcDbCircle
 10
39.9972262759973916
 20
-8.3950000000004366
 30
0.0
 40
0.9
100
AcDbArc
 50
0.0
 51
180.0
  0
LINE
  5
AC
100
AcDbEntity
100
AcDbLine
  8
back2
 62
256
370
-1
  6
ByLayer
 10
39.097226275997393
 20
19.2049999999995862
 30
0.0
 11
39.097226275997393
 21
20.3049999999997972
 31
0.0
  0
LINE
  5
AD
100
AcDbEntity
100
AcDbLine
  8
back2
 62
256
370
-1
  6
CONTINUOUS
 10
39.097226275997393
 20
20.3049999999997972
 30
0.0
 11
34.097226275997528
 21
20.3049999999996089
 31
0.0
  0
LINE
  5
AE
100
AcDbEntity
100
AcDbLine
  8
back2
 62
256
370
-1
  6
ByLayer
 10
40.8972262759973901
 20
20.3049999999998683
 30
0.0
 11
45.8972262759974825
 21
20.3050000000000566
 31
0.0
  0
LINE
  5
AF
100
AcDbEntity
100
AcDbLine
  8
back2
 62
256
370
-1
  6
ByLayer
 10
40.8972262759973901
 20
-8.3950000000004366
 30
0.0
 11
40.8972262759973901
 21
-9.4950000000004593
 31
0.0
  0
LINE
  5
B0
100
AcDbEntity
100
AcDbLine
  8
back2
 62
256
370
-1
  6
ByLayer
 10
39.097226275997393
 20
-8.3950000000004366
 30
0.0
 11
39.097226275997393
 21
-9.4950000000004593
 31
0.0
  0
LINE
  5
B1
100
AcDbEntity
100
AcDbLine
  8
back2
 62
256
370
-1
  6
CONTINUOUS
 10
39.097226275997393
 20
-9.4950000000004593
 30
0.0
 11
34.0972262759974996
 21
-9.4950000000004593
 31
0.0
  0
LINE
  5
B2
100
AcDbEntity
100
AcDbLine
  8
back2
 62
256
370
-1
  6
ByLayer
 10
40.8972262759973901
 20
-9.4950000000004593
 30
0.0
 11
45.8972262759977099
 21
-9.4950000000004735
 31
0.0
  0
CIRCLE
  5
B3
100
AcDbEntity
100
AcDbCircle
  8
axis
 62
256
370
-1
  6
CONTINUOUS
 10
0.0
 20
0.0
 30
0.0
 40
0.9
  0
DIMENSION
  5
B4
100
AcDbEntity
  8
0
 62
256
370
-1
  6
ByLayer
100
AcDbDimension
 10
34.097226275997528
 20
26.1934467027247173
 30
0.0
 11
32.222226275997528
 21
28.5434467027246939
 31
0.0
 70
0
 71
5
 72
1
 41
1.0
 42
0.0
  1
h1
  3
Standard
100
AcDbAlignedDimension
 13
60.3430867609467612
 23
30.893446702724674
 33
0.0
 14
60.3430867609467612
 24
26.1934467027247138
 34
0.0
 50
90.0
100
AcDbRotatedDimension
  0
DIMENSION
  5
B5
100
AcDbEntity
  8
0
 62
256
370
-1
  6
ByLayer
100
AcDbDimension
 10
40.8972262759973901
 20
26.1934467027247173
 30
0.0
 11
39.0222262759973901
 21
26.7434467027246328
 31
0.0
 70
0
 71
5
 72
1
 41
1.0
 42
0.0
  1
h2
  3
Standard
100
AcDbAlignedDimension
 13
61.8430867609467612
 23
27.2934467027245518
 33
0.0
 14
60.3430867609467612
 24
26.1934467027247138
 34
0.0
 50
90.0
100
AcDbRotatedDimension
  0
LINE
  5
B6
100
AcDbEntity
100
AcDbLine
  8
body
 62
256
370
-1
  6
CONTINUOUS
 10
5.89722627599751
 20
16.7049999999995684
 30
0.0
 11
-5.9027737240024756
 21
16.7049999999995897
 31
0.0
  0
LINE
  5
B7
100
AcDbEntity
100
AcDbLine
  8
body
 62
256
370
-1
  6
CONTINUOUS
 10
-5.9027737240024969
 20
-5.8950000000004223
 30
0.0
 11
-5.9027737240024756
 21
16.7049999999995897
 31
0.0
  0
LINE
  5
B8
100
AcDbEntity
100
AcDbLine
  8
body
 62
256
370
-1
  6
CONTINUOUS
 10
5.8972262759976823
 20
-5.8950000000004223
 30
0.0
 11
5.89722627599751
 21
16.7049999999995684
 31
0.0
  0
LINE
  5
B9
100
AcDbEntity
100
AcDbLine
  8
body
 62
256
370
-1
  6
CONTINUOUS
 10
5.8972262759976823
 20
-5.8950000000004223
 30
0.0
 11
-5.9027737240024969
 21
-5.8950000000004223
 31
0.0
  0
ENDSEC
  0
SECTION
  2
OBJECTS
  0
DICTIONARY
  5
C
100
AcDbDictionary
280
0
281
1
  3
ACAD_GROUP
350
D
  3
ACAD_LAYOUT
350
1A
  3
ACAD_MLINESTYLE
350
17
  3
ACAD_PLOTSETTINGS
350
19
  3
ACAD_PLOTSTYLENAME
350
E
  3
AcDbVariableDictionary
350
BA
  0
DICTIONARY
  5
D
100
AcDbDictionary
280
0
281
1
  0
ACDBDICTIONARYWDFLT
  5
E
100
AcDbDictionary
281
1
  3
Normal
350
F
100
AcDbDictionaryWithDefault
340
F
  0
ACDBPLACEHOLDER
  5
F
  0
DICTIONARY
  5
17
100
AcDbDictionary
280
0
281
1
  3
Standard
350
18
  0
MLINESTYLE
  5
18
100
AcDbMlineStyle
  2
STANDARD
 70
0
  3

 62
256
 51
90.0
 52
90.0
 71
2
 49
0.5
 62
256
  6
BYLAYER
 49
-0.5
 62
256
  6
BYLAYER
  0
DICTIONARY
  5
19
100
AcDbDictionary
280
0
281
1
  0
DICTIONARY
  5
1A
100
AcDbDictionary
281
1
  3
Layout1
350
1E
  3
Layout2
350
26
  3
Model
350
22
  0
LAYOUT
  5
1E
100
AcDbPlotSettings
  1

  2
C:\Program Files\AutoCAD 2002\plotters\DWF ePlot (optimized for plotting).pc3
  4

  6

 40
0.0
 41
0.0
 42
0.0
 43
0.0
 44
0.0
 45
0.0
 46
0.0
 47
0.0
 48
0.0
 49
0.0
140
0.0
141
0.0
142
1.0
143
1.0
 70
688
 72
0
 73
0
 74
5
  7

 75
16
147
1.0
148
0.0
149
0.0
100
AcDbLayout
  1
Layout1
 70
1
 71
1
 10
0.0
 20
0.0
 11
420.0
 21
297.0
 12
0.0
 22
0.0
 32
0.0
 14
100000000000000000000.0
 24
100000000000000000000.0
 34
100000000000000000000.0
 15
-100000000000000000000.0
 25
-100000000000000000000.0
 35
-100000000000000000000.0
146
0.0
 13
0.0
 23
0.0
 33
0.0
 16
1.0
 26
0.0
 36
0.0
 17
0.0
 27
1.0
 37
0.0
 76
0
330
1B
  0
LAYOUT
  5
22
100
AcDbPlotSettings
  1

  2
C:\Program Files\AutoCAD 2002\plotters\DWF ePlot (optimized for plotting).pc3
  4

  6

 40
0.0
 41
0.0
 42
0.0
 43
0.0
 44
0.0
 45
0.0
 46
0.0
 47
0.0
 48
0.0
 49
0.0
140
0.0
141
0.0
142
1.0
143
1.0
 70
1712
 72
0
 73
0
 74
0
  7

 75
0
147
1.0
148
0.0
149
0.0
100
AcDbLayout
  1
Model
 70
1
 71
0
 10
0.0
 20
0.0
 11
12.0
 21
9.0
 12
0.0
 22
0.0
 32
0.0
 14
0.0
 24
0.0
 34
0.0
 15
0.0
 25
0.0
 35
0.0
146
0.0
 13
0.0
 23
0.0
 33
0.0
 16
1.0
 26
0.0
 36
0.0
 17
0.0
 27
1.0
 37
0.0
 76
0
330
1F
  0
LAYOUT
  5
26
100
AcDbPlotSettings
  1

  2
C:\Program Files\AutoCAD 2002\plotters\DWF ePlot (optimized for plotting).pc3
  4

  6

 40
0.0
 41
0.0
 42
0.0
 43
0.0
 44
0.0
 45
0.0
 46
0.0
 47
0.0
 48
0.0
 49
0.0
140
0.0
141
0.0
142
1.0
143
1.0
 70
688
 72
0
 73
0
 74
5
  7

 75
16
147
1.0
148
0.0
149
0.0
100
AcDbLayout
  1
Layout2
 70
1
 71
2
 10
0.0
 20
0.0
 11
12.0
 21
9.0
 12
0.0
 22
0.0
 32
0.0
 14
0.0
 24
0.0
 34
0.0
 15
0.0
 25
0.0
 35
0.0
146
0.0
 13
0.0
 23
0.0
 33
0.0
 16
1.0
 26
0.0
 36
0.0
 17
0.0
 27
1.0
 37
0.0
 76
0
330
23
  0
DICTIONARY
  5
BA
100
AcDbDictionary
281
1
  3
DIMASSOC
350
BC
  3
HIDETEXT
350
BB
  0
DICTIONARYVAR
  5
BB
100
DictionaryVariables
280
0
  1
2
  0
DICTIONARYVAR
  5
BC
100
DictionaryVariables
280
0
  1
1
  0
ENDSEC
  0
EOF
