  0
SECTION
  2
ENTITIES
  0
LINE
 10
-13.620000
 11
-13.550000
 20
-3.810000
 21
-3.458000
  0
LINE
 10
-13.550000
 11
-13.351000
 20
-3.458000
 21
-3.159000
  0
LINE
 10
-13.351000
 11
-13.052000
 20
-3.159000
 21
-2.960000
  0
LINE
 10
-13.052000
 11
-12.700000
 20
-2.960000
 21
-2.890000
  0
LINE
 10
-12.700000
 11
-12.348000
 20
-2.890000
 21
-2.960000
  0
LINE
 10
-12.348000
 11
-12.049000
 20
-2.960000
 21
-3.159000
  0
LINE
 10
-12.049000
 11
-11.850000
 20
-3.159000
 21
-3.458000
  0
LINE
 10
-11.850000
 11
-11.780000
 20
-3.458000
 21
-3.810000
  0
LINE
 10
-11.780000
 11
-11.850000
 20
-3.810000
 21
-4.162000
  0
LINE
 10
-11.850000
 11
-11.964000
 20
-4.162000
 21
-4.334000
  0
LINE
 10
-11.964000
 11
-11.368000
 20
-4.334000
 21
-4.930000
  0
LINE
 10
-11.368000
 11
-8.946000
 20
-4.930000
 21
-4.930000
  0
LINE
 10
-8.946000
 11
-6.798000
 20
-4.930000
 21
-3.086000
  0
LINE
 10
-6.798000
 11
-6.797000
 20
-3.086000
 21
-3.088000
  0
LINE
 10
-6.797000
 11
-6.757000
 20
-3.088000
 21
-3.061000
  0
LINE
 10
-6.757000
 11
-6.700000
 20
-3.061000
 21
-3.050000
  0
LINE
 10
-6.700000
 11
-5.000000
 20
-3.050000
 21
-3.050000
  0
LINE
 10
-5.000000
 11
-5.000000
 20
-3.050000
 21
-3.350000
  0
LINE
 10
-5.000000
 11
-6.644000
 20
-3.350000
 21
-3.350000
  0
LINE
 10
-6.644000
 11
-8.792000
 20
-3.350000
 21
-5.194000
  0
LINE
 10
-8.792000
 11
-8.793000
 20
-5.194000
 21
-5.192000
  0
LINE
 10
-8.793000
 11
-8.833000
 20
-5.192000
 21
-5.219000
  0
LINE
 10
-8.833000
 11
-8.890000
 20
-5.219000
 21
-5.230000
  0
LINE
 10
-8.890000
 11
-11.430000
 20
-5.230000
 21
-5.230000
  0
LINE
 10
-11.430000
 11
-11.487000
 20
-5.230000
 21
-5.219000
  0
LINE
 10
-11.487000
 11
-11.536000
 20
-5.219000
 21
-5.186000
  0
LINE
 10
-11.536000
 11
-12.176000
 20
-5.186000
 21
-4.546000
  0
LINE
 10
-12.176000
 11
-12.348000
 20
-4.546000
 21
-4.660000
  0
LINE
 10
-12.348000
 11
-12.700000
 20
-4.660000
 21
-4.730000
  0
LINE
 10
-12.700000
 11
-13.052000
 20
-4.730000
 21
-4.660000
  0
LINE
 10
-13.052000
 11
-13.351000
 20
-4.660000
 21
-4.461000
  0
LINE
 10
-13.351000
 11
-13.550000
 20
-4.461000
 21
-4.162000
  0
LINE
 10
-13.550000
 11
-13.620000
 20
-4.162000
 21
-3.810000
  0
LINE
 10
-13.620000
 11
-13.550000
 20
-1.270000
 21
-0.918000
  0
LINE
 10
-13.550000
 11
-13.351000
 20
-0.918000
 21
-0.619000
  0
LINE
 10
-13.351000
 11
-13.052000
 20
-0.619000
 21
-0.420000
  0
LINE
 10
-13.052000
 11
-12.700000
 20
-0.420000
 21
-0.350000
  0
LINE
 10
-12.700000
 11
-12.348000
 20
-0.350000
 21
-0.420000
  0
LINE
 10
-12.348000
 11
-12.049000
 20
-0.420000
 21
-0.619000
  0
LINE
 10
-12.049000
 11
-11.850000
 20
-0.619000
 21
-0.918000
  0
LINE
 10
-11.850000
 11
-11.780000
 20
-0.918000
 21
-1.270000
  0
LINE
 10
-11.780000
 11
-11.850000
 20
-1.270000
 21
-1.622000
  0
LINE
 10
-11.850000
 11
-11.964000
 20
-1.622000
 21
-1.794000
  0
LINE
 10
-11.964000
 11
-11.368000
 20
-1.794000
 21
-2.390000
  0
LINE
 10
-11.368000
 11
-8.942000
 20
-2.390000
 21
-2.390000
  0
LINE
 10
-8.942000
 11
-7.792000
 20
-2.390000
 21
-1.484000
  0
LINE
 10
-7.792000
 11
-7.757000
 20
-1.484000
 21
-1.461000
  0
LINE
 10
-7.757000
 11
-7.700000
 20
-1.461000
 21
-1.450000
  0
LINE
 10
-7.700000
 11
-5.000000
 20
-1.450000
 21
-1.450000
  0
LINE
 10
-5.000000
 11
-5.000000
 20
-1.450000
 21
-1.750000
  0
LINE
 10
-5.000000
 11
-7.648000
 20
-1.750000
 21
-1.750000
  0
LINE
 10
-7.648000
 11
-8.797000
 20
-1.750000
 21
-2.658000
  0
LINE
 10
-8.797000
 11
-8.799000
 20
-2.658000
 21
-2.656000
  0
LINE
 10
-8.799000
 11
-8.833000
 20
-2.656000
 21
-2.679000
  0
LINE
 10
-8.833000
 11
-8.890000
 20
-2.679000
 21
-2.690000
  0
LINE
 10
-8.890000
 11
-11.430000
 20
-2.690000
 21
-2.690000
  0
LINE
 10
-11.430000
 11
-11.487000
 20
-2.690000
 21
-2.679000
  0
LINE
 10
-11.487000
 11
-11.536000
 20
-2.679000
 21
-2.646000
  0
LINE
 10
-11.536000
 11
-12.176000
 20
-2.646000
 21
-2.006000
  0
LINE
 10
-12.176000
 11
-12.348000
 20
-2.006000
 21
-2.120000
  0
LINE
 10
-12.348000
 11
-12.700000
 20
-2.120000
 21
-2.190000
  0
LINE
 10
-12.700000
 11
-13.052000
 20
-2.190000
 21
-2.120000
  0
LINE
 10
-13.052000
 11
-13.351000
 20
-2.120000
 21
-1.921000
  0
LINE
 10
-13.351000
 11
-13.550000
 20
-1.921000
 21
-1.622000
  0
LINE
 10
-13.550000
 11
-13.620000
 20
-1.622000
 21
-1.270000
  0
LINE
 10
-13.620000
 11
-13.550000
 20
1.270000
 21
1.622000
  0
LINE
 10
-13.550000
 11
-13.351000
 20
1.622000
 21
1.921000
  0
LINE
 10
-13.351000
 11
-13.052000
 20
1.921000
 21
2.120000
  0
LINE
 10
-13.052000
 11
-12.700000
 20
2.120000
 21
2.190000
  0
LINE
 10
-12.700000
 11
-12.348000
 20
2.190000
 21
2.120000
  0
LINE
 10
-12.348000
 11
-12.049000
 20
2.120000
 21
1.921000
  0
LINE
 10
-12.049000
 11
-11.850000
 20
1.921000
 21
1.622000
  0
LINE
 10
-11.850000
 11
-11.780000
 20
1.622000
 21
1.270000
  0
LINE
 10
-11.780000
 11
-11.850000
 20
1.270000
 21
0.918000
  0
LINE
 10
-11.850000
 11
-11.964000
 20
0.918000
 21
0.746000
  0
LINE
 10
-11.964000
 11
-11.368000
 20
0.746000
 21
0.150000
  0
LINE
 10
-11.368000
 11
-5.000000
 20
0.150000
 21
0.150000
  0
LINE
 10
-5.000000
 11
-5.000000
 20
0.150000
 21
-0.150000
  0
LINE
 10
-5.000000
 11
-11.430000
 20
-0.150000
 21
-0.150000
  0
LINE
 10
-11.430000
 11
-11.487000
 20
-0.150000
 21
-0.139000
  0
LINE
 10
-11.487000
 11
-11.536000
 20
-0.139000
 21
-0.106000
  0
LINE
 10
-11.536000
 11
-12.176000
 20
-0.106000
 21
0.534000
  0
LINE
 10
-12.176000
 11
-12.348000
 20
0.534000
 21
0.420000
  0
LINE
 10
-12.348000
 11
-12.700000
 20
0.420000
 21
0.350000
  0
LINE
 10
-12.700000
 11
-13.052000
 20
0.350000
 21
0.420000
  0
LINE
 10
-13.052000
 11
-13.351000
 20
0.420000
 21
0.619000
  0
LINE
 10
-13.351000
 11
-13.550000
 20
0.619000
 21
0.918000
  0
LINE
 10
-13.550000
 11
-13.620000
 20
0.918000
 21
1.270000
  0
LINE
 10
-13.620000
 11
-13.550000
 20
3.810000
 21
4.162000
  0
LINE
 10
-13.550000
 11
-13.351000
 20
4.162000
 21
4.461000
  0
LINE
 10
-13.351000
 11
-13.052000
 20
4.461000
 21
4.660000
  0
LINE
 10
-13.052000
 11
-12.700000
 20
4.660000
 21
4.730000
  0
LINE
 10
-12.700000
 11
-12.348000
 20
4.730000
 21
4.660000
  0
LINE
 10
-12.348000
 11
-12.049000
 20
4.660000
 21
4.461000
  0
LINE
 10
-12.049000
 11
-11.850000
 20
4.461000
 21
4.162000
  0
LINE
 10
-11.850000
 11
-11.780000
 20
4.162000
 21
3.810000
  0
LINE
 10
-11.780000
 11
-11.850000
 20
3.810000
 21
3.458000
  0
LINE
 10
-11.850000
 11
-11.964000
 20
3.458000
 21
3.286000
  0
LINE
 10
-11.964000
 11
-11.368000
 20
3.286000
 21
2.690000
  0
LINE
 10
-11.368000
 11
-8.890000
 20
2.690000
 21
2.690000
  0
LINE
 10
-8.890000
 11
-8.833000
 20
2.690000
 21
2.679000
  0
LINE
 10
-8.833000
 11
-8.799000
 20
2.679000
 21
2.656000
  0
LINE
 10
-8.799000
 11
-8.797000
 20
2.656000
 21
2.658000
  0
LINE
 10
-8.797000
 11
-7.648000
 20
2.658000
 21
1.750000
  0
LINE
 10
-7.648000
 11
-5.000000
 20
1.750000
 21
1.750000
  0
LINE
 10
-5.000000
 11
-5.000000
 20
1.750000
 21
1.450000
  0
LINE
 10
-5.000000
 11
-7.700000
 20
1.450000
 21
1.450000
  0
LINE
 10
-7.700000
 11
-7.757000
 20
1.450000
 21
1.461000
  0
LINE
 10
-7.757000
 11
-7.793000
 20
1.461000
 21
1.483000
  0
LINE
 10
-7.793000
 11
-8.942000
 20
1.483000
 21
2.390000
  0
LINE
 10
-8.942000
 11
-11.430000
 20
2.390000
 21
2.390000
  0
LINE
 10
-11.430000
 11
-11.487000
 20
2.390000
 21
2.401000
  0
LINE
 10
-11.487000
 11
-11.536000
 20
2.401000
 21
2.434000
  0
LINE
 10
-11.536000
 11
-12.176000
 20
2.434000
 21
3.074000
  0
LINE
 10
-12.176000
 11
-12.348000
 20
3.074000
 21
2.960000
  0
LINE
 10
-12.348000
 11
-12.700000
 20
2.960000
 21
2.890000
  0
LINE
 10
-12.700000
 11
-13.052000
 20
2.890000
 21
2.960000
  0
LINE
 10
-13.052000
 11
-13.351000
 20
2.960000
 21
3.159000
  0
LINE
 10
-13.351000
 11
-13.550000
 20
3.159000
 21
3.458000
  0
LINE
 10
-13.550000
 11
-13.620000
 20
3.458000
 21
3.810000
  0
LINE
 10
-13.620000
 11
-13.550000
 20
6.350000
 21
6.702000
  0
LINE
 10
-13.550000
 11
-13.351000
 20
6.702000
 21
7.001000
  0
LINE
 10
-13.351000
 11
-13.052000
 20
7.001000
 21
7.200000
  0
LINE
 10
-13.052000
 11
-12.700000
 20
7.200000
 21
7.270000
  0
LINE
 10
-12.700000
 11
-12.348000
 20
7.270000
 21
7.200000
  0
LINE
 10
-12.348000
 11
-12.049000
 20
7.200000
 21
7.001000
  0
LINE
 10
-12.049000
 11
-11.850000
 20
7.001000
 21
6.702000
  0
LINE
 10
-11.850000
 11
-11.780000
 20
6.702000
 21
6.350000
  0
LINE
 10
-11.780000
 11
-11.850000
 20
6.350000
 21
5.998000
  0
LINE
 10
-11.850000
 11
-11.964000
 20
5.998000
 21
5.826000
  0
LINE
 10
-11.964000
 11
-11.368000
 20
5.826000
 21
5.230000
  0
LINE
 10
-11.368000
 11
-8.890000
 20
5.230000
 21
5.230000
  0
LINE
 10
-8.890000
 11
-8.833000
 20
5.230000
 21
5.219000
  0
LINE
 10
-8.833000
 11
-8.793000
 20
5.219000
 21
5.192000
  0
LINE
 10
-8.793000
 11
-8.792000
 20
5.192000
 21
5.194000
  0
LINE
 10
-8.792000
 11
-6.644000
 20
5.194000
 21
3.350000
  0
LINE
 10
-6.644000
 11
-5.000000
 20
3.350000
 21
3.350000
  0
LINE
 10
-5.000000
 11
-5.000000
 20
3.350000
 21
3.050000
  0
LINE
 10
-5.000000
 11
-6.700000
 20
3.050000
 21
3.050000
  0
LINE
 10
-6.700000
 11
-6.757000
 20
3.050000
 21
3.061000
  0
LINE
 10
-6.757000
 11
-6.797000
 20
3.061000
 21
3.088000
  0
LINE
 10
-6.797000
 11
-6.798000
 20
3.088000
 21
3.086000
  0
LINE
 10
-6.798000
 11
-8.946000
 20
3.086000
 21
4.930000
  0
LINE
 10
-8.946000
 11
-11.430000
 20
4.930000
 21
4.930000
  0
LINE
 10
-11.430000
 11
-11.487000
 20
4.930000
 21
4.941000
  0
LINE
 10
-11.487000
 11
-11.536000
 20
4.941000
 21
4.974000
  0
LINE
 10
-11.536000
 11
-12.176000
 20
4.974000
 21
5.614000
  0
LINE
 10
-12.176000
 11
-12.348000
 20
5.614000
 21
5.500000
  0
LINE
 10
-12.348000
 11
-12.700000
 20
5.500000
 21
5.430000
  0
LINE
 10
-12.700000
 11
-13.052000
 20
5.430000
 21
5.500000
  0
LINE
 10
-13.052000
 11
-13.351000
 20
5.500000
 21
5.699000
  0
LINE
 10
-13.351000
 11
-13.550000
 20
5.699000
 21
5.998000
  0
LINE
 10
-13.550000
 11
-13.620000
 20
5.998000
 21
6.350000
  0
LINE
 10
-12.950000
 11
-12.931000
 20
-3.810000
 21
-3.714000
  0
LINE
 10
-12.931000
 11
-12.877000
 20
-3.714000
 21
-3.633000
  0
LINE
 10
-12.877000
 11
-12.796000
 20
-3.633000
 21
-3.579000
  0
LINE
 10
-12.796000
 11
-12.700000
 20
-3.579000
 21
-3.560000
  0
LINE
 10
-12.700000
 11
-12.604000
 20
-3.560000
 21
-3.579000
  0
LINE
 10
-12.604000
 11
-12.523000
 20
-3.579000
 21
-3.633000
  0
LINE
 10
-12.523000
 11
-12.469000
 20
-3.633000
 21
-3.714000
  0
LINE
 10
-12.469000
 11
-12.450000
 20
-3.714000
 21
-3.810000
  0
LINE
 10
-12.450000
 11
-12.469000
 20
-3.810000
 21
-3.906000
  0
LINE
 10
-12.469000
 11
-12.523000
 20
-3.906000
 21
-3.987000
  0
LINE
 10
-12.523000
 11
-12.604000
 20
-3.987000
 21
-4.041000
  0
LINE
 10
-12.604000
 11
-12.700000
 20
-4.041000
 21
-4.060000
  0
LINE
 10
-12.700000
 11
-12.796000
 20
-4.060000
 21
-4.041000
  0
LINE
 10
-12.796000
 11
-12.877000
 20
-4.041000
 21
-3.987000
  0
LINE
 10
-12.877000
 11
-12.931000
 20
-3.987000
 21
-3.906000
  0
LINE
 10
-12.931000
 11
-12.950000
 20
-3.906000
 21
-3.810000
  0
LINE
 10
-12.950000
 11
-12.931000
 20
-1.270000
 21
-1.174000
  0
LINE
 10
-12.931000
 11
-12.877000
 20
-1.174000
 21
-1.093000
  0
LINE
 10
-12.877000
 11
-12.796000
 20
-1.093000
 21
-1.039000
  0
LINE
 10
-12.796000
 11
-12.700000
 20
-1.039000
 21
-1.020000
  0
LINE
 10
-12.700000
 11
-12.604000
 20
-1.020000
 21
-1.039000
  0
LINE
 10
-12.604000
 11
-12.523000
 20
-1.039000
 21
-1.093000
  0
LINE
 10
-12.523000
 11
-12.469000
 20
-1.093000
 21
-1.174000
  0
LINE
 10
-12.469000
 11
-12.450000
 20
-1.174000
 21
-1.270000
  0
LINE
 10
-12.450000
 11
-12.469000
 20
-1.270000
 21
-1.366000
  0
LINE
 10
-12.469000
 11
-12.523000
 20
-1.366000
 21
-1.447000
  0
LINE
 10
-12.523000
 11
-12.604000
 20
-1.447000
 21
-1.501000
  0
LINE
 10
-12.604000
 11
-12.700000
 20
-1.501000
 21
-1.520000
  0
LINE
 10
-12.700000
 11
-12.796000
 20
-1.520000
 21
-1.501000
  0
LINE
 10
-12.796000
 11
-12.877000
 20
-1.501000
 21
-1.447000
  0
LINE
 10
-12.877000
 11
-12.931000
 20
-1.447000
 21
-1.366000
  0
LINE
 10
-12.931000
 11
-12.950000
 20
-1.366000
 21
-1.270000
  0
LINE
 10
-12.950000
 11
-12.931000
 20
1.270000
 21
1.366000
  0
LINE
 10
-12.931000
 11
-12.877000
 20
1.366000
 21
1.447000
  0
LINE
 10
-12.877000
 11
-12.796000
 20
1.447000
 21
1.501000
  0
LINE
 10
-12.796000
 11
-12.700000
 20
1.501000
 21
1.520000
  0
LINE
 10
-12.700000
 11
-12.604000
 20
1.520000
 21
1.501000
  0
LINE
 10
-12.604000
 11
-12.523000
 20
1.501000
 21
1.447000
  0
LINE
 10
-12.523000
 11
-12.469000
 20
1.447000
 21
1.366000
  0
LINE
 10
-12.469000
 11
-12.450000
 20
1.366000
 21
1.270000
  0
LINE
 10
-12.450000
 11
-12.469000
 20
1.270000
 21
1.174000
  0
LINE
 10
-12.469000
 11
-12.523000
 20
1.174000
 21
1.093000
  0
LINE
 10
-12.523000
 11
-12.604000
 20
1.093000
 21
1.039000
  0
LINE
 10
-12.604000
 11
-12.700000
 20
1.039000
 21
1.020000
  0
LINE
 10
-12.700000
 11
-12.796000
 20
1.020000
 21
1.039000
  0
LINE
 10
-12.796000
 11
-12.877000
 20
1.039000
 21
1.093000
  0
LINE
 10
-12.877000
 11
-12.931000
 20
1.093000
 21
1.174000
  0
LINE
 10
-12.931000
 11
-12.950000
 20
1.174000
 21
1.270000
  0
LINE
 10
-12.950000
 11
-12.931000
 20
3.810000
 21
3.906000
  0
LINE
 10
-12.931000
 11
-12.877000
 20
3.906000
 21
3.987000
  0
LINE
 10
-12.877000
 11
-12.796000
 20
3.987000
 21
4.041000
  0
LINE
 10
-12.796000
 11
-12.700000
 20
4.041000
 21
4.060000
  0
LINE
 10
-12.700000
 11
-12.604000
 20
4.060000
 21
4.041000
  0
LINE
 10
-12.604000
 11
-12.523000
 20
4.041000
 21
3.987000
  0
LINE
 10
-12.523000
 11
-12.469000
 20
3.987000
 21
3.906000
  0
LINE
 10
-12.469000
 11
-12.450000
 20
3.906000
 21
3.810000
  0
LINE
 10
-12.450000
 11
-12.469000
 20
3.810000
 21
3.714000
  0
LINE
 10
-12.469000
 11
-12.523000
 20
3.714000
 21
3.633000
  0
LINE
 10
-12.523000
 11
-12.604000
 20
3.633000
 21
3.579000
  0
LINE
 10
-12.604000
 11
-12.700000
 20
3.579000
 21
3.560000
  0
LINE
 10
-12.700000
 11
-12.796000
 20
3.560000
 21
3.579000
  0
LINE
 10
-12.796000
 11
-12.877000
 20
3.579000
 21
3.633000
  0
LINE
 10
-12.877000
 11
-12.931000
 20
3.633000
 21
3.714000
  0
LINE
 10
-12.931000
 11
-12.950000
 20
3.714000
 21
3.810000
  0
LINE
 10
-12.950000
 11
-12.931000
 20
6.350000
 21
6.446000
  0
LINE
 10
-12.931000
 11
-12.877000
 20
6.446000
 21
6.527000
  0
LINE
 10
-12.877000
 11
-12.796000
 20
6.527000
 21
6.581000
  0
LINE
 10
-12.796000
 11
-12.700000
 20
6.581000
 21
6.600000
  0
LINE
 10
-12.700000
 11
-12.604000
 20
6.600000
 21
6.581000
  0
LINE
 10
-12.604000
 11
-12.523000
 20
6.581000
 21
6.527000
  0
LINE
 10
-12.523000
 11
-12.469000
 20
6.527000
 21
6.446000
  0
LINE
 10
-12.469000
 11
-12.450000
 20
6.446000
 21
6.350000
  0
LINE
 10
-12.450000
 11
-12.469000
 20
6.350000
 21
6.254000
  0
LINE
 10
-12.469000
 11
-12.523000
 20
6.254000
 21
6.173000
  0
LINE
 10
-12.523000
 11
-12.604000
 20
6.173000
 21
6.119000
  0
LINE
 10
-12.604000
 11
-12.700000
 20
6.119000
 21
6.100000
  0
LINE
 10
-12.700000
 11
-12.796000
 20
6.100000
 21
6.119000
  0
LINE
 10
-12.796000
 11
-12.877000
 20
6.119000
 21
6.173000
  0
LINE
 10
-12.877000
 11
-12.931000
 20
6.173000
 21
6.254000
  0
LINE
 10
-12.931000
 11
-12.950000
 20
6.254000
 21
6.350000
  0
LINE
 10
-11.080000
 11
-11.010000
 20
-6.350000
 21
-5.998000
  0
LINE
 10
-11.010000
 11
-10.811000
 20
-5.998000
 21
-5.699000
  0
LINE
 10
-10.811000
 11
-10.512000
 20
-5.699000
 21
-5.500000
  0
LINE
 10
-10.512000
 11
-10.160000
 20
-5.500000
 21
-5.430000
  0
LINE
 10
-10.160000
 11
-9.808000
 20
-5.430000
 21
-5.500000
  0
LINE
 10
-9.808000
 11
-9.509000
 20
-5.500000
 21
-5.699000
  0
LINE
 10
-9.509000
 11
-9.310000
 20
-5.699000
 21
-5.998000
  0
LINE
 10
-9.310000
 11
-9.270000
 20
-5.998000
 21
-6.200000
  0
LINE
 10
-9.270000
 11
-8.947000
 20
-6.200000
 21
-6.200000
  0
LINE
 10
-8.947000
 11
-6.298000
 20
-6.200000
 21
-3.888000
  0
LINE
 10
-6.298000
 11
-6.257000
 20
-3.888000
 21
-3.861000
  0
LINE
 10
-6.257000
 11
-6.200000
 20
-3.861000
 21
-3.850000
  0
LINE
 10
-6.200000
 11
-5.000000
 20
-3.850000
 21
-3.850000
  0
LINE
 10
-5.000000
 11
-5.000000
 20
-3.850000
 21
-4.150000
  0
LINE
 10
-5.000000
 11
-6.143000
 20
-4.150000
 21
-4.150000
  0
LINE
 10
-6.143000
 11
-8.792000
 20
-4.150000
 21
-6.462000
  0
LINE
 10
-8.792000
 11
-8.833000
 20
-6.462000
 21
-6.489000
  0
LINE
 10
-8.833000
 11
-8.890000
 20
-6.489000
 21
-6.500000
  0
LINE
 10
-8.890000
 11
-9.270000
 20
-6.500000
 21
-6.500000
  0
LINE
 10
-9.270000
 11
-9.310000
 20
-6.500000
 21
-6.702000
  0
LINE
 10
-9.310000
 11
-9.509000
 20
-6.702000
 21
-7.001000
  0
LINE
 10
-9.509000
 11
-9.808000
 20
-7.001000
 21
-7.200000
  0
LINE
 10
-9.808000
 11
-10.160000
 20
-7.200000
 21
-7.270000
  0
LINE
 10
-10.160000
 11
-10.512000
 20
-7.270000
 21
-7.200000
  0
LINE
 10
-10.512000
 11
-10.811000
 20
-7.200000
 21
-7.001000
  0
LINE
 10
-10.811000
 11
-11.010000
 20
-7.001000
 21
-6.702000
  0
LINE
 10
-11.010000
 11
-11.080000
 20
-6.702000
 21
-6.350000
  0
LINE
 10
-11.080000
 11
-11.010000
 20
-3.810000
 21
-3.458000
  0
LINE
 10
-11.010000
 11
-10.811000
 20
-3.458000
 21
-3.159000
  0
LINE
 10
-10.811000
 11
-10.512000
 20
-3.159000
 21
-2.960000
  0
LINE
 10
-10.512000
 11
-10.160000
 20
-2.960000
 21
-2.890000
  0
LINE
 10
-10.160000
 11
-9.808000
 20
-2.890000
 21
-2.960000
  0
LINE
 10
-9.808000
 11
-9.509000
 20
-2.960000
 21
-3.159000
  0
LINE
 10
-9.509000
 11
-9.310000
 20
-3.159000
 21
-3.458000
  0
LINE
 10
-9.310000
 11
-9.270000
 20
-3.458000
 21
-3.660000
  0
LINE
 10
-9.270000
 11
-8.944000
 20
-3.660000
 21
-3.660000
  0
LINE
 10
-8.944000
 11
-7.295000
 20
-3.660000
 21
-2.286000
  0
LINE
 10
-7.295000
 11
-7.257000
 20
-2.286000
 21
-2.261000
  0
LINE
 10
-7.257000
 11
-7.200000
 20
-2.261000
 21
-2.250000
  0
LINE
 10
-7.200000
 11
-5.000000
 20
-2.250000
 21
-2.250000
  0
LINE
 10
-5.000000
 11
-5.000000
 20
-2.250000
 21
-2.550000
  0
LINE
 10
-5.000000
 11
-7.146000
 20
-2.550000
 21
-2.550000
  0
LINE
 10
-7.146000
 11
-8.795000
 20
-2.550000
 21
-3.924000
  0
LINE
 10
-8.795000
 11
-8.833000
 20
-3.924000
 21
-3.949000
  0
LINE
 10
-8.833000
 11
-8.890000
 20
-3.949000
 21
-3.960000
  0
LINE
 10
-8.890000
 11
-9.270000
 20
-3.960000
 21
-3.960000
  0
LINE
 10
-9.270000
 11
-9.310000
 20
-3.960000
 21
-4.162000
  0
LINE
 10
-9.310000
 11
-9.509000
 20
-4.162000
 21
-4.461000
  0
LINE
 10
-9.509000
 11
-9.808000
 20
-4.461000
 21
-4.660000
  0
LINE
 10
-9.808000
 11
-10.160000
 20
-4.660000
 21
-4.730000
  0
LINE
 10
-10.160000
 11
-10.512000
 20
-4.730000
 21
-4.660000
  0
LINE
 10
-10.512000
 11
-10.811000
 20
-4.660000
 21
-4.461000
  0
LINE
 10
-10.811000
 11
-11.010000
 20
-4.461000
 21
-4.162000
  0
LINE
 10
-11.010000
 11
-11.080000
 20
-4.162000
 21
-3.810000
  0
LINE
 10
-11.080000
 11
-11.010000
 20
-1.270000
 21
-0.918000
  0
LINE
 10
-11.010000
 11
-10.811000
 20
-0.918000
 21
-0.619000
  0
LINE
 10
-10.811000
 11
-10.512000
 20
-0.619000
 21
-0.420000
  0
LINE
 10
-10.512000
 11
-10.160000
 20
-0.420000
 21
-0.350000
  0
LINE
 10
-10.160000
 11
-9.808000
 20
-0.350000
 21
-0.420000
  0
LINE
 10
-9.808000
 11
-9.509000
 20
-0.420000
 21
-0.619000
  0
LINE
 10
-9.509000
 11
-9.310000
 20
-0.619000
 21
-0.918000
  0
LINE
 10
-9.310000
 11
-9.270000
 20
-0.918000
 21
-1.120000
  0
LINE
 10
-9.270000
 11
-8.936000
 20
-1.120000
 21
-1.120000
  0
LINE
 10
-8.936000
 11
-8.284000
 20
-1.120000
 21
-0.676000
  0
LINE
 10
-8.284000
 11
-8.283000
 20
-0.676000
 21
-0.678000
  0
LINE
 10
-8.283000
 11
-8.257000
 20
-0.678000
 21
-0.661000
  0
LINE
 10
-8.257000
 11
-8.200000
 20
-0.661000
 21
-0.650000
  0
LINE
 10
-8.200000
 11
-5.000000
 20
-0.650000
 21
-0.650000
  0
LINE
 10
-5.000000
 11
-5.000000
 20
-0.650000
 21
-0.950000
  0
LINE
 10
-5.000000
 11
-8.153000
 20
-0.950000
 21
-0.950000
  0
LINE
 10
-8.153000
 11
-8.806000
 20
-0.950000
 21
-1.394000
  0
LINE
 10
-8.806000
 11
-8.807000
 20
-1.394000
 21
-1.392000
  0
LINE
 10
-8.807000
 11
-8.833000
 20
-1.392000
 21
-1.409000
  0
LINE
 10
-8.833000
 11
-8.890000
 20
-1.409000
 21
-1.420000
  0
LINE
 10
-8.890000
 11
-9.270000
 20
-1.420000
 21
-1.420000
  0
LINE
 10
-9.270000
 11
-9.310000
 20
-1.420000
 21
-1.622000
  0
LINE
 10
-9.310000
 11
-9.509000
 20
-1.622000
 21
-1.921000
  0
LINE
 10
-9.509000
 11
-9.808000
 20
-1.921000
 21
-2.120000
  0
LINE
 10
-9.808000
 11
-10.160000
 20
-2.120000
 21
-2.190000
  0
LINE
 10
-10.160000
 11
-10.512000
 20
-2.190000
 21
-2.120000
  0
LINE
 10
-10.512000
 11
-10.811000
 20
-2.120000
 21
-1.921000
  0
LINE
 10
-10.811000
 11
-11.010000
 20
-1.921000
 21
-1.622000
  0
LINE
 10
-11.010000
 11
-11.080000
 20
-1.622000
 21
-1.270000
  0
LINE
 10
-11.080000
 11
-11.010000
 20
1.270000
 21
1.622000
  0
LINE
 10
-11.010000
 11
-10.811000
 20
1.622000
 21
1.921000
  0
LINE
 10
-10.811000
 11
-10.512000
 20
1.921000
 21
2.120000
  0
LINE
 10
-10.512000
 11
-10.160000
 20
2.120000
 21
2.190000
  0
LINE
 10
-10.160000
 11
-9.808000
 20
2.190000
 21
2.120000
  0
LINE
 10
-9.808000
 11
-9.509000
 20
2.120000
 21
1.921000
  0
LINE
 10
-9.509000
 11
-9.310000
 20
1.921000
 21
1.622000
  0
LINE
 10
-9.310000
 11
-9.270000
 20
1.622000
 21
1.420000
  0
LINE
 10
-9.270000
 11
-8.890000
 20
1.420000
 21
1.420000
  0
LINE
 10
-8.890000
 11
-8.833000
 20
1.420000
 21
1.409000
  0
LINE
 10
-8.833000
 11
-8.807000
 20
1.409000
 21
1.392000
  0
LINE
 10
-8.807000
 11
-8.806000
 20
1.392000
 21
1.394000
  0
LINE
 10
-8.806000
 11
-8.153000
 20
1.394000
 21
0.950000
  0
LINE
 10
-8.153000
 11
-5.000000
 20
0.950000
 21
0.950000
  0
LINE
 10
-5.000000
 11
-5.000000
 20
0.950000
 21
0.650000
  0
LINE
 10
-5.000000
 11
-8.200000
 20
0.650000
 21
0.650000
  0
LINE
 10
-8.200000
 11
-8.257000
 20
0.650000
 21
0.661000
  0
LINE
 10
-8.257000
 11
-8.283000
 20
0.661000
 21
0.678000
  0
LINE
 10
-8.283000
 11
-8.284000
 20
0.678000
 21
0.676000
  0
LINE
 10
-8.284000
 11
-8.936000
 20
0.676000
 21
1.120000
  0
LINE
 10
-8.936000
 11
-9.270000
 20
1.120000
 21
1.120000
  0
LINE
 10
-9.270000
 11
-9.310000
 20
1.120000
 21
0.918000
  0
LINE
 10
-9.310000
 11
-9.509000
 20
0.918000
 21
0.619000
  0
LINE
 10
-9.509000
 11
-9.808000
 20
0.619000
 21
0.420000
  0
LINE
 10
-9.808000
 11
-10.160000
 20
0.420000
 21
0.350000
  0
LINE
 10
-10.160000
 11
-10.512000
 20
0.350000
 21
0.420000
  0
LINE
 10
-10.512000
 11
-10.811000
 20
0.420000
 21
0.619000
  0
LINE
 10
-10.811000
 11
-11.010000
 20
0.619000
 21
0.918000
  0
LINE
 10
-11.010000
 11
-11.080000
 20
0.918000
 21
1.270000
  0
LINE
 10
-11.080000
 11
-11.010000
 20
3.810000
 21
4.162000
  0
LINE
 10
-11.010000
 11
-10.811000
 20
4.162000
 21
4.461000
  0
LINE
 10
-10.811000
 11
-10.512000
 20
4.461000
 21
4.660000
  0
LINE
 10
-10.512000
 11
-10.160000
 20
4.660000
 21
4.730000
  0
LINE
 10
-10.160000
 11
-9.808000
 20
4.730000
 21
4.660000
  0
LINE
 10
-9.808000
 11
-9.509000
 20
4.660000
 21
4.461000
  0
LINE
 10
-9.509000
 11
-9.310000
 20
4.461000
 21
4.162000
  0
LINE
 10
-9.310000
 11
-9.270000
 20
4.162000
 21
3.960000
  0
LINE
 10
-9.270000
 11
-8.890000
 20
3.960000
 21
3.960000
  0
LINE
 10
-8.890000
 11
-8.833000
 20
3.960000
 21
3.949000
  0
LINE
 10
-8.833000
 11
-8.794000
 20
3.949000
 21
3.925000
  0
LINE
 10
-8.794000
 11
-7.146000
 20
3.925000
 21
2.550000
  0
LINE
 10
-7.146000
 11
-5.000000
 20
2.550000
 21
2.550000
  0
LINE
 10
-5.000000
 11
-5.000000
 20
2.550000
 21
2.250000
  0
LINE
 10
-5.000000
 11
-7.200000
 20
2.250000
 21
2.250000
  0
LINE
 10
-7.200000
 11
-7.257000
 20
2.250000
 21
2.261000
  0
LINE
 10
-7.257000
 11
-7.296000
 20
2.261000
 21
2.285000
  0
LINE
 10
-7.296000
 11
-8.944000
 20
2.285000
 21
3.660000
  0
LINE
 10
-8.944000
 11
-9.270000
 20
3.660000
 21
3.660000
  0
LINE
 10
-9.270000
 11
-9.310000
 20
3.660000
 21
3.458000
  0
LINE
 10
-9.310000
 11
-9.509000
 20
3.458000
 21
3.159000
  0
LINE
 10
-9.509000
 11
-9.808000
 20
3.159000
 21
2.960000
  0
LINE
 10
-9.808000
 11
-10.160000
 20
2.960000
 21
2.890000
  0
LINE
 10
-10.160000
 11
-10.512000
 20
2.890000
 21
2.960000
  0
LINE
 10
-10.512000
 11
-10.811000
 20
2.960000
 21
3.159000
  0
LINE
 10
-10.811000
 11
-11.010000
 20
3.159000
 21
3.458000
  0
LINE
 10
-11.010000
 11
-11.080000
 20
3.458000
 21
3.810000
  0
LINE
 10
-11.080000
 11
-11.010000
 20
6.350000
 21
6.702000
  0
LINE
 10
-11.010000
 11
-10.811000
 20
6.702000
 21
7.001000
  0
LINE
 10
-10.811000
 11
-10.512000
 20
7.001000
 21
7.200000
  0
LINE
 10
-10.512000
 11
-10.160000
 20
7.200000
 21
7.270000
  0
LINE
 10
-10.160000
 11
-9.808000
 20
7.270000
 21
7.200000
  0
LINE
 10
-9.808000
 11
-9.509000
 20
7.200000
 21
7.001000
  0
LINE
 10
-9.509000
 11
-9.310000
 20
7.001000
 21
6.702000
  0
LINE
 10
-9.310000
 11
-9.270000
 20
6.702000
 21
6.500000
  0
LINE
 10
-9.270000
 11
-8.890000
 20
6.500000
 21
6.500000
  0
LINE
 10
-8.890000
 11
-8.833000
 20
6.500000
 21
6.489000
  0
LINE
 10
-8.833000
 11
-8.791000
 20
6.489000
 21
6.463000
  0
LINE
 10
-8.791000
 11
-6.143000
 20
6.463000
 21
4.150000
  0
LINE
 10
-6.143000
 11
-5.000000
 20
4.150000
 21
4.150000
  0
LINE
 10
-5.000000
 11
-5.000000
 20
4.150000
 21
3.850000
  0
LINE
 10
-5.000000
 11
-6.200000
 20
3.850000
 21
3.850000
  0
LINE
 10
-6.200000
 11
-6.257000
 20
3.850000
 21
3.861000
  0
LINE
 10
-6.257000
 11
-6.299000
 20
3.861000
 21
3.887000
  0
LINE
 10
-6.299000
 11
-8.947000
 20
3.887000
 21
6.200000
  0
LINE
 10
-8.947000
 11
-9.270000
 20
6.200000
 21
6.200000
  0
LINE
 10
-9.270000
 11
-9.310000
 20
6.200000
 21
5.998000
  0
LINE
 10
-9.310000
 11
-9.509000
 20
5.998000
 21
5.699000
  0
LINE
 10
-9.509000
 11
-9.808000
 20
5.699000
 21
5.500000
  0
LINE
 10
-9.808000
 11
-10.160000
 20
5.500000
 21
5.430000
  0
LINE
 10
-10.160000
 11
-10.512000
 20
5.430000
 21
5.500000
  0
LINE
 10
-10.512000
 11
-10.811000
 20
5.500000
 21
5.699000
  0
LINE
 10
-10.811000
 11
-11.010000
 20
5.699000
 21
5.998000
  0
LINE
 10
-11.010000
 11
-11.080000
 20
5.998000
 21
6.350000
  0
LINE
 10
-10.410000
 11
-10.391000
 20
-6.350000
 21
-6.254000
  0
LINE
 10
-10.391000
 11
-10.337000
 20
-6.254000
 21
-6.173000
  0
LINE
 10
-10.337000
 11
-10.256000
 20
-6.173000
 21
-6.119000
  0
LINE
 10
-10.256000
 11
-10.160000
 20
-6.119000
 21
-6.100000
  0
LINE
 10
-10.160000
 11
-10.064000
 20
-6.100000
 21
-6.119000
  0
LINE
 10
-10.064000
 11
-9.983000
 20
-6.119000
 21
-6.173000
  0
LINE
 10
-9.983000
 11
-9.929000
 20
-6.173000
 21
-6.254000
  0
LINE
 10
-9.929000
 11
-9.910000
 20
-6.254000
 21
-6.350000
  0
LINE
 10
-9.910000
 11
-9.929000
 20
-6.350000
 21
-6.446000
  0
LINE
 10
-9.929000
 11
-9.983000
 20
-6.446000
 21
-6.527000
  0
LINE
 10
-9.983000
 11
-10.064000
 20
-6.527000
 21
-6.581000
  0
LINE
 10
-10.064000
 11
-10.160000
 20
-6.581000
 21
-6.600000
  0
LINE
 10
-10.160000
 11
-10.256000
 20
-6.600000
 21
-6.581000
  0
LINE
 10
-10.256000
 11
-10.337000
 20
-6.581000
 21
-6.527000
  0
LINE
 10
-10.337000
 11
-10.391000
 20
-6.527000
 21
-6.446000
  0
LINE
 10
-10.391000
 11
-10.410000
 20
-6.446000
 21
-6.350000
  0
LINE
 10
-10.410000
 11
-10.391000
 20
-3.810000
 21
-3.714000
  0
LINE
 10
-10.391000
 11
-10.337000
 20
-3.714000
 21
-3.633000
  0
LINE
 10
-10.337000
 11
-10.256000
 20
-3.633000
 21
-3.579000
  0
LINE
 10
-10.256000
 11
-10.160000
 20
-3.579000
 21
-3.560000
  0
LINE
 10
-10.160000
 11
-10.064000
 20
-3.560000
 21
-3.579000
  0
LINE
 10
-10.064000
 11
-9.983000
 20
-3.579000
 21
-3.633000
  0
LINE
 10
-9.983000
 11
-9.929000
 20
-3.633000
 21
-3.714000
  0
LINE
 10
-9.929000
 11
-9.910000
 20
-3.714000
 21
-3.810000
  0
LINE
 10
-9.910000
 11
-9.929000
 20
-3.810000
 21
-3.906000
  0
LINE
 10
-9.929000
 11
-9.983000
 20
-3.906000
 21
-3.987000
  0
LINE
 10
-9.983000
 11
-10.064000
 20
-3.987000
 21
-4.041000
  0
LINE
 10
-10.064000
 11
-10.160000
 20
-4.041000
 21
-4.060000
  0
LINE
 10
-10.160000
 11
-10.256000
 20
-4.060000
 21
-4.041000
  0
LINE
 10
-10.256000
 11
-10.337000
 20
-4.041000
 21
-3.987000
  0
LINE
 10
-10.337000
 11
-10.391000
 20
-3.987000
 21
-3.906000
  0
LINE
 10
-10.391000
 11
-10.410000
 20
-3.906000
 21
-3.810000
  0
LINE
 10
-10.410000
 11
-10.391000
 20
-1.270000
 21
-1.174000
  0
LINE
 10
-10.391000
 11
-10.337000
 20
-1.174000
 21
-1.093000
  0
LINE
 10
-10.337000
 11
-10.256000
 20
-1.093000
 21
-1.039000
  0
LINE
 10
-10.256000
 11
-10.160000
 20
-1.039000
 21
-1.020000
  0
LINE
 10
-10.160000
 11
-10.064000
 20
-1.020000
 21
-1.039000
  0
LINE
 10
-10.064000
 11
-9.983000
 20
-1.039000
 21
-1.093000
  0
LINE
 10
-9.983000
 11
-9.929000
 20
-1.093000
 21
-1.174000
  0
LINE
 10
-9.929000
 11
-9.910000
 20
-1.174000
 21
-1.270000
  0
LINE
 10
-9.910000
 11
-9.929000
 20
-1.270000
 21
-1.366000
  0
LINE
 10
-9.929000
 11
-9.983000
 20
-1.366000
 21
-1.447000
  0
LINE
 10
-9.983000
 11
-10.064000
 20
-1.447000
 21
-1.501000
  0
LINE
 10
-10.064000
 11
-10.160000
 20
-1.501000
 21
-1.520000
  0
LINE
 10
-10.160000
 11
-10.256000
 20
-1.520000
 21
-1.501000
  0
LINE
 10
-10.256000
 11
-10.337000
 20
-1.501000
 21
-1.447000
  0
LINE
 10
-10.337000
 11
-10.391000
 20
-1.447000
 21
-1.366000
  0
LINE
 10
-10.391000
 11
-10.410000
 20
-1.366000
 21
-1.270000
  0
LINE
 10
-10.410000
 11
-10.391000
 20
1.270000
 21
1.366000
  0
LINE
 10
-10.391000
 11
-10.337000
 20
1.366000
 21
1.447000
  0
LINE
 10
-10.337000
 11
-10.256000
 20
1.447000
 21
1.501000
  0
LINE
 10
-10.256000
 11
-10.160000
 20
1.501000
 21
1.520000
  0
LINE
 10
-10.160000
 11
-10.064000
 20
1.520000
 21
1.501000
  0
LINE
 10
-10.064000
 11
-9.983000
 20
1.501000
 21
1.447000
  0
LINE
 10
-9.983000
 11
-9.929000
 20
1.447000
 21
1.366000
  0
LINE
 10
-9.929000
 11
-9.910000
 20
1.366000
 21
1.270000
  0
LINE
 10
-9.910000
 11
-9.929000
 20
1.270000
 21
1.174000
  0
LINE
 10
-9.929000
 11
-9.983000
 20
1.174000
 21
1.093000
  0
LINE
 10
-9.983000
 11
-10.064000
 20
1.093000
 21
1.039000
  0
LINE
 10
-10.064000
 11
-10.160000
 20
1.039000
 21
1.020000
  0
LINE
 10
-10.160000
 11
-10.256000
 20
1.020000
 21
1.039000
  0
LINE
 10
-10.256000
 11
-10.337000
 20
1.039000
 21
1.093000
  0
LINE
 10
-10.337000
 11
-10.391000
 20
1.093000
 21
1.174000
  0
LINE
 10
-10.391000
 11
-10.410000
 20
1.174000
 21
1.270000
  0
LINE
 10
-10.410000
 11
-10.391000
 20
3.810000
 21
3.906000
  0
LINE
 10
-10.391000
 11
-10.337000
 20
3.906000
 21
3.987000
  0
LINE
 10
-10.337000
 11
-10.256000
 20
3.987000
 21
4.041000
  0
LINE
 10
-10.256000
 11
-10.160000
 20
4.041000
 21
4.060000
  0
LINE
 10
-10.160000
 11
-10.064000
 20
4.060000
 21
4.041000
  0
LINE
 10
-10.064000
 11
-9.983000
 20
4.041000
 21
3.987000
  0
LINE
 10
-9.983000
 11
-9.929000
 20
3.987000
 21
3.906000
  0
LINE
 10
-9.929000
 11
-9.910000
 20
3.906000
 21
3.810000
  0
LINE
 10
-9.910000
 11
-9.929000
 20
3.810000
 21
3.714000
  0
LINE
 10
-9.929000
 11
-9.983000
 20
3.714000
 21
3.633000
  0
LINE
 10
-9.983000
 11
-10.064000
 20
3.633000
 21
3.579000
  0
LINE
 10
-10.064000
 11
-10.160000
 20
3.579000
 21
3.560000
  0
LINE
 10
-10.160000
 11
-10.256000
 20
3.560000
 21
3.579000
  0
LINE
 10
-10.256000
 11
-10.337000
 20
3.579000
 21
3.633000
  0
LINE
 10
-10.337000
 11
-10.391000
 20
3.633000
 21
3.714000
  0
LINE
 10
-10.391000
 11
-10.410000
 20
3.714000
 21
3.810000
  0
LINE
 10
-10.410000
 11
-10.391000
 20
6.350000
 21
6.446000
  0
LINE
 10
-10.391000
 11
-10.337000
 20
6.446000
 21
6.527000
  0
LINE
 10
-10.337000
 11
-10.256000
 20
6.527000
 21
6.581000
  0
LINE
 10
-10.256000
 11
-10.160000
 20
6.581000
 21
6.600000
  0
LINE
 10
-10.160000
 11
-10.064000
 20
6.600000
 21
6.581000
  0
LINE
 10
-10.064000
 11
-9.983000
 20
6.581000
 21
6.527000
  0
LINE
 10
-9.983000
 11
-9.929000
 20
6.527000
 21
6.446000
  0
LINE
 10
-9.929000
 11
-9.910000
 20
6.446000
 21
6.350000
  0
LINE
 10
-9.910000
 11
-9.929000
 20
6.350000
 21
6.254000
  0
LINE
 10
-9.929000
 11
-9.983000
 20
6.254000
 21
6.173000
  0
LINE
 10
-9.983000
 11
-10.064000
 20
6.173000
 21
6.119000
  0
LINE
 10
-10.064000
 11
-10.160000
 20
6.119000
 21
6.100000
  0
LINE
 10
-10.160000
 11
-10.256000
 20
6.100000
 21
6.119000
  0
LINE
 10
-10.256000
 11
-10.337000
 20
6.119000
 21
6.173000
  0
LINE
 10
-10.337000
 11
-10.391000
 20
6.173000
 21
6.254000
  0
LINE
 10
-10.391000
 11
-10.410000
 20
6.254000
 21
6.350000
  0
LINE
 10
-7.270000
 11
-7.200000
 20
-12.700000
 21
-12.348000
  0
LINE
 10
-7.200000
 11
-7.001000
 20
-12.348000
 21
-12.049000
  0
LINE
 10
-7.001000
 11
-6.702000
 20
-12.049000
 21
-11.850000
  0
LINE
 10
-6.702000
 11
-6.350000
 20
-11.850000
 21
-11.780000
  0
LINE
 10
-6.350000
 11
-5.998000
 20
-11.780000
 21
-11.850000
  0
LINE
 10
-5.998000
 11
-5.826000
 20
-11.850000
 21
-11.964000
  0
LINE
 10
-5.826000
 11
-5.230000
 20
-11.964000
 21
-11.368000
  0
LINE
 10
-5.230000
 11
-5.230000
 20
-11.368000
 21
-8.890000
  0
LINE
 10
-5.230000
 11
-5.219000
 20
-8.890000
 21
-8.833000
  0
LINE
 10
-5.219000
 11
-5.192000
 20
-8.833000
 21
-8.793000
  0
LINE
 10
-5.192000
 11
-5.194000
 20
-8.793000
 21
-8.792000
  0
LINE
 10
-5.194000
 11
-3.350000
 20
-8.792000
 21
-6.644000
  0
LINE
 10
-3.350000
 11
-3.350000
 20
-6.644000
 21
-5.000000
  0
LINE
 10
-3.350000
 11
-3.050000
 20
-5.000000
 21
-5.000000
  0
LINE
 10
-3.050000
 11
-3.050000
 20
-5.000000
 21
-6.700000
  0
LINE
 10
-3.050000
 11
-3.061000
 20
-6.700000
 21
-6.757000
  0
LINE
 10
-3.061000
 11
-3.088000
 20
-6.757000
 21
-6.797000
  0
LINE
 10
-3.088000
 11
-3.086000
 20
-6.797000
 21
-6.798000
  0
LINE
 10
-3.086000
 11
-4.930000
 20
-6.798000
 21
-8.946000
  0
LINE
 10
-4.930000
 11
-4.930000
 20
-8.946000
 21
-11.430000
  0
LINE
 10
-4.930000
 11
-4.941000
 20
-11.430000
 21
-11.487000
  0
LINE
 10
-4.941000
 11
-4.974000
 20
-11.487000
 21
-11.536000
  0
LINE
 10
-4.974000
 11
-5.614000
 20
-11.536000
 21
-12.176000
  0
LINE
 10
-5.614000
 11
-5.500000
 20
-12.176000
 21
-12.348000
  0
LINE
 10
-5.500000
 11
-5.430000
 20
-12.348000
 21
-12.700000
  0
LINE
 10
-5.430000
 11
-5.500000
 20
-12.700000
 21
-13.052000
  0
LINE
 10
-5.500000
 11
-5.699000
 20
-13.052000
 21
-13.351000
  0
LINE
 10
-5.699000
 11
-5.998000
 20
-13.351000
 21
-13.550000
  0
LINE
 10
-5.998000
 11
-6.350000
 20
-13.550000
 21
-13.620000
  0
LINE
 10
-6.350000
 11
-6.702000
 20
-13.620000
 21
-13.550000
  0
LINE
 10
-6.702000
 11
-7.001000
 20
-13.550000
 21
-13.351000
  0
LINE
 10
-7.001000
 11
-7.200000
 20
-13.351000
 21
-13.052000
  0
LINE
 10
-7.200000
 11
-7.270000
 20
-13.052000
 21
-12.700000
  0
LINE
 10
-7.270000
 11
-7.200000
 20
-10.160000
 21
-9.808000
  0
LINE
 10
-7.200000
 11
-7.001000
 20
-9.808000
 21
-9.509000
  0
LINE
 10
-7.001000
 11
-6.702000
 20
-9.509000
 21
-9.310000
  0
LINE
 10
-6.702000
 11
-6.500000
 20
-9.310000
 21
-9.270000
  0
LINE
 10
-6.500000
 11
-6.500000
 20
-9.270000
 21
-8.890000
  0
LINE
 10
-6.500000
 11
-6.489000
 20
-8.890000
 21
-8.833000
  0
LINE
 10
-6.489000
 11
-6.463000
 20
-8.833000
 21
-8.791000
  0
LINE
 10
-6.463000
 11
-4.150000
 20
-8.791000
 21
-6.143000
  0
LINE
 10
-4.150000
 11
-4.150000
 20
-6.143000
 21
-5.000000
  0
LINE
 10
-4.150000
 11
-3.850000
 20
-5.000000
 21
-5.000000
  0
LINE
 10
-3.850000
 11
-3.850000
 20
-5.000000
 21
-6.200000
  0
LINE
 10
-3.850000
 11
-3.861000
 20
-6.200000
 21
-6.257000
  0
LINE
 10
-3.861000
 11
-3.887000
 20
-6.257000
 21
-6.299000
  0
LINE
 10
-3.887000
 11
-6.200000
 20
-6.299000
 21
-8.947000
  0
LINE
 10
-6.200000
 11
-6.200000
 20
-8.947000
 21
-9.270000
  0
LINE
 10
-6.200000
 11
-5.998000
 20
-9.270000
 21
-9.310000
  0
LINE
 10
-5.998000
 11
-5.699000
 20
-9.310000
 21
-9.509000
  0
LINE
 10
-5.699000
 11
-5.500000
 20
-9.509000
 21
-9.808000
  0
LINE
 10
-5.500000
 11
-5.430000
 20
-9.808000
 21
-10.160000
  0
LINE
 10
-5.430000
 11
-5.500000
 20
-10.160000
 21
-10.512000
  0
LINE
 10
-5.500000
 11
-5.699000
 20
-10.512000
 21
-10.811000
  0
LINE
 10
-5.699000
 11
-5.998000
 20
-10.811000
 21
-11.010000
  0
LINE
 10
-5.998000
 11
-6.350000
 20
-11.010000
 21
-11.080000
  0
LINE
 10
-6.350000
 11
-6.702000
 20
-11.080000
 21
-11.010000
  0
LINE
 10
-6.702000
 11
-7.001000
 20
-11.010000
 21
-10.811000
  0
LINE
 10
-7.001000
 11
-7.200000
 20
-10.811000
 21
-10.512000
  0
LINE
 10
-7.200000
 11
-7.270000
 20
-10.512000
 21
-10.160000
  0
LINE
 10
-7.270000
 11
-7.200000
 20
10.160000
 21
10.512000
  0
LINE
 10
-7.200000
 11
-7.001000
 20
10.512000
 21
10.811000
  0
LINE
 10
-7.001000
 11
-6.702000
 20
10.811000
 21
11.010000
  0
LINE
 10
-6.702000
 11
-6.350000
 20
11.010000
 21
11.080000
  0
LINE
 10
-6.350000
 11
-5.998000
 20
11.080000
 21
11.010000
  0
LINE
 10
-5.998000
 11
-5.699000
 20
11.010000
 21
10.811000
  0
LINE
 10
-5.699000
 11
-5.500000
 20
10.811000
 21
10.512000
  0
LINE
 10
-5.500000
 11
-5.430000
 20
10.512000
 21
10.160000
  0
LINE
 10
-5.430000
 11
-5.500000
 20
10.160000
 21
9.808000
  0
LINE
 10
-5.500000
 11
-5.699000
 20
9.808000
 21
9.509000
  0
LINE
 10
-5.699000
 11
-5.998000
 20
9.509000
 21
9.310000
  0
LINE
 10
-5.998000
 11
-6.200000
 20
9.310000
 21
9.270000
  0
LINE
 10
-6.200000
 11
-6.200000
 20
9.270000
 21
8.947000
  0
LINE
 10
-6.200000
 11
-3.888000
 20
8.947000
 21
6.298000
  0
LINE
 10
-3.888000
 11
-3.861000
 20
6.298000
 21
6.257000
  0
LINE
 10
-3.861000
 11
-3.850000
 20
6.257000
 21
6.200000
  0
LINE
 10
-3.850000
 11
-3.850000
 20
6.200000
 21
5.000000
  0
LINE
 10
-3.850000
 11
-4.150000
 20
5.000000
 21
5.000000
  0
LINE
 10
-4.150000
 11
-4.150000
 20
5.000000
 21
6.143000
  0
LINE
 10
-4.150000
 11
-6.462000
 20
6.143000
 21
8.792000
  0
LINE
 10
-6.462000
 11
-6.489000
 20
8.792000
 21
8.833000
  0
LINE
 10
-6.489000
 11
-6.500000
 20
8.833000
 21
8.890000
  0
LINE
 10
-6.500000
 11
-6.500000
 20
8.890000
 21
9.270000
  0
LINE
 10
-6.500000
 11
-6.702000
 20
9.270000
 21
9.310000
  0
LINE
 10
-6.702000
 11
-7.001000
 20
9.310000
 21
9.509000
  0
LINE
 10
-7.001000
 11
-7.200000
 20
9.509000
 21
9.808000
  0
LINE
 10
-7.200000
 11
-7.270000
 20
9.808000
 21
10.160000
  0
LINE
 10
-6.600000
 11
-6.581000
 20
-12.700000
 21
-12.604000
  0
LINE
 10
-6.581000
 11
-6.527000
 20
-12.604000
 21
-12.523000
  0
LINE
 10
-6.527000
 11
-6.446000
 20
-12.523000
 21
-12.469000
  0
LINE
 10
-6.446000
 11
-6.350000
 20
-12.469000
 21
-12.450000
  0
LINE
 10
-6.350000
 11
-6.254000
 20
-12.450000
 21
-12.469000
  0
LINE
 10
-6.254000
 11
-6.173000
 20
-12.469000
 21
-12.523000
  0
LINE
 10
-6.173000
 11
-6.119000
 20
-12.523000
 21
-12.604000
  0
LINE
 10
-6.119000
 11
-6.100000
 20
-12.604000
 21
-12.700000
  0
LINE
 10
-6.100000
 11
-6.119000
 20
-12.700000
 21
-12.796000
  0
LINE
 10
-6.119000
 11
-6.173000
 20
-12.796000
 21
-12.877000
  0
LINE
 10
-6.173000
 11
-6.254000
 20
-12.877000
 21
-12.931000
  0
LINE
 10
-6.254000
 11
-6.350000
 20
-12.931000
 21
-12.950000
  0
LINE
 10
-6.350000
 11
-6.446000
 20
-12.950000
 21
-12.931000
  0
LINE
 10
-6.446000
 11
-6.527000
 20
-12.931000
 21
-12.877000
  0
LINE
 10
-6.527000
 11
-6.581000
 20
-12.877000
 21
-12.796000
  0
LINE
 10
-6.581000
 11
-6.600000
 20
-12.796000
 21
-12.700000
  0
LINE
 10
-6.600000
 11
-6.581000
 20
-10.160000
 21
-10.064000
  0
LINE
 10
-6.581000
 11
-6.527000
 20
-10.064000
 21
-9.983000
  0
LINE
 10
-6.527000
 11
-6.446000
 20
-9.983000
 21
-9.929000
  0
LINE
 10
-6.446000
 11
-6.350000
 20
-9.929000
 21
-9.910000
  0
LINE
 10
-6.350000
 11
-6.254000
 20
-9.910000
 21
-9.929000
  0
LINE
 10
-6.254000
 11
-6.173000
 20
-9.929000
 21
-9.983000
  0
LINE
 10
-6.173000
 11
-6.119000
 20
-9.983000
 21
-10.064000
  0
LINE
 10
-6.119000
 11
-6.100000
 20
-10.064000
 21
-10.160000
  0
LINE
 10
-6.100000
 11
-6.119000
 20
-10.160000
 21
-10.256000
  0
LINE
 10
-6.119000
 11
-6.173000
 20
-10.256000
 21
-10.337000
  0
LINE
 10
-6.173000
 11
-6.254000
 20
-10.337000
 21
-10.391000
  0
LINE
 10
-6.254000
 11
-6.350000
 20
-10.391000
 21
-10.410000
  0
LINE
 10
-6.350000
 11
-6.446000
 20
-10.410000
 21
-10.391000
  0
LINE
 10
-6.446000
 11
-6.527000
 20
-10.391000
 21
-10.337000
  0
LINE
 10
-6.527000
 11
-6.581000
 20
-10.337000
 21
-10.256000
  0
LINE
 10
-6.581000
 11
-6.600000
 20
-10.256000
 21
-10.160000
  0
LINE
 10
-6.600000
 11
-6.581000
 20
10.160000
 21
10.256000
  0
LINE
 10
-6.581000
 11
-6.527000
 20
10.256000
 21
10.337000
  0
LINE
 10
-6.527000
 11
-6.446000
 20
10.337000
 21
10.391000
  0
LINE
 10
-6.446000
 11
-6.350000
 20
10.391000
 21
10.410000
  0
LINE
 10
-6.350000
 11
-6.254000
 20
10.410000
 21
10.391000
  0
LINE
 10
-6.254000
 11
-6.173000
 20
10.391000
 21
10.337000
  0
LINE
 10
-6.173000
 11
-6.119000
 20
10.337000
 21
10.256000
  0
LINE
 10
-6.119000
 11
-6.100000
 20
10.256000
 21
10.160000
  0
LINE
 10
-6.100000
 11
-6.119000
 20
10.160000
 21
10.064000
  0
LINE
 10
-6.119000
 11
-6.173000
 20
10.064000
 21
9.983000
  0
LINE
 10
-6.173000
 11
-6.254000
 20
9.983000
 21
9.929000
  0
LINE
 10
-6.254000
 11
-6.350000
 20
9.929000
 21
9.910000
  0
LINE
 10
-6.350000
 11
-6.446000
 20
9.910000
 21
9.929000
  0
LINE
 10
-6.446000
 11
-6.527000
 20
9.929000
 21
9.983000
  0
LINE
 10
-6.527000
 11
-6.581000
 20
9.983000
 21
10.064000
  0
LINE
 10
-6.581000
 11
-6.600000
 20
10.064000
 21
10.160000
  0
LINE
 10
-5.230000
 11
-5.230000
 20
8.890000
 21
11.430000
  0
LINE
 10
-5.230000
 11
-5.219000
 20
11.430000
 21
11.487000
  0
LINE
 10
-5.219000
 11
-5.186000
 20
11.487000
 21
11.536000
  0
LINE
 10
-5.186000
 11
-4.546000
 20
11.536000
 21
12.176000
  0
LINE
 10
-4.546000
 11
-4.660000
 20
12.176000
 21
12.348000
  0
LINE
 10
-4.660000
 11
-4.730000
 20
12.348000
 21
12.700000
  0
LINE
 10
-4.730000
 11
-4.660000
 20
12.700000
 21
13.052000
  0
LINE
 10
-4.660000
 11
-4.461000
 20
13.052000
 21
13.351000
  0
LINE
 10
-4.461000
 11
-4.162000
 20
13.351000
 21
13.550000
  0
LINE
 10
-4.162000
 11
-3.810000
 20
13.550000
 21
13.620000
  0
LINE
 10
-3.810000
 11
-3.458000
 20
13.620000
 21
13.550000
  0
LINE
 10
-3.458000
 11
-3.159000
 20
13.550000
 21
13.351000
  0
LINE
 10
-3.159000
 11
-2.960000
 20
13.351000
 21
13.052000
  0
LINE
 10
-2.960000
 11
-2.890000
 20
13.052000
 21
12.700000
  0
LINE
 10
-2.890000
 11
-2.960000
 20
12.700000
 21
12.348000
  0
LINE
 10
-2.960000
 11
-3.159000
 20
12.348000
 21
12.049000
  0
LINE
 10
-3.159000
 11
-3.458000
 20
12.049000
 21
11.850000
  0
LINE
 10
-3.458000
 11
-3.810000
 20
11.850000
 21
11.780000
  0
LINE
 10
-3.810000
 11
-4.162000
 20
11.780000
 21
11.850000
  0
LINE
 10
-4.162000
 11
-4.334000
 20
11.850000
 21
11.964000
  0
LINE
 10
-4.334000
 11
-4.930000
 20
11.964000
 21
11.368000
  0
LINE
 10
-4.930000
 11
-4.930000
 20
11.368000
 21
8.946000
  0
LINE
 10
-4.930000
 11
-3.086000
 20
8.946000
 21
6.798000
  0
LINE
 10
-3.086000
 11
-3.088000
 20
6.798000
 21
6.797000
  0
LINE
 10
-3.088000
 11
-3.061000
 20
6.797000
 21
6.757000
  0
LINE
 10
-3.061000
 11
-3.050000
 20
6.757000
 21
6.700000
  0
LINE
 10
-3.050000
 11
-3.050000
 20
6.700000
 21
5.000000
  0
LINE
 10
-3.050000
 11
-3.350000
 20
5.000000
 21
5.000000
  0
LINE
 10
-3.350000
 11
-3.350000
 20
5.000000
 21
6.644000
  0
LINE
 10
-3.350000
 11
-5.194000
 20
6.644000
 21
8.792000
  0
LINE
 10
-5.194000
 11
-5.192000
 20
8.792000
 21
8.793000
  0
LINE
 10
-5.192000
 11
-5.219000
 20
8.793000
 21
8.833000
  0
LINE
 10
-5.219000
 11
-5.230000
 20
8.833000
 21
8.890000
  0
LINE
 10
-4.730000
 11
-4.660000
 20
-12.700000
 21
-12.348000
  0
LINE
 10
-4.660000
 11
-4.461000
 20
-12.348000
 21
-12.049000
  0
LINE
 10
-4.461000
 11
-4.162000
 20
-12.049000
 21
-11.850000
  0
LINE
 10
-4.162000
 11
-3.810000
 20
-11.850000
 21
-11.780000
  0
LINE
 10
-3.810000
 11
-3.458000
 20
-11.780000
 21
-11.850000
  0
LINE
 10
-3.458000
 11
-3.286000
 20
-11.850000
 21
-11.964000
  0
LINE
 10
-3.286000
 11
-2.690000
 20
-11.964000
 21
-11.368000
  0
LINE
 10
-2.690000
 11
-2.690000
 20
-11.368000
 21
-8.890000
  0
LINE
 10
-2.690000
 11
-2.679000
 20
-8.890000
 21
-8.833000
  0
LINE
 10
-2.679000
 11
-2.656000
 20
-8.833000
 21
-8.799000
  0
LINE
 10
-2.656000
 11
-2.658000
 20
-8.799000
 21
-8.797000
  0
LINE
 10
-2.658000
 11
-1.750000
 20
-8.797000
 21
-7.648000
  0
LINE
 10
-1.750000
 11
-1.750000
 20
-7.648000
 21
-5.000000
  0
LINE
 10
-1.750000
 11
-1.450000
 20
-5.000000
 21
-5.000000
  0
LINE
 10
-1.450000
 11
-1.450000
 20
-5.000000
 21
-7.700000
  0
LINE
 10
-1.450000
 11
-1.461000
 20
-7.700000
 21
-7.757000
  0
LINE
 10
-1.461000
 11
-1.483000
 20
-7.757000
 21
-7.793000
  0
LINE
 10
-1.483000
 11
-2.390000
 20
-7.793000
 21
-8.942000
  0
LINE
 10
-2.390000
 11
-2.390000
 20
-8.942000
 21
-11.430000
  0
LINE
 10
-2.390000
 11
-2.401000
 20
-11.430000
 21
-11.487000
  0
LINE
 10
-2.401000
 11
-2.434000
 20
-11.487000
 21
-11.536000
  0
LINE
 10
-2.434000
 11
-3.074000
 20
-11.536000
 21
-12.176000
  0
LINE
 10
-3.074000
 11
-2.960000
 20
-12.176000
 21
-12.348000
  0
LINE
 10
-2.960000
 11
-2.890000
 20
-12.348000
 21
-12.700000
  0
LINE
 10
-2.890000
 11
-2.960000
 20
-12.700000
 21
-13.052000
  0
LINE
 10
-2.960000
 11
-3.159000
 20
-13.052000
 21
-13.351000
  0
LINE
 10
-3.159000
 11
-3.458000
 20
-13.351000
 21
-13.550000
  0
LINE
 10
-3.458000
 11
-3.810000
 20
-13.550000
 21
-13.620000
  0
LINE
 10
-3.810000
 11
-4.162000
 20
-13.620000
 21
-13.550000
  0
LINE
 10
-4.162000
 11
-4.461000
 20
-13.550000
 21
-13.351000
  0
LINE
 10
-4.461000
 11
-4.660000
 20
-13.351000
 21
-13.052000
  0
LINE
 10
-4.660000
 11
-4.730000
 20
-13.052000
 21
-12.700000
  0
LINE
 10
-4.730000
 11
-4.660000
 20
-10.160000
 21
-9.808000
  0
LINE
 10
-4.660000
 11
-4.461000
 20
-9.808000
 21
-9.509000
  0
LINE
 10
-4.461000
 11
-4.162000
 20
-9.509000
 21
-9.310000
  0
LINE
 10
-4.162000
 11
-3.960000
 20
-9.310000
 21
-9.270000
  0
LINE
 10
-3.960000
 11
-3.960000
 20
-9.270000
 21
-8.890000
  0
LINE
 10
-3.960000
 11
-3.949000
 20
-8.890000
 21
-8.833000
  0
LINE
 10
-3.949000
 11
-3.925000
 20
-8.833000
 21
-8.794000
  0
LINE
 10
-3.925000
 11
-2.550000
 20
-8.794000
 21
-7.146000
  0
LINE
 10
-2.550000
 11
-2.550000
 20
-7.146000
 21
-5.000000
  0
LINE
 10
-2.550000
 11
-2.250000
 20
-5.000000
 21
-5.000000
  0
LINE
 10
-2.250000
 11
-2.250000
 20
-5.000000
 21
-7.200000
  0
LINE
 10
-2.250000
 11
-2.261000
 20
-7.200000
 21
-7.257000
  0
LINE
 10
-2.261000
 11
-2.285000
 20
-7.257000
 21
-7.296000
  0
LINE
 10
-2.285000
 11
-3.660000
 20
-7.296000
 21
-8.944000
  0
LINE
 10
-3.660000
 11
-3.660000
 20
-8.944000
 21
-9.270000
  0
LINE
 10
-3.660000
 11
-3.458000
 20
-9.270000
 21
-9.310000
  0
LINE
 10
-3.458000
 11
-3.159000
 20
-9.310000
 21
-9.509000
  0
LINE
 10
-3.159000
 11
-2.960000
 20
-9.509000
 21
-9.808000
  0
LINE
 10
-2.960000
 11
-2.890000
 20
-9.808000
 21
-10.160000
  0
LINE
 10
-2.890000
 11
-2.960000
 20
-10.160000
 21
-10.512000
  0
LINE
 10
-2.960000
 11
-3.159000
 20
-10.512000
 21
-10.811000
  0
LINE
 10
-3.159000
 11
-3.458000
 20
-10.811000
 21
-11.010000
  0
LINE
 10
-3.458000
 11
-3.810000
 20
-11.010000
 21
-11.080000
  0
LINE
 10
-3.810000
 11
-4.162000
 20
-11.080000
 21
-11.010000
  0
LINE
 10
-4.162000
 11
-4.461000
 20
-11.010000
 21
-10.811000
  0
LINE
 10
-4.461000
 11
-4.660000
 20
-10.811000
 21
-10.512000
  0
LINE
 10
-4.660000
 11
-4.730000
 20
-10.512000
 21
-10.160000
  0
LINE
 10
-4.730000
 11
-4.660000
 20
10.160000
 21
10.512000
  0
LINE
 10
-4.660000
 11
-4.461000
 20
10.512000
 21
10.811000
  0
LINE
 10
-4.461000
 11
-4.162000
 20
10.811000
 21
11.010000
  0
LINE
 10
-4.162000
 11
-3.810000
 20
11.010000
 21
11.080000
  0
LINE
 10
-3.810000
 11
-3.458000
 20
11.080000
 21
11.010000
  0
LINE
 10
-3.458000
 11
-3.159000
 20
11.010000
 21
10.811000
  0
LINE
 10
-3.159000
 11
-2.960000
 20
10.811000
 21
10.512000
  0
LINE
 10
-2.960000
 11
-2.890000
 20
10.512000
 21
10.160000
  0
LINE
 10
-2.890000
 11
-2.960000
 20
10.160000
 21
9.808000
  0
LINE
 10
-2.960000
 11
-3.159000
 20
9.808000
 21
9.509000
  0
LINE
 10
-3.159000
 11
-3.458000
 20
9.509000
 21
9.310000
  0
LINE
 10
-3.458000
 11
-3.660000
 20
9.310000
 21
9.270000
  0
LINE
 10
-3.660000
 11
-3.660000
 20
9.270000
 21
8.944000
  0
LINE
 10
-3.660000
 11
-2.286000
 20
8.944000
 21
7.295000
  0
LINE
 10
-2.286000
 11
-2.261000
 20
7.295000
 21
7.257000
  0
LINE
 10
-2.261000
 11
-2.250000
 20
7.257000
 21
7.200000
  0
LINE
 10
-2.250000
 11
-2.250000
 20
7.200000
 21
5.000000
  0
LINE
 10
-2.250000
 11
-2.550000
 20
5.000000
 21
5.000000
  0
LINE
 10
-2.550000
 11
-2.550000
 20
5.000000
 21
7.146000
  0
LINE
 10
-2.550000
 11
-3.924000
 20
7.146000
 21
8.795000
  0
LINE
 10
-3.924000
 11
-3.949000
 20
8.795000
 21
8.833000
  0
LINE
 10
-3.949000
 11
-3.960000
 20
8.833000
 21
8.890000
  0
LINE
 10
-3.960000
 11
-3.960000
 20
8.890000
 21
9.270000
  0
LINE
 10
-3.960000
 11
-4.162000
 20
9.270000
 21
9.310000
  0
LINE
 10
-4.162000
 11
-4.461000
 20
9.310000
 21
9.509000
  0
LINE
 10
-4.461000
 11
-4.660000
 20
9.509000
 21
9.808000
  0
LINE
 10
-4.660000
 11
-4.730000
 20
9.808000
 21
10.160000
  0
LINE
 10
-4.060000
 11
-4.041000
 20
-12.700000
 21
-12.604000
  0
LINE
 10
-4.041000
 11
-3.987000
 20
-12.604000
 21
-12.523000
  0
LINE
 10
-3.987000
 11
-3.906000
 20
-12.523000
 21
-12.469000
  0
LINE
 10
-3.906000
 11
-3.810000
 20
-12.469000
 21
-12.450000
  0
LINE
 10
-3.810000
 11
-3.714000
 20
-12.450000
 21
-12.469000
  0
LINE
 10
-3.714000
 11
-3.633000
 20
-12.469000
 21
-12.523000
  0
LINE
 10
-3.633000
 11
-3.579000
 20
-12.523000
 21
-12.604000
  0
LINE
 10
-3.579000
 11
-3.560000
 20
-12.604000
 21
-12.700000
  0
LINE
 10
-3.560000
 11
-3.579000
 20
-12.700000
 21
-12.796000
  0
LINE
 10
-3.579000
 11
-3.633000
 20
-12.796000
 21
-12.877000
  0
LINE
 10
-3.633000
 11
-3.714000
 20
-12.877000
 21
-12.931000
  0
LINE
 10
-3.714000
 11
-3.810000
 20
-12.931000
 21
-12.950000
  0
LINE
 10
-3.810000
 11
-3.906000
 20
-12.950000
 21
-12.931000
  0
LINE
 10
-3.906000
 11
-3.987000
 20
-12.931000
 21
-12.877000
  0
LINE
 10
-3.987000
 11
-4.041000
 20
-12.877000
 21
-12.796000
  0
LINE
 10
-4.041000
 11
-4.060000
 20
-12.796000
 21
-12.700000
  0
LINE
 10
-4.060000
 11
-4.041000
 20
-10.160000
 21
-10.064000
  0
LINE
 10
-4.041000
 11
-3.987000
 20
-10.064000
 21
-9.983000
  0
LINE
 10
-3.987000
 11
-3.906000
 20
-9.983000
 21
-9.929000
  0
LINE
 10
-3.906000
 11
-3.810000
 20
-9.929000
 21
-9.910000
  0
LINE
 10
-3.810000
 11
-3.714000
 20
-9.910000
 21
-9.929000
  0
LINE
 10
-3.714000
 11
-3.633000
 20
-9.929000
 21
-9.983000
  0
LINE
 10
-3.633000
 11
-3.579000
 20
-9.983000
 21
-10.064000
  0
LINE
 10
-3.579000
 11
-3.560000
 20
-10.064000
 21
-10.160000
  0
LINE
 10
-3.560000
 11
-3.579000
 20
-10.160000
 21
-10.256000
  0
LINE
 10
-3.579000
 11
-3.633000
 20
-10.256000
 21
-10.337000
  0
LINE
 10
-3.633000
 11
-3.714000
 20
-10.337000
 21
-10.391000
  0
LINE
 10
-3.714000
 11
-3.810000
 20
-10.391000
 21
-10.410000
  0
LINE
 10
-3.810000
 11
-3.906000
 20
-10.410000
 21
-10.391000
  0
LINE
 10
-3.906000
 11
-3.987000
 20
-10.391000
 21
-10.337000
  0
LINE
 10
-3.987000
 11
-4.041000
 20
-10.337000
 21
-10.256000
  0
LINE
 10
-4.041000
 11
-4.060000
 20
-10.256000
 21
-10.160000
  0
LINE
 10
-4.060000
 11
-4.041000
 20
10.160000
 21
10.256000
  0
LINE
 10
-4.041000
 11
-3.987000
 20
10.256000
 21
10.337000
  0
LINE
 10
-3.987000
 11
-3.906000
 20
10.337000
 21
10.391000
  0
LINE
 10
-3.906000
 11
-3.810000
 20
10.391000
 21
10.410000
  0
LINE
 10
-3.810000
 11
-3.714000
 20
10.410000
 21
10.391000
  0
LINE
 10
-3.714000
 11
-3.633000
 20
10.391000
 21
10.337000
  0
LINE
 10
-3.633000
 11
-3.579000
 20
10.337000
 21
10.256000
  0
LINE
 10
-3.579000
 11
-3.560000
 20
10.256000
 21
10.160000
  0
LINE
 10
-3.560000
 11
-3.579000
 20
10.160000
 21
10.064000
  0
LINE
 10
-3.579000
 11
-3.633000
 20
10.064000
 21
9.983000
  0
LINE
 10
-3.633000
 11
-3.714000
 20
9.983000
 21
9.929000
  0
LINE
 10
-3.714000
 11
-3.810000
 20
9.929000
 21
9.910000
  0
LINE
 10
-3.810000
 11
-3.906000
 20
9.910000
 21
9.929000
  0
LINE
 10
-3.906000
 11
-3.987000
 20
9.929000
 21
9.983000
  0
LINE
 10
-3.987000
 11
-4.041000
 20
9.983000
 21
10.064000
  0
LINE
 10
-4.041000
 11
-4.060000
 20
10.064000
 21
10.160000
  0
LINE
 10
-4.060000
 11
-4.041000
 20
12.700000
 21
12.796000
  0
LINE
 10
-4.041000
 11
-3.987000
 20
12.796000
 21
12.877000
  0
LINE
 10
-3.987000
 11
-3.906000
 20
12.877000
 21
12.931000
  0
LINE
 10
-3.906000
 11
-3.810000
 20
12.931000
 21
12.950000
  0
LINE
 10
-3.810000
 11
-3.714000
 20
12.950000
 21
12.931000
  0
LINE
 10
-3.714000
 11
-3.633000
 20
12.931000
 21
12.877000
  0
LINE
 10
-3.633000
 11
-3.579000
 20
12.877000
 21
12.796000
  0
LINE
 10
-3.579000
 11
-3.560000
 20
12.796000
 21
12.700000
  0
LINE
 10
-3.560000
 11
-3.579000
 20
12.700000
 21
12.604000
  0
LINE
 10
-3.579000
 11
-3.633000
 20
12.604000
 21
12.523000
  0
LINE
 10
-3.633000
 11
-3.714000
 20
12.523000
 21
12.469000
  0
LINE
 10
-3.714000
 11
-3.810000
 20
12.469000
 21
12.450000
  0
LINE
 10
-3.810000
 11
-3.906000
 20
12.450000
 21
12.469000
  0
LINE
 10
-3.906000
 11
-3.987000
 20
12.469000
 21
12.523000
  0
LINE
 10
-3.987000
 11
-4.041000
 20
12.523000
 21
12.604000
  0
LINE
 10
-4.041000
 11
-4.060000
 20
12.604000
 21
12.700000
  0
LINE
 10
-2.690000
 11
-2.690000
 20
8.890000
 21
11.430000
  0
LINE
 10
-2.690000
 11
-2.679000
 20
11.430000
 21
11.487000
  0
LINE
 10
-2.679000
 11
-2.646000
 20
11.487000
 21
11.536000
  0
LINE
 10
-2.646000
 11
-2.006000
 20
11.536000
 21
12.176000
  0
LINE
 10
-2.006000
 11
-2.120000
 20
12.176000
 21
12.348000
  0
LINE
 10
-2.120000
 11
-2.190000
 20
12.348000
 21
12.700000
  0
LINE
 10
-2.190000
 11
-2.120000
 20
12.700000
 21
13.052000
  0
LINE
 10
-2.120000
 11
-1.921000
 20
13.052000
 21
13.351000
  0
LINE
 10
-1.921000
 11
-1.622000
 20
13.351000
 21
13.550000
  0
LINE
 10
-1.622000
 11
-1.270000
 20
13.550000
 21
13.620000
  0
LINE
 10
-1.270000
 11
-0.918000
 20
13.620000
 21
13.550000
  0
LINE
 10
-0.918000
 11
-0.619000
 20
13.550000
 21
13.351000
  0
LINE
 10
-0.619000
 11
-0.420000
 20
13.351000
 21
13.052000
  0
LINE
 10
-0.420000
 11
-0.350000
 20
13.052000
 21
12.700000
  0
LINE
 10
-0.350000
 11
-0.420000
 20
12.700000
 21
12.348000
  0
LINE
 10
-0.420000
 11
-0.619000
 20
12.348000
 21
12.049000
  0
LINE
 10
-0.619000
 11
-0.918000
 20
12.049000
 21
11.850000
  0
LINE
 10
-0.918000
 11
-1.270000
 20
11.850000
 21
11.780000
  0
LINE
 10
-1.270000
 11
-1.622000
 20
11.780000
 21
11.850000
  0
LINE
 10
-1.622000
 11
-1.794000
 20
11.850000
 21
11.964000
  0
LINE
 10
-1.794000
 11
-2.390000
 20
11.964000
 21
11.368000
  0
LINE
 10
-2.390000
 11
-2.390000
 20
11.368000
 21
8.942000
  0
LINE
 10
-2.390000
 11
-1.484000
 20
8.942000
 21
7.792000
  0
LINE
 10
-1.484000
 11
-1.461000
 20
7.792000
 21
7.757000
  0
LINE
 10
-1.461000
 11
-1.450000
 20
7.757000
 21
7.700000
  0
LINE
 10
-1.450000
 11
-1.450000
 20
7.700000
 21
5.000000
  0
LINE
 10
-1.450000
 11
-1.750000
 20
5.000000
 21
5.000000
  0
LINE
 10
-1.750000
 11
-1.750000
 20
5.000000
 21
7.648000
  0
LINE
 10
-1.750000
 11
-2.658000
 20
7.648000
 21
8.797000
  0
LINE
 10
-2.658000
 11
-2.656000
 20
8.797000
 21
8.799000
  0
LINE
 10
-2.656000
 11
-2.679000
 20
8.799000
 21
8.833000
  0
LINE
 10
-2.679000
 11
-2.690000
 20
8.833000
 21
8.890000
  0
LINE
 10
-2.190000
 11
-2.120000
 20
-12.700000
 21
-12.348000
  0
LINE
 10
-2.120000
 11
-1.921000
 20
-12.348000
 21
-12.049000
  0
LINE
 10
-1.921000
 11
-1.622000
 20
-12.049000
 21
-11.850000
  0
LINE
 10
-1.622000
 11
-1.270000
 20
-11.850000
 21
-11.780000
  0
LINE
 10
-1.270000
 11
-0.918000
 20
-11.780000
 21
-11.850000
  0
LINE
 10
-0.918000
 11
-0.746000
 20
-11.850000
 21
-11.964000
  0
LINE
 10
-0.746000
 11
-0.150000
 20
-11.964000
 21
-11.368000
  0
LINE
 10
-0.150000
 11
-0.150000
 20
-11.368000
 21
-5.000000
  0
LINE
 10
-0.150000
 11
0.150000
 20
-5.000000
 21
-5.000000
  0
LINE
 10
0.150000
 11
0.150000
 20
-5.000000
 21
-11.430000
  0
LINE
 10
0.150000
 11
0.139000
 20
-11.430000
 21
-11.487000
  0
LINE
 10
0.139000
 11
0.106000
 20
-11.487000
 21
-11.536000
  0
LINE
 10
0.106000
 11
-0.534000
 20
-11.536000
 21
-12.176000
  0
LINE
 10
-0.534000
 11
-0.420000
 20
-12.176000
 21
-12.348000
  0
LINE
 10
-0.420000
 11
-0.350000
 20
-12.348000
 21
-12.700000
  0
LINE
 10
-0.350000
 11
-0.420000
 20
-12.700000
 21
-13.052000
  0
LINE
 10
-0.420000
 11
-0.619000
 20
-13.052000
 21
-13.351000
  0
LINE
 10
-0.619000
 11
-0.918000
 20
-13.351000
 21
-13.550000
  0
LINE
 10
-0.918000
 11
-1.270000
 20
-13.550000
 21
-13.620000
  0
LINE
 10
-1.270000
 11
-1.622000
 20
-13.620000
 21
-13.550000
  0
LINE
 10
-1.622000
 11
-1.921000
 20
-13.550000
 21
-13.351000
  0
LINE
 10
-1.921000
 11
-2.120000
 20
-13.351000
 21
-13.052000
  0
LINE
 10
-2.120000
 11
-2.190000
 20
-13.052000
 21
-12.700000
  0
LINE
 10
-2.190000
 11
-2.120000
 20
-10.160000
 21
-9.808000
  0
LINE
 10
-2.120000
 11
-1.921000
 20
-9.808000
 21
-9.509000
  0
LINE
 10
-1.921000
 11
-1.622000
 20
-9.509000
 21
-9.310000
  0
LINE
 10
-1.622000
 11
-1.420000
 20
-9.310000
 21
-9.270000
  0
LINE
 10
-1.420000
 11
-1.420000
 20
-9.270000
 21
-8.890000
  0
LINE
 10
-1.420000
 11
-1.409000
 20
-8.890000
 21
-8.833000
  0
LINE
 10
-1.409000
 11
-1.392000
 20
-8.833000
 21
-8.807000
  0
LINE
 10
-1.392000
 11
-1.394000
 20
-8.807000
 21
-8.806000
  0
LINE
 10
-1.394000
 11
-0.950000
 20
-8.806000
 21
-8.153000
  0
LINE
 10
-0.950000
 11
-0.950000
 20
-8.153000
 21
-5.000000
  0
LINE
 10
-0.950000
 11
-0.650000
 20
-5.000000
 21
-5.000000
  0
LINE
 10
-0.650000
 11
-0.650000
 20
-5.000000
 21
-8.200000
  0
LINE
 10
-0.650000
 11
-0.661000
 20
-8.200000
 21
-8.257000
  0
LINE
 10
-0.661000
 11
-0.678000
 20
-8.257000
 21
-8.283000
  0
LINE
 10
-0.678000
 11
-0.676000
 20
-8.283000
 21
-8.284000
  0
LINE
 10
-0.676000
 11
-1.120000
 20
-8.284000
 21
-8.936000
  0
LINE
 10
-1.120000
 11
-1.120000
 20
-8.936000
 21
-9.270000
  0
LINE
 10
-1.120000
 11
-0.918000
 20
-9.270000
 21
-9.310000
  0
LINE
 10
-0.918000
 11
-0.619000
 20
-9.310000
 21
-9.509000
  0
LINE
 10
-0.619000
 11
-0.420000
 20
-9.509000
 21
-9.808000
  0
LINE
 10
-0.420000
 11
-0.350000
 20
-9.808000
 21
-10.160000
  0
LINE
 10
-0.350000
 11
-0.420000
 20
-10.160000
 21
-10.512000
  0
LINE
 10
-0.420000
 11
-0.619000
 20
-10.512000
 21
-10.811000
  0
LINE
 10
-0.619000
 11
-0.918000
 20
-10.811000
 21
-11.010000
  0
LINE
 10
-0.918000
 11
-1.270000
 20
-11.010000
 21
-11.080000
  0
LINE
 10
-1.270000
 11
-1.622000
 20
-11.080000
 21
-11.010000
  0
LINE
 10
-1.622000
 11
-1.921000
 20
-11.010000
 21
-10.811000
  0
LINE
 10
-1.921000
 11
-2.120000
 20
-10.811000
 21
-10.512000
  0
LINE
 10
-2.120000
 11
-2.190000
 20
-10.512000
 21
-10.160000
  0
LINE
 10
-2.190000
 11
-2.120000
 20
10.160000
 21
10.512000
  0
LINE
 10
-2.120000
 11
-1.921000
 20
10.512000
 21
10.811000
  0
LINE
 10
-1.921000
 11
-1.622000
 20
10.811000
 21
11.010000
  0
LINE
 10
-1.622000
 11
-1.270000
 20
11.010000
 21
11.080000
  0
LINE
 10
-1.270000
 11
-0.918000
 20
11.080000
 21
11.010000
  0
LINE
 10
-0.918000
 11
-0.619000
 20
11.010000
 21
10.811000
  0
LINE
 10
-0.619000
 11
-0.420000
 20
10.811000
 21
10.512000
  0
LINE
 10
-0.420000
 11
-0.350000
 20
10.512000
 21
10.160000
  0
LINE
 10
-0.350000
 11
-0.420000
 20
10.160000
 21
9.808000
  0
LINE
 10
-0.420000
 11
-0.619000
 20
9.808000
 21
9.509000
  0
LINE
 10
-0.619000
 11
-0.918000
 20
9.509000
 21
9.310000
  0
LINE
 10
-0.918000
 11
-1.120000
 20
9.310000
 21
9.270000
  0
LINE
 10
-1.120000
 11
-1.120000
 20
9.270000
 21
8.936000
  0
LINE
 10
-1.120000
 11
-0.676000
 20
8.936000
 21
8.284000
  0
LINE
 10
-0.676000
 11
-0.678000
 20
8.284000
 21
8.283000
  0
LINE
 10
-0.678000
 11
-0.661000
 20
8.283000
 21
8.257000
  0
LINE
 10
-0.661000
 11
-0.650000
 20
8.257000
 21
8.200000
  0
LINE
 10
-0.650000
 11
-0.650000
 20
8.200000
 21
5.000000
  0
LINE
 10
-0.650000
 11
-0.950000
 20
5.000000
 21
5.000000
  0
LINE
 10
-0.950000
 11
-0.950000
 20
5.000000
 21
8.153000
  0
LINE
 10
-0.950000
 11
-1.394000
 20
8.153000
 21
8.806000
  0
LINE
 10
-1.394000
 11
-1.392000
 20
8.806000
 21
8.807000
  0
LINE
 10
-1.392000
 11
-1.409000
 20
8.807000
 21
8.833000
  0
LINE
 10
-1.409000
 11
-1.420000
 20
8.833000
 21
8.890000
  0
LINE
 10
-1.420000
 11
-1.420000
 20
8.890000
 21
9.270000
  0
LINE
 10
-1.420000
 11
-1.622000
 20
9.270000
 21
9.310000
  0
LINE
 10
-1.622000
 11
-1.921000
 20
9.310000
 21
9.509000
  0
LINE
 10
-1.921000
 11
-2.120000
 20
9.509000
 21
9.808000
  0
LINE
 10
-2.120000
 11
-2.190000
 20
9.808000
 21
10.160000
  0
LINE
 10
-1.520000
 11
-1.501000
 20
-12.700000
 21
-12.604000
  0
LINE
 10
-1.501000
 11
-1.447000
 20
-12.604000
 21
-12.523000
  0
LINE
 10
-1.447000
 11
-1.366000
 20
-12.523000
 21
-12.469000
  0
LINE
 10
-1.366000
 11
-1.270000
 20
-12.469000
 21
-12.450000
  0
LINE
 10
-1.270000
 11
-1.174000
 20
-12.450000
 21
-12.469000
  0
LINE
 10
-1.174000
 11
-1.093000
 20
-12.469000
 21
-12.523000
  0
LINE
 10
-1.093000
 11
-1.039000
 20
-12.523000
 21
-12.604000
  0
LINE
 10
-1.039000
 11
-1.020000
 20
-12.604000
 21
-12.700000
  0
LINE
 10
-1.020000
 11
-1.039000
 20
-12.700000
 21
-12.796000
  0
LINE
 10
-1.039000
 11
-1.093000
 20
-12.796000
 21
-12.877000
  0
LINE
 10
-1.093000
 11
-1.174000
 20
-12.877000
 21
-12.931000
  0
LINE
 10
-1.174000
 11
-1.270000
 20
-12.931000
 21
-12.950000
  0
LINE
 10
-1.270000
 11
-1.366000
 20
-12.950000
 21
-12.931000
  0
LINE
 10
-1.366000
 11
-1.447000
 20
-12.931000
 21
-12.877000
  0
LINE
 10
-1.447000
 11
-1.501000
 20
-12.877000
 21
-12.796000
  0
LINE
 10
-1.501000
 11
-1.520000
 20
-12.796000
 21
-12.700000
  0
LINE
 10
-1.520000
 11
-1.501000
 20
-10.160000
 21
-10.064000
  0
LINE
 10
-1.501000
 11
-1.447000
 20
-10.064000
 21
-9.983000
  0
LINE
 10
-1.447000
 11
-1.366000
 20
-9.983000
 21
-9.929000
  0
LINE
 10
-1.366000
 11
-1.270000
 20
-9.929000
 21
-9.910000
  0
LINE
 10
-1.270000
 11
-1.174000
 20
-9.910000
 21
-9.929000
  0
LINE
 10
-1.174000
 11
-1.093000
 20
-9.929000
 21
-9.983000
  0
LINE
 10
-1.093000
 11
-1.039000
 20
-9.983000
 21
-10.064000
  0
LINE
 10
-1.039000
 11
-1.020000
 20
-10.064000
 21
-10.160000
  0
LINE
 10
-1.020000
 11
-1.039000
 20
-10.160000
 21
-10.256000
  0
LINE
 10
-1.039000
 11
-1.093000
 20
-10.256000
 21
-10.337000
  0
LINE
 10
-1.093000
 11
-1.174000
 20
-10.337000
 21
-10.391000
  0
LINE
 10
-1.174000
 11
-1.270000
 20
-10.391000
 21
-10.410000
  0
LINE
 10
-1.270000
 11
-1.366000
 20
-10.410000
 21
-10.391000
  0
LINE
 10
-1.366000
 11
-1.447000
 20
-10.391000
 21
-10.337000
  0
LINE
 10
-1.447000
 11
-1.501000
 20
-10.337000
 21
-10.256000
  0
LINE
 10
-1.501000
 11
-1.520000
 20
-10.256000
 21
-10.160000
  0
LINE
 10
-1.520000
 11
-1.501000
 20
10.160000
 21
10.256000
  0
LINE
 10
-1.501000
 11
-1.447000
 20
10.256000
 21
10.337000
  0
LINE
 10
-1.447000
 11
-1.366000
 20
10.337000
 21
10.391000
  0
LINE
 10
-1.366000
 11
-1.270000
 20
10.391000
 21
10.410000
  0
LINE
 10
-1.270000
 11
-1.174000
 20
10.410000
 21
10.391000
  0
LINE
 10
-1.174000
 11
-1.093000
 20
10.391000
 21
10.337000
  0
LINE
 10
-1.093000
 11
-1.039000
 20
10.337000
 21
10.256000
  0
LINE
 10
-1.039000
 11
-1.020000
 20
10.256000
 21
10.160000
  0
LINE
 10
-1.020000
 11
-1.039000
 20
10.160000
 21
10.064000
  0
LINE
 10
-1.039000
 11
-1.093000
 20
10.064000
 21
9.983000
  0
LINE
 10
-1.093000
 11
-1.174000
 20
9.983000
 21
9.929000
  0
LINE
 10
-1.174000
 11
-1.270000
 20
9.929000
 21
9.910000
  0
LINE
 10
-1.270000
 11
-1.366000
 20
9.910000
 21
9.929000
  0
LINE
 10
-1.366000
 11
-1.447000
 20
9.929000
 21
9.983000
  0
LINE
 10
-1.447000
 11
-1.501000
 20
9.983000
 21
10.064000
  0
LINE
 10
-1.501000
 11
-1.520000
 20
10.064000
 21
10.160000
  0
LINE
 10
-1.520000
 11
-1.501000
 20
12.700000
 21
12.796000
  0
LINE
 10
-1.501000
 11
-1.447000
 20
12.796000
 21
12.877000
  0
LINE
 10
-1.447000
 11
-1.366000
 20
12.877000
 21
12.931000
  0
LINE
 10
-1.366000
 11
-1.270000
 20
12.931000
 21
12.950000
  0
LINE
 10
-1.270000
 11
-1.174000
 20
12.950000
 21
12.931000
  0
LINE
 10
-1.174000
 11
-1.093000
 20
12.931000
 21
12.877000
  0
LINE
 10
-1.093000
 11
-1.039000
 20
12.877000
 21
12.796000
  0
LINE
 10
-1.039000
 11
-1.020000
 20
12.796000
 21
12.700000
  0
LINE
 10
-1.020000
 11
-1.039000
 20
12.700000
 21
12.604000
  0
LINE
 10
-1.039000
 11
-1.093000
 20
12.604000
 21
12.523000
  0
LINE
 10
-1.093000
 11
-1.174000
 20
12.523000
 21
12.469000
  0
LINE
 10
-1.174000
 11
-1.270000
 20
12.469000
 21
12.450000
  0
LINE
 10
-1.270000
 11
-1.366000
 20
12.450000
 21
12.469000
  0
LINE
 10
-1.366000
 11
-1.447000
 20
12.469000
 21
12.523000
  0
LINE
 10
-1.447000
 11
-1.501000
 20
12.523000
 21
12.604000
  0
LINE
 10
-1.501000
 11
-1.520000
 20
12.604000
 21
12.700000
  0
LINE
 10
-0.150000
 11
-0.150000
 20
5.000000
 21
11.430000
  0
LINE
 10
-0.150000
 11
-0.139000
 20
11.430000
 21
11.487000
  0
LINE
 10
-0.139000
 11
-0.106000
 20
11.487000
 21
11.536000
  0
LINE
 10
-0.106000
 11
0.534000
 20
11.536000
 21
12.176000
  0
LINE
 10
0.534000
 11
0.420000
 20
12.176000
 21
12.348000
  0
LINE
 10
0.420000
 11
0.350000
 20
12.348000
 21
12.700000
  0
LINE
 10
0.350000
 11
0.420000
 20
12.700000
 21
13.052000
  0
LINE
 10
0.420000
 11
0.619000
 20
13.052000
 21
13.351000
  0
LINE
 10
0.619000
 11
0.918000
 20
13.351000
 21
13.550000
  0
LINE
 10
0.918000
 11
1.270000
 20
13.550000
 21
13.620000
  0
LINE
 10
1.270000
 11
1.622000
 20
13.620000
 21
13.550000
  0
LINE
 10
1.622000
 11
1.921000
 20
13.550000
 21
13.351000
  0
LINE
 10
1.921000
 11
2.120000
 20
13.351000
 21
13.052000
  0
LINE
 10
2.120000
 11
2.190000
 20
13.052000
 21
12.700000
  0
LINE
 10
2.190000
 11
2.120000
 20
12.700000
 21
12.348000
  0
LINE
 10
2.120000
 11
1.921000
 20
12.348000
 21
12.049000
  0
LINE
 10
1.921000
 11
1.622000
 20
12.049000
 21
11.850000
  0
LINE
 10
1.622000
 11
1.270000
 20
11.850000
 21
11.780000
  0
LINE
 10
1.270000
 11
0.918000
 20
11.780000
 21
11.850000
  0
LINE
 10
0.918000
 11
0.746000
 20
11.850000
 21
11.964000
  0
LINE
 10
0.746000
 11
0.150000
 20
11.964000
 21
11.368000
  0
LINE
 10
0.150000
 11
0.150000
 20
11.368000
 21
5.000000
  0
LINE
 10
0.150000
 11
-0.150000
 20
5.000000
 21
5.000000
  0
LINE
 10
0.350000
 11
0.420000
 20
-12.700000
 21
-12.348000
  0
LINE
 10
0.420000
 11
0.619000
 20
-12.348000
 21
-12.049000
  0
LINE
 10
0.619000
 11
0.918000
 20
-12.049000
 21
-11.850000
  0
LINE
 10
0.918000
 11
1.270000
 20
-11.850000
 21
-11.780000
  0
LINE
 10
1.270000
 11
1.622000
 20
-11.780000
 21
-11.850000
  0
LINE
 10
1.622000
 11
1.794000
 20
-11.850000
 21
-11.964000
  0
LINE
 10
1.794000
 11
2.390000
 20
-11.964000
 21
-11.368000
  0
LINE
 10
2.390000
 11
2.390000
 20
-11.368000
 21
-8.942000
  0
LINE
 10
2.390000
 11
1.484000
 20
-8.942000
 21
-7.792000
  0
LINE
 10
1.484000
 11
1.461000
 20
-7.792000
 21
-7.757000
  0
LINE
 10
1.461000
 11
1.450000
 20
-7.757000
 21
-7.700000
  0
LINE
 10
1.450000
 11
1.450000
 20
-7.700000
 21
-5.000000
  0
LINE
 10
1.450000
 11
1.750000
 20
-5.000000
 21
-5.000000
  0
LINE
 10
1.750000
 11
1.750000
 20
-5.000000
 21
-7.648000
  0
LINE
 10
1.750000
 11
2.658000
 20
-7.648000
 21
-8.797000
  0
LINE
 10
2.658000
 11
2.656000
 20
-8.797000
 21
-8.799000
  0
LINE
 10
2.656000
 11
2.679000
 20
-8.799000
 21
-8.833000
  0
LINE
 10
2.679000
 11
2.690000
 20
-8.833000
 21
-8.890000
  0
LINE
 10
2.690000
 11
2.690000
 20
-8.890000
 21
-11.430000
  0
LINE
 10
2.690000
 11
2.679000
 20
-11.430000
 21
-11.487000
  0
LINE
 10
2.679000
 11
2.646000
 20
-11.487000
 21
-11.536000
  0
LINE
 10
2.646000
 11
2.006000
 20
-11.536000
 21
-12.176000
  0
LINE
 10
2.006000
 11
2.120000
 20
-12.176000
 21
-12.348000
  0
LINE
 10
2.120000
 11
2.190000
 20
-12.348000
 21
-12.700000
  0
LINE
 10
2.190000
 11
2.120000
 20
-12.700000
 21
-13.052000
  0
LINE
 10
2.120000
 11
1.921000
 20
-13.052000
 21
-13.351000
  0
LINE
 10
1.921000
 11
1.622000
 20
-13.351000
 21
-13.550000
  0
LINE
 10
1.622000
 11
1.270000
 20
-13.550000
 21
-13.620000
  0
LINE
 10
1.270000
 11
0.918000
 20
-13.620000
 21
-13.550000
  0
LINE
 10
0.918000
 11
0.619000
 20
-13.550000
 21
-13.351000
  0
LINE
 10
0.619000
 11
0.420000
 20
-13.351000
 21
-13.052000
  0
LINE
 10
0.420000
 11
0.350000
 20
-13.052000
 21
-12.700000
  0
LINE
 10
0.350000
 11
0.420000
 20
-10.160000
 21
-9.808000
  0
LINE
 10
0.420000
 11
0.619000
 20
-9.808000
 21
-9.509000
  0
LINE
 10
0.619000
 11
0.918000
 20
-9.509000
 21
-9.310000
  0
LINE
 10
0.918000
 11
1.120000
 20
-9.310000
 21
-9.270000
  0
LINE
 10
1.120000
 11
1.120000
 20
-9.270000
 21
-8.936000
  0
LINE
 10
1.120000
 11
0.676000
 20
-8.936000
 21
-8.284000
  0
LINE
 10
0.676000
 11
0.678000
 20
-8.284000
 21
-8.283000
  0
LINE
 10
0.678000
 11
0.661000
 20
-8.283000
 21
-8.257000
  0
LINE
 10
0.661000
 11
0.650000
 20
-8.257000
 21
-8.200000
  0
LINE
 10
0.650000
 11
0.650000
 20
-8.200000
 21
-5.000000
  0
LINE
 10
0.650000
 11
0.950000
 20
-5.000000
 21
-5.000000
  0
LINE
 10
0.950000
 11
0.950000
 20
-5.000000
 21
-8.153000
  0
LINE
 10
0.950000
 11
1.394000
 20
-8.153000
 21
-8.806000
  0
LINE
 10
1.394000
 11
1.392000
 20
-8.806000
 21
-8.807000
  0
LINE
 10
1.392000
 11
1.409000
 20
-8.807000
 21
-8.833000
  0
LINE
 10
1.409000
 11
1.420000
 20
-8.833000
 21
-8.890000
  0
LINE
 10
1.420000
 11
1.420000
 20
-8.890000
 21
-9.270000
  0
LINE
 10
1.420000
 11
1.622000
 20
-9.270000
 21
-9.310000
  0
LINE
 10
1.622000
 11
1.921000
 20
-9.310000
 21
-9.509000
  0
LINE
 10
1.921000
 11
2.120000
 20
-9.509000
 21
-9.808000
  0
LINE
 10
2.120000
 11
2.190000
 20
-9.808000
 21
-10.160000
  0
LINE
 10
2.190000
 11
2.120000
 20
-10.160000
 21
-10.512000
  0
LINE
 10
2.120000
 11
1.921000
 20
-10.512000
 21
-10.811000
  0
LINE
 10
1.921000
 11
1.622000
 20
-10.811000
 21
-11.010000
  0
LINE
 10
1.622000
 11
1.270000
 20
-11.010000
 21
-11.080000
  0
LINE
 10
1.270000
 11
0.918000
 20
-11.080000
 21
-11.010000
  0
LINE
 10
0.918000
 11
0.619000
 20
-11.010000
 21
-10.811000
  0
LINE
 10
0.619000
 11
0.420000
 20
-10.811000
 21
-10.512000
  0
LINE
 10
0.420000
 11
0.350000
 20
-10.512000
 21
-10.160000
  0
LINE
 10
0.350000
 11
0.420000
 20
10.160000
 21
10.512000
  0
LINE
 10
0.420000
 11
0.619000
 20
10.512000
 21
10.811000
  0
LINE
 10
0.619000
 11
0.918000
 20
10.811000
 21
11.010000
  0
LINE
 10
0.918000
 11
1.270000
 20
11.010000
 21
11.080000
  0
LINE
 10
1.270000
 11
1.622000
 20
11.080000
 21
11.010000
  0
LINE
 10
1.622000
 11
1.921000
 20
11.010000
 21
10.811000
  0
LINE
 10
1.921000
 11
2.120000
 20
10.811000
 21
10.512000
  0
LINE
 10
2.120000
 11
2.190000
 20
10.512000
 21
10.160000
  0
LINE
 10
2.190000
 11
2.120000
 20
10.160000
 21
9.808000
  0
LINE
 10
2.120000
 11
1.921000
 20
9.808000
 21
9.509000
  0
LINE
 10
1.921000
 11
1.622000
 20
9.509000
 21
9.310000
  0
LINE
 10
1.622000
 11
1.420000
 20
9.310000
 21
9.270000
  0
LINE
 10
1.420000
 11
1.420000
 20
9.270000
 21
8.890000
  0
LINE
 10
1.420000
 11
1.409000
 20
8.890000
 21
8.833000
  0
LINE
 10
1.409000
 11
1.392000
 20
8.833000
 21
8.807000
  0
LINE
 10
1.392000
 11
1.394000
 20
8.807000
 21
8.806000
  0
LINE
 10
1.394000
 11
0.950000
 20
8.806000
 21
8.153000
  0
LINE
 10
0.950000
 11
0.950000
 20
8.153000
 21
5.000000
  0
LINE
 10
0.950000
 11
0.650000
 20
5.000000
 21
5.000000
  0
LINE
 10
0.650000
 11
0.650000
 20
5.000000
 21
8.200000
  0
LINE
 10
0.650000
 11
0.661000
 20
8.200000
 21
8.257000
  0
LINE
 10
0.661000
 11
0.678000
 20
8.257000
 21
8.283000
  0
LINE
 10
0.678000
 11
0.676000
 20
8.283000
 21
8.284000
  0
LINE
 10
0.676000
 11
1.120000
 20
8.284000
 21
8.936000
  0
LINE
 10
1.120000
 11
1.120000
 20
8.936000
 21
9.270000
  0
LINE
 10
1.120000
 11
0.918000
 20
9.270000
 21
9.310000
  0
LINE
 10
0.918000
 11
0.619000
 20
9.310000
 21
9.509000
  0
LINE
 10
0.619000
 11
0.420000
 20
9.509000
 21
9.808000
  0
LINE
 10
0.420000
 11
0.350000
 20
9.808000
 21
10.160000
  0
LINE
 10
1.020000
 11
1.039000
 20
-12.700000
 21
-12.604000
  0
LINE
 10
1.039000
 11
1.093000
 20
-12.604000
 21
-12.523000
  0
LINE
 10
1.093000
 11
1.174000
 20
-12.523000
 21
-12.469000
  0
LINE
 10
1.174000
 11
1.270000
 20
-12.469000
 21
-12.450000
  0
LINE
 10
1.270000
 11
1.366000
 20
-12.450000
 21
-12.469000
  0
LINE
 10
1.366000
 11
1.447000
 20
-12.469000
 21
-12.523000
  0
LINE
 10
1.447000
 11
1.501000
 20
-12.523000
 21
-12.604000
  0
LINE
 10
1.501000
 11
1.520000
 20
-12.604000
 21
-12.700000
  0
LINE
 10
1.520000
 11
1.501000
 20
-12.700000
 21
-12.796000
  0
LINE
 10
1.501000
 11
1.447000
 20
-12.796000
 21
-12.877000
  0
LINE
 10
1.447000
 11
1.366000
 20
-12.877000
 21
-12.931000
  0
LINE
 10
1.366000
 11
1.270000
 20
-12.931000
 21
-12.950000
  0
LINE
 10
1.270000
 11
1.174000
 20
-12.950000
 21
-12.931000
  0
LINE
 10
1.174000
 11
1.093000
 20
-12.931000
 21
-12.877000
  0
LINE
 10
1.093000
 11
1.039000
 20
-12.877000
 21
-12.796000
  0
LINE
 10
1.039000
 11
1.020000
 20
-12.796000
 21
-12.700000
  0
LINE
 10
1.020000
 11
1.039000
 20
-10.160000
 21
-10.064000
  0
LINE
 10
1.039000
 11
1.093000
 20
-10.064000
 21
-9.983000
  0
LINE
 10
1.093000
 11
1.174000
 20
-9.983000
 21
-9.929000
  0
LINE
 10
1.174000
 11
1.270000
 20
-9.929000
 21
-9.910000
  0
LINE
 10
1.270000
 11
1.366000
 20
-9.910000
 21
-9.929000
  0
LINE
 10
1.366000
 11
1.447000
 20
-9.929000
 21
-9.983000
  0
LINE
 10
1.447000
 11
1.501000
 20
-9.983000
 21
-10.064000
  0
LINE
 10
1.501000
 11
1.520000
 20
-10.064000
 21
-10.160000
  0
LINE
 10
1.520000
 11
1.501000
 20
-10.160000
 21
-10.256000
  0
LINE
 10
1.501000
 11
1.447000
 20
-10.256000
 21
-10.337000
  0
LINE
 10
1.447000
 11
1.366000
 20
-10.337000
 21
-10.391000
  0
LINE
 10
1.366000
 11
1.270000
 20
-10.391000
 21
-10.410000
  0
LINE
 10
1.270000
 11
1.174000
 20
-10.410000
 21
-10.391000
  0
LINE
 10
1.174000
 11
1.093000
 20
-10.391000
 21
-10.337000
  0
LINE
 10
1.093000
 11
1.039000
 20
-10.337000
 21
-10.256000
  0
LINE
 10
1.039000
 11
1.020000
 20
-10.256000
 21
-10.160000
  0
LINE
 10
1.020000
 11
1.039000
 20
10.160000
 21
10.256000
  0
LINE
 10
1.039000
 11
1.093000
 20
10.256000
 21
10.337000
  0
LINE
 10
1.093000
 11
1.174000
 20
10.337000
 21
10.391000
  0
LINE
 10
1.174000
 11
1.270000
 20
10.391000
 21
10.410000
  0
LINE
 10
1.270000
 11
1.366000
 20
10.410000
 21
10.391000
  0
LINE
 10
1.366000
 11
1.447000
 20
10.391000
 21
10.337000
  0
LINE
 10
1.447000
 11
1.501000
 20
10.337000
 21
10.256000
  0
LINE
 10
1.501000
 11
1.520000
 20
10.256000
 21
10.160000
  0
LINE
 10
1.520000
 11
1.501000
 20
10.160000
 21
10.064000
  0
LINE
 10
1.501000
 11
1.447000
 20
10.064000
 21
9.983000
  0
LINE
 10
1.447000
 11
1.366000
 20
9.983000
 21
9.929000
  0
LINE
 10
1.366000
 11
1.270000
 20
9.929000
 21
9.910000
  0
LINE
 10
1.270000
 11
1.174000
 20
9.910000
 21
9.929000
  0
LINE
 10
1.174000
 11
1.093000
 20
9.929000
 21
9.983000
  0
LINE
 10
1.093000
 11
1.039000
 20
9.983000
 21
10.064000
  0
LINE
 10
1.039000
 11
1.020000
 20
10.064000
 21
10.160000
  0
LINE
 10
1.020000
 11
1.039000
 20
12.700000
 21
12.796000
  0
LINE
 10
1.039000
 11
1.093000
 20
12.796000
 21
12.877000
  0
LINE
 10
1.093000
 11
1.174000
 20
12.877000
 21
12.931000
  0
LINE
 10
1.174000
 11
1.270000
 20
12.931000
 21
12.950000
  0
LINE
 10
1.270000
 11
1.366000
 20
12.950000
 21
12.931000
  0
LINE
 10
1.366000
 11
1.447000
 20
12.931000
 21
12.877000
  0
LINE
 10
1.447000
 11
1.501000
 20
12.877000
 21
12.796000
  0
LINE
 10
1.501000
 11
1.520000
 20
12.796000
 21
12.700000
  0
LINE
 10
1.520000
 11
1.501000
 20
12.700000
 21
12.604000
  0
LINE
 10
1.501000
 11
1.447000
 20
12.604000
 21
12.523000
  0
LINE
 10
1.447000
 11
1.366000
 20
12.523000
 21
12.469000
  0
LINE
 10
1.366000
 11
1.270000
 20
12.469000
 21
12.450000
  0
LINE
 10
1.270000
 11
1.174000
 20
12.450000
 21
12.469000
  0
LINE
 10
1.174000
 11
1.093000
 20
12.469000
 21
12.523000
  0
LINE
 10
1.093000
 11
1.039000
 20
12.523000
 21
12.604000
  0
LINE
 10
1.039000
 11
1.020000
 20
12.604000
 21
12.700000
  0
LINE
 10
1.450000
 11
1.450000
 20
5.000000
 21
7.700000
  0
LINE
 10
1.450000
 11
1.461000
 20
7.700000
 21
7.757000
  0
LINE
 10
1.461000
 11
1.483000
 20
7.757000
 21
7.793000
  0
LINE
 10
1.483000
 11
2.390000
 20
7.793000
 21
8.942000
  0
LINE
 10
2.390000
 11
2.390000
 20
8.942000
 21
11.430000
  0
LINE
 10
2.390000
 11
2.401000
 20
11.430000
 21
11.487000
  0
LINE
 10
2.401000
 11
2.434000
 20
11.487000
 21
11.536000
  0
LINE
 10
2.434000
 11
3.074000
 20
11.536000
 21
12.176000
  0
LINE
 10
3.074000
 11
2.960000
 20
12.176000
 21
12.348000
  0
LINE
 10
2.960000
 11
2.890000
 20
12.348000
 21
12.700000
  0
LINE
 10
2.890000
 11
2.960000
 20
12.700000
 21
13.052000
  0
LINE
 10
2.960000
 11
3.159000
 20
13.052000
 21
13.351000
  0
LINE
 10
3.159000
 11
3.458000
 20
13.351000
 21
13.550000
  0
LINE
 10
3.458000
 11
3.810000
 20
13.550000
 21
13.620000
  0
LINE
 10
3.810000
 11
4.162000
 20
13.620000
 21
13.550000
  0
LINE
 10
4.162000
 11
4.461000
 20
13.550000
 21
13.351000
  0
LINE
 10
4.461000
 11
4.660000
 20
13.351000
 21
13.052000
  0
LINE
 10
4.660000
 11
4.730000
 20
13.052000
 21
12.700000
  0
LINE
 10
4.730000
 11
4.660000
 20
12.700000
 21
12.348000
  0
LINE
 10
4.660000
 11
4.461000
 20
12.348000
 21
12.049000
  0
LINE
 10
4.461000
 11
4.162000
 20
12.049000
 21
11.850000
  0
LINE
 10
4.162000
 11
3.810000
 20
11.850000
 21
11.780000
  0
LINE
 10
3.810000
 11
3.458000
 20
11.780000
 21
11.850000
  0
LINE
 10
3.458000
 11
3.286000
 20
11.850000
 21
11.964000
  0
LINE
 10
3.286000
 11
2.690000
 20
11.964000
 21
11.368000
  0
LINE
 10
2.690000
 11
2.690000
 20
11.368000
 21
8.890000
  0
LINE
 10
2.690000
 11
2.679000
 20
8.890000
 21
8.833000
  0
LINE
 10
2.679000
 11
2.656000
 20
8.833000
 21
8.799000
  0
LINE
 10
2.656000
 11
2.658000
 20
8.799000
 21
8.797000
  0
LINE
 10
2.658000
 11
1.750000
 20
8.797000
 21
7.648000
  0
LINE
 10
1.750000
 11
1.750000
 20
7.648000
 21
5.000000
  0
LINE
 10
1.750000
 11
1.450000
 20
5.000000
 21
5.000000
  0
LINE
 10
2.250000
 11
2.250000
 20
-7.200000
 21
-5.000000
  0
LINE
 10
2.250000
 11
2.550000
 20
-5.000000
 21
-5.000000
  0
LINE
 10
2.550000
 11
2.550000
 20
-5.000000
 21
-7.146000
  0
LINE
 10
2.550000
 11
3.924000
 20
-7.146000
 21
-8.795000
  0
LINE
 10
3.924000
 11
3.949000
 20
-8.795000
 21
-8.833000
  0
LINE
 10
3.949000
 11
3.960000
 20
-8.833000
 21
-8.890000
  0
LINE
 10
3.960000
 11
3.960000
 20
-8.890000
 21
-9.270000
  0
LINE
 10
3.960000
 11
4.162000
 20
-9.270000
 21
-9.310000
  0
LINE
 10
4.162000
 11
4.461000
 20
-9.310000
 21
-9.509000
  0
LINE
 10
4.461000
 11
4.660000
 20
-9.509000
 21
-9.808000
  0
LINE
 10
4.660000
 11
4.730000
 20
-9.808000
 21
-10.160000
  0
LINE
 10
4.730000
 11
4.660000
 20
-10.160000
 21
-10.512000
  0
LINE
 10
4.660000
 11
4.461000
 20
-10.512000
 21
-10.811000
  0
LINE
 10
4.461000
 11
4.162000
 20
-10.811000
 21
-11.010000
  0
LINE
 10
4.162000
 11
3.810000
 20
-11.010000
 21
-11.080000
  0
LINE
 10
3.810000
 11
3.458000
 20
-11.080000
 21
-11.010000
  0
LINE
 10
3.458000
 11
3.159000
 20
-11.010000
 21
-10.811000
  0
LINE
 10
3.159000
 11
2.960000
 20
-10.811000
 21
-10.512000
  0
LINE
 10
2.960000
 11
2.890000
 20
-10.512000
 21
-10.160000
  0
LINE
 10
2.890000
 11
2.960000
 20
-10.160000
 21
-9.808000
  0
LINE
 10
2.960000
 11
3.159000
 20
-9.808000
 21
-9.509000
  0
LINE
 10
3.159000
 11
3.458000
 20
-9.509000
 21
-9.310000
  0
LINE
 10
3.458000
 11
3.660000
 20
-9.310000
 21
-9.270000
  0
LINE
 10
3.660000
 11
3.660000
 20
-9.270000
 21
-8.944000
  0
LINE
 10
3.660000
 11
2.286000
 20
-8.944000
 21
-7.295000
  0
LINE
 10
2.286000
 11
2.261000
 20
-7.295000
 21
-7.257000
  0
LINE
 10
2.261000
 11
2.250000
 20
-7.257000
 21
-7.200000
  0
LINE
 10
2.250000
 11
2.250000
 20
5.000000
 21
7.200000
  0
LINE
 10
2.250000
 11
2.261000
 20
7.200000
 21
7.257000
  0
LINE
 10
2.261000
 11
2.285000
 20
7.257000
 21
7.296000
  0
LINE
 10
2.285000
 11
3.660000
 20
7.296000
 21
8.944000
  0
LINE
 10
3.660000
 11
3.660000
 20
8.944000
 21
9.270000
  0
LINE
 10
3.660000
 11
3.458000
 20
9.270000
 21
9.310000
  0
LINE
 10
3.458000
 11
3.159000
 20
9.310000
 21
9.509000
  0
LINE
 10
3.159000
 11
2.960000
 20
9.509000
 21
9.808000
  0
LINE
 10
2.960000
 11
2.890000
 20
9.808000
 21
10.160000
  0
LINE
 10
2.890000
 11
2.960000
 20
10.160000
 21
10.512000
  0
LINE
 10
2.960000
 11
3.159000
 20
10.512000
 21
10.811000
  0
LINE
 10
3.159000
 11
3.458000
 20
10.811000
 21
11.010000
  0
LINE
 10
3.458000
 11
3.810000
 20
11.010000
 21
11.080000
  0
LINE
 10
3.810000
 11
4.162000
 20
11.080000
 21
11.010000
  0
LINE
 10
4.162000
 11
4.461000
 20
11.010000
 21
10.811000
  0
LINE
 10
4.461000
 11
4.660000
 20
10.811000
 21
10.512000
  0
LINE
 10
4.660000
 11
4.730000
 20
10.512000
 21
10.160000
  0
LINE
 10
4.730000
 11
4.660000
 20
10.160000
 21
9.808000
  0
LINE
 10
4.660000
 11
4.461000
 20
9.808000
 21
9.509000
  0
LINE
 10
4.461000
 11
4.162000
 20
9.509000
 21
9.310000
  0
LINE
 10
4.162000
 11
3.960000
 20
9.310000
 21
9.270000
  0
LINE
 10
3.960000
 11
3.960000
 20
9.270000
 21
8.890000
  0
LINE
 10
3.960000
 11
3.949000
 20
8.890000
 21
8.833000
  0
LINE
 10
3.949000
 11
3.925000
 20
8.833000
 21
8.794000
  0
LINE
 10
3.925000
 11
2.550000
 20
8.794000
 21
7.146000
  0
LINE
 10
2.550000
 11
2.550000
 20
7.146000
 21
5.000000
  0
LINE
 10
2.550000
 11
2.250000
 20
5.000000
 21
5.000000
  0
LINE
 10
2.890000
 11
2.960000
 20
-12.700000
 21
-12.348000
  0
LINE
 10
2.960000
 11
3.159000
 20
-12.348000
 21
-12.049000
  0
LINE
 10
3.159000
 11
3.458000
 20
-12.049000
 21
-11.850000
  0
LINE
 10
3.458000
 11
3.810000
 20
-11.850000
 21
-11.780000
  0
LINE
 10
3.810000
 11
4.162000
 20
-11.780000
 21
-11.850000
  0
LINE
 10
4.162000
 11
4.334000
 20
-11.850000
 21
-11.964000
  0
LINE
 10
4.334000
 11
4.930000
 20
-11.964000
 21
-11.368000
  0
LINE
 10
4.930000
 11
4.930000
 20
-11.368000
 21
-8.946000
  0
LINE
 10
4.930000
 11
3.086000
 20
-8.946000
 21
-6.798000
  0
LINE
 10
3.086000
 11
3.088000
 20
-6.798000
 21
-6.797000
  0
LINE
 10
3.088000
 11
3.061000
 20
-6.797000
 21
-6.757000
  0
LINE
 10
3.061000
 11
3.050000
 20
-6.757000
 21
-6.700000
  0
LINE
 10
3.050000
 11
3.050000
 20
-6.700000
 21
-5.000000
  0
LINE
 10
3.050000
 11
3.350000
 20
-5.000000
 21
-5.000000
  0
LINE
 10
3.350000
 11
3.350000
 20
-5.000000
 21
-6.644000
  0
LINE
 10
3.350000
 11
5.194000
 20
-6.644000
 21
-8.792000
  0
LINE
 10
5.194000
 11
5.192000
 20
-8.792000
 21
-8.793000
  0
LINE
 10
5.192000
 11
5.219000
 20
-8.793000
 21
-8.833000
  0
LINE
 10
5.219000
 11
5.230000
 20
-8.833000
 21
-8.890000
  0
LINE
 10
5.230000
 11
5.230000
 20
-8.890000
 21
-11.430000
  0
LINE
 10
5.230000
 11
5.219000
 20
-11.430000
 21
-11.487000
  0
LINE
 10
5.219000
 11
5.186000
 20
-11.487000
 21
-11.536000
  0
LINE
 10
5.186000
 11
4.546000
 20
-11.536000
 21
-12.176000
  0
LINE
 10
4.546000
 11
4.660000
 20
-12.176000
 21
-12.348000
  0
LINE
 10
4.660000
 11
4.730000
 20
-12.348000
 21
-12.700000
  0
LINE
 10
4.730000
 11
4.660000
 20
-12.700000
 21
-13.052000
  0
LINE
 10
4.660000
 11
4.461000
 20
-13.052000
 21
-13.351000
  0
LINE
 10
4.461000
 11
4.162000
 20
-13.351000
 21
-13.550000
  0
LINE
 10
4.162000
 11
3.810000
 20
-13.550000
 21
-13.620000
  0
LINE
 10
3.810000
 11
3.458000
 20
-13.620000
 21
-13.550000
  0
LINE
 10
3.458000
 11
3.159000
 20
-13.550000
 21
-13.351000
  0
LINE
 10
3.159000
 11
2.960000
 20
-13.351000
 21
-13.052000
  0
LINE
 10
2.960000
 11
2.890000
 20
-13.052000
 21
-12.700000
  0
LINE
 10
3.050000
 11
3.050000
 20
5.000000
 21
6.700000
  0
LINE
 10
3.050000
 11
3.061000
 20
6.700000
 21
6.757000
  0
LINE
 10
3.061000
 11
3.088000
 20
6.757000
 21
6.797000
  0
LINE
 10
3.088000
 11
3.086000
 20
6.797000
 21
6.798000
  0
LINE
 10
3.086000
 11
4.930000
 20
6.798000
 21
8.946000
  0
LINE
 10
4.930000
 11
4.930000
 20
8.946000
 21
11.430000
  0
LINE
 10
4.930000
 11
4.941000
 20
11.430000
 21
11.487000
  0
LINE
 10
4.941000
 11
4.974000
 20
11.487000
 21
11.536000
  0
LINE
 10
4.974000
 11
5.614000
 20
11.536000
 21
12.176000
  0
LINE
 10
5.614000
 11
5.500000
 20
12.176000
 21
12.348000
  0
LINE
 10
5.500000
 11
5.430000
 20
12.348000
 21
12.700000
  0
LINE
 10
5.430000
 11
5.500000
 20
12.700000
 21
13.052000
  0
LINE
 10
5.500000
 11
5.699000
 20
13.052000
 21
13.351000
  0
LINE
 10
5.699000
 11
5.998000
 20
13.351000
 21
13.550000
  0
LINE
 10
5.998000
 11
6.350000
 20
13.550000
 21
13.620000
  0
LINE
 10
6.350000
 11
6.702000
 20
13.620000
 21
13.550000
  0
LINE
 10
6.702000
 11
7.001000
 20
13.550000
 21
13.351000
  0
LINE
 10
7.001000
 11
7.200000
 20
13.351000
 21
13.052000
  0
LINE
 10
7.200000
 11
7.270000
 20
13.052000
 21
12.700000
  0
LINE
 10
7.270000
 11
7.200000
 20
12.700000
 21
12.348000
  0
LINE
 10
7.200000
 11
7.001000
 20
12.348000
 21
12.049000
  0
LINE
 10
7.001000
 11
6.702000
 20
12.049000
 21
11.850000
  0
LINE
 10
6.702000
 11
6.350000
 20
11.850000
 21
11.780000
  0
LINE
 10
6.350000
 11
5.998000
 20
11.780000
 21
11.850000
  0
LINE
 10
5.998000
 11
5.826000
 20
11.850000
 21
11.964000
  0
LINE
 10
5.826000
 11
5.230000
 20
11.964000
 21
11.368000
  0
LINE
 10
5.230000
 11
5.230000
 20
11.368000
 21
8.890000
  0
LINE
 10
5.230000
 11
5.219000
 20
8.890000
 21
8.833000
  0
LINE
 10
5.219000
 11
5.192000
 20
8.833000
 21
8.793000
  0
LINE
 10
5.192000
 11
5.194000
 20
8.793000
 21
8.792000
  0
LINE
 10
5.194000
 11
3.350000
 20
8.792000
 21
6.644000
  0
LINE
 10
3.350000
 11
3.350000
 20
6.644000
 21
5.000000
  0
LINE
 10
3.350000
 11
3.050000
 20
5.000000
 21
5.000000
  0
LINE
 10
3.560000
 11
3.579000
 20
-12.700000
 21
-12.604000
  0
LINE
 10
3.579000
 11
3.633000
 20
-12.604000
 21
-12.523000
  0
LINE
 10
3.633000
 11
3.714000
 20
-12.523000
 21
-12.469000
  0
LINE
 10
3.714000
 11
3.810000
 20
-12.469000
 21
-12.450000
  0
LINE
 10
3.810000
 11
3.906000
 20
-12.450000
 21
-12.469000
  0
LINE
 10
3.906000
 11
3.987000
 20
-12.469000
 21
-12.523000
  0
LINE
 10
3.987000
 11
4.041000
 20
-12.523000
 21
-12.604000
  0
LINE
 10
4.041000
 11
4.060000
 20
-12.604000
 21
-12.700000
  0
LINE
 10
4.060000
 11
4.041000
 20
-12.700000
 21
-12.796000
  0
LINE
 10
4.041000
 11
3.987000
 20
-12.796000
 21
-12.877000
  0
LINE
 10
3.987000
 11
3.906000
 20
-12.877000
 21
-12.931000
  0
LINE
 10
3.906000
 11
3.810000
 20
-12.931000
 21
-12.950000
  0
LINE
 10
3.810000
 11
3.714000
 20
-12.950000
 21
-12.931000
  0
LINE
 10
3.714000
 11
3.633000
 20
-12.931000
 21
-12.877000
  0
LINE
 10
3.633000
 11
3.579000
 20
-12.877000
 21
-12.796000
  0
LINE
 10
3.579000
 11
3.560000
 20
-12.796000
 21
-12.700000
  0
LINE
 10
3.560000
 11
3.579000
 20
-10.160000
 21
-10.064000
  0
LINE
 10
3.579000
 11
3.633000
 20
-10.064000
 21
-9.983000
  0
LINE
 10
3.633000
 11
3.714000
 20
-9.983000
 21
-9.929000
  0
LINE
 10
3.714000
 11
3.810000
 20
-9.929000
 21
-9.910000
  0
LINE
 10
3.810000
 11
3.906000
 20
-9.910000
 21
-9.929000
  0
LINE
 10
3.906000
 11
3.987000
 20
-9.929000
 21
-9.983000
  0
LINE
 10
3.987000
 11
4.041000
 20
-9.983000
 21
-10.064000
  0
LINE
 10
4.041000
 11
4.060000
 20
-10.064000
 21
-10.160000
  0
LINE
 10
4.060000
 11
4.041000
 20
-10.160000
 21
-10.256000
  0
LINE
 10
4.041000
 11
3.987000
 20
-10.256000
 21
-10.337000
  0
LINE
 10
3.987000
 11
3.906000
 20
-10.337000
 21
-10.391000
  0
LINE
 10
3.906000
 11
3.810000
 20
-10.391000
 21
-10.410000
  0
LINE
 10
3.810000
 11
3.714000
 20
-10.410000
 21
-10.391000
  0
LINE
 10
3.714000
 11
3.633000
 20
-10.391000
 21
-10.337000
  0
LINE
 10
3.633000
 11
3.579000
 20
-10.337000
 21
-10.256000
  0
LINE
 10
3.579000
 11
3.560000
 20
-10.256000
 21
-10.160000
  0
LINE
 10
3.560000
 11
3.579000
 20
10.160000
 21
10.256000
  0
LINE
 10
3.579000
 11
3.633000
 20
10.256000
 21
10.337000
  0
LINE
 10
3.633000
 11
3.714000
 20
10.337000
 21
10.391000
  0
LINE
 10
3.714000
 11
3.810000
 20
10.391000
 21
10.410000
  0
LINE
 10
3.810000
 11
3.906000
 20
10.410000
 21
10.391000
  0
LINE
 10
3.906000
 11
3.987000
 20
10.391000
 21
10.337000
  0
LINE
 10
3.987000
 11
4.041000
 20
10.337000
 21
10.256000
  0
LINE
 10
4.041000
 11
4.060000
 20
10.256000
 21
10.160000
  0
LINE
 10
4.060000
 11
4.041000
 20
10.160000
 21
10.064000
  0
LINE
 10
4.041000
 11
3.987000
 20
10.064000
 21
9.983000
  0
LINE
 10
3.987000
 11
3.906000
 20
9.983000
 21
9.929000
  0
LINE
 10
3.906000
 11
3.810000
 20
9.929000
 21
9.910000
  0
LINE
 10
3.810000
 11
3.714000
 20
9.910000
 21
9.929000
  0
LINE
 10
3.714000
 11
3.633000
 20
9.929000
 21
9.983000
  0
LINE
 10
3.633000
 11
3.579000
 20
9.983000
 21
10.064000
  0
LINE
 10
3.579000
 11
3.560000
 20
10.064000
 21
10.160000
  0
LINE
 10
3.560000
 11
3.579000
 20
12.700000
 21
12.796000
  0
LINE
 10
3.579000
 11
3.633000
 20
12.796000
 21
12.877000
  0
LINE
 10
3.633000
 11
3.714000
 20
12.877000
 21
12.931000
  0
LINE
 10
3.714000
 11
3.810000
 20
12.931000
 21
12.950000
  0
LINE
 10
3.810000
 11
3.906000
 20
12.950000
 21
12.931000
  0
LINE
 10
3.906000
 11
3.987000
 20
12.931000
 21
12.877000
  0
LINE
 10
3.987000
 11
4.041000
 20
12.877000
 21
12.796000
  0
LINE
 10
4.041000
 11
4.060000
 20
12.796000
 21
12.700000
  0
LINE
 10
4.060000
 11
4.041000
 20
12.700000
 21
12.604000
  0
LINE
 10
4.041000
 11
3.987000
 20
12.604000
 21
12.523000
  0
LINE
 10
3.987000
 11
3.906000
 20
12.523000
 21
12.469000
  0
LINE
 10
3.906000
 11
3.810000
 20
12.469000
 21
12.450000
  0
LINE
 10
3.810000
 11
3.714000
 20
12.450000
 21
12.469000
  0
LINE
 10
3.714000
 11
3.633000
 20
12.469000
 21
12.523000
  0
LINE
 10
3.633000
 11
3.579000
 20
12.523000
 21
12.604000
  0
LINE
 10
3.579000
 11
3.560000
 20
12.604000
 21
12.700000
  0
LINE
 10
3.850000
 11
3.850000
 20
-6.200000
 21
-5.000000
  0
LINE
 10
3.850000
 11
4.150000
 20
-5.000000
 21
-5.000000
  0
LINE
 10
4.150000
 11
4.150000
 20
-5.000000
 21
-6.143000
  0
LINE
 10
4.150000
 11
6.462000
 20
-6.143000
 21
-8.792000
  0
LINE
 10
6.462000
 11
6.489000
 20
-8.792000
 21
-8.833000
  0
LINE
 10
6.489000
 11
6.500000
 20
-8.833000
 21
-8.890000
  0
LINE
 10
6.500000
 11
6.500000
 20
-8.890000
 21
-9.270000
  0
LINE
 10
6.500000
 11
6.702000
 20
-9.270000
 21
-9.310000
  0
LINE
 10
6.702000
 11
7.001000
 20
-9.310000
 21
-9.509000
  0
LINE
 10
7.001000
 11
7.200000
 20
-9.509000
 21
-9.808000
  0
LINE
 10
7.200000
 11
7.270000
 20
-9.808000
 21
-10.160000
  0
LINE
 10
7.270000
 11
7.200000
 20
-10.160000
 21
-10.512000
  0
LINE
 10
7.200000
 11
7.001000
 20
-10.512000
 21
-10.811000
  0
LINE
 10
7.001000
 11
6.702000
 20
-10.811000
 21
-11.010000
  0
LINE
 10
6.702000
 11
6.350000
 20
-11.010000
 21
-11.080000
  0
LINE
 10
6.350000
 11
5.998000
 20
-11.080000
 21
-11.010000
  0
LINE
 10
5.998000
 11
5.699000
 20
-11.010000
 21
-10.811000
  0
LINE
 10
5.699000
 11
5.500000
 20
-10.811000
 21
-10.512000
  0
LINE
 10
5.500000
 11
5.430000
 20
-10.512000
 21
-10.160000
  0
LINE
 10
5.430000
 11
5.500000
 20
-10.160000
 21
-9.808000
  0
LINE
 10
5.500000
 11
5.699000
 20
-9.808000
 21
-9.509000
  0
LINE
 10
5.699000
 11
5.998000
 20
-9.509000
 21
-9.310000
  0
LINE
 10
5.998000
 11
6.200000
 20
-9.310000
 21
-9.270000
  0
LINE
 10
6.200000
 11
6.200000
 20
-9.270000
 21
-8.947000
  0
LINE
 10
6.200000
 11
3.888000
 20
-8.947000
 21
-6.298000
  0
LINE
 10
3.888000
 11
3.861000
 20
-6.298000
 21
-6.257000
  0
LINE
 10
3.861000
 11
3.850000
 20
-6.257000
 21
-6.200000
  0
LINE
 10
3.850000
 11
3.850000
 20
5.000000
 21
6.200000
  0
LINE
 10
3.850000
 11
3.861000
 20
6.200000
 21
6.257000
  0
LINE
 10
3.861000
 11
3.887000
 20
6.257000
 21
6.299000
  0
LINE
 10
3.887000
 11
6.200000
 20
6.299000
 21
8.947000
  0
LINE
 10
6.200000
 11
6.200000
 20
8.947000
 21
9.270000
  0
LINE
 10
6.200000
 11
5.998000
 20
9.270000
 21
9.310000
  0
LINE
 10
5.998000
 11
5.699000
 20
9.310000
 21
9.509000
  0
LINE
 10
5.699000
 11
5.500000
 20
9.509000
 21
9.808000
  0
LINE
 10
5.500000
 11
5.430000
 20
9.808000
 21
10.160000
  0
LINE
 10
5.430000
 11
5.500000
 20
10.160000
 21
10.512000
  0
LINE
 10
5.500000
 11
5.699000
 20
10.512000
 21
10.811000
  0
LINE
 10
5.699000
 11
5.998000
 20
10.811000
 21
11.010000
  0
LINE
 10
5.998000
 11
6.350000
 20
11.010000
 21
11.080000
  0
LINE
 10
6.350000
 11
6.702000
 20
11.080000
 21
11.010000
  0
LINE
 10
6.702000
 11
7.001000
 20
11.010000
 21
10.811000
  0
LINE
 10
7.001000
 11
7.200000
 20
10.811000
 21
10.512000
  0
LINE
 10
7.200000
 11
7.270000
 20
10.512000
 21
10.160000
  0
LINE
 10
7.270000
 11
7.200000
 20
10.160000
 21
9.808000
  0
LINE
 10
7.200000
 11
7.001000
 20
9.808000
 21
9.509000
  0
LINE
 10
7.001000
 11
6.702000
 20
9.509000
 21
9.310000
  0
LINE
 10
6.702000
 11
6.500000
 20
9.310000
 21
9.270000
  0
LINE
 10
6.500000
 11
6.500000
 20
9.270000
 21
8.890000
  0
LINE
 10
6.500000
 11
6.489000
 20
8.890000
 21
8.833000
  0
LINE
 10
6.489000
 11
6.463000
 20
8.833000
 21
8.791000
  0
LINE
 10
6.463000
 11
4.150000
 20
8.791000
 21
6.143000
  0
LINE
 10
4.150000
 11
4.150000
 20
6.143000
 21
5.000000
  0
LINE
 10
4.150000
 11
3.850000
 20
5.000000
 21
5.000000
  0
LINE
 10
5.000000
 11
5.000000
 20
-4.150000
 21
-3.850000
  0
LINE
 10
5.000000
 11
6.200000
 20
-3.850000
 21
-3.850000
  0
LINE
 10
6.200000
 11
6.257000
 20
-3.850000
 21
-3.861000
  0
LINE
 10
6.257000
 11
6.299000
 20
-3.861000
 21
-3.887000
  0
LINE
 10
6.299000
 11
8.947000
 20
-3.887000
 21
-6.200000
  0
LINE
 10
8.947000
 11
9.270000
 20
-6.200000
 21
-6.200000
  0
LINE
 10
9.270000
 11
9.310000
 20
-6.200000
 21
-5.998000
  0
LINE
 10
9.310000
 11
9.509000
 20
-5.998000
 21
-5.699000
  0
LINE
 10
9.509000
 11
9.808000
 20
-5.699000
 21
-5.500000
  0
LINE
 10
9.808000
 11
10.160000
 20
-5.500000
 21
-5.430000
  0
LINE
 10
10.160000
 11
10.512000
 20
-5.430000
 21
-5.500000
  0
LINE
 10
10.512000
 11
10.811000
 20
-5.500000
 21
-5.699000
  0
LINE
 10
10.811000
 11
11.010000
 20
-5.699000
 21
-5.998000
  0
LINE
 10
11.010000
 11
11.080000
 20
-5.998000
 21
-6.350000
  0
LINE
 10
11.080000
 11
11.010000
 20
-6.350000
 21
-6.702000
  0
LINE
 10
11.010000
 11
10.811000
 20
-6.702000
 21
-7.001000
  0
LINE
 10
10.811000
 11
10.512000
 20
-7.001000
 21
-7.200000
  0
LINE
 10
10.512000
 11
10.160000
 20
-7.200000
 21
-7.270000
  0
LINE
 10
10.160000
 11
9.808000
 20
-7.270000
 21
-7.200000
  0
LINE
 10
9.808000
 11
9.509000
 20
-7.200000
 21
-7.001000
  0
LINE
 10
9.509000
 11
9.310000
 20
-7.001000
 21
-6.702000
  0
LINE
 10
9.310000
 11
9.270000
 20
-6.702000
 21
-6.500000
  0
LINE
 10
9.270000
 11
8.890000
 20
-6.500000
 21
-6.500000
  0
LINE
 10
8.890000
 11
8.833000
 20
-6.500000
 21
-6.489000
  0
LINE
 10
8.833000
 11
8.791000
 20
-6.489000
 21
-6.463000
  0
LINE
 10
8.791000
 11
6.143000
 20
-6.463000
 21
-4.150000
  0
LINE
 10
6.143000
 11
5.000000
 20
-4.150000
 21
-4.150000
  0
LINE
 10
5.000000
 11
5.000000
 20
-3.350000
 21
-3.050000
  0
LINE
 10
5.000000
 11
6.700000
 20
-3.050000
 21
-3.050000
  0
LINE
 10
6.700000
 11
6.757000
 20
-3.050000
 21
-3.061000
  0
LINE
 10
6.757000
 11
6.797000
 20
-3.061000
 21
-3.088000
  0
LINE
 10
6.797000
 11
6.798000
 20
-3.088000
 21
-3.086000
  0
LINE
 10
6.798000
 11
8.946000
 20
-3.086000
 21
-4.930000
  0
LINE
 10
8.946000
 11
11.430000
 20
-4.930000
 21
-4.930000
  0
LINE
 10
11.430000
 11
11.487000
 20
-4.930000
 21
-4.941000
  0
LINE
 10
11.487000
 11
11.536000
 20
-4.941000
 21
-4.974000
  0
LINE
 10
11.536000
 11
12.176000
 20
-4.974000
 21
-5.614000
  0
LINE
 10
12.176000
 11
12.348000
 20
-5.614000
 21
-5.500000
  0
LINE
 10
12.348000
 11
12.700000
 20
-5.500000
 21
-5.430000
  0
LINE
 10
12.700000
 11
13.052000
 20
-5.430000
 21
-5.500000
  0
LINE
 10
13.052000
 11
13.351000
 20
-5.500000
 21
-5.699000
  0
LINE
 10
13.351000
 11
13.550000
 20
-5.699000
 21
-5.998000
  0
LINE
 10
13.550000
 11
13.620000
 20
-5.998000
 21
-6.350000
  0
LINE
 10
13.620000
 11
13.550000
 20
-6.350000
 21
-6.702000
  0
LINE
 10
13.550000
 11
13.351000
 20
-6.702000
 21
-7.001000
  0
LINE
 10
13.351000
 11
13.052000
 20
-7.001000
 21
-7.200000
  0
LINE
 10
13.052000
 11
12.700000
 20
-7.200000
 21
-7.270000
  0
LINE
 10
12.700000
 11
12.348000
 20
-7.270000
 21
-7.200000
  0
LINE
 10
12.348000
 11
12.049000
 20
-7.200000
 21
-7.001000
  0
LINE
 10
12.049000
 11
11.850000
 20
-7.001000
 21
-6.702000
  0
LINE
 10
11.850000
 11
11.780000
 20
-6.702000
 21
-6.350000
  0
LINE
 10
11.780000
 11
11.850000
 20
-6.350000
 21
-5.998000
  0
LINE
 10
11.850000
 11
11.964000
 20
-5.998000
 21
-5.826000
  0
LINE
 10
11.964000
 11
11.368000
 20
-5.826000
 21
-5.230000
  0
LINE
 10
11.368000
 11
8.890000
 20
-5.230000
 21
-5.230000
  0
LINE
 10
8.890000
 11
8.833000
 20
-5.230000
 21
-5.219000
  0
LINE
 10
8.833000
 11
8.793000
 20
-5.219000
 21
-5.192000
  0
LINE
 10
8.793000
 11
8.792000
 20
-5.192000
 21
-5.194000
  0
LINE
 10
8.792000
 11
6.644000
 20
-5.194000
 21
-3.350000
  0
LINE
 10
6.644000
 11
5.000000
 20
-3.350000
 21
-3.350000
  0
LINE
 10
5.000000
 11
5.000000
 20
-2.550000
 21
-2.250000
  0
LINE
 10
5.000000
 11
7.200000
 20
-2.250000
 21
-2.250000
  0
LINE
 10
7.200000
 11
7.257000
 20
-2.250000
 21
-2.261000
  0
LINE
 10
7.257000
 11
7.296000
 20
-2.261000
 21
-2.285000
  0
LINE
 10
7.296000
 11
8.944000
 20
-2.285000
 21
-3.660000
  0
LINE
 10
8.944000
 11
9.270000
 20
-3.660000
 21
-3.660000
  0
LINE
 10
9.270000
 11
9.310000
 20
-3.660000
 21
-3.458000
  0
LINE
 10
9.310000
 11
9.509000
 20
-3.458000
 21
-3.159000
  0
LINE
 10
9.509000
 11
9.808000
 20
-3.159000
 21
-2.960000
  0
LINE
 10
9.808000
 11
10.160000
 20
-2.960000
 21
-2.890000
  0
LINE
 10
10.160000
 11
10.512000
 20
-2.890000
 21
-2.960000
  0
LINE
 10
10.512000
 11
10.811000
 20
-2.960000
 21
-3.159000
  0
LINE
 10
10.811000
 11
11.010000
 20
-3.159000
 21
-3.458000
  0
LINE
 10
11.010000
 11
11.080000
 20
-3.458000
 21
-3.810000
  0
LINE
 10
11.080000
 11
11.010000
 20
-3.810000
 21
-4.162000
  0
LINE
 10
11.010000
 11
10.811000
 20
-4.162000
 21
-4.461000
  0
LINE
 10
10.811000
 11
10.512000
 20
-4.461000
 21
-4.660000
  0
LINE
 10
10.512000
 11
10.160000
 20
-4.660000
 21
-4.730000
  0
LINE
 10
10.160000
 11
9.808000
 20
-4.730000
 21
-4.660000
  0
LINE
 10
9.808000
 11
9.509000
 20
-4.660000
 21
-4.461000
  0
LINE
 10
9.509000
 11
9.310000
 20
-4.461000
 21
-4.162000
  0
LINE
 10
9.310000
 11
9.270000
 20
-4.162000
 21
-3.960000
  0
LINE
 10
9.270000
 11
8.890000
 20
-3.960000
 21
-3.960000
  0
LINE
 10
8.890000
 11
8.833000
 20
-3.960000
 21
-3.949000
  0
LINE
 10
8.833000
 11
8.794000
 20
-3.949000
 21
-3.925000
  0
LINE
 10
8.794000
 11
7.146000
 20
-3.925000
 21
-2.550000
  0
LINE
 10
7.146000
 11
5.000000
 20
-2.550000
 21
-2.550000
  0
LINE
 10
5.000000
 11
5.000000
 20
-1.750000
 21
-1.450000
  0
LINE
 10
5.000000
 11
7.700000
 20
-1.450000
 21
-1.450000
  0
LINE
 10
7.700000
 11
7.757000
 20
-1.450000
 21
-1.461000
  0
LINE
 10
7.757000
 11
7.793000
 20
-1.461000
 21
-1.483000
  0
LINE
 10
7.793000
 11
8.942000
 20
-1.483000
 21
-2.390000
  0
LINE
 10
8.942000
 11
11.430000
 20
-2.390000
 21
-2.390000
  0
LINE
 10
11.430000
 11
11.487000
 20
-2.390000
 21
-2.401000
  0
LINE
 10
11.487000
 11
11.536000
 20
-2.401000
 21
-2.434000
  0
LINE
 10
11.536000
 11
12.176000
 20
-2.434000
 21
-3.074000
  0
LINE
 10
12.176000
 11
12.348000
 20
-3.074000
 21
-2.960000
  0
LINE
 10
12.348000
 11
12.700000
 20
-2.960000
 21
-2.890000
  0
LINE
 10
12.700000
 11
13.052000
 20
-2.890000
 21
-2.960000
  0
LINE
 10
13.052000
 11
13.351000
 20
-2.960000
 21
-3.159000
  0
LINE
 10
13.351000
 11
13.550000
 20
-3.159000
 21
-3.458000
  0
LINE
 10
13.550000
 11
13.620000
 20
-3.458000
 21
-3.810000
  0
LINE
 10
13.620000
 11
13.550000
 20
-3.810000
 21
-4.162000
  0
LINE
 10
13.550000
 11
13.351000
 20
-4.162000
 21
-4.461000
  0
LINE
 10
13.351000
 11
13.052000
 20
-4.461000
 21
-4.660000
  0
LINE
 10
13.052000
 11
12.700000
 20
-4.660000
 21
-4.730000
  0
LINE
 10
12.700000
 11
12.348000
 20
-4.730000
 21
-4.660000
  0
LINE
 10
12.348000
 11
12.049000
 20
-4.660000
 21
-4.461000
  0
LINE
 10
12.049000
 11
11.850000
 20
-4.461000
 21
-4.162000
  0
LINE
 10
11.850000
 11
11.780000
 20
-4.162000
 21
-3.810000
  0
LINE
 10
11.780000
 11
11.850000
 20
-3.810000
 21
-3.458000
  0
LINE
 10
11.850000
 11
11.964000
 20
-3.458000
 21
-3.286000
  0
LINE
 10
11.964000
 11
11.368000
 20
-3.286000
 21
-2.690000
  0
LINE
 10
11.368000
 11
8.890000
 20
-2.690000
 21
-2.690000
  0
LINE
 10
8.890000
 11
8.833000
 20
-2.690000
 21
-2.679000
  0
LINE
 10
8.833000
 11
8.799000
 20
-2.679000
 21
-2.656000
  0
LINE
 10
8.799000
 11
8.797000
 20
-2.656000
 21
-2.658000
  0
LINE
 10
8.797000
 11
7.648000
 20
-2.658000
 21
-1.750000
  0
LINE
 10
7.648000
 11
5.000000
 20
-1.750000
 21
-1.750000
  0
LINE
 10
5.000000
 11
5.000000
 20
-0.950000
 21
-0.650000
  0
LINE
 10
5.000000
 11
8.200000
 20
-0.650000
 21
-0.650000
  0
LINE
 10
8.200000
 11
8.257000
 20
-0.650000
 21
-0.661000
  0
LINE
 10
8.257000
 11
8.283000
 20
-0.661000
 21
-0.678000
  0
LINE
 10
8.283000
 11
8.284000
 20
-0.678000
 21
-0.676000
  0
LINE
 10
8.284000
 11
8.936000
 20
-0.676000
 21
-1.120000
  0
LINE
 10
8.936000
 11
9.270000
 20
-1.120000
 21
-1.120000
  0
LINE
 10
9.270000
 11
9.310000
 20
-1.120000
 21
-0.918000
  0
LINE
 10
9.310000
 11
9.509000
 20
-0.918000
 21
-0.619000
  0
LINE
 10
9.509000
 11
9.808000
 20
-0.619000
 21
-0.420000
  0
LINE
 10
9.808000
 11
10.160000
 20
-0.420000
 21
-0.350000
  0
LINE
 10
10.160000
 11
10.512000
 20
-0.350000
 21
-0.420000
  0
LINE
 10
10.512000
 11
10.811000
 20
-0.420000
 21
-0.619000
  0
LINE
 10
10.811000
 11
11.010000
 20
-0.619000
 21
-0.918000
  0
LINE
 10
11.010000
 11
11.080000
 20
-0.918000
 21
-1.270000
  0
LINE
 10
11.080000
 11
11.010000
 20
-1.270000
 21
-1.622000
  0
LINE
 10
11.010000
 11
10.811000
 20
-1.622000
 21
-1.921000
  0
LINE
 10
10.811000
 11
10.512000
 20
-1.921000
 21
-2.120000
  0
LINE
 10
10.512000
 11
10.160000
 20
-2.120000
 21
-2.190000
  0
LINE
 10
10.160000
 11
9.808000
 20
-2.190000
 21
-2.120000
  0
LINE
 10
9.808000
 11
9.509000
 20
-2.120000
 21
-1.921000
  0
LINE
 10
9.509000
 11
9.310000
 20
-1.921000
 21
-1.622000
  0
LINE
 10
9.310000
 11
9.270000
 20
-1.622000
 21
-1.420000
  0
LINE
 10
9.270000
 11
8.890000
 20
-1.420000
 21
-1.420000
  0
LINE
 10
8.890000
 11
8.833000
 20
-1.420000
 21
-1.409000
  0
LINE
 10
8.833000
 11
8.807000
 20
-1.409000
 21
-1.392000
  0
LINE
 10
8.807000
 11
8.806000
 20
-1.392000
 21
-1.394000
  0
LINE
 10
8.806000
 11
8.153000
 20
-1.394000
 21
-0.950000
  0
LINE
 10
8.153000
 11
5.000000
 20
-0.950000
 21
-0.950000
  0
LINE
 10
5.000000
 11
5.000000
 20
-0.150000
 21
0.150000
  0
LINE
 10
5.000000
 11
11.430000
 20
0.150000
 21
0.150000
  0
LINE
 10
11.430000
 11
11.487000
 20
0.150000
 21
0.139000
  0
LINE
 10
11.487000
 11
11.536000
 20
0.139000
 21
0.106000
  0
LINE
 10
11.536000
 11
12.176000
 20
0.106000
 21
-0.534000
  0
LINE
 10
12.176000
 11
12.348000
 20
-0.534000
 21
-0.420000
  0
LINE
 10
12.348000
 11
12.700000
 20
-0.420000
 21
-0.350000
  0
LINE
 10
12.700000
 11
13.052000
 20
-0.350000
 21
-0.420000
  0
LINE
 10
13.052000
 11
13.351000
 20
-0.420000
 21
-0.619000
  0
LINE
 10
13.351000
 11
13.550000
 20
-0.619000
 21
-0.918000
  0
LINE
 10
13.550000
 11
13.620000
 20
-0.918000
 21
-1.270000
  0
LINE
 10
13.620000
 11
13.550000
 20
-1.270000
 21
-1.622000
  0
LINE
 10
13.550000
 11
13.351000
 20
-1.622000
 21
-1.921000
  0
LINE
 10
13.351000
 11
13.052000
 20
-1.921000
 21
-2.120000
  0
LINE
 10
13.052000
 11
12.700000
 20
-2.120000
 21
-2.190000
  0
LINE
 10
12.700000
 11
12.348000
 20
-2.190000
 21
-2.120000
  0
LINE
 10
12.348000
 11
12.049000
 20
-2.120000
 21
-1.921000
  0
LINE
 10
12.049000
 11
11.850000
 20
-1.921000
 21
-1.622000
  0
LINE
 10
11.850000
 11
11.780000
 20
-1.622000
 21
-1.270000
  0
LINE
 10
11.780000
 11
11.850000
 20
-1.270000
 21
-0.918000
  0
LINE
 10
11.850000
 11
11.964000
 20
-0.918000
 21
-0.746000
  0
LINE
 10
11.964000
 11
11.368000
 20
-0.746000
 21
-0.150000
  0
LINE
 10
11.368000
 11
5.000000
 20
-0.150000
 21
-0.150000
  0
LINE
 10
5.000000
 11
5.000000
 20
0.650000
 21
0.950000
  0
LINE
 10
5.000000
 11
8.153000
 20
0.950000
 21
0.950000
  0
LINE
 10
8.153000
 11
8.806000
 20
0.950000
 21
1.394000
  0
LINE
 10
8.806000
 11
8.807000
 20
1.394000
 21
1.392000
  0
LINE
 10
8.807000
 11
8.833000
 20
1.392000
 21
1.409000
  0
LINE
 10
8.833000
 11
8.890000
 20
1.409000
 21
1.420000
  0
LINE
 10
8.890000
 11
9.270000
 20
1.420000
 21
1.420000
  0
LINE
 10
9.270000
 11
9.310000
 20
1.420000
 21
1.622000
  0
LINE
 10
9.310000
 11
9.509000
 20
1.622000
 21
1.921000
  0
LINE
 10
9.509000
 11
9.808000
 20
1.921000
 21
2.120000
  0
LINE
 10
9.808000
 11
10.160000
 20
2.120000
 21
2.190000
  0
LINE
 10
10.160000
 11
10.512000
 20
2.190000
 21
2.120000
  0
LINE
 10
10.512000
 11
10.811000
 20
2.120000
 21
1.921000
  0
LINE
 10
10.811000
 11
11.010000
 20
1.921000
 21
1.622000
  0
LINE
 10
11.010000
 11
11.080000
 20
1.622000
 21
1.270000
  0
LINE
 10
11.080000
 11
11.010000
 20
1.270000
 21
0.918000
  0
LINE
 10
11.010000
 11
10.811000
 20
0.918000
 21
0.619000
  0
LINE
 10
10.811000
 11
10.512000
 20
0.619000
 21
0.420000
  0
LINE
 10
10.512000
 11
10.160000
 20
0.420000
 21
0.350000
  0
LINE
 10
10.160000
 11
9.808000
 20
0.350000
 21
0.420000
  0
LINE
 10
9.808000
 11
9.509000
 20
0.420000
 21
0.619000
  0
LINE
 10
9.509000
 11
9.310000
 20
0.619000
 21
0.918000
  0
LINE
 10
9.310000
 11
9.270000
 20
0.918000
 21
1.120000
  0
LINE
 10
9.270000
 11
8.936000
 20
1.120000
 21
1.120000
  0
LINE
 10
8.936000
 11
8.284000
 20
1.120000
 21
0.676000
  0
LINE
 10
8.284000
 11
8.283000
 20
0.676000
 21
0.678000
  0
LINE
 10
8.283000
 11
8.257000
 20
0.678000
 21
0.661000
  0
LINE
 10
8.257000
 11
8.200000
 20
0.661000
 21
0.650000
  0
LINE
 10
8.200000
 11
5.000000
 20
0.650000
 21
0.650000
  0
LINE
 10
5.000000
 11
5.000000
 20
1.450000
 21
1.750000
  0
LINE
 10
5.000000
 11
7.648000
 20
1.750000
 21
1.750000
  0
LINE
 10
7.648000
 11
8.797000
 20
1.750000
 21
2.658000
  0
LINE
 10
8.797000
 11
8.799000
 20
2.658000
 21
2.656000
  0
LINE
 10
8.799000
 11
8.833000
 20
2.656000
 21
2.679000
  0
LINE
 10
8.833000
 11
8.890000
 20
2.679000
 21
2.690000
  0
LINE
 10
8.890000
 11
11.430000
 20
2.690000
 21
2.690000
  0
LINE
 10
11.430000
 11
11.487000
 20
2.690000
 21
2.679000
  0
LINE
 10
11.487000
 11
11.536000
 20
2.679000
 21
2.646000
  0
LINE
 10
11.536000
 11
12.176000
 20
2.646000
 21
2.006000
  0
LINE
 10
12.176000
 11
12.348000
 20
2.006000
 21
2.120000
  0
LINE
 10
12.348000
 11
12.700000
 20
2.120000
 21
2.190000
  0
LINE
 10
12.700000
 11
13.052000
 20
2.190000
 21
2.120000
  0
LINE
 10
13.052000
 11
13.351000
 20
2.120000
 21
1.921000
  0
LINE
 10
13.351000
 11
13.550000
 20
1.921000
 21
1.622000
  0
LINE
 10
13.550000
 11
13.620000
 20
1.622000
 21
1.270000
  0
LINE
 10
13.620000
 11
13.550000
 20
1.270000
 21
0.918000
  0
LINE
 10
13.550000
 11
13.351000
 20
0.918000
 21
0.619000
  0
LINE
 10
13.351000
 11
13.052000
 20
0.619000
 21
0.420000
  0
LINE
 10
13.052000
 11
12.700000
 20
0.420000
 21
0.350000
  0
LINE
 10
12.700000
 11
12.348000
 20
0.350000
 21
0.420000
  0
LINE
 10
12.348000
 11
12.049000
 20
0.420000
 21
0.619000
  0
LINE
 10
12.049000
 11
11.850000
 20
0.619000
 21
0.918000
  0
LINE
 10
11.850000
 11
11.780000
 20
0.918000
 21
1.270000
  0
LINE
 10
11.780000
 11
11.850000
 20
1.270000
 21
1.622000
  0
LINE
 10
11.850000
 11
11.964000
 20
1.622000
 21
1.794000
  0
LINE
 10
11.964000
 11
11.368000
 20
1.794000
 21
2.390000
  0
LINE
 10
11.368000
 11
8.942000
 20
2.390000
 21
2.390000
  0
LINE
 10
8.942000
 11
7.792000
 20
2.390000
 21
1.484000
  0
LINE
 10
7.792000
 11
7.757000
 20
1.484000
 21
1.461000
  0
LINE
 10
7.757000
 11
7.700000
 20
1.461000
 21
1.450000
  0
LINE
 10
7.700000
 11
5.000000
 20
1.450000
 21
1.450000
  0
LINE
 10
5.000000
 11
5.000000
 20
2.250000
 21
2.550000
  0
LINE
 10
5.000000
 11
7.146000
 20
2.550000
 21
2.550000
  0
LINE
 10
7.146000
 11
8.795000
 20
2.550000
 21
3.924000
  0
LINE
 10
8.795000
 11
8.833000
 20
3.924000
 21
3.949000
  0
LINE
 10
8.833000
 11
8.890000
 20
3.949000
 21
3.960000
  0
LINE
 10
8.890000
 11
9.270000
 20
3.960000
 21
3.960000
  0
LINE
 10
9.270000
 11
9.310000
 20
3.960000
 21
4.162000
  0
LINE
 10
9.310000
 11
9.509000
 20
4.162000
 21
4.461000
  0
LINE
 10
9.509000
 11
9.808000
 20
4.461000
 21
4.660000
  0
LINE
 10
9.808000
 11
10.160000
 20
4.660000
 21
4.730000
  0
LINE
 10
10.160000
 11
10.512000
 20
4.730000
 21
4.660000
  0
LINE
 10
10.512000
 11
10.811000
 20
4.660000
 21
4.461000
  0
LINE
 10
10.811000
 11
11.010000
 20
4.461000
 21
4.162000
  0
LINE
 10
11.010000
 11
11.080000
 20
4.162000
 21
3.810000
  0
LINE
 10
11.080000
 11
11.010000
 20
3.810000
 21
3.458000
  0
LINE
 10
11.010000
 11
10.811000
 20
3.458000
 21
3.159000
  0
LINE
 10
10.811000
 11
10.512000
 20
3.159000
 21
2.960000
  0
LINE
 10
10.512000
 11
10.160000
 20
2.960000
 21
2.890000
  0
LINE
 10
10.160000
 11
9.808000
 20
2.890000
 21
2.960000
  0
LINE
 10
9.808000
 11
9.509000
 20
2.960000
 21
3.159000
  0
LINE
 10
9.509000
 11
9.310000
 20
3.159000
 21
3.458000
  0
LINE
 10
9.310000
 11
9.270000
 20
3.458000
 21
3.660000
  0
LINE
 10
9.270000
 11
8.944000
 20
3.660000
 21
3.660000
  0
LINE
 10
8.944000
 11
7.295000
 20
3.660000
 21
2.286000
  0
LINE
 10
7.295000
 11
7.257000
 20
2.286000
 21
2.261000
  0
LINE
 10
7.257000
 11
7.200000
 20
2.261000
 21
2.250000
  0
LINE
 10
7.200000
 11
5.000000
 20
2.250000
 21
2.250000
  0
LINE
 10
5.000000
 11
5.000000
 20
3.050000
 21
3.350000
  0
LINE
 10
5.000000
 11
6.644000
 20
3.350000
 21
3.350000
  0
LINE
 10
6.644000
 11
8.792000
 20
3.350000
 21
5.194000
  0
LINE
 10
8.792000
 11
8.793000
 20
5.194000
 21
5.192000
  0
LINE
 10
8.793000
 11
8.833000
 20
5.192000
 21
5.219000
  0
LINE
 10
8.833000
 11
8.890000
 20
5.219000
 21
5.230000
  0
LINE
 10
8.890000
 11
11.430000
 20
5.230000
 21
5.230000
  0
LINE
 10
11.430000
 11
11.487000
 20
5.230000
 21
5.219000
  0
LINE
 10
11.487000
 11
11.536000
 20
5.219000
 21
5.186000
  0
LINE
 10
11.536000
 11
12.176000
 20
5.186000
 21
4.546000
  0
LINE
 10
12.176000
 11
12.348000
 20
4.546000
 21
4.660000
  0
LINE
 10
12.348000
 11
12.700000
 20
4.660000
 21
4.730000
  0
LINE
 10
12.700000
 11
13.052000
 20
4.730000
 21
4.660000
  0
LINE
 10
13.052000
 11
13.351000
 20
4.660000
 21
4.461000
  0
LINE
 10
13.351000
 11
13.550000
 20
4.461000
 21
4.162000
  0
LINE
 10
13.550000
 11
13.620000
 20
4.162000
 21
3.810000
  0
LINE
 10
13.620000
 11
13.550000
 20
3.810000
 21
3.458000
  0
LINE
 10
13.550000
 11
13.351000
 20
3.458000
 21
3.159000
  0
LINE
 10
13.351000
 11
13.052000
 20
3.159000
 21
2.960000
  0
LINE
 10
13.052000
 11
12.700000
 20
2.960000
 21
2.890000
  0
LINE
 10
12.700000
 11
12.348000
 20
2.890000
 21
2.960000
  0
LINE
 10
12.348000
 11
12.049000
 20
2.960000
 21
3.159000
  0
LINE
 10
12.049000
 11
11.850000
 20
3.159000
 21
3.458000
  0
LINE
 10
11.850000
 11
11.780000
 20
3.458000
 21
3.810000
  0
LINE
 10
11.780000
 11
11.850000
 20
3.810000
 21
4.162000
  0
LINE
 10
11.850000
 11
11.964000
 20
4.162000
 21
4.334000
  0
LINE
 10
11.964000
 11
11.368000
 20
4.334000
 21
4.930000
  0
LINE
 10
11.368000
 11
8.946000
 20
4.930000
 21
4.930000
  0
LINE
 10
8.946000
 11
6.798000
 20
4.930000
 21
3.086000
  0
LINE
 10
6.798000
 11
6.797000
 20
3.086000
 21
3.088000
  0
LINE
 10
6.797000
 11
6.757000
 20
3.088000
 21
3.061000
  0
LINE
 10
6.757000
 11
6.700000
 20
3.061000
 21
3.050000
  0
LINE
 10
6.700000
 11
5.000000
 20
3.050000
 21
3.050000
  0
LINE
 10
5.000000
 11
5.000000
 20
3.850000
 21
4.150000
  0
LINE
 10
5.000000
 11
6.143000
 20
4.150000
 21
4.150000
  0
LINE
 10
6.143000
 11
8.792000
 20
4.150000
 21
6.462000
  0
LINE
 10
8.792000
 11
8.833000
 20
6.462000
 21
6.489000
  0
LINE
 10
8.833000
 11
8.890000
 20
6.489000
 21
6.500000
  0
LINE
 10
8.890000
 11
9.270000
 20
6.500000
 21
6.500000
  0
LINE
 10
9.270000
 11
9.310000
 20
6.500000
 21
6.702000
  0
LINE
 10
9.310000
 11
9.509000
 20
6.702000
 21
7.001000
  0
LINE
 10
9.509000
 11
9.808000
 20
7.001000
 21
7.200000
  0
LINE
 10
9.808000
 11
10.160000
 20
7.200000
 21
7.270000
  0
LINE
 10
10.160000
 11
10.512000
 20
7.270000
 21
7.200000
  0
LINE
 10
10.512000
 11
10.811000
 20
7.200000
 21
7.001000
  0
LINE
 10
10.811000
 11
11.010000
 20
7.001000
 21
6.702000
  0
LINE
 10
11.010000
 11
11.080000
 20
6.702000
 21
6.350000
  0
LINE
 10
11.080000
 11
11.010000
 20
6.350000
 21
5.998000
  0
LINE
 10
11.010000
 11
10.811000
 20
5.998000
 21
5.699000
  0
LINE
 10
10.811000
 11
10.512000
 20
5.699000
 21
5.500000
  0
LINE
 10
10.512000
 11
10.160000
 20
5.500000
 21
5.430000
  0
LINE
 10
10.160000
 11
9.808000
 20
5.430000
 21
5.500000
  0
LINE
 10
9.808000
 11
9.509000
 20
5.500000
 21
5.699000
  0
LINE
 10
9.509000
 11
9.310000
 20
5.699000
 21
5.998000
  0
LINE
 10
9.310000
 11
9.270000
 20
5.998000
 21
6.200000
  0
LINE
 10
9.270000
 11
8.947000
 20
6.200000
 21
6.200000
  0
LINE
 10
8.947000
 11
6.298000
 20
6.200000
 21
3.888000
  0
LINE
 10
6.298000
 11
6.257000
 20
3.888000
 21
3.861000
  0
LINE
 10
6.257000
 11
6.200000
 20
3.861000
 21
3.850000
  0
LINE
 10
6.200000
 11
5.000000
 20
3.850000
 21
3.850000
  0
LINE
 10
6.100000
 11
6.119000
 20
-10.160000
 21
-10.064000
  0
LINE
 10
6.119000
 11
6.173000
 20
-10.064000
 21
-9.983000
  0
LINE
 10
6.173000
 11
6.254000
 20
-9.983000
 21
-9.929000
  0
LINE
 10
6.254000
 11
6.350000
 20
-9.929000
 21
-9.910000
  0
LINE
 10
6.350000
 11
6.446000
 20
-9.910000
 21
-9.929000
  0
LINE
 10
6.446000
 11
6.527000
 20
-9.929000
 21
-9.983000
  0
LINE
 10
6.527000
 11
6.581000
 20
-9.983000
 21
-10.064000
  0
LINE
 10
6.581000
 11
6.600000
 20
-10.064000
 21
-10.160000
  0
LINE
 10
6.600000
 11
6.581000
 20
-10.160000
 21
-10.256000
  0
LINE
 10
6.581000
 11
6.527000
 20
-10.256000
 21
-10.337000
  0
LINE
 10
6.527000
 11
6.446000
 20
-10.337000
 21
-10.391000
  0
LINE
 10
6.446000
 11
6.350000
 20
-10.391000
 21
-10.410000
  0
LINE
 10
6.350000
 11
6.254000
 20
-10.410000
 21
-10.391000
  0
LINE
 10
6.254000
 11
6.173000
 20
-10.391000
 21
-10.337000
  0
LINE
 10
6.173000
 11
6.119000
 20
-10.337000
 21
-10.256000
  0
LINE
 10
6.119000
 11
6.100000
 20
-10.256000
 21
-10.160000
  0
LINE
 10
6.100000
 11
6.119000
 20
10.160000
 21
10.256000
  0
LINE
 10
6.119000
 11
6.173000
 20
10.256000
 21
10.337000
  0
LINE
 10
6.173000
 11
6.254000
 20
10.337000
 21
10.391000
  0
LINE
 10
6.254000
 11
6.350000
 20
10.391000
 21
10.410000
  0
LINE
 10
6.350000
 11
6.446000
 20
10.410000
 21
10.391000
  0
LINE
 10
6.446000
 11
6.527000
 20
10.391000
 21
10.337000
  0
LINE
 10
6.527000
 11
6.581000
 20
10.337000
 21
10.256000
  0
LINE
 10
6.581000
 11
6.600000
 20
10.256000
 21
10.160000
  0
LINE
 10
6.600000
 11
6.581000
 20
10.160000
 21
10.064000
  0
LINE
 10
6.581000
 11
6.527000
 20
10.064000
 21
9.983000
  0
LINE
 10
6.527000
 11
6.446000
 20
9.983000
 21
9.929000
  0
LINE
 10
6.446000
 11
6.350000
 20
9.929000
 21
9.910000
  0
LINE
 10
6.350000
 11
6.254000
 20
9.910000
 21
9.929000
  0
LINE
 10
6.254000
 11
6.173000
 20
9.929000
 21
9.983000
  0
LINE
 10
6.173000
 11
6.119000
 20
9.983000
 21
10.064000
  0
LINE
 10
6.119000
 11
6.100000
 20
10.064000
 21
10.160000
  0
LINE
 10
6.100000
 11
6.119000
 20
12.700000
 21
12.796000
  0
LINE
 10
6.119000
 11
6.173000
 20
12.796000
 21
12.877000
  0
LINE
 10
6.173000
 11
6.254000
 20
12.877000
 21
12.931000
  0
LINE
 10
6.254000
 11
6.350000
 20
12.931000
 21
12.950000
  0
LINE
 10
6.350000
 11
6.446000
 20
12.950000
 21
12.931000
  0
LINE
 10
6.446000
 11
6.527000
 20
12.931000
 21
12.877000
  0
LINE
 10
6.527000
 11
6.581000
 20
12.877000
 21
12.796000
  0
LINE
 10
6.581000
 11
6.600000
 20
12.796000
 21
12.700000
  0
LINE
 10
6.600000
 11
6.581000
 20
12.700000
 21
12.604000
  0
LINE
 10
6.581000
 11
6.527000
 20
12.604000
 21
12.523000
  0
LINE
 10
6.527000
 11
6.446000
 20
12.523000
 21
12.469000
  0
LINE
 10
6.446000
 11
6.350000
 20
12.469000
 21
12.450000
  0
LINE
 10
6.350000
 11
6.254000
 20
12.450000
 21
12.469000
  0
LINE
 10
6.254000
 11
6.173000
 20
12.469000
 21
12.523000
  0
LINE
 10
6.173000
 11
6.119000
 20
12.523000
 21
12.604000
  0
LINE
 10
6.119000
 11
6.100000
 20
12.604000
 21
12.700000
  0
LINE
 10
9.910000
 11
9.929000
 20
-6.350000
 21
-6.254000
  0
LINE
 10
9.929000
 11
9.983000
 20
-6.254000
 21
-6.173000
  0
LINE
 10
9.983000
 11
10.064000
 20
-6.173000
 21
-6.119000
  0
LINE
 10
10.064000
 11
10.160000
 20
-6.119000
 21
-6.100000
  0
LINE
 10
10.160000
 11
10.256000
 20
-6.100000
 21
-6.119000
  0
LINE
 10
10.256000
 11
10.337000
 20
-6.119000
 21
-6.173000
  0
LINE
 10
10.337000
 11
10.391000
 20
-6.173000
 21
-6.254000
  0
LINE
 10
10.391000
 11
10.410000
 20
-6.254000
 21
-6.350000
  0
LINE
 10
10.410000
 11
10.391000
 20
-6.350000
 21
-6.446000
  0
LINE
 10
10.391000
 11
10.337000
 20
-6.446000
 21
-6.527000
  0
LINE
 10
10.337000
 11
10.256000
 20
-6.527000
 21
-6.581000
  0
LINE
 10
10.256000
 11
10.160000
 20
-6.581000
 21
-6.600000
  0
LINE
 10
10.160000
 11
10.064000
 20
-6.600000
 21
-6.581000
  0
LINE
 10
10.064000
 11
9.983000
 20
-6.581000
 21
-6.527000
  0
LINE
 10
9.983000
 11
9.929000
 20
-6.527000
 21
-6.446000
  0
LINE
 10
9.929000
 11
9.910000
 20
-6.446000
 21
-6.350000
  0
LINE
 10
9.910000
 11
9.929000
 20
-3.810000
 21
-3.714000
  0
LINE
 10
9.929000
 11
9.983000
 20
-3.714000
 21
-3.633000
  0
LINE
 10
9.983000
 11
10.064000
 20
-3.633000
 21
-3.579000
  0
LINE
 10
10.064000
 11
10.160000
 20
-3.579000
 21
-3.560000
  0
LINE
 10
10.160000
 11
10.256000
 20
-3.560000
 21
-3.579000
  0
LINE
 10
10.256000
 11
10.337000
 20
-3.579000
 21
-3.633000
  0
LINE
 10
10.337000
 11
10.391000
 20
-3.633000
 21
-3.714000
  0
LINE
 10
10.391000
 11
10.410000
 20
-3.714000
 21
-3.810000
  0
LINE
 10
10.410000
 11
10.391000
 20
-3.810000
 21
-3.906000
  0
LINE
 10
10.391000
 11
10.337000
 20
-3.906000
 21
-3.987000
  0
LINE
 10
10.337000
 11
10.256000
 20
-3.987000
 21
-4.041000
  0
LINE
 10
10.256000
 11
10.160000
 20
-4.041000
 21
-4.060000
  0
LINE
 10
10.160000
 11
10.064000
 20
-4.060000
 21
-4.041000
  0
LINE
 10
10.064000
 11
9.983000
 20
-4.041000
 21
-3.987000
  0
LINE
 10
9.983000
 11
9.929000
 20
-3.987000
 21
-3.906000
  0
LINE
 10
9.929000
 11
9.910000
 20
-3.906000
 21
-3.810000
  0
LINE
 10
9.910000
 11
9.929000
 20
-1.270000
 21
-1.174000
  0
LINE
 10
9.929000
 11
9.983000
 20
-1.174000
 21
-1.093000
  0
LINE
 10
9.983000
 11
10.064000
 20
-1.093000
 21
-1.039000
  0
LINE
 10
10.064000
 11
10.160000
 20
-1.039000
 21
-1.020000
  0
LINE
 10
10.160000
 11
10.256000
 20
-1.020000
 21
-1.039000
  0
LINE
 10
10.256000
 11
10.337000
 20
-1.039000
 21
-1.093000
  0
LINE
 10
10.337000
 11
10.391000
 20
-1.093000
 21
-1.174000
  0
LINE
 10
10.391000
 11
10.410000
 20
-1.174000
 21
-1.270000
  0
LINE
 10
10.410000
 11
10.391000
 20
-1.270000
 21
-1.366000
  0
LINE
 10
10.391000
 11
10.337000
 20
-1.366000
 21
-1.447000
  0
LINE
 10
10.337000
 11
10.256000
 20
-1.447000
 21
-1.501000
  0
LINE
 10
10.256000
 11
10.160000
 20
-1.501000
 21
-1.520000
  0
LINE
 10
10.160000
 11
10.064000
 20
-1.520000
 21
-1.501000
  0
LINE
 10
10.064000
 11
9.983000
 20
-1.501000
 21
-1.447000
  0
LINE
 10
9.983000
 11
9.929000
 20
-1.447000
 21
-1.366000
  0
LINE
 10
9.929000
 11
9.910000
 20
-1.366000
 21
-1.270000
  0
LINE
 10
9.910000
 11
9.929000
 20
1.270000
 21
1.366000
  0
LINE
 10
9.929000
 11
9.983000
 20
1.366000
 21
1.447000
  0
LINE
 10
9.983000
 11
10.064000
 20
1.447000
 21
1.501000
  0
LINE
 10
10.064000
 11
10.160000
 20
1.501000
 21
1.520000
  0
LINE
 10
10.160000
 11
10.256000
 20
1.520000
 21
1.501000
  0
LINE
 10
10.256000
 11
10.337000
 20
1.501000
 21
1.447000
  0
LINE
 10
10.337000
 11
10.391000
 20
1.447000
 21
1.366000
  0
LINE
 10
10.391000
 11
10.410000
 20
1.366000
 21
1.270000
  0
LINE
 10
10.410000
 11
10.391000
 20
1.270000
 21
1.174000
  0
LINE
 10
10.391000
 11
10.337000
 20
1.174000
 21
1.093000
  0
LINE
 10
10.337000
 11
10.256000
 20
1.093000
 21
1.039000
  0
LINE
 10
10.256000
 11
10.160000
 20
1.039000
 21
1.020000
  0
LINE
 10
10.160000
 11
10.064000
 20
1.020000
 21
1.039000
  0
LINE
 10
10.064000
 11
9.983000
 20
1.039000
 21
1.093000
  0
LINE
 10
9.983000
 11
9.929000
 20
1.093000
 21
1.174000
  0
LINE
 10
9.929000
 11
9.910000
 20
1.174000
 21
1.270000
  0
LINE
 10
9.910000
 11
9.929000
 20
3.810000
 21
3.906000
  0
LINE
 10
9.929000
 11
9.983000
 20
3.906000
 21
3.987000
  0
LINE
 10
9.983000
 11
10.064000
 20
3.987000
 21
4.041000
  0
LINE
 10
10.064000
 11
10.160000
 20
4.041000
 21
4.060000
  0
LINE
 10
10.160000
 11
10.256000
 20
4.060000
 21
4.041000
  0
LINE
 10
10.256000
 11
10.337000
 20
4.041000
 21
3.987000
  0
LINE
 10
10.337000
 11
10.391000
 20
3.987000
 21
3.906000
  0
LINE
 10
10.391000
 11
10.410000
 20
3.906000
 21
3.810000
  0
LINE
 10
10.410000
 11
10.391000
 20
3.810000
 21
3.714000
  0
LINE
 10
10.391000
 11
10.337000
 20
3.714000
 21
3.633000
  0
LINE
 10
10.337000
 11
10.256000
 20
3.633000
 21
3.579000
  0
LINE
 10
10.256000
 11
10.160000
 20
3.579000
 21
3.560000
  0
LINE
 10
10.160000
 11
10.064000
 20
3.560000
 21
3.579000
  0
LINE
 10
10.064000
 11
9.983000
 20
3.579000
 21
3.633000
  0
LINE
 10
9.983000
 11
9.929000
 20
3.633000
 21
3.714000
  0
LINE
 10
9.929000
 11
9.910000
 20
3.714000
 21
3.810000
  0
LINE
 10
9.910000
 11
9.929000
 20
6.350000
 21
6.446000
  0
LINE
 10
9.929000
 11
9.983000
 20
6.446000
 21
6.527000
  0
LINE
 10
9.983000
 11
10.064000
 20
6.527000
 21
6.581000
  0
LINE
 10
10.064000
 11
10.160000
 20
6.581000
 21
6.600000
  0
LINE
 10
10.160000
 11
10.256000
 20
6.600000
 21
6.581000
  0
LINE
 10
10.256000
 11
10.337000
 20
6.581000
 21
6.527000
  0
LINE
 10
10.337000
 11
10.391000
 20
6.527000
 21
6.446000
  0
LINE
 10
10.391000
 11
10.410000
 20
6.446000
 21
6.350000
  0
LINE
 10
10.410000
 11
10.391000
 20
6.350000
 21
6.254000
  0
LINE
 10
10.391000
 11
10.337000
 20
6.254000
 21
6.173000
  0
LINE
 10
10.337000
 11
10.256000
 20
6.173000
 21
6.119000
  0
LINE
 10
10.256000
 11
10.160000
 20
6.119000
 21
6.100000
  0
LINE
 10
10.160000
 11
10.064000
 20
6.100000
 21
6.119000
  0
LINE
 10
10.064000
 11
9.983000
 20
6.119000
 21
6.173000
  0
LINE
 10
9.983000
 11
9.929000
 20
6.173000
 21
6.254000
  0
LINE
 10
9.929000
 11
9.910000
 20
6.254000
 21
6.350000
  0
LINE
 10
12.450000
 11
12.469000
 20
-6.350000
 21
-6.254000
  0
LINE
 10
12.469000
 11
12.523000
 20
-6.254000
 21
-6.173000
  0
LINE
 10
12.523000
 11
12.604000
 20
-6.173000
 21
-6.119000
  0
LINE
 10
12.604000
 11
12.700000
 20
-6.119000
 21
-6.100000
  0
LINE
 10
12.700000
 11
12.796000
 20
-6.100000
 21
-6.119000
  0
LINE
 10
12.796000
 11
12.877000
 20
-6.119000
 21
-6.173000
  0
LINE
 10
12.877000
 11
12.931000
 20
-6.173000
 21
-6.254000
  0
LINE
 10
12.931000
 11
12.950000
 20
-6.254000
 21
-6.350000
  0
LINE
 10
12.950000
 11
12.931000
 20
-6.350000
 21
-6.446000
  0
LINE
 10
12.931000
 11
12.877000
 20
-6.446000
 21
-6.527000
  0
LINE
 10
12.877000
 11
12.796000
 20
-6.527000
 21
-6.581000
  0
LINE
 10
12.796000
 11
12.700000
 20
-6.581000
 21
-6.600000
  0
LINE
 10
12.700000
 11
12.604000
 20
-6.600000
 21
-6.581000
  0
LINE
 10
12.604000
 11
12.523000
 20
-6.581000
 21
-6.527000
  0
LINE
 10
12.523000
 11
12.469000
 20
-6.527000
 21
-6.446000
  0
LINE
 10
12.469000
 11
12.450000
 20
-6.446000
 21
-6.350000
  0
LINE
 10
12.450000
 11
12.469000
 20
-3.810000
 21
-3.714000
  0
LINE
 10
12.469000
 11
12.523000
 20
-3.714000
 21
-3.633000
  0
LINE
 10
12.523000
 11
12.604000
 20
-3.633000
 21
-3.579000
  0
LINE
 10
12.604000
 11
12.700000
 20
-3.579000
 21
-3.560000
  0
LINE
 10
12.700000
 11
12.796000
 20
-3.560000
 21
-3.579000
  0
LINE
 10
12.796000
 11
12.877000
 20
-3.579000
 21
-3.633000
  0
LINE
 10
12.877000
 11
12.931000
 20
-3.633000
 21
-3.714000
  0
LINE
 10
12.931000
 11
12.950000
 20
-3.714000
 21
-3.810000
  0
LINE
 10
12.950000
 11
12.931000
 20
-3.810000
 21
-3.906000
  0
LINE
 10
12.931000
 11
12.877000
 20
-3.906000
 21
-3.987000
  0
LINE
 10
12.877000
 11
12.796000
 20
-3.987000
 21
-4.041000
  0
LINE
 10
12.796000
 11
12.700000
 20
-4.041000
 21
-4.060000
  0
LINE
 10
12.700000
 11
12.604000
 20
-4.060000
 21
-4.041000
  0
LINE
 10
12.604000
 11
12.523000
 20
-4.041000
 21
-3.987000
  0
LINE
 10
12.523000
 11
12.469000
 20
-3.987000
 21
-3.906000
  0
LINE
 10
12.469000
 11
12.450000
 20
-3.906000
 21
-3.810000
  0
LINE
 10
12.450000
 11
12.469000
 20
-1.270000
 21
-1.174000
  0
LINE
 10
12.469000
 11
12.523000
 20
-1.174000
 21
-1.093000
  0
LINE
 10
12.523000
 11
12.604000
 20
-1.093000
 21
-1.039000
  0
LINE
 10
12.604000
 11
12.700000
 20
-1.039000
 21
-1.020000
  0
LINE
 10
12.700000
 11
12.796000
 20
-1.020000
 21
-1.039000
  0
LINE
 10
12.796000
 11
12.877000
 20
-1.039000
 21
-1.093000
  0
LINE
 10
12.877000
 11
12.931000
 20
-1.093000
 21
-1.174000
  0
LINE
 10
12.931000
 11
12.950000
 20
-1.174000
 21
-1.270000
  0
LINE
 10
12.950000
 11
12.931000
 20
-1.270000
 21
-1.366000
  0
LINE
 10
12.931000
 11
12.877000
 20
-1.366000
 21
-1.447000
  0
LINE
 10
12.877000
 11
12.796000
 20
-1.447000
 21
-1.501000
  0
LINE
 10
12.796000
 11
12.700000
 20
-1.501000
 21
-1.520000
  0
LINE
 10
12.700000
 11
12.604000
 20
-1.520000
 21
-1.501000
  0
LINE
 10
12.604000
 11
12.523000
 20
-1.501000
 21
-1.447000
  0
LINE
 10
12.523000
 11
12.469000
 20
-1.447000
 21
-1.366000
  0
LINE
 10
12.469000
 11
12.450000
 20
-1.366000
 21
-1.270000
  0
LINE
 10
12.450000
 11
12.469000
 20
1.270000
 21
1.366000
  0
LINE
 10
12.469000
 11
12.523000
 20
1.366000
 21
1.447000
  0
LINE
 10
12.523000
 11
12.604000
 20
1.447000
 21
1.501000
  0
LINE
 10
12.604000
 11
12.700000
 20
1.501000
 21
1.520000
  0
LINE
 10
12.700000
 11
12.796000
 20
1.520000
 21
1.501000
  0
LINE
 10
12.796000
 11
12.877000
 20
1.501000
 21
1.447000
  0
LINE
 10
12.877000
 11
12.931000
 20
1.447000
 21
1.366000
  0
LINE
 10
12.931000
 11
12.950000
 20
1.366000
 21
1.270000
  0
LINE
 10
12.950000
 11
12.931000
 20
1.270000
 21
1.174000
  0
LINE
 10
12.931000
 11
12.877000
 20
1.174000
 21
1.093000
  0
LINE
 10
12.877000
 11
12.796000
 20
1.093000
 21
1.039000
  0
LINE
 10
12.796000
 11
12.700000
 20
1.039000
 21
1.020000
  0
LINE
 10
12.700000
 11
12.604000
 20
1.020000
 21
1.039000
  0
LINE
 10
12.604000
 11
12.523000
 20
1.039000
 21
1.093000
  0
LINE
 10
12.523000
 11
12.469000
 20
1.093000
 21
1.174000
  0
LINE
 10
12.469000
 11
12.450000
 20
1.174000
 21
1.270000
  0
LINE
 10
12.450000
 11
12.469000
 20
3.810000
 21
3.906000
  0
LINE
 10
12.469000
 11
12.523000
 20
3.906000
 21
3.987000
  0
LINE
 10
12.523000
 11
12.604000
 20
3.987000
 21
4.041000
  0
LINE
 10
12.604000
 11
12.700000
 20
4.041000
 21
4.060000
  0
LINE
 10
12.700000
 11
12.796000
 20
4.060000
 21
4.041000
  0
LINE
 10
12.796000
 11
12.877000
 20
4.041000
 21
3.987000
  0
LINE
 10
12.877000
 11
12.931000
 20
3.987000
 21
3.906000
  0
LINE
 10
12.931000
 11
12.950000
 20
3.906000
 21
3.810000
  0
LINE
 10
12.950000
 11
12.931000
 20
3.810000
 21
3.714000
  0
LINE
 10
12.931000
 11
12.877000
 20
3.714000
 21
3.633000
  0
LINE
 10
12.877000
 11
12.796000
 20
3.633000
 21
3.579000
  0
LINE
 10
12.796000
 11
12.700000
 20
3.579000
 21
3.560000
  0
LINE
 10
12.700000
 11
12.604000
 20
3.560000
 21
3.579000
  0
LINE
 10
12.604000
 11
12.523000
 20
3.579000
 21
3.633000
  0
LINE
 10
12.523000
 11
12.469000
 20
3.633000
 21
3.714000
  0
LINE
 10
12.469000
 11
12.450000
 20
3.714000
 21
3.810000
  0
ENDSEC
  0
EOF
