  0
SECTION
  2
ENTITIES
  0
LINE
 10
-259.000000
 11
-259.000000
 20
12.000000
 21
18.000000
  0
LINE
 10
-259.000000
 11
-253.000000
 20
18.000000
 21
18.000000
  0
LINE
 10
-253.000000
 11
-253.000000
 20
18.000000
 21
70.000000
  0
LINE
 10
-253.000000
 11
-259.000000
 20
70.000000
 21
70.000000
  0
LINE
 10
-259.000000
 11
-259.000000
 20
70.000000
 21
76.000000
  0
LINE
 10
-259.000000
 11
-253.000000
 20
76.000000
 21
76.000000
  0
LINE
 10
-253.000000
 11
-253.000000
 20
76.000000
 21
128.000000
  0
LINE
 10
-253.000000
 11
-259.000000
 20
128.000000
 21
128.000000
  0
LINE
 10
-259.000000
 11
-259.000000
 20
128.000000
 21
134.000000
  0
LINE
 10
-259.000000
 11
-253.000000
 20
134.000000
 21
134.000000
  0
LINE
 10
-253.000000
 11
-253.000000
 20
134.000000
 21
186.000000
  0
LINE
 10
-253.000000
 11
-259.000000
 20
186.000000
 21
186.000000
  0
LINE
 10
-259.000000
 11
-259.000000
 20
186.000000
 21
192.000000
  0
LINE
 10
-259.000000
 11
-253.000000
 20
192.000000
 21
192.000000
  0
LINE
 10
-253.000000
 11
-253.000000
 20
192.000000
 21
244.000000
  0
LINE
 10
-253.000000
 11
-259.000000
 20
244.000000
 21
244.000000
  0
LINE
 10
-259.000000
 11
-259.000000
 20
244.000000
 21
250.000000
  0
LINE
 10
-259.000000
 11
-253.000000
 20
250.000000
 21
250.000000
  0
LINE
 10
-253.000000
 11
-253.000000
 20
250.000000
 21
302.000000
  0
LINE
 10
-253.000000
 11
-259.000000
 20
302.000000
 21
302.000000
  0
LINE
 10
-259.000000
 11
-259.000000
 20
302.000000
 21
308.000000
  0
LINE
 10
-259.000000
 11
-253.000000
 20
308.000000
 21
308.000000
  0
LINE
 10
-253.000000
 11
-253.000000
 20
308.000000
 21
320.000000
  0
LINE
 10
-253.000000
 11
-241.000000
 20
320.000000
 21
320.000000
  0
LINE
 10
-241.000000
 11
-241.000000
 20
320.000000
 21
326.000000
  0
LINE
 10
-241.000000
 11
-235.000000
 20
326.000000
 21
326.000000
  0
LINE
 10
-235.000000
 11
-235.000000
 20
326.000000
 21
320.000000
  0
LINE
 10
-235.000000
 11
-200.000000
 20
320.000000
 21
320.000000
  0
LINE
 10
-200.000000
 11
-200.000000
 20
320.000000
 21
326.000000
  0
LINE
 10
-200.000000
 11
-194.000000
 20
326.000000
 21
326.000000
  0
LINE
 10
-194.000000
 11
-194.000000
 20
326.000000
 21
320.000000
  0
LINE
 10
-194.000000
 11
-159.000000
 20
320.000000
 21
320.000000
  0
LINE
 10
-159.000000
 11
-159.000000
 20
320.000000
 21
326.000000
  0
LINE
 10
-159.000000
 11
-153.000000
 20
326.000000
 21
326.000000
  0
LINE
 10
-153.000000
 11
-153.000000
 20
326.000000
 21
320.000000
  0
LINE
 10
-153.000000
 11
-118.000000
 20
320.000000
 21
320.000000
  0
LINE
 10
-118.000000
 11
-118.000000
 20
320.000000
 21
326.000000
  0
LINE
 10
-118.000000
 11
-112.000000
 20
326.000000
 21
326.000000
  0
LINE
 10
-112.000000
 11
-112.000000
 20
326.000000
 21
320.000000
  0
LINE
 10
-112.000000
 11
-77.000000
 20
320.000000
 21
320.000000
  0
LINE
 10
-77.000000
 11
-77.000000
 20
320.000000
 21
326.000000
  0
LINE
 10
-77.000000
 11
-71.000000
 20
326.000000
 21
326.000000
  0
LINE
 10
-71.000000
 11
-71.000000
 20
326.000000
 21
320.000000
  0
LINE
 10
-71.000000
 11
-36.000000
 20
320.000000
 21
320.000000
  0
LINE
 10
-36.000000
 11
-36.000000
 20
320.000000
 21
326.000000
  0
LINE
 10
-36.000000
 11
-30.000000
 20
326.000000
 21
326.000000
  0
LINE
 10
-30.000000
 11
-30.000000
 20
326.000000
 21
320.000000
  0
LINE
 10
-30.000000
 11
-18.000000
 20
320.000000
 21
320.000000
  0
LINE
 10
-18.000000
 11
-18.000000
 20
320.000000
 21
308.000000
  0
LINE
 10
-18.000000
 11
-12.000000
 20
308.000000
 21
308.000000
  0
LINE
 10
-12.000000
 11
-12.000000
 20
308.000000
 21
302.000000
  0
LINE
 10
-12.000000
 11
-18.000000
 20
302.000000
 21
302.000000
  0
LINE
 10
-18.000000
 11
-18.000000
 20
302.000000
 21
250.000000
  0
LINE
 10
-18.000000
 11
-12.000000
 20
250.000000
 21
250.000000
  0
LINE
 10
-12.000000
 11
-12.000000
 20
250.000000
 21
244.000000
  0
LINE
 10
-12.000000
 11
-18.000000
 20
244.000000
 21
244.000000
  0
LINE
 10
-18.000000
 11
-18.000000
 20
244.000000
 21
192.000000
  0
LINE
 10
-18.000000
 11
-12.000000
 20
192.000000
 21
192.000000
  0
LINE
 10
-12.000000
 11
-12.000000
 20
192.000000
 21
186.000000
  0
LINE
 10
-12.000000
 11
-18.000000
 20
186.000000
 21
186.000000
  0
LINE
 10
-18.000000
 11
-18.000000
 20
186.000000
 21
134.000000
  0
LINE
 10
-18.000000
 11
-12.000000
 20
134.000000
 21
134.000000
  0
LINE
 10
-12.000000
 11
-12.000000
 20
134.000000
 21
128.000000
  0
LINE
 10
-12.000000
 11
-18.000000
 20
128.000000
 21
128.000000
  0
LINE
 10
-18.000000
 11
-18.000000
 20
128.000000
 21
76.000000
  0
LINE
 10
-18.000000
 11
-12.000000
 20
76.000000
 21
76.000000
  0
LINE
 10
-12.000000
 11
-12.000000
 20
76.000000
 21
70.000000
  0
LINE
 10
-12.000000
 11
-18.000000
 20
70.000000
 21
70.000000
  0
LINE
 10
-18.000000
 11
-18.000000
 20
70.000000
 21
18.000000
  0
LINE
 10
-18.000000
 11
-12.000000
 20
18.000000
 21
18.000000
  0
LINE
 10
-12.000000
 11
-12.000000
 20
18.000000
 21
12.000000
  0
LINE
 10
-12.000000
 11
-18.000000
 20
12.000000
 21
12.000000
  0
LINE
 10
-18.000000
 11
-18.000000
 20
12.000000
 21
0.000000
  0
LINE
 10
-18.000000
 11
-253.000000
 20
0.000000
 21
0.000000
  0
LINE
 10
-253.000000
 11
-253.000000
 20
0.000000
 21
12.000000
  0
LINE
 10
-253.000000
 11
-259.000000
 20
12.000000
 21
12.000000
  0
LINE
 10
-259.000000
 11
-259.000000
 20
350.000000
 21
356.000000
  0
LINE
 10
-259.000000
 11
-253.000000
 20
356.000000
 21
356.000000
  0
LINE
 10
-253.000000
 11
-253.000000
 20
356.000000
 21
377.000000
  0
LINE
 10
-253.000000
 11
-259.000000
 20
377.000000
 21
377.000000
  0
LINE
 10
-259.000000
 11
-259.000000
 20
377.000000
 21
383.000000
  0
LINE
 10
-259.000000
 11
-253.000000
 20
383.000000
 21
383.000000
  0
LINE
 10
-253.000000
 11
-253.000000
 20
383.000000
 21
404.000000
  0
LINE
 10
-253.000000
 11
-259.000000
 20
404.000000
 21
404.000000
  0
LINE
 10
-259.000000
 11
-259.000000
 20
404.000000
 21
410.000000
  0
LINE
 10
-259.000000
 11
-253.000000
 20
410.000000
 21
410.000000
  0
LINE
 10
-253.000000
 11
-253.000000
 20
410.000000
 21
431.000000
  0
LINE
 10
-253.000000
 11
-259.000000
 20
431.000000
 21
431.000000
  0
LINE
 10
-259.000000
 11
-259.000000
 20
431.000000
 21
437.000000
  0
LINE
 10
-259.000000
 11
-253.000000
 20
437.000000
 21
437.000000
  0
LINE
 10
-253.000000
 11
-253.000000
 20
437.000000
 21
458.000000
  0
LINE
 10
-253.000000
 11
-259.000000
 20
458.000000
 21
458.000000
  0
LINE
 10
-259.000000
 11
-259.000000
 20
458.000000
 21
464.000000
  0
LINE
 10
-259.000000
 11
-253.000000
 20
464.000000
 21
464.000000
  0
LINE
 10
-253.000000
 11
-253.000000
 20
464.000000
 21
485.000000
  0
LINE
 10
-253.000000
 11
-259.000000
 20
485.000000
 21
485.000000
  0
LINE
 10
-259.000000
 11
-259.000000
 20
485.000000
 21
491.000000
  0
LINE
 10
-259.000000
 11
-253.000000
 20
491.000000
 21
491.000000
  0
LINE
 10
-253.000000
 11
-253.000000
 20
491.000000
 21
512.000000
  0
LINE
 10
-253.000000
 11
-259.000000
 20
512.000000
 21
512.000000
  0
LINE
 10
-259.000000
 11
-259.000000
 20
512.000000
 21
518.000000
  0
LINE
 10
-259.000000
 11
-253.000000
 20
518.000000
 21
518.000000
  0
LINE
 10
-253.000000
 11
-253.000000
 20
518.000000
 21
539.000000
  0
LINE
 10
-253.000000
 11
-259.000000
 20
539.000000
 21
539.000000
  0
LINE
 10
-259.000000
 11
-259.000000
 20
539.000000
 21
545.000000
  0
LINE
 10
-259.000000
 11
-253.000000
 20
545.000000
 21
545.000000
  0
LINE
 10
-253.000000
 11
-253.000000
 20
545.000000
 21
566.000000
  0
LINE
 10
-253.000000
 11
-259.000000
 20
566.000000
 21
566.000000
  0
LINE
 10
-259.000000
 11
-259.000000
 20
566.000000
 21
572.000000
  0
LINE
 10
-259.000000
 11
-253.000000
 20
572.000000
 21
572.000000
  0
LINE
 10
-253.000000
 11
-253.000000
 20
572.000000
 21
593.000000
  0
LINE
 10
-253.000000
 11
-259.000000
 20
593.000000
 21
593.000000
  0
LINE
 10
-259.000000
 11
-259.000000
 20
593.000000
 21
599.000000
  0
LINE
 10
-259.000000
 11
-253.000000
 20
599.000000
 21
599.000000
  0
LINE
 10
-253.000000
 11
-253.000000
 20
599.000000
 21
620.000000
  0
LINE
 10
-253.000000
 11
-259.000000
 20
620.000000
 21
620.000000
  0
LINE
 10
-259.000000
 11
-259.000000
 20
620.000000
 21
626.000000
  0
LINE
 10
-259.000000
 11
-253.000000
 20
626.000000
 21
626.000000
  0
LINE
 10
-253.000000
 11
-253.000000
 20
626.000000
 21
638.000000
  0
LINE
 10
-253.000000
 11
-18.000000
 20
638.000000
 21
638.000000
  0
LINE
 10
-18.000000
 11
-18.000000
 20
638.000000
 21
626.000000
  0
LINE
 10
-18.000000
 11
-12.000000
 20
626.000000
 21
626.000000
  0
LINE
 10
-12.000000
 11
-12.000000
 20
626.000000
 21
620.000000
  0
LINE
 10
-12.000000
 11
-18.000000
 20
620.000000
 21
620.000000
  0
LINE
 10
-18.000000
 11
-18.000000
 20
620.000000
 21
599.000000
  0
LINE
 10
-18.000000
 11
-12.000000
 20
599.000000
 21
599.000000
  0
LINE
 10
-12.000000
 11
-12.000000
 20
599.000000
 21
593.000000
  0
LINE
 10
-12.000000
 11
-18.000000
 20
593.000000
 21
593.000000
  0
LINE
 10
-18.000000
 11
-18.000000
 20
593.000000
 21
572.000000
  0
LINE
 10
-18.000000
 11
-12.000000
 20
572.000000
 21
572.000000
  0
LINE
 10
-12.000000
 11
-12.000000
 20
572.000000
 21
566.000000
  0
LINE
 10
-12.000000
 11
-18.000000
 20
566.000000
 21
566.000000
  0
LINE
 10
-18.000000
 11
-18.000000
 20
566.000000
 21
545.000000
  0
LINE
 10
-18.000000
 11
-12.000000
 20
545.000000
 21
545.000000
  0
LINE
 10
-12.000000
 11
-12.000000
 20
545.000000
 21
539.000000
  0
LINE
 10
-12.000000
 11
-18.000000
 20
539.000000
 21
539.000000
  0
LINE
 10
-18.000000
 11
-18.000000
 20
539.000000
 21
518.000000
  0
LINE
 10
-18.000000
 11
-12.000000
 20
518.000000
 21
518.000000
  0
LINE
 10
-12.000000
 11
-12.000000
 20
518.000000
 21
512.000000
  0
LINE
 10
-12.000000
 11
-18.000000
 20
512.000000
 21
512.000000
  0
LINE
 10
-18.000000
 11
-18.000000
 20
512.000000
 21
491.000000
  0
LINE
 10
-18.000000
 11
-12.000000
 20
491.000000
 21
491.000000
  0
LINE
 10
-12.000000
 11
-12.000000
 20
491.000000
 21
485.000000
  0
LINE
 10
-12.000000
 11
-18.000000
 20
485.000000
 21
485.000000
  0
LINE
 10
-18.000000
 11
-18.000000
 20
485.000000
 21
464.000000
  0
LINE
 10
-18.000000
 11
-12.000000
 20
464.000000
 21
464.000000
  0
LINE
 10
-12.000000
 11
-12.000000
 20
464.000000
 21
458.000000
  0
LINE
 10
-12.000000
 11
-18.000000
 20
458.000000
 21
458.000000
  0
LINE
 10
-18.000000
 11
-18.000000
 20
458.000000
 21
437.000000
  0
LINE
 10
-18.000000
 11
-12.000000
 20
437.000000
 21
437.000000
  0
LINE
 10
-12.000000
 11
-12.000000
 20
437.000000
 21
431.000000
  0
LINE
 10
-12.000000
 11
-18.000000
 20
431.000000
 21
431.000000
  0
LINE
 10
-18.000000
 11
-18.000000
 20
431.000000
 21
410.000000
  0
LINE
 10
-18.000000
 11
-12.000000
 20
410.000000
 21
410.000000
  0
LINE
 10
-12.000000
 11
-12.000000
 20
410.000000
 21
404.000000
  0
LINE
 10
-12.000000
 11
-18.000000
 20
404.000000
 21
404.000000
  0
LINE
 10
-18.000000
 11
-18.000000
 20
404.000000
 21
383.000000
  0
LINE
 10
-18.000000
 11
-12.000000
 20
383.000000
 21
383.000000
  0
LINE
 10
-12.000000
 11
-12.000000
 20
383.000000
 21
377.000000
  0
LINE
 10
-12.000000
 11
-18.000000
 20
377.000000
 21
377.000000
  0
LINE
 10
-18.000000
 11
-18.000000
 20
377.000000
 21
356.000000
  0
LINE
 10
-18.000000
 11
-12.000000
 20
356.000000
 21
356.000000
  0
LINE
 10
-12.000000
 11
-12.000000
 20
356.000000
 21
350.000000
  0
LINE
 10
-12.000000
 11
-18.000000
 20
350.000000
 21
350.000000
  0
LINE
 10
-18.000000
 11
-18.000000
 20
350.000000
 21
338.000000
  0
LINE
 10
-18.000000
 11
-253.000000
 20
338.000000
 21
338.000000
  0
LINE
 10
-253.000000
 11
-253.000000
 20
338.000000
 21
350.000000
  0
LINE
 10
-253.000000
 11
-259.000000
 20
350.000000
 21
350.000000
  0
LINE
 10
-241.000000
 11
-241.000000
 20
344.000000
 21
350.000000
  0
LINE
 10
-241.000000
 11
-235.000000
 20
350.000000
 21
350.000000
  0
LINE
 10
-235.000000
 11
-235.000000
 20
350.000000
 21
344.000000
  0
LINE
 10
-235.000000
 11
-241.000000
 20
344.000000
 21
344.000000
  0
LINE
 10
-241.000000
 11
-241.000000
 20
406.500000
 21
412.500000
  0
LINE
 10
-241.000000
 11
-235.000000
 20
412.500000
 21
412.500000
  0
LINE
 10
-235.000000
 11
-235.000000
 20
412.500000
 21
406.500000
  0
LINE
 10
-235.000000
 11
-241.000000
 20
406.500000
 21
406.500000
  0
LINE
 10
-241.000000
 11
-241.000000
 20
469.000000
 21
475.000000
  0
LINE
 10
-241.000000
 11
-235.000000
 20
475.000000
 21
475.000000
  0
LINE
 10
-235.000000
 11
-235.000000
 20
475.000000
 21
469.000000
  0
LINE
 10
-235.000000
 11
-241.000000
 20
469.000000
 21
469.000000
  0
LINE
 10
-241.000000
 11
-241.000000
 20
531.500000
 21
537.500000
  0
LINE
 10
-241.000000
 11
-235.000000
 20
537.500000
 21
537.500000
  0
LINE
 10
-235.000000
 11
-235.000000
 20
537.500000
 21
531.500000
  0
LINE
 10
-235.000000
 11
-241.000000
 20
531.500000
 21
531.500000
  0
LINE
 10
-241.000000
 11
-241.000000
 20
594.000000
 21
600.000000
  0
LINE
 10
-241.000000
 11
-235.000000
 20
600.000000
 21
600.000000
  0
LINE
 10
-235.000000
 11
-235.000000
 20
600.000000
 21
594.000000
  0
LINE
 10
-235.000000
 11
-241.000000
 20
594.000000
 21
594.000000
  0
LINE
 10
-200.000000
 11
-200.000000
 20
344.000000
 21
350.000000
  0
LINE
 10
-200.000000
 11
-194.000000
 20
350.000000
 21
350.000000
  0
LINE
 10
-194.000000
 11
-194.000000
 20
350.000000
 21
344.000000
  0
LINE
 10
-194.000000
 11
-200.000000
 20
344.000000
 21
344.000000
  0
LINE
 10
-200.000000
 11
-200.000000
 20
406.500000
 21
412.500000
  0
LINE
 10
-200.000000
 11
-194.000000
 20
412.500000
 21
412.500000
  0
LINE
 10
-194.000000
 11
-194.000000
 20
412.500000
 21
406.500000
  0
LINE
 10
-194.000000
 11
-200.000000
 20
406.500000
 21
406.500000
  0
LINE
 10
-200.000000
 11
-200.000000
 20
469.000000
 21
475.000000
  0
LINE
 10
-200.000000
 11
-194.000000
 20
475.000000
 21
475.000000
  0
LINE
 10
-194.000000
 11
-194.000000
 20
475.000000
 21
469.000000
  0
LINE
 10
-194.000000
 11
-200.000000
 20
469.000000
 21
469.000000
  0
LINE
 10
-200.000000
 11
-200.000000
 20
531.500000
 21
537.500000
  0
LINE
 10
-200.000000
 11
-194.000000
 20
537.500000
 21
537.500000
  0
LINE
 10
-194.000000
 11
-194.000000
 20
537.500000
 21
531.500000
  0
LINE
 10
-194.000000
 11
-200.000000
 20
531.500000
 21
531.500000
  0
LINE
 10
-200.000000
 11
-200.000000
 20
594.000000
 21
600.000000
  0
LINE
 10
-200.000000
 11
-194.000000
 20
600.000000
 21
600.000000
  0
LINE
 10
-194.000000
 11
-194.000000
 20
600.000000
 21
594.000000
  0
LINE
 10
-194.000000
 11
-200.000000
 20
594.000000
 21
594.000000
  0
LINE
 10
-159.000000
 11
-159.000000
 20
344.000000
 21
350.000000
  0
LINE
 10
-159.000000
 11
-153.000000
 20
350.000000
 21
350.000000
  0
LINE
 10
-153.000000
 11
-153.000000
 20
350.000000
 21
344.000000
  0
LINE
 10
-153.000000
 11
-159.000000
 20
344.000000
 21
344.000000
  0
LINE
 10
-159.000000
 11
-159.000000
 20
406.500000
 21
412.500000
  0
LINE
 10
-159.000000
 11
-153.000000
 20
412.500000
 21
412.500000
  0
LINE
 10
-153.000000
 11
-153.000000
 20
412.500000
 21
406.500000
  0
LINE
 10
-153.000000
 11
-159.000000
 20
406.500000
 21
406.500000
  0
LINE
 10
-159.000000
 11
-159.000000
 20
469.000000
 21
475.000000
  0
LINE
 10
-159.000000
 11
-153.000000
 20
475.000000
 21
475.000000
  0
LINE
 10
-153.000000
 11
-153.000000
 20
475.000000
 21
469.000000
  0
LINE
 10
-153.000000
 11
-159.000000
 20
469.000000
 21
469.000000
  0
LINE
 10
-159.000000
 11
-159.000000
 20
531.500000
 21
537.500000
  0
LINE
 10
-159.000000
 11
-153.000000
 20
537.500000
 21
537.500000
  0
LINE
 10
-153.000000
 11
-153.000000
 20
537.500000
 21
531.500000
  0
LINE
 10
-153.000000
 11
-159.000000
 20
531.500000
 21
531.500000
  0
LINE
 10
-159.000000
 11
-159.000000
 20
594.000000
 21
600.000000
  0
LINE
 10
-159.000000
 11
-153.000000
 20
600.000000
 21
600.000000
  0
LINE
 10
-153.000000
 11
-153.000000
 20
600.000000
 21
594.000000
  0
LINE
 10
-153.000000
 11
-159.000000
 20
594.000000
 21
594.000000
  0
LINE
 10
-118.000000
 11
-118.000000
 20
344.000000
 21
350.000000
  0
LINE
 10
-118.000000
 11
-112.000000
 20
350.000000
 21
350.000000
  0
LINE
 10
-112.000000
 11
-112.000000
 20
350.000000
 21
344.000000
  0
LINE
 10
-112.000000
 11
-118.000000
 20
344.000000
 21
344.000000
  0
LINE
 10
-118.000000
 11
-118.000000
 20
406.500000
 21
412.500000
  0
LINE
 10
-118.000000
 11
-112.000000
 20
412.500000
 21
412.500000
  0
LINE
 10
-112.000000
 11
-112.000000
 20
412.500000
 21
406.500000
  0
LINE
 10
-112.000000
 11
-118.000000
 20
406.500000
 21
406.500000
  0
LINE
 10
-118.000000
 11
-118.000000
 20
469.000000
 21
475.000000
  0
LINE
 10
-118.000000
 11
-112.000000
 20
475.000000
 21
475.000000
  0
LINE
 10
-112.000000
 11
-112.000000
 20
475.000000
 21
469.000000
  0
LINE
 10
-112.000000
 11
-118.000000
 20
469.000000
 21
469.000000
  0
LINE
 10
-118.000000
 11
-118.000000
 20
531.500000
 21
537.500000
  0
LINE
 10
-118.000000
 11
-112.000000
 20
537.500000
 21
537.500000
  0
LINE
 10
-112.000000
 11
-112.000000
 20
537.500000
 21
531.500000
  0
LINE
 10
-112.000000
 11
-118.000000
 20
531.500000
 21
531.500000
  0
LINE
 10
-118.000000
 11
-118.000000
 20
594.000000
 21
600.000000
  0
LINE
 10
-118.000000
 11
-112.000000
 20
600.000000
 21
600.000000
  0
LINE
 10
-112.000000
 11
-112.000000
 20
600.000000
 21
594.000000
  0
LINE
 10
-112.000000
 11
-118.000000
 20
594.000000
 21
594.000000
  0
LINE
 10
-77.000000
 11
-77.000000
 20
344.000000
 21
350.000000
  0
LINE
 10
-77.000000
 11
-71.000000
 20
350.000000
 21
350.000000
  0
LINE
 10
-71.000000
 11
-71.000000
 20
350.000000
 21
344.000000
  0
LINE
 10
-71.000000
 11
-77.000000
 20
344.000000
 21
344.000000
  0
LINE
 10
-77.000000
 11
-77.000000
 20
406.500000
 21
412.500000
  0
LINE
 10
-77.000000
 11
-71.000000
 20
412.500000
 21
412.500000
  0
LINE
 10
-71.000000
 11
-71.000000
 20
412.500000
 21
406.500000
  0
LINE
 10
-71.000000
 11
-77.000000
 20
406.500000
 21
406.500000
  0
LINE
 10
-77.000000
 11
-77.000000
 20
469.000000
 21
475.000000
  0
LINE
 10
-77.000000
 11
-71.000000
 20
475.000000
 21
475.000000
  0
LINE
 10
-71.000000
 11
-71.000000
 20
475.000000
 21
469.000000
  0
LINE
 10
-71.000000
 11
-77.000000
 20
469.000000
 21
469.000000
  0
LINE
 10
-77.000000
 11
-77.000000
 20
531.500000
 21
537.500000
  0
LINE
 10
-77.000000
 11
-71.000000
 20
537.500000
 21
537.500000
  0
LINE
 10
-71.000000
 11
-71.000000
 20
537.500000
 21
531.500000
  0
LINE
 10
-71.000000
 11
-77.000000
 20
531.500000
 21
531.500000
  0
LINE
 10
-77.000000
 11
-77.000000
 20
594.000000
 21
600.000000
  0
LINE
 10
-77.000000
 11
-71.000000
 20
600.000000
 21
600.000000
  0
LINE
 10
-71.000000
 11
-71.000000
 20
600.000000
 21
594.000000
  0
LINE
 10
-71.000000
 11
-77.000000
 20
594.000000
 21
594.000000
  0
LINE
 10
-36.000000
 11
-36.000000
 20
344.000000
 21
350.000000
  0
LINE
 10
-36.000000
 11
-30.000000
 20
350.000000
 21
350.000000
  0
LINE
 10
-30.000000
 11
-30.000000
 20
350.000000
 21
344.000000
  0
LINE
 10
-30.000000
 11
-36.000000
 20
344.000000
 21
344.000000
  0
LINE
 10
-36.000000
 11
-36.000000
 20
406.500000
 21
412.500000
  0
LINE
 10
-36.000000
 11
-30.000000
 20
412.500000
 21
412.500000
  0
LINE
 10
-30.000000
 11
-30.000000
 20
412.500000
 21
406.500000
  0
LINE
 10
-30.000000
 11
-36.000000
 20
406.500000
 21
406.500000
  0
LINE
 10
-36.000000
 11
-36.000000
 20
469.000000
 21
475.000000
  0
LINE
 10
-36.000000
 11
-30.000000
 20
475.000000
 21
475.000000
  0
LINE
 10
-30.000000
 11
-30.000000
 20
475.000000
 21
469.000000
  0
LINE
 10
-30.000000
 11
-36.000000
 20
469.000000
 21
469.000000
  0
LINE
 10
-36.000000
 11
-36.000000
 20
531.500000
 21
537.500000
  0
LINE
 10
-36.000000
 11
-30.000000
 20
537.500000
 21
537.500000
  0
LINE
 10
-30.000000
 11
-30.000000
 20
537.500000
 21
531.500000
  0
LINE
 10
-30.000000
 11
-36.000000
 20
531.500000
 21
531.500000
  0
LINE
 10
-36.000000
 11
-36.000000
 20
594.000000
 21
600.000000
  0
LINE
 10
-36.000000
 11
-30.000000
 20
600.000000
 21
600.000000
  0
LINE
 10
-30.000000
 11
-30.000000
 20
600.000000
 21
594.000000
  0
LINE
 10
-30.000000
 11
-36.000000
 20
594.000000
 21
594.000000
  0
LINE
 10
0.000000
 11
0.000000
 20
0.000000
 21
332.000000
  0
LINE
 10
0.000000
 11
300.000000
 20
332.000000
 21
332.000000
  0
LINE
 10
300.000000
 11
300.000000
 20
332.000000
 21
35.000000
  0
LINE
 10
300.000000
 11
299.235000
 20
35.000000
 21
27.723000
  0
LINE
 10
299.235000
 11
296.974000
 20
27.723000
 21
20.764000
  0
LINE
 10
296.974000
 11
293.316000
 20
20.764000
 21
14.428000
  0
LINE
 10
293.316000
 11
288.420000
 20
14.428000
 21
8.990000
  0
LINE
 10
288.420000
 11
282.500000
 20
8.990000
 21
4.689000
  0
LINE
 10
282.500000
 11
275.816000
 20
4.689000
 21
1.713000
  0
LINE
 10
275.816000
 11
268.658000
 20
1.713000
 21
0.192000
  0
LINE
 10
268.658000
 11
265.000000
 20
0.192000
 21
0.192000
  0
LINE
 10
265.000000
 11
265.000000
 20
0.192000
 21
0.000000
  0
LINE
 10
265.000000
 11
0.000000
 20
0.000000
 21
0.000000
  0
LINE
 10
6.000000
 11
6.000000
 20
12.000000
 21
18.000000
  0
LINE
 10
6.000000
 11
12.000000
 20
18.000000
 21
18.000000
  0
LINE
 10
12.000000
 11
12.000000
 20
18.000000
 21
12.000000
  0
LINE
 10
12.000000
 11
6.000000
 20
12.000000
 21
12.000000
  0
LINE
 10
6.000000
 11
6.000000
 20
70.000000
 21
76.000000
  0
LINE
 10
6.000000
 11
12.000000
 20
76.000000
 21
76.000000
  0
LINE
 10
12.000000
 11
12.000000
 20
76.000000
 21
70.000000
  0
LINE
 10
12.000000
 11
6.000000
 20
70.000000
 21
70.000000
  0
LINE
 10
6.000000
 11
6.000000
 20
128.000000
 21
134.000000
  0
LINE
 10
6.000000
 11
12.000000
 20
134.000000
 21
134.000000
  0
LINE
 10
12.000000
 11
12.000000
 20
134.000000
 21
128.000000
  0
LINE
 10
12.000000
 11
6.000000
 20
128.000000
 21
128.000000
  0
LINE
 10
6.000000
 11
6.000000
 20
186.000000
 21
192.000000
  0
LINE
 10
6.000000
 11
12.000000
 20
192.000000
 21
192.000000
  0
LINE
 10
12.000000
 11
12.000000
 20
192.000000
 21
186.000000
  0
LINE
 10
12.000000
 11
6.000000
 20
186.000000
 21
186.000000
  0
LINE
 10
6.000000
 11
6.000000
 20
244.000000
 21
250.000000
  0
LINE
 10
6.000000
 11
12.000000
 20
250.000000
 21
250.000000
  0
LINE
 10
12.000000
 11
12.000000
 20
250.000000
 21
244.000000
  0
LINE
 10
12.000000
 11
6.000000
 20
244.000000
 21
244.000000
  0
LINE
 10
6.000000
 11
6.000000
 20
302.000000
 21
308.000000
  0
LINE
 10
6.000000
 11
12.000000
 20
308.000000
 21
308.000000
  0
LINE
 10
12.000000
 11
12.000000
 20
308.000000
 21
302.000000
  0
LINE
 10
12.000000
 11
6.000000
 20
302.000000
 21
302.000000
  0
LINE
 10
12.000000
 11
12.000000
 20
320.000000
 21
326.000000
  0
LINE
 10
12.000000
 11
18.000000
 20
326.000000
 21
326.000000
  0
LINE
 10
18.000000
 11
18.000000
 20
326.000000
 21
320.000000
  0
LINE
 10
18.000000
 11
12.000000
 20
320.000000
 21
320.000000
  0
LINE
 10
39.000000
 11
39.000000
 20
320.000000
 21
326.000000
  0
LINE
 10
39.000000
 11
45.000000
 20
326.000000
 21
326.000000
  0
LINE
 10
45.000000
 11
45.000000
 20
326.000000
 21
320.000000
  0
LINE
 10
45.000000
 11
39.000000
 20
320.000000
 21
320.000000
  0
LINE
 10
66.000000
 11
66.000000
 20
320.000000
 21
326.000000
  0
LINE
 10
66.000000
 11
72.000000
 20
326.000000
 21
326.000000
  0
LINE
 10
72.000000
 11
72.000000
 20
326.000000
 21
320.000000
  0
LINE
 10
72.000000
 11
66.000000
 20
320.000000
 21
320.000000
  0
LINE
 10
68.500000
 11
68.500000
 20
12.000000
 21
18.000000
  0
LINE
 10
68.500000
 11
74.500000
 20
18.000000
 21
18.000000
  0
LINE
 10
74.500000
 11
74.500000
 20
18.000000
 21
12.000000
  0
LINE
 10
74.500000
 11
68.500000
 20
12.000000
 21
12.000000
  0
LINE
 10
68.500000
 11
68.500000
 20
70.000000
 21
76.000000
  0
LINE
 10
68.500000
 11
74.500000
 20
76.000000
 21
76.000000
  0
LINE
 10
74.500000
 11
74.500000
 20
76.000000
 21
70.000000
  0
LINE
 10
74.500000
 11
68.500000
 20
70.000000
 21
70.000000
  0
LINE
 10
68.500000
 11
68.500000
 20
128.000000
 21
134.000000
  0
LINE
 10
68.500000
 11
74.500000
 20
134.000000
 21
134.000000
  0
LINE
 10
74.500000
 11
74.500000
 20
134.000000
 21
128.000000
  0
LINE
 10
74.500000
 11
68.500000
 20
128.000000
 21
128.000000
  0
LINE
 10
68.500000
 11
68.500000
 20
186.000000
 21
192.000000
  0
LINE
 10
68.500000
 11
74.500000
 20
192.000000
 21
192.000000
  0
LINE
 10
74.500000
 11
74.500000
 20
192.000000
 21
186.000000
  0
LINE
 10
74.500000
 11
68.500000
 20
186.000000
 21
186.000000
  0
LINE
 10
68.500000
 11
68.500000
 20
244.000000
 21
250.000000
  0
LINE
 10
68.500000
 11
74.500000
 20
250.000000
 21
250.000000
  0
LINE
 10
74.500000
 11
74.500000
 20
250.000000
 21
244.000000
  0
LINE
 10
74.500000
 11
68.500000
 20
244.000000
 21
244.000000
  0
LINE
 10
68.500000
 11
68.500000
 20
302.000000
 21
308.000000
  0
LINE
 10
68.500000
 11
74.500000
 20
308.000000
 21
308.000000
  0
LINE
 10
74.500000
 11
74.500000
 20
308.000000
 21
302.000000
  0
LINE
 10
74.500000
 11
68.500000
 20
302.000000
 21
302.000000
  0
LINE
 10
93.000000
 11
93.000000
 20
320.000000
 21
326.000000
  0
LINE
 10
93.000000
 11
99.000000
 20
326.000000
 21
326.000000
  0
LINE
 10
99.000000
 11
99.000000
 20
326.000000
 21
320.000000
  0
LINE
 10
99.000000
 11
93.000000
 20
320.000000
 21
320.000000
  0
LINE
 10
120.000000
 11
120.000000
 20
320.000000
 21
326.000000
  0
LINE
 10
120.000000
 11
126.000000
 20
326.000000
 21
326.000000
  0
LINE
 10
126.000000
 11
126.000000
 20
326.000000
 21
320.000000
  0
LINE
 10
126.000000
 11
120.000000
 20
320.000000
 21
320.000000
  0
LINE
 10
131.000000
 11
131.000000
 20
12.000000
 21
18.000000
  0
LINE
 10
131.000000
 11
137.000000
 20
18.000000
 21
18.000000
  0
LINE
 10
137.000000
 11
137.000000
 20
18.000000
 21
12.000000
  0
LINE
 10
137.000000
 11
131.000000
 20
12.000000
 21
12.000000
  0
LINE
 10
131.000000
 11
131.000000
 20
70.000000
 21
76.000000
  0
LINE
 10
131.000000
 11
137.000000
 20
76.000000
 21
76.000000
  0
LINE
 10
137.000000
 11
137.000000
 20
76.000000
 21
70.000000
  0
LINE
 10
137.000000
 11
131.000000
 20
70.000000
 21
70.000000
  0
LINE
 10
131.000000
 11
131.000000
 20
128.000000
 21
134.000000
  0
LINE
 10
131.000000
 11
137.000000
 20
134.000000
 21
134.000000
  0
LINE
 10
137.000000
 11
137.000000
 20
134.000000
 21
128.000000
  0
LINE
 10
137.000000
 11
131.000000
 20
128.000000
 21
128.000000
  0
LINE
 10
131.000000
 11
131.000000
 20
186.000000
 21
192.000000
  0
LINE
 10
131.000000
 11
137.000000
 20
192.000000
 21
192.000000
  0
LINE
 10
137.000000
 11
137.000000
 20
192.000000
 21
186.000000
  0
LINE
 10
137.000000
 11
131.000000
 20
186.000000
 21
186.000000
  0
LINE
 10
131.000000
 11
131.000000
 20
244.000000
 21
250.000000
  0
LINE
 10
131.000000
 11
137.000000
 20
250.000000
 21
250.000000
  0
LINE
 10
137.000000
 11
137.000000
 20
250.000000
 21
244.000000
  0
LINE
 10
137.000000
 11
131.000000
 20
244.000000
 21
244.000000
  0
LINE
 10
131.000000
 11
131.000000
 20
302.000000
 21
308.000000
  0
LINE
 10
131.000000
 11
137.000000
 20
308.000000
 21
308.000000
  0
LINE
 10
137.000000
 11
137.000000
 20
308.000000
 21
302.000000
  0
LINE
 10
137.000000
 11
131.000000
 20
302.000000
 21
302.000000
  0
LINE
 10
147.000000
 11
147.000000
 20
320.000000
 21
326.000000
  0
LINE
 10
147.000000
 11
153.000000
 20
326.000000
 21
326.000000
  0
LINE
 10
153.000000
 11
153.000000
 20
326.000000
 21
320.000000
  0
LINE
 10
153.000000
 11
147.000000
 20
320.000000
 21
320.000000
  0
LINE
 10
174.000000
 11
174.000000
 20
320.000000
 21
326.000000
  0
LINE
 10
174.000000
 11
180.000000
 20
326.000000
 21
326.000000
  0
LINE
 10
180.000000
 11
180.000000
 20
326.000000
 21
320.000000
  0
LINE
 10
180.000000
 11
174.000000
 20
320.000000
 21
320.000000
  0
LINE
 10
193.500000
 11
193.500000
 20
12.000000
 21
18.000000
  0
LINE
 10
193.500000
 11
199.500000
 20
18.000000
 21
18.000000
  0
LINE
 10
199.500000
 11
199.500000
 20
18.000000
 21
12.000000
  0
LINE
 10
199.500000
 11
193.500000
 20
12.000000
 21
12.000000
  0
LINE
 10
193.500000
 11
193.500000
 20
70.000000
 21
76.000000
  0
LINE
 10
193.500000
 11
199.500000
 20
76.000000
 21
76.000000
  0
LINE
 10
199.500000
 11
199.500000
 20
76.000000
 21
70.000000
  0
LINE
 10
199.500000
 11
193.500000
 20
70.000000
 21
70.000000
  0
LINE
 10
193.500000
 11
193.500000
 20
128.000000
 21
134.000000
  0
LINE
 10
193.500000
 11
199.500000
 20
134.000000
 21
134.000000
  0
LINE
 10
199.500000
 11
199.500000
 20
134.000000
 21
128.000000
  0
LINE
 10
199.500000
 11
193.500000
 20
128.000000
 21
128.000000
  0
LINE
 10
193.500000
 11
193.500000
 20
186.000000
 21
192.000000
  0
LINE
 10
193.500000
 11
199.500000
 20
192.000000
 21
192.000000
  0
LINE
 10
199.500000
 11
199.500000
 20
192.000000
 21
186.000000
  0
LINE
 10
199.500000
 11
193.500000
 20
186.000000
 21
186.000000
  0
LINE
 10
193.500000
 11
193.500000
 20
244.000000
 21
250.000000
  0
LINE
 10
193.500000
 11
199.500000
 20
250.000000
 21
250.000000
  0
LINE
 10
199.500000
 11
199.500000
 20
250.000000
 21
244.000000
  0
LINE
 10
199.500000
 11
193.500000
 20
244.000000
 21
244.000000
  0
LINE
 10
193.500000
 11
193.500000
 20
302.000000
 21
308.000000
  0
LINE
 10
193.500000
 11
199.500000
 20
308.000000
 21
308.000000
  0
LINE
 10
199.500000
 11
199.500000
 20
308.000000
 21
302.000000
  0
LINE
 10
199.500000
 11
193.500000
 20
302.000000
 21
302.000000
  0
LINE
 10
201.000000
 11
201.000000
 20
320.000000
 21
326.000000
  0
LINE
 10
201.000000
 11
207.000000
 20
326.000000
 21
326.000000
  0
LINE
 10
207.000000
 11
207.000000
 20
326.000000
 21
320.000000
  0
LINE
 10
207.000000
 11
201.000000
 20
320.000000
 21
320.000000
  0
LINE
 10
228.000000
 11
228.000000
 20
320.000000
 21
326.000000
  0
LINE
 10
228.000000
 11
234.000000
 20
326.000000
 21
326.000000
  0
LINE
 10
234.000000
 11
234.000000
 20
326.000000
 21
320.000000
  0
LINE
 10
234.000000
 11
228.000000
 20
320.000000
 21
320.000000
  0
LINE
 10
255.000000
 11
255.000000
 20
320.000000
 21
326.000000
  0
LINE
 10
255.000000
 11
261.000000
 20
326.000000
 21
326.000000
  0
LINE
 10
261.000000
 11
261.000000
 20
326.000000
 21
320.000000
  0
LINE
 10
261.000000
 11
255.000000
 20
320.000000
 21
320.000000
  0
LINE
 10
256.000000
 11
256.000000
 20
12.000000
 21
18.000000
  0
LINE
 10
256.000000
 11
262.000000
 20
18.000000
 21
18.000000
  0
LINE
 10
262.000000
 11
262.000000
 20
18.000000
 21
12.000000
  0
LINE
 10
262.000000
 11
256.000000
 20
12.000000
 21
12.000000
  0
LINE
 10
256.000000
 11
256.000000
 20
70.000000
 21
76.000000
  0
LINE
 10
256.000000
 11
262.000000
 20
76.000000
 21
76.000000
  0
LINE
 10
262.000000
 11
262.000000
 20
76.000000
 21
70.000000
  0
LINE
 10
262.000000
 11
256.000000
 20
70.000000
 21
70.000000
  0
LINE
 10
256.000000
 11
256.000000
 20
128.000000
 21
134.000000
  0
LINE
 10
256.000000
 11
262.000000
 20
134.000000
 21
134.000000
  0
LINE
 10
262.000000
 11
262.000000
 20
134.000000
 21
128.000000
  0
LINE
 10
262.000000
 11
256.000000
 20
128.000000
 21
128.000000
  0
LINE
 10
256.000000
 11
256.000000
 20
186.000000
 21
192.000000
  0
LINE
 10
256.000000
 11
262.000000
 20
192.000000
 21
192.000000
  0
LINE
 10
262.000000
 11
262.000000
 20
192.000000
 21
186.000000
  0
LINE
 10
262.000000
 11
256.000000
 20
186.000000
 21
186.000000
  0
LINE
 10
256.000000
 11
256.000000
 20
244.000000
 21
250.000000
  0
LINE
 10
256.000000
 11
262.000000
 20
250.000000
 21
250.000000
  0
LINE
 10
262.000000
 11
262.000000
 20
250.000000
 21
244.000000
  0
LINE
 10
262.000000
 11
256.000000
 20
244.000000
 21
244.000000
  0
LINE
 10
256.000000
 11
256.000000
 20
302.000000
 21
308.000000
  0
LINE
 10
256.000000
 11
262.000000
 20
308.000000
 21
308.000000
  0
LINE
 10
262.000000
 11
262.000000
 20
308.000000
 21
302.000000
  0
LINE
 10
262.000000
 11
256.000000
 20
302.000000
 21
302.000000
  0
LINE
 10
282.000000
 11
282.000000
 20
320.000000
 21
326.000000
  0
LINE
 10
282.000000
 11
288.000000
 20
326.000000
 21
326.000000
  0
LINE
 10
288.000000
 11
288.000000
 20
326.000000
 21
320.000000
  0
LINE
 10
288.000000
 11
282.000000
 20
320.000000
 21
320.000000
  0
ENDSEC
  0
EOF
