999
dxflib 2.0.4.8
  0
SECTION
  2
HEADER
  9
$ACADVER
  1
AC1015
  9
$HANDSEED
  5
FFFF
  9
$DIMASZ
 40
2.5
  9
$DIMGAP
 40
0.625
  9
$DIMEXO
 40
0.625
  9
$INSUNITS
 70
4
  9
$DIMTXT
 40
2.5
  9
$DIMSTYLE
  2
Standard
  9
$PLIMMAX
 10
210.0
 20
297.0
  9
$PLIMMIN
 10
0.0
 20
0.0
  9
$DIMEXE
 40
1.25
  0
ENDSEC
  0
SECTION
  2
TABLES
  0
TABLE
  2
VPORT
  5
8
100
AcDbSymbolTable
 70
1
  0
VPORT
  5
30
100
AcDbSymbolTableRecord
100
AcDbViewportTableRecord
  2
*Active
 70
0
 10
0.0
 20
0.0
 11
1.0
 21
1.0
 12
286.3055555555554861
 22
148.5
 13
0.0
 23
0.0
 14
10.0
 24
10.0
 15
10.0
 25
10.0
 16
0.0
 26
0.0
 36
1.0
 17
0.0
 27
0.0
 37
0.0
 40
297.0
 41
1.92798353909465
 42
50.0
 43
0.0
 44
0.0
 50
0.0
 51
0.0
 71
0
 72
100
 73
1
 74
3
 75
1
 76
1
 77
0
 78
0
281
0
 65
1
110
0.0
120
0.0
130
0.0
111
1.0
121
0.0
131
0.0
112
0.0
122
1.0
132
0.0
 79
0
146
0.0
  0
ENDTAB
  0
TABLE
  2
LTYPE
  5
5
100
AcDbSymbolTable
 70
21
  0
LTYPE
  5
14
100
AcDbSymbolTableRecord
100
AcDbLinetypeTableRecord
  2
ByBlock
 70
0
  3

 72
65
 73
0
 40
0.0
  0
LTYPE
  5
15
100
AcDbSymbolTableRecord
100
AcDbLinetypeTableRecord
  2
ByLayer
 70
0
  3

 72
65
 73
0
 40
0.0
  0
LTYPE
  5
16
100
AcDbSymbolTableRecord
100
AcDbLinetypeTableRecord
  2
CONTINUOUS
 70
0
  3
Solid line
 72
65
 73
0
 40
0.0
  0
LTYPE
  5
31
100
AcDbSymbolTableRecord
100
AcDbLinetypeTableRecord
  2
DOT
 70
0
  3
Dot . . . . . . . . . . . . . . . . . . . . . .
 72
65
 73
2
 40
6.3499999999999996
 49
0.0
 74
0
 49
-6.3499999999999996
 74
0
  0
LTYPE
  5
32
100
AcDbSymbolTableRecord
100
AcDbLinetypeTableRecord
  2
DOT2
 70
0
  3
Dot (.5x) .....................................
 72
65
 73
2
 40
3.1749999999999998
 49
0.0
 74
0
 49
-3.1749999999999998
 74
0
  0
LTYPE
  5
33
100
AcDbSymbolTableRecord
100
AcDbLinetypeTableRecord
  2
DOTX2
 70
0
  3
Dot (2x) .  .  .  .  .  .  .  .  .  .  .  .  .
 72
65
 73
2
 40
12.6999999999999993
 49
0.0
 74
0
 49
-12.6999999999999993
 74
0
  0
LTYPE
  5
34
100
AcDbSymbolTableRecord
100
AcDbLinetypeTableRecord
  2
DASHED
 70
0
  3
Dashed __ __ __ __ __ __ __ __ __ __ __ __ __ _
 72
65
 73
2
 40
19.0500000000000007
 49
12.6999999999999993
 74
0
 49
-6.3499999999999996
 74
0
  0
LTYPE
  5
35
100
AcDbSymbolTableRecord
100
AcDbLinetypeTableRecord
  2
DASHED2
 70
0
  3
Dashed (.5x) _ _ _ _ _ _ _ _ _ _ _ _ _ _ _ _ _
 72
65
 73
2
 40
9.5250000000000004
 49
6.3499999999999996
 74
0
 49
-3.1749999999999998
 74
0
  0
LTYPE
  5
36
100
AcDbSymbolTableRecord
100
AcDbLinetypeTableRecord
  2
DASHEDX2
 70
0
  3
Dashed (2x) ____  ____  ____  ____  ____  ___
 72
65
 73
2
 40
38.1000000000000014
 49
25.3999999999999986
 74
0
 49
-12.6999999999999993
 74
0
  0
LTYPE
  5
37
100
AcDbSymbolTableRecord
100
AcDbLinetypeTableRecord
  2
DASHDOT
 70
0
  3
Dash dot __ . __ . __ . __ . __ . __ . __ . __
 72
65
 73
4
 40
25.3999999999999986
 49
12.6999999999999993
 74
0
 49
-6.3499999999999996
 74
0
 49
0.0
 74
0
 49
-6.3499999999999996
 74
0
  0
LTYPE
  5
38
100
AcDbSymbolTableRecord
100
AcDbLinetypeTableRecord
  2
DASHDOT2
 70
0
  3
Dash dot (.5x) _._._._._._._._._._._._._._._.
 72
65
 73
4
 40
12.6999999999999993
 49
6.3499999999999996
 74
0
 49
-3.1749999999999998
 74
0
 49
0.0
 74
0
 49
-3.1749999999999998
 74
0
  0
LTYPE
  5
39
100
AcDbSymbolTableRecord
100
AcDbLinetypeTableRecord
  2
DASHDOTX2
 70
0
  3
Dash dot (2x) ____  .  ____  .  ____  .  ___
 72
65
 73
4
 40
50.7999999999999972
 49
25.3999999999999986
 74
0
 49
-12.6999999999999993
 74
0
 49
0.0
 74
0
 49
-12.6999999999999993
 74
0
  0
LTYPE
  5
3A
100
AcDbSymbolTableRecord
100
AcDbLinetypeTableRecord
  2
DIVIDE
 70
0
  3
Divide ____ . . ____ . . ____ . . ____ . . ____
 72
65
 73
6
 40
31.75
 49
12.6999999999999993
 74
0
 49
-6.3499999999999996
 74
0
 49
0.0
 74
0
 49
-6.3499999999999996
 74
0
 49
0.0
 74
0
 49
-6.3499999999999996
 74
0
  0
LTYPE
  5
3B
100
AcDbSymbolTableRecord
100
AcDbLinetypeTableRecord
  2
DIVIDE2
 70
0
  3
Divide (.5x) __..__..__..__..__..__..__..__.._
 72
65
 73
6
 40
15.875
 49
6.3499999999999996
 74
0
 49
-3.1749999999999998
 74
0
 49
0.0
 74
0
 49
-3.1749999999999998
 74
0
 49
0.0
 74
0
 49
-3.1749999999999998
 74
0
  0
LTYPE
  5
3C
100
AcDbSymbolTableRecord
100
AcDbLinetypeTableRecord
  2
DIVIDEX2
 70
0
  3
Divide (2x) ________  .  .  ________  .  .  _
 72
65
 73
6
 40
63.5
 49
25.3999999999999986
 74
0
 49
-12.6999999999999993
 74
0
 49
0.0
 74
0
 49
-12.6999999999999993
 74
0
 49
0.0
 74
0
 49
-12.6999999999999993
 74
0
  0
LTYPE
  5
3D
100
AcDbSymbolTableRecord
100
AcDbLinetypeTableRecord
  2
CENTER
 70
0
  3
Center ____ _ ____ _ ____ _ ____ _ ____ _ ____
 72
65
 73
4
 40
50.7999999999999972
 49
31.75
 74
0
 49
-6.3499999999999996
 74
0
 49
6.3499999999999996
 74
0
 49
-6.3499999999999996
 74
0
  0
LTYPE
  5
3E
100
AcDbSymbolTableRecord
100
AcDbLinetypeTableRecord
  2
CENTER2
 70
0
  3
Center (.5x) ___ _ ___ _ ___ _ ___ _ ___ _ ___
 72
65
 73
4
 40
28.5749999999999993
 49
19.0500000000000007
 74
0
 49
-3.1749999999999998
 74
0
 49
3.1749999999999998
 74
0
 49
-3.1749999999999998
 74
0
  0
LTYPE
  5
3F
100
AcDbSymbolTableRecord
100
AcDbLinetypeTableRecord
  2
CENTERX2
 70
0
  3
Center (2x) ________  __  ________  __  _____
 72
65
 73
4
 40
101.5999999999999943
 49
63.5
 74
0
 49
-12.6999999999999993
 74
0
 49
12.6999999999999993
 74
0
 49
-12.6999999999999993
 74
0
  0
LTYPE
  5
40
100
AcDbSymbolTableRecord
100
AcDbLinetypeTableRecord
  2
BORDER
 70
0
  3
Border __ __ . __ __ . __ __ . __ __ . __ __ .
 72
65
 73
6
 40
44.4500000000000028
 49
12.6999999999999993
 74
0
 49
-6.3499999999999996
 74
0
 49
12.6999999999999993
 74
0
 49
-6.3499999999999996
 74
0
 49
0.0
 74
0
 49
-6.3499999999999996
 74
0
  0
LTYPE
  5
41
100
AcDbSymbolTableRecord
100
AcDbLinetypeTableRecord
  2
BORDER2
 70
0
  3
Border (.5x) __.__.__.__.__.__.__.__.__.__.__.
 72
65
 73
6
 40
22.2250000000000014
 49
6.3499999999999996
 74
0
 49
-3.1749999999999998
 74
0
 49
6.3499999999999996
 74
0
 49
-3.1749999999999998
 74
0
 49
0.0
 74
0
 49
-3.1749999999999998
 74
0
  0
LTYPE
  5
42
100
AcDbSymbolTableRecord
100
AcDbLinetypeTableRecord
  2
BORDERX2
 70
0
  3
Border (2x) ____  ____  .  ____  ____  .  ___
 72
65
 73
6
 40
88.9000000000000057
 49
25.3999999999999986
 74
0
 49
-12.6999999999999993
 74
0
 49
25.3999999999999986
 74
0
 49
-12.6999999999999993
 74
0
 49
0.0
 74
0
 49
-12.6999999999999993
 74
0
  0
ENDTAB
  0
TABLE
  2
LAYER
  5
2
100
AcDbSymbolTable
 70
6
  0
LAYER
  5
10
100
AcDbSymbolTableRecord
100
AcDbLayerTableRecord
  2
0
 70
0
 62
7
  6
CONTINUOUS
370
0
390
F
  0
LAYER
  5
43
100
AcDbSymbolTableRecord
100
AcDbLayerTableRecord
  2
g15
 70
0
 62
3
  6
CONTINUOUS
370
0
390
F
  0
LAYER
  5
44
100
AcDbSymbolTableRecord
100
AcDbLayerTableRecord
  2
g3
 70
0
 62
1
  6
CONTINUOUS
370
0
390
F
  0
LAYER
  5
45
100
AcDbSymbolTableRecord
100
AcDbLayerTableRecord
  2
dim
 70
0
 62
2
  6
CONTINUOUS
370
0
390
F
  0
LAYER
  5
46
100
AcDbSymbolTableRecord
100
AcDbLayerTableRecord
  2
lock
 70
0
 62
6
  6
CONTINUOUS
370
0
390
F
  0
LAYER
  5
47
100
AcDbSymbolTableRecord
100
AcDbLayerTableRecord
  2
axis
 70
0
 62
4
  6
CONTINUOUS
370
0
390
F
  0
ENDTAB
  0
TABLE
  2
STYLE
  5
3
100
AcDbSymbolTable
 70
1
  0
STYLE
  5
11
100
AcDbSymbolTableRecord
100
AcDbTextStyleTableRecord
  2
Standard
 70
0
 40
0.0
 41
0.75
 50
0.0
 71
0
 42
2.5
  3
txt
  4

  0
ENDTAB
  0
TABLE
  2
VIEW
  5
6
100
AcDbSymbolTable
 70
0
  0
ENDTAB
  0
TABLE
  2
UCS
  5
7
100
AcDbSymbolTable
 70
0
  0
ENDTAB
  0
TABLE
  2
APPID
  5
9
100
AcDbSymbolTable
 70
1
  0
APPID
  5
12
100
AcDbSymbolTableRecord
100
AcDbRegAppTableRecord
  2
ACAD
 70
0
  0
ENDTAB
  0
TABLE
  2
DIMSTYLE
  5
A
100
AcDbSymbolTable
 70
1
100
AcDbDimStyleTable
 71
0
  0
DIMSTYLE
105
27
100
AcDbSymbolTableRecord
100
AcDbDimStyleTableRecord
  2
Standard
 41
2.5
 42
0.625
 43
3.75
 44
1.25
 70
0
 73
0
 74
0
 77
1
 78
8
140
2.5
141
2.5
143
0.03937007874016
147
0.625
171
3
172
1
271
2
272
2
274
3
278
44
283
0
284
8
340
11
  0
ENDTAB
  0
TABLE
  2
BLOCK_RECORD
  5
1
100
AcDbSymbolTable
 70
1
  0
BLOCK_RECORD
  5
1F
100
AcDbSymbolTableRecord
100
AcDbBlockTableRecord
  2
*Model_Space
340
22
  0
BLOCK_RECORD
  5
1B
100
AcDbSymbolTableRecord
100
AcDbBlockTableRecord
  2
*Paper_Space
340
1E
  0
BLOCK_RECORD
  5
23
100
AcDbSymbolTableRecord
100
AcDbBlockTableRecord
  2
*Paper_Space0
340
26
  0
ENDTAB
  0
ENDSEC
  0
SECTION
  2
BLOCKS
  0
BLOCK
  5
20
100
AcDbEntity
  8
0
100
AcDbBlockBegin
  2
*Model_Space
 70
0
 10
0.0
 20
0.0
 30
0.0
  3
*Model_Space
  1

  0
ENDBLK
  5
21
100
AcDbEntity
  8
0
100
AcDbBlockEnd
  0
BLOCK
  5
1C
100
AcDbEntity
 67
1
  8
0
100
AcDbBlockBegin
  2
*Paper_Space
 70
0
 10
0.0
 20
0.0
 30
0.0
  3
*Paper_Space
  1

  0
ENDBLK
  5
1D
100
AcDbEntity
 67
1
  8
0
100
AcDbBlockEnd
  0
BLOCK
  5
24
100
AcDbEntity
  8
0
100
AcDbBlockBegin
  2
*Paper_Space0
 70
0
 10
0.0
 20
0.0
 30
0.0
  3
*Paper_Space0
  1

  0
ENDBLK
  5
25
100
AcDbEntity
  8
0
100
AcDbBlockEnd
  0
ENDSEC
  0
SECTION
  2
ENTITIES
  0
LINE
  5
48
100
AcDbEntity
100
AcDbLine
  8
g3
 62
256
370
-1
  6
ByLayer
 10
9.6973982546999942
 20
-2.441406784999999
 30
0.0
 11
9.6973982546999942
 21
2.4414067850000012
 31
0.0
  0
LINE
  5
49
100
AcDbEntity
100
AcDbLine
  8
g3
 62
256
370
-1
  6
ByLayer
 10
9.6973982546999942
 20
2.4414067850000012
 30
0.0
 11
9.837554119859993
 21
2.4944997372100013
 31
0.0
  0
LINE
  5
4A
100
AcDbEntity
100
AcDbLine
  8
g3
 62
256
370
-1
  6
ByLayer
 10
9.837554119859993
 20
2.4944997372100013
 30
0.0
 11
10.2284779421999943
 21
2.7162914029500014
 31
0.0
  0
LINE
  5
4B
100
AcDbEntity
100
AcDbLine
  8
g3
 62
256
370
-1
  6
ByLayer
 10
10.2284779421999943
 20
2.7162914029500014
 30
0.0
 11
10.8083758831999948
 21
3.1904562008300017
 31
0.0
  0
LINE
  5
4C
100
AcDbEntity
100
AcDbLine
  8
g3
 62
256
370
-1
  6
ByLayer
 10
10.8083758831999948
 20
3.1904562008300017
 30
0.0
 11
11.4949842692999926
 21
3.9831315132700014
 31
0.0
  0
LINE
  5
4D
100
AcDbEntity
100
AcDbLine
  8
g3
 62
256
370
-1
  6
ByLayer
 10
11.4949842692999926
 20
3.9831315132700014
 30
0.0
 11
12.1899737810999937
 21
5.1385347348400012
 31
0.0
  0
LINE
  5
4E
100
AcDbEntity
100
AcDbLine
  8
g3
 62
256
370
-1
  6
ByLayer
 10
12.1899737810999937
 20
5.1385347348400012
 30
0.0
 11
12.7842196128999941
 21
6.6756070058200017
 31
0.0
  0
LINE
  5
4F
100
AcDbEntity
100
AcDbLine
  8
g3
 62
256
370
-1
  6
ByLayer
 10
12.7842196128999941
 20
6.6756070058200017
 30
0.0
 11
13.1637102385999931
 21
8.5858449068600002
 31
0.0
  0
LINE
  5
50
100
AcDbEntity
100
AcDbLine
  8
g3
 62
256
370
-1
  6
ByLayer
 10
13.1637102385999931
 20
8.5858449068600002
 30
0.0
 11
13.2158388652999932
 21
10.832432926100001
 31
0.0
  0
LINE
  5
51
100
AcDbEntity
100
AcDbLine
  8
g3
 62
256
370
-1
  6
ByLayer
 10
13.2158388652999932
 20
10.832432926100001
 30
0.0
 11
12.8358031293999932
 21
13.3507362358000012
 31
0.0
  0
LINE
  5
52
100
AcDbEntity
100
AcDbLine
  8
g3
 62
256
370
-1
  6
ByLayer
 10
12.8358031293999932
 20
13.3507362358000012
 30
0.0
 11
11.9328308516999932
 21
16.0501572541000002
 31
0.0
  0
LINE
  5
53
100
AcDbEntity
100
AcDbLine
  8
g3
 62
256
370
-1
  6
ByLayer
 10
-2.734378830570007
 20
9.6188966316800002
 30
0.0
 11
-2.758476917780007
 21
9.7668216475100014
 31
0.0
  0
LINE
  5
54
100
AcDbEntity
100
AcDbLine
  8
g3
 62
256
370
-1
  6
ByLayer
 10
-2.758476917780007
 20
9.7668216475100014
 30
0.0
 11
-2.7618616120900072
 21
10.2162674415000012
 31
0.0
  0
LINE
  5
55
100
AcDbEntity
100
AcDbLine
  8
g3
 62
256
370
-1
  6
ByLayer
 10
-2.7618616120900072
 20
10.2162674415000012
 30
0.0
 11
-2.6411718220100071
 21
10.955556188900001
 31
0.0
  0
LINE
  5
56
100
AcDbEntity
100
AcDbLine
  8
g3
 62
256
370
-1
  6
ByLayer
 10
-2.6411718220100071
 20
10.955556188900001
 30
0.0
 11
-2.2979990575300069
 21
11.9465141499000023
 31
0.0
  0
LINE
  5
57
100
AcDbEntity
100
AcDbLine
  8
g3
 62
256
370
-1
  6
ByLayer
 10
-2.2979990575300069
 20
11.9465141499000023
 30
0.0
 11
-1.6448852719400071
 21
13.1260943333000011
 31
0.0
  0
LINE
  5
58
100
AcDbEntity
100
AcDbLine
  8
g3
 62
256
370
-1
  6
ByLayer
 10
-1.6448852719400071
 20
13.1260943333000011
 30
0.0
 11
-0.610864553722007
 21
14.4092624552000022
 31
0.0
  0
LINE
  5
59
100
AcDbEntity
100
AcDbLine
  8
g3
 62
256
370
-1
  6
ByLayer
 10
-0.610864553722007
 20
14.4092624552000022
 30
0.0
 11
0.853704683015993
 21
15.6930299281000014
 31
0.0
  0
LINE
  5
5A
100
AcDbEntity
100
AcDbLine
  8
g3
 62
256
370
-1
  6
ByLayer
 10
0.853704683015993
 20
15.6930299281000014
 30
0.0
 11
2.7732426661599932
 21
16.8614686527000011
 31
0.0
  0
LINE
  5
5B
100
AcDbEntity
100
AcDbLine
  8
g3
 62
256
370
-1
  6
ByLayer
 10
2.7732426661599932
 20
16.8614686527000011
 30
0.0
 11
5.1441751747499929
 21
17.7914997059000015
 31
0.0
  0
LINE
  5
5C
100
AcDbEntity
100
AcDbLine
  8
g3
 62
256
370
-1
  6
ByLayer
 10
5.1441751747499929
 20
17.7914997059000015
 30
0.0
 11
7.9334284909399928
 21
18.3592132837000008
 31
0.0
  0
LINE
  5
5D
100
AcDbEntity
100
AcDbLine
  8
g3
 62
256
370
-1
  6
ByLayer
 10
11.9328308516999932
 20
16.0501572541000002
 30
0.0
 11
11.9328308514999932
 21
16.0501572538000019
 31
0.0
  0
LINE
  5
5E
100
AcDbEntity
100
AcDbLine
  8
g3
 62
256
370
-1
  6
ByLayer
 10
7.9334284909399928
 20
18.3592132837000008
 30
0.0
 11
7.9334284907499928
 21
18.3592132833000008
 31
0.0
  0
LINE
  5
5F
100
AcDbEntity
100
AcDbLine
  8
g3
 62
256
370
-1
  6
ByLayer
 10
11.9328308514999932
 20
16.0501572538000019
 30
0.0
 11
7.9334284907499928
 21
18.3592132833000008
 31
0.0
  0
LINE
  5
60
100
AcDbEntity
100
AcDbLine
  8
g3
 62
256
370
-1
  6
ByLayer
 10
-2.734378830570007
 20
9.6188966316800002
 30
0.0
 11
-6.9630194241300076
 21
7.1774898466800012
 31
0.0
  0
LINE
  5
61
100
AcDbEntity
100
AcDbLine
  8
g3
 62
256
370
-1
  6
ByLayer
 10
-6.9630194241300076
 20
7.1774898466800012
 30
0.0
 11
-7.0790772020900068
 21
7.2723219103000014
 31
0.0
  0
LINE
  5
62
100
AcDbEntity
100
AcDbLine
  8
g3
 62
256
370
-1
  6
ByLayer
 10
-7.0790772020900068
 20
7.2723219103000014
 30
0.0
 11
-7.466616330160007
 21
7.4999760385600016
 31
0.0
  0
LINE
  5
63
100
AcDbEntity
100
AcDbLine
  8
g3
 62
256
370
-1
  6
ByLayer
 10
-7.466616330160007
 20
7.4999760385600016
 30
0.0
 11
-8.1672040611800067
 21
7.7650999880700011
 31
0.0
  0
LINE
  5
64
100
AcDbEntity
100
AcDbLine
  8
g3
 62
256
370
-1
  6
ByLayer
 10
-8.1672040611800067
 20
7.7650999880700011
 30
0.0
 11
-9.1969852117500057
 21
7.9633826366600013
 31
0.0
  0
LINE
  5
65
100
AcDbEntity
100
AcDbLine
  8
g3
 62
256
370
-1
  6
ByLayer
 10
-9.1969852117500057
 20
7.9633826366600013
 30
0.0
 11
-10.5450885091000064
 21
7.9875595984600016
 31
0.0
  0
LINE
  5
66
100
AcDbEntity
100
AcDbLine
  8
g3
 62
256
370
-1
  6
ByLayer
 10
-10.5450885091000064
 20
7.9875595984600016
 30
0.0
 11
-12.1733550592000057
 21
7.7336554494100005
 31
0.0
  0
LINE
  5
67
100
AcDbEntity
100
AcDbLine
  8
g3
 62
256
370
-1
  6
ByLayer
 10
-12.1733550592000057
 20
7.7336554494100005
 30
0.0
 11
-14.0174149216000075
 21
7.1071850212100012
 31
0.0
  0
LINE
  5
68
100
AcDbEntity
100
AcDbLine
  8
g3
 62
256
370
-1
  6
ByLayer
 10
-14.0174149216000075
 20
7.1071850212100012
 30
0.0
 11
-15.9890815314000072
 21
6.0290357266000019
 31
0.0
  0
LINE
  5
69
100
AcDbEntity
100
AcDbLine
  8
g3
 62
256
370
-1
  6
ByLayer
 10
-15.9890815314000072
 20
6.0290357266000019
 30
0.0
 11
-17.9799783041000047
 21
4.4407634701200012
 31
0.0
  0
LINE
  5
6A
100
AcDbEntity
100
AcDbLine
  8
g3
 62
256
370
-1
  6
ByLayer
 10
-17.9799783041000047
 20
4.4407634701200012
 30
0.0
 11
-19.8662593427000047
 21
2.3090560296100011
 31
0.0
  0
LINE
  5
6B
100
AcDbEntity
100
AcDbLine
  8
g3
 62
256
370
-1
  6
ByLayer
 10
-6.9630194241300076
 20
-7.1774898466799986
 30
0.0
 11
-7.0790772020900068
 21
-7.2723219102999987
 31
0.0
  0
LINE
  5
6C
100
AcDbEntity
100
AcDbLine
  8
g3
 62
256
370
-1
  6
ByLayer
 10
-7.0790772020900068
 20
-7.2723219102999987
 30
0.0
 11
-7.466616330160007
 21
-7.4999760385599989
 31
0.0
  0
LINE
  5
6D
100
AcDbEntity
100
AcDbLine
  8
g3
 62
256
370
-1
  6
ByLayer
 10
-7.466616330160007
 20
-7.4999760385599989
 30
0.0
 11
-8.1672040611800067
 21
-7.7650999880699985
 31
0.0
  0
LINE
  5
6E
100
AcDbEntity
100
AcDbLine
  8
g3
 62
256
370
-1
  6
ByLayer
 10
-8.1672040611800067
 20
-7.7650999880699985
 30
0.0
 11
-9.1969852117500057
 21
-7.9633826366599987
 31
0.0
  0
LINE
  5
6F
100
AcDbEntity
100
AcDbLine
  8
g3
 62
256
370
-1
  6
ByLayer
 10
-9.1969852117500057
 20
-7.9633826366599987
 30
0.0
 11
-10.5450885091000064
 21
-7.987559598459999
 31
0.0
  0
LINE
  5
70
100
AcDbEntity
100
AcDbLine
  8
g3
 62
256
370
-1
  6
ByLayer
 10
-10.5450885091000064
 20
-7.987559598459999
 30
0.0
 11
-12.1733550592000057
 21
-7.7336554494099987
 31
0.0
  0
LINE
  5
71
100
AcDbEntity
100
AcDbLine
  8
g3
 62
256
370
-1
  6
ByLayer
 10
-12.1733550592000057
 20
-7.7336554494099987
 30
0.0
 11
-14.0174149216000075
 21
-7.1071850212099985
 31
0.0
  0
LINE
  5
72
100
AcDbEntity
100
AcDbLine
  8
g3
 62
256
370
-1
  6
ByLayer
 10
-14.0174149216000075
 20
-7.1071850212099985
 30
0.0
 11
-15.9890815314000072
 21
-6.0290357265999992
 31
0.0
  0
LINE
  5
73
100
AcDbEntity
100
AcDbLine
  8
g3
 62
256
370
-1
  6
ByLayer
 10
-15.9890815314000072
 20
-6.0290357265999992
 30
0.0
 11
-17.9799783041000047
 21
-4.4407634701199985
 31
0.0
  0
LINE
  5
74
100
AcDbEntity
100
AcDbLine
  8
g3
 62
256
370
-1
  6
ByLayer
 10
-17.9799783041000047
 20
-4.4407634701199985
 30
0.0
 11
-19.8662593427000047
 21
-2.3090560296099985
 31
0.0
  0
LINE
  5
75
100
AcDbEntity
100
AcDbLine
  8
g3
 62
256
370
-1
  6
ByLayer
 10
-19.8662593427000047
 20
2.3090560296100011
 30
0.0
 11
-19.8662593422000064
 21
2.3090560295600011
 31
0.0
  0
LINE
  5
76
100
AcDbEntity
100
AcDbLine
  8
g3
 62
256
370
-1
  6
ByLayer
 10
-19.8662593427000047
 20
-2.3090560296099985
 30
0.0
 11
-19.8662593422000064
 21
-2.3090560295599984
 31
0.0
  0
LINE
  5
77
100
AcDbEntity
100
AcDbLine
  8
g3
 62
256
370
-1
  6
ByLayer
 10
-19.8662593422000064
 20
2.3090560295600011
 30
0.0
 11
-19.8662593422000064
 21
-2.3090560295599984
 31
0.0
  0
LINE
  5
78
100
AcDbEntity
100
AcDbLine
  8
g3
 62
256
370
-1
  6
ByLayer
 10
-6.9630194241300076
 20
-7.1774898466799986
 30
0.0
 11
-2.734378830570007
 21
-9.6188966316799984
 31
0.0
  0
LINE
  5
79
100
AcDbEntity
100
AcDbLine
  8
g3
 62
256
370
-1
  6
ByLayer
 10
-2.734378830570007
 20
-9.6188966316799984
 30
0.0
 11
-2.758476917780007
 21
-9.7668216475099996
 31
0.0
  0
LINE
  5
7A
100
AcDbEntity
100
AcDbLine
  8
g3
 62
256
370
-1
  6
ByLayer
 10
-2.758476917780007
 20
-9.7668216475099996
 30
0.0
 11
-2.7618616120900072
 21
-10.2162674414999994
 31
0.0
  0
LINE
  5
7B
100
AcDbEntity
100
AcDbLine
  8
g3
 62
256
370
-1
  6
ByLayer
 10
-2.7618616120900072
 20
-10.2162674414999994
 30
0.0
 11
-2.6411718220100071
 21
-10.9555561888999993
 31
0.0
  0
LINE
  5
7C
100
AcDbEntity
100
AcDbLine
  8
g3
 62
256
370
-1
  6
ByLayer
 10
-2.6411718220100071
 20
-10.9555561888999993
 30
0.0
 11
-2.2979990575300069
 21
-11.9465141498999987
 31
0.0
  0
LINE
  5
7D
100
AcDbEntity
100
AcDbLine
  8
g3
 62
256
370
-1
  6
ByLayer
 10
-2.2979990575300069
 20
-11.9465141498999987
 30
0.0
 11
-1.6448852719400071
 21
-13.1260943332999993
 31
0.0
  0
LINE
  5
7E
100
AcDbEntity
100
AcDbLine
  8
g3
 62
256
370
-1
  6
ByLayer
 10
-1.6448852719400071
 20
-13.1260943332999993
 30
0.0
 11
-0.610864553722007
 21
-14.4092624551999986
 31
0.0
  0
LINE
  5
7F
100
AcDbEntity
100
AcDbLine
  8
g3
 62
256
370
-1
  6
ByLayer
 10
-0.610864553722007
 20
-14.4092624551999986
 30
0.0
 11
0.853704683015993
 21
-15.6930299280999979
 31
0.0
  0
LINE
  5
80
100
AcDbEntity
100
AcDbLine
  8
g3
 62
256
370
-1
  6
ByLayer
 10
0.853704683015993
 20
-15.6930299280999979
 30
0.0
 11
2.7732426661599932
 21
-16.8614686526999975
 31
0.0
  0
LINE
  5
81
100
AcDbEntity
100
AcDbLine
  8
g3
 62
256
370
-1
  6
ByLayer
 10
2.7732426661599932
 20
-16.8614686526999975
 30
0.0
 11
5.1441751747499929
 21
-17.791499705899998
 31
0.0
  0
LINE
  5
82
100
AcDbEntity
100
AcDbLine
  8
g3
 62
256
370
-1
  6
ByLayer
 10
5.1441751747499929
 20
-17.791499705899998
 30
0.0
 11
7.9334284909399928
 21
-18.3592132836999973
 31
0.0
  0
LINE
  5
83
100
AcDbEntity
100
AcDbLine
  8
g3
 62
256
370
-1
  6
ByLayer
 10
9.6973982546999942
 20
-2.441406784999999
 30
0.0
 11
9.837554119859993
 21
-2.4944997372099986
 31
0.0
  0
LINE
  5
84
100
AcDbEntity
100
AcDbLine
  8
g3
 62
256
370
-1
  6
ByLayer
 10
9.837554119859993
 20
-2.4944997372099986
 30
0.0
 11
10.2284779421999943
 21
-2.7162914029499987
 31
0.0
  0
LINE
  5
85
100
AcDbEntity
100
AcDbLine
  8
g3
 62
256
370
-1
  6
ByLayer
 10
10.2284779421999943
 20
-2.7162914029499987
 30
0.0
 11
10.8083758831999948
 21
-3.190456200829999
 31
0.0
  0
LINE
  5
86
100
AcDbEntity
100
AcDbLine
  8
g3
 62
256
370
-1
  6
ByLayer
 10
10.8083758831999948
 20
-3.190456200829999
 30
0.0
 11
11.4949842692999926
 21
-3.9831315132699987
 31
0.0
  0
LINE
  5
87
100
AcDbEntity
100
AcDbLine
  8
g3
 62
256
370
-1
  6
ByLayer
 10
11.4949842692999926
 20
-3.9831315132699987
 30
0.0
 11
12.1899737810999937
 21
-5.1385347348399986
 31
0.0
  0
LINE
  5
88
100
AcDbEntity
100
AcDbLine
  8
g3
 62
256
370
-1
  6
ByLayer
 10
12.1899737810999937
 20
-5.1385347348399986
 30
0.0
 11
12.7842196128999941
 21
-6.675607005819999
 31
0.0
  0
LINE
  5
89
100
AcDbEntity
100
AcDbLine
  8
g3
 62
256
370
-1
  6
ByLayer
 10
12.7842196128999941
 20
-6.675607005819999
 30
0.0
 11
13.1637102385999931
 21
-8.5858449068599985
 31
0.0
  0
LINE
  5
8A
100
AcDbEntity
100
AcDbLine
  8
g3
 62
256
370
-1
  6
ByLayer
 10
13.1637102385999931
 20
-8.5858449068599985
 30
0.0
 11
13.2158388652999932
 21
-10.8324329260999992
 31
0.0
  0
LINE
  5
8B
100
AcDbEntity
100
AcDbLine
  8
g3
 62
256
370
-1
  6
ByLayer
 10
13.2158388652999932
 20
-10.8324329260999992
 30
0.0
 11
12.8358031293999932
 21
-13.3507362357999995
 31
0.0
  0
LINE
  5
8C
100
AcDbEntity
100
AcDbLine
  8
g3
 62
256
370
-1
  6
ByLayer
 10
12.8358031293999932
 20
-13.3507362357999995
 30
0.0
 11
11.9328308516999932
 21
-16.0501572540999966
 31
0.0
  0
LINE
  5
8D
100
AcDbEntity
100
AcDbLine
  8
g3
 62
256
370
-1
  6
ByLayer
 10
7.9334284909399928
 20
-18.3592132836999973
 30
0.0
 11
7.9334284907499928
 21
-18.3592132832999972
 31
0.0
  0
LINE
  5
8E
100
AcDbEntity
100
AcDbLine
  8
g3
 62
256
370
-1
  6
ByLayer
 10
11.9328308516999932
 20
-16.0501572540999966
 30
0.0
 11
11.9328308514999932
 21
-16.0501572537999984
 31
0.0
  0
LINE
  5
8F
100
AcDbEntity
100
AcDbLine
  8
g3
 62
256
370
-1
  6
ByLayer
 10
7.9334284907499928
 20
-18.3592132832999972
 30
0.0
 11
11.9328308514999932
 21
-16.0501572537999984
 31
0.0
  0
LINE
  5
90
100
AcDbEntity
100
AcDbLine
  8
g15
 62
256
370
-1
  6
ByLayer
 10
13.946717617299992
 20
-1.2202736182719989
 30
0.0
 11
13.946717617299992
 21
1.2202736182720013
 31
0.0
  0
LINE
  5
91
100
AcDbEntity
100
AcDbLine
  8
g15
 62
256
370
-1
  6
ByLayer
 10
13.946717617299992
 20
1.2202736182720013
 30
0.0
 11
13.9679794273399942
 21
1.2229271104060013
 31
0.0
  0
LINE
  5
92
100
AcDbEntity
100
AcDbLine
  8
g15
 62
256
370
-1
  6
ByLayer
 10
13.9679794273399942
 20
1.2229271104060013
 30
0.0
 11
14.0312939960199952
 21
1.2340132888960014
 31
0.0
  0
LINE
  5
93
100
AcDbEntity
100
AcDbLine
  8
g15
 62
256
370
-1
  6
ByLayer
 10
14.0312939960199952
 20
1.2340132888960014
 30
0.0
 11
14.1356644881999944
 21
1.2581690971040014
 31
0.0
  0
LINE
  5
94
100
AcDbEntity
100
AcDbLine
  8
g15
 62
256
370
-1
  6
ByLayer
 10
14.1356644881999944
 20
1.2581690971040014
 30
0.0
 11
14.279711348559994
 21
1.2999399225120014
 31
0.0
  0
LINE
  5
95
100
AcDbEntity
100
AcDbLine
  8
g15
 62
256
370
-1
  6
ByLayer
 10
14.279711348559994
 20
1.2999399225120014
 30
0.0
 11
14.4616797680599944
 21
1.3637515486500014
 31
0.0
  0
LINE
  5
96
100
AcDbEntity
100
AcDbLine
  8
g15
 62
256
370
-1
  6
ByLayer
 10
14.4616797680599944
 20
1.3637515486500014
 30
0.0
 11
14.6794490758399938
 21
1.4538826741480013
 31
0.0
  0
LINE
  5
97
100
AcDbEntity
100
AcDbLine
  8
g15
 62
256
370
-1
  6
ByLayer
 10
14.6794490758399938
 20
1.4538826741480013
 30
0.0
 11
14.9305440151599935
 21
1.5744381256220012
 31
0.0
  0
LINE
  5
98
100
AcDbEntity
100
AcDbLine
  8
g15
 62
256
370
-1
  6
ByLayer
 10
14.9305440151599935
 20
1.5744381256220012
 30
0.0
 11
15.2121478545399942
 21
1.7293228882920013
 31
0.0
  0
LINE
  5
99
100
AcDbEntity
100
AcDbLine
  8
g15
 62
256
370
-1
  6
ByLayer
 10
15.2121478545399942
 20
1.7293228882920013
 30
0.0
 11
15.521117276719993
 21
1.9222170748480014
 31
0.0
  0
LINE
  5
9A
100
AcDbEntity
100
AcDbLine
  8
g15
 62
256
370
-1
  6
ByLayer
 10
15.521117276719993
 20
1.9222170748480014
 30
0.0
 11
15.8539989810399931
 21
2.1565519492000012
 31
0.0
  0
LINE
  5
9B
100
AcDbEntity
100
AcDbLine
  8
g15
 62
256
370
-1
  6
ByLayer
 10
13.2372905234399951
 20
4.5578656845400021
 30
0.0
 11
13.2577934258999921
 21
4.5640895560800008
 31
0.0
  0
LINE
  5
9C
100
AcDbEntity
100
AcDbLine
  8
g15
 62
256
370
-1
  6
ByLayer
 10
13.2577934258999921
 20
4.5640895560800008
 30
0.0
 11
13.3201433175599941
 21
4.5797141832200019
 31
0.0
  0
LINE
  5
9D
100
AcDbEntity
100
AcDbLine
  8
g15
 62
256
370
-1
  6
ByLayer
 10
13.3201433175599941
 20
4.5797141832200019
 30
0.0
 11
13.4253155589399942
 21
4.6000980579800022
 31
0.0
  0
LINE
  5
9E
100
AcDbEntity
100
AcDbLine
  8
g15
 62
256
370
-1
  6
ByLayer
 10
13.4253155589399942
 20
4.6000980579800022
 30
0.0
 11
13.5738986391999923
 21
4.620527646580002
 31
0.0
  0
LINE
  5
9F
100
AcDbEntity
100
AcDbLine
  8
g15
 62
256
370
-1
  6
ByLayer
 10
13.5738986391999923
 20
4.620527646580002
 30
0.0
 11
13.7660895888799946
 21
4.6362460494800022
 31
0.0
  0
LINE
  5
A0
100
AcDbEntity
100
AcDbLine
  8
g15
 62
256
370
-1
  6
ByLayer
 10
13.7660895888799946
 20
4.6362460494800022
 30
0.0
 11
14.0016913822399953
 21
4.6424819264000021
 31
0.0
  0
LINE
  5
A1
100
AcDbEntity
100
AcDbLine
  8
g15
 62
256
370
-1
  6
ByLayer
 10
14.0016913822399953
 20
4.6424819264000021
 30
0.0
 11
14.2801123431399937
 21
4.634478554020002
 31
0.0
  0
LINE
  5
A2
100
AcDbEntity
100
AcDbLine
  8
g15
 62
256
370
-1
  6
ByLayer
 10
14.2801123431399937
 20
4.634478554020002
 30
0.0
 11
14.6003675598799934
 21
4.6075228829400015
 31
0.0
  0
LINE
  5
A3
100
AcDbEntity
100
AcDbLine
  8
g15
 62
256
370
-1
  6
ByLayer
 10
14.6003675598799934
 20
4.6075228829400015
 30
0.0
 11
14.9610823059799927
 21
4.556974460580002
 31
0.0
  0
LINE
  5
A4
100
AcDbEntity
100
AcDbLine
  8
g15
 62
256
370
-1
  6
ByLayer
 10
14.9610823059799927
 20
4.556974460580002
 30
0.0
 11
15.3604974550399938
 21
4.4782940875200019
 31
0.0
  0
LINE
  5
A5
100
AcDbEntity
100
AcDbLine
  8
g15
 62
256
370
-1
  6
ByLayer
 10
15.8539989810399931
 20
2.1565519492000012
 30
0.0
 11
15.8539989810199948
 21
2.1565519492000012
 31
0.0
  0
LINE
  5
A6
100
AcDbEntity
100
AcDbLine
  8
g15
 62
256
370
-1
  6
ByLayer
 10
15.3604974550399938
 20
4.4782940875200019
 30
0.0
 11
15.3604974550199938
 21
4.4782940875200019
 31
0.0
  0
LINE
  5
A7
100
AcDbEntity
100
AcDbLine
  8
g15
 62
256
370
-1
  6
ByLayer
 10
15.8539989810199948
 20
2.1565519492000012
 30
0.0
 11
15.3604974550199938
 21
4.4782940875200019
 31
0.0
  0
LINE
  5
A8
100
AcDbEntity
100
AcDbLine
  8
g15
 62
256
370
-1
  6
ByLayer
 10
13.2372905234399951
 20
4.5578656845400021
 30
0.0
 11
12.2446305331799934
 21
6.7874165266400022
 31
0.0
  0
LINE
  5
A9
100
AcDbEntity
100
AcDbLine
  8
g15
 62
256
370
-1
  6
ByLayer
 10
12.2446305331799934
 20
6.7874165266400022
 30
0.0
 11
12.2629748906799936
 21
6.7984885695600017
 31
0.0
  0
LINE
  5
AA
100
AcDbEntity
100
AcDbLine
  8
g15
 62
256
370
-1
  6
ByLayer
 10
12.2629748906799936
 20
6.7984885695600017
 30
0.0
 11
12.3163064722799938
 21
6.8343686527000012
 31
0.0
  0
LINE
  5
AB
100
AcDbEntity
100
AcDbLine
  8
g15
 62
256
370
-1
  6
ByLayer
 10
12.3163064722799938
 20
6.8343686527000012
 30
0.0
 11
12.4018286089799936
 21
6.8988873851800019
 31
0.0
  0
LINE
  5
AC
100
AcDbEntity
100
AcDbLine
  8
g15
 62
256
370
-1
  6
ByLayer
 10
12.4018286089799936
 20
6.8988873851800019
 30
0.0
 11
12.5164322386399931
 21
6.9956360694200015
 31
0.0
  0
LINE
  5
AD
100
AcDbEntity
100
AcDbLine
  8
g15
 62
256
370
-1
  6
ByLayer
 10
12.5164322386399931
 20
6.9956360694200015
 30
0.0
 11
12.6567141350999925
 21
7.1279441147200018
 31
0.0
  0
LINE
  5
AE
100
AcDbEntity
100
AcDbLine
  8
g15
 62
256
370
-1
  6
ByLayer
 10
12.6567141350999925
 20
7.1279441147200018
 30
0.0
 11
12.818996665619995
 21
7.2988577522200018
 31
0.0
  0
LINE
  5
AF
100
AcDbEntity
100
AcDbLine
  8
g15
 62
256
370
-1
  6
ByLayer
 10
12.818996665619995
 20
7.2988577522200018
 30
0.0
 11
12.9993489872399941
 21
7.5111201500200018
 31
0.0
  0
LINE
  5
B0
100
AcDbEntity
100
AcDbLine
  8
g15
 62
256
370
-1
  6
ByLayer
 10
12.9993489872399941
 20
7.5111201500200018
 30
0.0
 11
13.1936095871199939
 21
7.7671530217200022
 31
0.0
  0
LINE
  5
B1
100
AcDbEntity
100
AcDbLine
  8
g15
 62
256
370
-1
  6
ByLayer
 10
13.1936095871199939
 20
7.7671530217200022
 30
0.0
 11
13.3974100653999955
 21
8.0690398152400018
 31
0.0
  0
LINE
  5
B2
100
AcDbEntity
100
AcDbLine
  8
g15
 62
256
370
-1
  6
ByLayer
 10
13.3974100653999955
 20
8.0690398152400018
 30
0.0
 11
13.606200054179995
 21
8.4185105622400016
 31
0.0
  0
LINE
  5
B3
100
AcDbEntity
100
AcDbLine
  8
g15
 62
256
370
-1
  6
ByLayer
 10
10.2390156410599946
 20
9.5479086035600016
 30
0.0
 11
10.2552144978599937
 21
9.5619336748800023
 31
0.0
  0
LINE
  5
B4
100
AcDbEntity
100
AcDbLine
  8
g15
 62
256
370
-1
  6
ByLayer
 10
10.2552144978599937
 20
9.5619336748800023
 30
0.0
 11
10.3058188497799925
 21
9.6015674676400025
 31
0.0
  0
LINE
  5
B5
100
AcDbEntity
100
AcDbLine
  8
g15
 62
256
370
-1
  6
ByLayer
 10
10.3058188497799925
 20
9.6015674676400025
 30
0.0
 11
10.3936076043599925
 21
9.6629664682400023
 31
0.0
  0
LINE
  5
B6
100
AcDbEntity
100
AcDbLine
  8
g15
 62
256
370
-1
  6
ByLayer
 10
10.3936076043599925
 20
9.6629664682400023
 30
0.0
 11
10.5210355401399926
 21
9.7420640094000017
 31
0.0
  0
LINE
  5
B7
100
AcDbEntity
100
AcDbLine
  8
g15
 62
256
370
-1
  6
ByLayer
 10
10.5210355401399926
 20
9.7420640094000017
 30
0.0
 11
10.6902174587799941
 21
9.8345945866600015
 31
0.0
  0
LINE
  5
B8
100
AcDbEntity
100
AcDbLine
  8
g15
 62
256
370
-1
  6
ByLayer
 10
10.6902174587799941
 20
9.8345945866600015
 30
0.0
 11
10.9029140472799924
 21
9.9361192262400024
 31
0.0
  0
LINE
  5
B9
100
AcDbEntity
100
AcDbLine
  8
g15
 62
256
370
-1
  6
ByLayer
 10
10.9029140472799924
 20
9.9361192262400024
 30
0.0
 11
11.1605195162199955
 21
10.042051788760002
 31
0.0
  0
LINE
  5
BA
100
AcDbEntity
100
AcDbLine
  8
g15
 62
256
370
-1
  6
ByLayer
 10
11.1605195162199955
 20
10.042051788760002
 30
0.0
 11
11.4640510739399932
 21
10.1476860896600023
 31
0.0
  0
LINE
  5
BB
100
AcDbEntity
100
AcDbLine
  8
g15
 62
256
370
-1
  6
ByLayer
 10
11.4640510739399932
 20
10.1476860896600023
 30
0.0
 11
11.8141402873599954
 21
10.2482237129800016
 31
0.0
  0
LINE
  5
BC
100
AcDbEntity
100
AcDbLine
  8
g15
 62
256
370
-1
  6
ByLayer
 10
11.8141402873599954
 20
10.2482237129800016
 30
0.0
 11
12.2110263733199922
 21
10.3388023924800017
 31
0.0
  0
LINE
  5
BD
100
AcDbEntity
100
AcDbLine
  8
g15
 62
256
370
-1
  6
ByLayer
 10
13.606200054179995
 20
8.4185105622400016
 30
0.0
 11
13.6062000541599932
 21
8.4185105622200016
 31
0.0
  0
LINE
  5
BE
100
AcDbEntity
100
AcDbLine
  8
g15
 62
256
370
-1
  6
ByLayer
 10
12.2110263733199922
 20
10.3388023924800017
 30
0.0
 11
12.211026373299994
 21
10.3388023924600017
 31
0.0
  0
LINE
  5
BF
100
AcDbEntity
100
AcDbLine
  8
g15
 62
256
370
-1
  6
ByLayer
 10
13.6062000541599932
 20
8.4185105622200016
 30
0.0
 11
12.211026373299994
 21
10.3388023924600017
 31
0.0
  0
LINE
  5
C0
100
AcDbEntity
100
AcDbLine
  8
g15
 62
256
370
-1
  6
ByLayer
 10
10.2390156410599946
 20
9.5479086035600016
 30
0.0
 11
8.4253355908999943
 21
11.180953455800001
 31
0.0
  0
LINE
  5
C1
100
AcDbEntity
100
AcDbLine
  8
g15
 62
256
370
-1
  6
ByLayer
 10
8.4253355908999943
 20
11.180953455800001
 30
0.0
 11
8.4375905897999921
 21
11.1985295927200017
 31
0.0
  0
LINE
  5
C2
100
AcDbEntity
100
AcDbLine
  8
g15
 62
256
370
-1
  6
ByLayer
 10
8.4375905897999921
 20
11.1985295927200017
 30
0.0
 11
8.4717176693399932
 21
11.2529995881600016
 31
0.0
  0
LINE
  5
C3
100
AcDbEntity
100
AcDbLine
  8
g15
 62
256
370
-1
  6
ByLayer
 10
8.4717176693399932
 20
11.2529995881600016
 30
0.0
 11
8.523603896199992
 21
11.3467253699400015
 31
0.0
  0
LINE
  5
C4
100
AcDbEntity
100
AcDbLine
  8
g15
 62
256
370
-1
  6
ByLayer
 10
8.523603896199992
 20
11.3467253699400015
 30
0.0
 11
8.5889482864399938
 21
11.4817231865600018
 31
0.0
  0
LINE
  5
C5
100
AcDbEntity
100
AcDbLine
  8
g15
 62
256
370
-1
  6
ByLayer
 10
8.5889482864399938
 20
11.4817231865600018
 30
0.0
 11
8.6632876455399934
 21
11.6596503880200011
 31
0.0
  0
LINE
  5
C6
100
AcDbEntity
100
AcDbLine
  8
g15
 62
256
370
-1
  6
ByLayer
 10
8.6632876455399934
 20
11.6596503880200011
 30
0.0
 11
8.7420232749799922
 21
11.8817940169000007
 31
0.0
  0
LINE
  5
C7
100
AcDbEntity
100
AcDbLine
  8
g15
 62
256
370
-1
  6
ByLayer
 10
8.7420232749799922
 20
11.8817940169000007
 30
0.0
 11
8.8204484240399932
 21
12.149061264100002
 31
0.0
  0
LINE
  5
C8
100
AcDbEntity
100
AcDbLine
  8
g15
 62
256
370
-1
  6
ByLayer
 10
8.8204484240399932
 20
12.149061264100002
 30
0.0
 11
8.8937763619199934
 21
12.4619718353400017
 31
0.0
  0
LINE
  5
C9
100
AcDbEntity
100
AcDbLine
  8
g15
 62
256
370
-1
  6
ByLayer
 10
8.8937763619199934
 20
12.4619718353400017
 30
0.0
 11
8.957168942119992
 21
12.8206522666600016
 31
0.0
  0
LINE
  5
CA
100
AcDbEntity
100
AcDbLine
  8
g15
 62
256
370
-1
  6
ByLayer
 10
8.957168942119992
 20
12.8206522666600016
 30
0.0
 11
9.0057655294799925
 21
13.2248322193000014
 31
0.0
  0
LINE
  5
CB
100
AcDbEntity
100
AcDbLine
  8
g15
 62
256
370
-1
  6
ByLayer
 10
5.4703219358199933
 20
12.887031385020002
 30
0.0
 11
5.4794158174399925
 21
12.9064325938600017
 31
0.0
  0
LINE
  5
CC
100
AcDbEntity
100
AcDbLine
  8
g15
 62
256
370
-1
  6
ByLayer
 10
5.4794158174399925
 20
12.9064325938600017
 30
0.0
 11
5.5095246774399929
 21
12.9632225094200013
 31
0.0
  0
LINE
  5
CD
100
AcDbEntity
100
AcDbLine
  8
g15
 62
256
370
-1
  6
ByLayer
 10
5.5095246774399929
 20
12.9632225094200013
 30
0.0
 11
5.564750472039993
 21
13.0550201908600023
 31
0.0
  0
LINE
  5
CE
100
AcDbEntity
100
AcDbLine
  8
g15
 62
256
370
-1
  6
ByLayer
 10
5.564750472039993
 20
13.0550201908600023
 30
0.0
 11
5.6489898155599931
 21
13.1791090011400023
 31
0.0
  0
LINE
  5
CF
100
AcDbEntity
100
AcDbLine
  8
g15
 62
256
370
-1
  6
ByLayer
 10
5.6489898155599931
 20
13.1791090011400023
 30
0.0
 11
5.7659096124799936
 21
13.3324523753400044
 31
0.0
  0
LINE
  5
D0
100
AcDbEntity
100
AcDbLine
  8
g15
 62
256
370
-1
  6
ByLayer
 10
5.7659096124799936
 20
13.3324523753400044
 30
0.0
 11
5.918923823679993
 21
13.5117112450600025
 31
0.0
  0
LINE
  5
D1
100
AcDbEntity
100
AcDbLine
  8
g15
 62
256
370
-1
  6
ByLayer
 10
5.918923823679993
 20
13.5117112450600025
 30
0.0
 11
6.1111714748199937
 21
13.7132630400400011
 31
0.0
  0
LINE
  5
D2
100
AcDbEntity
100
AcDbLine
  8
g15
 62
256
370
-1
  6
ByLayer
 10
6.1111714748199937
 20
13.7132630400400011
 30
0.0
 11
6.3454960096799935
 21
13.9332221826600016
 31
0.0
  0
LINE
  5
D3
100
AcDbEntity
100
AcDbLine
  8
g15
 62
256
370
-1
  6
ByLayer
 10
6.3454960096799935
 20
13.9332221826600016
 30
0.0
 11
6.6244260849599934
 21
14.1674619832000044
 31
0.0
  0
LINE
  5
D4
100
AcDbEntity
100
AcDbLine
  8
g15
 62
256
370
-1
  6
ByLayer
 10
6.6244260849599934
 20
14.1674619832000044
 30
0.0
 11
6.9501578979599925
 21
14.4116378387000026
 31
0.0
  0
LINE
  5
D5
100
AcDbEntity
100
AcDbLine
  8
g15
 62
256
370
-1
  6
ByLayer
 10
9.0057655294799925
 20
13.2248322193000014
 30
0.0
 11
9.0057655294599925
 21
13.2248322192800014
 31
0.0
  0
LINE
  5
D6
100
AcDbEntity
100
AcDbLine
  8
g15
 62
256
370
-1
  6
ByLayer
 10
6.9501578979599925
 20
14.4116378387000026
 30
0.0
 11
6.9501578979599925
 21
14.4116378386800044
 31
0.0
  0
LINE
  5
D7
100
AcDbEntity
100
AcDbLine
  8
g15
 62
256
370
-1
  6
ByLayer
 10
9.0057655294599925
 20
13.2248322192800014
 30
0.0
 11
6.9501578979599925
 21
14.4116378386800044
 31
0.0
  0
LINE
  5
D8
100
AcDbEntity
100
AcDbLine
  8
g15
 62
256
370
-1
  6
ByLayer
 10
5.4703219358199933
 20
12.887031385020002
 30
0.0
 11
3.1492235831799933
 21
13.6412019566800016
 31
0.0
  0
LINE
  5
D9
100
AcDbEntity
100
AcDbLine
  8
g15
 62
256
370
-1
  6
ByLayer
 10
3.1492235831799933
 20
13.6412019566800016
 30
0.0
 11
3.1532702228199927
 21
13.6622431138400042
 31
0.0
  0
LINE
  5
DA
100
AcDbEntity
100
AcDbLine
  8
g15
 62
256
370
-1
  6
ByLayer
 10
3.1532702228199927
 20
13.6622431138400042
 30
0.0
 11
3.1622919182399936
 21
13.7258846645200023
 31
0.0
  0
LINE
  5
DB
100
AcDbEntity
100
AcDbLine
  8
g15
 62
256
370
-1
  6
ByLayer
 10
3.1622919182399936
 20
13.7258846645200023
 30
0.0
 11
3.1715706352399931
 21
13.8326114564800022
 31
0.0
  0
LINE
  5
DC
100
AcDbEntity
100
AcDbLine
  8
g15
 62
256
370
-1
  6
ByLayer
 10
3.1715706352399931
 20
13.8326114564800022
 30
0.0
 11
3.176357147379993
 21
13.9825160565800015
 31
0.0
  0
LINE
  5
DD
100
AcDbEntity
100
AcDbLine
  8
g15
 62
256
370
-1
  6
ByLayer
 10
3.176357147379993
 20
13.9825160565800015
 30
0.0
 11
3.1719000185799935
 21
14.1752971846200033
 31
0.0
  0
LINE
  5
DE
100
AcDbEntity
100
AcDbLine
  8
g15
 62
256
370
-1
  6
ByLayer
 10
3.1719000185799935
 20
14.1752971846200033
 30
0.0
 11
3.1534746413199928
 21
14.4102601533400012
 31
0.0
  0
LINE
  5
DF
100
AcDbEntity
100
AcDbLine
  8
g15
 62
256
370
-1
  6
ByLayer
 10
3.1534746413199928
 20
14.4102601533400012
 30
0.0
 11
3.1164121970799932
 21
14.6863193148600022
 31
0.0
  0
LINE
  5
E0
100
AcDbEntity
100
AcDbLine
  8
g15
 62
256
370
-1
  6
ByLayer
 10
3.1164121970799932
 20
14.6863193148600022
 30
0.0
 11
3.0561284062999934
 21
15.0020025051600019
 31
0.0
  0
LINE
  5
E1
100
AcDbEntity
100
AcDbLine
  8
g15
 62
256
370
-1
  6
ByLayer
 10
3.0561284062999934
 20
15.0020025051600019
 30
0.0
 11
2.9681519354199928
 21
15.355457469220001
 31
0.0
  0
LINE
  5
E2
100
AcDbEntity
100
AcDbLine
  8
g15
 62
256
370
-1
  6
ByLayer
 10
2.9681519354199928
 20
15.355457469220001
 30
0.0
 11
2.8481523299399933
 21
15.7444602418200024
 31
0.0
  0
LINE
  5
E3
100
AcDbEntity
100
AcDbLine
  8
g15
 62
256
370
-1
  6
ByLayer
 10
-0.244240128452007
 20
13.9978693650000015
 30
0.0
 11
-0.243823636756007
 21
14.019292066080002
 31
0.0
  0
LINE
  5
E4
100
AcDbEntity
100
AcDbLine
  8
g15
 62
256
370
-1
  6
ByLayer
 10
-0.243823636756007
 20
14.019292066080002
 30
0.0
 11
-0.239416364080007
 21
14.0834186121400009
 31
0.0
  0
LINE
  5
E5
100
AcDbEntity
100
AcDbLine
  8
g15
 62
256
370
-1
  6
ByLayer
 10
-0.239416364080007
 20
14.0834186121400009
 30
0.0
 11
-0.226302571074007
 21
14.1897423213600025
 31
0.0
  0
LINE
  5
E6
100
AcDbEntity
100
AcDbLine
  8
g15
 62
256
370
-1
  6
ByLayer
 10
-0.226302571074007
 20
14.1897423213600025
 30
0.0
 11
-0.199817567569207
 21
14.3373663181200026
 31
0.0
  0
LINE
  5
E7
100
AcDbEntity
100
AcDbLine
  8
g15
 62
256
370
-1
  6
ByLayer
 10
-0.199817567569207
 20
14.3373663181200026
 30
0.0
 11
-0.155376387449407
 21
14.5250080268000019
 31
0.0
  0
LINE
  5
E8
100
AcDbEntity
100
AcDbLine
  8
g15
 62
256
370
-1
  6
ByLayer
 10
-0.155376387449407
 20
14.5250080268000019
 30
0.0
 11
-0.088502100775607
 21
14.7510056395600024
 31
0.0
  0
LINE
  5
E9
100
AcDbEntity
100
AcDbLine
  8
g15
 62
256
370
-1
  6
ByLayer
 10
-0.088502100775607
 20
14.7510056395600024
 30
0.0
 11
0.005146367178853
 21
15.0133265306200023
 31
0.0
  0
LINE
  5
EA
100
AcDbEntity
100
AcDbLine
  8
g15
 62
256
370
-1
  6
ByLayer
 10
0.005146367178853
 20
15.0133265306200023
 30
0.0
 11
0.129747038332393
 21
15.309577580920001
 31
0.0
  0
LINE
  5
EB
100
AcDbEntity
100
AcDbLine
  8
g15
 62
256
370
-1
  6
ByLayer
 10
0.129747038332393
 20
15.309577580920001
 30
0.0
 11
0.289288431453993
 21
15.6370173691800023
 31
0.0
  0
LINE
  5
EC
100
AcDbEntity
100
AcDbLine
  8
g15
 62
256
370
-1
  6
ByLayer
 10
0.289288431453993
 20
15.6370173691800023
 30
0.0
 11
0.487543981841993
 21
15.9925701770000011
 31
0.0
  0
LINE
  5
ED
100
AcDbEntity
100
AcDbLine
  8
g15
 62
256
370
-1
  6
ByLayer
 10
2.8481523299399933
 20
15.7444602418200024
 30
0.0
 11
2.8481523299199933
 21
15.7444602418000041
 31
0.0
  0
LINE
  5
EE
100
AcDbEntity
100
AcDbLine
  8
g15
 62
256
370
-1
  6
ByLayer
 10
0.487543981841993
 20
15.9925701770000011
 30
0.0
 11
0.487543981839993
 21
15.9925701769800028
 31
0.0
  0
LINE
  5
EF
100
AcDbEntity
100
AcDbLine
  8
g15
 62
256
370
-1
  6
ByLayer
 10
2.8481523299199933
 20
15.7444602418000041
 30
0.0
 11
0.487543981839993
 21
15.9925701769800028
 31
0.0
  0
LINE
  5
F0
100
AcDbEntity
100
AcDbLine
  8
g15
 62
256
370
-1
  6
ByLayer
 10
-0.244240128452007
 20
13.9978693650000015
 30
0.0
 11
-2.6714177918800073
 21
13.7427627128400012
 31
0.0
  0
LINE
  5
F1
100
AcDbEntity
100
AcDbLine
  8
g15
 62
256
370
-1
  6
ByLayer
 10
-2.6714177918800073
 20
13.7427627128400012
 30
0.0
 11
-2.676279212240007
 21
13.7636306830000024
 31
0.0
  0
LINE
  5
F2
100
AcDbEntity
100
AcDbLine
  8
g15
 62
256
370
-1
  6
ByLayer
 10
-2.676279212240007
 20
13.7636306830000024
 30
0.0
 11
-2.693922834040007
 21
13.8254395866600017
 31
0.0
  0
LINE
  5
F3
100
AcDbEntity
100
AcDbLine
  8
g15
 62
256
370
-1
  6
ByLayer
 10
-2.693922834040007
 20
13.8254395866600017
 30
0.0
 11
-2.7288560013600067
 21
13.9267133568600023
 31
0.0
  0
LINE
  5
F4
100
AcDbEntity
100
AcDbLine
  8
g15
 62
256
370
-1
  6
ByLayer
 10
-2.7288560013600067
 20
13.9267133568600023
 30
0.0
 11
-2.7854549987800072
 21
14.0656048732400016
 31
0.0
  0
LINE
  5
F5
100
AcDbEntity
100
AcDbLine
  8
g15
 62
256
370
-1
  6
ByLayer
 10
-2.7854549987800072
 20
14.0656048732400016
 30
0.0
 11
-2.8679379374000069
 21
14.2399063194800011
 31
0.0
  0
LINE
  5
F6
100
AcDbEntity
100
AcDbLine
  8
g15
 62
256
370
-1
  6
ByLayer
 10
-2.8679379374000069
 20
14.2399063194800011
 30
0.0
 11
-2.9803384062600071
 21
14.4470613961600023
 31
0.0
  0
LINE
  5
F7
100
AcDbEntity
100
AcDbLine
  8
g15
 62
256
370
-1
  6
ByLayer
 10
-2.9803384062600071
 20
14.4470613961600023
 30
0.0
 11
-3.126480010500007
 21
14.6841793350600032
 31
0.0
  0
LINE
  5
F8
100
AcDbEntity
100
AcDbLine
  8
g15
 62
256
370
-1
  6
ByLayer
 10
-3.126480010500007
 20
14.6841793350600032
 30
0.0
 11
-3.3099519148000072
 21
14.948050652920001
 31
0.0
  0
LINE
  5
F9
100
AcDbEntity
100
AcDbLine
  8
g15
 62
256
370
-1
  6
ByLayer
 10
-3.3099519148000072
 20
14.948050652920001
 30
0.0
 11
-3.5340855057200069
 21
15.2351645753800042
 31
0.0
  0
LINE
  5
FA
100
AcDbEntity
100
AcDbLine
  8
g15
 62
256
370
-1
  6
ByLayer
 10
-3.5340855057200069
 20
15.2351645753800042
 30
0.0
 11
-3.8019322821200072
 21
15.5417280546000018
 31
0.0
  0
LINE
  5
FB
100
AcDbEntity
100
AcDbLine
  8
g15
 62
256
370
-1
  6
ByLayer
 10
-5.9165708556600078
 20
12.6883485651200019
 30
0.0
 11
-5.9249037690800073
 21
12.7080885788200018
 31
0.0
  0
LINE
  5
FC
100
AcDbEntity
100
AcDbLine
  8
g15
 62
256
370
-1
  6
ByLayer
 10
-5.9249037690800073
 20
12.7080885788200018
 30
0.0
 11
-5.946960141220007
 21
12.7684636929800028
 31
0.0
  0
LINE
  5
FD
100
AcDbEntity
100
AcDbLine
  8
g15
 62
256
370
-1
  6
ByLayer
 10
-5.946960141220007
 20
12.7684636929800028
 30
0.0
 11
-5.9782258437600069
 21
12.870929094720001
 31
0.0
  0
LINE
  5
FE
100
AcDbEntity
100
AcDbLine
  8
g15
 62
256
370
-1
  6
ByLayer
 10
-5.9782258437600069
 20
12.870929094720001
 30
0.0
 11
-6.0140746779800072
 21
13.0165627478200037
 31
0.0
  0
LINE
  5
FF
100
AcDbEntity
100
AcDbLine
  8
g15
 62
256
370
-1
  6
ByLayer
 10
-6.0140746779800072
 20
13.0165627478200037
 30
0.0
 11
-6.0497963984400078
 21
13.2060578348600028
 31
0.0
  0
LINE
  5
100
100
AcDbEntity
100
AcDbLine
  8
g15
 62
256
370
-1
  6
ByLayer
 10
-6.0497963984400078
 20
13.2060578348600028
 30
0.0
 11
-6.0806252079800078
 21
13.4397171503000017
 31
0.0
  0
LINE
  5
101
100
AcDbEntity
100
AcDbLine
  8
g15
 62
256
370
-1
  6
ByLayer
 10
-6.0806252079800078
 20
13.4397171503000017
 30
0.0
 11
-6.1017685941000082
 21
13.717449472260002
 31
0.0
  0
LINE
  5
102
100
AcDbEntity
100
AcDbLine
  8
g15
 62
256
370
-1
  6
ByLayer
 10
-6.1017685941000082
 20
13.717449472260002
 30
0.0
 11
-6.1084363746600072
 21
14.0387679323000043
 31
0.0
  0
LINE
  5
103
100
AcDbEntity
100
AcDbLine
  8
g15
 62
256
370
-1
  6
ByLayer
 10
-6.1084363746600072
 20
14.0387679323000043
 30
0.0
 11
-6.095869819960007
 21
14.402790394180002
 31
0.0
  0
LINE
  5
104
100
AcDbEntity
100
AcDbLine
  8
g15
 62
256
370
-1
  6
ByLayer
 10
-6.095869819960007
 20
14.402790394180002
 30
0.0
 11
-6.0593707179400074
 21
14.8082418437600012
 31
0.0
  0
LINE
  5
105
100
AcDbEntity
100
AcDbLine
  8
g15
 62
256
370
-1
  6
ByLayer
 10
-3.8019322821200072
 20
15.5417280546000018
 30
0.0
 11
-3.8019322821000072
 21
15.5417280545800036
 31
0.0
  0
LINE
  5
106
100
AcDbEntity
100
AcDbLine
  8
g15
 62
256
370
-1
  6
ByLayer
 10
-6.0593707179400074
 20
14.8082418437600012
 30
0.0
 11
-6.0593707179200074
 21
14.8082418437400012
 31
0.0
  0
LINE
  5
107
100
AcDbEntity
100
AcDbLine
  8
g15
 62
256
370
-1
  6
ByLayer
 10
-3.8019322821000072
 20
15.5417280545800036
 30
0.0
 11
-6.0593707179200074
 21
14.8082418437400012
 31
0.0
  0
LINE
  5
108
100
AcDbEntity
100
AcDbLine
  8
g15
 62
256
370
-1
  6
ByLayer
 10
-5.9165708556600078
 20
12.6883485651200019
 30
0.0
 11
-8.0301467616400064
 21
11.4680749468400016
 31
0.0
  0
LINE
  5
109
100
AcDbEntity
100
AcDbLine
  8
g15
 62
256
370
-1
  6
ByLayer
 10
-8.0301467616400064
 20
11.4680749468400016
 30
0.0
 11
-8.0430756582600065
 21
11.4851614684200012
 31
0.0
  0
LINE
  5
10A
100
AcDbEntity
100
AcDbLine
  8
g15
 62
256
370
-1
  6
ByLayer
 10
-8.0430756582600065
 20
11.4851614684200012
 30
0.0
 11
-8.0843338548000077
 21
11.5344504040799993
 31
0.0
  0
LINE
  5
10B
100
AcDbEntity
100
AcDbLine
  8
g15
 62
256
370
-1
  6
ByLayer
 10
-8.0843338548000077
 20
11.5344504040799993
 30
0.0
 11
-8.157438644460008
 21
11.6127599976000013
 31
0.0
  0
LINE
  5
10C
100
AcDbEntity
100
AcDbLine
  8
g15
 62
256
370
-1
  6
ByLayer
 10
-8.157438644460008
 20
11.6127599976000013
 30
0.0
 11
-8.2656366705600064
 21
11.7166228253000018
 31
0.0
  0
LINE
  5
10D
100
AcDbEntity
100
AcDbLine
  8
g15
 62
256
370
-1
  6
ByLayer
 10
-8.2656366705600064
 20
11.7166228253000018
 30
0.0
 11
-8.411883369600007
 21
11.8423062862000013
 31
0.0
  0
LINE
  5
10E
100
AcDbEntity
100
AcDbLine
  8
g15
 62
256
370
-1
  6
ByLayer
 10
-8.411883369600007
 20
11.8423062862000013
 30
0.0
 11
-8.5988238678600073
 21
11.9858344761600026
 31
0.0
  0
LINE
  5
10F
100
AcDbEntity
100
AcDbLine
  8
g15
 62
256
370
-1
  6
ByLayer
 10
-8.5988238678600073
 20
11.9858344761600026
 30
0.0
 11
-8.8287754210600067
 21
12.1430113466400016
 31
0.0
  0
LINE
  5
110
100
AcDbEntity
100
AcDbLine
  8
g15
 62
256
370
-1
  6
ByLayer
 10
-8.8287754210600067
 20
12.1430113466400016
 30
0.0
 11
-9.1037114798800065
 21
12.3094450440200038
 31
0.0
  0
LINE
  5
111
100
AcDbEntity
100
AcDbLine
  8
g15
 62
256
370
-1
  6
ByLayer
 10
-9.1037114798800065
 20
12.3094450440200038
 30
0.0
 11
-9.4252474567600064
 21
12.4805733193400012
 31
0.0
  0
LINE
  5
112
100
AcDbEntity
100
AcDbLine
  8
g15
 62
256
370
-1
  6
ByLayer
 10
-9.4252474567600064
 20
12.4805733193400012
 30
0.0
 11
-9.794628263120007
 21
12.6516898945600023
 31
0.0
  0
LINE
  5
113
100
AcDbEntity
100
AcDbLine
  8
g15
 62
256
370
-1
  6
ByLayer
 10
-10.5658727315600096
 20
9.1848970283000018
 30
0.0
 11
-10.5815142136800073
 21
9.1995411269200016
 31
0.0
  0
LINE
  5
114
100
AcDbEntity
100
AcDbLine
  8
g15
 62
256
370
-1
  6
ByLayer
 10
-10.5815142136800073
 20
9.1995411269200016
 30
0.0
 11
-10.6262204835000063
 21
9.2457254034400016
 31
0.0
  0
LINE
  5
115
100
AcDbEntity
100
AcDbLine
  8
g15
 62
256
370
-1
  6
ByLayer
 10
-10.6262204835000063
 20
9.2457254034400016
 30
0.0
 11
-10.6964595575800079
 21
9.326615298880002
 31
0.0
  0
LINE
  5
116
100
AcDbEntity
100
AcDbLine
  8
g15
 62
256
370
-1
  6
ByLayer
 10
-10.6964595575800079
 20
9.326615298880002
 30
0.0
 11
-10.7884436404200077
 21
9.4450772266600023
 31
0.0
  0
LINE
  5
117
100
AcDbEntity
100
AcDbLine
  8
g15
 62
256
370
-1
  6
ByLayer
 10
-10.7884436404200077
 20
9.4450772266600023
 30
0.0
 11
-10.8981516514800063
 21
9.6036602700000024
 31
0.0
  0
LINE
  5
118
100
AcDbEntity
100
AcDbLine
  8
g15
 62
256
370
-1
  6
ByLayer
 10
-10.8981516514800063
 20
9.6036602700000024
 30
0.0
 11
-11.0213529759800064
 21
9.8045794697600019
 31
0.0
  0
LINE
  5
119
100
AcDbEntity
100
AcDbLine
  8
g15
 62
256
370
-1
  6
ByLayer
 10
-11.0213529759800064
 20
9.8045794697600019
 30
0.0
 11
-11.1536323326400097
 21
10.0497007810400021
 31
0.0
  0
LINE
  5
11A
100
AcDbEntity
100
AcDbLine
  8
g15
 62
256
370
-1
  6
ByLayer
 10
-11.1536323326400097
 20
10.0497007810400021
 30
0.0
 11
-11.2904156450800084
 21
10.3405277699799996
 31
0.0
  0
LINE
  5
11B
100
AcDbEntity
100
AcDbLine
  8
g15
 62
256
370
-1
  6
ByLayer
 10
-11.2904156450800084
 20
10.3405277699799996
 30
0.0
 11
-11.4269968002600084
 21
10.6781901147800014
 31
0.0
  0
LINE
  5
11C
100
AcDbEntity
100
AcDbLine
  8
g15
 62
256
370
-1
  6
ByLayer
 10
-11.4269968002600084
 20
10.6781901147800014
 30
0.0
 11
-11.5585651729200087
 21
11.0634339670800017
 31
0.0
  0
LINE
  5
11D
100
AcDbEntity
100
AcDbLine
  8
g15
 62
256
370
-1
  6
ByLayer
 10
-9.794628263120007
 20
12.6516898945600023
 30
0.0
 11
-9.794628263100007
 21
12.6516898945400023
 31
0.0
  0
LINE
  5
11E
100
AcDbEntity
100
AcDbLine
  8
g15
 62
256
370
-1
  6
ByLayer
 10
-11.5585651729200087
 20
11.0634339670800017
 30
0.0
 11
-11.5585651729200087
 21
11.0634339670600017
 31
0.0
  0
LINE
  5
11F
100
AcDbEntity
100
AcDbLine
  8
g15
 62
256
370
-1
  6
ByLayer
 10
-9.794628263100007
 20
12.6516898945400023
 30
0.0
 11
-11.5585651729200087
 21
11.0634339670600017
 31
0.0
  0
LINE
  5
120
100
AcDbEntity
100
AcDbLine
  8
g15
 62
256
370
-1
  6
ByLayer
 10
-10.5658727315600096
 20
9.1848970283000018
 30
0.0
 11
-12.0003904047200081
 21
7.2104528383600019
 31
0.0
  0
LINE
  5
121
100
AcDbEntity
100
AcDbLine
  8
g15
 62
256
370
-1
  6
ByLayer
 10
-12.0003904047200081
 20
7.2104528383600019
 30
0.0
 11
-12.0191512539200094
 21
7.2208034965200021
 31
0.0
  0
LINE
  5
122
100
AcDbEntity
100
AcDbLine
  8
g15
 62
256
370
-1
  6
ByLayer
 10
-12.0191512539200094
 20
7.2208034965200021
 30
0.0
 11
-12.0768901082000095
 21
7.2490499594400015
 31
0.0
  0
LINE
  5
123
100
AcDbEntity
100
AcDbLine
  8
g15
 62
256
370
-1
  6
ByLayer
 10
-12.0768901082000095
 20
7.2490499594400015
 30
0.0
 11
-12.1755260379000063
 21
7.2908549361600015
 31
0.0
  0
LINE
  5
124
100
AcDbEntity
100
AcDbLine
  8
g15
 62
256
370
-1
  6
ByLayer
 10
-12.1755260379000063
 20
7.2908549361600015
 30
0.0
 11
-12.3166146710600071
 21
7.3417302487000011
 31
0.0
  0
LINE
  5
125
100
AcDbEntity
100
AcDbLine
  8
g15
 62
256
370
-1
  6
ByLayer
 10
-12.3166146710600071
 20
7.3417302487000011
 30
0.0
 11
-12.5013377476600063
 21
7.3970639120800019
 31
0.0
  0
LINE
  5
126
100
AcDbEntity
100
AcDbLine
  8
g15
 62
256
370
-1
  6
ByLayer
 10
-12.5013377476600063
 20
7.3970639120800019
 30
0.0
 11
-12.7304945648400096
 21
7.4521478873400016
 31
0.0
  0
LINE
  5
127
100
AcDbEntity
100
AcDbLine
  8
g15
 62
256
370
-1
  6
ByLayer
 10
-12.7304945648400096
 20
7.4521478873400016
 30
0.0
 11
-13.0044953544200066
 21
7.5022063806000014
 31
0.0
  0
LINE
  5
128
100
AcDbEntity
100
AcDbLine
  8
g15
 62
256
370
-1
  6
ByLayer
 10
-13.0044953544200066
 20
7.5022063806000014
 30
0.0
 11
-13.3233566254600078
 21
7.5424245592000014
 31
0.0
  0
LINE
  5
129
100
AcDbEntity
100
AcDbLine
  8
g15
 62
256
370
-1
  6
ByLayer
 10
-13.3233566254600078
 20
7.5424245592000014
 30
0.0
 11
-13.6866984968600089
 21
7.5679775539200014
 31
0.0
  0
LINE
  5
12A
100
AcDbEntity
100
AcDbLine
  8
g15
 62
256
370
-1
  6
ByLayer
 10
-13.6866984968600089
 20
7.5679775539200014
 30
0.0
 11
-14.0937440360200092
 21
7.5740596147600012
 31
0.0
  0
LINE
  5
12B
100
AcDbEntity
100
AcDbLine
  8
g15
 62
256
370
-1
  6
ByLayer
 10
-13.3882392242400066
 20
4.0932933531200009
 30
0.0
 11
-13.4084847206800077
 21
4.1003094389600019
 31
0.0
  0
LINE
  5
12C
100
AcDbEntity
100
AcDbLine
  8
g15
 62
256
370
-1
  6
ByLayer
 10
-13.4084847206800077
 20
4.1003094389600019
 30
0.0
 11
-13.4681107680200078
 21
4.1243171968800016
 31
0.0
  0
LINE
  5
12D
100
AcDbEntity
100
AcDbLine
  8
g15
 62
256
370
-1
  6
ByLayer
 10
-13.4681107680200078
 20
4.1243171968800016
 30
0.0
 11
-13.5651782396000069
 21
4.1696449882200017
 31
0.0
  0
LINE
  5
12E
100
AcDbEntity
100
AcDbLine
  8
g15
 62
256
370
-1
  6
ByLayer
 10
-13.5651782396000069
 20
4.1696449882200017
 30
0.0
 11
-13.6973926875000078
 21
4.2404520471600016
 31
0.0
  0
LINE
  5
12F
100
AcDbEntity
100
AcDbLine
  8
g15
 62
256
370
-1
  6
ByLayer
 10
-13.6973926875000078
 20
4.2404520471600016
 30
0.0
 11
-13.8621174773600071
 21
4.3407025979400018
 31
0.0
  0
LINE
  5
130
100
AcDbEntity
100
AcDbLine
  8
g15
 62
256
370
-1
  6
ByLayer
 10
-13.8621174773600071
 20
4.3407025979400018
 30
0.0
 11
-14.0563886885800091
 21
4.4741409271000014
 31
0.0
  0
LINE
  5
131
100
AcDbEntity
100
AcDbLine
  8
g15
 62
256
370
-1
  6
ByLayer
 10
-14.0563886885800091
 20
4.4741409271000014
 30
0.0
 11
-14.2769317133000069
 21
4.6442675261000019
 31
0.0
  0
LINE
  5
132
100
AcDbEntity
100
AcDbLine
  8
g15
 62
256
370
-1
  6
ByLayer
 10
-14.2769317133000069
 20
4.6442675261000019
 30
0.0
 11
-14.5201794802600066
 21
4.8543164154800014
 31
0.0
  0
LINE
  5
133
100
AcDbEntity
100
AcDbLine
  8
g15
 62
256
370
-1
  6
ByLayer
 10
-14.5201794802600066
 20
4.8543164154800014
 30
0.0
 11
-14.7822922227800095
 21
5.1072337562400021
 31
0.0
  0
LINE
  5
134
100
AcDbEntity
100
AcDbLine
  8
g15
 62
256
370
-1
  6
ByLayer
 10
-14.7822922227800095
 20
5.1072337562400021
 30
0.0
 11
-15.0591787032600077
 21
5.4056578493400007
 31
0.0
  0
LINE
  5
135
100
AcDbEntity
100
AcDbLine
  8
g15
 62
256
370
-1
  6
ByLayer
 10
-14.0937440360200092
 20
7.5740596147600012
 30
0.0
 11
-14.0937440360000092
 21
7.5740596147600012
 31
0.0
  0
LINE
  5
136
100
AcDbEntity
100
AcDbLine
  8
g15
 62
256
370
-1
  6
ByLayer
 10
-15.0591787032600077
 20
5.4056578493400007
 30
0.0
 11
-15.0591787032400077
 21
5.4056578493400007
 31
0.0
  0
LINE
  5
137
100
AcDbEntity
100
AcDbLine
  8
g15
 62
256
370
-1
  6
ByLayer
 10
-14.0937440360000092
 20
7.5740596147600012
 30
0.0
 11
-15.0591787032400077
 21
5.4056578493400007
 31
0.0
  0
LINE
  5
138
100
AcDbEntity
100
AcDbLine
  8
g15
 62
256
370
-1
  6
ByLayer
 10
-13.3882392242400066
 20
4.0932933531200009
 30
0.0
 11
-13.8956575267000098
 21
1.7060779292180013
 31
0.0
  0
LINE
  5
139
100
AcDbEntity
100
AcDbLine
  8
g15
 62
256
370
-1
  6
ByLayer
 10
-13.8956575267000098
 20
1.7060779292180013
 30
0.0
 11
-13.9170064072200077
 21
1.7079030011300014
 31
0.0
  0
LINE
  5
13A
100
AcDbEntity
100
AcDbLine
  8
g15
 62
256
370
-1
  6
ByLayer
 10
-13.9170064072200077
 20
1.7079030011300014
 30
0.0
 11
-13.9812423467800073
 21
1.7102229212680014
 31
0.0
  0
LINE
  5
13B
100
AcDbEntity
100
AcDbLine
  8
g15
 62
256
370
-1
  6
ByLayer
 10
-13.9812423467800073
 20
1.7102229212680014
 30
0.0
 11
-14.0883543682400063
 21
1.7082948209260014
 31
0.0
  0
LINE
  5
13C
100
AcDbEntity
100
AcDbLine
  8
g15
 62
256
370
-1
  6
ByLayer
 10
-14.0883543682400063
 20
1.7082948209260014
 30
0.0
 11
-14.2379381020000082
 21
1.6973858145640013
 31
0.0
  0
LINE
  5
13D
100
AcDbEntity
100
AcDbLine
  8
g15
 62
256
370
-1
  6
ByLayer
 10
-14.2379381020000082
 20
1.6973858145640013
 30
0.0
 11
-14.4291972580400074
 21
1.6728019873320013
 31
0.0
  0
LINE
  5
13E
100
AcDbEntity
100
AcDbLine
  8
g15
 62
256
370
-1
  6
ByLayer
 10
-14.4291972580400074
 20
1.6728019873320013
 30
0.0
 11
-14.6609470986600066
 21
1.6299172281640013
 31
0.0
  0
LINE
  5
13F
100
AcDbEntity
100
AcDbLine
  8
g15
 62
256
370
-1
  6
ByLayer
 10
-14.6609470986600066
 20
1.6299172281640013
 30
0.0
 11
-14.9316198988800064
 21
1.5642017759400013
 31
0.0
  0
LINE
  5
140
100
AcDbEntity
100
AcDbLine
  8
g15
 62
256
370
-1
  6
ByLayer
 10
-14.9316198988800064
 20
1.5642017759400013
 30
0.0
 11
-15.2392723716000074
 21
1.4712503473300014
 31
0.0
  0
LINE
  5
141
100
AcDbEntity
100
AcDbLine
  8
g15
 62
256
370
-1
  6
ByLayer
 10
-15.2392723716000074
 20
1.4712503473300014
 30
0.0
 11
-15.5815950270800094
 21
1.3468097165320012
 31
0.0
  0
LINE
  5
142
100
AcDbEntity
100
AcDbLine
  8
g15
 62
256
370
-1
  6
ByLayer
 10
-15.5815950270800094
 20
1.3468097165320012
 30
0.0
 11
-15.955923427440009
 21
1.1868056194060013
 31
0.0
  0
LINE
  5
143
100
AcDbEntity
100
AcDbLine
  8
g15
 62
256
370
-1
  6
ByLayer
 10
-13.8956575267000098
 20
-1.7060779292179988
 30
0.0
 11
-13.9170064072200077
 21
-1.7079030011299987
 31
0.0
  0
LINE
  5
144
100
AcDbEntity
100
AcDbLine
  8
g15
 62
256
370
-1
  6
ByLayer
 10
-13.9170064072200077
 20
-1.7079030011299987
 30
0.0
 11
-13.9812423467800073
 21
-1.7102229212679989
 31
0.0
  0
LINE
  5
145
100
AcDbEntity
100
AcDbLine
  8
g15
 62
256
370
-1
  6
ByLayer
 10
-13.9812423467800073
 20
-1.7102229212679989
 30
0.0
 11
-14.0883543682400063
 21
-1.7082948209259989
 31
0.0
  0
LINE
  5
146
100
AcDbEntity
100
AcDbLine
  8
g15
 62
256
370
-1
  6
ByLayer
 10
-14.0883543682400063
 20
-1.7082948209259989
 30
0.0
 11
-14.2379381020000082
 21
-1.6973858145639988
 31
0.0
  0
LINE
  5
147
100
AcDbEntity
100
AcDbLine
  8
g15
 62
256
370
-1
  6
ByLayer
 10
-14.2379381020000082
 20
-1.6973858145639988
 30
0.0
 11
-14.4291972580400074
 21
-1.6728019873319986
 31
0.0
  0
LINE
  5
148
100
AcDbEntity
100
AcDbLine
  8
g15
 62
256
370
-1
  6
ByLayer
 10
-14.4291972580400074
 20
-1.6728019873319986
 30
0.0
 11
-14.6609470986600066
 21
-1.6299172281639989
 31
0.0
  0
LINE
  5
149
100
AcDbEntity
100
AcDbLine
  8
g15
 62
256
370
-1
  6
ByLayer
 10
-14.6609470986600066
 20
-1.6299172281639989
 30
0.0
 11
-14.9316198988800064
 21
-1.5642017759399989
 31
0.0
  0
LINE
  5
14A
100
AcDbEntity
100
AcDbLine
  8
g15
 62
256
370
-1
  6
ByLayer
 10
-14.9316198988800064
 20
-1.5642017759399989
 30
0.0
 11
-15.2392723716000074
 21
-1.4712503473299989
 31
0.0
  0
LINE
  5
14B
100
AcDbEntity
100
AcDbLine
  8
g15
 62
256
370
-1
  6
ByLayer
 10
-15.2392723716000074
 20
-1.4712503473299989
 30
0.0
 11
-15.5815950270800094
 21
-1.3468097165319988
 31
0.0
  0
LINE
  5
14C
100
AcDbEntity
100
AcDbLine
  8
g15
 62
256
370
-1
  6
ByLayer
 10
-15.5815950270800094
 20
-1.3468097165319988
 30
0.0
 11
-15.955923427440009
 21
-1.1868056194059988
 31
0.0
  0
LINE
  5
14D
100
AcDbEntity
100
AcDbLine
  8
g15
 62
256
370
-1
  6
ByLayer
 10
-15.955923427440009
 20
1.1868056194060013
 30
0.0
 11
-15.9559234274200072
 21
1.1868056194040013
 31
0.0
  0
LINE
  5
14E
100
AcDbEntity
100
AcDbLine
  8
g15
 62
256
370
-1
  6
ByLayer
 10
-15.955923427440009
 20
-1.1868056194059988
 30
0.0
 11
-15.9559234274200072
 21
-1.1868056194039986
 31
0.0
  0
LINE
  5
14F
100
AcDbEntity
100
AcDbLine
  8
g15
 62
256
370
-1
  6
ByLayer
 10
-15.9559234274200072
 20
1.1868056194040013
 30
0.0
 11
-15.9559234274200072
 21
-1.1868056194039986
 31
0.0
  0
LINE
  5
150
100
AcDbEntity
100
AcDbLine
  8
g15
 62
256
370
-1
  6
ByLayer
 10
-13.8956575267000098
 20
-1.7060779292179988
 30
0.0
 11
-13.3882392242400066
 21
-4.0932933531199991
 31
0.0
  0
LINE
  5
151
100
AcDbEntity
100
AcDbLine
  8
g15
 62
256
370
-1
  6
ByLayer
 10
-13.3882392242400066
 20
-4.0932933531199991
 30
0.0
 11
-13.4084847206800077
 21
-4.1003094389599992
 31
0.0
  0
LINE
  5
152
100
AcDbEntity
100
AcDbLine
  8
g15
 62
256
370
-1
  6
ByLayer
 10
-13.4084847206800077
 20
-4.1003094389599992
 30
0.0
 11
-13.4681107680200078
 21
-4.124317196879999
 31
0.0
  0
LINE
  5
153
100
AcDbEntity
100
AcDbLine
  8
g15
 62
256
370
-1
  6
ByLayer
 10
-13.4681107680200078
 20
-4.124317196879999
 30
0.0
 11
-13.5651782396000069
 21
-4.1696449882199991
 31
0.0
  0
LINE
  5
154
100
AcDbEntity
100
AcDbLine
  8
g15
 62
256
370
-1
  6
ByLayer
 10
-13.5651782396000069
 20
-4.1696449882199991
 30
0.0
 11
-13.6973926875000078
 21
-4.2404520471599989
 31
0.0
  0
LINE
  5
155
100
AcDbEntity
100
AcDbLine
  8
g15
 62
256
370
-1
  6
ByLayer
 10
-13.6973926875000078
 20
-4.2404520471599989
 30
0.0
 11
-13.8621174773600071
 21
-4.3407025979399991
 31
0.0
  0
LINE
  5
156
100
AcDbEntity
100
AcDbLine
  8
g15
 62
256
370
-1
  6
ByLayer
 10
-13.8621174773600071
 20
-4.3407025979399991
 30
0.0
 11
-14.0563886885800091
 21
-4.4741409270999988
 31
0.0
  0
LINE
  5
157
100
AcDbEntity
100
AcDbLine
  8
g15
 62
256
370
-1
  6
ByLayer
 10
-14.0563886885800091
 20
-4.4741409270999988
 30
0.0
 11
-14.2769317133000069
 21
-4.6442675260999993
 31
0.0
  0
LINE
  5
158
100
AcDbEntity
100
AcDbLine
  8
g15
 62
256
370
-1
  6
ByLayer
 10
-14.2769317133000069
 20
-4.6442675260999993
 30
0.0
 11
-14.5201794802600066
 21
-4.8543164154799987
 31
0.0
  0
LINE
  5
159
100
AcDbEntity
100
AcDbLine
  8
g15
 62
256
370
-1
  6
ByLayer
 10
-14.5201794802600066
 20
-4.8543164154799987
 30
0.0
 11
-14.7822922227800095
 21
-5.1072337562399994
 31
0.0
  0
LINE
  5
15A
100
AcDbEntity
100
AcDbLine
  8
g15
 62
256
370
-1
  6
ByLayer
 10
-14.7822922227800095
 20
-5.1072337562399994
 30
0.0
 11
-15.0591787032600077
 21
-5.4056578493399989
 31
0.0
  0
LINE
  5
15B
100
AcDbEntity
100
AcDbLine
  8
g15
 62
256
370
-1
  6
ByLayer
 10
-12.0003904047200081
 20
-7.2104528383599993
 30
0.0
 11
-12.0191512539200094
 21
-7.2208034965199994
 31
0.0
  0
LINE
  5
15C
100
AcDbEntity
100
AcDbLine
  8
g15
 62
256
370
-1
  6
ByLayer
 10
-12.0191512539200094
 20
-7.2208034965199994
 30
0.0
 11
-12.0768901082000095
 21
-7.2490499594399989
 31
0.0
  0
LINE
  5
15D
100
AcDbEntity
100
AcDbLine
  8
g15
 62
256
370
-1
  6
ByLayer
 10
-12.0768901082000095
 20
-7.2490499594399989
 30
0.0
 11
-12.1755260379000063
 21
-7.2908549361599997
 31
0.0
  0
LINE
  5
15E
100
AcDbEntity
100
AcDbLine
  8
g15
 62
256
370
-1
  6
ByLayer
 10
-12.1755260379000063
 20
-7.2908549361599997
 30
0.0
 11
-12.3166146710600071
 21
-7.3417302486999994
 31
0.0
  0
LINE
  5
15F
100
AcDbEntity
100
AcDbLine
  8
g15
 62
256
370
-1
  6
ByLayer
 10
-12.3166146710600071
 20
-7.3417302486999994
 30
0.0
 11
-12.5013377476600063
 21
-7.3970639120799992
 31
0.0
  0
LINE
  5
160
100
AcDbEntity
100
AcDbLine
  8
g15
 62
256
370
-1
  6
ByLayer
 10
-12.5013377476600063
 20
-7.3970639120799992
 30
0.0
 11
-12.7304945648400096
 21
-7.4521478873399989
 31
0.0
  0
LINE
  5
161
100
AcDbEntity
100
AcDbLine
  8
g15
 62
256
370
-1
  6
ByLayer
 10
-12.7304945648400096
 20
-7.4521478873399989
 30
0.0
 11
-13.0044953544200066
 21
-7.5022063805999997
 31
0.0
  0
LINE
  5
162
100
AcDbEntity
100
AcDbLine
  8
g15
 62
256
370
-1
  6
ByLayer
 10
-13.0044953544200066
 20
-7.5022063805999997
 30
0.0
 11
-13.3233566254600078
 21
-7.5424245591999997
 31
0.0
  0
LINE
  5
163
100
AcDbEntity
100
AcDbLine
  8
g15
 62
256
370
-1
  6
ByLayer
 10
-13.3233566254600078
 20
-7.5424245591999997
 30
0.0
 11
-13.6866984968600089
 21
-7.5679775539199987
 31
0.0
  0
LINE
  5
164
100
AcDbEntity
100
AcDbLine
  8
g15
 62
256
370
-1
  6
ByLayer
 10
-13.6866984968600089
 20
-7.5679775539199987
 30
0.0
 11
-14.0937440360200092
 21
-7.5740596147599994
 31
0.0
  0
LINE
  5
165
100
AcDbEntity
100
AcDbLine
  8
g15
 62
256
370
-1
  6
ByLayer
 10
-15.0591787032600077
 20
-5.4056578493399989
 30
0.0
 11
-15.0591787032400077
 21
-5.4056578493399989
 31
0.0
  0
LINE
  5
166
100
AcDbEntity
100
AcDbLine
  8
g15
 62
256
370
-1
  6
ByLayer
 10
-14.0937440360200092
 20
-7.5740596147599994
 30
0.0
 11
-14.0937440360000092
 21
-7.5740596147599994
 31
0.0
  0
LINE
  5
167
100
AcDbEntity
100
AcDbLine
  8
g15
 62
256
370
-1
  6
ByLayer
 10
-15.0591787032400077
 20
-5.4056578493399989
 30
0.0
 11
-14.0937440360000092
 21
-7.5740596147599994
 31
0.0
  0
LINE
  5
168
100
AcDbEntity
100
AcDbLine
  8
g15
 62
256
370
-1
  6
ByLayer
 10
-12.0003904047200081
 20
-7.2104528383599993
 30
0.0
 11
-10.5658727315600096
 21
-9.1848970283
 31
0.0
  0
LINE
  5
169
100
AcDbEntity
100
AcDbLine
  8
g15
 62
256
370
-1
  6
ByLayer
 10
-10.5658727315600096
 20
-9.1848970283
 30
0.0
 11
-10.5815142136800073
 21
-9.199541126919998
 31
0.0
  0
LINE
  5
16A
100
AcDbEntity
100
AcDbLine
  8
g15
 62
256
370
-1
  6
ByLayer
 10
-10.5815142136800073
 20
-9.199541126919998
 30
0.0
 11
-10.6262204835000063
 21
-9.2457254034399998
 31
0.0
  0
LINE
  5
16B
100
AcDbEntity
100
AcDbLine
  8
g15
 62
256
370
-1
  6
ByLayer
 10
-10.6262204835000063
 20
-9.2457254034399998
 30
0.0
 11
-10.6964595575800079
 21
-9.3266152988800002
 31
0.0
  0
LINE
  5
16C
100
AcDbEntity
100
AcDbLine
  8
g15
 62
256
370
-1
  6
ByLayer
 10
-10.6964595575800079
 20
-9.3266152988800002
 30
0.0
 11
-10.7884436404200077
 21
-9.4450772266600005
 31
0.0
  0
LINE
  5
16D
100
AcDbEntity
100
AcDbLine
  8
g15
 62
256
370
-1
  6
ByLayer
 10
-10.7884436404200077
 20
-9.4450772266600005
 30
0.0
 11
-10.8981516514800063
 21
-9.6036602699999989
 31
0.0
  0
LINE
  5
16E
100
AcDbEntity
100
AcDbLine
  8
g15
 62
256
370
-1
  6
ByLayer
 10
-10.8981516514800063
 20
-9.6036602699999989
 30
0.0
 11
-11.0213529759800064
 21
-9.8045794697600002
 31
0.0
  0
LINE
  5
16F
100
AcDbEntity
100
AcDbLine
  8
g15
 62
256
370
-1
  6
ByLayer
 10
-11.0213529759800064
 20
-9.8045794697600002
 30
0.0
 11
-11.1536323326400097
 21
-10.0497007810400003
 31
0.0
  0
LINE
  5
170
100
AcDbEntity
100
AcDbLine
  8
g15
 62
256
370
-1
  6
ByLayer
 10
-11.1536323326400097
 20
-10.0497007810400003
 30
0.0
 11
-11.2904156450800084
 21
-10.3405277699799978
 31
0.0
  0
LINE
  5
171
100
AcDbEntity
100
AcDbLine
  8
g15
 62
256
370
-1
  6
ByLayer
 10
-11.2904156450800084
 20
-10.3405277699799978
 30
0.0
 11
-11.4269968002600084
 21
-10.6781901147799978
 31
0.0
  0
LINE
  5
172
100
AcDbEntity
100
AcDbLine
  8
g15
 62
256
370
-1
  6
ByLayer
 10
-11.4269968002600084
 20
-10.6781901147799978
 30
0.0
 11
-11.5585651729200087
 21
-11.0634339670799999
 31
0.0
  0
LINE
  5
173
100
AcDbEntity
100
AcDbLine
  8
g15
 62
256
370
-1
  6
ByLayer
 10
-8.0301467616400064
 20
-11.4680749468399998
 30
0.0
 11
-8.0430756582600065
 21
-11.4851614684199994
 31
0.0
  0
LINE
  5
174
100
AcDbEntity
100
AcDbLine
  8
g15
 62
256
370
-1
  6
ByLayer
 10
-8.0430756582600065
 20
-11.4851614684199994
 30
0.0
 11
-8.0843338548000077
 21
-11.5344504040799976
 31
0.0
  0
LINE
  5
175
100
AcDbEntity
100
AcDbLine
  8
g15
 62
256
370
-1
  6
ByLayer
 10
-8.0843338548000077
 20
-11.5344504040799976
 30
0.0
 11
-8.157438644460008
 21
-11.6127599975999978
 31
0.0
  0
LINE
  5
176
100
AcDbEntity
100
AcDbLine
  8
g15
 62
256
370
-1
  6
ByLayer
 10
-8.157438644460008
 20
-11.6127599975999978
 30
0.0
 11
-8.2656366705600064
 21
-11.7166228253
 31
0.0
  0
LINE
  5
177
100
AcDbEntity
100
AcDbLine
  8
g15
 62
256
370
-1
  6
ByLayer
 10
-8.2656366705600064
 20
-11.7166228253
 30
0.0
 11
-8.411883369600007
 21
-11.8423062861999977
 31
0.0
  0
LINE
  5
178
100
AcDbEntity
100
AcDbLine
  8
g15
 62
256
370
-1
  6
ByLayer
 10
-8.411883369600007
 20
-11.8423062861999977
 30
0.0
 11
-8.5988238678600073
 21
-11.9858344761600009
 31
0.0
  0
LINE
  5
179
100
AcDbEntity
100
AcDbLine
  8
g15
 62
256
370
-1
  6
ByLayer
 10
-8.5988238678600073
 20
-11.9858344761600009
 30
0.0
 11
-8.8287754210600067
 21
-12.1430113466399998
 31
0.0
  0
LINE
  5
17A
100
AcDbEntity
100
AcDbLine
  8
g15
 62
256
370
-1
  6
ByLayer
 10
-8.8287754210600067
 20
-12.1430113466399998
 30
0.0
 11
-9.1037114798800065
 21
-12.3094450440200003
 31
0.0
  0
LINE
  5
17B
100
AcDbEntity
100
AcDbLine
  8
g15
 62
256
370
-1
  6
ByLayer
 10
-9.1037114798800065
 20
-12.3094450440200003
 30
0.0
 11
-9.4252474567600064
 21
-12.4805733193399995
 31
0.0
  0
LINE
  5
17C
100
AcDbEntity
100
AcDbLine
  8
g15
 62
256
370
-1
  6
ByLayer
 10
-9.4252474567600064
 20
-12.4805733193399995
 30
0.0
 11
-9.794628263120007
 21
-12.6516898945600005
 31
0.0
  0
LINE
  5
17D
100
AcDbEntity
100
AcDbLine
  8
g15
 62
256
370
-1
  6
ByLayer
 10
-11.5585651729200087
 20
-11.0634339670799999
 30
0.0
 11
-11.5585651729200087
 21
-11.0634339670599999
 31
0.0
  0
LINE
  5
17E
100
AcDbEntity
100
AcDbLine
  8
g15
 62
256
370
-1
  6
ByLayer
 10
-9.794628263120007
 20
-12.6516898945600005
 30
0.0
 11
-9.794628263100007
 21
-12.6516898945400005
 31
0.0
  0
LINE
  5
17F
100
AcDbEntity
100
AcDbLine
  8
g15
 62
256
370
-1
  6
ByLayer
 10
-11.5585651729200087
 20
-11.0634339670599999
 30
0.0
 11
-9.794628263100007
 21
-12.6516898945400005
 31
0.0
  0
LINE
  5
180
100
AcDbEntity
100
AcDbLine
  8
g15
 62
256
370
-1
  6
ByLayer
 10
-8.0301467616400064
 20
-11.4680749468399998
 30
0.0
 11
-5.9165708556600078
 21
-12.6883485651199983
 31
0.0
  0
LINE
  5
181
100
AcDbEntity
100
AcDbLine
  8
g15
 62
256
370
-1
  6
ByLayer
 10
-5.9165708556600078
 20
-12.6883485651199983
 30
0.0
 11
-5.9249037690800073
 21
-12.70808857882
 31
0.0
  0
LINE
  5
182
100
AcDbEntity
100
AcDbLine
  8
g15
 62
256
370
-1
  6
ByLayer
 10
-5.9249037690800073
 20
-12.70808857882
 30
0.0
 11
-5.946960141220007
 21
-12.7684636929799993
 31
0.0
  0
LINE
  5
183
100
AcDbEntity
100
AcDbLine
  8
g15
 62
256
370
-1
  6
ByLayer
 10
-5.946960141220007
 20
-12.7684636929799993
 30
0.0
 11
-5.9782258437600069
 21
-12.8709290947199992
 31
0.0
  0
LINE
  5
184
100
AcDbEntity
100
AcDbLine
  8
g15
 62
256
370
-1
  6
ByLayer
 10
-5.9782258437600069
 20
-12.8709290947199992
 30
0.0
 11
-6.0140746779800072
 21
-13.0165627478200001
 31
0.0
  0
LINE
  5
185
100
AcDbEntity
100
AcDbLine
  8
g15
 62
256
370
-1
  6
ByLayer
 10
-6.0140746779800072
 20
-13.0165627478200001
 30
0.0
 11
-6.0497963984400078
 21
-13.2060578348599993
 31
0.0
  0
LINE
  5
186
100
AcDbEntity
100
AcDbLine
  8
g15
 62
256
370
-1
  6
ByLayer
 10
-6.0497963984400078
 20
-13.2060578348599993
 30
0.0
 11
-6.0806252079800078
 21
-13.4397171502999999
 31
0.0
  0
LINE
  5
187
100
AcDbEntity
100
AcDbLine
  8
g15
 62
256
370
-1
  6
ByLayer
 10
-6.0806252079800078
 20
-13.4397171502999999
 30
0.0
 11
-6.1017685941000082
 21
-13.7174494722600002
 31
0.0
  0
LINE
  5
188
100
AcDbEntity
100
AcDbLine
  8
g15
 62
256
370
-1
  6
ByLayer
 10
-6.1017685941000082
 20
-13.7174494722600002
 30
0.0
 11
-6.1084363746600072
 21
-14.0387679323000008
 31
0.0
  0
LINE
  5
189
100
AcDbEntity
100
AcDbLine
  8
g15
 62
256
370
-1
  6
ByLayer
 10
-6.1084363746600072
 20
-14.0387679323000008
 30
0.0
 11
-6.095869819960007
 21
-14.4027903941800002
 31
0.0
  0
LINE
  5
18A
100
AcDbEntity
100
AcDbLine
  8
g15
 62
256
370
-1
  6
ByLayer
 10
-6.095869819960007
 20
-14.4027903941800002
 30
0.0
 11
-6.0593707179400074
 21
-14.8082418437599976
 31
0.0
  0
LINE
  5
18B
100
AcDbEntity
100
AcDbLine
  8
g15
 62
256
370
-1
  6
ByLayer
 10
-2.6714177918800073
 20
-13.7427627128399994
 30
0.0
 11
-2.676279212240007
 21
-13.7636306830000006
 31
0.0
  0
LINE
  5
18C
100
AcDbEntity
100
AcDbLine
  8
g15
 62
256
370
-1
  6
ByLayer
 10
-2.676279212240007
 20
-13.7636306830000006
 30
0.0
 11
-2.693922834040007
 21
-13.8254395866599982
 31
0.0
  0
LINE
  5
18D
100
AcDbEntity
100
AcDbLine
  8
g15
 62
256
370
-1
  6
ByLayer
 10
-2.693922834040007
 20
-13.8254395866599982
 30
0.0
 11
-2.7288560013600067
 21
-13.9267133568600006
 31
0.0
  0
LINE
  5
18E
100
AcDbEntity
100
AcDbLine
  8
g15
 62
256
370
-1
  6
ByLayer
 10
-2.7288560013600067
 20
-13.9267133568600006
 30
0.0
 11
-2.7854549987800072
 21
-14.0656048732399999
 31
0.0
  0
LINE
  5
18F
100
AcDbEntity
100
AcDbLine
  8
g15
 62
256
370
-1
  6
ByLayer
 10
-2.7854549987800072
 20
-14.0656048732399999
 30
0.0
 11
-2.8679379374000069
 21
-14.2399063194799993
 31
0.0
  0
LINE
  5
190
100
AcDbEntity
100
AcDbLine
  8
g15
 62
256
370
-1
  6
ByLayer
 10
-2.8679379374000069
 20
-14.2399063194799993
 30
0.0
 11
-2.9803384062600071
 21
-14.4470613961600005
 31
0.0
  0
LINE
  5
191
100
AcDbEntity
100
AcDbLine
  8
g15
 62
256
370
-1
  6
ByLayer
 10
-2.9803384062600071
 20
-14.4470613961600005
 30
0.0
 11
-3.126480010500007
 21
-14.6841793350599996
 31
0.0
  0
LINE
  5
192
100
AcDbEntity
100
AcDbLine
  8
g15
 62
256
370
-1
  6
ByLayer
 10
-3.126480010500007
 20
-14.6841793350599996
 30
0.0
 11
-3.3099519148000072
 21
-14.9480506529199992
 31
0.0
  0
LINE
  5
193
100
AcDbEntity
100
AcDbLine
  8
g15
 62
256
370
-1
  6
ByLayer
 10
-3.3099519148000072
 20
-14.9480506529199992
 30
0.0
 11
-3.5340855057200069
 21
-15.2351645753800007
 31
0.0
  0
LINE
  5
194
100
AcDbEntity
100
AcDbLine
  8
g15
 62
256
370
-1
  6
ByLayer
 10
-3.5340855057200069
 20
-15.2351645753800007
 30
0.0
 11
-3.8019322821200072
 21
-15.5417280546000001
 31
0.0
  0
LINE
  5
195
100
AcDbEntity
100
AcDbLine
  8
g15
 62
256
370
-1
  6
ByLayer
 10
-6.0593707179400074
 20
-14.8082418437599976
 30
0.0
 11
-6.0593707179200074
 21
-14.8082418437399994
 31
0.0
  0
LINE
  5
196
100
AcDbEntity
100
AcDbLine
  8
g15
 62
256
370
-1
  6
ByLayer
 10
-3.8019322821200072
 20
-15.5417280546000001
 30
0.0
 11
-3.8019322821000072
 21
-15.5417280545800001
 31
0.0
  0
LINE
  5
197
100
AcDbEntity
100
AcDbLine
  8
g15
 62
256
370
-1
  6
ByLayer
 10
-6.0593707179200074
 20
-14.8082418437399994
 30
0.0
 11
-3.8019322821000072
 21
-15.5417280545800001
 31
0.0
  0
LINE
  5
198
100
AcDbEntity
100
AcDbLine
  8
g15
 62
256
370
-1
  6
ByLayer
 10
-2.6714177918800073
 20
-13.7427627128399994
 30
0.0
 11
-0.244240128452007
 21
-13.9978693649999979
 31
0.0
  0
LINE
  5
199
100
AcDbEntity
100
AcDbLine
  8
g15
 62
256
370
-1
  6
ByLayer
 10
-0.244240128452007
 20
-13.9978693649999979
 30
0.0
 11
-0.243823636756007
 21
-14.0192920660799984
 31
0.0
  0
LINE
  5
19A
100
AcDbEntity
100
AcDbLine
  8
g15
 62
256
370
-1
  6
ByLayer
 10
-0.243823636756007
 20
-14.0192920660799984
 30
0.0
 11
-0.239416364080007
 21
-14.0834186121399991
 31
0.0
  0
LINE
  5
19B
100
AcDbEntity
100
AcDbLine
  8
g15
 62
256
370
-1
  6
ByLayer
 10
-0.239416364080007
 20
-14.0834186121399991
 30
0.0
 11
-0.226302571074007
 21
-14.1897423213600007
 31
0.0
  0
LINE
  5
19C
100
AcDbEntity
100
AcDbLine
  8
g15
 62
256
370
-1
  6
ByLayer
 10
-0.226302571074007
 20
-14.1897423213600007
 30
0.0
 11
-0.199817567569207
 21
-14.3373663181200008
 31
0.0
  0
LINE
  5
19D
100
AcDbEntity
100
AcDbLine
  8
g15
 62
256
370
-1
  6
ByLayer
 10
-0.199817567569207
 20
-14.3373663181200008
 30
0.0
 11
-0.155376387449407
 21
-14.5250080268000001
 31
0.0
  0
LINE
  5
19E
100
AcDbEntity
100
AcDbLine
  8
g15
 62
256
370
-1
  6
ByLayer
 10
-0.155376387449407
 20
-14.5250080268000001
 30
0.0
 11
-0.088502100775607
 21
-14.7510056395600007
 31
0.0
  0
LINE
  5
19F
100
AcDbEntity
100
AcDbLine
  8
g15
 62
256
370
-1
  6
ByLayer
 10
-0.088502100775607
 20
-14.7510056395600007
 30
0.0
 11
0.005146367178833
 21
-15.0133265306200006
 31
0.0
  0
LINE
  5
1A0
100
AcDbEntity
100
AcDbLine
  8
g15
 62
256
370
-1
  6
ByLayer
 10
0.005146367178833
 20
-15.0133265306200006
 30
0.0
 11
0.129747038332393
 21
-15.3095775809199992
 31
0.0
  0
LINE
  5
1A1
100
AcDbEntity
100
AcDbLine
  8
g15
 62
256
370
-1
  6
ByLayer
 10
0.129747038332393
 20
-15.3095775809199992
 30
0.0
 11
0.289288431453993
 21
-15.6370173691800005
 31
0.0
  0
LINE
  5
1A2
100
AcDbEntity
100
AcDbLine
  8
g15
 62
256
370
-1
  6
ByLayer
 10
0.289288431453993
 20
-15.6370173691800005
 30
0.0
 11
0.487543981841993
 21
-15.9925701769999993
 31
0.0
  0
LINE
  5
1A3
100
AcDbEntity
100
AcDbLine
  8
g15
 62
256
370
-1
  6
ByLayer
 10
3.1492235831799933
 20
-13.6412019566799998
 30
0.0
 11
3.1532702228199927
 21
-13.6622431138400007
 31
0.0
  0
LINE
  5
1A4
100
AcDbEntity
100
AcDbLine
  8
g15
 62
256
370
-1
  6
ByLayer
 10
3.1532702228199927
 20
-13.6622431138400007
 30
0.0
 11
3.1622919182399936
 21
-13.7258846645199988
 31
0.0
  0
LINE
  5
1A5
100
AcDbEntity
100
AcDbLine
  8
g15
 62
256
370
-1
  6
ByLayer
 10
3.1622919182399936
 20
-13.7258846645199988
 30
0.0
 11
3.1715706352399931
 21
-13.8326114564800005
 31
0.0
  0
LINE
  5
1A6
100
AcDbEntity
100
AcDbLine
  8
g15
 62
256
370
-1
  6
ByLayer
 10
3.1715706352399931
 20
-13.8326114564800005
 30
0.0
 11
3.176357147379993
 21
-13.9825160565799997
 31
0.0
  0
LINE
  5
1A7
100
AcDbEntity
100
AcDbLine
  8
g15
 62
256
370
-1
  6
ByLayer
 10
3.176357147379993
 20
-13.9825160565799997
 30
0.0
 11
3.1719000185799935
 21
-14.1752971846199998
 31
0.0
  0
LINE
  5
1A8
100
AcDbEntity
100
AcDbLine
  8
g15
 62
256
370
-1
  6
ByLayer
 10
3.1719000185799935
 20
-14.1752971846199998
 30
0.0
 11
3.1534746413199928
 21
-14.4102601533399994
 31
0.0
  0
LINE
  5
1A9
100
AcDbEntity
100
AcDbLine
  8
g15
 62
256
370
-1
  6
ByLayer
 10
3.1534746413199928
 20
-14.4102601533399994
 30
0.0
 11
3.1164121970799932
 21
-14.6863193148600004
 31
0.0
  0
LINE
  5
1AA
100
AcDbEntity
100
AcDbLine
  8
g15
 62
256
370
-1
  6
ByLayer
 10
3.1164121970799932
 20
-14.6863193148600004
 30
0.0
 11
3.0561284062999934
 21
-15.0020025051600001
 31
0.0
  0
LINE
  5
1AB
100
AcDbEntity
100
AcDbLine
  8
g15
 62
256
370
-1
  6
ByLayer
 10
3.0561284062999934
 20
-15.0020025051600001
 30
0.0
 11
2.9681519354199928
 21
-15.3554574692199992
 31
0.0
  0
LINE
  5
1AC
100
AcDbEntity
100
AcDbLine
  8
g15
 62
256
370
-1
  6
ByLayer
 10
2.9681519354199928
 20
-15.3554574692199992
 30
0.0
 11
2.8481523299399933
 21
-15.7444602418200006
 31
0.0
  0
LINE
  5
1AD
100
AcDbEntity
100
AcDbLine
  8
g15
 62
256
370
-1
  6
ByLayer
 10
0.487543981841993
 20
-15.9925701769999993
 30
0.0
 11
0.487543981839993
 21
-15.9925701769799993
 31
0.0
  0
LINE
  5
1AE
100
AcDbEntity
100
AcDbLine
  8
g15
 62
256
370
-1
  6
ByLayer
 10
2.8481523299399933
 20
-15.7444602418200006
 30
0.0
 11
2.8481523299199933
 21
-15.7444602418000006
 31
0.0
  0
LINE
  5
1AF
100
AcDbEntity
100
AcDbLine
  8
g15
 62
256
370
-1
  6
ByLayer
 10
0.487543981839993
 20
-15.9925701769799993
 30
0.0
 11
2.8481523299199933
 21
-15.7444602418000006
 31
0.0
  0
LINE
  5
1B0
100
AcDbEntity
100
AcDbLine
  8
g15
 62
256
370
-1
  6
ByLayer
 10
3.1492235831799933
 20
-13.6412019566799998
 30
0.0
 11
5.4703219358199933
 21
-12.8870313850199985
 31
0.0
  0
LINE
  5
1B1
100
AcDbEntity
100
AcDbLine
  8
g15
 62
256
370
-1
  6
ByLayer
 10
5.4703219358199933
 20
-12.8870313850199985
 30
0.0
 11
5.4794158174399925
 21
-12.9064325938599982
 31
0.0
  0
LINE
  5
1B2
100
AcDbEntity
100
AcDbLine
  8
g15
 62
256
370
-1
  6
ByLayer
 10
5.4794158174399925
 20
-12.9064325938599982
 30
0.0
 11
5.5095246774399929
 21
-12.9632225094199995
 31
0.0
  0
LINE
  5
1B3
100
AcDbEntity
100
AcDbLine
  8
g15
 62
256
370
-1
  6
ByLayer
 10
5.5095246774399929
 20
-12.9632225094199995
 30
0.0
 11
5.564750472039993
 21
-13.0550201908599988
 31
0.0
  0
LINE
  5
1B4
100
AcDbEntity
100
AcDbLine
  8
g15
 62
256
370
-1
  6
ByLayer
 10
5.564750472039993
 20
-13.0550201908599988
 30
0.0
 11
5.6489898155599931
 21
-13.1791090011400005
 31
0.0
  0
LINE
  5
1B5
100
AcDbEntity
100
AcDbLine
  8
g15
 62
256
370
-1
  6
ByLayer
 10
5.6489898155599931
 20
-13.1791090011400005
 30
0.0
 11
5.7659096124799936
 21
-13.3324523753400008
 31
0.0
  0
LINE
  5
1B6
100
AcDbEntity
100
AcDbLine
  8
g15
 62
256
370
-1
  6
ByLayer
 10
5.7659096124799936
 20
-13.3324523753400008
 30
0.0
 11
5.918923823679993
 21
-13.511711245059999
 31
0.0
  0
LINE
  5
1B7
100
AcDbEntity
100
AcDbLine
  8
g15
 62
256
370
-1
  6
ByLayer
 10
5.918923823679993
 20
-13.511711245059999
 30
0.0
 11
6.1111714748199937
 21
-13.7132630400399993
 31
0.0
  0
LINE
  5
1B8
100
AcDbEntity
100
AcDbLine
  8
g15
 62
256
370
-1
  6
ByLayer
 10
6.1111714748199937
 20
-13.7132630400399993
 30
0.0
 11
6.3454960096799935
 21
-13.9332221826599998
 31
0.0
  0
LINE
  5
1B9
100
AcDbEntity
100
AcDbLine
  8
g15
 62
256
370
-1
  6
ByLayer
 10
6.3454960096799935
 20
-13.9332221826599998
 30
0.0
 11
6.6244260849599934
 21
-14.1674619832000008
 31
0.0
  0
LINE
  5
1BA
100
AcDbEntity
100
AcDbLine
  8
g15
 62
256
370
-1
  6
ByLayer
 10
6.6244260849599934
 20
-14.1674619832000008
 30
0.0
 11
6.9501578979599925
 21
-14.4116378387000008
 31
0.0
  0
LINE
  5
1BB
100
AcDbEntity
100
AcDbLine
  8
g15
 62
256
370
-1
  6
ByLayer
 10
8.4253355908999943
 20
-11.1809534557999992
 30
0.0
 11
8.4375905897999921
 21
-11.1985295927199999
 31
0.0
  0
LINE
  5
1BC
100
AcDbEntity
100
AcDbLine
  8
g15
 62
256
370
-1
  6
ByLayer
 10
8.4375905897999921
 20
-11.1985295927199999
 30
0.0
 11
8.4717176693399932
 21
-11.252999588159998
 31
0.0
  0
LINE
  5
1BD
100
AcDbEntity
100
AcDbLine
  8
g15
 62
256
370
-1
  6
ByLayer
 10
8.4717176693399932
 20
-11.252999588159998
 30
0.0
 11
8.523603896199992
 21
-11.3467253699399997
 31
0.0
  0
LINE
  5
1BE
100
AcDbEntity
100
AcDbLine
  8
g15
 62
256
370
-1
  6
ByLayer
 10
8.523603896199992
 20
-11.3467253699399997
 30
0.0
 11
8.5889482864399938
 21
-11.4817231865599982
 31
0.0
  0
LINE
  5
1BF
100
AcDbEntity
100
AcDbLine
  8
g15
 62
256
370
-1
  6
ByLayer
 10
8.5889482864399938
 20
-11.4817231865599982
 30
0.0
 11
8.6632876455399934
 21
-11.6596503880199993
 31
0.0
  0
LINE
  5
1C0
100
AcDbEntity
100
AcDbLine
  8
g15
 62
256
370
-1
  6
ByLayer
 10
8.6632876455399934
 20
-11.6596503880199993
 30
0.0
 11
8.7420232749799922
 21
-11.8817940168999989
 31
0.0
  0
LINE
  5
1C1
100
AcDbEntity
100
AcDbLine
  8
g15
 62
256
370
-1
  6
ByLayer
 10
8.7420232749799922
 20
-11.8817940168999989
 30
0.0
 11
8.8204484240399932
 21
-12.1490612641000002
 31
0.0
  0
LINE
  5
1C2
100
AcDbEntity
100
AcDbLine
  8
g15
 62
256
370
-1
  6
ByLayer
 10
8.8204484240399932
 20
-12.1490612641000002
 30
0.0
 11
8.8937763619199934
 21
-12.4619718353399982
 31
0.0
  0
LINE
  5
1C3
100
AcDbEntity
100
AcDbLine
  8
g15
 62
256
370
-1
  6
ByLayer
 10
8.8937763619199934
 20
-12.4619718353399982
 30
0.0
 11
8.957168942119992
 21
-12.820652266659998
 31
0.0
  0
LINE
  5
1C4
100
AcDbEntity
100
AcDbLine
  8
g15
 62
256
370
-1
  6
ByLayer
 10
8.957168942119992
 20
-12.820652266659998
 30
0.0
 11
9.0057655294799925
 21
-13.2248322192999996
 31
0.0
  0
LINE
  5
1C5
100
AcDbEntity
100
AcDbLine
  8
g15
 62
256
370
-1
  6
ByLayer
 10
6.9501578979599925
 20
-14.4116378387000008
 30
0.0
 11
6.9501578979599925
 21
-14.4116378386800008
 31
0.0
  0
LINE
  5
1C6
100
AcDbEntity
100
AcDbLine
  8
g15
 62
256
370
-1
  6
ByLayer
 10
9.0057655294799925
 20
-13.2248322192999996
 30
0.0
 11
9.0057655294599925
 21
-13.2248322192799996
 31
0.0
  0
LINE
  5
1C7
100
AcDbEntity
100
AcDbLine
  8
g15
 62
256
370
-1
  6
ByLayer
 10
6.9501578979599925
 20
-14.4116378386800008
 30
0.0
 11
9.0057655294599925
 21
-13.2248322192799996
 31
0.0
  0
LINE
  5
1C8
100
AcDbEntity
100
AcDbLine
  8
g15
 62
256
370
-1
  6
ByLayer
 10
8.4253355908999943
 20
-11.1809534557999992
 30
0.0
 11
10.2390156410599946
 21
-9.5479086035599998
 31
0.0
  0
LINE
  5
1C9
100
AcDbEntity
100
AcDbLine
  8
g15
 62
256
370
-1
  6
ByLayer
 10
10.2390156410599946
 20
-9.5479086035599998
 30
0.0
 11
10.2552144978599937
 21
-9.5619336748800006
 31
0.0
  0
LINE
  5
1CA
100
AcDbEntity
100
AcDbLine
  8
g15
 62
256
370
-1
  6
ByLayer
 10
10.2552144978599937
 20
-9.5619336748800006
 30
0.0
 11
10.3058188497799925
 21
-9.6015674676399989
 31
0.0
  0
LINE
  5
1CB
100
AcDbEntity
100
AcDbLine
  8
g15
 62
256
370
-1
  6
ByLayer
 10
10.3058188497799925
 20
-9.6015674676399989
 30
0.0
 11
10.3936076043599925
 21
-9.6629664682399987
 31
0.0
  0
LINE
  5
1CC
100
AcDbEntity
100
AcDbLine
  8
g15
 62
256
370
-1
  6
ByLayer
 10
10.3936076043599925
 20
-9.6629664682399987
 30
0.0
 11
10.5210355401399926
 21
-9.7420640093999982
 31
0.0
  0
LINE
  5
1CD
100
AcDbEntity
100
AcDbLine
  8
g15
 62
256
370
-1
  6
ByLayer
 10
10.5210355401399926
 20
-9.7420640093999982
 30
0.0
 11
10.6902174587799941
 21
-9.8345945866599997
 31
0.0
  0
LINE
  5
1CE
100
AcDbEntity
100
AcDbLine
  8
g15
 62
256
370
-1
  6
ByLayer
 10
10.6902174587799941
 20
-9.8345945866599997
 30
0.0
 11
10.9029140472799924
 21
-9.9361192262400007
 31
0.0
  0
LINE
  5
1CF
100
AcDbEntity
100
AcDbLine
  8
g15
 62
256
370
-1
  6
ByLayer
 10
10.9029140472799924
 20
-9.9361192262400007
 30
0.0
 11
11.1605195162199955
 21
-10.0420517887599985
 31
0.0
  0
LINE
  5
1D0
100
AcDbEntity
100
AcDbLine
  8
g15
 62
256
370
-1
  6
ByLayer
 10
11.1605195162199955
 20
-10.0420517887599985
 30
0.0
 11
11.4640510739399932
 21
-10.1476860896600005
 31
0.0
  0
LINE
  5
1D1
100
AcDbEntity
100
AcDbLine
  8
g15
 62
256
370
-1
  6
ByLayer
 10
11.4640510739399932
 20
-10.1476860896600005
 30
0.0
 11
11.8141402873599954
 21
-10.2482237129799998
 31
0.0
  0
LINE
  5
1D2
100
AcDbEntity
100
AcDbLine
  8
g15
 62
256
370
-1
  6
ByLayer
 10
11.8141402873599954
 20
-10.2482237129799998
 30
0.0
 11
12.2110263733199922
 21
-10.3388023924799981
 31
0.0
  0
LINE
  5
1D3
100
AcDbEntity
100
AcDbLine
  8
g15
 62
256
370
-1
  6
ByLayer
 10
12.2446305331799934
 20
-6.7874165266399995
 30
0.0
 11
12.2629748906799936
 21
-6.798488569559999
 31
0.0
  0
LINE
  5
1D4
100
AcDbEntity
100
AcDbLine
  8
g15
 62
256
370
-1
  6
ByLayer
 10
12.2629748906799936
 20
-6.798488569559999
 30
0.0
 11
12.3163064722799938
 21
-6.8343686526999994
 31
0.0
  0
LINE
  5
1D5
100
AcDbEntity
100
AcDbLine
  8
g15
 62
256
370
-1
  6
ByLayer
 10
12.3163064722799938
 20
-6.8343686526999994
 30
0.0
 11
12.4018286089799936
 21
-6.8988873851799992
 31
0.0
  0
LINE
  5
1D6
100
AcDbEntity
100
AcDbLine
  8
g15
 62
256
370
-1
  6
ByLayer
 10
12.4018286089799936
 20
-6.8988873851799992
 30
0.0
 11
12.5164322386399931
 21
-6.9956360694199988
 31
0.0
  0
LINE
  5
1D7
100
AcDbEntity
100
AcDbLine
  8
g15
 62
256
370
-1
  6
ByLayer
 10
12.5164322386399931
 20
-6.9956360694199988
 30
0.0
 11
12.6567141350999925
 21
-7.1279441147199991
 31
0.0
  0
LINE
  5
1D8
100
AcDbEntity
100
AcDbLine
  8
g15
 62
256
370
-1
  6
ByLayer
 10
12.6567141350999925
 20
-7.1279441147199991
 30
0.0
 11
12.818996665619995
 21
-7.2988577522199991
 31
0.0
  0
LINE
  5
1D9
100
AcDbEntity
100
AcDbLine
  8
g15
 62
256
370
-1
  6
ByLayer
 10
12.818996665619995
 20
-7.2988577522199991
 30
0.0
 11
12.9993489872399941
 21
-7.51112015002
 31
0.0
  0
LINE
  5
1DA
100
AcDbEntity
100
AcDbLine
  8
g15
 62
256
370
-1
  6
ByLayer
 10
12.9993489872399941
 20
-7.51112015002
 30
0.0
 11
13.1936095871199939
 21
-7.7671530217200004
 31
0.0
  0
LINE
  5
1DB
100
AcDbEntity
100
AcDbLine
  8
g15
 62
256
370
-1
  6
ByLayer
 10
13.1936095871199939
 20
-7.7671530217200004
 30
0.0
 11
13.3974100653999955
 21
-8.0690398152399982
 31
0.0
  0
LINE
  5
1DC
100
AcDbEntity
100
AcDbLine
  8
g15
 62
256
370
-1
  6
ByLayer
 10
13.3974100653999955
 20
-8.0690398152399982
 30
0.0
 11
13.606200054179995
 21
-8.4185105622399998
 31
0.0
  0
LINE
  5
1DD
100
AcDbEntity
100
AcDbLine
  8
g15
 62
256
370
-1
  6
ByLayer
 10
12.2110263733199922
 20
-10.3388023924799981
 30
0.0
 11
12.211026373299994
 21
-10.3388023924599999
 31
0.0
  0
LINE
  5
1DE
100
AcDbEntity
100
AcDbLine
  8
g15
 62
256
370
-1
  6
ByLayer
 10
13.606200054179995
 20
-8.4185105622399998
 30
0.0
 11
13.6062000541599932
 21
-8.4185105622199998
 31
0.0
  0
LINE
  5
1DF
100
AcDbEntity
100
AcDbLine
  8
g15
 62
256
370
-1
  6
ByLayer
 10
12.211026373299994
 20
-10.3388023924599999
 30
0.0
 11
13.6062000541599932
 21
-8.4185105622199998
 31
0.0
  0
LINE
  5
1E0
100
AcDbEntity
100
AcDbLine
  8
g15
 62
256
370
-1
  6
ByLayer
 10
12.2446305331799934
 20
-6.7874165266399995
 30
0.0
 11
13.2372905234399951
 21
-4.5578656845399994
 31
0.0
  0
LINE
  5
1E1
100
AcDbEntity
100
AcDbLine
  8
g15
 62
256
370
-1
  6
ByLayer
 10
13.2372905234399951
 20
-4.5578656845399994
 30
0.0
 11
13.2577934258999921
 21
-4.564089556079999
 31
0.0
  0
LINE
  5
1E2
100
AcDbEntity
100
AcDbLine
  8
g15
 62
256
370
-1
  6
ByLayer
 10
13.2577934258999921
 20
-4.564089556079999
 30
0.0
 11
13.3201433175599941
 21
-4.5797141832199992
 31
0.0
  0
LINE
  5
1E3
100
AcDbEntity
100
AcDbLine
  8
g15
 62
256
370
-1
  6
ByLayer
 10
13.3201433175599941
 20
-4.5797141832199992
 30
0.0
 11
13.4253155589399942
 21
-4.6000980579799995
 31
0.0
  0
LINE
  5
1E4
100
AcDbEntity
100
AcDbLine
  8
g15
 62
256
370
-1
  6
ByLayer
 10
13.4253155589399942
 20
-4.6000980579799995
 30
0.0
 11
13.5738986391999923
 21
-4.6205276465799994
 31
0.0
  0
LINE
  5
1E5
100
AcDbEntity
100
AcDbLine
  8
g15
 62
256
370
-1
  6
ByLayer
 10
13.5738986391999923
 20
-4.6205276465799994
 30
0.0
 11
13.7660895888799946
 21
-4.6362460494799995
 31
0.0
  0
LINE
  5
1E6
100
AcDbEntity
100
AcDbLine
  8
g15
 62
256
370
-1
  6
ByLayer
 10
13.7660895888799946
 20
-4.6362460494799995
 30
0.0
 11
14.0016913822399953
 21
-4.6424819263999995
 31
0.0
  0
LINE
  5
1E7
100
AcDbEntity
100
AcDbLine
  8
g15
 62
256
370
-1
  6
ByLayer
 10
14.0016913822399953
 20
-4.6424819263999995
 30
0.0
 11
14.2801123431399937
 21
-4.6344785540199993
 31
0.0
  0
LINE
  5
1E8
100
AcDbEntity
100
AcDbLine
  8
g15
 62
256
370
-1
  6
ByLayer
 10
14.2801123431399937
 20
-4.6344785540199993
 30
0.0
 11
14.6003675598799934
 21
-4.6075228829399988
 31
0.0
  0
LINE
  5
1E9
100
AcDbEntity
100
AcDbLine
  8
g15
 62
256
370
-1
  6
ByLayer
 10
14.6003675598799934
 20
-4.6075228829399988
 30
0.0
 11
14.9610823059799927
 21
-4.5569744605799993
 31
0.0
  0
LINE
  5
1EA
100
AcDbEntity
100
AcDbLine
  8
g15
 62
256
370
-1
  6
ByLayer
 10
14.9610823059799927
 20
-4.5569744605799993
 30
0.0
 11
15.3604974550399938
 21
-4.4782940875199992
 31
0.0
  0
LINE
  5
1EB
100
AcDbEntity
100
AcDbLine
  8
g15
 62
256
370
-1
  6
ByLayer
 10
13.946717617299992
 20
-1.2202736182719989
 30
0.0
 11
13.9679794273399942
 21
-1.2229271104059989
 31
0.0
  0
LINE
  5
1EC
100
AcDbEntity
100
AcDbLine
  8
g15
 62
256
370
-1
  6
ByLayer
 10
13.9679794273399942
 20
-1.2229271104059989
 30
0.0
 11
14.0312939960199952
 21
-1.2340132888959989
 31
0.0
  0
LINE
  5
1ED
100
AcDbEntity
100
AcDbLine
  8
g15
 62
256
370
-1
  6
ByLayer
 10
14.0312939960199952
 20
-1.2340132888959989
 30
0.0
 11
14.1356644881999944
 21
-1.2581690971039989
 31
0.0
  0
LINE
  5
1EE
100
AcDbEntity
100
AcDbLine
  8
g15
 62
256
370
-1
  6
ByLayer
 10
14.1356644881999944
 20
-1.2581690971039989
 30
0.0
 11
14.279711348559994
 21
-1.2999399225119987
 31
0.0
  0
LINE
  5
1EF
100
AcDbEntity
100
AcDbLine
  8
g15
 62
256
370
-1
  6
ByLayer
 10
14.279711348559994
 20
-1.2999399225119987
 30
0.0
 11
14.4616797680599944
 21
-1.3637515486499989
 31
0.0
  0
LINE
  5
1F0
100
AcDbEntity
100
AcDbLine
  8
g15
 62
256
370
-1
  6
ByLayer
 10
14.4616797680599944
 20
-1.3637515486499989
 30
0.0
 11
14.6794490758399938
 21
-1.4538826741479989
 31
0.0
  0
LINE
  5
1F1
100
AcDbEntity
100
AcDbLine
  8
g15
 62
256
370
-1
  6
ByLayer
 10
14.6794490758399938
 20
-1.4538826741479989
 30
0.0
 11
14.9305440151599935
 21
-1.5744381256219988
 31
0.0
  0
LINE
  5
1F2
100
AcDbEntity
100
AcDbLine
  8
g15
 62
256
370
-1
  6
ByLayer
 10
14.9305440151599935
 20
-1.5744381256219988
 30
0.0
 11
15.2121478545399942
 21
-1.7293228882919989
 31
0.0
  0
LINE
  5
1F3
100
AcDbEntity
100
AcDbLine
  8
g15
 62
256
370
-1
  6
ByLayer
 10
15.2121478545399942
 20
-1.7293228882919989
 30
0.0
 11
15.521117276719993
 21
-1.922217074847999
 31
0.0
  0
LINE
  5
1F4
100
AcDbEntity
100
AcDbLine
  8
g15
 62
256
370
-1
  6
ByLayer
 10
15.521117276719993
 20
-1.922217074847999
 30
0.0
 11
15.8539989810399931
 21
-2.1565519491999985
 31
0.0
  0
LINE
  5
1F5
100
AcDbEntity
100
AcDbLine
  8
g15
 62
256
370
-1
  6
ByLayer
 10
15.3604974550399938
 20
-4.4782940875199992
 30
0.0
 11
15.3604974550199938
 21
-4.4782940875199992
 31
0.0
  0
LINE
  5
1F6
100
AcDbEntity
100
AcDbLine
  8
g15
 62
256
370
-1
  6
ByLayer
 10
15.8539989810399931
 20
-2.1565519491999985
 30
0.0
 11
15.8539989810199948
 21
-2.1565519491999985
 31
0.0
  0
LINE
  5
1F7
100
AcDbEntity
100
AcDbLine
  8
g15
 62
256
370
-1
  6
ByLayer
 10
15.3604974550199938
 20
-4.4782940875199992
 30
0.0
 11
15.8539989810199948
 21
-2.1565519491999985
 31
0.0
  0
DIMENSION
  5
1F8
100
AcDbEntity
  8
dim
 62
256
370
-1
  6
ByLayer
100
AcDbDimension
 10
-19.8662593426990739
 20
2.3090560296180076
 30
0.0
 11
-9.7166556685712244
 21
3.0169898281382093
 31
0.0
 70
1
 71
5
 72
1
 41
1.0
 42
0.0
  1

  3
Standard
100
AcDbAlignedDimension
 13
0.0
 23
0.0
 33
0.0
 14
-19.8662593427000047
 24
2.3090560296100011
 34
0.0
  0
DIMENSION
  5
1F9
100
AcDbEntity
  8
dim
 62
256
370
-1
  6
ByLayer
100
AcDbDimension
 10
9.0057655294799925
 20
13.2248322193000014
 30
0.0
 11
2.9530977390462017
 21
7.6677792576340442
 31
0.0
 70
1
 71
5
 72
1
 41
1.0
 42
0.0
  1

  3
Standard
100
AcDbAlignedDimension
 13
0.0000000000080604
 23
0.0
 33
0.0
 14
9.0057655294799925
 24
13.2248322193000014
 34
0.0
  0
DIMENSION
  5
1FA
100
AcDbEntity
  8
dim
 62
256
370
-1
  6
ByLayer
100
AcDbDimension
 10
15.0
 20
-0.0000000000000002
 30
0.0
 11
7.5
 21
1.875
 31
0.0
 70
1
 71
5
 72
1
 41
1.0
 42
0.0
  1

  3
Standard
100
AcDbAlignedDimension
 13
0.0
 23
0.0
 33
0.0
 14
15.0
 24
0.0
 34
0.0
  0
CIRCLE
  5
1FB
100
AcDbEntity
100
AcDbCircle
  8
lock
 62
256
370
-1
  6
ByLayer
 10
-10.0
 20
0.0
 30
0.0
 40
1.0
  0
CIRCLE
  5
1FC
100
AcDbEntity
100
AcDbCircle
  8
lock
 62
256
370
-1
  6
ByLayer
 10
4.9999999999999929
 20
-8.6602540378443909
 30
0.0
 40
1.0
  0
CIRCLE
  5
1FD
100
AcDbEntity
100
AcDbCircle
  8
lock
 62
256
370
-1
  6
ByLayer
 10
5.0000000000000053
 20
8.6602540378443837
 30
0.0
 40
1.0
  0
ARC
  5
1FE
100
AcDbEntity
  8
axis
 62
256
370
-1
  6
ByLayer
100
AcDbCircle
 10
0.0
 20
0.0
 30
0.0
 40
3.0
100
AcDbArc
 50
33.5573097619207061
 51
326.4426902380792512
  0
LINE
  5
1FF
100
AcDbEntity
100
AcDbLine
  8
axis
 62
256
370
-1
  6
ByLayer
 10
2.5
 20
-1.6583123951776995
 30
0.0
 11
2.5000000000000004
 21
1.658312395177699
 31
0.0
  0
ENDSEC
  0
SECTION
  2
OBJECTS
  0
DICTIONARY
  5
C
100
AcDbDictionary
280
0
281
1
  3
ACAD_GROUP
350
D
  3
ACAD_LAYOUT
350
1A
  3
ACAD_MLINESTYLE
350
17
  3
ACAD_PLOTSETTINGS
350
19
  3
ACAD_PLOTSTYLENAME
350
E
  3
AcDbVariableDictionary
350
200
  0
DICTIONARY
  5
D
100
AcDbDictionary
280
0
281
1
  0
ACDBDICTIONARYWDFLT
  5
E
100
AcDbDictionary
281
1
  3
Normal
350
F
100
AcDbDictionaryWithDefault
340
F
  0
ACDBPLACEHOLDER
  5
F
  0
DICTIONARY
  5
17
100
AcDbDictionary
280
0
281
1
  3
Standard
350
18
  0
MLINESTYLE
  5
18
100
AcDbMlineStyle
  2
STANDARD
 70
0
  3

 62
256
 51
90.0
 52
90.0
 71
2
 49
0.5
 62
256
  6
BYLAYER
 49
-0.5
 62
256
  6
BYLAYER
  0
DICTIONARY
  5
19
100
AcDbDictionary
280
0
281
1
  0
DICTIONARY
  5
1A
100
AcDbDictionary
281
1
  3
Layout1
350
1E
  3
Layout2
350
26
  3
Model
350
22
  0
LAYOUT
  5
1E
100
AcDbPlotSettings
  1

  2
C:\Program Files\AutoCAD 2002\plotters\DWF ePlot (optimized for plotting).pc3
  4

  6

 40
0.0
 41
0.0
 42
0.0
 43
0.0
 44
0.0
 45
0.0
 46
0.0
 47
0.0
 48
0.0
 49
0.0
140
0.0
141
0.0
142
1.0
143
1.0
 70
688
 72
0
 73
0
 74
5
  7

 75
16
147
1.0
148
0.0
149
0.0
100
AcDbLayout
  1
Layout1
 70
1
 71
1
 10
0.0
 20
0.0
 11
420.0
 21
297.0
 12
0.0
 22
0.0
 32
0.0
 14
100000000000000000000.0
 24
100000000000000000000.0
 34
100000000000000000000.0
 15
-100000000000000000000.0
 25
-100000000000000000000.0
 35
-100000000000000000000.0
146
0.0
 13
0.0
 23
0.0
 33
0.0
 16
1.0
 26
0.0
 36
0.0
 17
0.0
 27
1.0
 37
0.0
 76
0
330
1B
  0
LAYOUT
  5
22
100
AcDbPlotSettings
  1

  2
C:\Program Files\AutoCAD 2002\plotters\DWF ePlot (optimized for plotting).pc3
  4

  6

 40
0.0
 41
0.0
 42
0.0
 43
0.0
 44
0.0
 45
0.0
 46
0.0
 47
0.0
 48
0.0
 49
0.0
140
0.0
141
0.0
142
1.0
143
1.0
 70
1712
 72
0
 73
0
 74
0
  7

 75
0
147
1.0
148
0.0
149
0.0
100
AcDbLayout
  1
Model
 70
1
 71
0
 10
0.0
 20
0.0
 11
12.0
 21
9.0
 12
0.0
 22
0.0
 32
0.0
 14
0.0
 24
0.0
 34
0.0
 15
0.0
 25
0.0
 35
0.0
146
0.0
 13
0.0
 23
0.0
 33
0.0
 16
1.0
 26
0.0
 36
0.0
 17
0.0
 27
1.0
 37
0.0
 76
0
330
1F
  0
LAYOUT
  5
26
100
AcDbPlotSettings
  1

  2
C:\Program Files\AutoCAD 2002\plotters\DWF ePlot (optimized for plotting).pc3
  4

  6

 40
0.0
 41
0.0
 42
0.0
 43
0.0
 44
0.0
 45
0.0
 46
0.0
 47
0.0
 48
0.0
 49
0.0
140
0.0
141
0.0
142
1.0
143
1.0
 70
688
 72
0
 73
0
 74
5
  7

 75
16
147
1.0
148
0.0
149
0.0
100
AcDbLayout
  1
Layout2
 70
1
 71
2
 10
0.0
 20
0.0
 11
12.0
 21
9.0
 12
0.0
 22
0.0
 32
0.0
 14
0.0
 24
0.0
 34
0.0
 15
0.0
 25
0.0
 35
0.0
146
0.0
 13
0.0
 23
0.0
 33
0.0
 16
1.0
 26
0.0
 36
0.0
 17
0.0
 27
1.0
 37
0.0
 76
0
330
23
  0
DICTIONARY
  5
200
100
AcDbDictionary
281
1
  3
DIMASSOC
350
202
  3
HIDETEXT
350
201
  0
DICTIONARYVAR
  5
201
100
DictionaryVariables
280
0
  1
2
  0
DICTIONARYVAR
  5
202
100
DictionaryVariables
280
0
  1
1
  0
ENDSEC
  0
EOF
