<?xml version="1.0" encoding="UTF-8" standalone="no"?>
<!DOCTYPE svg PUBLIC "-//W3C//DTD SVG 1.1//EN"
 "http://www.w3.org/Graphics/SVG/1.1/DTD/svg11.dtd">
<!-- Generated by graphviz version 2.36.0 (20140111.2315)
 -->
<!-- Title: alu Pages: 1 -->
<svg width="2570pt" height="715pt"
 viewBox="0.00 0.00 2570.00 715.00" xmlns="http://www.w3.org/2000/svg" xmlns:xlink="http://www.w3.org/1999/xlink">
<g id="graph0" class="graph" transform="scale(1 1) rotate(0) translate(4 711)">
<title>alu</title>
<polygon fill="white" stroke="none" points="-4,4 -4,-711 2566,-711 2566,4 -4,4"/>
<text text-anchor="middle" x="1281" y="-7.8" font-family="Times,serif" font-size="14.00">alu</text>
<!-- n1 -->
<g id="node1" class="node"><title>n1</title>
<polygon fill="none" stroke="black" points="1156,-356 1114.78,-338 1156,-320 1197.22,-338 1156,-356"/>
<text text-anchor="middle" x="1156" y="-334.3" font-family="Times,serif" font-size="14.00">co[3]</text>
</g>
<!-- c18 -->
<g id="node28" class="node"><title>c18</title>
<polygon fill="none" stroke="black" points="1234,-319 1234,-411 1364,-411 1364,-319 1234,-319"/>
<text text-anchor="middle" x="1249" y="-395.8" font-family="Times,serif" font-size="14.00">A</text>
<polyline fill="none" stroke="black" points="1234,-388 1264,-388 "/>
<text text-anchor="middle" x="1249" y="-372.8" font-family="Times,serif" font-size="14.00">B</text>
<polyline fill="none" stroke="black" points="1234,-365 1264,-365 "/>
<text text-anchor="middle" x="1249" y="-349.8" font-family="Times,serif" font-size="14.00">CI</text>
<polyline fill="none" stroke="black" points="1234,-342 1264,-342 "/>
<text text-anchor="middle" x="1249" y="-326.8" font-family="Times,serif" font-size="14.00">M</text>
<polyline fill="none" stroke="black" points="1264,-319 1264,-411 "/>
<text text-anchor="middle" x="1296.5" y="-368.8" font-family="Times,serif" font-size="14.00">slices[4]</text>
<text text-anchor="middle" x="1296.5" y="-353.8" font-family="Times,serif" font-size="14.00">alu_slice</text>
<polyline fill="none" stroke="black" points="1329,-319 1329,-411 "/>
<text text-anchor="middle" x="1346.5" y="-384.3" font-family="Times,serif" font-size="14.00">CO</text>
<polyline fill="none" stroke="black" points="1329,-365 1364,-365 "/>
<text text-anchor="middle" x="1346.5" y="-338.3" font-family="Times,serif" font-size="14.00">S</text>
</g>
<!-- n1&#45;&gt;c18 -->
<g id="edge2" class="edge"><title>n1:e&#45;&gt;c18:p11:w</title>
<path fill="none" stroke="black" d="M1198,-338C1211.27,-338 1215.16,-346.793 1224.04,-350.914"/>
<polygon fill="black" stroke="black" points="1223.49,-354.377 1234,-353 1224.93,-347.525 1223.49,-354.377"/>
</g>
<!-- n2 -->
<g id="node2" class="node"><title>n2</title>
<polygon fill="none" stroke="black" points="870,-275 828.775,-257 870,-239 911.225,-257 870,-275"/>
<text text-anchor="middle" x="870" y="-253.3" font-family="Times,serif" font-size="14.00">co[2]</text>
</g>
<!-- c19 -->
<g id="node33" class="node"><title>c19</title>
<polygon fill="none" stroke="black" points="948,-238 948,-330 1078,-330 1078,-238 948,-238"/>
<text text-anchor="middle" x="963" y="-314.8" font-family="Times,serif" font-size="14.00">A</text>
<polyline fill="none" stroke="black" points="948,-307 978,-307 "/>
<text text-anchor="middle" x="963" y="-291.8" font-family="Times,serif" font-size="14.00">B</text>
<polyline fill="none" stroke="black" points="948,-284 978,-284 "/>
<text text-anchor="middle" x="963" y="-268.8" font-family="Times,serif" font-size="14.00">CI</text>
<polyline fill="none" stroke="black" points="948,-261 978,-261 "/>
<text text-anchor="middle" x="963" y="-245.8" font-family="Times,serif" font-size="14.00">M</text>
<polyline fill="none" stroke="black" points="978,-238 978,-330 "/>
<text text-anchor="middle" x="1010.5" y="-287.8" font-family="Times,serif" font-size="14.00">slices[3]</text>
<text text-anchor="middle" x="1010.5" y="-272.8" font-family="Times,serif" font-size="14.00">alu_slice</text>
<polyline fill="none" stroke="black" points="1043,-238 1043,-330 "/>
<text text-anchor="middle" x="1060.5" y="-303.3" font-family="Times,serif" font-size="14.00">CO</text>
<polyline fill="none" stroke="black" points="1043,-284 1078,-284 "/>
<text text-anchor="middle" x="1060.5" y="-257.3" font-family="Times,serif" font-size="14.00">S</text>
</g>
<!-- n2&#45;&gt;c19 -->
<g id="edge4" class="edge"><title>n2:e&#45;&gt;c19:p11:w</title>
<path fill="none" stroke="black" d="M912,-257C925.271,-257 929.163,-265.793 938.037,-269.914"/>
<polygon fill="black" stroke="black" points="937.495,-273.377 948,-272 938.929,-266.525 937.495,-273.377"/>
</g>
<!-- n3 -->
<g id="node3" class="node"><title>n3</title>
<polygon fill="none" stroke="black" points="584,-221 542.775,-203 584,-185 625.225,-203 584,-221"/>
<text text-anchor="middle" x="584" y="-199.3" font-family="Times,serif" font-size="14.00">co[1]</text>
</g>
<!-- c20 -->
<g id="node38" class="node"><title>c20</title>
<polygon fill="none" stroke="black" points="662,-184 662,-276 792,-276 792,-184 662,-184"/>
<text text-anchor="middle" x="677" y="-260.8" font-family="Times,serif" font-size="14.00">A</text>
<polyline fill="none" stroke="black" points="662,-253 692,-253 "/>
<text text-anchor="middle" x="677" y="-237.8" font-family="Times,serif" font-size="14.00">B</text>
<polyline fill="none" stroke="black" points="662,-230 692,-230 "/>
<text text-anchor="middle" x="677" y="-214.8" font-family="Times,serif" font-size="14.00">CI</text>
<polyline fill="none" stroke="black" points="662,-207 692,-207 "/>
<text text-anchor="middle" x="677" y="-191.8" font-family="Times,serif" font-size="14.00">M</text>
<polyline fill="none" stroke="black" points="692,-184 692,-276 "/>
<text text-anchor="middle" x="724.5" y="-233.8" font-family="Times,serif" font-size="14.00">slices[2]</text>
<text text-anchor="middle" x="724.5" y="-218.8" font-family="Times,serif" font-size="14.00">alu_slice</text>
<polyline fill="none" stroke="black" points="757,-184 757,-276 "/>
<text text-anchor="middle" x="774.5" y="-249.3" font-family="Times,serif" font-size="14.00">CO</text>
<polyline fill="none" stroke="black" points="757,-230 792,-230 "/>
<text text-anchor="middle" x="774.5" y="-203.3" font-family="Times,serif" font-size="14.00">S</text>
</g>
<!-- n3&#45;&gt;c20 -->
<g id="edge6" class="edge"><title>n3:e&#45;&gt;c20:p11:w</title>
<path fill="none" stroke="black" d="M626,-203C639.271,-203 643.163,-211.793 652.037,-215.914"/>
<polygon fill="black" stroke="black" points="651.495,-219.377 662,-218 652.929,-212.525 651.495,-219.377"/>
</g>
<!-- n4 -->
<g id="node4" class="node"><title>n4</title>
<polygon fill="none" stroke="black" points="298,-167 256.775,-149 298,-131 339.225,-149 298,-167"/>
<text text-anchor="middle" x="298" y="-145.3" font-family="Times,serif" font-size="14.00">co[0]</text>
</g>
<!-- c21 -->
<g id="node43" class="node"><title>c21</title>
<polygon fill="none" stroke="black" points="376,-130 376,-222 506,-222 506,-130 376,-130"/>
<text text-anchor="middle" x="391" y="-206.8" font-family="Times,serif" font-size="14.00">A</text>
<polyline fill="none" stroke="black" points="376,-199 406,-199 "/>
<text text-anchor="middle" x="391" y="-183.8" font-family="Times,serif" font-size="14.00">B</text>
<polyline fill="none" stroke="black" points="376,-176 406,-176 "/>
<text text-anchor="middle" x="391" y="-160.8" font-family="Times,serif" font-size="14.00">CI</text>
<polyline fill="none" stroke="black" points="376,-153 406,-153 "/>
<text text-anchor="middle" x="391" y="-137.8" font-family="Times,serif" font-size="14.00">M</text>
<polyline fill="none" stroke="black" points="406,-130 406,-222 "/>
<text text-anchor="middle" x="438.5" y="-179.8" font-family="Times,serif" font-size="14.00">slices[1]</text>
<text text-anchor="middle" x="438.5" y="-164.8" font-family="Times,serif" font-size="14.00">alu_slice</text>
<polyline fill="none" stroke="black" points="471,-130 471,-222 "/>
<text text-anchor="middle" x="488.5" y="-195.3" font-family="Times,serif" font-size="14.00">CO</text>
<polyline fill="none" stroke="black" points="471,-176 506,-176 "/>
<text text-anchor="middle" x="488.5" y="-149.3" font-family="Times,serif" font-size="14.00">S</text>
</g>
<!-- n4&#45;&gt;c21 -->
<g id="edge8" class="edge"><title>n4:e&#45;&gt;c21:p11:w</title>
<path fill="none" stroke="black" d="M340,-149C353.271,-149 357.163,-157.793 366.037,-161.914"/>
<polygon fill="black" stroke="black" points="365.495,-165.377 376,-164 366.929,-158.525 365.495,-165.377"/>
</g>
<!-- n5 -->
<g id="node5" class="node"><title>n5</title>
<polygon fill="none" stroke="black" points="1442,-437 1400.78,-419 1442,-401 1483.22,-419 1442,-437"/>
<text text-anchor="middle" x="1442" y="-415.3" font-family="Times,serif" font-size="14.00">co[4]</text>
</g>
<!-- c17 -->
<g id="node23" class="node"><title>c17</title>
<polygon fill="none" stroke="black" points="1520,-400 1520,-492 1650,-492 1650,-400 1520,-400"/>
<text text-anchor="middle" x="1535" y="-476.8" font-family="Times,serif" font-size="14.00">A</text>
<polyline fill="none" stroke="black" points="1520,-469 1550,-469 "/>
<text text-anchor="middle" x="1535" y="-453.8" font-family="Times,serif" font-size="14.00">B</text>
<polyline fill="none" stroke="black" points="1520,-446 1550,-446 "/>
<text text-anchor="middle" x="1535" y="-430.8" font-family="Times,serif" font-size="14.00">CI</text>
<polyline fill="none" stroke="black" points="1520,-423 1550,-423 "/>
<text text-anchor="middle" x="1535" y="-407.8" font-family="Times,serif" font-size="14.00">M</text>
<polyline fill="none" stroke="black" points="1550,-400 1550,-492 "/>
<text text-anchor="middle" x="1582.5" y="-449.8" font-family="Times,serif" font-size="14.00">slices[5]</text>
<text text-anchor="middle" x="1582.5" y="-434.8" font-family="Times,serif" font-size="14.00">alu_slice</text>
<polyline fill="none" stroke="black" points="1615,-400 1615,-492 "/>
<text text-anchor="middle" x="1632.5" y="-465.3" font-family="Times,serif" font-size="14.00">CO</text>
<polyline fill="none" stroke="black" points="1615,-446 1650,-446 "/>
<text text-anchor="middle" x="1632.5" y="-419.3" font-family="Times,serif" font-size="14.00">S</text>
</g>
<!-- n5&#45;&gt;c17 -->
<g id="edge10" class="edge"><title>n5:e&#45;&gt;c17:p11:w</title>
<path fill="none" stroke="black" d="M1484,-419C1497.27,-419 1501.16,-427.793 1510.04,-431.914"/>
<polygon fill="black" stroke="black" points="1509.49,-435.377 1520,-434 1510.93,-428.525 1509.49,-435.377"/>
</g>
<!-- n6 -->
<g id="node6" class="node"><title>n6</title>
<polygon fill="none" stroke="black" points="2300,-680 2258.78,-662 2300,-644 2341.22,-662 2300,-680"/>
<text text-anchor="middle" x="2300" y="-658.3" font-family="Times,serif" font-size="14.00">co[7]</text>
</g>
<!-- c24 -->
<g id="node52" class="node"><title>c24</title>
<polygon fill="none" stroke="black" points="2378.5,-612 2378.5,-658 2471.5,-658 2471.5,-612 2378.5,-612"/>
<text text-anchor="middle" x="2391.5" y="-642.8" font-family="Times,serif" font-size="14.00">A</text>
<polyline fill="none" stroke="black" points="2378.5,-635 2404.5,-635 "/>
<text text-anchor="middle" x="2391.5" y="-619.8" font-family="Times,serif" font-size="14.00">B</text>
<polyline fill="none" stroke="black" points="2404.5,-612 2404.5,-658 "/>
<text text-anchor="middle" x="2425" y="-638.8" font-family="Times,serif" font-size="14.00">$4</text>
<text text-anchor="middle" x="2425" y="-623.8" font-family="Times,serif" font-size="14.00">$xor</text>
<polyline fill="none" stroke="black" points="2445.5,-612 2445.5,-658 "/>
<text text-anchor="middle" x="2458.5" y="-631.3" font-family="Times,serif" font-size="14.00">Y</text>
</g>
<!-- n6&#45;&gt;c24 -->
<g id="edge12" class="edge"><title>n6:e&#45;&gt;c24:p9:w</title>
<path fill="none" stroke="black" d="M2342,-662C2355.27,-662 2359.16,-653.207 2368.04,-649.086"/>
<polygon fill="black" stroke="black" points="2368.93,-652.475 2378,-647 2367.49,-645.623 2368.93,-652.475"/>
</g>
<!-- n7 -->
<g id="node7" class="node"><title>n7</title>
<polygon fill="none" stroke="black" points="2014,-599 1972.78,-581 2014,-563 2055.22,-581 2014,-599"/>
<text text-anchor="middle" x="2014" y="-577.3" font-family="Times,serif" font-size="14.00">co[6]</text>
</g>
<!-- c15 -->
<g id="node13" class="node"><title>c15</title>
<polygon fill="none" stroke="black" points="2092,-562 2092,-654 2222,-654 2222,-562 2092,-562"/>
<text text-anchor="middle" x="2107" y="-638.8" font-family="Times,serif" font-size="14.00">A</text>
<polyline fill="none" stroke="black" points="2092,-631 2122,-631 "/>
<text text-anchor="middle" x="2107" y="-615.8" font-family="Times,serif" font-size="14.00">B</text>
<polyline fill="none" stroke="black" points="2092,-608 2122,-608 "/>
<text text-anchor="middle" x="2107" y="-592.8" font-family="Times,serif" font-size="14.00">CI</text>
<polyline fill="none" stroke="black" points="2092,-585 2122,-585 "/>
<text text-anchor="middle" x="2107" y="-569.8" font-family="Times,serif" font-size="14.00">M</text>
<polyline fill="none" stroke="black" points="2122,-562 2122,-654 "/>
<text text-anchor="middle" x="2154.5" y="-611.8" font-family="Times,serif" font-size="14.00">slices[7]</text>
<text text-anchor="middle" x="2154.5" y="-596.8" font-family="Times,serif" font-size="14.00">alu_slice</text>
<polyline fill="none" stroke="black" points="2187,-562 2187,-654 "/>
<text text-anchor="middle" x="2204.5" y="-627.3" font-family="Times,serif" font-size="14.00">CO</text>
<polyline fill="none" stroke="black" points="2187,-608 2222,-608 "/>
<text text-anchor="middle" x="2204.5" y="-581.3" font-family="Times,serif" font-size="14.00">S</text>
</g>
<!-- n7&#45;&gt;c15 -->
<g id="edge14" class="edge"><title>n7:e&#45;&gt;c15:p11:w</title>
<path fill="none" stroke="black" d="M2056,-581C2069.27,-581 2073.16,-589.793 2082.04,-593.914"/>
<polygon fill="black" stroke="black" points="2081.49,-597.377 2092,-596 2082.93,-590.525 2081.49,-597.377"/>
</g>
<!-- n8 -->
<g id="node8" class="node"><title>n8</title>
<polygon fill="none" stroke="black" points="1728,-518 1686.78,-500 1728,-482 1769.22,-500 1728,-518"/>
<text text-anchor="middle" x="1728" y="-496.3" font-family="Times,serif" font-size="14.00">co[5]</text>
</g>
<!-- c16 -->
<g id="node18" class="node"><title>c16</title>
<polygon fill="none" stroke="black" points="1806,-481 1806,-573 1936,-573 1936,-481 1806,-481"/>
<text text-anchor="middle" x="1821" y="-557.8" font-family="Times,serif" font-size="14.00">A</text>
<polyline fill="none" stroke="black" points="1806,-550 1836,-550 "/>
<text text-anchor="middle" x="1821" y="-534.8" font-family="Times,serif" font-size="14.00">B</text>
<polyline fill="none" stroke="black" points="1806,-527 1836,-527 "/>
<text text-anchor="middle" x="1821" y="-511.8" font-family="Times,serif" font-size="14.00">CI</text>
<polyline fill="none" stroke="black" points="1806,-504 1836,-504 "/>
<text text-anchor="middle" x="1821" y="-488.8" font-family="Times,serif" font-size="14.00">M</text>
<polyline fill="none" stroke="black" points="1836,-481 1836,-573 "/>
<text text-anchor="middle" x="1868.5" y="-530.8" font-family="Times,serif" font-size="14.00">slices[6]</text>
<text text-anchor="middle" x="1868.5" y="-515.8" font-family="Times,serif" font-size="14.00">alu_slice</text>
<polyline fill="none" stroke="black" points="1901,-481 1901,-573 "/>
<text text-anchor="middle" x="1918.5" y="-546.3" font-family="Times,serif" font-size="14.00">CO</text>
<polyline fill="none" stroke="black" points="1901,-527 1936,-527 "/>
<text text-anchor="middle" x="1918.5" y="-500.3" font-family="Times,serif" font-size="14.00">S</text>
</g>
<!-- n8&#45;&gt;c16 -->
<g id="edge16" class="edge"><title>n8:e&#45;&gt;c16:p11:w</title>
<path fill="none" stroke="black" d="M1770,-500C1783.27,-500 1787.16,-508.793 1796.04,-512.914"/>
<polygon fill="black" stroke="black" points="1795.49,-516.377 1806,-515 1796.93,-509.525 1795.49,-516.377"/>
</g>
<!-- v0 -->
<g id="node9" class="node"><title>v0</title>
<ellipse fill="none" stroke="black" cx="2014" cy="-689" rx="27" ry="18"/>
<text text-anchor="middle" x="2014" y="-685.3" font-family="Times,serif" font-size="14.00">a[7]</text>
</g>
<!-- v0&#45;&gt;c15 -->
<g id="edge17" class="edge"><title>v0:e&#45;&gt;c15:p9:w</title>
<path fill="none" stroke="black" d="M2042,-689C2068.19,-689 2063.85,-654.407 2081.93,-645.219"/>
<polygon fill="black" stroke="black" points="2082.99,-648.569 2092,-643 2081.48,-641.733 2082.99,-648.569"/>
</g>
<!-- v1 -->
<g id="node10" class="node"><title>v1</title>
<ellipse fill="none" stroke="black" cx="2014" cy="-635" rx="27" ry="18"/>
<text text-anchor="middle" x="2014" y="-631.3" font-family="Times,serif" font-size="14.00">b[7]</text>
</g>
<!-- v1&#45;&gt;c15 -->
<g id="edge18" class="edge"><title>v1:e&#45;&gt;c15:p10:w</title>
<path fill="none" stroke="black" d="M2042,-635C2061.39,-635 2067.09,-624.518 2081.99,-621.079"/>
<polygon fill="black" stroke="black" points="2082.43,-624.551 2092,-620 2081.68,-617.592 2082.43,-624.551"/>
</g>
<!-- v2 -->
<g id="node11" class="node"><title>v2</title>
<ellipse fill="none" stroke="black" cx="2014" cy="-527" rx="27" ry="18"/>
<text text-anchor="middle" x="2014" y="-523.3" font-family="Times,serif" font-size="14.00">m</text>
</g>
<!-- v2&#45;&gt;c15 -->
<g id="edge29" class="edge"><title>v2:e&#45;&gt;c15:p12:w</title>
<path fill="none" stroke="black" d="M2042,-527C2068.19,-527 2063.85,-561.593 2081.93,-570.781"/>
<polygon fill="black" stroke="black" points="2081.48,-574.267 2092,-573 2082.99,-567.431 2081.48,-574.267"/>
</g>
<!-- v3 -->
<g id="node12" class="node"><title>v3</title>
<ellipse fill="none" stroke="black" cx="2300" cy="-554" rx="27" ry="18"/>
<text text-anchor="middle" x="2300" y="-550.3" font-family="Times,serif" font-size="14.00">s[7]</text>
</g>
<!-- c15&#45;&gt;n6 -->
<g id="edge11" class="edge"><title>c15:p13:e&#45;&gt;n6:w</title>
<path fill="none" stroke="black" d="M2222,-631C2238.99,-631 2238.28,-651.073 2248.35,-658.914"/>
<polygon fill="black" stroke="black" points="2247.41,-662.288 2258,-662 2249.54,-655.621 2247.41,-662.288"/>
</g>
<!-- c15&#45;&gt;v3 -->
<g id="edge40" class="edge"><title>c15:p14:e&#45;&gt;v3:w</title>
<path fill="none" stroke="black" d="M2222,-585C2244.27,-585 2245.91,-562.52 2262.05,-555.846"/>
<polygon fill="black" stroke="black" points="2262.81,-559.266 2272,-554 2261.53,-552.383 2262.81,-559.266"/>
</g>
<!-- v4 -->
<g id="node14" class="node"><title>v4</title>
<ellipse fill="none" stroke="black" cx="1728" cy="-608" rx="27" ry="18"/>
<text text-anchor="middle" x="1728" y="-604.3" font-family="Times,serif" font-size="14.00">a[6]</text>
</g>
<!-- v4&#45;&gt;c16 -->
<g id="edge46" class="edge"><title>v4:e&#45;&gt;c16:p9:w</title>
<path fill="none" stroke="black" d="M1756,-608C1782.19,-608 1777.85,-573.407 1795.93,-564.219"/>
<polygon fill="black" stroke="black" points="1796.99,-567.569 1806,-562 1795.48,-560.733 1796.99,-567.569"/>
</g>
<!-- v5 -->
<g id="node15" class="node"><title>v5</title>
<ellipse fill="none" stroke="black" cx="1728" cy="-554" rx="27" ry="18"/>
<text text-anchor="middle" x="1728" y="-550.3" font-family="Times,serif" font-size="14.00">b[6]</text>
</g>
<!-- v5&#45;&gt;c16 -->
<g id="edge47" class="edge"><title>v5:e&#45;&gt;c16:p10:w</title>
<path fill="none" stroke="black" d="M1756,-554C1775.39,-554 1781.09,-543.518 1795.99,-540.079"/>
<polygon fill="black" stroke="black" points="1796.43,-543.551 1806,-539 1795.68,-536.592 1796.43,-543.551"/>
</g>
<!-- v6 -->
<g id="node16" class="node"><title>v6</title>
<ellipse fill="none" stroke="black" cx="1728" cy="-446" rx="27" ry="18"/>
<text text-anchor="middle" x="1728" y="-442.3" font-family="Times,serif" font-size="14.00">m</text>
</g>
<!-- v6&#45;&gt;c16 -->
<g id="edge48" class="edge"><title>v6:e&#45;&gt;c16:p12:w</title>
<path fill="none" stroke="black" d="M1756,-446C1782.19,-446 1777.85,-480.593 1795.93,-489.781"/>
<polygon fill="black" stroke="black" points="1795.48,-493.267 1806,-492 1796.99,-486.431 1795.48,-493.267"/>
</g>
<!-- v7 -->
<g id="node17" class="node"><title>v7</title>
<ellipse fill="none" stroke="black" cx="2014" cy="-473" rx="27" ry="18"/>
<text text-anchor="middle" x="2014" y="-469.3" font-family="Times,serif" font-size="14.00">s[6]</text>
</g>
<!-- c16&#45;&gt;n7 -->
<g id="edge13" class="edge"><title>c16:p13:e&#45;&gt;n7:w</title>
<path fill="none" stroke="black" d="M1936,-550C1952.99,-550 1952.28,-570.073 1962.35,-577.914"/>
<polygon fill="black" stroke="black" points="1961.41,-581.288 1972,-581 1963.54,-574.621 1961.41,-581.288"/>
</g>
<!-- c16&#45;&gt;v7 -->
<g id="edge49" class="edge"><title>c16:p14:e&#45;&gt;v7:w</title>
<path fill="none" stroke="black" d="M1936,-504C1958.27,-504 1959.91,-481.52 1976.05,-474.846"/>
<polygon fill="black" stroke="black" points="1976.81,-478.266 1986,-473 1975.53,-471.383 1976.81,-478.266"/>
</g>
<!-- v8 -->
<g id="node19" class="node"><title>v8</title>
<ellipse fill="none" stroke="black" cx="1442" cy="-527" rx="27" ry="18"/>
<text text-anchor="middle" x="1442" y="-523.3" font-family="Times,serif" font-size="14.00">a[5]</text>
</g>
<!-- v8&#45;&gt;c17 -->
<g id="edge50" class="edge"><title>v8:e&#45;&gt;c17:p9:w</title>
<path fill="none" stroke="black" d="M1470,-527C1496.19,-527 1491.85,-492.407 1509.93,-483.219"/>
<polygon fill="black" stroke="black" points="1510.99,-486.569 1520,-481 1509.48,-479.733 1510.99,-486.569"/>
</g>
<!-- v9 -->
<g id="node20" class="node"><title>v9</title>
<ellipse fill="none" stroke="black" cx="1442" cy="-473" rx="27" ry="18"/>
<text text-anchor="middle" x="1442" y="-469.3" font-family="Times,serif" font-size="14.00">b[5]</text>
</g>
<!-- v9&#45;&gt;c17 -->
<g id="edge51" class="edge"><title>v9:e&#45;&gt;c17:p10:w</title>
<path fill="none" stroke="black" d="M1470,-473C1489.39,-473 1495.09,-462.518 1509.99,-459.079"/>
<polygon fill="black" stroke="black" points="1510.43,-462.551 1520,-458 1509.68,-455.592 1510.43,-462.551"/>
</g>
<!-- v10 -->
<g id="node21" class="node"><title>v10</title>
<ellipse fill="none" stroke="black" cx="1442" cy="-365" rx="27" ry="18"/>
<text text-anchor="middle" x="1442" y="-361.3" font-family="Times,serif" font-size="14.00">m</text>
</g>
<!-- v10&#45;&gt;c17 -->
<g id="edge19" class="edge"><title>v10:e&#45;&gt;c17:p12:w</title>
<path fill="none" stroke="black" d="M1470,-365C1496.19,-365 1491.85,-399.593 1509.93,-408.781"/>
<polygon fill="black" stroke="black" points="1509.48,-412.267 1520,-411 1510.99,-405.431 1509.48,-412.267"/>
</g>
<!-- v11 -->
<g id="node22" class="node"><title>v11</title>
<ellipse fill="none" stroke="black" cx="1728" cy="-392" rx="27" ry="18"/>
<text text-anchor="middle" x="1728" y="-388.3" font-family="Times,serif" font-size="14.00">s[5]</text>
</g>
<!-- c17&#45;&gt;n8 -->
<g id="edge15" class="edge"><title>c17:p13:e&#45;&gt;n8:w</title>
<path fill="none" stroke="black" d="M1650,-469C1666.99,-469 1666.28,-489.073 1676.35,-496.914"/>
<polygon fill="black" stroke="black" points="1675.41,-500.288 1686,-500 1677.54,-493.621 1675.41,-500.288"/>
</g>
<!-- c17&#45;&gt;v11 -->
<g id="edge20" class="edge"><title>c17:p14:e&#45;&gt;v11:w</title>
<path fill="none" stroke="black" d="M1650,-423C1672.27,-423 1673.91,-400.52 1690.05,-393.846"/>
<polygon fill="black" stroke="black" points="1690.81,-397.266 1700,-392 1689.53,-390.383 1690.81,-397.266"/>
</g>
<!-- v12 -->
<g id="node24" class="node"><title>v12</title>
<ellipse fill="none" stroke="black" cx="1156" cy="-446" rx="27" ry="18"/>
<text text-anchor="middle" x="1156" y="-442.3" font-family="Times,serif" font-size="14.00">a[4]</text>
</g>
<!-- v12&#45;&gt;c18 -->
<g id="edge21" class="edge"><title>v12:e&#45;&gt;c18:p9:w</title>
<path fill="none" stroke="black" d="M1184,-446C1210.19,-446 1205.85,-411.407 1223.93,-402.219"/>
<polygon fill="black" stroke="black" points="1224.99,-405.569 1234,-400 1223.48,-398.733 1224.99,-405.569"/>
</g>
<!-- v13 -->
<g id="node25" class="node"><title>v13</title>
<ellipse fill="none" stroke="black" cx="1156" cy="-392" rx="27" ry="18"/>
<text text-anchor="middle" x="1156" y="-388.3" font-family="Times,serif" font-size="14.00">b[4]</text>
</g>
<!-- v13&#45;&gt;c18 -->
<g id="edge22" class="edge"><title>v13:e&#45;&gt;c18:p10:w</title>
<path fill="none" stroke="black" d="M1184,-392C1203.39,-392 1209.09,-381.518 1223.99,-378.079"/>
<polygon fill="black" stroke="black" points="1224.43,-381.551 1234,-377 1223.68,-374.592 1224.43,-381.551"/>
</g>
<!-- v14 -->
<g id="node26" class="node"><title>v14</title>
<ellipse fill="none" stroke="black" cx="1156" cy="-284" rx="27" ry="18"/>
<text text-anchor="middle" x="1156" y="-280.3" font-family="Times,serif" font-size="14.00">m</text>
</g>
<!-- v14&#45;&gt;c18 -->
<g id="edge23" class="edge"><title>v14:e&#45;&gt;c18:p12:w</title>
<path fill="none" stroke="black" d="M1184,-284C1210.19,-284 1205.85,-318.593 1223.93,-327.781"/>
<polygon fill="black" stroke="black" points="1223.48,-331.267 1234,-330 1224.99,-324.431 1223.48,-331.267"/>
</g>
<!-- v15 -->
<g id="node27" class="node"><title>v15</title>
<ellipse fill="none" stroke="black" cx="1442" cy="-311" rx="27" ry="18"/>
<text text-anchor="middle" x="1442" y="-307.3" font-family="Times,serif" font-size="14.00">s[4]</text>
</g>
<!-- c18&#45;&gt;n5 -->
<g id="edge9" class="edge"><title>c18:p13:e&#45;&gt;n5:w</title>
<path fill="none" stroke="black" d="M1364,-388C1380.99,-388 1380.28,-408.073 1390.35,-415.914"/>
<polygon fill="black" stroke="black" points="1389.41,-419.288 1400,-419 1391.54,-412.621 1389.41,-419.288"/>
</g>
<!-- c18&#45;&gt;v15 -->
<g id="edge24" class="edge"><title>c18:p14:e&#45;&gt;v15:w</title>
<path fill="none" stroke="black" d="M1364,-342C1386.27,-342 1387.91,-319.52 1404.05,-312.846"/>
<polygon fill="black" stroke="black" points="1404.81,-316.266 1414,-311 1403.53,-309.383 1404.81,-316.266"/>
</g>
<!-- v16 -->
<g id="node29" class="node"><title>v16</title>
<ellipse fill="none" stroke="black" cx="870" cy="-365" rx="27" ry="18"/>
<text text-anchor="middle" x="870" y="-361.3" font-family="Times,serif" font-size="14.00">a[3]</text>
</g>
<!-- v16&#45;&gt;c19 -->
<g id="edge25" class="edge"><title>v16:e&#45;&gt;c19:p9:w</title>
<path fill="none" stroke="black" d="M898,-365C924.186,-365 919.848,-330.407 937.926,-321.219"/>
<polygon fill="black" stroke="black" points="938.987,-324.569 948,-319 937.481,-317.733 938.987,-324.569"/>
</g>
<!-- v17 -->
<g id="node30" class="node"><title>v17</title>
<ellipse fill="none" stroke="black" cx="870" cy="-311" rx="27" ry="18"/>
<text text-anchor="middle" x="870" y="-307.3" font-family="Times,serif" font-size="14.00">b[3]</text>
</g>
<!-- v17&#45;&gt;c19 -->
<g id="edge26" class="edge"><title>v17:e&#45;&gt;c19:p10:w</title>
<path fill="none" stroke="black" d="M898,-311C917.394,-311 923.091,-300.518 937.991,-297.079"/>
<polygon fill="black" stroke="black" points="938.433,-300.551 948,-296 937.683,-293.592 938.433,-300.551"/>
</g>
<!-- v18 -->
<g id="node31" class="node"><title>v18</title>
<ellipse fill="none" stroke="black" cx="870" cy="-149" rx="27" ry="18"/>
<text text-anchor="middle" x="870" y="-145.3" font-family="Times,serif" font-size="14.00">m</text>
</g>
<!-- v18&#45;&gt;c19 -->
<g id="edge27" class="edge"><title>v18:e&#45;&gt;c19:p12:w</title>
<path fill="none" stroke="black" d="M898,-149C943.808,-149 905.421,-233.985 938.073,-247.264"/>
<polygon fill="black" stroke="black" points="937.547,-250.725 948,-249 938.752,-243.83 937.547,-250.725"/>
</g>
<!-- v19 -->
<g id="node32" class="node"><title>v19</title>
<ellipse fill="none" stroke="black" cx="1156" cy="-230" rx="27" ry="18"/>
<text text-anchor="middle" x="1156" y="-226.3" font-family="Times,serif" font-size="14.00">s[3]</text>
</g>
<!-- c19&#45;&gt;n1 -->
<g id="edge1" class="edge"><title>c19:p13:e&#45;&gt;n1:w</title>
<path fill="none" stroke="black" d="M1078,-307C1094.99,-307 1094.28,-327.073 1104.35,-334.914"/>
<polygon fill="black" stroke="black" points="1103.41,-338.288 1114,-338 1105.54,-331.621 1103.41,-338.288"/>
</g>
<!-- c19&#45;&gt;v19 -->
<g id="edge28" class="edge"><title>c19:p14:e&#45;&gt;v19:w</title>
<path fill="none" stroke="black" d="M1078,-261C1100.27,-261 1101.91,-238.52 1118.05,-231.846"/>
<polygon fill="black" stroke="black" points="1118.81,-235.266 1128,-230 1117.53,-228.383 1118.81,-235.266"/>
</g>
<!-- v20 -->
<g id="node34" class="node"><title>v20</title>
<ellipse fill="none" stroke="black" cx="584" cy="-311" rx="27" ry="18"/>
<text text-anchor="middle" x="584" y="-307.3" font-family="Times,serif" font-size="14.00">a[2]</text>
</g>
<!-- v20&#45;&gt;c20 -->
<g id="edge30" class="edge"><title>v20:e&#45;&gt;c20:p9:w</title>
<path fill="none" stroke="black" d="M612,-311C638.186,-311 633.848,-276.407 651.926,-267.219"/>
<polygon fill="black" stroke="black" points="652.987,-270.569 662,-265 651.481,-263.733 652.987,-270.569"/>
</g>
<!-- v21 -->
<g id="node35" class="node"><title>v21</title>
<ellipse fill="none" stroke="black" cx="584" cy="-257" rx="27" ry="18"/>
<text text-anchor="middle" x="584" y="-253.3" font-family="Times,serif" font-size="14.00">b[2]</text>
</g>
<!-- v21&#45;&gt;c20 -->
<g id="edge31" class="edge"><title>v21:e&#45;&gt;c20:p10:w</title>
<path fill="none" stroke="black" d="M612,-257C631.394,-257 637.091,-246.518 651.991,-243.079"/>
<polygon fill="black" stroke="black" points="652.433,-246.551 662,-242 651.683,-239.592 652.433,-246.551"/>
</g>
<!-- v22 -->
<g id="node36" class="node"><title>v22</title>
<ellipse fill="none" stroke="black" cx="584" cy="-95" rx="27" ry="18"/>
<text text-anchor="middle" x="584" y="-91.3" font-family="Times,serif" font-size="14.00">m</text>
</g>
<!-- v22&#45;&gt;c20 -->
<g id="edge32" class="edge"><title>v22:e&#45;&gt;c20:p12:w</title>
<path fill="none" stroke="black" d="M612,-95C657.808,-95 619.421,-179.985 652.073,-193.264"/>
<polygon fill="black" stroke="black" points="651.547,-196.725 662,-195 652.752,-189.83 651.547,-196.725"/>
</g>
<!-- v23 -->
<g id="node37" class="node"><title>v23</title>
<ellipse fill="none" stroke="black" cx="870" cy="-203" rx="27" ry="18"/>
<text text-anchor="middle" x="870" y="-199.3" font-family="Times,serif" font-size="14.00">s[2]</text>
</g>
<!-- c20&#45;&gt;n2 -->
<g id="edge3" class="edge"><title>c20:p13:e&#45;&gt;n2:w</title>
<path fill="none" stroke="black" d="M792,-253C804.074,-253 809.232,-255.25 817.847,-256.375"/>
<polygon fill="black" stroke="black" points="817.804,-259.879 828,-257 818.234,-252.892 817.804,-259.879"/>
</g>
<!-- c20&#45;&gt;v23 -->
<g id="edge33" class="edge"><title>c20:p14:e&#45;&gt;v23:w</title>
<path fill="none" stroke="black" d="M792,-207C810.462,-207 817.347,-204.257 831.83,-203.314"/>
<polygon fill="black" stroke="black" points="832.113,-206.807 842,-203 831.897,-199.81 832.113,-206.807"/>
</g>
<!-- v24 -->
<g id="node39" class="node"><title>v24</title>
<ellipse fill="none" stroke="black" cx="298" cy="-257" rx="27" ry="18"/>
<text text-anchor="middle" x="298" y="-253.3" font-family="Times,serif" font-size="14.00">a[1]</text>
</g>
<!-- v24&#45;&gt;c21 -->
<g id="edge34" class="edge"><title>v24:e&#45;&gt;c21:p9:w</title>
<path fill="none" stroke="black" d="M326,-257C352.186,-257 347.848,-222.407 365.926,-213.219"/>
<polygon fill="black" stroke="black" points="366.987,-216.569 376,-211 365.481,-209.733 366.987,-216.569"/>
</g>
<!-- v25 -->
<g id="node40" class="node"><title>v25</title>
<ellipse fill="none" stroke="black" cx="298" cy="-203" rx="27" ry="18"/>
<text text-anchor="middle" x="298" y="-199.3" font-family="Times,serif" font-size="14.00">b[1]</text>
</g>
<!-- v25&#45;&gt;c21 -->
<g id="edge35" class="edge"><title>v25:e&#45;&gt;c21:p10:w</title>
<path fill="none" stroke="black" d="M326,-203C345.394,-203 351.091,-192.518 365.991,-189.079"/>
<polygon fill="black" stroke="black" points="366.433,-192.551 376,-188 365.683,-185.592 366.433,-192.551"/>
</g>
<!-- v26 -->
<g id="node41" class="node"><title>v26</title>
<ellipse fill="none" stroke="black" cx="298" cy="-41" rx="27" ry="18"/>
<text text-anchor="middle" x="298" y="-37.3" font-family="Times,serif" font-size="14.00">m</text>
</g>
<!-- v26&#45;&gt;c21 -->
<g id="edge36" class="edge"><title>v26:e&#45;&gt;c21:p12:w</title>
<path fill="none" stroke="black" d="M326,-41C371.808,-41 333.421,-125.985 366.073,-139.264"/>
<polygon fill="black" stroke="black" points="365.547,-142.725 376,-141 366.752,-135.83 365.547,-142.725"/>
</g>
<!-- v27 -->
<g id="node42" class="node"><title>v27</title>
<ellipse fill="none" stroke="black" cx="584" cy="-149" rx="27" ry="18"/>
<text text-anchor="middle" x="584" y="-145.3" font-family="Times,serif" font-size="14.00">s[1]</text>
</g>
<!-- c21&#45;&gt;n3 -->
<g id="edge5" class="edge"><title>c21:p13:e&#45;&gt;n3:w</title>
<path fill="none" stroke="black" d="M506,-199C518.074,-199 523.232,-201.25 531.847,-202.375"/>
<polygon fill="black" stroke="black" points="531.804,-205.879 542,-203 532.234,-198.892 531.804,-205.879"/>
</g>
<!-- c21&#45;&gt;v27 -->
<g id="edge37" class="edge"><title>c21:p14:e&#45;&gt;v27:w</title>
<path fill="none" stroke="black" d="M506,-153C524.462,-153 531.347,-150.257 545.83,-149.314"/>
<polygon fill="black" stroke="black" points="546.113,-152.807 556,-149 545.897,-145.81 546.113,-152.807"/>
</g>
<!-- v28 -->
<g id="node44" class="node"><title>v28</title>
<ellipse fill="none" stroke="black" cx="27" cy="-203" rx="27" ry="18"/>
<text text-anchor="middle" x="27" y="-199.3" font-family="Times,serif" font-size="14.00">a[0]</text>
</g>
<!-- c22 -->
<g id="node49" class="node"><title>c22</title>
<polygon fill="none" stroke="black" points="90,-76 90,-168 220,-168 220,-76 90,-76"/>
<text text-anchor="middle" x="105" y="-152.8" font-family="Times,serif" font-size="14.00">A</text>
<polyline fill="none" stroke="black" points="90,-145 120,-145 "/>
<text text-anchor="middle" x="105" y="-129.8" font-family="Times,serif" font-size="14.00">B</text>
<polyline fill="none" stroke="black" points="90,-122 120,-122 "/>
<text text-anchor="middle" x="105" y="-106.8" font-family="Times,serif" font-size="14.00">CI</text>
<polyline fill="none" stroke="black" points="90,-99 120,-99 "/>
<text text-anchor="middle" x="105" y="-83.8" font-family="Times,serif" font-size="14.00">M</text>
<polyline fill="none" stroke="black" points="120,-76 120,-168 "/>
<text text-anchor="middle" x="152.5" y="-125.8" font-family="Times,serif" font-size="14.00">slices[0]</text>
<text text-anchor="middle" x="152.5" y="-110.8" font-family="Times,serif" font-size="14.00">alu_slice</text>
<polyline fill="none" stroke="black" points="185,-76 185,-168 "/>
<text text-anchor="middle" x="202.5" y="-141.3" font-family="Times,serif" font-size="14.00">CO</text>
<polyline fill="none" stroke="black" points="185,-122 220,-122 "/>
<text text-anchor="middle" x="202.5" y="-95.3" font-family="Times,serif" font-size="14.00">S</text>
</g>
<!-- v28&#45;&gt;c22 -->
<g id="edge38" class="edge"><title>v28:e&#45;&gt;c22:p9:w</title>
<path fill="none" stroke="black" d="M54,-203C75.7018,-203 68.136,-170.856 80.2344,-160.308"/>
<polygon fill="black" stroke="black" points="81.6517,-163.524 90,-157 79.4057,-156.894 81.6517,-163.524"/>
</g>
<!-- v29 -->
<g id="node45" class="node"><title>v29</title>
<ellipse fill="none" stroke="black" cx="27" cy="-149" rx="27" ry="18"/>
<text text-anchor="middle" x="27" y="-145.3" font-family="Times,serif" font-size="14.00">b[0]</text>
</g>
<!-- v29&#45;&gt;c22 -->
<g id="edge39" class="edge"><title>v29:e&#45;&gt;c22:p10:w</title>
<path fill="none" stroke="black" d="M54,-149C67.2708,-149 71.1628,-140.207 80.0372,-136.086"/>
<polygon fill="black" stroke="black" points="80.9294,-139.475 90,-134 79.495,-132.623 80.9294,-139.475"/>
</g>
<!-- v30 -->
<g id="node46" class="node"><title>v30</title>
<ellipse fill="none" stroke="black" cx="27" cy="-95" rx="27" ry="18"/>
<text text-anchor="middle" x="27" y="-91.3" font-family="Times,serif" font-size="14.00">m</text>
</g>
<!-- v30&#45;&gt;c22 -->
<g id="edge41" class="edge"><title>v30:e&#45;&gt;c22:p11:w</title>
<path fill="none" stroke="black" d="M54,-95C67.2708,-95 71.1628,-103.793 80.0372,-107.914"/>
<polygon fill="black" stroke="black" points="79.495,-111.377 90,-110 80.9294,-104.525 79.495,-111.377"/>
</g>
<!-- v31 -->
<g id="node47" class="node"><title>v31</title>
<ellipse fill="none" stroke="black" cx="27" cy="-41" rx="27" ry="18"/>
<text text-anchor="middle" x="27" y="-37.3" font-family="Times,serif" font-size="14.00">m</text>
</g>
<!-- v31&#45;&gt;c22 -->
<g id="edge42" class="edge"><title>v31:e&#45;&gt;c22:p12:w</title>
<path fill="none" stroke="black" d="M54,-41C75.7018,-41 68.136,-73.1444 80.2344,-83.6918"/>
<polygon fill="black" stroke="black" points="79.4057,-87.1064 90,-87 81.6517,-80.4765 79.4057,-87.1064"/>
</g>
<!-- v32 -->
<g id="node48" class="node"><title>v32</title>
<ellipse fill="none" stroke="black" cx="298" cy="-95" rx="27" ry="18"/>
<text text-anchor="middle" x="298" y="-91.3" font-family="Times,serif" font-size="14.00">s[0]</text>
</g>
<!-- c22&#45;&gt;n4 -->
<g id="edge7" class="edge"><title>c22:p13:e&#45;&gt;n4:w</title>
<path fill="none" stroke="black" d="M220,-145C232.074,-145 237.232,-147.25 245.847,-148.375"/>
<polygon fill="black" stroke="black" points="245.804,-151.879 256,-149 246.234,-144.892 245.804,-151.879"/>
</g>
<!-- c22&#45;&gt;v32 -->
<g id="edge43" class="edge"><title>c22:p14:e&#45;&gt;v32:w</title>
<path fill="none" stroke="black" d="M220,-99C238.462,-99 245.347,-96.2568 259.83,-95.3139"/>
<polygon fill="black" stroke="black" points="260.113,-98.8069 270,-95 259.897,-91.8102 260.113,-98.8069"/>
</g>
<!-- v33 -->
<g id="node50" class="node"><title>v33</title>
<ellipse fill="none" stroke="black" cx="2300" cy="-608" rx="27" ry="18"/>
<text text-anchor="middle" x="2300" y="-604.3" font-family="Times,serif" font-size="14.00">m</text>
</g>
<!-- v33&#45;&gt;c24 -->
<g id="edge44" class="edge"><title>v33:e&#45;&gt;c24:p10:w</title>
<path fill="none" stroke="black" d="M2328,-608C2347.39,-608 2353.09,-618.482 2367.99,-621.921"/>
<polygon fill="black" stroke="black" points="2367.68,-625.408 2378,-623 2368.43,-618.449 2367.68,-625.408"/>
</g>
<!-- v34 -->
<g id="node51" class="node"><title>v34</title>
<ellipse fill="none" stroke="black" cx="2535" cy="-635" rx="27" ry="18"/>
<text text-anchor="middle" x="2535" y="-631.3" font-family="Times,serif" font-size="14.00">s[8]</text>
</g>
<!-- c24&#45;&gt;v34 -->
<g id="edge45" class="edge"><title>c24:p23:e&#45;&gt;v34:w</title>
<path fill="none" stroke="black" d="M2472,-635C2484,-635 2489.25,-635 2497.88,-635"/>
<polygon fill="black" stroke="black" points="2498,-638.5 2508,-635 2498,-631.5 2498,-638.5"/>
</g>
</g>
</svg>
