<?xml version="1.0" encoding="UTF-8" standalone="no"?>
<!DOCTYPE svg PUBLIC "-//W3C//DTD SVG 1.1//EN"
 "http://www.w3.org/Graphics/SVG/1.1/DTD/svg11.dtd">
<!-- Generated by graphviz version 2.36.0 (20140111.2315)
 -->
<!-- Title: alu_slice Pages: 1 -->
<svg width="624pt" height="245pt"
 viewBox="0.00 0.00 624.00 245.00" xmlns="http://www.w3.org/2000/svg" xmlns:xlink="http://www.w3.org/1999/xlink">
<g id="graph0" class="graph" transform="scale(1 1) rotate(0) translate(4 241)">
<title>alu_slice</title>
<polygon fill="white" stroke="none" points="-4,4 -4,-241 620,-241 620,4 -4,4"/>
<text text-anchor="middle" x="308" y="-7.8" font-family="Times,serif" font-size="14.00">alu_slice</text>
<!-- n5 -->
<g id="node1" class="node"><title>n5</title>
<polygon fill="none" stroke="black" points="54,-92.5442 54,-107.456 38.1838,-118 15.8162,-118 3.55271e-15,-107.456 0,-92.5442 15.8162,-82 38.1838,-82 54,-92.5442"/>
<text text-anchor="middle" x="27" y="-96.3" font-family="Times,serif" font-size="14.00">A</text>
</g>
<!-- c12 -->
<g id="node7" class="node"><title>c12</title>
<polygon fill="none" stroke="black" points="95.5,-92 95.5,-138 192.5,-138 192.5,-92 95.5,-92"/>
<text text-anchor="middle" x="108.5" y="-122.8" font-family="Times,serif" font-size="14.00">A</text>
<polyline fill="none" stroke="black" points="95.5,-115 121.5,-115 "/>
<text text-anchor="middle" x="108.5" y="-99.8" font-family="Times,serif" font-size="14.00">B</text>
<polyline fill="none" stroke="black" points="121.5,-92 121.5,-138 "/>
<text text-anchor="middle" x="144" y="-118.8" font-family="Times,serif" font-size="14.00">$89</text>
<text text-anchor="middle" x="144" y="-103.8" font-family="Times,serif" font-size="14.00">XOR</text>
<polyline fill="none" stroke="black" points="166.5,-92 166.5,-138 "/>
<text text-anchor="middle" x="179.5" y="-111.3" font-family="Times,serif" font-size="14.00">Y</text>
</g>
<!-- n5&#45;&gt;c12 -->
<g id="edge10" class="edge"><title>n5:e&#45;&gt;c12:p5:w</title>
<path fill="none" stroke="black" d="M54,-100C71.4271,-100 72.7819,-117.824 84.1819,-124.508"/>
<polygon fill="black" stroke="black" points="83.4463,-127.933 94,-127 85.1682,-121.148 83.4463,-127.933"/>
</g>
<!-- c15 -->
<g id="node10" class="node"><title>c15</title>
<polygon fill="none" stroke="black" points="90,-27 90,-73 198,-73 198,-27 90,-27"/>
<text text-anchor="middle" x="103" y="-57.8" font-family="Times,serif" font-size="14.00">A</text>
<polyline fill="none" stroke="black" points="90,-50 116,-50 "/>
<text text-anchor="middle" x="103" y="-34.8" font-family="Times,serif" font-size="14.00">B</text>
<polyline fill="none" stroke="black" points="116,-27 116,-73 "/>
<text text-anchor="middle" x="144" y="-53.8" font-family="Times,serif" font-size="14.00">$92</text>
<text text-anchor="middle" x="144" y="-38.8" font-family="Times,serif" font-size="14.00">NAND</text>
<polyline fill="none" stroke="black" points="172,-27 172,-73 "/>
<text text-anchor="middle" x="185" y="-46.3" font-family="Times,serif" font-size="14.00">Y</text>
</g>
<!-- n5&#45;&gt;c15 -->
<g id="edge11" class="edge"><title>n5:e&#45;&gt;c15:p5:w</title>
<path fill="none" stroke="black" d="M54,-100C73.0841,-100 69.4283,-74.4293 80.3402,-65.2399"/>
<polygon fill="black" stroke="black" points="81.632,-68.4983 90,-62 79.4061,-61.8616 81.632,-68.4983"/>
</g>
<!-- n6 -->
<g id="node2" class="node"><title>n6</title>
<polygon fill="none" stroke="black" points="54,-211.544 54,-226.456 38.1838,-237 15.8162,-237 3.55271e-15,-226.456 0,-211.544 15.8162,-201 38.1838,-201 54,-211.544"/>
<text text-anchor="middle" x="27" y="-215.3" font-family="Times,serif" font-size="14.00">B</text>
</g>
<!-- c13 -->
<g id="node8" class="node"><title>c13</title>
<polygon fill="none" stroke="black" points="95.5,-157 95.5,-203 192.5,-203 192.5,-157 95.5,-157"/>
<text text-anchor="middle" x="108.5" y="-187.8" font-family="Times,serif" font-size="14.00">A</text>
<polyline fill="none" stroke="black" points="95.5,-180 121.5,-180 "/>
<text text-anchor="middle" x="108.5" y="-164.8" font-family="Times,serif" font-size="14.00">B</text>
<polyline fill="none" stroke="black" points="121.5,-157 121.5,-203 "/>
<text text-anchor="middle" x="144" y="-183.8" font-family="Times,serif" font-size="14.00">$90</text>
<text text-anchor="middle" x="144" y="-168.8" font-family="Times,serif" font-size="14.00">XOR</text>
<polyline fill="none" stroke="black" points="166.5,-157 166.5,-203 "/>
<text text-anchor="middle" x="179.5" y="-176.3" font-family="Times,serif" font-size="14.00">Y</text>
</g>
<!-- n6&#45;&gt;c13 -->
<g id="edge12" class="edge"><title>n6:e&#45;&gt;c13:p5:w</title>
<path fill="none" stroke="black" d="M54,-219C71.4271,-219 72.7819,-201.176 84.1819,-194.492"/>
<polygon fill="black" stroke="black" points="85.1682,-197.852 94,-192 83.4463,-191.067 85.1682,-197.852"/>
</g>
<!-- n7 -->
<g id="node3" class="node"><title>n7</title>
<polygon fill="none" stroke="black" points="54,-33.5442 54,-48.4558 38.1838,-59 15.8162,-59 3.55271e-15,-48.4558 0,-33.5442 15.8162,-23 38.1838,-23 54,-33.5442"/>
<text text-anchor="middle" x="27" y="-37.3" font-family="Times,serif" font-size="14.00">CI</text>
</g>
<!-- n7&#45;&gt;c12 -->
<g id="edge13" class="edge"><title>n7:e&#45;&gt;c12:p6:w</title>
<path fill="none" stroke="black" d="M54,-41C82.6936,-41 66.6915,-88.4688 84.2112,-100.336"/>
<polygon fill="black" stroke="black" points="83.4318,-103.751 94,-103 85.2701,-96.9967 83.4318,-103.751"/>
</g>
<!-- n7&#45;&gt;c15 -->
<g id="edge14" class="edge"><title>n7:e&#45;&gt;c15:p6:w</title>
<path fill="none" stroke="black" d="M54,-41C66.0416,-41 71.2396,-39.3125 79.8594,-38.4688"/>
<polygon fill="black" stroke="black" points="80.1723,-41.9581 90,-38 79.849,-34.9656 80.1723,-41.9581"/>
</g>
<!-- n8 -->
<g id="node4" class="node"><title>n8</title>
<polygon fill="none" stroke="black" points="616,-68.5442 616,-83.4558 600.184,-94 577.816,-94 562,-83.4558 562,-68.5442 577.816,-58 600.184,-58 616,-68.5442"/>
<text text-anchor="middle" x="589" y="-72.3" font-family="Times,serif" font-size="14.00">CO</text>
</g>
<!-- n9 -->
<g id="node5" class="node"><title>n9</title>
<polygon fill="none" stroke="black" points="54,-157.544 54,-172.456 38.1838,-183 15.8162,-183 3.55271e-15,-172.456 0,-157.544 15.8162,-147 38.1838,-147 54,-157.544"/>
<text text-anchor="middle" x="27" y="-161.3" font-family="Times,serif" font-size="14.00">M</text>
</g>
<!-- n9&#45;&gt;c13 -->
<g id="edge16" class="edge"><title>n9:e&#45;&gt;c13:p6:w</title>
<path fill="none" stroke="black" d="M54,-165C67.9279,-165 73.6263,-166.831 83.9539,-167.632"/>
<polygon fill="black" stroke="black" points="83.8786,-171.132 94,-168 84.1348,-164.136 83.8786,-171.132"/>
</g>
<!-- n10 -->
<g id="node6" class="node"><title>n10</title>
<polygon fill="none" stroke="black" points="616,-159.544 616,-174.456 600.184,-185 577.816,-185 562,-174.456 562,-159.544 577.816,-149 600.184,-149 616,-159.544"/>
<text text-anchor="middle" x="589" y="-163.3" font-family="Times,serif" font-size="14.00">S</text>
</g>
<!-- n3 -->
<g id="node13" class="node"><title>n3</title>
<ellipse fill="black" stroke="black" cx="236" cy="-115" rx="1.8" ry="1.8"/>
</g>
<!-- c12&#45;&gt;n3 -->
<g id="edge4" class="edge"><title>c12:p11:e&#45;&gt;n3:w</title>
<path fill="none" stroke="black" d="M194,-115C207.889,-115 213.64,-115 223.968,-115"/>
<polygon fill="black" stroke="black" points="224,-118.5 234,-115 224,-111.5 224,-118.5"/>
</g>
<!-- n4 -->
<g id="node14" class="node"><title>n4</title>
<ellipse fill="black" stroke="black" cx="236" cy="-179" rx="1.8" ry="1.8"/>
</g>
<!-- c13&#45;&gt;n4 -->
<g id="edge7" class="edge"><title>c13:p11:e&#45;&gt;n4:w</title>
<path fill="none" stroke="black" d="M194,-180C207.893,-180 213.638,-179.39 223.967,-179.123"/>
<polygon fill="black" stroke="black" points="224.044,-182.622 234,-179 223.958,-175.623 224.044,-182.622"/>
</g>
<!-- c14 -->
<g id="node9" class="node"><title>c14</title>
<polygon fill="none" stroke="black" points="279.5,-144 279.5,-190 376.5,-190 376.5,-144 279.5,-144"/>
<text text-anchor="middle" x="292.5" y="-174.8" font-family="Times,serif" font-size="14.00">A</text>
<polyline fill="none" stroke="black" points="279.5,-167 305.5,-167 "/>
<text text-anchor="middle" x="292.5" y="-151.8" font-family="Times,serif" font-size="14.00">B</text>
<polyline fill="none" stroke="black" points="305.5,-144 305.5,-190 "/>
<text text-anchor="middle" x="328" y="-170.8" font-family="Times,serif" font-size="14.00">$91</text>
<text text-anchor="middle" x="328" y="-155.8" font-family="Times,serif" font-size="14.00">XOR</text>
<polyline fill="none" stroke="black" points="350.5,-144 350.5,-190 "/>
<text text-anchor="middle" x="363.5" y="-163.3" font-family="Times,serif" font-size="14.00">Y</text>
</g>
<!-- c14&#45;&gt;n10 -->
<g id="edge2" class="edge"><title>c14:p11:e&#45;&gt;n10:w</title>
<path fill="none" stroke="black" d="M378,-167C456.264,-167 478.352,-167 551.788,-167"/>
<polygon fill="black" stroke="black" points="552,-170.5 562,-167 552,-163.5 552,-170.5"/>
</g>
<!-- c17 -->
<g id="node12" class="node"><title>c17</title>
<polygon fill="none" stroke="black" points="418,-53 418,-99 526,-99 526,-53 418,-53"/>
<text text-anchor="middle" x="431" y="-83.8" font-family="Times,serif" font-size="14.00">A</text>
<polyline fill="none" stroke="black" points="418,-76 444,-76 "/>
<text text-anchor="middle" x="431" y="-60.8" font-family="Times,serif" font-size="14.00">B</text>
<polyline fill="none" stroke="black" points="444,-53 444,-99 "/>
<text text-anchor="middle" x="472" y="-79.8" font-family="Times,serif" font-size="14.00">$94</text>
<text text-anchor="middle" x="472" y="-64.8" font-family="Times,serif" font-size="14.00">NAND</text>
<polyline fill="none" stroke="black" points="500,-53 500,-99 "/>
<text text-anchor="middle" x="513" y="-72.3" font-family="Times,serif" font-size="14.00">Y</text>
</g>
<!-- c15&#45;&gt;c17 -->
<g id="edge1" class="edge"><title>c15:p11:e&#45;&gt;c17:p6:w</title>
<path fill="none" stroke="black" d="M198,-50C292.531,-50 318.242,-63.0329 407.934,-63.9493"/>
<polygon fill="black" stroke="black" points="407.982,-67.4495 418,-64 408.018,-60.4496 407.982,-67.4495"/>
</g>
<!-- c16 -->
<g id="node11" class="node"><title>c16</title>
<polygon fill="none" stroke="black" points="274,-79 274,-125 382,-125 382,-79 274,-79"/>
<text text-anchor="middle" x="287" y="-109.8" font-family="Times,serif" font-size="14.00">A</text>
<polyline fill="none" stroke="black" points="274,-102 300,-102 "/>
<text text-anchor="middle" x="287" y="-86.8" font-family="Times,serif" font-size="14.00">B</text>
<polyline fill="none" stroke="black" points="300,-79 300,-125 "/>
<text text-anchor="middle" x="328" y="-105.8" font-family="Times,serif" font-size="14.00">$93</text>
<text text-anchor="middle" x="328" y="-90.8" font-family="Times,serif" font-size="14.00">NAND</text>
<polyline fill="none" stroke="black" points="356,-79 356,-125 "/>
<text text-anchor="middle" x="369" y="-98.3" font-family="Times,serif" font-size="14.00">Y</text>
</g>
<!-- c16&#45;&gt;c17 -->
<g id="edge3" class="edge"><title>c16:p11:e&#45;&gt;c17:p5:w</title>
<path fill="none" stroke="black" d="M382,-102C395.144,-102 399.2,-93.7935 408.085,-89.9466"/>
<polygon fill="black" stroke="black" points="408.862,-93.361 418,-88 407.513,-86.4921 408.862,-93.361"/>
</g>
<!-- c17&#45;&gt;n8 -->
<g id="edge15" class="edge"><title>c17:p11:e&#45;&gt;n8:w</title>
<path fill="none" stroke="black" d="M526,-76C538,-76 543.25,-76 551.875,-76"/>
<polygon fill="black" stroke="black" points="552,-79.5001 562,-76 552,-72.5001 552,-79.5001"/>
</g>
<!-- n3&#45;&gt;c14 -->
<g id="edge5" class="edge"><title>n3:e&#45;&gt;c14:p6:w</title>
<path fill="none" stroke="black" d="M238,-115C259.017,-115 255.279,-142.952 268.173,-152.123"/>
<polygon fill="black" stroke="black" points="267.419,-155.549 278,-155 269.386,-148.831 267.419,-155.549"/>
</g>
<!-- n3&#45;&gt;c16 -->
<g id="edge6" class="edge"><title>n3:e&#45;&gt;c16:p6:w</title>
<path fill="none" stroke="black" d="M238,-115C253.371,-115 254.77,-99.4345 264.247,-92.8678"/>
<polygon fill="black" stroke="black" points="265.394,-96.179 274,-90 263.419,-89.4633 265.394,-96.179"/>
</g>
<!-- n4&#45;&gt;c14 -->
<g id="edge8" class="edge"><title>n4:e&#45;&gt;c14:p5:w</title>
<path fill="none" stroke="black" d="M238,-179C251.889,-179 257.64,-179 267.968,-179"/>
<polygon fill="black" stroke="black" points="268,-182.5 278,-179 268,-175.5 268,-182.5"/>
</g>
<!-- n4&#45;&gt;c16 -->
<g id="edge9" class="edge"><title>n4:e&#45;&gt;c16:p5:w</title>
<path fill="none" stroke="black" d="M238,-179C266.896,-179 247.503,-129.234 264.326,-116.793"/>
<polygon fill="black" stroke="black" points="265.363,-120.137 274,-114 263.422,-113.411 265.363,-120.137"/>
</g>
</g>
</svg>
