999
dxflib 2.0.4.8
  0
SECTION
  2
HEADER
  9
$ACADVER
  1
AC1015
  9
$HANDSEED
  5
FFFF
  9
$DIMASZ
 40
2.5
  9
$DIMGAP
 40
0.625
  9
$DIMEXO
 40
0.625
  9
$INSUNITS
 70
4
  9
$DIMTXT
 40
2.5
  9
$DIMSTYLE
  2
Standard
  9
$PLIMMAX
 10
210.0
 20
297.0
  9
$PLIMMIN
 10
0.0
 20
0.0
  9
$DIMEXE
 40
1.25
  0
ENDSEC
  0
SECTION
  2
TABLES
  0
TABLE
  2
VPORT
  5
8
100
AcDbSymbolTable
 70
1
  0
VPORT
  5
30
100
AcDbSymbolTableRecord
100
AcDbViewportTableRecord
  2
*Active
 70
0
 10
0.0
 20
0.0
 11
1.0
 21
1.0
 12
286.3055555555554861
 22
148.5
 13
0.0
 23
0.0
 14
10.0
 24
10.0
 15
10.0
 25
10.0
 16
0.0
 26
0.0
 36
1.0
 17
0.0
 27
0.0
 37
0.0
 40
297.0
 41
1.92798353909465
 42
50.0
 43
0.0
 44
0.0
 50
0.0
 51
0.0
 71
0
 72
100
 73
1
 74
3
 75
1
 76
1
 77
0
 78
0
281
0
 65
1
110
0.0
120
0.0
130
0.0
111
1.0
121
0.0
131
0.0
112
0.0
122
1.0
132
0.0
 79
0
146
0.0
  0
ENDTAB
  0
TABLE
  2
LTYPE
  5
5
100
AcDbSymbolTable
 70
21
  0
LTYPE
  5
14
100
AcDbSymbolTableRecord
100
AcDbLinetypeTableRecord
  2
ByBlock
 70
0
  3

 72
65
 73
0
 40
0.0
  0
LTYPE
  5
15
100
AcDbSymbolTableRecord
100
AcDbLinetypeTableRecord
  2
ByLayer
 70
0
  3

 72
65
 73
0
 40
0.0
  0
LTYPE
  5
16
100
AcDbSymbolTableRecord
100
AcDbLinetypeTableRecord
  2
CONTINUOUS
 70
0
  3
Solid line
 72
65
 73
0
 40
0.0
  0
LTYPE
  5
31
100
AcDbSymbolTableRecord
100
AcDbLinetypeTableRecord
  2
DOT
 70
0
  3
Dot . . . . . . . . . . . . . . . . . . . . . .
 72
65
 73
2
 40
6.3499999999999996
 49
0.0
 74
0
 49
-6.3499999999999996
 74
0
  0
LTYPE
  5
32
100
AcDbSymbolTableRecord
100
AcDbLinetypeTableRecord
  2
DOT2
 70
0
  3
Dot (.5x) .....................................
 72
65
 73
2
 40
3.1749999999999998
 49
0.0
 74
0
 49
-3.1749999999999998
 74
0
  0
LTYPE
  5
33
100
AcDbSymbolTableRecord
100
AcDbLinetypeTableRecord
  2
DOTX2
 70
0
  3
Dot (2x) .  .  .  .  .  .  .  .  .  .  .  .  .
 72
65
 73
2
 40
12.6999999999999993
 49
0.0
 74
0
 49
-12.6999999999999993
 74
0
  0
LTYPE
  5
34
100
AcDbSymbolTableRecord
100
AcDbLinetypeTableRecord
  2
DASHED
 70
0
  3
Dashed __ __ __ __ __ __ __ __ __ __ __ __ __ _
 72
65
 73
2
 40
19.0500000000000007
 49
12.6999999999999993
 74
0
 49
-6.3499999999999996
 74
0
  0
LTYPE
  5
35
100
AcDbSymbolTableRecord
100
AcDbLinetypeTableRecord
  2
DASHED2
 70
0
  3
Dashed (.5x) _ _ _ _ _ _ _ _ _ _ _ _ _ _ _ _ _
 72
65
 73
2
 40
9.5250000000000004
 49
6.3499999999999996
 74
0
 49
-3.1749999999999998
 74
0
  0
LTYPE
  5
36
100
AcDbSymbolTableRecord
100
AcDbLinetypeTableRecord
  2
DASHEDX2
 70
0
  3
Dashed (2x) ____  ____  ____  ____  ____  ___
 72
65
 73
2
 40
38.1000000000000014
 49
25.3999999999999986
 74
0
 49
-12.6999999999999993
 74
0
  0
LTYPE
  5
37
100
AcDbSymbolTableRecord
100
AcDbLinetypeTableRecord
  2
DASHDOT
 70
0
  3
Dash dot __ . __ . __ . __ . __ . __ . __ . __
 72
65
 73
4
 40
25.3999999999999986
 49
12.6999999999999993
 74
0
 49
-6.3499999999999996
 74
0
 49
0.0
 74
0
 49
-6.3499999999999996
 74
0
  0
LTYPE
  5
38
100
AcDbSymbolTableRecord
100
AcDbLinetypeTableRecord
  2
DASHDOT2
 70
0
  3
Dash dot (.5x) _._._._._._._._._._._._._._._.
 72
65
 73
4
 40
12.6999999999999993
 49
6.3499999999999996
 74
0
 49
-3.1749999999999998
 74
0
 49
0.0
 74
0
 49
-3.1749999999999998
 74
0
  0
LTYPE
  5
39
100
AcDbSymbolTableRecord
100
AcDbLinetypeTableRecord
  2
DASHDOTX2
 70
0
  3
Dash dot (2x) ____  .  ____  .  ____  .  ___
 72
65
 73
4
 40
50.7999999999999972
 49
25.3999999999999986
 74
0
 49
-12.6999999999999993
 74
0
 49
0.0
 74
0
 49
-12.6999999999999993
 74
0
  0
LTYPE
  5
3A
100
AcDbSymbolTableRecord
100
AcDbLinetypeTableRecord
  2
DIVIDE
 70
0
  3
Divide ____ . . ____ . . ____ . . ____ . . ____
 72
65
 73
6
 40
31.75
 49
12.6999999999999993
 74
0
 49
-6.3499999999999996
 74
0
 49
0.0
 74
0
 49
-6.3499999999999996
 74
0
 49
0.0
 74
0
 49
-6.3499999999999996
 74
0
  0
LTYPE
  5
3B
100
AcDbSymbolTableRecord
100
AcDbLinetypeTableRecord
  2
DIVIDE2
 70
0
  3
Divide (.5x) __..__..__..__..__..__..__..__.._
 72
65
 73
6
 40
15.875
 49
6.3499999999999996
 74
0
 49
-3.1749999999999998
 74
0
 49
0.0
 74
0
 49
-3.1749999999999998
 74
0
 49
0.0
 74
0
 49
-3.1749999999999998
 74
0
  0
LTYPE
  5
3C
100
AcDbSymbolTableRecord
100
AcDbLinetypeTableRecord
  2
DIVIDEX2
 70
0
  3
Divide (2x) ________  .  .  ________  .  .  _
 72
65
 73
6
 40
63.5
 49
25.3999999999999986
 74
0
 49
-12.6999999999999993
 74
0
 49
0.0
 74
0
 49
-12.6999999999999993
 74
0
 49
0.0
 74
0
 49
-12.6999999999999993
 74
0
  0
LTYPE
  5
3D
100
AcDbSymbolTableRecord
100
AcDbLinetypeTableRecord
  2
CENTER
 70
0
  3
Center ____ _ ____ _ ____ _ ____ _ ____ _ ____
 72
65
 73
4
 40
50.7999999999999972
 49
31.75
 74
0
 49
-6.3499999999999996
 74
0
 49
6.3499999999999996
 74
0
 49
-6.3499999999999996
 74
0
  0
LTYPE
  5
3E
100
AcDbSymbolTableRecord
100
AcDbLinetypeTableRecord
  2
CENTER2
 70
0
  3
Center (.5x) ___ _ ___ _ ___ _ ___ _ ___ _ ___
 72
65
 73
4
 40
28.5749999999999993
 49
19.0500000000000007
 74
0
 49
-3.1749999999999998
 74
0
 49
3.1749999999999998
 74
0
 49
-3.1749999999999998
 74
0
  0
LTYPE
  5
3F
100
AcDbSymbolTableRecord
100
AcDbLinetypeTableRecord
  2
CENTERX2
 70
0
  3
Center (2x) ________  __  ________  __  _____
 72
65
 73
4
 40
101.5999999999999943
 49
63.5
 74
0
 49
-12.6999999999999993
 74
0
 49
12.6999999999999993
 74
0
 49
-12.6999999999999993
 74
0
  0
LTYPE
  5
40
100
AcDbSymbolTableRecord
100
AcDbLinetypeTableRecord
  2
BORDER
 70
0
  3
Border __ __ . __ __ . __ __ . __ __ . __ __ .
 72
65
 73
6
 40
44.4500000000000028
 49
12.6999999999999993
 74
0
 49
-6.3499999999999996
 74
0
 49
12.6999999999999993
 74
0
 49
-6.3499999999999996
 74
0
 49
0.0
 74
0
 49
-6.3499999999999996
 74
0
  0
LTYPE
  5
41
100
AcDbSymbolTableRecord
100
AcDbLinetypeTableRecord
  2
BORDER2
 70
0
  3
Border (.5x) __.__.__.__.__.__.__.__.__.__.__.
 72
65
 73
6
 40
22.2250000000000014
 49
6.3499999999999996
 74
0
 49
-3.1749999999999998
 74
0
 49
6.3499999999999996
 74
0
 49
-3.1749999999999998
 74
0
 49
0.0
 74
0
 49
-3.1749999999999998
 74
0
  0
LTYPE
  5
42
100
AcDbSymbolTableRecord
100
AcDbLinetypeTableRecord
  2
BORDERX2
 70
0
  3
Border (2x) ____  ____  .  ____  ____  .  ___
 72
65
 73
6
 40
88.9000000000000057
 49
25.3999999999999986
 74
0
 49
-12.6999999999999993
 74
0
 49
25.3999999999999986
 74
0
 49
-12.6999999999999993
 74
0
 49
0.0
 74
0
 49
-12.6999999999999993
 74
0
  0
ENDTAB
  0
TABLE
  2
LAYER
  5
2
100
AcDbSymbolTable
 70
8
  0
LAYER
  5
10
100
AcDbSymbolTableRecord
100
AcDbLayerTableRecord
  2
0
 70
0
 62
7
  6
CONTINUOUS
370
0
390
F
  0
LAYER
  5
43
100
AcDbSymbolTableRecord
100
AcDbLayerTableRecord
  2
wdb
 70
0
 62
7
  6
CONTINUOUS
370
0
390
F
  0
LAYER
  5
44
100
AcDbSymbolTableRecord
100
AcDbLayerTableRecord
  2
wdf
 70
0
 62
7
  6
CONTINUOUS
370
0
390
F
  0
LAYER
  5
45
100
AcDbSymbolTableRecord
100
AcDbLayerTableRecord
  2
bdb
 70
0
 62
7
  6
CONTINUOUS
370
0
390
F
  0
LAYER
  5
46
100
AcDbSymbolTableRecord
100
AcDbLayerTableRecord
  2
bdf
 70
0
 62
7
  6
CONTINUOUS
370
0
390
F
  0
LAYER
  5
47
100
AcDbSymbolTableRecord
100
AcDbLayerTableRecord
  2
pl
 70
0
 62
7
  6
CONTINUOUS
370
0
390
F
  0
LAYER
  5
48
100
AcDbSymbolTableRecord
100
AcDbLayerTableRecord
  2
pr
 70
0
 62
7
  6
CONTINUOUS
370
0
390
F
  0
LAYER
  5
49
100
AcDbSymbolTableRecord
100
AcDbLayerTableRecord
  2
dim
 70
0
 62
7
  6
CONTINUOUS
370
0
390
F
  0
ENDTAB
  0
TABLE
  2
STYLE
  5
3
100
AcDbSymbolTable
 70
1
  0
STYLE
  5
11
100
AcDbSymbolTableRecord
100
AcDbTextStyleTableRecord
  2
Standard
 70
0
 40
0.0
 41
0.75
 50
0.0
 71
0
 42
2.5
  3
txt
  4

  0
ENDTAB
  0
TABLE
  2
VIEW
  5
6
100
AcDbSymbolTable
 70
0
  0
ENDTAB
  0
TABLE
  2
UCS
  5
7
100
AcDbSymbolTable
 70
0
  0
ENDTAB
  0
TABLE
  2
APPID
  5
9
100
AcDbSymbolTable
 70
1
  0
APPID
  5
12
100
AcDbSymbolTableRecord
100
AcDbRegAppTableRecord
  2
ACAD
 70
0
  0
ENDTAB
  0
TABLE
  2
DIMSTYLE
  5
A
100
AcDbSymbolTable
 70
1
100
AcDbDimStyleTable
 71
0
  0
DIMSTYLE
105
27
100
AcDbSymbolTableRecord
100
AcDbDimStyleTableRecord
  2
Standard
 41
2.5
 42
0.625
 43
3.75
 44
1.25
 70
0
 73
0
 74
0
 77
1
 78
8
140
2.5
141
2.5
143
0.03937007874016
147
0.625
171
3
172
1
271
2
272
2
274
3
278
44
283
0
284
8
340
11
  0
ENDTAB
  0
TABLE
  2
BLOCK_RECORD
  5
1
100
AcDbSymbolTable
 70
1
  0
BLOCK_RECORD
  5
1F
100
AcDbSymbolTableRecord
100
AcDbBlockTableRecord
  2
*Model_Space
340
22
  0
BLOCK_RECORD
  5
1B
100
AcDbSymbolTableRecord
100
AcDbBlockTableRecord
  2
*Paper_Space
340
1E
  0
BLOCK_RECORD
  5
23
100
AcDbSymbolTableRecord
100
AcDbBlockTableRecord
  2
*Paper_Space0
340
26
  0
ENDTAB
  0
ENDSEC
  0
SECTION
  2
BLOCKS
  0
BLOCK
  5
20
100
AcDbEntity
  8
0
100
AcDbBlockBegin
  2
*Model_Space
 70
0
 10
0.0
 20
0.0
 30
0.0
  3
*Model_Space
  1

  0
ENDBLK
  5
21
100
AcDbEntity
  8
0
100
AcDbBlockEnd
  0
BLOCK
  5
1C
100
AcDbEntity
 67
1
  8
0
100
AcDbBlockBegin
  2
*Paper_Space
 70
0
 10
0.0
 20
0.0
 30
0.0
  3
*Paper_Space
  1

  0
ENDBLK
  5
1D
100
AcDbEntity
 67
1
  8
0
100
AcDbBlockEnd
  0
BLOCK
  5
24
100
AcDbEntity
  8
0
100
AcDbBlockBegin
  2
*Paper_Space0
 70
0
 10
0.0
 20
0.0
 30
0.0
  3
*Paper_Space0
  1

  0
ENDBLK
  5
25
100
AcDbEntity
  8
0
100
AcDbBlockEnd
  0
ENDSEC
  0
SECTION
  2
ENTITIES
  0
LINE
  5
4A
100
AcDbEntity
100
AcDbLine
  8
wdf
 62
256
370
-1
  6
ByLayer
 10
-20.0
 20
-0.0000000000000071
 30
0.0
 11
-24.375
 21
0.0000000000000639
 31
0.0
  0
LINE
  5
4B
100
AcDbEntity
100
AcDbLine
  8
wdf
 62
256
370
-1
  6
ByLayer
 10
-44.375
 20
10.0000000000000711
 30
0.0
 11
-44.375
 21
0.0000000000000639
 31
0.0
  0
ARC
  5
4C
100
AcDbEntity
  8
wdf
 62
256
370
-1
  6
ByLayer
100
AcDbCircle
 10
-34.375
 20
10.0000000000000853
 30
0.0
 40
10.0
100
AcDbArc
 50
89.9999999999999858
 51
180.0
  0
LINE
  5
4D
100
AcDbEntity
100
AcDbLine
  8
wdf
 62
256
370
-1
  6
ByLayer
 10
16.4999999999999645
 20
0.0000000000000213
 30
0.0
 11
0.0000000000000071
 21
0.0
 31
0.0
  0
LINE
  5
4E
100
AcDbEntity
100
AcDbLine
  8
wdf
 62
256
370
-1
  6
ByLayer
 10
16.4999999999999858
 20
36.5000000000000071
 30
0.0
 11
16.4999999999999645
 21
0.0000000000000213
 31
0.0
  0
LINE
  5
4F
100
AcDbEntity
100
AcDbLine
  8
wdf
 62
256
370
-1
  6
ByLayer
 10
29.75
 20
46.4999999999999858
 30
0.0
 11
26.4999999999999858
 21
46.4999999999999858
 31
0.0
  0
CIRCLE
  5
50
100
AcDbEntity
100
AcDbCircle
  8
wdf
 62
256
370
-1
  6
ByLayer
 10
29.75
 20
51.4999999999999858
 30
0.0
 40
1.5
  0
ARC
  5
51
100
AcDbEntity
  8
wdf
 62
256
370
-1
  6
ByLayer
100
AcDbCircle
 10
29.75
 20
51.4999999999999858
 30
0.0
 40
5.0
100
AcDbArc
 50
270.0
 51
90.0
  0
ARC
  5
52
100
AcDbEntity
  8
wdf
 62
256
370
-1
  6
ByLayer
100
AcDbCircle
 10
26.4999999999999858
 20
36.4999999999999929
 30
0.0
 40
10.0
100
AcDbArc
 50
90.0
 51
180.0
  0
ARC
  5
53
100
AcDbEntity
  8
wdf
 62
256
370
-1
  6
ByLayer
100
AcDbCircle
 10
35.75
 20
115.9999999999999858
 30
0.0
 40
5.0
100
AcDbArc
 50
0.0
 51
90.0
  0
LINE
  5
54
100
AcDbEntity
100
AcDbLine
  8
wdf
 62
256
370
-1
  6
ByLayer
 10
40.75
 20
109.3999999999999915
 30
0.0
 11
40.75
 21
115.9999999999999858
 31
0.0
  0
ARC
  5
55
100
AcDbEntity
  8
wdf
 62
256
370
-1
  6
ByLayer
100
AcDbCircle
 10
40.75
 20
106.4999999999999858
 30
0.0
 40
2.8999999999999999
100
AcDbArc
 50
90.0
 51
270.0
  0
CIRCLE
  5
56
100
AcDbEntity
100
AcDbCircle
  8
wdf
 62
256
370
-1
  6
ByLayer
 10
29.7500000000000071
 20
115.9000000000000057
 30
0.0
 40
1.45
  0
LINE
  5
57
100
AcDbEntity
100
AcDbLine
  8
wdf
 62
256
370
-1
  6
ByLayer
 10
-25.4999999999999716
 20
20.0000000000000107
 30
0.0
 11
-34.3749999999999716
 21
20.0000000000000071
 31
0.0
  0
ARC
  5
58
100
AcDbEntity
  8
wdf
 62
256
370
-1
  6
ByLayer
100
AcDbCircle
 10
-25.4999999999999858
 20
40.0000000000000142
 30
0.0
 40
20.0
100
AcDbArc
 50
270.0
 51
0.0
  0
LINE
  5
59
100
AcDbEntity
100
AcDbLine
  8
wdf
 62
256
370
-1
  6
ByLayer
 10
-5.4999999999999858
 20
40.0000000000000142
 30
0.0
 11
-5.4999999999999858
 21
115.9999999999999858
 31
0.0
  0
LINE
  5
5A
100
AcDbEntity
100
AcDbLine
  8
wdf
 62
256
370
-1
  6
ByLayer
 10
-0.4999999999999858
 20
120.9999999999999858
 30
0.0
 11
35.75
 21
120.9999999999999858
 31
0.0
  0
ARC
  5
5B
100
AcDbEntity
  8
wdf
 62
256
370
-1
  6
ByLayer
100
AcDbCircle
 10
-0.4999999999999858
 20
115.9999999999999858
 30
0.0
 40
5.0
100
AcDbArc
 50
90.0
 51
180.0
  0
MTEXT
  5
5C
100
AcDbEntity
100
AcDbMText
  8
wdf
 62
256
370
-1
  6
ByLayer
 10
-20.25
 20
15.9999999999999858
 30
0.0
 40
2.0
 41
100.0
 71
5
 72
2
  1
Weird\~Dino\~Front
  7
normal
 50
0.0
 73
0
 44
1.0
  0
ARC
  5
5D
100
AcDbEntity
  8
wdf
 62
256
370
-1
  6
ByLayer
100
AcDbCircle
 10
29.75
 20
94.9999745962155515
 30
0.0
 40
5.0
100
AcDbArc
 50
90.0000000000000284
 51
180.0
  0
LINE
  5
5E
100
AcDbEntity
100
AcDbLine
  8
wdf
 62
256
370
-1
  6
ByLayer
 10
29.75
 20
56.4999999999999858
 30
0.0
 11
29.75
 21
56.4999999999999858
 31
0.0
  0
LINE
  5
5F
100
AcDbEntity
100
AcDbLine
  8
wdf
 62
256
370
-1
  6
ByLayer
 10
24.75
 20
61.4999999999999858
 30
0.0
 11
24.75
 21
94.9999745962155515
 31
0.0
  0
ARC
  5
60
100
AcDbEntity
  8
wdf
 62
256
370
-1
  6
ByLayer
100
AcDbCircle
 10
29.75
 20
61.4999999999999858
 30
0.0
 40
5.0
100
AcDbArc
 50
180.0
 51
270.0
  0
LINE
  5
61
100
AcDbEntity
100
AcDbLine
  8
wdf
 62
256
370
-1
  6
ByLayer
 10
40.75
 20
101.9999745962155515
 30
0.0
 11
40.75
 21
103.5999999999999801
 31
0.0
  0
LINE
  5
62
100
AcDbEntity
100
AcDbLine
  8
wdf
 62
256
370
-1
  6
ByLayer
 10
29.75
 20
99.9999745962155515
 30
0.0
 11
38.75
 21
99.9999745962155515
 31
0.0
  0
ARC
  5
63
100
AcDbEntity
  8
wdf
 62
256
370
-1
  6
ByLayer
100
AcDbCircle
 10
38.75
 20
101.9999745962155515
 30
0.0
 40
2.0
100
AcDbArc
 50
270.0
 51
0.0
  0
LINE
  5
64
100
AcDbEntity
100
AcDbLine
  8
wdf
 62
256
370
-1
  6
ByLayer
 10
-32.875
 20
0.0000000000000639
 30
0.0
 11
-32.875
 21
8.0000000000000639
 31
0.0
  0
LINE
  5
65
100
AcDbEntity
100
AcDbLine
  8
wdf
 62
256
370
-1
  6
ByLayer
 10
-35.875
 20
8.0000000000000639
 30
0.0
 11
-35.875
 21
0.0000000000000639
 31
0.0
  0
LINE
  5
66
100
AcDbEntity
100
AcDbLine
  8
wdf
 62
256
370
-1
  6
ByLayer
 10
-35.875
 20
8.0000000000000639
 30
0.0
 11
-37.1749999999999972
 21
8.0000000000000639
 31
0.0
  0
LINE
  5
67
100
AcDbEntity
100
AcDbLine
  8
wdf
 62
256
370
-1
  6
ByLayer
 10
-31.5750000000000028
 20
8.0000000000000639
 30
0.0
 11
-32.875
 21
8.0000000000000639
 31
0.0
  0
LINE
  5
68
100
AcDbEntity
100
AcDbLine
  8
wdf
 62
256
370
-1
  6
ByLayer
 10
-35.875
 20
0.0000000000000639
 30
0.0
 11
-39.375
 21
0.0000000000000648
 31
0.0
  0
LINE
  5
69
100
AcDbEntity
100
AcDbLine
  8
wdf
 62
256
370
-1
  6
ByLayer
 10
-39.375
 20
0.0000000000000648
 30
0.0
 11
-39.375
 21
-4.4999999999999343
 31
0.0
  0
LINE
  5
6A
100
AcDbEntity
100
AcDbLine
  8
wdf
 62
256
370
-1
  6
ByLayer
 10
-39.375
 20
-4.4999999999999343
 30
0.0
 11
-44.375
 21
-4.4999999999999369
 31
0.0
  0
LINE
  5
6B
100
AcDbEntity
100
AcDbLine
  8
wdf
 62
256
370
-1
  6
ByLayer
 10
-44.375
 20
0.0000000000000648
 30
0.0
 11
-44.3754751072897449
 21
-4.4999999999999378
 31
0.0
  0
LINE
  5
6C
100
AcDbEntity
100
AcDbLine
  8
wdf
 62
256
370
-1
  6
ByLayer
 10
-24.375
 20
-4.4999999999999405
 30
0.0
 11
-29.375
 21
-4.4999999999999378
 31
0.0
  0
LINE
  5
6D
100
AcDbEntity
100
AcDbLine
  8
wdf
 62
256
370
-1
  6
ByLayer
 10
-29.375
 20
0.0000000000000631
 30
0.0
 11
-29.375
 21
-4.4999999999999378
 31
0.0
  0
LINE
  5
6E
100
AcDbEntity
100
AcDbLine
  8
wdf
 62
256
370
-1
  6
ByLayer
 10
-24.375
 20
-4.4999999999999405
 30
0.0
 11
-24.375
 21
0.0000000000000613
 31
0.0
  0
LINE
  5
6F
100
AcDbEntity
100
AcDbLine
  8
wdf
 62
256
370
-1
  6
ByLayer
 10
-32.875
 20
0.0000000000000639
 30
0.0
 11
-29.375
 21
0.0000000000000631
 31
0.0
  0
LINE
  5
70
100
AcDbEntity
100
AcDbLine
  8
wdf
 62
256
370
-1
  6
ByLayer
 10
-31.5750000000000028
 20
10.1000000000000636
 30
0.0
 11
-31.5750000000000028
 21
8.0000000000000639
 31
0.0
  0
LINE
  5
71
100
AcDbEntity
100
AcDbLine
  8
wdf
 62
256
370
-1
  6
ByLayer
 10
-32.875
 20
10.1000000000000636
 30
0.0
 11
-32.875
 21
12.0000000000000639
 31
0.0
  0
LINE
  5
72
100
AcDbEntity
100
AcDbLine
  8
wdf
 62
256
370
-1
  6
ByLayer
 10
-32.875
 20
10.1000000000000636
 30
0.0
 11
-31.5750000000000028
 21
10.1000000000000636
 31
0.0
  0
LINE
  5
73
100
AcDbEntity
100
AcDbLine
  8
wdf
 62
256
370
-1
  6
ByLayer
 10
-35.875
 20
12.0000000000000639
 30
0.0
 11
-35.875
 21
10.1000000000000636
 31
0.0
  0
LINE
  5
74
100
AcDbEntity
100
AcDbLine
  8
wdf
 62
256
370
-1
  6
ByLayer
 10
-37.1749999999999972
 20
8.0000000000000639
 30
0.0
 11
-37.1749999999999829
 21
10.1000000000000671
 31
0.0
  0
LINE
  5
75
100
AcDbEntity
100
AcDbLine
  8
wdf
 62
256
370
-1
  6
ByLayer
 10
-37.1749999999999829
 20
10.1000000000000671
 30
0.0
 11
-35.875
 21
10.1000000000000636
 31
0.0
  0
LINE
  5
76
100
AcDbEntity
100
AcDbLine
  8
wdf
 62
256
370
-1
  6
ByLayer
 10
-32.875
 20
12.0000000000000639
 30
0.0
 11
-35.875
 21
12.0000000000000639
 31
0.0
  0
LINE
  5
77
100
AcDbEntity
100
AcDbLine
  8
wdf
 62
256
370
-1
  6
ByLayer
 10
-8.5
 20
0.0
 30
0.0
 11
-8.5
 21
8.0
 31
0.0
  0
LINE
  5
78
100
AcDbEntity
100
AcDbLine
  8
wdf
 62
256
370
-1
  6
ByLayer
 10
-11.5
 20
8.0
 30
0.0
 11
-11.5
 21
0.0
 31
0.0
  0
LINE
  5
79
100
AcDbEntity
100
AcDbLine
  8
wdf
 62
256
370
-1
  6
ByLayer
 10
-11.5
 20
8.0
 30
0.0
 11
-12.7999999999999972
 21
8.0
 31
0.0
  0
LINE
  5
7A
100
AcDbEntity
100
AcDbLine
  8
wdf
 62
256
370
-1
  6
ByLayer
 10
-7.2000000000000028
 20
8.0
 30
0.0
 11
-8.5
 21
8.0
 31
0.0
  0
LINE
  5
7B
100
AcDbEntity
100
AcDbLine
  8
wdf
 62
256
370
-1
  6
ByLayer
 10
-11.5
 20
0.0
 30
0.0
 11
-15.0
 21
0.0000000000000009
 31
0.0
  0
LINE
  5
7C
100
AcDbEntity
100
AcDbLine
  8
wdf
 62
256
370
-1
  6
ByLayer
 10
-15.0
 20
0.0000000000000009
 30
0.0
 11
-15.0
 21
-4.4999999999999982
 31
0.0
  0
LINE
  5
7D
100
AcDbEntity
100
AcDbLine
  8
wdf
 62
256
370
-1
  6
ByLayer
 10
-15.0
 20
-4.4999999999999982
 30
0.0
 11
-20.0
 21
-4.5000000000000009
 31
0.0
  0
LINE
  5
7E
100
AcDbEntity
100
AcDbLine
  8
wdf
 62
256
370
-1
  6
ByLayer
 10
-20.0
 20
0.0000000000000009
 30
0.0
 11
-20.0004751072897449
 21
-4.5000000000000018
 31
0.0
  0
LINE
  5
7F
100
AcDbEntity
100
AcDbLine
  8
wdf
 62
256
370
-1
  6
ByLayer
 10
0.0
 20
-4.5000000000000044
 30
0.0
 11
-5.0
 21
-4.5000000000000018
 31
0.0
  0
LINE
  5
80
100
AcDbEntity
100
AcDbLine
  8
wdf
 62
256
370
-1
  6
ByLayer
 10
-5.0
 20
-0.0000000000000009
 30
0.0
 11
-5.0
 21
-4.5000000000000018
 31
0.0
  0
LINE
  5
81
100
AcDbEntity
100
AcDbLine
  8
wdf
 62
256
370
-1
  6
ByLayer
 10
0.0
 20
-4.5000000000000044
 30
0.0
 11
0.0
 21
-0.0000000000000027
 31
0.0
  0
LINE
  5
82
100
AcDbEntity
100
AcDbLine
  8
wdf
 62
256
370
-1
  6
ByLayer
 10
-8.5
 20
0.0
 30
0.0
 11
-5.0
 21
-0.0000000000000009
 31
0.0
  0
LINE
  5
83
100
AcDbEntity
100
AcDbLine
  8
wdf
 62
256
370
-1
  6
ByLayer
 10
-7.2000000000000028
 20
10.0999999999999996
 30
0.0
 11
-7.2000000000000028
 21
8.0
 31
0.0
  0
LINE
  5
84
100
AcDbEntity
100
AcDbLine
  8
wdf
 62
256
370
-1
  6
ByLayer
 10
-8.5
 20
10.0999999999999996
 30
0.0
 11
-8.5
 21
12.0
 31
0.0
  0
LINE
  5
85
100
AcDbEntity
100
AcDbLine
  8
wdf
 62
256
370
-1
  6
ByLayer
 10
-8.5
 20
10.0999999999999996
 30
0.0
 11
-7.2000000000000028
 21
10.0999999999999996
 31
0.0
  0
LINE
  5
86
100
AcDbEntity
100
AcDbLine
  8
wdf
 62
256
370
-1
  6
ByLayer
 10
-11.5
 20
12.0
 30
0.0
 11
-11.5
 21
10.0999999999999996
 31
0.0
  0
LINE
  5
87
100
AcDbEntity
100
AcDbLine
  8
wdf
 62
256
370
-1
  6
ByLayer
 10
-12.7999999999999972
 20
8.0
 30
0.0
 11
-12.7999999999999829
 21
10.1000000000000032
 31
0.0
  0
LINE
  5
88
100
AcDbEntity
100
AcDbLine
  8
wdf
 62
256
370
-1
  6
ByLayer
 10
-12.7999999999999829
 20
10.1000000000000032
 30
0.0
 11
-11.5
 21
10.0999999999999996
 31
0.0
  0
LINE
  5
89
100
AcDbEntity
100
AcDbLine
  8
wdf
 62
256
370
-1
  6
ByLayer
 10
-8.5
 20
12.0
 30
0.0
 11
-11.5
 21
12.0
 31
0.0
  0
LINE
  5
8A
100
AcDbEntity
100
AcDbLine
  8
wdf
 62
256
370
-1
  6
ByLayer
 10
4.25
 20
21.0
 30
0.0
 11
8.7499120428023858
 21
21.0
 31
0.0
  0
LINE
  5
8B
100
AcDbEntity
100
AcDbLine
  8
wdf
 62
256
370
-1
  6
ByLayer
 10
4.2500000000000071
 20
41.0
 30
0.0
 11
8.7502263635155089
 21
40.9972040489664451
 31
0.0
  0
CIRCLE
  5
8C
100
AcDbEntity
100
AcDbCircle
  8
wdf
 62
256
370
-1
  6
ByLayer
 10
6.5000000000000071
 20
31.0
 30
0.0
 40
1.5
  0
LINE
  5
8D
100
AcDbEntity
100
AcDbLine
  8
wdf
 62
256
370
-1
  6
ByLayer
 10
4.2500439785988178
 20
36.0
 30
0.0
 11
4.2500000000000071
 21
41.0
 31
0.0
  0
LINE
  5
8E
100
AcDbEntity
100
AcDbLine
  8
wdf
 62
256
370
-1
  6
ByLayer
 10
8.7502263635155089
 20
40.9972040489664451
 30
0.0
 11
8.7500439785988249
 21
36.0
 31
0.0
  0
LINE
  5
8F
100
AcDbEntity
100
AcDbLine
  8
wdf
 62
256
370
-1
  6
ByLayer
 10
4.2500439785988178
 20
36.0
 30
0.0
 11
8.7500439785988249
 21
36.0
 31
0.0
  0
LINE
  5
90
100
AcDbEntity
100
AcDbLine
  8
wdf
 62
256
370
-1
  6
ByLayer
 10
4.25
 20
21.0
 30
0.0
 11
4.2500439785988178
 21
26.0
 31
0.0
  0
LINE
  5
91
100
AcDbEntity
100
AcDbLine
  8
wdf
 62
256
370
-1
  6
ByLayer
 10
8.7500439785988178
 20
26.0
 30
0.0
 11
8.7499120428023858
 21
21.0
 31
0.0
  0
LINE
  5
92
100
AcDbEntity
100
AcDbLine
  8
wdf
 62
256
370
-1
  6
ByLayer
 10
4.2500439785988178
 20
26.0
 30
0.0
 11
8.7500439785988178
 21
26.0
 31
0.0
  0
LINE
  5
93
100
AcDbEntity
100
AcDbLine
  8
wdb
 62
256
370
-1
  6
ByLayer
 10
120.0
 20
-0.0000000000000213
 30
0.0
 11
124.375
 21
0.0000000000000355
 31
0.0
  0
LINE
  5
94
100
AcDbEntity
100
AcDbLine
  8
wdb
 62
256
370
-1
  6
ByLayer
 10
144.375
 20
10.0000000000000355
 30
0.0
 11
144.375
 21
0.0000000000000355
 31
0.0
  0
ARC
  5
95
100
AcDbEntity
  8
wdb
 62
256
370
-1
  6
ByLayer
100
AcDbCircle
 10
134.375
 20
10.0000000000000426
 30
0.0
 40
10.0
100
AcDbArc
 50
360.0
 51
89.9999999999999858
  0
LINE
  5
96
100
AcDbEntity
100
AcDbLine
  8
wdb
 62
256
370
-1
  6
ByLayer
 10
83.5000000000000568
 20
-0.0000000000000497
 30
0.0
 11
99.9999999999999716
 21
0.0
 31
0.0
  0
LINE
  5
97
100
AcDbEntity
100
AcDbLine
  8
wdb
 62
256
370
-1
  6
ByLayer
 10
83.5000000000000284
 20
36.5000000000000782
 30
0.0
 11
83.5000000000000568
 21
-0.0000000000000497
 31
0.0
  0
LINE
  5
98
100
AcDbEntity
100
AcDbLine
  8
wdb
 62
256
370
-1
  6
ByLayer
 10
70.25
 20
46.4999999999999645
 30
0.0
 11
73.5
 21
46.4999999999999432
 31
0.0
  0
CIRCLE
  5
99
100
AcDbEntity
100
AcDbCircle
  8
wdb
 62
256
370
-1
  6
ByLayer
 10
70.25
 20
51.4999999999999787
 30
0.0
 40
1.5
  0
ARC
  5
9A
100
AcDbEntity
  8
wdb
 62
256
370
-1
  6
ByLayer
100
AcDbCircle
 10
70.25
 20
51.4999999999999787
 30
0.0
 40
5.0
100
AcDbArc
 50
89.9999999999999858
 51
270.0
  0
ARC
  5
9B
100
AcDbEntity
  8
wdb
 62
256
370
-1
  6
ByLayer
100
AcDbCircle
 10
73.5
 20
36.4999999999999361
 30
0.0
 40
10.0
100
AcDbArc
 50
360.0
 51
89.9999999999999858
  0
ARC
  5
9C
100
AcDbEntity
  8
wdb
 62
256
370
-1
  6
ByLayer
100
AcDbCircle
 10
64.2500000000000568
 20
116.0
 30
0.0
 40
5.0
100
AcDbArc
 50
89.9999999999999858
 51
180.0
  0
LINE
  5
9D
100
AcDbEntity
100
AcDbLine
  8
wdb
 62
256
370
-1
  6
ByLayer
 10
59.2500000000000568
 20
109.4000000000000057
 30
0.0
 11
59.2500000000000284
 21
115.9999999999999716
 31
0.0
  0
ARC
  5
9E
100
AcDbEntity
  8
wdb
 62
256
370
-1
  6
ByLayer
100
AcDbCircle
 10
59.2500000000001137
 20
106.5000000000001137
 30
0.0
 40
2.8999999999999999
100
AcDbArc
 50
270.0
 51
89.9999999999999858
  0
CIRCLE
  5
9F
100
AcDbEntity
100
AcDbCircle
  8
wdb
 62
256
370
-1
  6
ByLayer
 10
70.25
 20
115.8999999999999773
 30
0.0
 40
1.45
  0
LINE
  5
A0
100
AcDbEntity
100
AcDbLine
  8
wdb
 62
256
370
-1
  6
ByLayer
 10
125.4999999999999716
 20
19.9999999999999574
 30
0.0
 11
134.3749999999999432
 21
19.9999999999999893
 31
0.0
  0
ARC
  5
A1
100
AcDbEntity
  8
wdb
 62
256
370
-1
  6
ByLayer
100
AcDbCircle
 10
125.5
 20
40.0
 30
0.0
 40
20.0
100
AcDbArc
 50
180.0
 51
270.0
  0
LINE
  5
A2
100
AcDbEntity
100
AcDbLine
  8
wdb
 62
256
370
-1
  6
ByLayer
 10
105.5
 20
40.0000000000000497
 30
0.0
 11
105.5
 21
115.9999999999999716
 31
0.0
  0
LINE
  5
A3
100
AcDbEntity
100
AcDbLine
  8
wdb
 62
256
370
-1
  6
ByLayer
 10
100.5000000000001137
 20
121.0000000000000284
 30
0.0
 11
64.25
 21
120.9999999999999716
 31
0.0
  0
ARC
  5
A4
100
AcDbEntity
  8
wdb
 62
256
370
-1
  6
ByLayer
100
AcDbCircle
 10
100.5000000000001137
 20
116.0000000000000284
 30
0.0
 40
5.0
100
AcDbArc
 50
360.0
 51
89.9999999999999858
  0
ARC
  5
A5
100
AcDbEntity
  8
wdb
 62
256
370
-1
  6
ByLayer
100
AcDbCircle
 10
70.2499999999999432
 20
94.9999745962154236
 30
0.0
 40
5.0
100
AcDbArc
 50
360.0
 51
89.9999999999999858
  0
LINE
  5
A6
100
AcDbEntity
100
AcDbLine
  8
wdb
 62
256
370
-1
  6
ByLayer
 10
70.2499999999999716
 20
56.4999999999998508
 30
0.0
 11
70.2499999999999716
 21
56.4999999999998508
 31
0.0
  0
LINE
  5
A7
100
AcDbEntity
100
AcDbLine
  8
wdb
 62
256
370
-1
  6
ByLayer
 10
75.2500000000000568
 20
61.5000000000001208
 30
0.0
 11
75.2500000000000284
 21
94.9999745962155373
 31
0.0
  0
ARC
  5
A8
100
AcDbEntity
  8
wdb
 62
256
370
-1
  6
ByLayer
100
AcDbCircle
 10
70.2500000000000568
 20
61.5000000000000782
 30
0.0
 40
5.0
100
AcDbArc
 50
270.0
 51
360.0
  0
LINE
  5
A9
100
AcDbEntity
100
AcDbLine
  8
wdb
 62
256
370
-1
  6
ByLayer
 10
59.2500000000000568
 20
101.9999745962155941
 30
0.0
 11
59.25
 21
103.5999999999999659
 31
0.0
  0
LINE
  5
AA
100
AcDbEntity
100
AcDbLine
  8
wdb
 62
256
370
-1
  6
ByLayer
 10
70.25
 20
99.9999745962155373
 30
0.0
 11
61.2499999999999432
 21
99.999974596215452
 31
0.0
  0
ARC
  5
AB
100
AcDbEntity
  8
wdb
 62
256
370
-1
  6
ByLayer
100
AcDbCircle
 10
61.2499999999999432
 20
101.999974596215452
 30
0.0
 40
2.0
100
AcDbArc
 50
180.0
 51
270.0
  0
MTEXT
  5
AC
100
AcDbEntity
100
AcDbMText
  8
wdb
 62
256
370
-1
  6
ByLayer
 10
120.25
 20
15.6666666666666181
 30
0.0
 40
2.0
 41
100.0
 71
5
 72
2
  1
Weird\~Dino\~Back
  7
normal
 50
0.0
 73
0
 44
1.0
  0
LINE
  5
AD
100
AcDbEntity
100
AcDbLine
  8
wdb
 62
256
370
-1
  6
ByLayer
 10
132.875
 20
0.0000000000000364
 30
0.0
 11
132.875
 21
8.0000000000000355
 31
0.0
  0
LINE
  5
AE
100
AcDbEntity
100
AcDbLine
  8
wdb
 62
256
370
-1
  6
ByLayer
 10
135.875
 20
8.0000000000000355
 30
0.0
 11
135.875
 21
0.0000000000000355
 31
0.0
  0
LINE
  5
AF
100
AcDbEntity
100
AcDbLine
  8
wdb
 62
256
370
-1
  6
ByLayer
 10
135.875
 20
8.0000000000000355
 30
0.0
 11
137.1750000000000114
 21
8.0000000000000338
 31
0.0
  0
LINE
  5
B0
100
AcDbEntity
100
AcDbLine
  8
wdb
 62
256
370
-1
  6
ByLayer
 10
131.5749999999999886
 20
8.0000000000000373
 30
0.0
 11
132.875
 21
8.0000000000000355
 31
0.0
  0
LINE
  5
B1
100
AcDbEntity
100
AcDbLine
  8
wdb
 62
256
370
-1
  6
ByLayer
 10
135.875
 20
0.0000000000000355
 30
0.0
 11
139.375
 21
0.0000000000000346
 31
0.0
  0
LINE
  5
B2
100
AcDbEntity
100
AcDbLine
  8
wdb
 62
256
370
-1
  6
ByLayer
 10
139.375
 20
0.0000000000000346
 30
0.0
 11
139.375
 21
-4.499999999999968
 31
0.0
  0
LINE
  5
B3
100
AcDbEntity
100
AcDbLine
  8
wdb
 62
256
370
-1
  6
ByLayer
 10
139.375
 20
-4.499999999999968
 30
0.0
 11
144.375
 21
-4.4999999999999716
 31
0.0
  0
LINE
  5
B4
100
AcDbEntity
100
AcDbLine
  8
wdb
 62
256
370
-1
  6
ByLayer
 10
144.375
 20
0.0000000000000329
 30
0.0
 11
144.3754751072897307
 21
-4.4999999999999627
 31
0.0
  0
LINE
  5
B5
100
AcDbEntity
100
AcDbLine
  8
wdb
 62
256
370
-1
  6
ByLayer
 10
124.375
 20
-4.4999999999999627
 30
0.0
 11
129.375
 21
-4.4999999999999636
 31
0.0
  0
LINE
  5
B6
100
AcDbEntity
100
AcDbLine
  8
wdb
 62
256
370
-1
  6
ByLayer
 10
129.375
 20
0.0000000000000373
 30
0.0
 11
129.375
 21
-4.4999999999999636
 31
0.0
  0
LINE
  5
B7
100
AcDbEntity
100
AcDbLine
  8
wdb
 62
256
370
-1
  6
ByLayer
 10
124.375
 20
-4.4999999999999627
 30
0.0
 11
124.375
 21
0.0000000000000391
 31
0.0
  0
LINE
  5
B8
100
AcDbEntity
100
AcDbLine
  8
wdb
 62
256
370
-1
  6
ByLayer
 10
132.875
 20
0.0000000000000364
 30
0.0
 11
129.375
 21
0.0000000000000373
 31
0.0
  0
LINE
  5
B9
100
AcDbEntity
100
AcDbLine
  8
wdb
 62
256
370
-1
  6
ByLayer
 10
131.5749999999999886
 20
10.1000000000000369
 30
0.0
 11
131.5749999999999886
 21
8.0000000000000373
 31
0.0
  0
LINE
  5
BA
100
AcDbEntity
100
AcDbLine
  8
wdb
 62
256
370
-1
  6
ByLayer
 10
132.875
 20
10.1000000000000352
 30
0.0
 11
132.875
 21
12.0000000000000355
 31
0.0
  0
LINE
  5
BB
100
AcDbEntity
100
AcDbLine
  8
wdb
 62
256
370
-1
  6
ByLayer
 10
132.875
 20
10.1000000000000352
 30
0.0
 11
131.5749999999999886
 21
10.1000000000000369
 31
0.0
  0
LINE
  5
BC
100
AcDbEntity
100
AcDbLine
  8
wdb
 62
256
370
-1
  6
ByLayer
 10
135.875
 20
12.0000000000000355
 30
0.0
 11
135.875
 21
10.1000000000000352
 31
0.0
  0
LINE
  5
BD
100
AcDbEntity
100
AcDbLine
  8
wdb
 62
256
370
-1
  6
ByLayer
 10
137.1750000000000114
 20
8.0000000000000338
 30
0.0
 11
137.1750000000000114
 21
10.1000000000000352
 31
0.0
  0
LINE
  5
BE
100
AcDbEntity
100
AcDbLine
  8
wdb
 62
256
370
-1
  6
ByLayer
 10
137.1750000000000114
 20
10.1000000000000352
 30
0.0
 11
135.875
 21
10.1000000000000352
 31
0.0
  0
LINE
  5
BF
100
AcDbEntity
100
AcDbLine
  8
wdb
 62
256
370
-1
  6
ByLayer
 10
132.875
 20
12.0000000000000355
 30
0.0
 11
135.875
 21
12.0000000000000355
 31
0.0
  0
LINE
  5
C0
100
AcDbEntity
100
AcDbLine
  8
wdb
 62
256
370
-1
  6
ByLayer
 10
108.5
 20
-0.0000000000000204
 30
0.0
 11
108.5
 21
7.9999999999999787
 31
0.0
  0
LINE
  5
C1
100
AcDbEntity
100
AcDbLine
  8
wdb
 62
256
370
-1
  6
ByLayer
 10
111.5
 20
7.9999999999999787
 30
0.0
 11
111.5
 21
-0.0000000000000213
 31
0.0
  0
LINE
  5
C2
100
AcDbEntity
100
AcDbLine
  8
wdb
 62
256
370
-1
  6
ByLayer
 10
111.5
 20
7.9999999999999787
 30
0.0
 11
112.8000000000000114
 21
7.9999999999999769
 31
0.0
  0
LINE
  5
C3
100
AcDbEntity
100
AcDbLine
  8
wdb
 62
256
370
-1
  6
ByLayer
 10
107.1999999999999886
 20
7.9999999999999805
 30
0.0
 11
108.5
 21
7.9999999999999787
 31
0.0
  0
LINE
  5
C4
100
AcDbEntity
100
AcDbLine
  8
wdb
 62
256
370
-1
  6
ByLayer
 10
111.5
 20
-0.0000000000000213
 30
0.0
 11
115.0
 21
-0.0000000000000222
 31
0.0
  0
LINE
  5
C5
100
AcDbEntity
100
AcDbLine
  8
wdb
 62
256
370
-1
  6
ByLayer
 10
115.0
 20
-0.0000000000000222
 30
0.0
 11
115.0
 21
-4.5000000000000249
 31
0.0
  0
LINE
  5
C6
100
AcDbEntity
100
AcDbLine
  8
wdb
 62
256
370
-1
  6
ByLayer
 10
115.0
 20
-4.5000000000000249
 30
0.0
 11
120.0
 21
-4.5000000000000284
 31
0.0
  0
LINE
  5
C7
100
AcDbEntity
100
AcDbLine
  8
wdb
 62
256
370
-1
  6
ByLayer
 10
120.0
 20
-0.000000000000024
 30
0.0
 11
120.0004751072897307
 21
-4.5000000000000195
 31
0.0
  0
LINE
  5
C8
100
AcDbEntity
100
AcDbLine
  8
wdb
 62
256
370
-1
  6
ByLayer
 10
100.0
 20
-4.5000000000000195
 30
0.0
 11
105.0
 21
-4.5000000000000204
 31
0.0
  0
LINE
  5
C9
100
AcDbEntity
100
AcDbLine
  8
wdb
 62
256
370
-1
  6
ByLayer
 10
105.0
 20
-0.0000000000000195
 30
0.0
 11
105.0
 21
-4.5000000000000204
 31
0.0
  0
LINE
  5
CA
100
AcDbEntity
100
AcDbLine
  8
wdb
 62
256
370
-1
  6
ByLayer
 10
100.0
 20
-4.5000000000000195
 30
0.0
 11
100.0
 21
-0.0000000000000178
 31
0.0
  0
LINE
  5
CB
100
AcDbEntity
100
AcDbLine
  8
wdb
 62
256
370
-1
  6
ByLayer
 10
108.5
 20
-0.0000000000000204
 30
0.0
 11
105.0
 21
-0.0000000000000195
 31
0.0
  0
LINE
  5
CC
100
AcDbEntity
100
AcDbLine
  8
wdb
 62
256
370
-1
  6
ByLayer
 10
107.1999999999999886
 20
10.0999999999999801
 30
0.0
 11
107.1999999999999886
 21
7.9999999999999805
 31
0.0
  0
LINE
  5
CD
100
AcDbEntity
100
AcDbLine
  8
wdb
 62
256
370
-1
  6
ByLayer
 10
108.5
 20
10.0999999999999783
 30
0.0
 11
108.5
 21
11.9999999999999787
 31
0.0
  0
LINE
  5
CE
100
AcDbEntity
100
AcDbLine
  8
wdb
 62
256
370
-1
  6
ByLayer
 10
108.5
 20
10.0999999999999783
 30
0.0
 11
107.1999999999999886
 21
10.0999999999999801
 31
0.0
  0
LINE
  5
CF
100
AcDbEntity
100
AcDbLine
  8
wdb
 62
256
370
-1
  6
ByLayer
 10
111.5
 20
11.9999999999999787
 30
0.0
 11
111.5
 21
10.0999999999999783
 31
0.0
  0
LINE
  5
D0
100
AcDbEntity
100
AcDbLine
  8
wdb
 62
256
370
-1
  6
ByLayer
 10
112.8000000000000114
 20
7.9999999999999769
 30
0.0
 11
112.8000000000000114
 21
10.0999999999999783
 31
0.0
  0
LINE
  5
D1
100
AcDbEntity
100
AcDbLine
  8
wdb
 62
256
370
-1
  6
ByLayer
 10
112.8000000000000114
 20
10.0999999999999783
 30
0.0
 11
111.5
 21
10.0999999999999783
 31
0.0
  0
LINE
  5
D2
100
AcDbEntity
100
AcDbLine
  8
wdb
 62
256
370
-1
  6
ByLayer
 10
108.5
 20
11.9999999999999787
 30
0.0
 11
111.5
 21
11.9999999999999787
 31
0.0
  0
LINE
  5
D3
100
AcDbEntity
100
AcDbLine
  8
wdb
 62
256
370
-1
  6
ByLayer
 10
95.75
 20
10.0000000000001084
 30
0.0
 11
91.2500879571976213
 21
10.0000000000001119
 31
0.0
  0
LINE
  5
D4
100
AcDbEntity
100
AcDbLine
  8
wdb
 62
256
370
-1
  6
ByLayer
 10
95.75
 20
30.0000000000001066
 30
0.0
 11
91.2497736364845196
 21
29.9972040489665517
 31
0.0
  0
CIRCLE
  5
D5
100
AcDbEntity
100
AcDbCircle
  8
wdb
 62
256
370
-1
  6
ByLayer
 10
93.5
 20
20.0000000000001101
 30
0.0
 40
1.5
  0
LINE
  5
D6
100
AcDbEntity
100
AcDbLine
  8
wdb
 62
256
370
-1
  6
ByLayer
 10
95.7499560214012035
 20
25.0000000000001066
 30
0.0
 11
95.75
 21
30.0000000000001066
 31
0.0
  0
LINE
  5
D7
100
AcDbEntity
100
AcDbLine
  8
wdb
 62
256
370
-1
  6
ByLayer
 10
91.2497736364845196
 20
29.9972040489665517
 30
0.0
 11
91.2499560214012035
 21
25.0000000000001101
 31
0.0
  0
LINE
  5
D8
100
AcDbEntity
100
AcDbLine
  8
wdb
 62
256
370
-1
  6
ByLayer
 10
95.7499560214012035
 20
25.0000000000001066
 30
0.0
 11
91.2499560214012035
 21
25.0000000000001101
 31
0.0
  0
LINE
  5
D9
100
AcDbEntity
100
AcDbLine
  8
wdb
 62
256
370
-1
  6
ByLayer
 10
95.75
 20
10.0000000000001084
 30
0.0
 11
95.7499560214012035
 21
15.0000000000001101
 31
0.0
  0
LINE
  5
DA
100
AcDbEntity
100
AcDbLine
  8
wdb
 62
256
370
-1
  6
ByLayer
 10
91.2499560214012035
 20
15.0000000000001101
 30
0.0
 11
91.2500879571976213
 21
10.0000000000001119
 31
0.0
  0
LINE
  5
DB
100
AcDbEntity
100
AcDbLine
  8
wdb
 62
256
370
-1
  6
ByLayer
 10
95.7499560214012035
 20
15.0000000000001101
 30
0.0
 11
91.2499560214012035
 21
15.0000000000001101
 31
0.0
  0
ARC
  5
DC
100
AcDbEntity
  8
bdf
 62
256
370
-1
  6
ByLayer
100
AcDbCircle
 10
188.5
 20
116.0
 30
0.0
 40
5.0
100
AcDbArc
 50
90.0
 51
180.0
  0
ARC
  5
DD
100
AcDbEntity
  8
bdf
 62
256
370
-1
  6
ByLayer
100
AcDbCircle
 10
183.5
 20
106.5
 30
0.0
 40
3.0
100
AcDbArc
 50
270.0
 51
90.0
  0
LINE
  5
DE
100
AcDbEntity
100
AcDbLine
  8
bdf
 62
256
370
-1
  6
ByLayer
 10
183.5
 20
116.0
 30
0.0
 11
183.5
 21
109.5
 31
0.0
  0
CIRCLE
  5
DF
100
AcDbEntity
100
AcDbCircle
  8
bdf
 62
256
370
-1
  6
ByLayer
 10
190.6500000000000057
 20
115.8999999999999773
 30
0.0
 40
1.45
  0
CIRCLE
  5
E0
100
AcDbEntity
100
AcDbCircle
  8
bdf
 62
256
370
-1
  6
ByLayer
 10
190.6500000000000057
 20
51.5
 30
0.0
 40
1.45
  0
ARC
  5
E1
100
AcDbEntity
  8
bdf
 62
256
370
-1
  6
ByLayer
100
AcDbCircle
 10
203.5
 20
116.0
 30
0.0
 40
5.0
100
AcDbArc
 50
0.0
 51
90.0
  0
LINE
  5
E2
100
AcDbEntity
100
AcDbLine
  8
bdf
 62
256
370
-1
  6
ByLayer
 10
208.5
 20
106.0
 30
0.0
 11
212.0355339059327378
 21
102.4644660940672338
 31
0.0
  0
LINE
  5
E3
100
AcDbEntity
100
AcDbLine
  8
bdf
 62
256
370
-1
  6
ByLayer
 10
212.0355339059327378
 20
102.4644660940672338
 30
0.0
 11
208.5
 21
98.9289321881345245
 31
0.0
  0
LINE
  5
E4
100
AcDbEntity
100
AcDbLine
  8
bdf
 62
256
370
-1
  6
ByLayer
 10
208.5
 20
98.9289321881345245
 30
0.0
 11
212.0355339059327378
 21
95.3933982822018152
 31
0.0
  0
LINE
  5
E5
100
AcDbEntity
100
AcDbLine
  8
bdf
 62
256
370
-1
  6
ByLayer
 10
212.0355339059327378
 20
95.3933982822018152
 30
0.0
 11
208.5
 21
91.857864376269049
 31
0.0
  0
LINE
  5
E6
100
AcDbEntity
100
AcDbLine
  8
bdf
 62
256
370
-1
  6
ByLayer
 10
208.5
 20
91.857864376269049
 30
0.0
 11
212.0355339059327378
 21
88.3223304703362828
 31
0.0
  0
LINE
  5
E7
100
AcDbEntity
100
AcDbLine
  8
bdf
 62
256
370
-1
  6
ByLayer
 10
212.0355339059327378
 20
88.3223304703362828
 30
0.0
 11
208.5
 21
84.7867965644035735
 31
0.0
  0
LINE
  5
E8
100
AcDbEntity
100
AcDbLine
  8
bdf
 62
256
370
-1
  6
ByLayer
 10
208.5
 20
84.7867965644035735
 30
0.0
 11
212.0355339059327378
 21
81.2512626584708642
 31
0.0
  0
LINE
  5
E9
100
AcDbEntity
100
AcDbLine
  8
bdf
 62
256
370
-1
  6
ByLayer
 10
212.0355339059327378
 20
81.2512626584708642
 30
0.0
 11
208.5
 21
77.715728752538098
 31
0.0
  0
LINE
  5
EA
100
AcDbEntity
100
AcDbLine
  8
bdf
 62
256
370
-1
  6
ByLayer
 10
208.5
 20
116.0
 30
0.0
 11
208.5
 21
106.0
 31
0.0
  0
LINE
  5
EB
100
AcDbEntity
100
AcDbLine
  8
bdf
 62
256
370
-1
  6
ByLayer
 10
208.5
 20
77.715728752538098
 30
0.0
 11
212.0355339059327378
 21
74.1801948466053318
 31
0.0
  0
LINE
  5
EC
100
AcDbEntity
100
AcDbLine
  8
bdf
 62
256
370
-1
  6
ByLayer
 10
212.0355339059327378
 20
74.1801948466053318
 30
0.0
 11
208.5
 21
70.6446609406726225
 31
0.0
  0
LINE
  5
ED
100
AcDbEntity
100
AcDbLine
  8
bdf
 62
256
370
-1
  6
ByLayer
 10
208.5
 20
70.6446609406726225
 30
0.0
 11
212.0355339059327378
 21
67.1091270347399131
 31
0.0
  0
LINE
  5
EE
100
AcDbEntity
100
AcDbLine
  8
bdf
 62
256
370
-1
  6
ByLayer
 10
212.0355339059327378
 20
67.1091270347399131
 30
0.0
 11
208.5
 21
63.573593128807147
 31
0.0
  0
LINE
  5
EF
100
AcDbEntity
100
AcDbLine
  8
bdf
 62
256
370
-1
  6
ByLayer
 10
208.5
 20
63.573593128807147
 30
0.0
 11
212.0355339059327378
 21
60.0380592228743808
 31
0.0
  0
LINE
  5
F0
100
AcDbEntity
100
AcDbLine
  8
bdf
 62
256
370
-1
  6
ByLayer
 10
212.0355339059327378
 20
60.0380592228743808
 30
0.0
 11
208.5
 21
56.5025253169416715
 31
0.0
  0
LINE
  5
F1
100
AcDbEntity
100
AcDbLine
  8
bdf
 62
256
370
-1
  6
ByLayer
 10
208.5
 20
56.5025253169416715
 30
0.0
 11
212.0355339059327378
 21
52.9669914110089337
 31
0.0
  0
LINE
  5
F2
100
AcDbEntity
100
AcDbLine
  8
bdf
 62
256
370
-1
  6
ByLayer
 10
212.0355339059327378
 20
52.9669914110089337
 30
0.0
 11
208.5
 21
49.431457505076196
 31
0.0
  0
LINE
  5
F3
100
AcDbEntity
100
AcDbLine
  8
bdf
 62
256
370
-1
  6
ByLayer
 10
188.5
 20
121.0
 30
0.0
 11
203.5
 21
121.0
 31
0.0
  0
LINE
  5
F4
100
AcDbEntity
100
AcDbLine
  8
bdf
 62
256
370
-1
  6
ByLayer
 10
220.0
 20
0.0
 30
0.0
 11
224.3749999999999716
 21
0.0
 31
0.0
  0
LINE
  5
F5
100
AcDbEntity
100
AcDbLine
  8
bdf
 62
256
370
-1
  6
ByLayer
 10
244.3749999999999716
 20
10.0
 30
0.0
 11
244.3749999999999716
 21
0.0
 31
0.0
  0
ARC
  5
F6
100
AcDbEntity
  8
bdf
 62
256
370
-1
  6
ByLayer
100
AcDbCircle
 10
234.3749999999999716
 20
10.0
 30
0.0
 40
10.0
100
AcDbArc
 50
0.0
 51
90.0
  0
LINE
  5
F7
100
AcDbEntity
100
AcDbLine
  8
bdf
 62
256
370
-1
  6
ByLayer
 10
228.5
 20
20.0
 30
0.0
 11
234.3749999999999716
 21
20.0
 31
0.0
  0
LINE
  5
F8
100
AcDbEntity
100
AcDbLine
  8
bdf
 62
256
370
-1
  6
ByLayer
 10
183.5
 20
0.0
 30
0.0
 11
200.0
 21
0.0
 31
0.0
  0
LINE
  5
F9
100
AcDbEntity
100
AcDbLine
  8
bdf
 62
256
370
-1
  6
ByLayer
 10
183.5
 20
103.5
 30
0.0
 11
183.5
 21
0.0
 31
0.0
  0
ARC
  5
FA
100
AcDbEntity
  8
bdf
 62
256
370
-1
  6
ByLayer
100
AcDbCircle
 10
228.5
 20
40.0
 30
0.0
 40
20.0
100
AcDbArc
 50
180.0
 51
270.0
  0
LINE
  5
FB
100
AcDbEntity
100
AcDbLine
  8
bdf
 62
256
370
-1
  6
ByLayer
 10
208.5
 20
49.431457505076196
 30
0.0
 11
208.5
 21
40.0
 31
0.0
  0
MTEXT
  5
FC
100
AcDbEntity
100
AcDbMText
  8
bdf
 62
256
370
-1
  6
ByLayer
 10
218.5
 20
16.0
 30
0.0
 40
2.0
 41
100.0
 71
5
 72
2
  1
Big\~Dino\~Front
  7
normal
 50
0.0
 73
0
 44
1.0
  0
LINE
  5
FD
100
AcDbEntity
100
AcDbLine
  8
bdf
 62
256
370
-1
  6
ByLayer
 10
232.8749999999999716
 20
0.0
 30
0.0
 11
232.8749999999999716
 21
8.0
 31
0.0
  0
LINE
  5
FE
100
AcDbEntity
100
AcDbLine
  8
bdf
 62
256
370
-1
  6
ByLayer
 10
235.8749999999999716
 20
8.0
 30
0.0
 11
235.8749999999999716
 21
0.0
 31
0.0
  0
LINE
  5
FF
100
AcDbEntity
100
AcDbLine
  8
bdf
 62
256
370
-1
  6
ByLayer
 10
235.8749999999999716
 20
8.0
 30
0.0
 11
237.1749999999999545
 21
8.0
 31
0.0
  0
LINE
  5
100
100
AcDbEntity
100
AcDbLine
  8
bdf
 62
256
370
-1
  6
ByLayer
 10
231.5749999999999886
 20
8.0
 30
0.0
 11
232.8749999999999716
 21
8.0
 31
0.0
  0
LINE
  5
101
100
AcDbEntity
100
AcDbLine
  8
bdf
 62
256
370
-1
  6
ByLayer
 10
235.8749999999999716
 20
0.0
 30
0.0
 11
239.3749999999999716
 21
0.0
 31
0.0
  0
LINE
  5
102
100
AcDbEntity
100
AcDbLine
  8
bdf
 62
256
370
-1
  6
ByLayer
 10
239.3749999999999716
 20
0.0
 30
0.0
 11
239.3749999999999716
 21
-4.5
 31
0.0
  0
LINE
  5
103
100
AcDbEntity
100
AcDbLine
  8
bdf
 62
256
370
-1
  6
ByLayer
 10
239.3749999999999716
 20
-4.5
 30
0.0
 11
244.3749999999999716
 21
-4.5
 31
0.0
  0
LINE
  5
104
100
AcDbEntity
100
AcDbLine
  8
bdf
 62
256
370
-1
  6
ByLayer
 10
244.3749999999999716
 20
0.0
 30
0.0
 11
244.3754751072897307
 21
-4.5
 31
0.0
  0
LINE
  5
105
100
AcDbEntity
100
AcDbLine
  8
bdf
 62
256
370
-1
  6
ByLayer
 10
224.3749999999999716
 20
-4.5
 30
0.0
 11
229.3749999999999716
 21
-4.5
 31
0.0
  0
LINE
  5
106
100
AcDbEntity
100
AcDbLine
  8
bdf
 62
256
370
-1
  6
ByLayer
 10
229.3749999999999716
 20
0.0
 30
0.0
 11
229.3749999999999716
 21
-4.5
 31
0.0
  0
LINE
  5
107
100
AcDbEntity
100
AcDbLine
  8
bdf
 62
256
370
-1
  6
ByLayer
 10
224.3749999999999716
 20
-4.5
 30
0.0
 11
224.3749999999999716
 21
0.0
 31
0.0
  0
LINE
  5
108
100
AcDbEntity
100
AcDbLine
  8
bdf
 62
256
370
-1
  6
ByLayer
 10
232.8749999999999716
 20
0.0
 30
0.0
 11
229.3749999999999716
 21
0.0
 31
0.0
  0
LINE
  5
109
100
AcDbEntity
100
AcDbLine
  8
bdf
 62
256
370
-1
  6
ByLayer
 10
231.5749999999999886
 20
10.0999999999999943
 30
0.0
 11
231.5749999999999886
 21
8.0
 31
0.0
  0
LINE
  5
10A
100
AcDbEntity
100
AcDbLine
  8
bdf
 62
256
370
-1
  6
ByLayer
 10
232.8749999999999716
 20
10.0999999999999943
 30
0.0
 11
232.8749999999999716
 21
12.0
 31
0.0
  0
LINE
  5
10B
100
AcDbEntity
100
AcDbLine
  8
bdf
 62
256
370
-1
  6
ByLayer
 10
232.8749999999999716
 20
10.0999999999999943
 30
0.0
 11
231.5749999999999886
 21
10.0999999999999943
 31
0.0
  0
LINE
  5
10C
100
AcDbEntity
100
AcDbLine
  8
bdf
 62
256
370
-1
  6
ByLayer
 10
235.8749999999999716
 20
12.0
 30
0.0
 11
235.8749999999999716
 21
10.0999999999999943
 31
0.0
  0
LINE
  5
10D
100
AcDbEntity
100
AcDbLine
  8
bdf
 62
256
370
-1
  6
ByLayer
 10
237.1749999999999545
 20
8.0
 30
0.0
 11
237.1749999999999545
 21
10.0999999999999943
 31
0.0
  0
LINE
  5
10E
100
AcDbEntity
100
AcDbLine
  8
bdf
 62
256
370
-1
  6
ByLayer
 10
237.1749999999999545
 20
10.0999999999999943
 30
0.0
 11
235.8749999999999716
 21
10.0999999999999943
 31
0.0
  0
LINE
  5
10F
100
AcDbEntity
100
AcDbLine
  8
bdf
 62
256
370
-1
  6
ByLayer
 10
232.8749999999999716
 20
12.0
 30
0.0
 11
235.8749999999999716
 21
12.0
 31
0.0
  0
LINE
  5
110
100
AcDbEntity
100
AcDbLine
  8
bdf
 62
256
370
-1
  6
ByLayer
 10
208.5
 20
0.0
 30
0.0
 11
208.5
 21
8.0
 31
0.0
  0
LINE
  5
111
100
AcDbEntity
100
AcDbLine
  8
bdf
 62
256
370
-1
  6
ByLayer
 10
211.5
 20
8.0
 30
0.0
 11
211.5
 21
0.0
 31
0.0
  0
LINE
  5
112
100
AcDbEntity
100
AcDbLine
  8
bdf
 62
256
370
-1
  6
ByLayer
 10
211.5
 20
8.0
 30
0.0
 11
212.8000000000000114
 21
8.0
 31
0.0
  0
LINE
  5
113
100
AcDbEntity
100
AcDbLine
  8
bdf
 62
256
370
-1
  6
ByLayer
 10
207.1999999999999886
 20
8.0
 30
0.0
 11
208.5
 21
8.0
 31
0.0
  0
LINE
  5
114
100
AcDbEntity
100
AcDbLine
  8
bdf
 62
256
370
-1
  6
ByLayer
 10
211.5
 20
0.0
 30
0.0
 11
215.0
 21
0.0
 31
0.0
  0
LINE
  5
115
100
AcDbEntity
100
AcDbLine
  8
bdf
 62
256
370
-1
  6
ByLayer
 10
215.0
 20
0.0
 30
0.0
 11
215.0
 21
-4.5
 31
0.0
  0
LINE
  5
116
100
AcDbEntity
100
AcDbLine
  8
bdf
 62
256
370
-1
  6
ByLayer
 10
215.0
 20
-4.5
 30
0.0
 11
220.0
 21
-4.5
 31
0.0
  0
LINE
  5
117
100
AcDbEntity
100
AcDbLine
  8
bdf
 62
256
370
-1
  6
ByLayer
 10
220.0
 20
0.0
 30
0.0
 11
220.0004751072897307
 21
-4.5
 31
0.0
  0
LINE
  5
118
100
AcDbEntity
100
AcDbLine
  8
bdf
 62
256
370
-1
  6
ByLayer
 10
200.0
 20
-4.5
 30
0.0
 11
205.0
 21
-4.5
 31
0.0
  0
LINE
  5
119
100
AcDbEntity
100
AcDbLine
  8
bdf
 62
256
370
-1
  6
ByLayer
 10
205.0
 20
0.0
 30
0.0
 11
205.0
 21
-4.5
 31
0.0
  0
LINE
  5
11A
100
AcDbEntity
100
AcDbLine
  8
bdf
 62
256
370
-1
  6
ByLayer
 10
200.0
 20
-4.5
 30
0.0
 11
200.0
 21
0.0
 31
0.0
  0
LINE
  5
11B
100
AcDbEntity
100
AcDbLine
  8
bdf
 62
256
370
-1
  6
ByLayer
 10
208.5
 20
0.0
 30
0.0
 11
205.0
 21
0.0
 31
0.0
  0
LINE
  5
11C
100
AcDbEntity
100
AcDbLine
  8
bdf
 62
256
370
-1
  6
ByLayer
 10
207.1999999999999886
 20
10.0999999999999943
 30
0.0
 11
207.1999999999999886
 21
8.0
 31
0.0
  0
LINE
  5
11D
100
AcDbEntity
100
AcDbLine
  8
bdf
 62
256
370
-1
  6
ByLayer
 10
208.5
 20
10.0999999999999943
 30
0.0
 11
208.5
 21
12.0
 31
0.0
  0
LINE
  5
11E
100
AcDbEntity
100
AcDbLine
  8
bdf
 62
256
370
-1
  6
ByLayer
 10
208.5
 20
10.0999999999999943
 30
0.0
 11
207.1999999999999886
 21
10.0999999999999943
 31
0.0
  0
LINE
  5
11F
100
AcDbEntity
100
AcDbLine
  8
bdf
 62
256
370
-1
  6
ByLayer
 10
211.5
 20
12.0
 30
0.0
 11
211.5
 21
10.0999999999999943
 31
0.0
  0
LINE
  5
120
100
AcDbEntity
100
AcDbLine
  8
bdf
 62
256
370
-1
  6
ByLayer
 10
212.8000000000000114
 20
8.0
 30
0.0
 11
212.8000000000000114
 21
10.0999999999999943
 31
0.0
  0
LINE
  5
121
100
AcDbEntity
100
AcDbLine
  8
bdf
 62
256
370
-1
  6
ByLayer
 10
212.8000000000000114
 20
10.0999999999999943
 30
0.0
 11
211.5
 21
10.0999999999999943
 31
0.0
  0
LINE
  5
122
100
AcDbEntity
100
AcDbLine
  8
bdf
 62
256
370
-1
  6
ByLayer
 10
208.5
 20
12.0
 30
0.0
 11
211.5
 21
12.0
 31
0.0
  0
LINE
  5
123
100
AcDbEntity
100
AcDbLine
  8
bdf
 62
256
370
-1
  6
ByLayer
 10
195.75
 20
21.0
 30
0.0
 11
191.2500879571976213
 21
21.0
 31
0.0
  0
LINE
  5
124
100
AcDbEntity
100
AcDbLine
  8
bdf
 62
256
370
-1
  6
ByLayer
 10
195.75
 20
41.0
 30
0.0
 11
191.2497736364845196
 21
40.9972040489664664
 31
0.0
  0
CIRCLE
  5
125
100
AcDbEntity
100
AcDbCircle
  8
bdf
 62
256
370
-1
  6
ByLayer
 10
193.5
 20
31.0
 30
0.0
 40
1.5
  0
LINE
  5
126
100
AcDbEntity
100
AcDbLine
  8
bdf
 62
256
370
-1
  6
ByLayer
 10
195.7499560214012035
 20
36.0
 30
0.0
 11
195.75
 21
41.0
 31
0.0
  0
LINE
  5
127
100
AcDbEntity
100
AcDbLine
  8
bdf
 62
256
370
-1
  6
ByLayer
 10
191.2497736364845196
 20
40.9972040489664664
 30
0.0
 11
191.2499560214012035
 21
36.0
 31
0.0
  0
LINE
  5
128
100
AcDbEntity
100
AcDbLine
  8
bdf
 62
256
370
-1
  6
ByLayer
 10
195.7499560214012035
 20
36.0
 30
0.0
 11
191.2499560214012035
 21
36.0
 31
0.0
  0
LINE
  5
129
100
AcDbEntity
100
AcDbLine
  8
bdf
 62
256
370
-1
  6
ByLayer
 10
195.75
 20
21.0
 30
0.0
 11
195.7499560214012035
 21
26.0
 31
0.0
  0
LINE
  5
12A
100
AcDbEntity
100
AcDbLine
  8
bdf
 62
256
370
-1
  6
ByLayer
 10
191.2499560214012035
 20
26.0
 30
0.0
 11
191.2500879571976213
 21
21.0
 31
0.0
  0
LINE
  5
12B
100
AcDbEntity
100
AcDbLine
  8
bdf
 62
256
370
-1
  6
ByLayer
 10
195.7499560214012035
 20
26.0
 30
0.0
 11
191.2499560214012035
 21
26.0
 31
0.0
  0
ARC
  5
12C
100
AcDbEntity
  8
bdb
 62
256
370
-1
  6
ByLayer
100
AcDbCircle
 10
-88.4999999999999432
 20
116.0
 30
0.0
 40
5.0
100
AcDbArc
 50
360.0
 51
89.9999999999999858
  0
LINE
  5
12D
100
AcDbEntity
100
AcDbLine
  8
bdb
 62
256
370
-1
  6
ByLayer
 10
-83.4999999999999716
 20
116.0
 30
0.0
 11
-83.5000000000000568
 21
109.5
 31
0.0
  0
CIRCLE
  5
12E
100
AcDbEntity
100
AcDbCircle
  8
bdb
 62
256
370
-1
  6
ByLayer
 10
-90.6499999999999773
 20
115.9000000000000341
 30
0.0
 40
1.45
  0
CIRCLE
  5
12F
100
AcDbEntity
100
AcDbCircle
  8
bdb
 62
256
370
-1
  6
ByLayer
 10
-90.6500000000000057
 20
51.5
 30
0.0
 40
1.45
  0
ARC
  5
130
100
AcDbEntity
  8
bdb
 62
256
370
-1
  6
ByLayer
100
AcDbCircle
 10
-103.4999999999999147
 20
116.0000000000000568
 30
0.0
 40
5.0
100
AcDbArc
 50
89.9999999999999858
 51
180.0
  0
LINE
  5
131
100
AcDbEntity
100
AcDbLine
  8
bdb
 62
256
370
-1
  6
ByLayer
 10
-108.4999999999998863
 20
106.0000000000001137
 30
0.0
 11
-112.0355339059326525
 21
102.4644660940673475
 31
0.0
  0
LINE
  5
132
100
AcDbEntity
100
AcDbLine
  8
bdb
 62
256
370
-1
  6
ByLayer
 10
-112.0355339059326525
 20
102.4644660940673475
 30
0.0
 11
-108.5
 21
98.9289321881345245
 31
0.0
  0
LINE
  5
133
100
AcDbEntity
100
AcDbLine
  8
bdb
 62
256
370
-1
  6
ByLayer
 10
-108.5
 20
98.9289321881345245
 30
0.0
 11
-112.0355339059327378
 21
95.3933982822018152
 31
0.0
  0
LINE
  5
134
100
AcDbEntity
100
AcDbLine
  8
bdb
 62
256
370
-1
  6
ByLayer
 10
-112.0355339059327378
 20
95.3933982822018152
 30
0.0
 11
-108.5
 21
91.857864376269049
 31
0.0
  0
LINE
  5
135
100
AcDbEntity
100
AcDbLine
  8
bdb
 62
256
370
-1
  6
ByLayer
 10
-108.5
 20
91.857864376269049
 30
0.0
 11
-112.0355339059326525
 21
88.3223304703363965
 31
0.0
  0
LINE
  5
136
100
AcDbEntity
100
AcDbLine
  8
bdb
 62
256
370
-1
  6
ByLayer
 10
-112.0355339059326525
 20
88.3223304703363965
 30
0.0
 11
-108.4999999999999716
 21
84.7867965644036303
 31
0.0
  0
LINE
  5
137
100
AcDbEntity
100
AcDbLine
  8
bdb
 62
256
370
-1
  6
ByLayer
 10
-108.4999999999999716
 20
84.7867965644036303
 30
0.0
 11
-112.0355339059327093
 21
81.2512626584708642
 31
0.0
  0
LINE
  5
138
100
AcDbEntity
100
AcDbLine
  8
bdb
 62
256
370
-1
  6
ByLayer
 10
-112.0355339059327093
 20
81.2512626584708642
 30
0.0
 11
-108.4999999999999432
 21
77.7157287525382117
 31
0.0
  0
LINE
  5
139
100
AcDbEntity
100
AcDbLine
  8
bdb
 62
256
370
-1
  6
ByLayer
 10
-108.4999999999998863
 20
116.0000000000000568
 30
0.0
 11
-108.4999999999998863
 21
106.0000000000001137
 31
0.0
  0
LINE
  5
13A
100
AcDbEntity
100
AcDbLine
  8
bdb
 62
256
370
-1
  6
ByLayer
 10
-108.4999999999999432
 20
77.7157287525382117
 30
0.0
 11
-112.0355339059327093
 21
74.1801948466054455
 31
0.0
  0
LINE
  5
13B
100
AcDbEntity
100
AcDbLine
  8
bdb
 62
256
370
-1
  6
ByLayer
 10
-112.0355339059327093
 20
74.1801948466054455
 30
0.0
 11
-108.5000000000000284
 21
70.6446609406725656
 31
0.0
  0
LINE
  5
13C
100
AcDbEntity
100
AcDbLine
  8
bdb
 62
256
370
-1
  6
ByLayer
 10
-108.5000000000000284
 20
70.6446609406725656
 30
0.0
 11
-112.0355339059327378
 21
67.1091270347399131
 31
0.0
  0
LINE
  5
13D
100
AcDbEntity
100
AcDbLine
  8
bdb
 62
256
370
-1
  6
ByLayer
 10
-112.0355339059327378
 20
67.1091270347399131
 30
0.0
 11
-108.4999999999999716
 21
63.573593128807147
 31
0.0
  0
LINE
  5
13E
100
AcDbEntity
100
AcDbLine
  8
bdb
 62
256
370
-1
  6
ByLayer
 10
-108.4999999999999716
 20
63.573593128807147
 30
0.0
 11
-112.0355339059327093
 21
60.0380592228744945
 31
0.0
  0
LINE
  5
13F
100
AcDbEntity
100
AcDbLine
  8
bdb
 62
256
370
-1
  6
ByLayer
 10
-112.0355339059327093
 20
60.0380592228744945
 30
0.0
 11
-108.5
 21
56.5025253169417283
 31
0.0
  0
LINE
  5
140
100
AcDbEntity
100
AcDbLine
  8
bdb
 62
256
370
-1
  6
ByLayer
 10
-108.5
 20
56.5025253169417283
 30
0.0
 11
-112.0355339059327093
 21
52.9669914110090758
 31
0.0
  0
LINE
  5
141
100
AcDbEntity
100
AcDbLine
  8
bdb
 62
256
370
-1
  6
ByLayer
 10
-112.0355339059327093
 20
52.9669914110090758
 30
0.0
 11
-108.5
 21
49.4314575050763096
 31
0.0
  0
LINE
  5
142
100
AcDbEntity
100
AcDbLine
  8
bdb
 62
256
370
-1
  6
ByLayer
 10
-88.5000000000000568
 20
121.0
 30
0.0
 11
-103.4999999999999147
 21
121.0
 31
0.0
  0
ARC
  5
143
100
AcDbEntity
  8
bdb
 62
256
370
-1
  6
ByLayer
100
AcDbCircle
 10
-83.4999999999999147
 20
106.5
 30
0.0
 40
3.0
100
AcDbArc
 50
89.9999999999999858
 51
269.9999999999977831
  0
LINE
  5
144
100
AcDbEntity
100
AcDbLine
  8
bdb
 62
256
370
-1
  6
ByLayer
 10
-120.0
 20
0.0
 30
0.0
 11
-124.375
 21
0.0000000000000284
 31
0.0
  0
LINE
  5
145
100
AcDbEntity
100
AcDbLine
  8
bdb
 62
256
370
-1
  6
ByLayer
 10
-144.375
 20
10.0
 30
0.0
 11
-144.375
 21
0.0
 31
0.0
  0
ARC
  5
146
100
AcDbEntity
  8
bdb
 62
256
370
-1
  6
ByLayer
100
AcDbCircle
 10
-134.375
 20
10.0
 30
0.0
 40
10.0
100
AcDbArc
 50
89.9999999999999574
 51
180.0
  0
LINE
  5
147
100
AcDbEntity
100
AcDbLine
  8
bdb
 62
256
370
-1
  6
ByLayer
 10
-128.5
 20
20.0000000000000568
 30
0.0
 11
-134.3749999999999716
 21
20.0000000000000284
 31
0.0
  0
LINE
  5
148
100
AcDbEntity
100
AcDbLine
  8
bdb
 62
256
370
-1
  6
ByLayer
 10
-83.5000000000000284
 20
103.5
 30
0.0
 11
-83.5000000000000284
 21
0.0
 31
0.0
  0
LINE
  5
149
100
AcDbEntity
100
AcDbLine
  8
bdb
 62
256
370
-1
  6
ByLayer
 10
-83.5000000000000284
 20
0.0
 30
0.0
 11
-100.0
 21
0.0
 31
0.0
  0
LINE
  5
14A
100
AcDbEntity
100
AcDbLine
  8
bdb
 62
256
370
-1
  6
ByLayer
 10
-108.5
 20
49.4314575050763096
 30
0.0
 11
-108.5
 21
40.0000000000000568
 31
0.0
  0
ARC
  5
14B
100
AcDbEntity
  8
bdb
 62
256
370
-1
  6
ByLayer
100
AcDbCircle
 10
-128.5
 20
40.0000000000000568
 30
0.0
 40
20.0
100
AcDbArc
 50
270.0
 51
0.0
  0
MTEXT
  5
14C
100
AcDbEntity
100
AcDbMText
  8
bdb
 62
256
370
-1
  6
ByLayer
 10
-120.6499999999999773
 20
16.0
 30
0.0
 40
2.0
 41
100.0
 71
5
 72
2
  1
Big\~Dino\~Back
  7
normal
 50
0.0
 73
0
 44
1.0
  0
LINE
  5
14D
100
AcDbEntity
100
AcDbLine
  8
bdb
 62
256
370
-1
  6
ByLayer
 10
-95.75
 20
10.0
 30
0.0
 11
-91.2500879571976213
 21
10.0
 31
0.0
  0
LINE
  5
14E
100
AcDbEntity
100
AcDbLine
  8
bdb
 62
256
370
-1
  6
ByLayer
 10
-95.75
 20
30.0
 30
0.0
 11
-91.2497736364844911
 21
29.997204048966438
 31
0.0
  0
CIRCLE
  5
14F
100
AcDbEntity
100
AcDbCircle
  8
bdb
 62
256
370
-1
  6
ByLayer
 10
-93.5
 20
20.0
 30
0.0
 40
1.5
  0
LINE
  5
150
100
AcDbEntity
100
AcDbLine
  8
bdb
 62
256
370
-1
  6
ByLayer
 10
-95.7499560214012035
 20
25.0
 30
0.0
 11
-95.75
 21
30.0
 31
0.0
  0
LINE
  5
151
100
AcDbEntity
100
AcDbLine
  8
bdb
 62
256
370
-1
  6
ByLayer
 10
-91.2497736364844911
 20
29.997204048966438
 30
0.0
 11
-91.2499560214012035
 21
25.0
 31
0.0
  0
LINE
  5
152
100
AcDbEntity
100
AcDbLine
  8
bdb
 62
256
370
-1
  6
ByLayer
 10
-95.7499560214012035
 20
25.0
 30
0.0
 11
-91.2499560214012035
 21
25.0
 31
0.0
  0
LINE
  5
153
100
AcDbEntity
100
AcDbLine
  8
bdb
 62
256
370
-1
  6
ByLayer
 10
-95.75
 20
10.0
 30
0.0
 11
-95.7499560214012035
 21
15.0
 31
0.0
  0
LINE
  5
154
100
AcDbEntity
100
AcDbLine
  8
bdb
 62
256
370
-1
  6
ByLayer
 10
-91.2499560214012035
 20
15.0
 30
0.0
 11
-91.2500879571976213
 21
10.0
 31
0.0
  0
LINE
  5
155
100
AcDbEntity
100
AcDbLine
  8
bdb
 62
256
370
-1
  6
ByLayer
 10
-95.7499560214012035
 20
15.0
 30
0.0
 11
-91.2499560214012035
 21
15.0
 31
0.0
  0
LINE
  5
156
100
AcDbEntity
100
AcDbLine
  8
bdb
 62
256
370
-1
  6
ByLayer
 10
-132.875
 20
-0.0000000000000284
 30
0.0
 11
-132.875
 21
8.0
 31
0.0
  0
LINE
  5
157
100
AcDbEntity
100
AcDbLine
  8
bdb
 62
256
370
-1
  6
ByLayer
 10
-135.875
 20
8.0
 30
0.0
 11
-135.875
 21
0.0
 31
0.0
  0
LINE
  5
158
100
AcDbEntity
100
AcDbLine
  8
bdb
 62
256
370
-1
  6
ByLayer
 10
-135.875
 20
8.0
 30
0.0
 11
-137.1750000000000114
 21
8.0
 31
0.0
  0
LINE
  5
159
100
AcDbEntity
100
AcDbLine
  8
bdb
 62
256
370
-1
  6
ByLayer
 10
-131.5749999999999886
 20
7.9999999999999716
 30
0.0
 11
-132.875
 21
8.0
 31
0.0
  0
LINE
  5
15A
100
AcDbEntity
100
AcDbLine
  8
bdb
 62
256
370
-1
  6
ByLayer
 10
-135.875
 20
0.0
 30
0.0
 11
-139.375
 21
0.0
 31
0.0
  0
LINE
  5
15B
100
AcDbEntity
100
AcDbLine
  8
bdb
 62
256
370
-1
  6
ByLayer
 10
-139.375
 20
0.0
 30
0.0
 11
-139.375
 21
-4.5
 31
0.0
  0
LINE
  5
15C
100
AcDbEntity
100
AcDbLine
  8
bdb
 62
256
370
-1
  6
ByLayer
 10
-139.375
 20
-4.5
 30
0.0
 11
-144.375
 21
-4.5000000000000284
 31
0.0
  0
LINE
  5
15D
100
AcDbEntity
100
AcDbLine
  8
bdb
 62
256
370
-1
  6
ByLayer
 10
-144.375
 20
0.0
 30
0.0
 11
-144.3754751072897307
 21
-4.5000000000000284
 31
0.0
  0
LINE
  5
15E
100
AcDbEntity
100
AcDbLine
  8
bdb
 62
256
370
-1
  6
ByLayer
 10
-124.375
 20
-4.5000000000000284
 30
0.0
 11
-129.375
 21
-4.5000000000000284
 31
0.0
  0
LINE
  5
15F
100
AcDbEntity
100
AcDbLine
  8
bdb
 62
256
370
-1
  6
ByLayer
 10
-129.375
 20
-0.0000000000000284
 30
0.0
 11
-129.375
 21
-4.5000000000000284
 31
0.0
  0
LINE
  5
160
100
AcDbEntity
100
AcDbLine
  8
bdb
 62
256
370
-1
  6
ByLayer
 10
-124.375
 20
-4.5000000000000284
 30
0.0
 11
-124.375
 21
-0.0000000000000284
 31
0.0
  0
LINE
  5
161
100
AcDbEntity
100
AcDbLine
  8
bdb
 62
256
370
-1
  6
ByLayer
 10
-132.875
 20
-0.0000000000000284
 30
0.0
 11
-129.375
 21
-0.0000000000000284
 31
0.0
  0
LINE
  5
162
100
AcDbEntity
100
AcDbLine
  8
bdb
 62
256
370
-1
  6
ByLayer
 10
-131.5749999999999886
 20
10.0999999999999943
 30
0.0
 11
-131.5749999999999886
 21
7.9999999999999716
 31
0.0
  0
LINE
  5
163
100
AcDbEntity
100
AcDbLine
  8
bdb
 62
256
370
-1
  6
ByLayer
 10
-132.875
 20
10.0999999999999943
 30
0.0
 11
-132.875
 21
11.9999999999999716
 31
0.0
  0
LINE
  5
164
100
AcDbEntity
100
AcDbLine
  8
bdb
 62
256
370
-1
  6
ByLayer
 10
-132.875
 20
10.0999999999999943
 30
0.0
 11
-131.5749999999999886
 21
10.0999999999999943
 31
0.0
  0
LINE
  5
165
100
AcDbEntity
100
AcDbLine
  8
bdb
 62
256
370
-1
  6
ByLayer
 10
-135.875
 20
11.9999999999999716
 30
0.0
 11
-135.875
 21
10.0999999999999943
 31
0.0
  0
LINE
  5
166
100
AcDbEntity
100
AcDbLine
  8
bdb
 62
256
370
-1
  6
ByLayer
 10
-137.1750000000000114
 20
8.0
 30
0.0
 11
-137.1750000000000114
 21
10.0999999999999943
 31
0.0
  0
LINE
  5
167
100
AcDbEntity
100
AcDbLine
  8
bdb
 62
256
370
-1
  6
ByLayer
 10
-137.1750000000000114
 20
10.0999999999999943
 30
0.0
 11
-135.875
 21
10.0999999999999943
 31
0.0
  0
LINE
  5
168
100
AcDbEntity
100
AcDbLine
  8
bdb
 62
256
370
-1
  6
ByLayer
 10
-132.875
 20
12.0
 30
0.0
 11
-135.875
 21
12.0
 31
0.0
  0
LINE
  5
169
100
AcDbEntity
100
AcDbLine
  8
bdb
 62
256
370
-1
  6
ByLayer
 10
-108.5
 20
0.0
 30
0.0
 11
-108.5
 21
8.0
 31
0.0
  0
LINE
  5
16A
100
AcDbEntity
100
AcDbLine
  8
bdb
 62
256
370
-1
  6
ByLayer
 10
-111.5
 20
8.0
 30
0.0
 11
-111.5
 21
0.0
 31
0.0
  0
LINE
  5
16B
100
AcDbEntity
100
AcDbLine
  8
bdb
 62
256
370
-1
  6
ByLayer
 10
-111.5
 20
8.0
 30
0.0
 11
-112.8000000000000114
 21
8.0
 31
0.0
  0
LINE
  5
16C
100
AcDbEntity
100
AcDbLine
  8
bdb
 62
256
370
-1
  6
ByLayer
 10
-107.1999999999999886
 20
8.0
 30
0.0
 11
-108.5
 21
8.0
 31
0.0
  0
LINE
  5
16D
100
AcDbEntity
100
AcDbLine
  8
bdb
 62
256
370
-1
  6
ByLayer
 10
-111.5
 20
0.0
 30
0.0
 11
-115.0
 21
0.0
 31
0.0
  0
LINE
  5
16E
100
AcDbEntity
100
AcDbLine
  8
bdb
 62
256
370
-1
  6
ByLayer
 10
-115.0
 20
0.0
 30
0.0
 11
-115.0
 21
-4.5
 31
0.0
  0
LINE
  5
16F
100
AcDbEntity
100
AcDbLine
  8
bdb
 62
256
370
-1
  6
ByLayer
 10
-115.0
 20
-4.5
 30
0.0
 11
-120.0
 21
-4.5
 31
0.0
  0
LINE
  5
170
100
AcDbEntity
100
AcDbLine
  8
bdb
 62
256
370
-1
  6
ByLayer
 10
-120.0
 20
0.0
 30
0.0
 11
-120.0004751072897307
 21
-4.5
 31
0.0
  0
LINE
  5
171
100
AcDbEntity
100
AcDbLine
  8
bdb
 62
256
370
-1
  6
ByLayer
 10
-100.0
 20
-4.5
 30
0.0
 11
-105.0
 21
-4.5
 31
0.0
  0
LINE
  5
172
100
AcDbEntity
100
AcDbLine
  8
bdb
 62
256
370
-1
  6
ByLayer
 10
-105.0
 20
0.0
 30
0.0
 11
-105.0
 21
-4.5
 31
0.0
  0
LINE
  5
173
100
AcDbEntity
100
AcDbLine
  8
bdb
 62
256
370
-1
  6
ByLayer
 10
-100.0
 20
-4.5
 30
0.0
 11
-100.0
 21
0.0
 31
0.0
  0
LINE
  5
174
100
AcDbEntity
100
AcDbLine
  8
bdb
 62
256
370
-1
  6
ByLayer
 10
-108.5
 20
0.0
 30
0.0
 11
-105.0
 21
0.0
 31
0.0
  0
LINE
  5
175
100
AcDbEntity
100
AcDbLine
  8
bdb
 62
256
370
-1
  6
ByLayer
 10
-107.1999999999999886
 20
10.0999999999999943
 30
0.0
 11
-107.1999999999999886
 21
8.0
 31
0.0
  0
LINE
  5
176
100
AcDbEntity
100
AcDbLine
  8
bdb
 62
256
370
-1
  6
ByLayer
 10
-108.5
 20
10.0999999999999943
 30
0.0
 11
-108.5
 21
12.0
 31
0.0
  0
LINE
  5
177
100
AcDbEntity
100
AcDbLine
  8
bdb
 62
256
370
-1
  6
ByLayer
 10
-108.5
 20
10.0999999999999943
 30
0.0
 11
-107.1999999999999886
 21
10.0999999999999943
 31
0.0
  0
LINE
  5
178
100
AcDbEntity
100
AcDbLine
  8
bdb
 62
256
370
-1
  6
ByLayer
 10
-111.5
 20
12.0
 30
0.0
 11
-111.5
 21
10.0999999999999943
 31
0.0
  0
LINE
  5
179
100
AcDbEntity
100
AcDbLine
  8
bdb
 62
256
370
-1
  6
ByLayer
 10
-112.8000000000000114
 20
8.0
 30
0.0
 11
-112.8000000000000114
 21
10.0999999999999943
 31
0.0
  0
LINE
  5
17A
100
AcDbEntity
100
AcDbLine
  8
bdb
 62
256
370
-1
  6
ByLayer
 10
-112.8000000000000114
 20
10.0999999999999943
 30
0.0
 11
-111.5
 21
10.0999999999999943
 31
0.0
  0
LINE
  5
17B
100
AcDbEntity
100
AcDbLine
  8
bdb
 62
256
370
-1
  6
ByLayer
 10
-108.5
 20
12.0
 30
0.0
 11
-111.5
 21
12.0
 31
0.0
  0
DIMENSION
  5
17C
100
AcDbEntity
  8
dim
 62
2
370
-1
  6
ByLayer
100
AcDbDimension
 10
-60.9870353311555107
 20
-124.4999120428022934
 30
0.0
 11
-62.8620353311555107
 21
-112.2497988610445816
 31
0.0
 70
1
 71
5
 72
1
 41
1.0
 42
0.0
  1

  3
Standard
100
AcDbAlignedDimension
 13
-44.3722040489663954
 23
-99.9996856792868698
 33
0.0
 14
-44.3722040489663954
 24
-124.4999120428022934
 34
0.0
  0
DIMENSION
  5
17D
100
AcDbEntity
  8
dim
 62
2
370
-1
  6
ByLayer
100
AcDbDimension
 10
29.9999999999999964
 20
-114.4999120428023929
 30
0.0
 11
28.1249999999999964
 21
-107.2499560214012035
 31
0.0
 70
0
 71
5
 72
1
 41
1.0
 42
0.0
  1

  3
Standard
100
AcDbAlignedDimension
 13
0.0
 23
-100.0
 33
0.0
 14
6.4998868182423095
 24
-114.4999120428023929
 34
0.0
 50
90.0
100
AcDbRotatedDimension
  0
DIMENSION
  5
17E
100
AcDbEntity
  8
dim
 62
2
370
-1
  6
ByLayer
100
AcDbDimension
 10
-60.0
 20
30.0000000000000071
 30
0.0
 11
-61.875
 21
10.0000000000000018
 31
0.0
 70
0
 71
5
 72
0
 41
1.0
 42
0.0
  1

  3
Standard
100
AcDbAlignedDimension
 13
-40.0
 23
-10.0
 33
0.0
 14
-10.0
 24
30.0
 34
0.0
 50
90.0
100
AcDbRotatedDimension
  0
DIMENSION
  5
17F
100
AcDbEntity
  8
dim
 62
2
370
-1
  6
ByLayer
100
AcDbDimension
 10
-10.0
 20
38.0
 30
0.0
 11
-27.0
 21
39.875
 31
0.0
 70
0
 71
5
 72
0
 41
1.0
 42
0.0
  1

  3
Standard
100
AcDbAlignedDimension
 13
-44.0
 23
15.0
 33
0.0
 14
-10.0
 24
30.0
 34
0.0
 50
0.0
100
AcDbRotatedDimension
  0
DIMENSION
  5
180
100
AcDbEntity
  8
dim
 62
2
370
-1
  6
ByLayer
100
AcDbDimension
 10
153.0
 20
-134.0
 30
0.0
 11
151.125
 21
-114.5
 31
0.0
 70
0
 71
5
 72
0
 41
1.0
 42
0.0
  1

  3
Standard
100
AcDbAlignedDimension
 13
145.0
 23
-95.0
 33
0.0
 14
145.0
 24
-134.0
 34
0.0
 50
90.0
100
AcDbRotatedDimension
  0
LINE
  5
181
100
AcDbEntity
100
AcDbLine
  8
pl
 62
256
370
-1
  6
ByLayer
 10
16.5000000000000924
 20
-94.9999120428023787
 30
0.0
 11
16.5000000000000497
 21
-133.9999120428024071
 31
0.0
  0
LINE
  5
182
100
AcDbEntity
100
AcDbLine
  8
pl
 62
256
370
-1
  6
ByLayer
 10
4.2498868182423024
 20
-124.4999120428023929
 30
0.0
 11
8.7497988610446811
 21
-124.4999120428023929
 31
0.0
  0
LINE
  5
183
100
AcDbEntity
100
AcDbLine
  8
pl
 62
256
370
-1
  6
ByLayer
 10
4.2498868182423131
 20
-104.4999120428023929
 30
0.0
 11
8.7501131817578006
 21
-104.5027079938359407
 31
0.0
  0
CIRCLE
  5
184
100
AcDbEntity
100
AcDbCircle
  8
pl
 62
256
370
-1
  6
ByLayer
 10
6.4998868182423095
 20
-114.4999120428023929
 30
0.0
 40
1.5
  0
LINE
  5
185
100
AcDbEntity
100
AcDbLine
  8
pl
 62
256
370
-1
  6
ByLayer
 10
4.249930796841122
 20
-109.4999120428023929
 30
0.0
 11
4.2498868182423131
 21
-104.4999120428023929
 31
0.0
  0
LINE
  5
186
100
AcDbEntity
100
AcDbLine
  8
pl
 62
256
370
-1
  6
ByLayer
 10
8.7501131817578006
 20
-104.5027079938359407
 30
0.0
 11
8.7499307968411237
 21
-109.4999120428023929
 31
0.0
  0
LINE
  5
187
100
AcDbEntity
100
AcDbLine
  8
pl
 62
256
370
-1
  6
ByLayer
 10
4.249930796841122
 20
-109.4999120428023929
 30
0.0
 11
8.7499307968411237
 21
-109.4999120428023929
 31
0.0
  0
LINE
  5
188
100
AcDbEntity
100
AcDbLine
  8
pl
 62
256
370
-1
  6
ByLayer
 10
4.2498868182423024
 20
-124.4999120428023929
 30
0.0
 11
4.2499307968411184
 21
-119.4999120428023929
 31
0.0
  0
LINE
  5
189
100
AcDbEntity
100
AcDbLine
  8
pl
 62
256
370
-1
  6
ByLayer
 10
8.7499307968411166
 20
-119.4999120428023929
 30
0.0
 11
8.7497988610446811
 21
-124.4999120428023929
 31
0.0
  0
LINE
  5
18A
100
AcDbEntity
100
AcDbLine
  8
pl
 62
256
370
-1
  6
ByLayer
 10
4.2499307968411184
 20
-119.4999120428023929
 30
0.0
 11
8.7499307968411166
 21
-119.4999120428023929
 31
0.0
  0
LINE
  5
18B
100
AcDbEntity
100
AcDbLine
  8
pl
 62
256
370
-1
  6
ByLayer
 10
-24.3749999999999396
 20
-104.4999120428023787
 30
0.0
 11
-24.3749999999999396
 21
-99.9999999999999858
 31
0.0
  0
CIRCLE
  5
18C
100
AcDbEntity
100
AcDbCircle
  8
pl
 62
256
370
-1
  6
ByLayer
 10
-34.3749999999999432
 20
-102.2499120428023645
 30
0.0
 40
1.5
  0
LINE
  5
18D
100
AcDbEntity
100
AcDbLine
  8
pl
 62
256
370
-1
  6
ByLayer
 10
-24.3749999999999396
 20
-104.4999120428023787
 30
0.0
 11
-29.3749999999999396
 21
-104.4998680642035538
 31
0.0
  0
LINE
  5
18E
100
AcDbEntity
100
AcDbLine
  8
pl
 62
256
370
-1
  6
ByLayer
 10
-29.3749999999999396
 20
-99.9998680642035538
 30
0.0
 11
-24.3749999999999396
 21
-99.9999999999999858
 31
0.0
  0
LINE
  5
18F
100
AcDbEntity
100
AcDbLine
  8
pl
 62
256
370
-1
  6
ByLayer
 10
-29.3749999999999396
 20
-104.4998680642035538
 30
0.0
 11
-29.3749999999999396
 21
-99.9998680642035538
 31
0.0
  0
LINE
  5
190
100
AcDbEntity
100
AcDbLine
  8
pl
 62
256
370
-1
  6
ByLayer
 10
0.0
 20
-104.4999120428023787
 30
0.0
 11
0.0
 21
-100.0
 31
0.0
  0
LINE
  5
191
100
AcDbEntity
100
AcDbLine
  8
pl
 62
256
370
-1
  6
ByLayer
 10
-20.0
 20
-104.4999120428023787
 30
0.0
 11
-19.9972040489664451
 21
-99.999685679286884
 31
0.0
  0
CIRCLE
  5
192
100
AcDbEntity
100
AcDbCircle
  8
pl
 62
256
370
-1
  6
ByLayer
 10
-10.0
 20
-102.2499120428023787
 30
0.0
 40
1.5
  0
LINE
  5
193
100
AcDbEntity
100
AcDbLine
  8
pl
 62
256
370
-1
  6
ByLayer
 10
-15.0
 20
-104.499868064203568
 30
0.0
 11
-20.0
 21
-104.4999120428023787
 31
0.0
  0
LINE
  5
194
100
AcDbEntity
100
AcDbLine
  8
pl
 62
256
370
-1
  6
ByLayer
 10
-19.9972040489664451
 20
-99.999685679286884
 30
0.0
 11
-15.0
 21
-99.999868064203568
 31
0.0
  0
LINE
  5
195
100
AcDbEntity
100
AcDbLine
  8
pl
 62
256
370
-1
  6
ByLayer
 10
-15.0
 20
-104.499868064203568
 30
0.0
 11
-15.0
 21
-99.999868064203568
 31
0.0
  0
LINE
  5
196
100
AcDbEntity
100
AcDbLine
  8
pl
 62
256
370
-1
  6
ByLayer
 10
0.0
 20
-104.4999120428023787
 30
0.0
 11
-5.0
 21
-104.499868064203568
 31
0.0
  0
LINE
  5
197
100
AcDbEntity
100
AcDbLine
  8
pl
 62
256
370
-1
  6
ByLayer
 10
-5.0
 20
-99.999868064203568
 30
0.0
 11
0.0
 21
-100.0
 31
0.0
  0
LINE
  5
198
100
AcDbEntity
100
AcDbLine
  8
pl
 62
256
370
-1
  6
ByLayer
 10
-5.0
 20
-104.499868064203568
 30
0.0
 11
-5.0
 21
-99.999868064203568
 31
0.0
  0
LINE
  5
199
100
AcDbEntity
100
AcDbLine
  8
pl
 62
256
370
-1
  6
ByLayer
 10
-24.3777959510335585
 20
-129.0001384063177738
 30
0.0
 11
-24.3777959510335585
 21
-124.5002263635154094
 31
0.0
  0
CIRCLE
  5
19A
100
AcDbEntity
100
AcDbCircle
  8
pl
 62
256
370
-1
  6
ByLayer
 10
-34.3777959510335478
 20
-126.7501384063177881
 30
0.0
 40
1.5
  0
LINE
  5
19B
100
AcDbEntity
100
AcDbLine
  8
pl
 62
256
370
-1
  6
ByLayer
 10
-24.3777959510335585
 20
-129.0001384063177738
 30
0.0
 11
-29.3777959510335442
 21
-129.0000944277189774
 31
0.0
  0
LINE
  5
19C
100
AcDbEntity
100
AcDbLine
  8
pl
 62
256
370
-1
  6
ByLayer
 10
-29.3777959510335442
 20
-124.5000944277189774
 30
0.0
 11
-24.3777959510335585
 21
-124.5002263635154094
 31
0.0
  0
LINE
  5
19D
100
AcDbEntity
100
AcDbLine
  8
pl
 62
256
370
-1
  6
ByLayer
 10
-29.3777959510335442
 20
-129.0000944277189774
 30
0.0
 11
-29.3777959510335442
 21
-124.5000944277189774
 31
0.0
  0
LINE
  5
19E
100
AcDbEntity
100
AcDbLine
  8
pl
 62
256
370
-1
  6
ByLayer
 10
-0.0027959510334981
 20
-129.0001384063178875
 30
0.0
 11
-0.0027959510334981
 21
-124.5002263635155089
 31
0.0
  0
LINE
  5
19F
100
AcDbEntity
100
AcDbLine
  8
pl
 62
256
370
-1
  6
ByLayer
 10
-20.0027959510334981
 20
-129.0001384063178875
 30
0.0
 11
-19.9999999999999432
 21
-124.4999120428023929
 31
0.0
  0
CIRCLE
  5
1A0
100
AcDbEntity
100
AcDbCircle
  8
pl
 62
256
370
-1
  6
ByLayer
 10
-10.0027959510334981
 20
-126.7501384063178875
 30
0.0
 40
1.5
  0
LINE
  5
1A1
100
AcDbEntity
100
AcDbLine
  8
pl
 62
256
370
-1
  6
ByLayer
 10
-15.0027959510334981
 20
-129.0000944277190911
 30
0.0
 11
-20.0027959510334981
 21
-129.0001384063178875
 31
0.0
  0
LINE
  5
1A2
100
AcDbEntity
100
AcDbLine
  8
pl
 62
256
370
-1
  6
ByLayer
 10
-19.9999999999999432
 20
-124.4999120428023929
 30
0.0
 11
-15.0027959510334981
 21
-124.5000944277190769
 31
0.0
  0
LINE
  5
1A3
100
AcDbEntity
100
AcDbLine
  8
pl
 62
256
370
-1
  6
ByLayer
 10
-15.0027959510334981
 20
-129.0000944277190911
 30
0.0
 11
-15.0027959510334981
 21
-124.5000944277190769
 31
0.0
  0
LINE
  5
1A4
100
AcDbEntity
100
AcDbLine
  8
pl
 62
256
370
-1
  6
ByLayer
 10
-0.0027959510334981
 20
-129.0001384063178875
 30
0.0
 11
-5.0027959510334981
 21
-129.0000944277190911
 31
0.0
  0
LINE
  5
1A5
100
AcDbEntity
100
AcDbLine
  8
pl
 62
256
370
-1
  6
ByLayer
 10
-5.0027959510334981
 20
-124.5000944277190769
 30
0.0
 11
-0.0027959510334981
 21
-124.5002263635155089
 31
0.0
  0
LINE
  5
1A6
100
AcDbEntity
100
AcDbLine
  8
pl
 62
256
370
-1
  6
ByLayer
 10
-5.0027959510334981
 20
-129.0000944277190911
 30
0.0
 11
-5.0027959510334981
 21
-124.5000944277190769
 31
0.0
  0
LINE
  5
1A7
100
AcDbEntity
100
AcDbLine
  8
pl
 62
256
370
-1
  6
ByLayer
 10
-44.3722040489663954
 20
-104.4999120428023645
 30
0.0
 11
-44.3722040489663954
 21
-124.4999120428022934
 31
0.0
  0
LINE
  5
1A8
100
AcDbEntity
100
AcDbLine
  8
pl
 62
256
370
-1
  6
ByLayer
 10
-44.3722040489663954
 20
-99.9996856792868698
 30
0.0
 11
-39.3749999999999432
 21
-99.9998680642035538
 31
0.0
  0
LINE
  5
1A9
100
AcDbEntity
100
AcDbLine
  8
pl
 62
256
370
-1
  6
ByLayer
 10
-39.3749999999999432
 20
-104.4998680642035538
 30
0.0
 11
-39.3749999999999432
 21
-99.9998680642035538
 31
0.0
  0
LINE
  5
1AA
100
AcDbEntity
100
AcDbLine
  8
pl
 62
256
370
-1
  6
ByLayer
 10
-39.3749999999999432
 20
-104.4998680642035538
 30
0.0
 11
-44.3722040489663954
 21
-104.4999120182099688
 31
0.0
  0
LINE
  5
1AB
100
AcDbEntity
100
AcDbLine
  8
pl
 62
256
370
-1
  6
ByLayer
 10
-44.3722040489663954
 20
-124.4999121448472152
 30
0.0
 11
-39.3777959510335478
 21
-124.5000944277189774
 31
0.0
  0
LINE
  5
1AC
100
AcDbEntity
100
AcDbLine
  8
pl
 62
256
370
-1
  6
ByLayer
 10
-39.3777959510335478
 20
-129.0000944277189774
 30
0.0
 11
-39.3777959510335478
 21
-124.5000944277189774
 31
0.0
  0
LINE
  5
1AD
100
AcDbEntity
100
AcDbLine
  8
pl
 62
256
370
-1
  6
ByLayer
 10
-39.3777959510335478
 20
-129.0000944277189774
 30
0.0
 11
-44.3722040489663954
 21
-129.0001383571329825
 31
0.0
  0
LINE
  5
1AE
100
AcDbEntity
100
AcDbLine
  8
pl
 62
256
370
-1
  6
ByLayer
 10
-44.3722040489663954
 20
-94.9999120428023076
 30
0.0
 11
-44.3722040489663954
 21
-99.9996856792868698
 31
0.0
  0
LINE
  5
1AF
100
AcDbEntity
100
AcDbLine
  8
pl
 62
256
370
-1
  6
ByLayer
 10
16.5000000000000924
 20
-94.9999120428023787
 30
0.0
 11
-44.3722040489663954
 21
-94.9999120428023076
 31
0.0
  0
LINE
  5
1B0
100
AcDbEntity
100
AcDbLine
  8
pl
 62
256
370
-1
  6
ByLayer
 10
-44.3722040489663954
 20
-129.0001384063177738
 30
0.0
 11
-44.3722040489663954
 21
-133.9999120428024071
 31
0.0
  0
LINE
  5
1B1
100
AcDbEntity
100
AcDbLine
  8
pl
 62
256
370
-1
  6
ByLayer
 10
16.5000000000000497
 20
-133.9999120428024071
 30
0.0
 11
-44.3722040489663954
 21
-133.9999120428024071
 31
0.0
  0
LINE
  5
1B2
100
AcDbEntity
100
AcDbLine
  8
pl
 62
256
370
-1
  6
ByLayer
 10
-36.3776135661169064
 20
-109.9995584316895219
 30
0.0
 11
-40.277613566116905
 21
-112.2512244066895306
 31
0.0
  0
LINE
  5
1B3
100
AcDbEntity
100
AcDbLine
  8
pl
 62
256
370
-1
  6
ByLayer
 10
-36.3776135661169064
 20
-109.9995584316895219
 30
0.0
 11
-32.4776135661169079
 21
-112.2512244066895306
 31
0.0
  0
LINE
  5
1B4
100
AcDbEntity
100
AcDbLine
  8
pl
 62
256
370
-1
  6
ByLayer
 10
-32.4776135661169079
 20
-112.2512244066895306
 30
0.0
 11
-32.4776135661169079
 21
-116.7545563509326172
 31
0.0
  0
LINE
  5
1B5
100
AcDbEntity
100
AcDbLine
  8
pl
 62
256
370
-1
  6
ByLayer
 10
-32.4776135661169079
 20
-116.7545563509326172
 30
0.0
 11
-36.3776135661169064
 21
-119.0062223259326259
 31
0.0
  0
LINE
  5
1B6
100
AcDbEntity
100
AcDbLine
  8
pl
 62
256
370
-1
  6
ByLayer
 10
-40.277613566116905
 20
-112.2512244066895306
 30
0.0
 11
-40.277613566116905
 21
-116.7545563509326172
 31
0.0
  0
LINE
  5
1B7
100
AcDbEntity
100
AcDbLine
  8
pl
 62
256
370
-1
  6
ByLayer
 10
-40.277613566116905
 20
-116.7545563509326172
 30
0.0
 11
-36.3776135661169064
 21
-119.0062223259326259
 31
0.0
  0
LINE
  5
1B8
100
AcDbEntity
100
AcDbLine
  8
pl
 62
256
370
-1
  6
ByLayer
 10
-1.3776135661167999
 20
-109.9995584316066726
 30
0.0
 11
-5.2776135661167984
 21
-112.2512244066066813
 31
0.0
  0
LINE
  5
1B9
100
AcDbEntity
100
AcDbLine
  8
pl
 62
256
370
-1
  6
ByLayer
 10
-1.3776135661167999
 20
-109.9995584316066726
 30
0.0
 11
2.5223864338831987
 21
-112.2512244066066813
 31
0.0
  0
LINE
  5
1BA
100
AcDbEntity
100
AcDbLine
  8
pl
 62
256
370
-1
  6
ByLayer
 10
2.5223864338831987
 20
-112.2512244066066813
 30
0.0
 11
2.5223864338831987
 21
-116.7545563508497679
 31
0.0
  0
LINE
  5
1BB
100
AcDbEntity
100
AcDbLine
  8
pl
 62
256
370
-1
  6
ByLayer
 10
2.5223864338831987
 20
-116.7545563508497679
 30
0.0
 11
-1.3776135661167999
 21
-119.0062223258497767
 31
0.0
  0
LINE
  5
1BC
100
AcDbEntity
100
AcDbLine
  8
pl
 62
256
370
-1
  6
ByLayer
 10
-5.2776135661167984
 20
-112.2512244066066813
 30
0.0
 11
-5.2776135661167984
 21
-116.7545563508497963
 31
0.0
  0
LINE
  5
1BD
100
AcDbEntity
100
AcDbLine
  8
pl
 62
256
370
-1
  6
ByLayer
 10
-5.2776135661167984
 20
-116.7545563508497963
 30
0.0
 11
-1.3776135661167999
 21
-119.0062223258497767
 31
0.0
  0
LINE
  5
1BE
100
AcDbEntity
100
AcDbLine
  8
pr
 62
256
370
-1
  6
ByLayer
 10
83.5
 20
-133.9999120428023502
 30
0.0
 11
144.3749999999999716
 21
-133.9999120428023502
 31
0.0
  0
LINE
  5
1BF
100
AcDbEntity
100
AcDbLine
  8
pr
 62
256
370
-1
  6
ByLayer
 10
83.5
 20
-94.9999120428023502
 30
0.0
 11
83.5
 21
-133.9999120428023502
 31
0.0
  0
LINE
  5
1C0
100
AcDbEntity
100
AcDbLine
  8
pr
 62
256
370
-1
  6
ByLayer
 10
83.5
 20
-94.9999120428023502
 30
0.0
 11
144.3749999999999716
 21
-94.9999120428023502
 31
0.0
  0
LINE
  5
1C1
100
AcDbEntity
100
AcDbLine
  8
pr
 62
256
370
-1
  6
ByLayer
 10
95.7501131817577402
 20
-124.4999120428023502
 30
0.0
 11
91.2502011389553616
 21
-124.4999120428023502
 31
0.0
  0
LINE
  5
1C2
100
AcDbEntity
100
AcDbLine
  8
pr
 62
256
370
-1
  6
ByLayer
 10
95.7501131817577544
 20
-104.4999120428023502
 30
0.0
 11
91.2498868182422598
 21
-104.502707993835898
 31
0.0
  0
CIRCLE
  5
1C3
100
AcDbEntity
100
AcDbCircle
  8
pr
 62
256
370
-1
  6
ByLayer
 10
93.5001131817577402
 20
-114.4999120428023502
 30
0.0
 40
1.5
  0
LINE
  5
1C4
100
AcDbEntity
100
AcDbLine
  8
pr
 62
256
370
-1
  6
ByLayer
 10
95.7500692031589296
 20
-109.4999120428023502
 30
0.0
 11
95.7501131817577544
 21
-104.4999120428023502
 31
0.0
  0
LINE
  5
1C5
100
AcDbEntity
100
AcDbLine
  8
pr
 62
256
370
-1
  6
ByLayer
 10
91.2498868182422598
 20
-104.502707993835898
 30
0.0
 11
91.2500692031589296
 21
-109.4999120428023502
 31
0.0
  0
LINE
  5
1C6
100
AcDbEntity
100
AcDbLine
  8
pr
 62
256
370
-1
  6
ByLayer
 10
95.7500692031589296
 20
-109.4999120428023502
 30
0.0
 11
91.2500692031589296
 21
-109.4999120428023502
 31
0.0
  0
LINE
  5
1C7
100
AcDbEntity
100
AcDbLine
  8
pr
 62
256
370
-1
  6
ByLayer
 10
95.7501131817577402
 20
-124.4999120428023502
 30
0.0
 11
95.7500692031589296
 21
-119.4999120428023502
 31
0.0
  0
LINE
  5
1C8
100
AcDbEntity
100
AcDbLine
  8
pr
 62
256
370
-1
  6
ByLayer
 10
91.2500692031589296
 20
-119.4999120428023502
 30
0.0
 11
91.2502011389553616
 21
-124.4999120428023502
 31
0.0
  0
LINE
  5
1C9
100
AcDbEntity
100
AcDbLine
  8
pr
 62
256
370
-1
  6
ByLayer
 10
95.7500692031589296
 20
-119.4999120428023502
 30
0.0
 11
91.2500692031589296
 21
-119.4999120428023502
 31
0.0
  0
LINE
  5
1CA
100
AcDbEntity
100
AcDbLine
  8
pr
 62
256
370
-1
  6
ByLayer
 10
124.3749999999999716
 20
-104.4999120428023502
 30
0.0
 11
124.3749999999999716
 21
-99.9999999999999716
 31
0.0
  0
CIRCLE
  5
1CB
100
AcDbEntity
100
AcDbCircle
  8
pr
 62
256
370
-1
  6
ByLayer
 10
134.3749999999999716
 20
-102.2499120428023502
 30
0.0
 40
1.5
  0
LINE
  5
1CC
100
AcDbEntity
100
AcDbLine
  8
pr
 62
256
370
-1
  6
ByLayer
 10
124.3749999999999716
 20
-104.4999120428023502
 30
0.0
 11
129.3749999999999716
 21
-104.4998680642035396
 31
0.0
  0
LINE
  5
1CD
100
AcDbEntity
100
AcDbLine
  8
pr
 62
256
370
-1
  6
ByLayer
 10
129.3749999999999716
 20
-99.9998680642035396
 30
0.0
 11
124.3749999999999716
 21
-99.9999999999999716
 31
0.0
  0
LINE
  5
1CE
100
AcDbEntity
100
AcDbLine
  8
pr
 62
256
370
-1
  6
ByLayer
 10
129.3749999999999716
 20
-104.4998680642035396
 30
0.0
 11
129.3749999999999716
 21
-99.9998680642035396
 31
0.0
  0
LINE
  5
1CF
100
AcDbEntity
100
AcDbLine
  8
pr
 62
256
370
-1
  6
ByLayer
 10
100.0
 20
-104.4999120428023787
 30
0.0
 11
100.0
 21
-100.0
 31
0.0
  0
LINE
  5
1D0
100
AcDbEntity
100
AcDbLine
  8
pr
 62
256
370
-1
  6
ByLayer
 10
120.0
 20
-104.4999120428023787
 30
0.0
 11
119.9972040489664522
 21
-99.9996856792868982
 31
0.0
  0
CIRCLE
  5
1D1
100
AcDbEntity
100
AcDbCircle
  8
pr
 62
256
370
-1
  6
ByLayer
 10
110.0
 20
-102.2499120428023787
 30
0.0
 40
1.5
  0
LINE
  5
1D2
100
AcDbEntity
100
AcDbLine
  8
pr
 62
256
370
-1
  6
ByLayer
 10
115.0
 20
-104.499868064203568
 30
0.0
 11
120.0
 21
-104.4999120428023787
 31
0.0
  0
LINE
  5
1D3
100
AcDbEntity
100
AcDbLine
  8
pr
 62
256
370
-1
  6
ByLayer
 10
119.9972040489664522
 20
-99.9996856792868982
 30
0.0
 11
115.0
 21
-99.999868064203568
 31
0.0
  0
LINE
  5
1D4
100
AcDbEntity
100
AcDbLine
  8
pr
 62
256
370
-1
  6
ByLayer
 10
115.0
 20
-104.499868064203568
 30
0.0
 11
115.0
 21
-99.999868064203568
 31
0.0
  0
LINE
  5
1D5
100
AcDbEntity
100
AcDbLine
  8
pr
 62
256
370
-1
  6
ByLayer
 10
100.0
 20
-104.4999120428023787
 30
0.0
 11
105.0
 21
-104.499868064203568
 31
0.0
  0
LINE
  5
1D6
100
AcDbEntity
100
AcDbLine
  8
pr
 62
256
370
-1
  6
ByLayer
 10
105.0
 20
-99.999868064203568
 30
0.0
 11
100.0
 21
-100.0
 31
0.0
  0
LINE
  5
1D7
100
AcDbEntity
100
AcDbLine
  8
pr
 62
256
370
-1
  6
ByLayer
 10
105.0
 20
-104.499868064203568
 30
0.0
 11
105.0
 21
-99.999868064203568
 31
0.0
  0
LINE
  5
1D8
100
AcDbEntity
100
AcDbLine
  8
pr
 62
256
370
-1
  6
ByLayer
 10
124.3777959510335052
 20
-129.0001384063178307
 30
0.0
 11
124.3777959510335052
 21
-124.500226363515452
 31
0.0
  0
CIRCLE
  5
1D9
100
AcDbEntity
100
AcDbCircle
  8
pr
 62
256
370
-1
  6
ByLayer
 10
134.3777959510335052
 20
-126.7501384063178307
 30
0.0
 40
1.5
  0
LINE
  5
1DA
100
AcDbEntity
100
AcDbLine
  8
pr
 62
256
370
-1
  6
ByLayer
 10
124.3777959510335052
 20
-129.0001384063178307
 30
0.0
 11
129.3777959510335052
 21
-129.0000944277190342
 31
0.0
  0
LINE
  5
1DB
100
AcDbEntity
100
AcDbLine
  8
pr
 62
256
370
-1
  6
ByLayer
 10
129.3777959510335052
 20
-124.50009442771902
 30
0.0
 11
124.3777959510335052
 21
-124.500226363515452
 31
0.0
  0
LINE
  5
1DC
100
AcDbEntity
100
AcDbLine
  8
pr
 62
256
370
-1
  6
ByLayer
 10
129.3777959510335052
 20
-129.0000944277190342
 30
0.0
 11
129.3777959510335052
 21
-124.50009442771902
 31
0.0
  0
LINE
  5
1DD
100
AcDbEntity
100
AcDbLine
  8
pr
 62
256
370
-1
  6
ByLayer
 10
100.0027959510335336
 20
-129.0001384063178591
 30
0.0
 11
100.0027959510335336
 21
-124.5002263635154804
 31
0.0
  0
LINE
  5
1DE
100
AcDbEntity
100
AcDbLine
  8
pr
 62
256
370
-1
  6
ByLayer
 10
120.0027959510335336
 20
-129.0001384063178591
 30
0.0
 11
119.9999999999999858
 21
-124.4999120428023787
 31
0.0
  0
CIRCLE
  5
1DF
100
AcDbEntity
100
AcDbCircle
  8
pr
 62
256
370
-1
  6
ByLayer
 10
110.0027959510335336
 20
-126.7501384063178591
 30
0.0
 40
1.5
  0
LINE
  5
1E0
100
AcDbEntity
100
AcDbLine
  8
pr
 62
256
370
-1
  6
ByLayer
 10
115.0027959510335336
 20
-129.0000944277190342
 30
0.0
 11
120.0027959510335336
 21
-129.0001384063178591
 31
0.0
  0
LINE
  5
1E1
100
AcDbEntity
100
AcDbLine
  8
pr
 62
256
370
-1
  6
ByLayer
 10
119.9999999999999858
 20
-124.4999120428023787
 30
0.0
 11
115.0027959510335336
 21
-124.5000944277190484
 31
0.0
  0
LINE
  5
1E2
100
AcDbEntity
100
AcDbLine
  8
pr
 62
256
370
-1
  6
ByLayer
 10
115.0027959510335336
 20
-129.0000944277190342
 30
0.0
 11
115.0027959510335336
 21
-124.5000944277190484
 31
0.0
  0
LINE
  5
1E3
100
AcDbEntity
100
AcDbLine
  8
pr
 62
256
370
-1
  6
ByLayer
 10
100.0027959510335336
 20
-129.0001384063178591
 30
0.0
 11
105.0027959510335336
 21
-129.0000944277190342
 31
0.0
  0
LINE
  5
1E4
100
AcDbEntity
100
AcDbLine
  8
pr
 62
256
370
-1
  6
ByLayer
 10
105.0027959510335336
 20
-124.5000944277190484
 30
0.0
 11
100.0027959510335336
 21
-124.5002263635154804
 31
0.0
  0
LINE
  5
1E5
100
AcDbEntity
100
AcDbLine
  8
pr
 62
256
370
-1
  6
ByLayer
 10
105.0027959510335336
 20
-129.0000944277190342
 30
0.0
 11
105.0027959510335336
 21
-124.5000944277190484
 31
0.0
  0
LINE
  5
1E6
100
AcDbEntity
100
AcDbLine
  8
pr
 62
256
370
-1
  6
ByLayer
 10
144.3749999999999716
 20
-94.9999120428023502
 30
0.0
 11
144.3749999999999716
 21
-99.9996856792868698
 31
0.0
  0
LINE
  5
1E7
100
AcDbEntity
100
AcDbLine
  8
pr
 62
256
370
-1
  6
ByLayer
 10
144.3749999999999716
 20
-104.4999120428023502
 30
0.0
 11
144.3749999999999716
 21
-124.4999120428023502
 31
0.0
  0
LINE
  5
1E8
100
AcDbEntity
100
AcDbLine
  8
pr
 62
256
370
-1
  6
ByLayer
 10
144.3749999999999716
 20
-129.000138381725435
 30
0.0
 11
144.3749999999999716
 21
-133.9999120428023502
 31
0.0
  0
LINE
  5
1E9
100
AcDbEntity
100
AcDbLine
  8
pr
 62
256
370
-1
  6
ByLayer
 10
144.3749999999999716
 20
-124.4999120428023502
 30
0.0
 11
139.3777959510335052
 21
-124.50009442771902
 31
0.0
  0
LINE
  5
1EA
100
AcDbEntity
100
AcDbLine
  8
pr
 62
256
370
-1
  6
ByLayer
 10
139.3777959510335052
 20
-129.0000944277190342
 30
0.0
 11
144.3749999999999716
 21
-129.000138381725435
 31
0.0
  0
LINE
  5
1EB
100
AcDbEntity
100
AcDbLine
  8
pr
 62
256
370
-1
  6
ByLayer
 10
139.3777959510335052
 20
-129.0000944277190342
 30
0.0
 11
139.3777959510335052
 21
-124.50009442771902
 31
0.0
  0
LINE
  5
1EC
100
AcDbEntity
100
AcDbLine
  8
pr
 62
256
370
-1
  6
ByLayer
 10
144.3749999999999716
 20
-99.999685577241948
 30
0.0
 11
139.3749999999999716
 21
-99.9998680642035396
 31
0.0
  0
LINE
  5
1ED
100
AcDbEntity
100
AcDbLine
  8
pr
 62
256
370
-1
  6
ByLayer
 10
139.3749999999999716
 20
-104.4998680642035396
 30
0.0
 11
139.3749999999999716
 21
-99.9998680642035396
 31
0.0
  0
LINE
  5
1EE
100
AcDbEntity
100
AcDbLine
  8
pr
 62
256
370
-1
  6
ByLayer
 10
139.3749999999999716
 20
-104.4998680642035396
 30
0.0
 11
144.3749999999999716
 21
-104.4999120428023502
 31
0.0
  0
LINE
  5
1EF
100
AcDbEntity
100
AcDbLine
  8
pr
 62
256
370
-1
  6
ByLayer
 10
101.377613566116878
 20
-109.9995584316066015
 30
0.0
 11
97.4776135661169008
 21
-112.2512244066066103
 31
0.0
  0
LINE
  5
1F0
100
AcDbEntity
100
AcDbLine
  8
pr
 62
256
370
-1
  6
ByLayer
 10
101.377613566116878
 20
-109.9995584316066015
 30
0.0
 11
105.2776135661169121
 21
-112.2512244066066103
 31
0.0
  0
LINE
  5
1F1
100
AcDbEntity
100
AcDbLine
  8
pr
 62
256
370
-1
  6
ByLayer
 10
105.2776135661169121
 20
-112.2512244066066103
 30
0.0
 11
105.2776135661169121
 21
-116.7545563508496969
 31
0.0
  0
LINE
  5
1F2
100
AcDbEntity
100
AcDbLine
  8
pr
 62
256
370
-1
  6
ByLayer
 10
105.2776135661169121
 20
-116.7545563508496969
 30
0.0
 11
101.377613566116878
 21
-119.0062223258497056
 31
0.0
  0
LINE
  5
1F3
100
AcDbEntity
100
AcDbLine
  8
pr
 62
256
370
-1
  6
ByLayer
 10
97.4776135661169008
 20
-112.2512244066066103
 30
0.0
 11
97.4776135661169008
 21
-116.7545563508496969
 31
0.0
  0
LINE
  5
1F4
100
AcDbEntity
100
AcDbLine
  8
pr
 62
256
370
-1
  6
ByLayer
 10
97.4776135661169008
 20
-116.7545563508496969
 30
0.0
 11
101.377613566116878
 21
-119.0062223258497056
 31
0.0
  0
LINE
  5
1F5
100
AcDbEntity
100
AcDbLine
  8
pr
 62
256
370
-1
  6
ByLayer
 10
136.377613566116878
 20
-109.9995584316895645
 30
0.0
 11
132.4776135661169008
 21
-112.2512244066895732
 31
0.0
  0
LINE
  5
1F6
100
AcDbEntity
100
AcDbLine
  8
pr
 62
256
370
-1
  6
ByLayer
 10
136.377613566116878
 20
-109.9995584316895645
 30
0.0
 11
140.2776135661169121
 21
-112.2512244066895732
 31
0.0
  0
LINE
  5
1F7
100
AcDbEntity
100
AcDbLine
  8
pr
 62
256
370
-1
  6
ByLayer
 10
140.2776135661169121
 20
-112.2512244066895732
 30
0.0
 11
140.2776135661169121
 21
-116.7545563509326598
 31
0.0
  0
LINE
  5
1F8
100
AcDbEntity
100
AcDbLine
  8
pr
 62
256
370
-1
  6
ByLayer
 10
140.2776135661169121
 20
-116.7545563509326598
 30
0.0
 11
136.377613566116878
 21
-119.0062223259326686
 31
0.0
  0
LINE
  5
1F9
100
AcDbEntity
100
AcDbLine
  8
pr
 62
256
370
-1
  6
ByLayer
 10
132.4776135661169008
 20
-112.2512244066895732
 30
0.0
 11
132.4776135661169008
 21
-116.7545563509326882
 31
0.0
  0
LINE
  5
1FA
100
AcDbEntity
100
AcDbLine
  8
pr
 62
256
370
-1
  6
ByLayer
 10
132.4776135661169008
 20
-116.7545563509326882
 30
0.0
 11
136.377613566116878
 21
-119.0062223259326686
 31
0.0
  0
MTEXT
  5
1FB
100
AcDbEntity
100
AcDbMText
  8
0
 62
256
370
-1
  6
ByLayer
 10
230.0
 20
-30.0
 30
0.0
 40
5.0
 41
100.0
 71
9
 72
2
  1
Dinos,\~based\~on\~http://svn.makerbot.com/trunk/plastruder/main-assembly.dxf\~rev\~292
  7
normallatin1
 50
0.0
 73
0
 44
1.0
  0
ENDSEC
  0
SECTION
  2
OBJECTS
  0
DICTIONARY
  5
C
100
AcDbDictionary
280
0
281
1
  3
ACAD_GROUP
350
D
  3
ACAD_LAYOUT
350
1A
  3
ACAD_MLINESTYLE
350
17
  3
ACAD_PLOTSETTINGS
350
19
  3
ACAD_PLOTSTYLENAME
350
E
  3
AcDbVariableDictionary
350
1FC
  0
DICTIONARY
  5
D
100
AcDbDictionary
280
0
281
1
  0
ACDBDICTIONARYWDFLT
  5
E
100
AcDbDictionary
281
1
  3
Normal
350
F
100
AcDbDictionaryWithDefault
340
F
  0
ACDBPLACEHOLDER
  5
F
  0
DICTIONARY
  5
17
100
AcDbDictionary
280
0
281
1
  3
Standard
350
18
  0
MLINESTYLE
  5
18
100
AcDbMlineStyle
  2
STANDARD
 70
0
  3

 62
256
 51
90.0
 52
90.0
 71
2
 49
0.5
 62
256
  6
BYLAYER
 49
-0.5
 62
256
  6
BYLAYER
  0
DICTIONARY
  5
19
100
AcDbDictionary
280
0
281
1
  0
DICTIONARY
  5
1A
100
AcDbDictionary
281
1
  3
Layout1
350
1E
  3
Layout2
350
26
  3
Model
350
22
  0
LAYOUT
  5
1E
100
AcDbPlotSettings
  1

  2
C:\Program Files\AutoCAD 2002\plotters\DWF ePlot (optimized for plotting).pc3
  4

  6

 40
0.0
 41
0.0
 42
0.0
 43
0.0
 44
0.0
 45
0.0
 46
0.0
 47
0.0
 48
0.0
 49
0.0
140
0.0
141
0.0
142
1.0
143
1.0
 70
688
 72
0
 73
0
 74
5
  7

 75
16
147
1.0
148
0.0
149
0.0
100
AcDbLayout
  1
Layout1
 70
1
 71
1
 10
0.0
 20
0.0
 11
420.0
 21
297.0
 12
0.0
 22
0.0
 32
0.0
 14
100000000000000000000.0
 24
100000000000000000000.0
 34
100000000000000000000.0
 15
-100000000000000000000.0
 25
-100000000000000000000.0
 35
-100000000000000000000.0
146
0.0
 13
0.0
 23
0.0
 33
0.0
 16
1.0
 26
0.0
 36
0.0
 17
0.0
 27
1.0
 37
0.0
 76
0
330
1B
  0
LAYOUT
  5
22
100
AcDbPlotSettings
  1

  2
C:\Program Files\AutoCAD 2002\plotters\DWF ePlot (optimized for plotting).pc3
  4

  6

 40
0.0
 41
0.0
 42
0.0
 43
0.0
 44
0.0
 45
0.0
 46
0.0
 47
0.0
 48
0.0
 49
0.0
140
0.0
141
0.0
142
1.0
143
1.0
 70
1712
 72
0
 73
0
 74
0
  7

 75
0
147
1.0
148
0.0
149
0.0
100
AcDbLayout
  1
Model
 70
1
 71
0
 10
0.0
 20
0.0
 11
12.0
 21
9.0
 12
0.0
 22
0.0
 32
0.0
 14
0.0
 24
0.0
 34
0.0
 15
0.0
 25
0.0
 35
0.0
146
0.0
 13
0.0
 23
0.0
 33
0.0
 16
1.0
 26
0.0
 36
0.0
 17
0.0
 27
1.0
 37
0.0
 76
0
330
1F
  0
LAYOUT
  5
26
100
AcDbPlotSettings
  1

  2
C:\Program Files\AutoCAD 2002\plotters\DWF ePlot (optimized for plotting).pc3
  4

  6

 40
0.0
 41
0.0
 42
0.0
 43
0.0
 44
0.0
 45
0.0
 46
0.0
 47
0.0
 48
0.0
 49
0.0
140
0.0
141
0.0
142
1.0
143
1.0
 70
688
 72
0
 73
0
 74
5
  7

 75
16
147
1.0
148
0.0
149
0.0
100
AcDbLayout
  1
Layout2
 70
1
 71
2
 10
0.0
 20
0.0
 11
12.0
 21
9.0
 12
0.0
 22
0.0
 32
0.0
 14
0.0
 24
0.0
 34
0.0
 15
0.0
 25
0.0
 35
0.0
146
0.0
 13
0.0
 23
0.0
 33
0.0
 16
1.0
 26
0.0
 36
0.0
 17
0.0
 27
1.0
 37
0.0
 76
0
330
23
  0
DICTIONARY
  5
1FC
100
AcDbDictionary
281
1
  3
DIMASSOC
350
1FE
  3
HIDETEXT
350
1FD
  0
DICTIONARYVAR
  5
1FD
100
DictionaryVariables
280
0
  1
2
  0
DICTIONARYVAR
  5
1FE
100
DictionaryVariables
280
0
  1
1
  0
ENDSEC
  0
EOF
