999
dxflib 2.0.4.8
  0
SECTION
  2
HEADER
  9
$ACADVER
  1
AC1015
  9
$HANDSEED
  5
FFFF
  9
$CLAYER
  8
0
  9
$DIMASZ
 40
2.5
  9
$DIMGAP
 40
0.625
  9
$DIMEXO
 40
0.625
  9
$INSUNITS
 70
4
  9
$DIMTXT
 40
2.5
  9
$DIMSTYLE
  2
Standard
  9
$PLIMMAX
 10
210.0
 20
297.0
  9
$PLIMMIN
 10
0.0
 20
0.0
  9
$DIMEXE
 40
1.25
  0
ENDSEC
  0
SECTION
  2
TABLES
  0
TABLE
  2
VPORT
  5
8
100
AcDbSymbolTable
 70
1
  0
VPORT
  5
30
100
AcDbSymbolTableRecord
100
AcDbViewportTableRecord
  2
*Active
 70
0
 10
0.0
 20
0.0
 11
1.0
 21
1.0
 12
286.3055555555554861
 22
148.5
 13
0.0
 23
0.0
 14
10.0
 24
10.0
 15
10.0
 25
10.0
 16
0.0
 26
0.0
 36
1.0
 17
0.0
 27
0.0
 37
0.0
 40
297.0
 41
1.92798353909465
 42
50.0
 43
0.0
 44
0.0
 50
0.0
 51
0.0
 71
0
 72
100
 73
1
 74
3
 75
1
 76
1
 77
0
 78
0
281
0
 65
1
110
0.0
120
0.0
130
0.0
111
1.0
121
0.0
131
0.0
112
0.0
122
1.0
132
0.0
 79
0
146
0.0
  0
ENDTAB
  0
TABLE
  2
LTYPE
  5
5
100
AcDbSymbolTable
 70
21
  0
LTYPE
  5
14
100
AcDbSymbolTableRecord
100
AcDbLinetypeTableRecord
  2
ByBlock
 70
0
  3

 72
65
 73
0
 40
0.0
  0
LTYPE
  5
15
100
AcDbSymbolTableRecord
100
AcDbLinetypeTableRecord
  2
ByLayer
 70
0
  3

 72
65
 73
0
 40
0.0
  0
LTYPE
  5
16
100
AcDbSymbolTableRecord
100
AcDbLinetypeTableRecord
  2
CONTINUOUS
 70
0
  3
Solid line
 72
65
 73
0
 40
0.0
  0
LTYPE
  5
31
100
AcDbSymbolTableRecord
100
AcDbLinetypeTableRecord
  2
DOT
 70
0
  3
Dot . . . . . . . . . . . . . . . . . . . . . .
 72
65
 73
2
 40
6.3499999999999996
 49
0.0
 74
0
 49
-6.3499999999999996
 74
0
  0
LTYPE
  5
32
100
AcDbSymbolTableRecord
100
AcDbLinetypeTableRecord
  2
DOT2
 70
0
  3
Dot (.5x) .....................................
 72
65
 73
2
 40
3.1749999999999998
 49
0.0
 74
0
 49
-3.1749999999999998
 74
0
  0
LTYPE
  5
33
100
AcDbSymbolTableRecord
100
AcDbLinetypeTableRecord
  2
DOTX2
 70
0
  3
Dot (2x) .  .  .  .  .  .  .  .  .  .  .  .  .
 72
65
 73
2
 40
12.6999999999999993
 49
0.0
 74
0
 49
-12.6999999999999993
 74
0
  0
LTYPE
  5
34
100
AcDbSymbolTableRecord
100
AcDbLinetypeTableRecord
  2
DASHED
 70
0
  3
Dashed __ __ __ __ __ __ __ __ __ __ __ __ __ _
 72
65
 73
2
 40
19.0500000000000007
 49
12.6999999999999993
 74
0
 49
-6.3499999999999996
 74
0
  0
LTYPE
  5
35
100
AcDbSymbolTableRecord
100
AcDbLinetypeTableRecord
  2
DASHED2
 70
0
  3
Dashed (.5x) _ _ _ _ _ _ _ _ _ _ _ _ _ _ _ _ _
 72
65
 73
2
 40
9.5250000000000004
 49
6.3499999999999996
 74
0
 49
-3.1749999999999998
 74
0
  0
LTYPE
  5
36
100
AcDbSymbolTableRecord
100
AcDbLinetypeTableRecord
  2
DASHEDX2
 70
0
  3
Dashed (2x) ____  ____  ____  ____  ____  ___
 72
65
 73
2
 40
38.1000000000000014
 49
25.3999999999999986
 74
0
 49
-12.6999999999999993
 74
0
  0
LTYPE
  5
37
100
AcDbSymbolTableRecord
100
AcDbLinetypeTableRecord
  2
DASHDOT
 70
0
  3
Dash dot __ . __ . __ . __ . __ . __ . __ . __
 72
65
 73
4
 40
25.3999999999999986
 49
12.6999999999999993
 74
0
 49
-6.3499999999999996
 74
0
 49
0.0
 74
0
 49
-6.3499999999999996
 74
0
  0
LTYPE
  5
38
100
AcDbSymbolTableRecord
100
AcDbLinetypeTableRecord
  2
DASHDOT2
 70
0
  3
Dash dot (.5x) _._._._._._._._._._._._._._._.
 72
65
 73
4
 40
12.6999999999999993
 49
6.3499999999999996
 74
0
 49
-3.1749999999999998
 74
0
 49
0.0
 74
0
 49
-3.1749999999999998
 74
0
  0
LTYPE
  5
39
100
AcDbSymbolTableRecord
100
AcDbLinetypeTableRecord
  2
DASHDOTX2
 70
0
  3
Dash dot (2x) ____  .  ____  .  ____  .  ___
 72
65
 73
4
 40
50.7999999999999972
 49
25.3999999999999986
 74
0
 49
-12.6999999999999993
 74
0
 49
0.0
 74
0
 49
-12.6999999999999993
 74
0
  0
LTYPE
  5
3A
100
AcDbSymbolTableRecord
100
AcDbLinetypeTableRecord
  2
DIVIDE
 70
0
  3
Divide ____ . . ____ . . ____ . . ____ . . ____
 72
65
 73
6
 40
31.75
 49
12.6999999999999993
 74
0
 49
-6.3499999999999996
 74
0
 49
0.0
 74
0
 49
-6.3499999999999996
 74
0
 49
0.0
 74
0
 49
-6.3499999999999996
 74
0
  0
LTYPE
  5
3B
100
AcDbSymbolTableRecord
100
AcDbLinetypeTableRecord
  2
DIVIDE2
 70
0
  3
Divide (.5x) __..__..__..__..__..__..__..__.._
 72
65
 73
6
 40
15.875
 49
6.3499999999999996
 74
0
 49
-3.1749999999999998
 74
0
 49
0.0
 74
0
 49
-3.1749999999999998
 74
0
 49
0.0
 74
0
 49
-3.1749999999999998
 74
0
  0
LTYPE
  5
3C
100
AcDbSymbolTableRecord
100
AcDbLinetypeTableRecord
  2
DIVIDEX2
 70
0
  3
Divide (2x) ________  .  .  ________  .  .  _
 72
65
 73
6
 40
63.5
 49
25.3999999999999986
 74
0
 49
-12.6999999999999993
 74
0
 49
0.0
 74
0
 49
-12.6999999999999993
 74
0
 49
0.0
 74
0
 49
-12.6999999999999993
 74
0
  0
LTYPE
  5
3D
100
AcDbSymbolTableRecord
100
AcDbLinetypeTableRecord
  2
CENTER
 70
0
  3
Center ____ _ ____ _ ____ _ ____ _ ____ _ ____
 72
65
 73
4
 40
50.7999999999999972
 49
31.75
 74
0
 49
-6.3499999999999996
 74
0
 49
6.3499999999999996
 74
0
 49
-6.3499999999999996
 74
0
  0
LTYPE
  5
3E
100
AcDbSymbolTableRecord
100
AcDbLinetypeTableRecord
  2
CENTER2
 70
0
  3
Center (.5x) ___ _ ___ _ ___ _ ___ _ ___ _ ___
 72
65
 73
4
 40
28.5749999999999993
 49
19.0500000000000007
 74
0
 49
-3.1749999999999998
 74
0
 49
3.1749999999999998
 74
0
 49
-3.1749999999999998
 74
0
  0
LTYPE
  5
3F
100
AcDbSymbolTableRecord
100
AcDbLinetypeTableRecord
  2
CENTERX2
 70
0
  3
Center (2x) ________  __  ________  __  _____
 72
65
 73
4
 40
101.5999999999999943
 49
63.5
 74
0
 49
-12.6999999999999993
 74
0
 49
12.6999999999999993
 74
0
 49
-12.6999999999999993
 74
0
  0
LTYPE
  5
40
100
AcDbSymbolTableRecord
100
AcDbLinetypeTableRecord
  2
BORDER
 70
0
  3
Border __ __ . __ __ . __ __ . __ __ . __ __ .
 72
65
 73
6
 40
44.4500000000000028
 49
12.6999999999999993
 74
0
 49
-6.3499999999999996
 74
0
 49
12.6999999999999993
 74
0
 49
-6.3499999999999996
 74
0
 49
0.0
 74
0
 49
-6.3499999999999996
 74
0
  0
LTYPE
  5
41
100
AcDbSymbolTableRecord
100
AcDbLinetypeTableRecord
  2
BORDER2
 70
0
  3
Border (.5x) __.__.__.__.__.__.__.__.__.__.__.
 72
65
 73
6
 40
22.2250000000000014
 49
6.3499999999999996
 74
0
 49
-3.1749999999999998
 74
0
 49
6.3499999999999996
 74
0
 49
-3.1749999999999998
 74
0
 49
0.0
 74
0
 49
-3.1749999999999998
 74
0
  0
LTYPE
  5
42
100
AcDbSymbolTableRecord
100
AcDbLinetypeTableRecord
  2
BORDERX2
 70
0
  3
Border (2x) ____  ____  .  ____  ____  .  ___
 72
65
 73
6
 40
88.9000000000000057
 49
25.3999999999999986
 74
0
 49
-12.6999999999999993
 74
0
 49
25.3999999999999986
 74
0
 49
-12.6999999999999993
 74
0
 49
0.0
 74
0
 49
-12.6999999999999993
 74
0
  0
ENDTAB
  0
TABLE
  2
LAYER
  5
2
100
AcDbSymbolTable
 70
3
  0
LAYER
  5
10
100
AcDbSymbolTableRecord
100
AcDbLayerTableRecord
  2
0
 70
0
 62
7
  6
CONTINUOUS
370
25
390
F
  0
LAYER
  5
43
100
AcDbSymbolTableRecord
100
AcDbLayerTableRecord
  2
extras
 70
0
 62
7
  6
CONTINUOUS
370
0
390
F
  0
LAYER
  5
44
100
AcDbSymbolTableRecord
100
AcDbLayerTableRecord
  2
dim
 70
0
 62
7
  6
CONTINUOUS
370
0
390
F
  0
ENDTAB
  0
TABLE
  2
STYLE
  5
3
100
AcDbSymbolTable
 70
1
  0
STYLE
  5
11
100
AcDbSymbolTableRecord
100
AcDbTextStyleTableRecord
  2
Standard
 70
0
 40
0.0
 41
0.75
 50
0.0
 71
0
 42
2.5
  3
txt
  4

  0
ENDTAB
  0
TABLE
  2
VIEW
  5
6
100
AcDbSymbolTable
 70
0
  0
ENDTAB
  0
TABLE
  2
UCS
  5
7
100
AcDbSymbolTable
 70
0
  0
ENDTAB
  0
TABLE
  2
APPID
  5
9
100
AcDbSymbolTable
 70
1
  0
APPID
  5
12
100
AcDbSymbolTableRecord
100
AcDbRegAppTableRecord
  2
ACAD
 70
0
  0
ENDTAB
  0
TABLE
  2
DIMSTYLE
  5
A
100
AcDbSymbolTable
 70
1
100
AcDbDimStyleTable
 71
0
  0
DIMSTYLE
105
27
100
AcDbSymbolTableRecord
100
AcDbDimStyleTableRecord
  2
Standard
 41
2.5
 42
0.625
 43
3.75
 44
1.25
 70
0
 73
0
 74
0
 77
1
 78
8
140
2.5
141
2.5
143
0.03937007874016
147
0.625
171
3
172
1
271
2
272
2
274
3
278
44
283
0
284
8
340
11
  0
ENDTAB
  0
TABLE
  2
BLOCK_RECORD
  5
1
100
AcDbSymbolTable
 70
1
  0
BLOCK_RECORD
  5
1F
100
AcDbSymbolTableRecord
100
AcDbBlockTableRecord
  2
*Model_Space
340
22
  0
BLOCK_RECORD
  5
1B
100
AcDbSymbolTableRecord
100
AcDbBlockTableRecord
  2
*Paper_Space
340
1E
  0
BLOCK_RECORD
  5
23
100
AcDbSymbolTableRecord
100
AcDbBlockTableRecord
  2
*Paper_Space0
340
26
  0
ENDTAB
  0
ENDSEC
  0
SECTION
  2
BLOCKS
  0
BLOCK
  5
20
100
AcDbEntity
  8
0
100
AcDbBlockBegin
  2
*Model_Space
 70
0
 10
0.0
 20
0.0
 30
0.0
  3
*Model_Space
  1

  0
ENDBLK
  5
21
100
AcDbEntity
  8
0
100
AcDbBlockEnd
  0
BLOCK
  5
1C
100
AcDbEntity
 67
1
  8
0
100
AcDbBlockBegin
  2
*Paper_Space
 70
0
 10
0.0
 20
0.0
 30
0.0
  3
*Paper_Space
  1

  0
ENDBLK
  5
1D
100
AcDbEntity
 67
1
  8
0
100
AcDbBlockEnd
  0
BLOCK
  5
24
100
AcDbEntity
  8
0
100
AcDbBlockBegin
  2
*Paper_Space0
 70
0
 10
0.0
 20
0.0
 30
0.0
  3
*Paper_Space0
  1

  0
ENDBLK
  5
25
100
AcDbEntity
  8
0
100
AcDbBlockEnd
  0
ENDSEC
  0
SECTION
  2
ENTITIES
  0
LINE
  5
45
100
AcDbEntity
100
AcDbLine
  8
0
 62
256
370
-3
  6
ByLayer
 10
280.0026371307104114
 20
85.0316448741640869
 30
0.0
 11
280.0000000000001137
 21
144.9999999999994884
 31
0.0
  0
LINE
  5
46
100
AcDbEntity
100
AcDbLine
  8
0
 62
256
370
-3
  6
ByLayer
 10
0.0000000000000568
 20
85.0316448741650959
 30
0.0
 11
0.00000000000054
 21
144.9066448741646127
 31
0.0
  0
LINE
  5
47
100
AcDbEntity
100
AcDbLine
  8
0
 62
256
370
-3
  6
ByLayer
 10
280.0000000000001137
 20
214.9999999999994316
 30
0.0
 11
280.0000000000001137
 21
239.9999999999999432
 31
0.0
  0
LINE
  5
48
100
AcDbEntity
100
AcDbLine
  8
0
 62
256
370
-3
  6
ByLayer
 10
280.0000000000000568
 20
-0.0000000000005258
 30
0.0
 11
280.0026371307099566
 21
15.0316448741641011
 31
0.0
  0
LINE
  5
49
100
AcDbEntity
100
AcDbLine
  8
0
 62
256
370
-3
  6
ByLayer
 10
280.0000000000000568
 20
-0.0000000000005258
 30
0.0
 11
0.0
 21
0.0
 31
0.0
  0
LINE
  5
4A
100
AcDbEntity
100
AcDbLine
  8
0
 62
256
370
-3
  6
ByLayer
 10
0.0000000000005116
 20
239.9999999999999716
 30
0.0
 11
280.0000000000001137
 21
239.9999999999999432
 31
0.0
  0
LINE
  5
4B
100
AcDbEntity
100
AcDbLine
  8
0
 62
256
370
-3
  6
ByLayer
 10
0.00000000000054
 20
214.9066448741650106
 30
0.0
 11
0.0000000000005116
 21
239.9999999999999716
 31
0.0
  0
ARC
  5
4C
100
AcDbEntity
  8
0
 62
256
370
-3
  6
ByLayer
100
AcDbCircle
 10
50.0026371327683776
 20
210.0
 30
0.0
 40
10.0
100
AcDbArc
 50
89.9999999999997158
 51
179.9988377192674989
  0
LINE
  5
4D
100
AcDbEntity
100
AcDbLine
  8
0
 62
256
370
-3
  6
ByLayer
 10
230.0026371286529638
 20
219.9999999999993179
 30
0.0
 11
50.0026371327684274
 21
220.0
 31
0.0
  0
ARC
  5
4E
100
AcDbEntity
  8
0
 62
256
370
-3
  6
ByLayer
100
AcDbCircle
 10
230.0026371286529354
 20
209.9999999999993179
 30
0.0
 40
10.0
100
AcDbArc
 50
359.9988377192674989
 51
89.9999999999998295
  0
LINE
  5
4F
100
AcDbEntity
100
AcDbLine
  8
0
 62
256
370
-3
  6
ByLayer
 10
239.9999999958850481
 20
79.9997971437909428
 30
0.0
 11
240.0026371265954026
 21
209.9997971437909428
 31
0.0
  0
ARC
  5
50
100
AcDbEntity
  8
0
 62
256
370
-3
  6
ByLayer
100
AcDbCircle
 10
229.9999999979425809
 20
79.9999999999993889
 30
0.0
 40
10.0
100
AcDbArc
 50
269.9999999999998295
 51
359.9988377192674989
  0
LINE
  5
51
100
AcDbEntity
100
AcDbLine
  8
0
 62
256
370
-3
  6
ByLayer
 10
50.0000000020575612
 20
70.0000000000000995
 30
0.0
 11
229.9999999979425525
 21
69.9999999999993889
 31
0.0
  0
LINE
  5
52
100
AcDbEntity
100
AcDbLine
  8
0
 62
256
370
-3
  6
ByLayer
 10
40.0026371348259104
 20
210.0002028562084888
 30
0.0
 11
40.0000000041151367
 21
80.0002028562086025
 31
0.0
  0
ARC
  5
53
100
AcDbEntity
  8
0
 62
256
370
-3
  6
ByLayer
100
AcDbCircle
 10
50.0000000020576039
 20
80.0000000000000995
 30
0.0
 40
10.0
100
AcDbArc
 50
179.9988377192674989
 51
269.9999999999997726
  0
LINE
  5
54
100
AcDbEntity
100
AcDbLine
  8
0
 62
256
370
-3
  6
ByLayer
 10
280.0000000000001137
 20
214.9999999999994316
 30
0.0
 11
280.0000000000001137
 21
204.9999999999994316
 31
0.0
  0
LINE
  5
55
100
AcDbEntity
100
AcDbLine
  8
0
 62
256
370
-3
  6
ByLayer
 10
280.0000000000001137
 20
154.9999999999994316
 30
0.0
 11
280.0000000000001137
 21
144.9999999999994316
 31
0.0
  0
LINE
  5
56
100
AcDbEntity
100
AcDbLine
  8
0
 62
256
370
-3
  6
ByLayer
 10
280.0000000000001137
 20
144.9999999999994316
 30
0.0
 11
280.0000000000001137
 21
144.9999999999994316
 31
0.0
  0
LINE
  5
57
100
AcDbEntity
100
AcDbLine
  8
0
 62
256
370
-3
  6
ByLayer
 10
273.0000000000000568
 20
177.2499999999994316
 30
0.0
 11
270.0000000000000568
 21
177.2525160310433989
 31
0.0
  0
LINE
  5
58
100
AcDbEntity
100
AcDbLine
  8
0
 62
256
370
-3
  6
ByLayer
 10
270.0000000000000568
 20
178.4999999999994316
 30
0.0
 11
270.0000000000000568
 21
177.2525160310433989
 31
0.0
  0
LINE
  5
59
100
AcDbEntity
100
AcDbLine
  8
0
 62
256
370
-3
  6
ByLayer
 10
273.0000000000001137
 20
182.7499999999994316
 30
0.0
 11
270.0000000000001137
 21
182.7546916604165972
 31
0.0
  0
LINE
  5
5A
100
AcDbEntity
100
AcDbLine
  8
0
 62
256
370
-3
  6
ByLayer
 10
270.0000000000001137
 20
182.7546916604165972
 30
0.0
 11
270.0000000000001137
 21
181.4999999999994316
 31
0.0
  0
LINE
  5
5B
100
AcDbEntity
100
AcDbLine
  8
0
 62
256
370
-3
  6
ByLayer
 10
280.0000000000001137
 20
181.4172019846478747
 30
0.0
 11
273.0012802767794255
 21
181.4164840199657078
 31
0.0
  0
LINE
  5
5C
100
AcDbEntity
100
AcDbLine
  8
0
 62
256
370
-3
  6
ByLayer
 10
273.0012802767794255
 20
178.5991906065559647
 30
0.0
 11
280.0044872792872752
 21
178.599190606555851
 31
0.0
  0
LINE
  5
5D
100
AcDbEntity
100
AcDbLine
  8
0
 62
256
370
-3
  6
ByLayer
 10
280.0044872792872752
 20
178.599190606555851
 30
0.0
 11
280.0000000000001137
 21
164.9999999999994316
 31
0.0
  0
LINE
  5
5E
100
AcDbEntity
100
AcDbLine
  8
0
 62
256
370
-3
  6
ByLayer
 10
280.0000000000001137
 20
194.9999999999994316
 30
0.0
 11
280.0000000000001137
 21
181.4172019846478747
 31
0.0
  0
LINE
  5
5F
100
AcDbEntity
100
AcDbLine
  8
0
 62
256
370
-3
  6
ByLayer
 10
273.0000000000000568
 20
177.2499999999994316
 30
0.0
 11
273.0012802767794255
 21
178.5991906065559647
 31
0.0
  0
LINE
  5
60
100
AcDbEntity
100
AcDbLine
  8
0
 62
256
370
-3
  6
ByLayer
 10
273.0012802767794255
 20
181.4164840199657078
 30
0.0
 11
273.0000000000001137
 21
182.7499999999994316
 31
0.0
  0
LINE
  5
61
100
AcDbEntity
100
AcDbLine
  8
0
 62
256
370
-3
  6
ByLayer
 10
269.0000000000001137
 20
181.4999999999994316
 30
0.0
 11
269.0000000000001137
 21
178.4999999999994316
 31
0.0
  0
LINE
  5
62
100
AcDbEntity
100
AcDbLine
  8
0
 62
256
370
-3
  6
ByLayer
 10
270.0000000000001137
 20
181.4999999999994316
 30
0.0
 11
269.0000000000001137
 21
181.4999999999994316
 31
0.0
  0
LINE
  5
63
100
AcDbEntity
100
AcDbLine
  8
0
 62
256
370
-3
  6
ByLayer
 10
269.0000000000001137
 20
178.4999999999994316
 30
0.0
 11
270.0000000000000568
 21
178.4999999999994316
 31
0.0
  0
LINE
  5
64
100
AcDbEntity
100
AcDbLine
  8
0
 62
256
370
-3
  6
ByLayer
 10
285.0000000000001137
 20
194.9999999999994316
 30
0.0
 11
280.0000000000001137
 21
194.9999999999994316
 31
0.0
  0
LINE
  5
65
100
AcDbEntity
100
AcDbLine
  8
0
 62
256
370
-3
  6
ByLayer
 10
285.0000000000001137
 20
204.9999999999994316
 30
0.0
 11
285.0000000000001137
 21
194.9999999999994316
 31
0.0
  0
LINE
  5
66
100
AcDbEntity
100
AcDbLine
  8
0
 62
256
370
-3
  6
ByLayer
 10
280.0000000000001137
 20
204.9999999999994316
 30
0.0
 11
285.0000000000001137
 21
204.9999999999994316
 31
0.0
  0
LINE
  5
67
100
AcDbEntity
100
AcDbLine
  8
0
 62
256
370
-3
  6
ByLayer
 10
285.0000000000001137
 20
164.9999999999994316
 30
0.0
 11
285.0000000000000568
 21
154.9999999999994316
 31
0.0
  0
LINE
  5
68
100
AcDbEntity
100
AcDbLine
  8
0
 62
256
370
-3
  6
ByLayer
 10
285.0000000000000568
 20
154.9999999999994316
 30
0.0
 11
280.0000000000001137
 21
154.9999999999994316
 31
0.0
  0
LINE
  5
69
100
AcDbEntity
100
AcDbLine
  8
0
 62
256
370
-3
  6
ByLayer
 10
280.0000000000001137
 20
164.9999999999994316
 30
0.0
 11
285.0000000000001137
 21
164.9999999999994316
 31
0.0
  0
LINE
  5
6A
100
AcDbEntity
100
AcDbLine
  8
0
 62
256
370
-3
  6
ByLayer
 10
280.0026371307104114
 20
85.0316448741640869
 30
0.0
 11
280.0026371307104114
 21
75.0316448741640869
 31
0.0
  0
LINE
  5
6B
100
AcDbEntity
100
AcDbLine
  8
0
 62
256
370
-3
  6
ByLayer
 10
280.0026371307104114
 20
25.0316448741640869
 30
0.0
 11
280.0026371307104114
 21
15.0316448741640869
 31
0.0
  0
LINE
  5
6C
100
AcDbEntity
100
AcDbLine
  8
0
 62
256
370
-3
  6
ByLayer
 10
280.0026371307104114
 20
15.0316448741640869
 30
0.0
 11
280.0026371307104114
 21
15.0316448741640869
 31
0.0
  0
LINE
  5
6D
100
AcDbEntity
100
AcDbLine
  8
0
 62
256
370
-3
  6
ByLayer
 10
273.0026371307103545
 20
47.281644874164094
 30
0.0
 11
270.0026371307103545
 21
47.2841609052080614
 31
0.0
  0
LINE
  5
6E
100
AcDbEntity
100
AcDbLine
  8
0
 62
256
370
-3
  6
ByLayer
 10
270.0026371307103545
 20
48.5316448741641011
 30
0.0
 11
270.0026371307103545
 21
47.2841609052080614
 31
0.0
  0
LINE
  5
6F
100
AcDbEntity
100
AcDbLine
  8
0
 62
256
370
-3
  6
ByLayer
 10
273.0026371307104114
 20
52.7816448741640869
 30
0.0
 11
270.0026371307104114
 21
52.7863365345812525
 31
0.0
  0
LINE
  5
70
100
AcDbEntity
100
AcDbLine
  8
0
 62
256
370
-3
  6
ByLayer
 10
270.0026371307104114
 20
52.7863365345812525
 30
0.0
 11
270.0026371307104114
 21
51.531644874164094
 31
0.0
  0
LINE
  5
71
100
AcDbEntity
100
AcDbLine
  8
0
 62
256
370
-3
  6
ByLayer
 10
280.0026371307104114
 20
51.4488468588125301
 30
0.0
 11
273.0039174074897232
 21
51.4481288941303703
 31
0.0
  0
LINE
  5
72
100
AcDbEntity
100
AcDbLine
  8
0
 62
256
370
-3
  6
ByLayer
 10
273.0039174074897232
 20
48.63083548072062
 30
0.0
 11
280.0071244099975729
 21
48.6308354807205063
 31
0.0
  0
LINE
  5
73
100
AcDbEntity
100
AcDbLine
  8
0
 62
256
370
-3
  6
ByLayer
 10
280.0071244099975729
 20
48.6308354807205063
 30
0.0
 11
280.0026371307104114
 21
35.0316448741640869
 31
0.0
  0
LINE
  5
74
100
AcDbEntity
100
AcDbLine
  8
0
 62
256
370
-3
  6
ByLayer
 10
280.0026371307104114
 20
65.0316448741640869
 30
0.0
 11
280.0026371307104114
 21
51.4488468588125301
 31
0.0
  0
LINE
  5
75
100
AcDbEntity
100
AcDbLine
  8
0
 62
256
370
-3
  6
ByLayer
 10
273.0026371307103545
 20
47.281644874164094
 30
0.0
 11
273.0039174074897232
 21
48.63083548072062
 31
0.0
  0
LINE
  5
76
100
AcDbEntity
100
AcDbLine
  8
0
 62
256
370
-3
  6
ByLayer
 10
273.0039174074897232
 20
51.4481288941303703
 30
0.0
 11
273.0026371307104114
 21
52.7816448741640869
 31
0.0
  0
LINE
  5
77
100
AcDbEntity
100
AcDbLine
  8
0
 62
256
370
-3
  6
ByLayer
 10
269.0026371307104114
 20
51.5316448741640869
 30
0.0
 11
269.0026371307104114
 21
48.5316448741640869
 31
0.0
  0
LINE
  5
78
100
AcDbEntity
100
AcDbLine
  8
0
 62
256
370
-3
  6
ByLayer
 10
270.0026371307104114
 20
51.531644874164094
 30
0.0
 11
269.0026371307104114
 21
51.5316448741640869
 31
0.0
  0
LINE
  5
79
100
AcDbEntity
100
AcDbLine
  8
0
 62
256
370
-3
  6
ByLayer
 10
269.0026371307104114
 20
48.5316448741640869
 30
0.0
 11
270.0026371307103545
 21
48.5316448741641011
 31
0.0
  0
LINE
  5
7A
100
AcDbEntity
100
AcDbLine
  8
0
 62
256
370
-3
  6
ByLayer
 10
285.0026371307104114
 20
65.0316448741640869
 30
0.0
 11
280.0026371307104114
 21
65.0316448741640869
 31
0.0
  0
LINE
  5
7B
100
AcDbEntity
100
AcDbLine
  8
0
 62
256
370
-3
  6
ByLayer
 10
285.0026371307104114
 20
75.0316448741640869
 30
0.0
 11
285.0026371307104114
 21
65.0316448741640869
 31
0.0
  0
LINE
  5
7C
100
AcDbEntity
100
AcDbLine
  8
0
 62
256
370
-3
  6
ByLayer
 10
280.0026371307104114
 20
75.0316448741640869
 30
0.0
 11
285.0026371307104114
 21
75.0316448741640869
 31
0.0
  0
LINE
  5
7D
100
AcDbEntity
100
AcDbLine
  8
0
 62
256
370
-3
  6
ByLayer
 10
285.0026371307104114
 20
35.0316448741640869
 30
0.0
 11
285.0026371307103545
 21
25.0316448741640869
 31
0.0
  0
LINE
  5
7E
100
AcDbEntity
100
AcDbLine
  8
0
 62
256
370
-3
  6
ByLayer
 10
285.0026371307103545
 20
25.0316448741640869
 30
0.0
 11
280.0026371307104114
 21
25.0316448741640869
 31
0.0
  0
LINE
  5
7F
100
AcDbEntity
100
AcDbLine
  8
0
 62
256
370
-3
  6
ByLayer
 10
280.0026371307104114
 20
35.0316448741640869
 30
0.0
 11
285.0026371307104114
 21
35.0316448741640869
 31
0.0
  0
LINE
  5
80
100
AcDbEntity
100
AcDbLine
  8
0
 62
256
370
-3
  6
ByLayer
 10
0.00000000000054
 20
214.9066448741650106
 30
0.0
 11
0.0000000000005382
 21
204.9066448741650106
 31
0.0
  0
LINE
  5
81
100
AcDbEntity
100
AcDbLine
  8
0
 62
256
370
-3
  6
ByLayer
 10
0.000000000000529
 20
154.9066448741650106
 30
0.0
 11
0.0000000000005271
 21
144.9066448741650106
 31
0.0
  0
LINE
  5
82
100
AcDbEntity
100
AcDbLine
  8
0
 62
256
370
-3
  6
ByLayer
 10
0.0000000000005271
 20
144.9066448741650106
 30
0.0
 11
0.0000000000005271
 21
144.9066448741650106
 31
0.0
  0
LINE
  5
83
100
AcDbEntity
100
AcDbLine
  8
0
 62
256
370
-3
  6
ByLayer
 10
7.0000000000005542
 20
177.1566448741650106
 30
0.0
 11
10.0000000000005507
 21
177.159160905208978
 31
0.0
  0
LINE
  5
84
100
AcDbEntity
100
AcDbLine
  8
0
 62
256
370
-3
  6
ByLayer
 10
10.0000000000005311
 20
178.4066448741650106
 30
0.0
 11
10.0000000000005507
 21
177.159160905208978
 31
0.0
  0
LINE
  5
85
100
AcDbEntity
100
AcDbLine
  8
0
 62
256
370
-3
  6
ByLayer
 10
7.0000000000005116
 20
182.6566448741650106
 30
0.0
 11
10.0000000000005596
 21
182.6613365345821762
 31
0.0
  0
LINE
  5
86
100
AcDbEntity
100
AcDbLine
  8
0
 62
256
370
-3
  6
ByLayer
 10
10.0000000000005596
 20
182.6613365345821762
 30
0.0
 11
10.0000000000005311
 21
181.4066448741650106
 31
0.0
  0
LINE
  5
87
100
AcDbEntity
100
AcDbLine
  8
0
 62
256
370
-3
  6
ByLayer
 10
0.0000000000005338
 20
181.3238468588134822
 30
0.0
 11
6.9987197232211908
 21
181.3231288941312584
 31
0.0
  0
LINE
  5
88
100
AcDbEntity
100
AcDbLine
  8
0
 62
256
370
-3
  6
ByLayer
 10
6.9987197232211766
 20
178.5058354807215437
 30
0.0
 11
-0.0044872792866731
 21
178.50583548072143
 31
0.0
  0
LINE
  5
89
100
AcDbEntity
100
AcDbLine
  8
0
 62
256
370
-3
  6
ByLayer
 10
-0.0044872792866731
 20
178.50583548072143
 30
0.0
 11
0.0000000000005308
 21
164.9066448741650106
 31
0.0
  0
LINE
  5
8A
100
AcDbEntity
100
AcDbLine
  8
0
 62
256
370
-3
  6
ByLayer
 10
0.0000000000005363
 20
194.9066448741650106
 30
0.0
 11
0.0000000000005338
 21
181.3238468588134822
 31
0.0
  0
LINE
  5
8B
100
AcDbEntity
100
AcDbLine
  8
0
 62
256
370
-3
  6
ByLayer
 10
7.0000000000005542
 20
177.1566448741650106
 30
0.0
 11
6.9987197232211766
 21
178.5058354807215437
 31
0.0
  0
LINE
  5
8C
100
AcDbEntity
100
AcDbLine
  8
0
 62
256
370
-3
  6
ByLayer
 10
6.9987197232211908
 20
181.3231288941312584
 30
0.0
 11
7.0000000000005116
 21
182.6566448741650106
 31
0.0
  0
LINE
  5
8D
100
AcDbEntity
100
AcDbLine
  8
0
 62
256
370
-3
  6
ByLayer
 10
11.0000000000005329
 20
181.4066448741650106
 30
0.0
 11
11.0000000000005222
 21
178.4066448741650106
 31
0.0
  0
LINE
  5
8E
100
AcDbEntity
100
AcDbLine
  8
0
 62
256
370
-3
  6
ByLayer
 10
10.0000000000005311
 20
181.4066448741650106
 30
0.0
 11
11.0000000000005329
 21
181.4066448741650106
 31
0.0
  0
LINE
  5
8F
100
AcDbEntity
100
AcDbLine
  8
0
 62
256
370
-3
  6
ByLayer
 10
11.0000000000005222
 20
178.4066448741650106
 30
0.0
 11
10.0000000000005311
 21
178.4066448741650106
 31
0.0
  0
LINE
  5
90
100
AcDbEntity
100
AcDbLine
  8
0
 62
256
370
-3
  6
ByLayer
 10
-4.9999999999994529
 20
194.9066448741650106
 30
0.0
 11
0.0000000000005363
 21
194.9066448741650106
 31
0.0
  0
LINE
  5
91
100
AcDbEntity
100
AcDbLine
  8
0
 62
256
370
-3
  6
ByLayer
 10
-4.9999999999994742
 20
204.9066448741650106
 30
0.0
 11
-4.9999999999994529
 21
194.9066448741650106
 31
0.0
  0
LINE
  5
92
100
AcDbEntity
100
AcDbLine
  8
0
 62
256
370
-3
  6
ByLayer
 10
0.0000000000005382
 20
204.9066448741650106
 30
0.0
 11
-4.9999999999994742
 21
204.9066448741650106
 31
0.0
  0
LINE
  5
93
100
AcDbEntity
100
AcDbLine
  8
0
 62
256
370
-3
  6
ByLayer
 10
-4.9999999999995168
 20
164.9066448741650106
 30
0.0
 11
-4.9999999999994333
 21
154.9066448741650106
 31
0.0
  0
LINE
  5
94
100
AcDbEntity
100
AcDbLine
  8
0
 62
256
370
-3
  6
ByLayer
 10
-4.9999999999994333
 20
154.9066448741650106
 30
0.0
 11
0.000000000000529
 21
154.9066448741650106
 31
0.0
  0
LINE
  5
95
100
AcDbEntity
100
AcDbLine
  8
0
 62
256
370
-3
  6
ByLayer
 10
0.0000000000005308
 20
164.9066448741650106
 30
0.0
 11
-4.9999999999995168
 21
164.9066448741650106
 31
0.0
  0
LINE
  5
96
100
AcDbEntity
100
AcDbLine
  8
0
 62
256
370
-3
  6
ByLayer
 10
0.0000000000000568
 20
85.0316448741650959
 30
0.0
 11
0.000000000000055
 21
75.0316448741650959
 31
0.0
  0
LINE
  5
97
100
AcDbEntity
100
AcDbLine
  8
0
 62
256
370
-3
  6
ByLayer
 10
7.0000000000000711
 20
47.2816448741650959
 30
0.0
 11
10.0000000000000675
 21
47.284160905209049
 31
0.0
  0
LINE
  5
98
100
AcDbEntity
100
AcDbLine
  8
0
 62
256
370
-3
  6
ByLayer
 10
10.000000000000048
 20
48.5316448741650959
 30
0.0
 11
10.0000000000000675
 21
47.284160905209049
 31
0.0
  0
LINE
  5
99
100
AcDbEntity
100
AcDbLine
  8
0
 62
256
370
-3
  6
ByLayer
 10
7.0000000000000284
 20
52.7816448741650888
 30
0.0
 11
10.0000000000000764
 21
52.7863365345822757
 31
0.0
  0
LINE
  5
9A
100
AcDbEntity
100
AcDbLine
  8
0
 62
256
370
-3
  6
ByLayer
 10
10.0000000000000764
 20
52.7863365345822757
 30
0.0
 11
10.000000000000048
 21
51.5316448741650959
 31
0.0
  0
LINE
  5
9B
100
AcDbEntity
100
AcDbLine
  8
0
 62
256
370
-3
  6
ByLayer
 10
0.0000000000000506
 20
51.4488468588135603
 30
0.0
 11
6.9987197232206757
 21
51.4481288941313437
 31
0.0
  0
LINE
  5
9C
100
AcDbEntity
100
AcDbLine
  8
0
 62
256
370
-3
  6
ByLayer
 10
6.9987197232206935
 20
48.6308354807216432
 30
0.0
 11
-0.0044872792871563
 21
48.6308354807215295
 31
0.0
  0
LINE
  5
9D
100
AcDbEntity
100
AcDbLine
  8
0
 62
256
370
-3
  6
ByLayer
 10
-0.0044872792871563
 20
48.6308354807215295
 30
0.0
 11
0.0000000000000476
 21
35.0316448741650959
 31
0.0
  0
LINE
  5
9E
100
AcDbEntity
100
AcDbLine
  8
0
 62
256
370
-3
  6
ByLayer
 10
0.0000000000000531
 20
65.0316448741650959
 30
0.0
 11
0.0000000000000506
 21
51.4488468588135603
 31
0.0
  0
LINE
  5
9F
100
AcDbEntity
100
AcDbLine
  8
0
 62
256
370
-3
  6
ByLayer
 10
7.0000000000000711
 20
47.2816448741650959
 30
0.0
 11
6.9987197232206935
 21
48.6308354807216432
 31
0.0
  0
LINE
  5
A0
100
AcDbEntity
100
AcDbLine
  8
0
 62
256
370
-3
  6
ByLayer
 10
6.9987197232206757
 20
51.4481288941313437
 30
0.0
 11
7.0000000000000284
 21
52.7816448741650888
 31
0.0
  0
LINE
  5
A1
100
AcDbEntity
100
AcDbLine
  8
0
 62
256
370
-3
  6
ByLayer
 10
11.0000000000000497
 20
51.5316448741650959
 30
0.0
 11
11.0000000000000391
 21
48.5316448741650888
 31
0.0
  0
LINE
  5
A2
100
AcDbEntity
100
AcDbLine
  8
0
 62
256
370
-3
  6
ByLayer
 10
10.000000000000048
 20
51.5316448741650959
 30
0.0
 11
11.0000000000000497
 21
51.5316448741650959
 31
0.0
  0
LINE
  5
A3
100
AcDbEntity
100
AcDbLine
  8
0
 62
256
370
-3
  6
ByLayer
 10
11.0000000000000391
 20
48.5316448741650888
 30
0.0
 11
10.000000000000048
 21
48.5316448741650959
 31
0.0
  0
LINE
  5
A4
100
AcDbEntity
100
AcDbLine
  8
0
 62
256
370
-3
  6
ByLayer
 10
-4.9999999999999361
 20
65.0316448741650959
 30
0.0
 11
0.0000000000000531
 21
65.0316448741650959
 31
0.0
  0
LINE
  5
A5
100
AcDbEntity
100
AcDbLine
  8
0
 62
256
370
-3
  6
ByLayer
 10
-4.9999999999999574
 20
75.0316448741650959
 30
0.0
 11
-4.9999999999999361
 21
65.0316448741650959
 31
0.0
  0
LINE
  5
A6
100
AcDbEntity
100
AcDbLine
  8
0
 62
256
370
-3
  6
ByLayer
 10
0.000000000000055
 20
75.0316448741650959
 30
0.0
 11
-4.9999999999999574
 21
75.0316448741650959
 31
0.0
  0
LINE
  5
A7
100
AcDbEntity
100
AcDbLine
  8
0
 62
256
370
-3
  6
ByLayer
 10
-5.0
 20
35.031644874165103
 30
0.0
 11
-4.9999999999999165
 21
25.0316448741650959
 31
0.0
  0
LINE
  5
A8
100
AcDbEntity
100
AcDbLine
  8
0
 62
256
370
-3
  6
ByLayer
 10
-4.9999999999999165
 20
25.0316448741650959
 30
0.0
 11
0.0000000000000458
 21
25.0316448741650959
 31
0.0
  0
LINE
  5
A9
100
AcDbEntity
100
AcDbLine
  8
0
 62
256
370
-3
  6
ByLayer
 10
0.0000000000000476
 20
35.0316448741650959
 30
0.0
 11
-5.0
 21
35.031644874165103
 31
0.0
  0
LINE
  5
AA
100
AcDbEntity
100
AcDbLine
  8
extras
 62
256
370
-3
  6
ByLayer
 10
39.9973628692897023
 20
9.9999999999999147
 30
0.0
 11
35.9973628692897307
 21
9.9999999999999289
 31
0.0
  0
LINE
  5
AB
100
AcDbEntity
100
AcDbLine
  8
extras
 62
256
370
-3
  6
ByLayer
 10
35.9973628692897307
 20
9.9999999999999289
 30
0.0
 11
35.9973628692896597
 21
11.9999999999999858
 31
0.0
  0
LINE
  5
AC
100
AcDbEntity
100
AcDbLine
  8
extras
 62
256
370
-3
  6
ByLayer
 10
35.9973628692896597
 20
11.9999999999999858
 30
0.0
 11
39.9973628692896312
 21
11.9999999999995595
 31
0.0
  0
LINE
  5
AD
100
AcDbEntity
100
AcDbLine
  8
extras
 62
256
370
-3
  6
ByLayer
 10
39.9973628692896312
 20
11.9999999999995595
 30
0.0
 11
39.9973628692897023
 21
9.9999999999999147
 31
0.0
  0
LINE
  5
AE
100
AcDbEntity
100
AcDbLine
  8
extras
 62
256
370
-3
  6
ByLayer
 10
35.9973628692897165
 20
14.9999999999999289
 30
0.0
 11
35.9973628692896739
 21
16.9999999999995168
 31
0.0
  0
LINE
  5
AF
100
AcDbEntity
100
AcDbLine
  8
extras
 62
256
370
-3
  6
ByLayer
 10
35.9973628692896739
 20
16.9999999999995168
 30
0.0
 11
39.997362869289617
 21
17.0000000000000142
 31
0.0
  0
LINE
  5
B0
100
AcDbEntity
100
AcDbLine
  8
extras
 62
256
370
-3
  6
ByLayer
 10
39.997362869289617
 20
17.0000000000000142
 30
0.0
 11
39.9973628692896739
 21
14.9999999999999858
 31
0.0
  0
LINE
  5
B1
100
AcDbEntity
100
AcDbLine
  8
extras
 62
256
370
-3
  6
ByLayer
 10
39.9973628692896739
 20
14.9999999999999858
 30
0.0
 11
35.9973628692897165
 21
14.9999999999999289
 31
0.0
  0
LINE
  5
B2
100
AcDbEntity
100
AcDbLine
  8
extras
 62
256
370
-3
  6
ByLayer
 10
243.9973628692896455
 20
9.9999999999999005
 30
0.0
 11
239.9973628692897023
 21
9.99999999999946
 31
0.0
  0
LINE
  5
B3
100
AcDbEntity
100
AcDbLine
  8
extras
 62
256
370
-3
  6
ByLayer
 10
239.9973628692897023
 20
9.99999999999946
 30
0.0
 11
239.9973628692896739
 21
11.9999999999994884
 31
0.0
  0
LINE
  5
B4
100
AcDbEntity
100
AcDbLine
  8
extras
 62
256
370
-3
  6
ByLayer
 10
239.9973628692896739
 20
11.9999999999994884
 30
0.0
 11
243.9973628692897023
 21
11.9999999999999147
 31
0.0
  0
LINE
  5
B5
100
AcDbEntity
100
AcDbLine
  8
extras
 62
256
370
-3
  6
ByLayer
 10
243.9973628692897023
 20
11.9999999999999147
 30
0.0
 11
243.9973628692896455
 21
9.9999999999999005
 31
0.0
  0
LINE
  5
B6
100
AcDbEntity
100
AcDbLine
  8
extras
 62
256
370
-3
  6
ByLayer
 10
239.9973628692896455
 20
14.9999999999999005
 30
0.0
 11
239.9973628692897023
 21
16.9999999999994884
 31
0.0
  0
LINE
  5
B7
100
AcDbEntity
100
AcDbLine
  8
extras
 62
256
370
-3
  6
ByLayer
 10
239.9973628692897023
 20
16.9999999999994884
 30
0.0
 11
243.9973628692897023
 21
16.9999999999994742
 31
0.0
  0
LINE
  5
B8
100
AcDbEntity
100
AcDbLine
  8
extras
 62
256
370
-3
  6
ByLayer
 10
243.9973628692897023
 20
16.9999999999994742
 30
0.0
 11
243.9973628692897023
 21
14.99999999999946
 31
0.0
  0
LINE
  5
B9
100
AcDbEntity
100
AcDbLine
  8
extras
 62
256
370
-3
  6
ByLayer
 10
243.9973628692897023
 20
14.99999999999946
 30
0.0
 11
239.9973628692896455
 21
14.9999999999999005
 31
0.0
  0
ARC
  5
BA
100
AcDbEntity
  8
extras
 62
256
370
-3
  6
ByLayer
100
AcDbCircle
 10
272.9973628692897591
 20
11.9999999999994742
 30
0.0
 40
2.0
100
AcDbArc
 50
270.0
 51
0.0
  0
LINE
  5
BB
100
AcDbEntity
100
AcDbLine
  8
extras
 62
256
370
-3
  6
ByLayer
 10
272.9973628692897023
 20
9.9999999999994031
 30
0.0
 11
261.9973628692897023
 21
9.9999999999999147
 31
0.0
  0
ARC
  5
BC
100
AcDbEntity
  8
extras
 62
256
370
-3
  6
ByLayer
100
AcDbCircle
 10
261.9973628692897023
 20
11.9999999999999147
 30
0.0
 40
2.0
100
AcDbArc
 50
180.0
 51
270.0
  0
LINE
  5
BD
100
AcDbEntity
100
AcDbLine
  8
extras
 62
256
370
-3
  6
ByLayer
 10
259.9973628692897023
 20
11.9999999999994884
 30
0.0
 11
259.9973628692897023
 21
22.99999999999946
 31
0.0
  0
ARC
  5
BE
100
AcDbEntity
  8
extras
 62
256
370
-3
  6
ByLayer
100
AcDbCircle
 10
261.9973628692897023
 20
22.9999999999999716
 30
0.0
 40
2.0
100
AcDbArc
 50
90.0
 51
180.0
  0
LINE
  5
BF
100
AcDbEntity
100
AcDbLine
  8
extras
 62
256
370
-3
  6
ByLayer
 10
261.9973628692896455
 20
24.99999999999946
 30
0.0
 11
272.9973628692897023
 21
24.9999999999994884
 31
0.0
  0
LINE
  5
C0
100
AcDbEntity
100
AcDbLine
  8
extras
 62
256
370
-3
  6
ByLayer
 10
274.9973628692897023
 20
22.9999999999999289
 30
0.0
 11
274.9973628692896455
 21
11.9999999999994884
 31
0.0
  0
ARC
  5
C1
100
AcDbEntity
  8
extras
 62
256
370
-3
  6
ByLayer
100
AcDbCircle
 10
272.9973628692901571
 20
22.9999999999994316
 30
0.0
 40
2.0
100
AcDbArc
 50
0.0
 51
90.0
  0
LINE
  5
C2
100
AcDbEntity
100
AcDbLine
  8
extras
 62
256
370
-3
  6
ByLayer
 10
248.0026371307104398
 20
182.4000000000000057
 30
0.0
 11
252.002637130710383
 21
182.4000000000000341
 31
0.0
  0
LINE
  5
C3
100
AcDbEntity
100
AcDbLine
  8
extras
 62
256
370
-3
  6
ByLayer
 10
252.0026371307104114
 20
177.5999999999993406
 30
0.0
 11
248.0026371307104114
 21
177.5999999999998522
 31
0.0
  0
ARC
  5
C4
100
AcDbEntity
  8
extras
 62
256
370
-3
  6
ByLayer
100
AcDbCircle
 10
252.0026371307104398
 20
179.99999999999946
 30
0.0
 40
2.3999999999999999
100
AcDbArc
 50
270.0
 51
90.0
  0
ARC
  5
C5
100
AcDbEntity
  8
extras
 62
256
370
-3
  6
ByLayer
100
AcDbCircle
 10
248.0026371307104398
 20
179.9999999999998863
 30
0.0
 40
2.3999999999999999
100
AcDbArc
 50
90.0
 51
270.0
  0
LINE
  5
C6
100
AcDbEntity
100
AcDbLine
  8
extras
 62
256
370
-3
  6
ByLayer
 10
28.0026371307108946
 20
182.3999999999999773
 30
0.0
 11
32.0026371307104398
 21
182.3999999999999773
 31
0.0
  0
LINE
  5
C7
100
AcDbEntity
100
AcDbLine
  8
extras
 62
256
370
-3
  6
ByLayer
 10
32.0026371307104256
 20
177.599999999999369
 30
0.0
 11
28.0026371307104398
 21
177.5999999999998238
 31
0.0
  0
ARC
  5
C8
100
AcDbEntity
  8
extras
 62
256
370
-3
  6
ByLayer
100
AcDbCircle
 10
32.002637130710454
 20
179.9999999999994884
 30
0.0
 40
2.3999999999999999
100
AcDbArc
 50
270.0
 51
90.0
  0
ARC
  5
C9
100
AcDbEntity
  8
extras
 62
256
370
-3
  6
ByLayer
100
AcDbCircle
 10
28.002637130710923
 20
180.0
 30
0.0
 40
2.3999999999999999
100
AcDbArc
 50
90.0
 51
270.0
  0
LINE
  5
CA
100
AcDbEntity
100
AcDbLine
  8
extras
 62
256
370
-3
  6
ByLayer
 10
28.0026371307104256
 20
102.4000000000000199
 30
0.0
 11
32.0026371307104114
 21
102.4000000000000483
 31
0.0
  0
LINE
  5
CB
100
AcDbEntity
100
AcDbLine
  8
extras
 62
256
370
-3
  6
ByLayer
 10
32.0026371307104256
 20
97.5999999999994685
 30
0.0
 11
28.0026371307104114
 21
97.5999999999999375
 31
0.0
  0
ARC
  5
CC
100
AcDbEntity
  8
extras
 62
256
370
-3
  6
ByLayer
100
AcDbCircle
 10
32.0026371307104256
 20
99.9999999999999147
 30
0.0
 40
2.3999999999999999
100
AcDbArc
 50
270.0
 51
90.0
  0
ARC
  5
CD
100
AcDbEntity
  8
extras
 62
256
370
-3
  6
ByLayer
100
AcDbCircle
 10
28.0026371307104398
 20
99.9999999999999858
 30
0.0
 40
2.3999999999999999
100
AcDbArc
 50
90.0
 51
270.0
  0
LINE
  5
CE
100
AcDbEntity
100
AcDbLine
  8
extras
 62
256
370
-3
  6
ByLayer
 10
248.0026371307104114
 20
102.4000000000000057
 30
0.0
 11
252.0026371307104114
 21
102.3999999999995367
 31
0.0
  0
LINE
  5
CF
100
AcDbEntity
100
AcDbLine
  8
extras
 62
256
370
-3
  6
ByLayer
 10
252.0026371307104398
 20
97.599999999999369
 30
0.0
 11
248.0026371307104114
 21
97.5999999999993975
 31
0.0
  0
ARC
  5
D0
100
AcDbEntity
  8
extras
 62
256
370
-3
  6
ByLayer
100
AcDbCircle
 10
252.0026371307104114
 20
99.99999999999946
 30
0.0
 40
2.3999999999999999
100
AcDbArc
 50
270.0
 51
90.0
  0
ARC
  5
D1
100
AcDbEntity
  8
extras
 62
256
370
-3
  6
ByLayer
100
AcDbCircle
 10
248.0026371307104114
 20
99.9999999999994742
 30
0.0
 40
2.3999999999999999
100
AcDbArc
 50
90.0
 51
270.0
  0
ARC
  5
D2
100
AcDbEntity
  8
extras
 62
256
370
-3
  6
ByLayer
100
AcDbCircle
 10
89.9953850212564674
 20
57.9788229623817912
 30
0.0
 40
4.0
100
AcDbArc
 50
0.0087313267415613
 51
179.3265263513997354
  0
LINE
  5
D3
100
AcDbEntity
100
AcDbLine
  8
extras
 62
256
370
-3
  6
ByLayer
 10
93.9953849283655956
 20
57.9794325239708499
 30
0.0
 11
93.9993406244320084
 21
32.0217865992071467
 31
0.0
  0
ARC
  5
D4
100
AcDbEntity
  8
extras
 62
256
370
-3
  6
ByLayer
100
AcDbCircle
 10
89.9993407173233919
 20
32.0211770376180738
 30
0.0
 40
4.0
100
AcDbArc
 50
180.0081067157440771
 51
0.0087313267415613
  0
LINE
  5
D5
100
AcDbEntity
100
AcDbLine
  8
extras
 62
256
370
-3
  6
ByLayer
 10
85.995661346744356
 20
58.0258392100768816
 30
0.0
 11
85.999340797400194
 21
32.0206110821011194
 31
0.0
  0
LINE
  5
D6
100
AcDbEntity
100
AcDbLine
  8
extras
 62
256
370
-3
  6
ByLayer
 10
185.9956748114385334
 20
57.9306748837276828
 30
0.0
 11
185.9993407173234061
 21
32.0211770376176048
 31
0.0
  0
ARC
  5
D7
100
AcDbEntity
  8
extras
 62
256
370
-3
  6
ByLayer
100
AcDbCircle
 10
189.9953850212564817
 20
57.9788229623813223
 30
0.0
 40
4.0
100
AcDbArc
 50
0.0087313267415613
 51
180.6896870800883903
  0
ARC
  5
D8
100
AcDbEntity
  8
extras
 62
256
370
-3
  6
ByLayer
100
AcDbCircle
 10
189.9993407173234061
 20
32.0211770376176048
 30
0.0
 40
4.0
100
AcDbArc
 50
180.0
 51
0.0087313267415613
  0
LINE
  5
D9
100
AcDbEntity
100
AcDbLine
  8
extras
 62
256
370
-3
  6
ByLayer
 10
193.995384928365155
 20
57.9794325239703809
 30
0.0
 11
193.9993406244315679
 21
32.0217865992066635
 31
0.0
  0
CIRCLE
  5
DA
100
AcDbEntity
100
AcDbCircle
  8
extras
 62
256
370
-3
  6
ByLayer
 10
155.4963185653552387
 20
48.4949999999994645
 30
0.0
 40
1.5
  0
CIRCLE
  5
DB
100
AcDbEntity
100
AcDbCircle
  8
extras
 62
256
370
-3
  6
ByLayer
 10
155.4963185653552387
 20
17.5049999999994661
 30
0.0
 40
1.5
  0
CIRCLE
  5
DC
100
AcDbEntity
100
AcDbCircle
  8
extras
 62
256
370
-3
  6
ByLayer
 10
124.5063185653552296
 20
17.5049999999994839
 30
0.0
 40
1.5
  0
CIRCLE
  5
DD
100
AcDbEntity
100
AcDbCircle
  8
extras
 62
256
370
-3
  6
ByLayer
 10
124.5063185653552438
 20
48.4949999999994645
 30
0.0
 40
1.5
  0
CIRCLE
  5
DE
100
AcDbEntity
100
AcDbCircle
  8
extras
 62
256
370
-3
  6
ByLayer
 10
140.0013185653552341
 20
32.9999999999994742
 30
0.0
 40
15.0
  0
CIRCLE
  5
DF
100
AcDbEntity
100
AcDbCircle
  8
extras
 62
256
370
-3
  6
ByLayer
 10
30.000187568498589
 20
194.9967797430700216
 30
0.0
 40
1.5
  0
CIRCLE
  5
E0
100
AcDbEntity
100
AcDbCircle
  8
extras
 62
256
370
-3
  6
ByLayer
 10
10.0001875684985748
 20
194.9967797430700216
 30
0.0
 40
1.5
  0
CIRCLE
  5
E1
100
AcDbEntity
100
AcDbCircle
  8
extras
 62
256
370
-3
  6
ByLayer
 10
10.0001875684985997
 20
214.9967797430700216
 30
0.0
 40
1.5
  0
CIRCLE
  5
E2
100
AcDbEntity
100
AcDbCircle
  8
extras
 62
256
370
-3
  6
ByLayer
 10
30.000187568498589
 20
214.9967797430700216
 30
0.0
 40
1.5
  0
CIRCLE
  5
E3
100
AcDbEntity
100
AcDbCircle
  8
extras
 62
256
370
-3
  6
ByLayer
 10
20.000187568498589
 20
204.9967797430700216
 30
0.0
 40
11.0500000000000007
  0
CIRCLE
  5
E4
100
AcDbEntity
100
AcDbCircle
  8
extras
 62
256
370
-3
  6
ByLayer
 10
30.0001875684984611
 20
64.9967797430703627
 30
0.0
 40
1.5
  0
CIRCLE
  5
E5
100
AcDbEntity
100
AcDbCircle
  8
extras
 62
256
370
-3
  6
ByLayer
 10
10.0001875684984469
 20
64.9967797430703769
 30
0.0
 40
1.5
  0
CIRCLE
  5
E6
100
AcDbEntity
100
AcDbCircle
  8
extras
 62
256
370
-3
  6
ByLayer
 10
10.0001875684984718
 20
84.9967797430703769
 30
0.0
 40
1.5
  0
CIRCLE
  5
E7
100
AcDbEntity
100
AcDbCircle
  8
extras
 62
256
370
-3
  6
ByLayer
 10
30.0001875684984611
 20
84.9967797430703627
 30
0.0
 40
1.5
  0
CIRCLE
  5
E8
100
AcDbEntity
100
AcDbCircle
  8
extras
 62
256
370
-3
  6
ByLayer
 10
20.0001875684984611
 20
74.9967797430703627
 30
0.0
 40
11.0500000000000007
  0
CIRCLE
  5
E9
100
AcDbEntity
100
AcDbCircle
  8
extras
 62
256
370
-3
  6
ByLayer
 10
270.000187568498518
 20
195.055269737791491
 30
0.0
 40
1.5
  0
CIRCLE
  5
EA
100
AcDbEntity
100
AcDbCircle
  8
extras
 62
256
370
-3
  6
ByLayer
 10
250.000187568498518
 20
195.055269737791491
 30
0.0
 40
1.5
  0
CIRCLE
  5
EB
100
AcDbEntity
100
AcDbCircle
  8
extras
 62
256
370
-3
  6
ByLayer
 10
250.000187568498518
 20
215.055269737791491
 30
0.0
 40
1.5
  0
CIRCLE
  5
EC
100
AcDbEntity
100
AcDbCircle
  8
extras
 62
256
370
-3
  6
ByLayer
 10
270.000187568498518
 20
215.055269737791491
 30
0.0
 40
1.5
  0
CIRCLE
  5
ED
100
AcDbEntity
100
AcDbCircle
  8
extras
 62
256
370
-3
  6
ByLayer
 10
260.000187568498518
 20
205.055269737791491
 30
0.0
 40
11.0500000000000007
  0
CIRCLE
  5
EE
100
AcDbEntity
100
AcDbCircle
  8
extras
 62
256
370
-3
  6
ByLayer
 10
270.0001875684980064
 20
65.0552697377910363
 30
0.0
 40
1.5
  0
CIRCLE
  5
EF
100
AcDbEntity
100
AcDbCircle
  8
extras
 62
256
370
-3
  6
ByLayer
 10
250.0001875684980064
 20
65.0552697377910505
 30
0.0
 40
1.5
  0
CIRCLE
  5
F0
100
AcDbEntity
100
AcDbCircle
  8
extras
 62
256
370
-3
  6
ByLayer
 10
250.0001875684980064
 20
85.0552697377910505
 30
0.0
 40
1.5
  0
CIRCLE
  5
F1
100
AcDbEntity
100
AcDbCircle
  8
extras
 62
256
370
-3
  6
ByLayer
 10
270.0001875684980064
 20
85.0552697377910363
 30
0.0
 40
1.5
  0
CIRCLE
  5
F2
100
AcDbEntity
100
AcDbCircle
  8
extras
 62
256
370
-3
  6
ByLayer
 10
260.0001875684980064
 20
75.0552697377910363
 30
0.0
 40
11.0500000000000007
  0
LINE
  5
F3
100
AcDbEntity
100
AcDbLine
  8
extras
 62
256
370
-3
  6
ByLayer
 10
234.9960443039290396
 20
235.0552697377906384
 30
0.0
 11
224.9960443039290396
 21
235.0552697377906384
 31
0.0
  0
LINE
  5
F4
100
AcDbEntity
100
AcDbLine
  8
extras
 62
256
370
-3
  6
ByLayer
 10
194.9960443039290681
 20
235.0552697377906384
 30
0.0
 11
184.9960443039290681
 21
235.0552697377906384
 31
0.0
  0
LINE
  5
F5
100
AcDbEntity
100
AcDbLine
  8
extras
 62
256
370
-3
  6
ByLayer
 10
194.9960443039290681
 20
230.05526973779061
 30
0.0
 11
194.9960443039290681
 21
235.0552697377906384
 31
0.0
  0
LINE
  5
F6
100
AcDbEntity
100
AcDbLine
  8
extras
 62
256
370
-3
  6
ByLayer
 10
194.9960443039290681
 20
230.05526973779061
 30
0.0
 11
184.9960443039290681
 21
230.0552697377906668
 31
0.0
  0
LINE
  5
F7
100
AcDbEntity
100
AcDbLine
  8
extras
 62
256
370
-3
  6
ByLayer
 10
184.9960443039290681
 20
235.0552697377906384
 30
0.0
 11
184.9960443039290681
 21
230.0552697377906668
 31
0.0
  0
LINE
  5
F8
100
AcDbEntity
100
AcDbLine
  8
extras
 62
256
370
-3
  6
ByLayer
 10
224.9960443039290396
 20
235.0552697377906384
 30
0.0
 11
224.9960443039290396
 21
230.0552697377906384
 31
0.0
  0
LINE
  5
F9
100
AcDbEntity
100
AcDbLine
  8
extras
 62
256
370
-3
  6
ByLayer
 10
234.9960443039290396
 20
230.0552697377906384
 30
0.0
 11
224.9960443039290396
 21
230.0552697377906384
 31
0.0
  0
LINE
  5
FA
100
AcDbEntity
100
AcDbLine
  8
extras
 62
256
370
-3
  6
ByLayer
 10
234.9960443039290396
 20
230.0552697377906384
 30
0.0
 11
234.9960443039290396
 21
235.0552697377906384
 31
0.0
  0
CIRCLE
  5
FB
100
AcDbEntity
100
AcDbCircle
  8
extras
 62
256
370
-3
  6
ByLayer
 10
209.9960443039290681
 20
232.5552697377906668
 30
0.0
 40
1.5
  0
LINE
  5
FC
100
AcDbEntity
100
AcDbLine
  8
extras
 62
256
370
-3
  6
ByLayer
 10
94.9960443039292102
 20
235.0552697377915479
 30
0.0
 11
84.9960443039292102
 21
235.0552697377915479
 31
0.0
  0
LINE
  5
FD
100
AcDbEntity
100
AcDbLine
  8
extras
 62
256
370
-3
  6
ByLayer
 10
54.9960443039292102
 20
235.0552697377915479
 30
0.0
 11
44.9960443039292102
 21
235.0552697377915479
 31
0.0
  0
LINE
  5
FE
100
AcDbEntity
100
AcDbLine
  8
extras
 62
256
370
-3
  6
ByLayer
 10
54.9960443039292102
 20
230.055269737791491
 30
0.0
 11
54.9960443039292102
 21
235.0552697377915479
 31
0.0
  0
LINE
  5
FF
100
AcDbEntity
100
AcDbLine
  8
extras
 62
256
370
-3
  6
ByLayer
 10
54.9960443039292102
 20
230.055269737791491
 30
0.0
 11
44.9960443039292102
 21
230.0552697377915763
 31
0.0
  0
LINE
  5
100
100
AcDbEntity
100
AcDbLine
  8
extras
 62
256
370
-3
  6
ByLayer
 10
44.9960443039292102
 20
235.0552697377915479
 30
0.0
 11
44.9960443039292102
 21
230.0552697377915763
 31
0.0
  0
LINE
  5
101
100
AcDbEntity
100
AcDbLine
  8
extras
 62
256
370
-3
  6
ByLayer
 10
84.9960443039292102
 20
235.0552697377915479
 30
0.0
 11
84.9960443039292102
 21
230.0552697377915479
 31
0.0
  0
LINE
  5
102
100
AcDbEntity
100
AcDbLine
  8
extras
 62
256
370
-3
  6
ByLayer
 10
94.9960443039292102
 20
230.0552697377915479
 30
0.0
 11
84.9960443039292102
 21
230.0552697377915479
 31
0.0
  0
LINE
  5
103
100
AcDbEntity
100
AcDbLine
  8
extras
 62
256
370
-3
  6
ByLayer
 10
94.9960443039292102
 20
230.0552697377915479
 30
0.0
 11
94.9960443039292102
 21
235.0552697377915479
 31
0.0
  0
CIRCLE
  5
104
100
AcDbEntity
100
AcDbCircle
  8
extras
 62
256
370
-3
  6
ByLayer
 10
69.9960443039292102
 20
232.5552697377915763
 30
0.0
 40
1.5
  0
LINE
  5
105
100
AcDbEntity
100
AcDbLine
  8
extras
 62
256
370
-3
  6
ByLayer
 10
44.9973628692901428
 20
5.0000000000399751
 30
0.0
 11
54.9973628692901428
 21
5.0000000000399751
 31
0.0
  0
LINE
  5
106
100
AcDbEntity
100
AcDbLine
  8
extras
 62
256
370
-3
  6
ByLayer
 10
84.9973628692901428
 20
5.0000000000399645
 30
0.0
 11
94.9973628692901428
 21
5.0000000000399618
 31
0.0
  0
LINE
  5
107
100
AcDbEntity
100
AcDbLine
  8
extras
 62
256
370
-3
  6
ByLayer
 10
84.9973628692901428
 20
10.0000000000400178
 30
0.0
 11
84.9973628692901428
 21
5.0000000000399751
 31
0.0
  0
LINE
  5
108
100
AcDbEntity
100
AcDbLine
  8
extras
 62
256
370
-3
  6
ByLayer
 10
84.9973628692901428
 20
10.0000000000400178
 30
0.0
 11
94.9973628692901428
 21
10.000000000039968
 31
0.0
  0
LINE
  5
109
100
AcDbEntity
100
AcDbLine
  8
extras
 62
256
370
-3
  6
ByLayer
 10
94.9973628692901428
 20
5.0000000000399751
 30
0.0
 11
94.9973628692901428
 21
10.000000000039968
 31
0.0
  0
LINE
  5
10A
100
AcDbEntity
100
AcDbLine
  8
extras
 62
256
370
-3
  6
ByLayer
 10
54.9973628692901428
 20
5.0000000000399751
 30
0.0
 11
54.9973628692901428
 21
10.0000000000399769
 31
0.0
  0
LINE
  5
10B
100
AcDbEntity
100
AcDbLine
  8
extras
 62
256
370
-3
  6
ByLayer
 10
44.9973628692901428
 20
10.0000000000399751
 30
0.0
 11
54.9973628692901428
 21
10.0000000000399769
 31
0.0
  0
LINE
  5
10C
100
AcDbEntity
100
AcDbLine
  8
extras
 62
256
370
-3
  6
ByLayer
 10
44.9973628692901428
 20
10.0000000000399751
 30
0.0
 11
44.9973628692901428
 21
5.0000000000399751
 31
0.0
  0
CIRCLE
  5
10D
100
AcDbEntity
100
AcDbCircle
  8
extras
 62
256
370
-3
  6
ByLayer
 10
69.9973628692901428
 20
7.5000000000399574
 30
0.0
 40
1.5
  0
LINE
  5
10E
100
AcDbEntity
100
AcDbLine
  8
extras
 62
256
370
-3
  6
ByLayer
 10
184.9973628692897023
 20
4.9999999999999147
 30
0.0
 11
194.9973628692897023
 21
4.9999999999999147
 31
0.0
  0
LINE
  5
10F
100
AcDbEntity
100
AcDbLine
  8
extras
 62
256
370
-3
  6
ByLayer
 10
224.9973628692897023
 20
4.9999999999999041
 30
0.0
 11
234.9973628692897023
 21
4.9999999999999014
 31
0.0
  0
LINE
  5
110
100
AcDbEntity
100
AcDbLine
  8
extras
 62
256
370
-3
  6
ByLayer
 10
224.9973628692897023
 20
9.9999999999999574
 30
0.0
 11
224.9973628692897023
 21
4.9999999999999147
 31
0.0
  0
LINE
  5
111
100
AcDbEntity
100
AcDbLine
  8
extras
 62
256
370
-3
  6
ByLayer
 10
224.9973628692897023
 20
9.9999999999999574
 30
0.0
 11
234.9973628692897023
 21
9.9999999999999076
 31
0.0
  0
LINE
  5
112
100
AcDbEntity
100
AcDbLine
  8
extras
 62
256
370
-3
  6
ByLayer
 10
234.9973628692897023
 20
4.9999999999999147
 30
0.0
 11
234.9973628692897023
 21
9.9999999999999076
 31
0.0
  0
LINE
  5
113
100
AcDbEntity
100
AcDbLine
  8
extras
 62
256
370
-3
  6
ByLayer
 10
194.9973628692897023
 20
4.9999999999999147
 30
0.0
 11
194.9973628692897023
 21
9.9999999999999165
 31
0.0
  0
LINE
  5
114
100
AcDbEntity
100
AcDbLine
  8
extras
 62
256
370
-3
  6
ByLayer
 10
184.9973628692897023
 20
9.9999999999999147
 30
0.0
 11
194.9973628692897023
 21
9.9999999999999165
 31
0.0
  0
LINE
  5
115
100
AcDbEntity
100
AcDbLine
  8
extras
 62
256
370
-3
  6
ByLayer
 10
184.9973628692897023
 20
9.9999999999999147
 30
0.0
 11
184.9973628692897023
 21
4.9999999999999147
 31
0.0
  0
CIRCLE
  5
116
100
AcDbEntity
100
AcDbCircle
  8
extras
 62
256
370
-3
  6
ByLayer
 10
209.9973628692897023
 20
7.499999999999897
 30
0.0
 40
1.5
  0
DIMENSION
  5
117
100
AcDbEntity
  8
dim
 62
2
370
-1
  6
ByLayer
100
AcDbDimension
 10
-30.0000000000000036
 20
84.9967797430703769
 30
0.0
 11
-31.8750000000000071
 21
42.4983898715351813
 31
0.0
 70
0
 71
5
 72
0
 41
1.0
 42
0.0
  1

  3
Standard
100
AcDbAlignedDimension
 13
0.0
 23
0.0
 33
0.0
 14
10.0001875684984718
 24
84.9967797430703769
 34
0.0
 50
90.0
100
AcDbRotatedDimension
  0
DIMENSION
  5
118
100
AcDbEntity
  8
dim
 62
2
370
-1
  6
ByLayer
100
AcDbDimension
 10
10.0001875684984665
 20
-30.0
 30
0.0
 11
5.0000937842492359
 21
-28.125
 31
0.0
 70
0
 71
5
 72
0
 41
1.0
 42
0.0
  1

  3
Standard
100
AcDbAlignedDimension
 13
0.0
 23
0.0
 33
0.0
 14
10.0001875684984718
 24
84.9967797430703769
 34
0.0
 50
0.0
100
AcDbRotatedDimension
  0
LINE
  5
119
100
AcDbEntity
100
AcDbLine
  8
0
 62
256
370
-3
  6
ByLayer
 10
0.0000000000000458
 20
25.0316448741650959
 30
0.0
 11
0.0
 21
0.0
 31
0.0
  0
ENDSEC
  0
SECTION
  2
OBJECTS
  0
DICTIONARY
  5
C
100
AcDbDictionary
280
0
281
1
  3
ACAD_GROUP
350
D
  3
ACAD_LAYOUT
350
1A
  3
ACAD_MLINESTYLE
350
17
  3
ACAD_PLOTSETTINGS
350
19
  3
ACAD_PLOTSTYLENAME
350
E
  3
AcDbVariableDictionary
350
11A
  0
DICTIONARY
  5
D
100
AcDbDictionary
280
0
281
1
  0
ACDBDICTIONARYWDFLT
  5
E
100
AcDbDictionary
281
1
  3
Normal
350
F
100
AcDbDictionaryWithDefault
340
F
  0
ACDBPLACEHOLDER
  5
F
  0
DICTIONARY
  5
17
100
AcDbDictionary
280
0
281
1
  3
Standard
350
18
  0
MLINESTYLE
  5
18
100
AcDbMlineStyle
  2
STANDARD
 70
0
  3

 62
256
 51
90.0
 52
90.0
 71
2
 49
0.5
 62
256
  6
BYLAYER
 49
-0.5
 62
256
  6
BYLAYER
  0
DICTIONARY
  5
19
100
AcDbDictionary
280
0
281
1
  0
DICTIONARY
  5
1A
100
AcDbDictionary
281
1
  3
Layout1
350
1E
  3
Layout2
350
26
  3
Model
350
22
  0
LAYOUT
  5
1E
100
AcDbPlotSettings
  1

  2
C:\Program Files\AutoCAD 2002\plotters\DWF ePlot (optimized for plotting).pc3
  4

  6

 40
0.0
 41
0.0
 42
0.0
 43
0.0
 44
0.0
 45
0.0
 46
0.0
 47
0.0
 48
0.0
 49
0.0
140
0.0
141
0.0
142
1.0
143
1.0
 70
688
 72
0
 73
0
 74
5
  7

 75
16
147
1.0
148
0.0
149
0.0
100
AcDbLayout
  1
Layout1
 70
1
 71
1
 10
0.0
 20
0.0
 11
420.0
 21
297.0
 12
0.0
 22
0.0
 32
0.0
 14
100000000000000000000.0
 24
100000000000000000000.0
 34
100000000000000000000.0
 15
-100000000000000000000.0
 25
-100000000000000000000.0
 35
-100000000000000000000.0
146
0.0
 13
0.0
 23
0.0
 33
0.0
 16
1.0
 26
0.0
 36
0.0
 17
0.0
 27
1.0
 37
0.0
 76
0
330
1B
  0
LAYOUT
  5
22
100
AcDbPlotSettings
  1

  2
C:\Program Files\AutoCAD 2002\plotters\DWF ePlot (optimized for plotting).pc3
  4

  6

 40
0.0
 41
0.0
 42
0.0
 43
0.0
 44
0.0
 45
0.0
 46
0.0
 47
0.0
 48
0.0
 49
0.0
140
0.0
141
0.0
142
1.0
143
1.0
 70
1712
 72
0
 73
0
 74
0
  7

 75
0
147
1.0
148
0.0
149
0.0
100
AcDbLayout
  1
Model
 70
1
 71
0
 10
0.0
 20
0.0
 11
12.0
 21
9.0
 12
0.0
 22
0.0
 32
0.0
 14
0.0
 24
0.0
 34
0.0
 15
0.0
 25
0.0
 35
0.0
146
0.0
 13
0.0
 23
0.0
 33
0.0
 16
1.0
 26
0.0
 36
0.0
 17
0.0
 27
1.0
 37
0.0
 76
0
330
1F
  0
LAYOUT
  5
26
100
AcDbPlotSettings
  1

  2
C:\Program Files\AutoCAD 2002\plotters\DWF ePlot (optimized for plotting).pc3
  4

  6

 40
0.0
 41
0.0
 42
0.0
 43
0.0
 44
0.0
 45
0.0
 46
0.0
 47
0.0
 48
0.0
 49
0.0
140
0.0
141
0.0
142
1.0
143
1.0
 70
688
 72
0
 73
0
 74
5
  7

 75
16
147
1.0
148
0.0
149
0.0
100
AcDbLayout
  1
Layout2
 70
1
 71
2
 10
0.0
 20
0.0
 11
12.0
 21
9.0
 12
0.0
 22
0.0
 32
0.0
 14
0.0
 24
0.0
 34
0.0
 15
0.0
 25
0.0
 35
0.0
146
0.0
 13
0.0
 23
0.0
 33
0.0
 16
1.0
 26
0.0
 36
0.0
 17
0.0
 27
1.0
 37
0.0
 76
0
330
23
  0
DICTIONARY
  5
11A
100
AcDbDictionary
281
1
  3
DIMASSOC
350
11C
  3
HIDETEXT
350
11B
  0
DICTIONARYVAR
  5
11B
100
DictionaryVariables
280
0
  1
2
  0
DICTIONARYVAR
  5
11C
100
DictionaryVariables
280
0
  1
1
  0
ENDSEC
  0
EOF
