G04 #@! TF.FileFunction,Copper,L2,Bot,Signal*
%FSLAX46Y46*%
G04 Gerber Fmt 4.6, Leading zero omitted, Abs format (unit mm)*
G04 Created by KiCad (PCBNEW 0.201602101416+6546~42~ubuntu14.04.1-product) date Thu 11 Feb 2016 08:58:18 AM CET*
%MOMM*%
G01*
G04 APERTURE LIST*
%ADD10C,0.100000*%
%ADD11O,0.950000X1.250000*%
%ADD12O,1.550000X1.000000*%
%ADD13R,1.727200X1.727200*%
%ADD14O,1.727200X1.727200*%
%ADD15R,2.032000X2.032000*%
%ADD16O,2.032000X2.032000*%
%ADD17C,3.500000*%
%ADD18C,0.600000*%
%ADD19C,0.250000*%
%ADD20C,0.500000*%
%ADD21C,0.200000*%
%ADD22C,0.254000*%
G04 APERTURE END LIST*
D10*
D11*
X104432540Y-121959100D03*
X104432540Y-126959100D03*
D12*
X101732540Y-120959100D03*
X101732540Y-127959100D03*
D13*
X116840000Y-105410000D03*
D14*
X116840000Y-102870000D03*
X114300000Y-105410000D03*
X114300000Y-102870000D03*
X111760000Y-105410000D03*
X111760000Y-102870000D03*
X109220000Y-105410000D03*
X109220000Y-102870000D03*
X106680000Y-105410000D03*
X106680000Y-102870000D03*
X104140000Y-105410000D03*
X104140000Y-102870000D03*
D13*
X139700000Y-105410000D03*
D14*
X139700000Y-102870000D03*
X137160000Y-105410000D03*
X137160000Y-102870000D03*
X134620000Y-105410000D03*
X134620000Y-102870000D03*
X132080000Y-105410000D03*
X132080000Y-102870000D03*
X129540000Y-105410000D03*
X129540000Y-102870000D03*
X127000000Y-105410000D03*
X127000000Y-102870000D03*
D13*
X144780000Y-119380000D03*
D14*
X147320000Y-119380000D03*
X144780000Y-116840000D03*
X147320000Y-116840000D03*
X144780000Y-114300000D03*
X147320000Y-114300000D03*
X144780000Y-111760000D03*
X147320000Y-111760000D03*
X144780000Y-109220000D03*
X147320000Y-109220000D03*
X144780000Y-106680000D03*
X147320000Y-106680000D03*
D13*
X144780000Y-142240000D03*
D14*
X147320000Y-142240000D03*
X144780000Y-139700000D03*
X147320000Y-139700000D03*
X144780000Y-137160000D03*
X147320000Y-137160000D03*
X144780000Y-134620000D03*
X147320000Y-134620000D03*
X144780000Y-132080000D03*
X147320000Y-132080000D03*
X144780000Y-129540000D03*
X147320000Y-129540000D03*
D13*
X127000000Y-144780000D03*
D14*
X127000000Y-147320000D03*
X129540000Y-144780000D03*
X129540000Y-147320000D03*
X132080000Y-144780000D03*
X132080000Y-147320000D03*
X134620000Y-144780000D03*
X134620000Y-147320000D03*
X137160000Y-144780000D03*
X137160000Y-147320000D03*
X139700000Y-144780000D03*
X139700000Y-147320000D03*
D13*
X104140000Y-144780000D03*
D14*
X104140000Y-147320000D03*
X106680000Y-144780000D03*
X106680000Y-147320000D03*
X109220000Y-144780000D03*
X109220000Y-147320000D03*
X111760000Y-144780000D03*
X111760000Y-147320000D03*
X114300000Y-144780000D03*
X114300000Y-147320000D03*
X116840000Y-144780000D03*
X116840000Y-147320000D03*
D13*
X102235000Y-133350000D03*
D14*
X104775000Y-133350000D03*
X102235000Y-135890000D03*
X104775000Y-135890000D03*
X102235000Y-138430000D03*
X104775000Y-138430000D03*
X102235000Y-140970000D03*
X104775000Y-140970000D03*
D15*
X120650000Y-141605000D03*
D16*
X123190000Y-141605000D03*
D17*
X146050000Y-124460000D03*
X121920000Y-146050000D03*
X121920000Y-104140000D03*
D18*
X124305584Y-109050411D03*
X125361858Y-108948033D03*
X124460000Y-110490000D03*
X123825000Y-109689987D03*
X122555000Y-111760000D03*
X123825000Y-111125000D03*
X120650000Y-113030000D03*
X121920000Y-112395000D03*
X118110000Y-127000000D03*
X115570000Y-129540000D03*
X125095000Y-123825000D03*
X127000000Y-125730000D03*
X123825000Y-116205000D03*
X120015000Y-114934978D03*
X112649000Y-134620000D03*
X128270000Y-118110000D03*
X139065000Y-116840000D03*
X140970000Y-113665000D03*
X114300000Y-134620000D03*
X113030000Y-139700000D03*
X130175000Y-122555000D03*
X128270000Y-120650004D03*
X111760000Y-130175000D03*
X104140000Y-112550000D03*
X106680000Y-116840000D03*
X108585000Y-116205000D03*
X125095000Y-114935000D03*
X124460000Y-107315000D03*
X119380000Y-127635000D03*
X116840000Y-135890000D03*
X142240000Y-107315000D03*
X117484064Y-113172009D03*
X131444996Y-116205000D03*
X132590544Y-131569456D03*
X101600000Y-106680000D03*
X121285000Y-119380000D03*
X138430000Y-123190000D03*
X135890000Y-128905000D03*
X125730000Y-133985000D03*
X116205000Y-124460000D03*
X108585000Y-111760000D03*
X104930000Y-116840000D03*
X106680000Y-135254970D03*
X117475008Y-125730000D03*
X113030000Y-125095000D03*
X121920000Y-130810000D03*
X108585000Y-133350000D03*
X125730000Y-118745000D03*
X116859605Y-131699375D03*
X127000000Y-113665000D03*
X137147039Y-110429024D03*
X136525000Y-134620000D03*
X128270000Y-130810000D03*
X129540000Y-119380000D03*
X129794000Y-108204000D03*
X120015000Y-123190000D03*
X121285000Y-127000000D03*
X125095000Y-132715000D03*
X117475000Y-132715000D03*
X115570000Y-133985000D03*
X115570000Y-139065000D03*
X112777562Y-113282438D03*
X115570000Y-119380000D03*
X114944999Y-118754999D03*
X114300000Y-116205000D03*
X112970606Y-114359394D03*
X114300000Y-120015000D03*
X113030000Y-115675010D03*
X110490000Y-120015000D03*
X108585000Y-113665000D03*
X116272089Y-113097089D03*
X111760000Y-118110000D03*
X113665000Y-121285000D03*
X119380010Y-134620000D03*
X118110000Y-134620000D03*
X121090029Y-137063334D03*
X120581120Y-135821120D03*
X122244103Y-137704033D03*
X122301250Y-136569834D03*
X105410000Y-120650000D03*
X111125000Y-127000000D03*
X114633691Y-113865732D03*
X117475000Y-122555000D03*
X123602963Y-119602071D03*
X126365000Y-116839942D03*
X131015097Y-109079012D03*
X138264971Y-110490000D03*
X131064986Y-109877467D03*
X139700000Y-110490000D03*
X106070021Y-107950000D03*
X102235000Y-109855000D03*
X106680000Y-128905000D03*
X103505000Y-120650000D03*
X113030000Y-127635000D03*
X113030000Y-128905000D03*
X114300000Y-128270000D03*
X114300000Y-129540000D03*
X142875000Y-102870000D03*
X140335000Y-107950000D03*
X140970000Y-111760000D03*
X137160000Y-113030000D03*
D19*
X116840000Y-105410000D02*
X116840000Y-107188000D01*
X116840000Y-107188000D02*
X118702411Y-109050411D01*
X118702411Y-109050411D02*
X123881320Y-109050411D01*
X123881320Y-109050411D02*
X124305584Y-109050411D01*
X116840000Y-102870000D02*
X118110000Y-104140000D01*
X118110000Y-104140000D02*
X118110000Y-107696000D01*
X118110000Y-107696000D02*
X118839410Y-108425410D01*
X118839410Y-108425410D02*
X124839235Y-108425410D01*
X124839235Y-108425410D02*
X125061859Y-108648034D01*
X125061859Y-108648034D02*
X125361858Y-108948033D01*
X124460000Y-110490000D02*
X118491000Y-110490000D01*
X118491000Y-110490000D02*
X114300000Y-106299000D01*
X114300000Y-106299000D02*
X114300000Y-105410000D01*
X114300000Y-102870000D02*
X115488601Y-104058601D01*
X115488601Y-104058601D02*
X115488601Y-106598601D01*
X123400736Y-109689987D02*
X123825000Y-109689987D01*
X115488601Y-106598601D02*
X118579987Y-109689987D01*
X118579987Y-109689987D02*
X123400736Y-109689987D01*
X111933401Y-105410000D02*
X111760000Y-105410000D01*
X122555000Y-111760000D02*
X118283401Y-111760000D01*
X118283401Y-111760000D02*
X111933401Y-105410000D01*
X113121399Y-105975729D02*
X113121399Y-104231399D01*
X123825000Y-111125000D02*
X118270670Y-111125000D01*
X118270670Y-111125000D02*
X113121399Y-105975729D01*
X113121399Y-104231399D02*
X112623599Y-103733599D01*
X112623599Y-103733599D02*
X111760000Y-102870000D01*
X120650000Y-113030000D02*
X118308864Y-113030000D01*
X110838612Y-107028612D02*
X110083599Y-106273599D01*
X112307476Y-107028612D02*
X110838612Y-107028612D01*
X110083599Y-106273599D02*
X109220000Y-105410000D01*
X118308864Y-113030000D02*
X112307476Y-107028612D01*
X110083599Y-103733599D02*
X109220000Y-102870000D01*
X110581399Y-105975729D02*
X110581399Y-104231399D01*
X110581399Y-104231399D02*
X110083599Y-103733599D01*
X111194271Y-106588601D02*
X110581399Y-105975729D01*
X121920000Y-112395000D02*
X118296132Y-112395000D01*
X112489733Y-106588601D02*
X111194271Y-106588601D01*
X118296132Y-112395000D02*
X112489733Y-106588601D01*
D20*
X115570000Y-129540000D02*
X118110000Y-127000000D01*
X127000000Y-125730000D02*
X125095000Y-123825000D01*
X122554978Y-114934978D02*
X123525001Y-115905001D01*
X120015000Y-114934978D02*
X122554978Y-114934978D01*
X123525001Y-115905001D02*
X123825000Y-116205000D01*
X114300000Y-134620000D02*
X113030000Y-134620000D01*
X113030000Y-134620000D02*
X112649000Y-134620000D01*
X113030000Y-139700000D02*
X113030000Y-135001000D01*
X113030000Y-135001000D02*
X113030000Y-134620000D01*
X128270000Y-120650004D02*
X128270000Y-118110000D01*
X140970000Y-113665000D02*
X140970000Y-114935000D01*
X140970000Y-114935000D02*
X139065000Y-116840000D01*
X128270000Y-120650004D02*
X128270004Y-120650004D01*
X128270004Y-120650004D02*
X130175000Y-122555000D01*
D19*
X102235000Y-135890000D02*
X103156388Y-134968612D01*
X103156388Y-134968612D02*
X103791388Y-134968612D01*
X103791388Y-134968612D02*
X104048601Y-134711399D01*
X104048601Y-134711399D02*
X106136429Y-134711399D01*
X106136429Y-134711399D02*
X106380001Y-134954971D01*
X106380001Y-134954971D02*
X106680000Y-135254970D01*
X117050744Y-125730000D02*
X117475008Y-125730000D01*
X113665000Y-125730000D02*
X117050744Y-125730000D01*
X113030000Y-125095000D02*
X113665000Y-125730000D01*
X115570000Y-125730000D02*
X117475008Y-125730000D01*
X104775000Y-133350000D02*
X108585000Y-133350000D01*
X137147039Y-110429024D02*
X135131008Y-108412993D01*
X135131008Y-108412993D02*
X130601007Y-108412993D01*
X130601007Y-108412993D02*
X130392014Y-108204000D01*
X130392014Y-108204000D02*
X129794000Y-108204000D01*
X130175000Y-128270000D02*
X130810000Y-128905000D01*
X136525000Y-134620000D02*
X130175000Y-128270000D01*
X121285000Y-127000000D02*
X122555000Y-125730000D01*
X122555000Y-125730000D02*
X120015000Y-123190000D01*
X117475000Y-132715000D02*
X125095000Y-132715000D01*
X112777562Y-113282438D02*
X113665000Y-114169876D01*
X113665000Y-114169876D02*
X113665000Y-118385202D01*
X113665000Y-118385202D02*
X114659798Y-119380000D01*
X114659798Y-119380000D02*
X115145736Y-119380000D01*
X115145736Y-119380000D02*
X115570000Y-119380000D01*
X115570000Y-139065000D02*
X115570000Y-133985000D01*
X114300000Y-118110000D02*
X114944999Y-118754999D01*
X114300000Y-118110000D02*
X114300000Y-116205000D01*
X113030000Y-115675010D02*
X113030000Y-114418788D01*
X113030000Y-114418788D02*
X112970606Y-114359394D01*
X114300000Y-120015000D02*
X113030000Y-118745000D01*
X113030000Y-118745000D02*
X113030000Y-115675010D01*
X110490000Y-120015000D02*
X111125000Y-119380000D01*
X111125000Y-119380000D02*
X111760000Y-119380000D01*
X114300000Y-111760000D02*
X110490000Y-111760000D01*
X110490000Y-111760000D02*
X108585000Y-113665000D01*
X116272089Y-113097089D02*
X114935000Y-111760000D01*
X114935000Y-111760000D02*
X114300000Y-111760000D01*
X113665000Y-121285000D02*
X111760000Y-119380000D01*
X111760000Y-119380000D02*
X111760000Y-118110000D01*
X119380002Y-134620008D02*
X119380010Y-134620000D01*
X107078646Y-141841354D02*
X115333645Y-141841354D01*
X119380002Y-135044264D02*
X119380002Y-134620008D01*
X104140000Y-144780000D02*
X107078646Y-141841354D01*
X119380002Y-135254998D02*
X119380002Y-135044264D01*
X119380000Y-135255000D02*
X119380002Y-135254998D01*
X115333645Y-141841354D02*
X119380002Y-137794997D01*
X119380002Y-137794997D02*
X119380002Y-135044264D01*
X118110000Y-135044264D02*
X118110000Y-134620000D01*
X106883655Y-141401345D02*
X115138655Y-141401345D01*
X102870000Y-146050000D02*
X102870000Y-143764000D01*
X104775000Y-143510000D02*
X106883655Y-141401345D01*
X102870000Y-143764000D02*
X103124000Y-143510000D01*
X104140000Y-147320000D02*
X102870000Y-146050000D01*
X115138655Y-141401345D02*
X118110000Y-138430000D01*
X118110000Y-138430000D02*
X118110000Y-135044264D01*
X103124000Y-143510000D02*
X104775000Y-143510000D01*
X109220000Y-144780000D02*
X111278623Y-142721377D01*
X111278623Y-142721377D02*
X115698161Y-142721377D01*
X121031000Y-137388538D02*
X121031000Y-137122363D01*
X115698161Y-142721377D02*
X121031000Y-137388538D01*
X121031000Y-137122363D02*
X121090029Y-137063334D01*
X120225545Y-137571724D02*
X120225545Y-136176695D01*
X115515903Y-142281366D02*
X120225545Y-137571724D01*
X109959504Y-142281366D02*
X115515903Y-142281366D01*
X120281121Y-136121119D02*
X120581120Y-135821120D01*
X108031399Y-146131399D02*
X108031399Y-144209471D01*
X109220000Y-147320000D02*
X108031399Y-146131399D01*
X108031399Y-144209471D02*
X109959504Y-142281366D01*
X120225545Y-136176695D02*
X120281121Y-136121119D01*
X111760000Y-144780000D02*
X112938601Y-143601399D01*
X112938601Y-143601399D02*
X116113601Y-143601399D01*
X116113601Y-143601399D02*
X121920000Y-137795000D01*
X122174000Y-137795000D02*
X122174000Y-137774136D01*
X121920000Y-137795000D02*
X122174000Y-137795000D01*
X122174000Y-137774136D02*
X122244103Y-137704033D01*
X111760000Y-147320000D02*
X110571399Y-146131399D01*
X110571399Y-146131399D02*
X110571399Y-144209471D01*
X122299367Y-136779000D02*
X122301000Y-136779000D01*
X110571399Y-144209471D02*
X111619482Y-143161388D01*
X111619482Y-143161388D02*
X115916979Y-143161388D01*
X115916979Y-143161388D02*
X122299367Y-136779000D01*
X122301000Y-136779000D02*
X122301000Y-136570084D01*
X122301000Y-136570084D02*
X122301250Y-136569834D01*
X111125000Y-127000000D02*
X111125000Y-126365000D01*
X111125000Y-126365000D02*
X105410000Y-120650000D01*
X117475000Y-122555000D02*
X117475000Y-116707041D01*
X114933690Y-114165731D02*
X114633691Y-113865732D01*
X117475000Y-116707041D02*
X114933690Y-114165731D01*
X138264971Y-110490000D02*
X137629971Y-111125000D01*
X137629971Y-111125000D02*
X136906000Y-111125000D01*
X136906000Y-111125000D02*
X134860012Y-109079012D01*
X134860012Y-109079012D02*
X131015097Y-109079012D01*
X123602963Y-119601979D02*
X123602963Y-119602071D01*
X126365000Y-116839942D02*
X123602963Y-119601979D01*
X139700000Y-110490000D02*
X138557000Y-111633000D01*
X138557000Y-111633000D02*
X136652000Y-111633000D01*
X136652000Y-111633000D02*
X134874000Y-109855000D01*
X134874000Y-109855000D02*
X131087453Y-109855000D01*
X131087453Y-109855000D02*
X131064986Y-109877467D01*
X104140000Y-107950000D02*
X105645757Y-107950000D01*
X102235000Y-109855000D02*
X104140000Y-107950000D01*
X105645757Y-107950000D02*
X106070021Y-107950000D01*
X103505000Y-120650000D02*
X103505000Y-123190000D01*
X103505000Y-123190000D02*
X106680000Y-126365000D01*
X106680000Y-126365000D02*
X106680000Y-128480736D01*
X106680000Y-128480736D02*
X106680000Y-128905000D01*
X106680000Y-127635000D02*
X106680000Y-128905000D01*
X113030000Y-127635000D02*
X112395000Y-128270000D01*
X112395000Y-130782734D02*
X112414999Y-130802733D01*
X112395000Y-128270000D02*
X112395000Y-130782734D01*
X111137732Y-132080000D02*
X112414999Y-130802733D01*
X104285870Y-132080000D02*
X111137732Y-132080000D01*
X103350601Y-134528601D02*
X103505000Y-134374202D01*
X101837269Y-134528601D02*
X103350601Y-134528601D01*
X101046399Y-135319471D02*
X101837269Y-134528601D01*
X101046399Y-137241399D02*
X101046399Y-135319471D01*
X103505000Y-134374202D02*
X103505000Y-132860870D01*
X103505000Y-132860870D02*
X104285870Y-132080000D01*
X102235000Y-138430000D02*
X101046399Y-137241399D01*
X104775000Y-138430000D02*
X105791000Y-138430000D01*
X105791000Y-138430000D02*
X113030000Y-131191000D01*
X113030000Y-131191000D02*
X113030000Y-129329264D01*
X113030000Y-129329264D02*
X113030000Y-128905000D01*
X102235000Y-140970000D02*
X103505000Y-139700000D01*
X103505000Y-139700000D02*
X105249330Y-139700000D01*
X105249330Y-139700000D02*
X113684998Y-131264332D01*
X114000001Y-128569999D02*
X114300000Y-128270000D01*
X113684998Y-131264332D02*
X113684998Y-128885002D01*
X113684998Y-128885002D02*
X114000001Y-128569999D01*
X114300000Y-129964264D02*
X114300000Y-129540000D01*
X104775000Y-140970000D02*
X114300000Y-131445000D01*
X114300000Y-131445000D02*
X114300000Y-129964264D01*
X140335000Y-107950000D02*
X142875000Y-105410000D01*
X142875000Y-105410000D02*
X142875000Y-102870000D01*
X137160000Y-113030000D02*
X139700000Y-113030000D01*
X139700000Y-113030000D02*
X140970000Y-111760000D01*
D21*
G36*
X149625000Y-149625000D02*
X100375000Y-149625000D01*
X100375000Y-143764000D01*
X102445000Y-143764000D01*
X102445000Y-146050000D01*
X102466164Y-146156400D01*
X102477351Y-146212641D01*
X102569480Y-146350520D01*
X103062803Y-146843843D01*
X103042178Y-146874710D01*
X102953604Y-147320000D01*
X103042178Y-147765290D01*
X103294415Y-148142789D01*
X103671914Y-148395026D01*
X104117204Y-148483600D01*
X104162796Y-148483600D01*
X104608086Y-148395026D01*
X104985585Y-148142789D01*
X105237822Y-147765290D01*
X105326396Y-147320000D01*
X105493604Y-147320000D01*
X105582178Y-147765290D01*
X105834415Y-148142789D01*
X106211914Y-148395026D01*
X106657204Y-148483600D01*
X106702796Y-148483600D01*
X107148086Y-148395026D01*
X107525585Y-148142789D01*
X107777822Y-147765290D01*
X107866396Y-147320000D01*
X107777822Y-146874710D01*
X107525585Y-146497211D01*
X107148086Y-146244974D01*
X106702796Y-146156400D01*
X106657204Y-146156400D01*
X106211914Y-146244974D01*
X105834415Y-146497211D01*
X105582178Y-146874710D01*
X105493604Y-147320000D01*
X105326396Y-147320000D01*
X105237822Y-146874710D01*
X104985585Y-146497211D01*
X104608086Y-146244974D01*
X104162796Y-146156400D01*
X104117204Y-146156400D01*
X103671914Y-146244974D01*
X103668377Y-146247337D01*
X103370517Y-145949477D01*
X105003600Y-145949477D01*
X105120654Y-145926193D01*
X105219888Y-145859888D01*
X105286193Y-145760654D01*
X105309477Y-145643600D01*
X105309477Y-144211563D01*
X107254686Y-142266354D01*
X109373475Y-142266354D01*
X107730879Y-143908951D01*
X107638750Y-144046830D01*
X107638750Y-144046831D01*
X107626527Y-144108281D01*
X107525585Y-143957211D01*
X107148086Y-143704974D01*
X106702796Y-143616400D01*
X106657204Y-143616400D01*
X106211914Y-143704974D01*
X105834415Y-143957211D01*
X105582178Y-144334710D01*
X105493604Y-144780000D01*
X105582178Y-145225290D01*
X105834415Y-145602789D01*
X106211914Y-145855026D01*
X106657204Y-145943600D01*
X106702796Y-145943600D01*
X107148086Y-145855026D01*
X107525585Y-145602789D01*
X107606399Y-145481842D01*
X107606399Y-146131399D01*
X107633383Y-146267056D01*
X107638750Y-146294040D01*
X107730879Y-146431919D01*
X108142803Y-146843843D01*
X108122178Y-146874710D01*
X108033604Y-147320000D01*
X108122178Y-147765290D01*
X108374415Y-148142789D01*
X108751914Y-148395026D01*
X109197204Y-148483600D01*
X109242796Y-148483600D01*
X109688086Y-148395026D01*
X110065585Y-148142789D01*
X110317822Y-147765290D01*
X110406396Y-147320000D01*
X110317822Y-146874710D01*
X110065585Y-146497211D01*
X109688086Y-146244974D01*
X109242796Y-146156400D01*
X109197204Y-146156400D01*
X108751914Y-146244974D01*
X108748377Y-146247337D01*
X108456399Y-145955359D01*
X108456399Y-145657569D01*
X108751914Y-145855026D01*
X109197204Y-145943600D01*
X109242796Y-145943600D01*
X109688086Y-145855026D01*
X110065585Y-145602789D01*
X110146399Y-145481842D01*
X110146399Y-146131399D01*
X110173383Y-146267056D01*
X110178750Y-146294040D01*
X110270879Y-146431919D01*
X110682803Y-146843843D01*
X110662178Y-146874710D01*
X110573604Y-147320000D01*
X110662178Y-147765290D01*
X110914415Y-148142789D01*
X111291914Y-148395026D01*
X111737204Y-148483600D01*
X111782796Y-148483600D01*
X112228086Y-148395026D01*
X112605585Y-148142789D01*
X112857822Y-147765290D01*
X112946396Y-147320000D01*
X113113604Y-147320000D01*
X113202178Y-147765290D01*
X113454415Y-148142789D01*
X113831914Y-148395026D01*
X114277204Y-148483600D01*
X114322796Y-148483600D01*
X114768086Y-148395026D01*
X115145585Y-148142789D01*
X115397822Y-147765290D01*
X115440398Y-147551243D01*
X115699609Y-147551243D01*
X115870104Y-147962867D01*
X116189948Y-148285095D01*
X116608756Y-148460396D01*
X116790000Y-148407530D01*
X116790000Y-147370000D01*
X116890000Y-147370000D01*
X116890000Y-148407530D01*
X117071244Y-148460396D01*
X117490052Y-148285095D01*
X117809896Y-147962867D01*
X117980391Y-147551243D01*
X117927451Y-147370000D01*
X116890000Y-147370000D01*
X116790000Y-147370000D01*
X115752549Y-147370000D01*
X115699609Y-147551243D01*
X115440398Y-147551243D01*
X115486396Y-147320000D01*
X115440399Y-147088757D01*
X115699609Y-147088757D01*
X115752549Y-147270000D01*
X116790000Y-147270000D01*
X116790000Y-146232470D01*
X116890000Y-146232470D01*
X116890000Y-147270000D01*
X117927451Y-147270000D01*
X117980391Y-147088757D01*
X117809896Y-146677133D01*
X117490052Y-146354905D01*
X117071244Y-146179604D01*
X116890000Y-146232470D01*
X116790000Y-146232470D01*
X116608756Y-146179604D01*
X116189948Y-146354905D01*
X115870104Y-146677133D01*
X115699609Y-147088757D01*
X115440399Y-147088757D01*
X115397822Y-146874710D01*
X115145585Y-146497211D01*
X114768086Y-146244974D01*
X114322796Y-146156400D01*
X114277204Y-146156400D01*
X113831914Y-146244974D01*
X113454415Y-146497211D01*
X113202178Y-146874710D01*
X113113604Y-147320000D01*
X112946396Y-147320000D01*
X112857822Y-146874710D01*
X112605585Y-146497211D01*
X112228086Y-146244974D01*
X111782796Y-146156400D01*
X111737204Y-146156400D01*
X111291914Y-146244974D01*
X111288377Y-146247337D01*
X110996399Y-145955359D01*
X110996399Y-145657569D01*
X111291914Y-145855026D01*
X111737204Y-145943600D01*
X111782796Y-145943600D01*
X112228086Y-145855026D01*
X112605585Y-145602789D01*
X112857822Y-145225290D01*
X112946396Y-144780000D01*
X112857822Y-144334710D01*
X112837197Y-144303843D01*
X113114642Y-144026399D01*
X113408185Y-144026399D01*
X113202178Y-144334710D01*
X113113604Y-144780000D01*
X113202178Y-145225290D01*
X113454415Y-145602789D01*
X113831914Y-145855026D01*
X114277204Y-145943600D01*
X114322796Y-145943600D01*
X114768086Y-145855026D01*
X115145585Y-145602789D01*
X115397822Y-145225290D01*
X115440398Y-145011243D01*
X115699609Y-145011243D01*
X115870104Y-145422867D01*
X116189948Y-145745095D01*
X116608756Y-145920396D01*
X116790000Y-145867530D01*
X116790000Y-144830000D01*
X116890000Y-144830000D01*
X116890000Y-145867530D01*
X117071244Y-145920396D01*
X117490052Y-145745095D01*
X117809896Y-145422867D01*
X117980391Y-145011243D01*
X117927451Y-144830000D01*
X116890000Y-144830000D01*
X116790000Y-144830000D01*
X115752549Y-144830000D01*
X115699609Y-145011243D01*
X115440398Y-145011243D01*
X115486396Y-144780000D01*
X119280000Y-144780000D01*
X119280000Y-147320000D01*
X119287612Y-147358268D01*
X119309289Y-147390711D01*
X120579289Y-148660711D01*
X120611732Y-148682388D01*
X120650000Y-148690000D01*
X123190000Y-148690000D01*
X123228268Y-148682388D01*
X123260711Y-148660711D01*
X124530711Y-147390711D01*
X124552388Y-147358268D01*
X124560000Y-147320000D01*
X125813604Y-147320000D01*
X125902178Y-147765290D01*
X126154415Y-148142789D01*
X126531914Y-148395026D01*
X126977204Y-148483600D01*
X127022796Y-148483600D01*
X127468086Y-148395026D01*
X127845585Y-148142789D01*
X128097822Y-147765290D01*
X128186396Y-147320000D01*
X128353604Y-147320000D01*
X128442178Y-147765290D01*
X128694415Y-148142789D01*
X129071914Y-148395026D01*
X129517204Y-148483600D01*
X129562796Y-148483600D01*
X130008086Y-148395026D01*
X130385585Y-148142789D01*
X130637822Y-147765290D01*
X130726396Y-147320000D01*
X130893604Y-147320000D01*
X130982178Y-147765290D01*
X131234415Y-148142789D01*
X131611914Y-148395026D01*
X132057204Y-148483600D01*
X132102796Y-148483600D01*
X132548086Y-148395026D01*
X132925585Y-148142789D01*
X133177822Y-147765290D01*
X133266396Y-147320000D01*
X133433604Y-147320000D01*
X133522178Y-147765290D01*
X133774415Y-148142789D01*
X134151914Y-148395026D01*
X134597204Y-148483600D01*
X134642796Y-148483600D01*
X135088086Y-148395026D01*
X135465585Y-148142789D01*
X135717822Y-147765290D01*
X135806396Y-147320000D01*
X135973604Y-147320000D01*
X136062178Y-147765290D01*
X136314415Y-148142789D01*
X136691914Y-148395026D01*
X137137204Y-148483600D01*
X137182796Y-148483600D01*
X137628086Y-148395026D01*
X138005585Y-148142789D01*
X138257822Y-147765290D01*
X138300398Y-147551243D01*
X138559609Y-147551243D01*
X138730104Y-147962867D01*
X139049948Y-148285095D01*
X139468756Y-148460396D01*
X139650000Y-148407530D01*
X139650000Y-147370000D01*
X139750000Y-147370000D01*
X139750000Y-148407530D01*
X139931244Y-148460396D01*
X140350052Y-148285095D01*
X140669896Y-147962867D01*
X140840391Y-147551243D01*
X140787451Y-147370000D01*
X139750000Y-147370000D01*
X139650000Y-147370000D01*
X138612549Y-147370000D01*
X138559609Y-147551243D01*
X138300398Y-147551243D01*
X138346396Y-147320000D01*
X138300399Y-147088757D01*
X138559609Y-147088757D01*
X138612549Y-147270000D01*
X139650000Y-147270000D01*
X139650000Y-146232470D01*
X139750000Y-146232470D01*
X139750000Y-147270000D01*
X140787451Y-147270000D01*
X140840391Y-147088757D01*
X140669896Y-146677133D01*
X140350052Y-146354905D01*
X139931244Y-146179604D01*
X139750000Y-146232470D01*
X139650000Y-146232470D01*
X139468756Y-146179604D01*
X139049948Y-146354905D01*
X138730104Y-146677133D01*
X138559609Y-147088757D01*
X138300399Y-147088757D01*
X138257822Y-146874710D01*
X138005585Y-146497211D01*
X137628086Y-146244974D01*
X137182796Y-146156400D01*
X137137204Y-146156400D01*
X136691914Y-146244974D01*
X136314415Y-146497211D01*
X136062178Y-146874710D01*
X135973604Y-147320000D01*
X135806396Y-147320000D01*
X135717822Y-146874710D01*
X135465585Y-146497211D01*
X135088086Y-146244974D01*
X134642796Y-146156400D01*
X134597204Y-146156400D01*
X134151914Y-146244974D01*
X133774415Y-146497211D01*
X133522178Y-146874710D01*
X133433604Y-147320000D01*
X133266396Y-147320000D01*
X133177822Y-146874710D01*
X132925585Y-146497211D01*
X132548086Y-146244974D01*
X132102796Y-146156400D01*
X132057204Y-146156400D01*
X131611914Y-146244974D01*
X131234415Y-146497211D01*
X130982178Y-146874710D01*
X130893604Y-147320000D01*
X130726396Y-147320000D01*
X130637822Y-146874710D01*
X130385585Y-146497211D01*
X130008086Y-146244974D01*
X129562796Y-146156400D01*
X129517204Y-146156400D01*
X129071914Y-146244974D01*
X128694415Y-146497211D01*
X128442178Y-146874710D01*
X128353604Y-147320000D01*
X128186396Y-147320000D01*
X128097822Y-146874710D01*
X127845585Y-146497211D01*
X127468086Y-146244974D01*
X127022796Y-146156400D01*
X126977204Y-146156400D01*
X126531914Y-146244974D01*
X126154415Y-146497211D01*
X125902178Y-146874710D01*
X125813604Y-147320000D01*
X124560000Y-147320000D01*
X124560000Y-144780000D01*
X124552388Y-144741732D01*
X124530711Y-144709289D01*
X123737822Y-143916400D01*
X125830523Y-143916400D01*
X125830523Y-145643600D01*
X125853807Y-145760654D01*
X125920112Y-145859888D01*
X126019346Y-145926193D01*
X126136400Y-145949477D01*
X127863600Y-145949477D01*
X127980654Y-145926193D01*
X128079888Y-145859888D01*
X128146193Y-145760654D01*
X128169477Y-145643600D01*
X128169477Y-144780000D01*
X128353604Y-144780000D01*
X128442178Y-145225290D01*
X128694415Y-145602789D01*
X129071914Y-145855026D01*
X129517204Y-145943600D01*
X129562796Y-145943600D01*
X130008086Y-145855026D01*
X130385585Y-145602789D01*
X130637822Y-145225290D01*
X130726396Y-144780000D01*
X130893604Y-144780000D01*
X130982178Y-145225290D01*
X131234415Y-145602789D01*
X131611914Y-145855026D01*
X132057204Y-145943600D01*
X132102796Y-145943600D01*
X132548086Y-145855026D01*
X132925585Y-145602789D01*
X133177822Y-145225290D01*
X133266396Y-144780000D01*
X133433604Y-144780000D01*
X133522178Y-145225290D01*
X133774415Y-145602789D01*
X134151914Y-145855026D01*
X134597204Y-145943600D01*
X134642796Y-145943600D01*
X135088086Y-145855026D01*
X135465585Y-145602789D01*
X135717822Y-145225290D01*
X135806396Y-144780000D01*
X135973604Y-144780000D01*
X136062178Y-145225290D01*
X136314415Y-145602789D01*
X136691914Y-145855026D01*
X137137204Y-145943600D01*
X137182796Y-145943600D01*
X137628086Y-145855026D01*
X138005585Y-145602789D01*
X138257822Y-145225290D01*
X138300398Y-145011243D01*
X138559609Y-145011243D01*
X138730104Y-145422867D01*
X139049948Y-145745095D01*
X139468756Y-145920396D01*
X139650000Y-145867530D01*
X139650000Y-144830000D01*
X139750000Y-144830000D01*
X139750000Y-145867530D01*
X139931244Y-145920396D01*
X140350052Y-145745095D01*
X140669896Y-145422867D01*
X140840391Y-145011243D01*
X140787451Y-144830000D01*
X139750000Y-144830000D01*
X139650000Y-144830000D01*
X138612549Y-144830000D01*
X138559609Y-145011243D01*
X138300398Y-145011243D01*
X138346396Y-144780000D01*
X138300399Y-144548757D01*
X138559609Y-144548757D01*
X138612549Y-144730000D01*
X139650000Y-144730000D01*
X139650000Y-143692470D01*
X139750000Y-143692470D01*
X139750000Y-144730000D01*
X140787451Y-144730000D01*
X140840391Y-144548757D01*
X140669896Y-144137133D01*
X140350052Y-143814905D01*
X139931244Y-143639604D01*
X139750000Y-143692470D01*
X139650000Y-143692470D01*
X139468756Y-143639604D01*
X139049948Y-143814905D01*
X138730104Y-144137133D01*
X138559609Y-144548757D01*
X138300399Y-144548757D01*
X138257822Y-144334710D01*
X138005585Y-143957211D01*
X137628086Y-143704974D01*
X137182796Y-143616400D01*
X137137204Y-143616400D01*
X136691914Y-143704974D01*
X136314415Y-143957211D01*
X136062178Y-144334710D01*
X135973604Y-144780000D01*
X135806396Y-144780000D01*
X135717822Y-144334710D01*
X135465585Y-143957211D01*
X135088086Y-143704974D01*
X134642796Y-143616400D01*
X134597204Y-143616400D01*
X134151914Y-143704974D01*
X133774415Y-143957211D01*
X133522178Y-144334710D01*
X133433604Y-144780000D01*
X133266396Y-144780000D01*
X133177822Y-144334710D01*
X132925585Y-143957211D01*
X132548086Y-143704974D01*
X132102796Y-143616400D01*
X132057204Y-143616400D01*
X131611914Y-143704974D01*
X131234415Y-143957211D01*
X130982178Y-144334710D01*
X130893604Y-144780000D01*
X130726396Y-144780000D01*
X130637822Y-144334710D01*
X130385585Y-143957211D01*
X130008086Y-143704974D01*
X129562796Y-143616400D01*
X129517204Y-143616400D01*
X129071914Y-143704974D01*
X128694415Y-143957211D01*
X128442178Y-144334710D01*
X128353604Y-144780000D01*
X128169477Y-144780000D01*
X128169477Y-143916400D01*
X128146193Y-143799346D01*
X128079888Y-143700112D01*
X127980654Y-143633807D01*
X127863600Y-143610523D01*
X126136400Y-143610523D01*
X126019346Y-143633807D01*
X125920112Y-143700112D01*
X125853807Y-143799346D01*
X125830523Y-143916400D01*
X123737822Y-143916400D01*
X123260711Y-143439289D01*
X123228268Y-143417612D01*
X123190000Y-143410000D01*
X120650000Y-143410000D01*
X120611732Y-143417612D01*
X120579289Y-143439289D01*
X119309289Y-144709289D01*
X119287612Y-144741732D01*
X119280000Y-144780000D01*
X115486396Y-144780000D01*
X115397822Y-144334710D01*
X115191815Y-144026399D01*
X115980019Y-144026399D01*
X115870104Y-144137133D01*
X115699609Y-144548757D01*
X115752549Y-144730000D01*
X116790000Y-144730000D01*
X116790000Y-143692470D01*
X116890000Y-143692470D01*
X116890000Y-144730000D01*
X117927451Y-144730000D01*
X117980391Y-144548757D01*
X117809896Y-144137133D01*
X117490052Y-143814905D01*
X117071244Y-143639604D01*
X116890000Y-143692470D01*
X116790000Y-143692470D01*
X116661153Y-143654887D01*
X119328123Y-140987918D01*
X119328123Y-142621000D01*
X119351407Y-142738054D01*
X119417712Y-142837288D01*
X119516946Y-142903593D01*
X119634000Y-142926877D01*
X121666000Y-142926877D01*
X121783054Y-142903593D01*
X121882288Y-142837288D01*
X121948593Y-142738054D01*
X121971877Y-142621000D01*
X121971877Y-142122840D01*
X121974175Y-142134393D01*
X122259447Y-142561335D01*
X122686389Y-142846607D01*
X123190000Y-142946782D01*
X123693611Y-142846607D01*
X124120553Y-142561335D01*
X124405825Y-142134393D01*
X124506000Y-141630782D01*
X124506000Y-141579218D01*
X124465657Y-141376400D01*
X143610523Y-141376400D01*
X143610523Y-143103600D01*
X143633807Y-143220654D01*
X143700112Y-143319888D01*
X143799346Y-143386193D01*
X143916400Y-143409477D01*
X145643600Y-143409477D01*
X145760654Y-143386193D01*
X145859888Y-143319888D01*
X145926193Y-143220654D01*
X145949477Y-143103600D01*
X145949477Y-142217204D01*
X146156400Y-142217204D01*
X146156400Y-142262796D01*
X146244974Y-142708086D01*
X146497211Y-143085585D01*
X146874710Y-143337822D01*
X147320000Y-143426396D01*
X147765290Y-143337822D01*
X148142789Y-143085585D01*
X148395026Y-142708086D01*
X148483600Y-142262796D01*
X148483600Y-142217204D01*
X148395026Y-141771914D01*
X148142789Y-141394415D01*
X147765290Y-141142178D01*
X147320000Y-141053604D01*
X146874710Y-141142178D01*
X146497211Y-141394415D01*
X146244974Y-141771914D01*
X146156400Y-142217204D01*
X145949477Y-142217204D01*
X145949477Y-141376400D01*
X145926193Y-141259346D01*
X145859888Y-141160112D01*
X145760654Y-141093807D01*
X145643600Y-141070523D01*
X143916400Y-141070523D01*
X143799346Y-141093807D01*
X143700112Y-141160112D01*
X143633807Y-141259346D01*
X143610523Y-141376400D01*
X124465657Y-141376400D01*
X124405825Y-141075607D01*
X124120553Y-140648665D01*
X123693611Y-140363393D01*
X123190000Y-140263218D01*
X122686389Y-140363393D01*
X122259447Y-140648665D01*
X121974175Y-141075607D01*
X121971877Y-141087160D01*
X121971877Y-140589000D01*
X121948593Y-140471946D01*
X121882288Y-140372712D01*
X121783054Y-140306407D01*
X121666000Y-140283123D01*
X120032918Y-140283123D01*
X120638837Y-139677204D01*
X143616400Y-139677204D01*
X143616400Y-139722796D01*
X143704974Y-140168086D01*
X143957211Y-140545585D01*
X144334710Y-140797822D01*
X144780000Y-140886396D01*
X145225290Y-140797822D01*
X145602789Y-140545585D01*
X145855026Y-140168086D01*
X145943600Y-139722796D01*
X145943600Y-139677204D01*
X146156400Y-139677204D01*
X146156400Y-139722796D01*
X146244974Y-140168086D01*
X146497211Y-140545585D01*
X146874710Y-140797822D01*
X147320000Y-140886396D01*
X147765290Y-140797822D01*
X148142789Y-140545585D01*
X148395026Y-140168086D01*
X148483600Y-139722796D01*
X148483600Y-139677204D01*
X148395026Y-139231914D01*
X148142789Y-138854415D01*
X147765290Y-138602178D01*
X147320000Y-138513604D01*
X146874710Y-138602178D01*
X146497211Y-138854415D01*
X146244974Y-139231914D01*
X146156400Y-139677204D01*
X145943600Y-139677204D01*
X145855026Y-139231914D01*
X145602789Y-138854415D01*
X145225290Y-138602178D01*
X144780000Y-138513604D01*
X144334710Y-138602178D01*
X143957211Y-138854415D01*
X143704974Y-139231914D01*
X143616400Y-139677204D01*
X120638837Y-139677204D01*
X122045008Y-138271033D01*
X122124232Y-138303929D01*
X122362927Y-138304137D01*
X122583532Y-138212985D01*
X122752462Y-138044350D01*
X122843999Y-137823904D01*
X122844207Y-137585209D01*
X122753055Y-137364604D01*
X122584420Y-137195674D01*
X122513276Y-137166132D01*
X122542204Y-137137204D01*
X143616400Y-137137204D01*
X143616400Y-137182796D01*
X143704974Y-137628086D01*
X143957211Y-138005585D01*
X144334710Y-138257822D01*
X144780000Y-138346396D01*
X145225290Y-138257822D01*
X145602789Y-138005585D01*
X145855026Y-137628086D01*
X145943600Y-137182796D01*
X145943600Y-137137204D01*
X146156400Y-137137204D01*
X146156400Y-137182796D01*
X146244974Y-137628086D01*
X146497211Y-138005585D01*
X146874710Y-138257822D01*
X147320000Y-138346396D01*
X147765290Y-138257822D01*
X148142789Y-138005585D01*
X148395026Y-137628086D01*
X148483600Y-137182796D01*
X148483600Y-137137204D01*
X148395026Y-136691914D01*
X148142789Y-136314415D01*
X147765290Y-136062178D01*
X147320000Y-135973604D01*
X146874710Y-136062178D01*
X146497211Y-136314415D01*
X146244974Y-136691914D01*
X146156400Y-137137204D01*
X145943600Y-137137204D01*
X145855026Y-136691914D01*
X145602789Y-136314415D01*
X145225290Y-136062178D01*
X144780000Y-135973604D01*
X144334710Y-136062178D01*
X143957211Y-136314415D01*
X143704974Y-136691914D01*
X143616400Y-137137204D01*
X122542204Y-137137204D01*
X122572417Y-137106991D01*
X122640679Y-137078786D01*
X122809609Y-136910151D01*
X122901146Y-136689705D01*
X122901354Y-136451010D01*
X122810202Y-136230405D01*
X122641567Y-136061475D01*
X122421121Y-135969938D01*
X122182426Y-135969730D01*
X121961821Y-136060882D01*
X121792891Y-136229517D01*
X121701354Y-136449963D01*
X121701146Y-136688658D01*
X121726736Y-136750590D01*
X121644136Y-136833190D01*
X121598981Y-136723905D01*
X121430346Y-136554975D01*
X121209900Y-136463438D01*
X120971205Y-136463230D01*
X120750600Y-136554382D01*
X120650545Y-136654262D01*
X120650545Y-136421181D01*
X120699944Y-136421224D01*
X120920549Y-136330072D01*
X121089479Y-136161437D01*
X121181016Y-135940991D01*
X121181224Y-135702296D01*
X121090072Y-135481691D01*
X120921437Y-135312761D01*
X120700991Y-135221224D01*
X120462296Y-135221016D01*
X120241691Y-135312168D01*
X120072761Y-135480803D01*
X119981224Y-135701249D01*
X119981120Y-135820080D01*
X119980603Y-135820597D01*
X119980600Y-135820599D01*
X119925025Y-135876175D01*
X119832896Y-136014054D01*
X119832896Y-136014055D01*
X119805002Y-136154288D01*
X119805002Y-135043538D01*
X119888369Y-134960317D01*
X119979906Y-134739871D01*
X119980114Y-134501176D01*
X119888962Y-134280571D01*
X119720327Y-134111641D01*
X119499881Y-134020104D01*
X119261186Y-134019896D01*
X119040581Y-134111048D01*
X118871651Y-134279683D01*
X118780114Y-134500129D01*
X118779906Y-134738824D01*
X118871058Y-134959429D01*
X118955002Y-135043520D01*
X118955002Y-135254995D01*
X118955001Y-135255000D01*
X118955002Y-135255005D01*
X118955002Y-137618957D01*
X118535000Y-138038959D01*
X118535000Y-135043530D01*
X118618359Y-134960317D01*
X118709896Y-134739871D01*
X118710104Y-134501176D01*
X118618952Y-134280571D01*
X118450317Y-134111641D01*
X118229871Y-134020104D01*
X117991176Y-134019896D01*
X117770571Y-134111048D01*
X117601641Y-134279683D01*
X117510104Y-134500129D01*
X117509896Y-134738824D01*
X117601048Y-134959429D01*
X117685000Y-135043528D01*
X117685000Y-138253959D01*
X114962615Y-140976345D01*
X106883655Y-140976345D01*
X106721015Y-141008696D01*
X106721013Y-141008697D01*
X106721014Y-141008697D01*
X106583134Y-141100825D01*
X104598960Y-143085000D01*
X103124000Y-143085000D01*
X102961360Y-143117351D01*
X102961358Y-143117352D01*
X102961359Y-143117352D01*
X102823479Y-143209480D01*
X102569480Y-143463480D01*
X102477351Y-143601359D01*
X102477351Y-143601360D01*
X102445000Y-143764000D01*
X100375000Y-143764000D01*
X100375000Y-135319471D01*
X100621399Y-135319471D01*
X100621399Y-137241399D01*
X100645729Y-137363716D01*
X100653750Y-137404040D01*
X100745879Y-137541919D01*
X101157803Y-137953843D01*
X101137178Y-137984710D01*
X101048604Y-138430000D01*
X101137178Y-138875290D01*
X101389415Y-139252789D01*
X101766914Y-139505026D01*
X102212204Y-139593600D01*
X102257796Y-139593600D01*
X102703086Y-139505026D01*
X103080585Y-139252789D01*
X103332822Y-138875290D01*
X103421396Y-138430000D01*
X103332822Y-137984710D01*
X103080585Y-137607211D01*
X102703086Y-137354974D01*
X102257796Y-137266400D01*
X102212204Y-137266400D01*
X101766914Y-137354974D01*
X101763377Y-137357337D01*
X101471399Y-137065359D01*
X101471399Y-136767569D01*
X101766914Y-136965026D01*
X102212204Y-137053600D01*
X102257796Y-137053600D01*
X102703086Y-136965026D01*
X103080585Y-136712789D01*
X103332822Y-136335290D01*
X103421396Y-135890000D01*
X103332822Y-135444710D01*
X103312198Y-135413843D01*
X103332429Y-135393612D01*
X103711321Y-135393612D01*
X103677178Y-135444710D01*
X103588604Y-135890000D01*
X103677178Y-136335290D01*
X103929415Y-136712789D01*
X104306914Y-136965026D01*
X104752204Y-137053600D01*
X104797796Y-137053600D01*
X105243086Y-136965026D01*
X105620585Y-136712789D01*
X105872822Y-136335290D01*
X105961396Y-135890000D01*
X105872822Y-135444710D01*
X105666815Y-135136399D01*
X105960388Y-135136399D01*
X106079481Y-135255492D01*
X106079484Y-135255494D01*
X106079999Y-135256009D01*
X106079896Y-135373794D01*
X106171048Y-135594399D01*
X106339683Y-135763329D01*
X106560129Y-135854866D01*
X106798824Y-135855074D01*
X107019429Y-135763922D01*
X107188359Y-135595287D01*
X107279896Y-135374841D01*
X107280104Y-135136146D01*
X107188952Y-134915541D01*
X107020317Y-134746611D01*
X106799871Y-134655074D01*
X106681040Y-134654970D01*
X106680524Y-134654454D01*
X106680522Y-134654451D01*
X106436949Y-134410879D01*
X106299070Y-134318750D01*
X106272086Y-134313383D01*
X106136429Y-134286399D01*
X105450556Y-134286399D01*
X105620585Y-134172789D01*
X105872822Y-133795290D01*
X105876858Y-133775000D01*
X108161470Y-133775000D01*
X108244683Y-133858359D01*
X108465129Y-133949896D01*
X108703824Y-133950104D01*
X108924429Y-133858952D01*
X109093359Y-133690317D01*
X109184896Y-133469871D01*
X109185104Y-133231176D01*
X109093952Y-133010571D01*
X108925317Y-132841641D01*
X108704871Y-132750104D01*
X108466176Y-132749896D01*
X108245571Y-132841048D01*
X108161472Y-132925000D01*
X105876858Y-132925000D01*
X105872822Y-132904710D01*
X105620585Y-132527211D01*
X105587344Y-132505000D01*
X111114960Y-132505000D01*
X105777664Y-137842296D01*
X105620585Y-137607211D01*
X105243086Y-137354974D01*
X104797796Y-137266400D01*
X104752204Y-137266400D01*
X104306914Y-137354974D01*
X103929415Y-137607211D01*
X103677178Y-137984710D01*
X103588604Y-138430000D01*
X103677178Y-138875290D01*
X103929415Y-139252789D01*
X103962656Y-139275000D01*
X103505000Y-139275000D01*
X103342360Y-139307351D01*
X103342358Y-139307352D01*
X103342359Y-139307352D01*
X103204479Y-139399480D01*
X102706622Y-139897337D01*
X102703086Y-139894974D01*
X102257796Y-139806400D01*
X102212204Y-139806400D01*
X101766914Y-139894974D01*
X101389415Y-140147211D01*
X101137178Y-140524710D01*
X101048604Y-140970000D01*
X101137178Y-141415290D01*
X101389415Y-141792789D01*
X101766914Y-142045026D01*
X102212204Y-142133600D01*
X102257796Y-142133600D01*
X102703086Y-142045026D01*
X103080585Y-141792789D01*
X103332822Y-141415290D01*
X103421396Y-140970000D01*
X103332822Y-140524710D01*
X103312197Y-140493843D01*
X103681041Y-140125000D01*
X103962656Y-140125000D01*
X103929415Y-140147211D01*
X103677178Y-140524710D01*
X103588604Y-140970000D01*
X103677178Y-141415290D01*
X103929415Y-141792789D01*
X104306914Y-142045026D01*
X104752204Y-142133600D01*
X104797796Y-142133600D01*
X105243086Y-142045026D01*
X105620585Y-141792789D01*
X105872822Y-141415290D01*
X105961396Y-140970000D01*
X105872822Y-140524710D01*
X105852197Y-140493843D01*
X111607216Y-134738824D01*
X112048896Y-134738824D01*
X112140048Y-134959429D01*
X112308683Y-135128359D01*
X112480000Y-135199496D01*
X112480000Y-139459966D01*
X112430104Y-139580129D01*
X112429896Y-139818824D01*
X112521048Y-140039429D01*
X112689683Y-140208359D01*
X112910129Y-140299896D01*
X113148824Y-140300104D01*
X113369429Y-140208952D01*
X113538359Y-140040317D01*
X113629896Y-139819871D01*
X113630104Y-139581176D01*
X113580000Y-139459915D01*
X113580000Y-135170000D01*
X114059966Y-135170000D01*
X114180129Y-135219896D01*
X114418824Y-135220104D01*
X114639429Y-135128952D01*
X114808359Y-134960317D01*
X114899896Y-134739871D01*
X114900104Y-134501176D01*
X114808952Y-134280571D01*
X114640317Y-134111641D01*
X114621492Y-134103824D01*
X114969896Y-134103824D01*
X115061048Y-134324429D01*
X115145000Y-134408528D01*
X115145000Y-138641470D01*
X115061641Y-138724683D01*
X114970104Y-138945129D01*
X114969896Y-139183824D01*
X115061048Y-139404429D01*
X115229683Y-139573359D01*
X115450129Y-139664896D01*
X115688824Y-139665104D01*
X115909429Y-139573952D01*
X116078359Y-139405317D01*
X116169896Y-139184871D01*
X116170104Y-138946176D01*
X116078952Y-138725571D01*
X115995000Y-138641472D01*
X115995000Y-134408530D01*
X116078359Y-134325317D01*
X116169896Y-134104871D01*
X116170104Y-133866176D01*
X116078952Y-133645571D01*
X115910317Y-133476641D01*
X115689871Y-133385104D01*
X115451176Y-133384896D01*
X115230571Y-133476048D01*
X115061641Y-133644683D01*
X114970104Y-133865129D01*
X114969896Y-134103824D01*
X114621492Y-134103824D01*
X114419871Y-134020104D01*
X114181176Y-134019896D01*
X114059915Y-134070000D01*
X112889034Y-134070000D01*
X112768871Y-134020104D01*
X112530176Y-134019896D01*
X112309571Y-134111048D01*
X112140641Y-134279683D01*
X112049104Y-134500129D01*
X112048896Y-134738824D01*
X111607216Y-134738824D01*
X114600520Y-131745521D01*
X114692648Y-131607641D01*
X114692649Y-131607640D01*
X114725000Y-131445000D01*
X114725000Y-130810000D01*
X115905000Y-130810000D01*
X115905000Y-132715000D01*
X115927836Y-132829805D01*
X115992868Y-132927132D01*
X116090195Y-132992164D01*
X116205000Y-133015000D01*
X116949756Y-133015000D01*
X116966048Y-133054429D01*
X117134683Y-133223359D01*
X117355129Y-133314896D01*
X117593824Y-133315104D01*
X117814429Y-133223952D01*
X117898528Y-133140000D01*
X124671470Y-133140000D01*
X124754683Y-133223359D01*
X124975129Y-133314896D01*
X125213824Y-133315104D01*
X125434429Y-133223952D01*
X125603359Y-133055317D01*
X125620100Y-133015000D01*
X127635000Y-133015000D01*
X127749805Y-132992164D01*
X127847132Y-132927132D01*
X131039112Y-129735152D01*
X135924999Y-134621039D01*
X135924896Y-134738824D01*
X136016048Y-134959429D01*
X136184683Y-135128359D01*
X136405129Y-135219896D01*
X136643824Y-135220104D01*
X136864429Y-135128952D01*
X137033359Y-134960317D01*
X137124896Y-134739871D01*
X137125020Y-134597204D01*
X143616400Y-134597204D01*
X143616400Y-134642796D01*
X143704974Y-135088086D01*
X143957211Y-135465585D01*
X144334710Y-135717822D01*
X144780000Y-135806396D01*
X145225290Y-135717822D01*
X145602789Y-135465585D01*
X145855026Y-135088086D01*
X145943600Y-134642796D01*
X145943600Y-134597204D01*
X146156400Y-134597204D01*
X146156400Y-134642796D01*
X146244974Y-135088086D01*
X146497211Y-135465585D01*
X146874710Y-135717822D01*
X147320000Y-135806396D01*
X147765290Y-135717822D01*
X148142789Y-135465585D01*
X148395026Y-135088086D01*
X148483600Y-134642796D01*
X148483600Y-134597204D01*
X148395026Y-134151914D01*
X148142789Y-133774415D01*
X147765290Y-133522178D01*
X147320000Y-133433604D01*
X146874710Y-133522178D01*
X146497211Y-133774415D01*
X146244974Y-134151914D01*
X146156400Y-134597204D01*
X145943600Y-134597204D01*
X145855026Y-134151914D01*
X145602789Y-133774415D01*
X145225290Y-133522178D01*
X144780000Y-133433604D01*
X144334710Y-133522178D01*
X143957211Y-133774415D01*
X143704974Y-134151914D01*
X143616400Y-134597204D01*
X137125020Y-134597204D01*
X137125104Y-134501176D01*
X137033952Y-134280571D01*
X136865317Y-134111641D01*
X136644871Y-134020104D01*
X136526040Y-134020000D01*
X134563244Y-132057204D01*
X143616400Y-132057204D01*
X143616400Y-132102796D01*
X143704974Y-132548086D01*
X143957211Y-132925585D01*
X144334710Y-133177822D01*
X144780000Y-133266396D01*
X145225290Y-133177822D01*
X145602789Y-132925585D01*
X145855026Y-132548086D01*
X145943600Y-132102796D01*
X145943600Y-132057204D01*
X146156400Y-132057204D01*
X146156400Y-132102796D01*
X146244974Y-132548086D01*
X146497211Y-132925585D01*
X146874710Y-133177822D01*
X147320000Y-133266396D01*
X147765290Y-133177822D01*
X148142789Y-132925585D01*
X148395026Y-132548086D01*
X148483600Y-132102796D01*
X148483600Y-132057204D01*
X148395026Y-131611914D01*
X148142789Y-131234415D01*
X147765290Y-130982178D01*
X147320000Y-130893604D01*
X146874710Y-130982178D01*
X146497211Y-131234415D01*
X146244974Y-131611914D01*
X146156400Y-132057204D01*
X145943600Y-132057204D01*
X145855026Y-131611914D01*
X145602789Y-131234415D01*
X145225290Y-130982178D01*
X144780000Y-130893604D01*
X144334710Y-130982178D01*
X143957211Y-131234415D01*
X143704974Y-131611914D01*
X143616400Y-132057204D01*
X134563244Y-132057204D01*
X132277284Y-129771244D01*
X143639604Y-129771244D01*
X143814905Y-130190052D01*
X144137133Y-130509896D01*
X144548757Y-130680391D01*
X144730000Y-130627451D01*
X144730000Y-129590000D01*
X144830000Y-129590000D01*
X144830000Y-130627451D01*
X145011243Y-130680391D01*
X145422867Y-130509896D01*
X145745095Y-130190052D01*
X145920396Y-129771244D01*
X146179604Y-129771244D01*
X146354905Y-130190052D01*
X146677133Y-130509896D01*
X147088757Y-130680391D01*
X147270000Y-130627451D01*
X147270000Y-129590000D01*
X147370000Y-129590000D01*
X147370000Y-130627451D01*
X147551243Y-130680391D01*
X147962867Y-130509896D01*
X148285095Y-130190052D01*
X148460396Y-129771244D01*
X148407530Y-129590000D01*
X147370000Y-129590000D01*
X147270000Y-129590000D01*
X146232470Y-129590000D01*
X146179604Y-129771244D01*
X145920396Y-129771244D01*
X145867530Y-129590000D01*
X144830000Y-129590000D01*
X144730000Y-129590000D01*
X143692470Y-129590000D01*
X143639604Y-129771244D01*
X132277284Y-129771244D01*
X131814796Y-129308756D01*
X143639604Y-129308756D01*
X143692470Y-129490000D01*
X144730000Y-129490000D01*
X144730000Y-128452549D01*
X144830000Y-128452549D01*
X144830000Y-129490000D01*
X145867530Y-129490000D01*
X145920396Y-129308756D01*
X146179604Y-129308756D01*
X146232470Y-129490000D01*
X147270000Y-129490000D01*
X147270000Y-128452549D01*
X147370000Y-128452549D01*
X147370000Y-129490000D01*
X148407530Y-129490000D01*
X148460396Y-129308756D01*
X148285095Y-128889948D01*
X147962867Y-128570104D01*
X147551243Y-128399609D01*
X147370000Y-128452549D01*
X147270000Y-128452549D01*
X147088757Y-128399609D01*
X146677133Y-128570104D01*
X146354905Y-128889948D01*
X146179604Y-129308756D01*
X145920396Y-129308756D01*
X145745095Y-128889948D01*
X145422867Y-128570104D01*
X145011243Y-128399609D01*
X144830000Y-128452549D01*
X144730000Y-128452549D01*
X144548757Y-128399609D01*
X144137133Y-128570104D01*
X143814905Y-128889948D01*
X143639604Y-129308756D01*
X131814796Y-129308756D01*
X131640152Y-129134112D01*
X136102132Y-124672132D01*
X136167164Y-124574805D01*
X136190000Y-124460000D01*
X136167164Y-124345195D01*
X136102132Y-124247868D01*
X135044264Y-123190000D01*
X143410000Y-123190000D01*
X143410000Y-125730000D01*
X143417612Y-125768268D01*
X143439289Y-125800711D01*
X144709289Y-127070711D01*
X144741732Y-127092388D01*
X144780000Y-127100000D01*
X147320000Y-127100000D01*
X147358268Y-127092388D01*
X147390711Y-127070711D01*
X148660711Y-125800711D01*
X148682388Y-125768268D01*
X148690000Y-125730000D01*
X148690000Y-123190000D01*
X148682388Y-123151732D01*
X148660711Y-123119289D01*
X147390711Y-121849289D01*
X147358268Y-121827612D01*
X147320000Y-121820000D01*
X144780000Y-121820000D01*
X144741732Y-121827612D01*
X144709289Y-121849289D01*
X143439289Y-123119289D01*
X143417612Y-123151732D01*
X143410000Y-123190000D01*
X135044264Y-123190000D01*
X131110000Y-119255736D01*
X131110000Y-118516400D01*
X143610523Y-118516400D01*
X143610523Y-120243600D01*
X143633807Y-120360654D01*
X143700112Y-120459888D01*
X143799346Y-120526193D01*
X143916400Y-120549477D01*
X145643600Y-120549477D01*
X145760654Y-120526193D01*
X145859888Y-120459888D01*
X145926193Y-120360654D01*
X145949477Y-120243600D01*
X145949477Y-119357204D01*
X146156400Y-119357204D01*
X146156400Y-119402796D01*
X146244974Y-119848086D01*
X146497211Y-120225585D01*
X146874710Y-120477822D01*
X147320000Y-120566396D01*
X147765290Y-120477822D01*
X148142789Y-120225585D01*
X148395026Y-119848086D01*
X148483600Y-119402796D01*
X148483600Y-119357204D01*
X148395026Y-118911914D01*
X148142789Y-118534415D01*
X147765290Y-118282178D01*
X147320000Y-118193604D01*
X146874710Y-118282178D01*
X146497211Y-118534415D01*
X146244974Y-118911914D01*
X146156400Y-119357204D01*
X145949477Y-119357204D01*
X145949477Y-118516400D01*
X145926193Y-118399346D01*
X145859888Y-118300112D01*
X145760654Y-118233807D01*
X145643600Y-118210523D01*
X143916400Y-118210523D01*
X143799346Y-118233807D01*
X143700112Y-118300112D01*
X143633807Y-118399346D01*
X143610523Y-118516400D01*
X131110000Y-118516400D01*
X131110000Y-116958824D01*
X138464896Y-116958824D01*
X138556048Y-117179429D01*
X138724683Y-117348359D01*
X138945129Y-117439896D01*
X139183824Y-117440104D01*
X139404429Y-117348952D01*
X139573359Y-117180317D01*
X139623675Y-117059143D01*
X139865614Y-116817204D01*
X143616400Y-116817204D01*
X143616400Y-116862796D01*
X143704974Y-117308086D01*
X143957211Y-117685585D01*
X144334710Y-117937822D01*
X144780000Y-118026396D01*
X145225290Y-117937822D01*
X145602789Y-117685585D01*
X145855026Y-117308086D01*
X145943600Y-116862796D01*
X145943600Y-116817204D01*
X146156400Y-116817204D01*
X146156400Y-116862796D01*
X146244974Y-117308086D01*
X146497211Y-117685585D01*
X146874710Y-117937822D01*
X147320000Y-118026396D01*
X147765290Y-117937822D01*
X148142789Y-117685585D01*
X148395026Y-117308086D01*
X148483600Y-116862796D01*
X148483600Y-116817204D01*
X148395026Y-116371914D01*
X148142789Y-115994415D01*
X147765290Y-115742178D01*
X147320000Y-115653604D01*
X146874710Y-115742178D01*
X146497211Y-115994415D01*
X146244974Y-116371914D01*
X146156400Y-116817204D01*
X145943600Y-116817204D01*
X145855026Y-116371914D01*
X145602789Y-115994415D01*
X145225290Y-115742178D01*
X144780000Y-115653604D01*
X144334710Y-115742178D01*
X143957211Y-115994415D01*
X143704974Y-116371914D01*
X143616400Y-116817204D01*
X139865614Y-116817204D01*
X141358909Y-115323909D01*
X141478134Y-115145476D01*
X141520000Y-114935000D01*
X141520000Y-114277204D01*
X143616400Y-114277204D01*
X143616400Y-114322796D01*
X143704974Y-114768086D01*
X143957211Y-115145585D01*
X144334710Y-115397822D01*
X144780000Y-115486396D01*
X145225290Y-115397822D01*
X145602789Y-115145585D01*
X145855026Y-114768086D01*
X145943600Y-114322796D01*
X145943600Y-114277204D01*
X146156400Y-114277204D01*
X146156400Y-114322796D01*
X146244974Y-114768086D01*
X146497211Y-115145585D01*
X146874710Y-115397822D01*
X147320000Y-115486396D01*
X147765290Y-115397822D01*
X148142789Y-115145585D01*
X148395026Y-114768086D01*
X148483600Y-114322796D01*
X148483600Y-114277204D01*
X148395026Y-113831914D01*
X148142789Y-113454415D01*
X147765290Y-113202178D01*
X147320000Y-113113604D01*
X146874710Y-113202178D01*
X146497211Y-113454415D01*
X146244974Y-113831914D01*
X146156400Y-114277204D01*
X145943600Y-114277204D01*
X145855026Y-113831914D01*
X145602789Y-113454415D01*
X145225290Y-113202178D01*
X144780000Y-113113604D01*
X144334710Y-113202178D01*
X143957211Y-113454415D01*
X143704974Y-113831914D01*
X143616400Y-114277204D01*
X141520000Y-114277204D01*
X141520000Y-113905034D01*
X141569896Y-113784871D01*
X141570104Y-113546176D01*
X141478952Y-113325571D01*
X141310317Y-113156641D01*
X141089871Y-113065104D01*
X140851176Y-113064896D01*
X140630571Y-113156048D01*
X140461641Y-113324683D01*
X140370104Y-113545129D01*
X140369896Y-113783824D01*
X140420000Y-113905085D01*
X140420000Y-114707182D01*
X138845820Y-116281362D01*
X138725571Y-116331048D01*
X138556641Y-116499683D01*
X138465104Y-116720129D01*
X138464896Y-116958824D01*
X131110000Y-116958824D01*
X131110000Y-113148824D01*
X136559896Y-113148824D01*
X136651048Y-113369429D01*
X136819683Y-113538359D01*
X137040129Y-113629896D01*
X137278824Y-113630104D01*
X137499429Y-113538952D01*
X137583528Y-113455000D01*
X139700000Y-113455000D01*
X139835657Y-113428016D01*
X139862641Y-113422649D01*
X140000520Y-113330520D01*
X140971039Y-112360001D01*
X141088824Y-112360104D01*
X141309429Y-112268952D01*
X141478359Y-112100317D01*
X141569896Y-111879871D01*
X141570020Y-111737204D01*
X143616400Y-111737204D01*
X143616400Y-111782796D01*
X143704974Y-112228086D01*
X143957211Y-112605585D01*
X144334710Y-112857822D01*
X144780000Y-112946396D01*
X145225290Y-112857822D01*
X145602789Y-112605585D01*
X145855026Y-112228086D01*
X145943600Y-111782796D01*
X145943600Y-111737204D01*
X146156400Y-111737204D01*
X146156400Y-111782796D01*
X146244974Y-112228086D01*
X146497211Y-112605585D01*
X146874710Y-112857822D01*
X147320000Y-112946396D01*
X147765290Y-112857822D01*
X148142789Y-112605585D01*
X148395026Y-112228086D01*
X148483600Y-111782796D01*
X148483600Y-111737204D01*
X148395026Y-111291914D01*
X148142789Y-110914415D01*
X147765290Y-110662178D01*
X147320000Y-110573604D01*
X146874710Y-110662178D01*
X146497211Y-110914415D01*
X146244974Y-111291914D01*
X146156400Y-111737204D01*
X145943600Y-111737204D01*
X145855026Y-111291914D01*
X145602789Y-110914415D01*
X145225290Y-110662178D01*
X144780000Y-110573604D01*
X144334710Y-110662178D01*
X143957211Y-110914415D01*
X143704974Y-111291914D01*
X143616400Y-111737204D01*
X141570020Y-111737204D01*
X141570104Y-111641176D01*
X141478952Y-111420571D01*
X141310317Y-111251641D01*
X141089871Y-111160104D01*
X140851176Y-111159896D01*
X140630571Y-111251048D01*
X140461641Y-111419683D01*
X140370104Y-111640129D01*
X140370000Y-111758959D01*
X139523960Y-112605000D01*
X137583530Y-112605000D01*
X137500317Y-112521641D01*
X137279871Y-112430104D01*
X137041176Y-112429896D01*
X136820571Y-112521048D01*
X136651641Y-112689683D01*
X136560104Y-112910129D01*
X136559896Y-113148824D01*
X131110000Y-113148824D01*
X131110000Y-110477507D01*
X131183810Y-110477571D01*
X131404415Y-110386419D01*
X131511020Y-110280000D01*
X134697960Y-110280000D01*
X136351480Y-111933521D01*
X136489359Y-112025649D01*
X136652000Y-112058000D01*
X138557000Y-112058000D01*
X138692657Y-112031016D01*
X138719641Y-112025649D01*
X138857520Y-111933520D01*
X139701039Y-111090001D01*
X139818824Y-111090104D01*
X140039429Y-110998952D01*
X140208359Y-110830317D01*
X140299896Y-110609871D01*
X140300104Y-110371176D01*
X140208952Y-110150571D01*
X140040317Y-109981641D01*
X139819871Y-109890104D01*
X139581176Y-109889896D01*
X139360571Y-109981048D01*
X139191641Y-110149683D01*
X139100104Y-110370129D01*
X139100000Y-110488960D01*
X138783759Y-110805201D01*
X138864867Y-110609871D01*
X138865075Y-110371176D01*
X138773923Y-110150571D01*
X138605288Y-109981641D01*
X138384842Y-109890104D01*
X138146147Y-109889896D01*
X137925542Y-109981048D01*
X137756612Y-110149683D01*
X137718622Y-110241174D01*
X137655991Y-110089595D01*
X137487356Y-109920665D01*
X137266910Y-109829128D01*
X137148080Y-109829024D01*
X136516260Y-109197204D01*
X143616400Y-109197204D01*
X143616400Y-109242796D01*
X143704974Y-109688086D01*
X143957211Y-110065585D01*
X144334710Y-110317822D01*
X144780000Y-110406396D01*
X145225290Y-110317822D01*
X145602789Y-110065585D01*
X145855026Y-109688086D01*
X145943600Y-109242796D01*
X145943600Y-109197204D01*
X146156400Y-109197204D01*
X146156400Y-109242796D01*
X146244974Y-109688086D01*
X146497211Y-110065585D01*
X146874710Y-110317822D01*
X147320000Y-110406396D01*
X147765290Y-110317822D01*
X148142789Y-110065585D01*
X148395026Y-109688086D01*
X148483600Y-109242796D01*
X148483600Y-109197204D01*
X148395026Y-108751914D01*
X148142789Y-108374415D01*
X147765290Y-108122178D01*
X147320000Y-108033604D01*
X146874710Y-108122178D01*
X146497211Y-108374415D01*
X146244974Y-108751914D01*
X146156400Y-109197204D01*
X145943600Y-109197204D01*
X145855026Y-108751914D01*
X145602789Y-108374415D01*
X145225290Y-108122178D01*
X144780000Y-108033604D01*
X144334710Y-108122178D01*
X143957211Y-108374415D01*
X143704974Y-108751914D01*
X143616400Y-109197204D01*
X136516260Y-109197204D01*
X135431528Y-108112473D01*
X135366204Y-108068824D01*
X139734896Y-108068824D01*
X139826048Y-108289429D01*
X139994683Y-108458359D01*
X140215129Y-108549896D01*
X140453824Y-108550104D01*
X140674429Y-108458952D01*
X140843359Y-108290317D01*
X140934896Y-108069871D01*
X140935000Y-107951041D01*
X141974797Y-106911244D01*
X143639604Y-106911244D01*
X143814905Y-107330052D01*
X144137133Y-107649896D01*
X144548757Y-107820391D01*
X144730000Y-107767451D01*
X144730000Y-106730000D01*
X144830000Y-106730000D01*
X144830000Y-107767451D01*
X145011243Y-107820391D01*
X145422867Y-107649896D01*
X145745095Y-107330052D01*
X145920396Y-106911244D01*
X146179604Y-106911244D01*
X146354905Y-107330052D01*
X146677133Y-107649896D01*
X147088757Y-107820391D01*
X147270000Y-107767451D01*
X147270000Y-106730000D01*
X147370000Y-106730000D01*
X147370000Y-107767451D01*
X147551243Y-107820391D01*
X147962867Y-107649896D01*
X148285095Y-107330052D01*
X148460396Y-106911244D01*
X148407530Y-106730000D01*
X147370000Y-106730000D01*
X147270000Y-106730000D01*
X146232470Y-106730000D01*
X146179604Y-106911244D01*
X145920396Y-106911244D01*
X145867530Y-106730000D01*
X144830000Y-106730000D01*
X144730000Y-106730000D01*
X143692470Y-106730000D01*
X143639604Y-106911244D01*
X141974797Y-106911244D01*
X142437285Y-106448756D01*
X143639604Y-106448756D01*
X143692470Y-106630000D01*
X144730000Y-106630000D01*
X144730000Y-105592549D01*
X144830000Y-105592549D01*
X144830000Y-106630000D01*
X145867530Y-106630000D01*
X145920396Y-106448756D01*
X146179604Y-106448756D01*
X146232470Y-106630000D01*
X147270000Y-106630000D01*
X147270000Y-105592549D01*
X147370000Y-105592549D01*
X147370000Y-106630000D01*
X148407530Y-106630000D01*
X148460396Y-106448756D01*
X148285095Y-106029948D01*
X147962867Y-105710104D01*
X147551243Y-105539609D01*
X147370000Y-105592549D01*
X147270000Y-105592549D01*
X147088757Y-105539609D01*
X146677133Y-105710104D01*
X146354905Y-106029948D01*
X146179604Y-106448756D01*
X145920396Y-106448756D01*
X145745095Y-106029948D01*
X145422867Y-105710104D01*
X145011243Y-105539609D01*
X144830000Y-105592549D01*
X144730000Y-105592549D01*
X144548757Y-105539609D01*
X144137133Y-105710104D01*
X143814905Y-106029948D01*
X143639604Y-106448756D01*
X142437285Y-106448756D01*
X143175520Y-105710521D01*
X143267648Y-105572641D01*
X143267649Y-105572640D01*
X143300000Y-105410000D01*
X143300000Y-103293530D01*
X143383359Y-103210317D01*
X143474896Y-102989871D01*
X143475104Y-102751176D01*
X143383952Y-102530571D01*
X143215317Y-102361641D01*
X142994871Y-102270104D01*
X142756176Y-102269896D01*
X142535571Y-102361048D01*
X142366641Y-102529683D01*
X142275104Y-102750129D01*
X142274896Y-102988824D01*
X142366048Y-103209429D01*
X142450000Y-103293528D01*
X142450000Y-105233959D01*
X140333961Y-107349999D01*
X140216176Y-107349896D01*
X139995571Y-107441048D01*
X139826641Y-107609683D01*
X139735104Y-107830129D01*
X139734896Y-108068824D01*
X135366204Y-108068824D01*
X135293649Y-108020344D01*
X135266665Y-108014977D01*
X135131008Y-107987993D01*
X131110000Y-107987993D01*
X131110000Y-107315000D01*
X131087164Y-107200195D01*
X131022132Y-107102868D01*
X130924805Y-107037836D01*
X130810000Y-107015000D01*
X128270000Y-107015000D01*
X128155195Y-107037836D01*
X128057868Y-107102868D01*
X127992836Y-107200195D01*
X127970000Y-107315000D01*
X127970000Y-111000736D01*
X126152868Y-112817868D01*
X126087836Y-112915195D01*
X126065000Y-113030000D01*
X126065000Y-116314698D01*
X126025571Y-116330990D01*
X125856641Y-116499625D01*
X125765104Y-116720071D01*
X125765000Y-116838901D01*
X123601832Y-119002070D01*
X123484139Y-119001967D01*
X123263534Y-119093119D01*
X123094604Y-119261754D01*
X123003067Y-119482200D01*
X123002859Y-119720895D01*
X123019519Y-119761217D01*
X120174272Y-122606464D01*
X120134871Y-122590104D01*
X119896176Y-122589896D01*
X119675571Y-122681048D01*
X119506641Y-122849683D01*
X119415104Y-123070129D01*
X119414896Y-123308824D01*
X119506048Y-123529429D01*
X119674683Y-123698359D01*
X119895129Y-123789896D01*
X120013959Y-123790000D01*
X121953959Y-125730000D01*
X121283961Y-126399999D01*
X121166176Y-126399896D01*
X120945571Y-126491048D01*
X120776641Y-126659683D01*
X120685104Y-126880129D01*
X120684896Y-127118824D01*
X120701566Y-127159170D01*
X117350736Y-130510000D01*
X116205000Y-130510000D01*
X116090195Y-130532836D01*
X115992868Y-130597868D01*
X115927836Y-130695195D01*
X115905000Y-130810000D01*
X114725000Y-130810000D01*
X114725000Y-129963530D01*
X114808359Y-129880317D01*
X114899896Y-129659871D01*
X114899896Y-129658824D01*
X114969896Y-129658824D01*
X115061048Y-129879429D01*
X115229683Y-130048359D01*
X115450129Y-130139896D01*
X115688824Y-130140104D01*
X115909429Y-130048952D01*
X116078359Y-129880317D01*
X116128675Y-129759143D01*
X118329179Y-127558638D01*
X118449429Y-127508952D01*
X118618359Y-127340317D01*
X118709896Y-127119871D01*
X118710104Y-126881176D01*
X118618952Y-126660571D01*
X118450317Y-126491641D01*
X118229871Y-126400104D01*
X117991176Y-126399896D01*
X117770571Y-126491048D01*
X117601641Y-126659683D01*
X117551325Y-126780858D01*
X115350820Y-128981362D01*
X115230571Y-129031048D01*
X115061641Y-129199683D01*
X114970104Y-129420129D01*
X114969896Y-129658824D01*
X114899896Y-129658824D01*
X114900104Y-129421176D01*
X114808952Y-129200571D01*
X114640317Y-129031641D01*
X114419871Y-128940104D01*
X114231101Y-128939940D01*
X114300522Y-128870519D01*
X114300524Y-128870516D01*
X114301039Y-128870001D01*
X114418824Y-128870104D01*
X114639429Y-128778952D01*
X114808359Y-128610317D01*
X114899896Y-128389871D01*
X114900104Y-128151176D01*
X114808952Y-127930571D01*
X114640317Y-127761641D01*
X114419871Y-127670104D01*
X114181176Y-127669896D01*
X113960571Y-127761048D01*
X113791641Y-127929683D01*
X113700104Y-128150129D01*
X113700000Y-128268960D01*
X113699484Y-128269476D01*
X113699481Y-128269478D01*
X113471230Y-128497730D01*
X113370317Y-128396641D01*
X113149871Y-128305104D01*
X112961101Y-128304940D01*
X113031039Y-128235001D01*
X113148824Y-128235104D01*
X113369429Y-128143952D01*
X113538359Y-127975317D01*
X113629896Y-127754871D01*
X113630104Y-127516176D01*
X113538952Y-127295571D01*
X113370317Y-127126641D01*
X113149871Y-127035104D01*
X112911176Y-127034896D01*
X112690571Y-127126048D01*
X112521641Y-127294683D01*
X112430104Y-127515129D01*
X112430000Y-127633959D01*
X112094480Y-127969480D01*
X112002351Y-128107359D01*
X112002351Y-128107360D01*
X111970000Y-128270000D01*
X111970000Y-130646691D01*
X110961692Y-131655000D01*
X104285870Y-131655000D01*
X104150213Y-131681984D01*
X104123229Y-131687351D01*
X103985350Y-131779480D01*
X103380881Y-132383949D01*
X103352928Y-132316464D01*
X103268537Y-132232072D01*
X103158274Y-132186400D01*
X102360000Y-132186400D01*
X102285000Y-132261400D01*
X102285000Y-133300000D01*
X102305000Y-133300000D01*
X102305000Y-133400000D01*
X102285000Y-133400000D01*
X102285000Y-133420000D01*
X102185000Y-133420000D01*
X102185000Y-133400000D01*
X101146400Y-133400000D01*
X101071400Y-133475000D01*
X101071400Y-134273273D01*
X101117072Y-134383536D01*
X101201463Y-134467928D01*
X101268949Y-134495881D01*
X100745879Y-135018951D01*
X100653750Y-135156830D01*
X100648383Y-135183814D01*
X100621399Y-135319471D01*
X100375000Y-135319471D01*
X100375000Y-132426727D01*
X101071400Y-132426727D01*
X101071400Y-133225000D01*
X101146400Y-133300000D01*
X102185000Y-133300000D01*
X102185000Y-132261400D01*
X102110000Y-132186400D01*
X101311726Y-132186400D01*
X101201463Y-132232072D01*
X101117072Y-132316464D01*
X101071400Y-132426727D01*
X100375000Y-132426727D01*
X100375000Y-127959100D01*
X100636480Y-127959100D01*
X100697376Y-128265247D01*
X100870795Y-128524785D01*
X101130333Y-128698204D01*
X101436480Y-128759100D01*
X102028600Y-128759100D01*
X102334747Y-128698204D01*
X102594285Y-128524785D01*
X102767704Y-128265247D01*
X102828600Y-127959100D01*
X102767704Y-127652953D01*
X102594285Y-127393415D01*
X102334747Y-127219996D01*
X102028600Y-127159100D01*
X101436480Y-127159100D01*
X101130333Y-127219996D01*
X100870795Y-127393415D01*
X100697376Y-127652953D01*
X100636480Y-127959100D01*
X100375000Y-127959100D01*
X100375000Y-126790978D01*
X103657540Y-126790978D01*
X103657540Y-127127222D01*
X103716533Y-127423802D01*
X103884532Y-127675230D01*
X104135960Y-127843229D01*
X104432540Y-127902222D01*
X104729120Y-127843229D01*
X104980548Y-127675230D01*
X105148547Y-127423802D01*
X105207540Y-127127222D01*
X105207540Y-126790978D01*
X105148547Y-126494398D01*
X104980548Y-126242970D01*
X104729120Y-126074971D01*
X104432540Y-126015978D01*
X104135960Y-126074971D01*
X103884532Y-126242970D01*
X103716533Y-126494398D01*
X103657540Y-126790978D01*
X100375000Y-126790978D01*
X100375000Y-120959100D01*
X100636480Y-120959100D01*
X100697376Y-121265247D01*
X100870795Y-121524785D01*
X101130333Y-121698204D01*
X101436480Y-121759100D01*
X102028600Y-121759100D01*
X102334747Y-121698204D01*
X102594285Y-121524785D01*
X102767704Y-121265247D01*
X102828600Y-120959100D01*
X102790753Y-120768824D01*
X102904896Y-120768824D01*
X102996048Y-120989429D01*
X103080000Y-121073528D01*
X103080000Y-123190000D01*
X103103844Y-123309871D01*
X103112351Y-123352641D01*
X103204480Y-123490520D01*
X106255000Y-126541040D01*
X106255000Y-128481470D01*
X106171641Y-128564683D01*
X106080104Y-128785129D01*
X106079896Y-129023824D01*
X106171048Y-129244429D01*
X106339683Y-129413359D01*
X106560129Y-129504896D01*
X106798824Y-129505104D01*
X107019429Y-129413952D01*
X107188359Y-129245317D01*
X107279896Y-129024871D01*
X107280104Y-128786176D01*
X107188952Y-128565571D01*
X107105000Y-128481472D01*
X107105000Y-126365000D01*
X107072649Y-126202360D01*
X107072649Y-126202359D01*
X106980520Y-126064480D01*
X103930000Y-123013960D01*
X103930000Y-122705611D01*
X104135960Y-122843229D01*
X104432540Y-122902222D01*
X104729120Y-122843229D01*
X104980548Y-122675230D01*
X105148547Y-122423802D01*
X105207540Y-122127222D01*
X105207540Y-121790978D01*
X105148547Y-121494398D01*
X104980548Y-121242970D01*
X104729120Y-121074971D01*
X104432540Y-121015978D01*
X104135960Y-121074971D01*
X103930000Y-121212589D01*
X103930000Y-121073530D01*
X104013359Y-120990317D01*
X104104896Y-120769871D01*
X104104896Y-120768824D01*
X104809896Y-120768824D01*
X104901048Y-120989429D01*
X105069683Y-121158359D01*
X105290129Y-121249896D01*
X105408959Y-121250000D01*
X110700000Y-126541041D01*
X110700000Y-126576470D01*
X110616641Y-126659683D01*
X110525104Y-126880129D01*
X110524896Y-127118824D01*
X110616048Y-127339429D01*
X110784683Y-127508359D01*
X111005129Y-127599896D01*
X111243824Y-127600104D01*
X111464429Y-127508952D01*
X111633359Y-127340317D01*
X111724896Y-127119871D01*
X111725104Y-126881176D01*
X111633952Y-126660571D01*
X111550000Y-126576472D01*
X111550000Y-126365000D01*
X111517649Y-126202360D01*
X111517649Y-126202359D01*
X111425521Y-126064480D01*
X110574865Y-125213824D01*
X112429896Y-125213824D01*
X112521048Y-125434429D01*
X112689683Y-125603359D01*
X112910129Y-125694896D01*
X113028959Y-125695000D01*
X113364480Y-126030521D01*
X113502359Y-126122649D01*
X113665000Y-126155000D01*
X117051478Y-126155000D01*
X117134691Y-126238359D01*
X117355137Y-126329896D01*
X117593832Y-126330104D01*
X117814437Y-126238952D01*
X117983367Y-126070317D01*
X118074904Y-125849871D01*
X118075112Y-125611176D01*
X117983960Y-125390571D01*
X117815325Y-125221641D01*
X117594879Y-125130104D01*
X117356184Y-125129896D01*
X117135579Y-125221048D01*
X117051480Y-125305000D01*
X113841041Y-125305000D01*
X113630001Y-125093961D01*
X113630104Y-124976176D01*
X113538952Y-124755571D01*
X113370317Y-124586641D01*
X113149871Y-124495104D01*
X112911176Y-124494896D01*
X112690571Y-124586048D01*
X112521641Y-124754683D01*
X112430104Y-124975129D01*
X112429896Y-125213824D01*
X110574865Y-125213824D01*
X106010001Y-120648961D01*
X106010104Y-120531176D01*
X105918952Y-120310571D01*
X105750317Y-120141641D01*
X105731492Y-120133824D01*
X109889896Y-120133824D01*
X109981048Y-120354429D01*
X110149683Y-120523359D01*
X110370129Y-120614896D01*
X110608824Y-120615104D01*
X110829429Y-120523952D01*
X110998359Y-120355317D01*
X111089896Y-120134871D01*
X111090000Y-120016041D01*
X111301041Y-119805000D01*
X111583960Y-119805000D01*
X113064999Y-121286039D01*
X113064896Y-121403824D01*
X113156048Y-121624429D01*
X113324683Y-121793359D01*
X113545129Y-121884896D01*
X113783824Y-121885104D01*
X114004429Y-121793952D01*
X114173359Y-121625317D01*
X114264896Y-121404871D01*
X114265104Y-121166176D01*
X114173952Y-120945571D01*
X114005317Y-120776641D01*
X113784871Y-120685104D01*
X113666040Y-120685000D01*
X112185000Y-119203960D01*
X112185000Y-118533530D01*
X112268359Y-118450317D01*
X112359896Y-118229871D01*
X112360104Y-117991176D01*
X112268952Y-117770571D01*
X112100317Y-117601641D01*
X111879871Y-117510104D01*
X111641176Y-117509896D01*
X111420571Y-117601048D01*
X111251641Y-117769683D01*
X111160104Y-117990129D01*
X111159896Y-118228824D01*
X111251048Y-118449429D01*
X111335000Y-118533528D01*
X111335000Y-118955000D01*
X111125000Y-118955000D01*
X110962359Y-118987351D01*
X110824480Y-119079479D01*
X110488961Y-119414999D01*
X110371176Y-119414896D01*
X110150571Y-119506048D01*
X109981641Y-119674683D01*
X109890104Y-119895129D01*
X109889896Y-120133824D01*
X105731492Y-120133824D01*
X105529871Y-120050104D01*
X105291176Y-120049896D01*
X105070571Y-120141048D01*
X104901641Y-120309683D01*
X104810104Y-120530129D01*
X104809896Y-120768824D01*
X104104896Y-120768824D01*
X104105104Y-120531176D01*
X104013952Y-120310571D01*
X103845317Y-120141641D01*
X103624871Y-120050104D01*
X103386176Y-120049896D01*
X103165571Y-120141048D01*
X102996641Y-120309683D01*
X102905104Y-120530129D01*
X102904896Y-120768824D01*
X102790753Y-120768824D01*
X102767704Y-120652953D01*
X102594285Y-120393415D01*
X102334747Y-120219996D01*
X102028600Y-120159100D01*
X101436480Y-120159100D01*
X101130333Y-120219996D01*
X100870795Y-120393415D01*
X100697376Y-120652953D01*
X100636480Y-120959100D01*
X100375000Y-120959100D01*
X100375000Y-113783824D01*
X107984896Y-113783824D01*
X108076048Y-114004429D01*
X108244683Y-114173359D01*
X108465129Y-114264896D01*
X108703824Y-114265104D01*
X108924429Y-114173952D01*
X109093359Y-114005317D01*
X109184896Y-113784871D01*
X109185000Y-113666040D01*
X109449778Y-113401262D01*
X112177458Y-113401262D01*
X112268610Y-113621867D01*
X112437245Y-113790797D01*
X112616403Y-113865190D01*
X112462247Y-114019077D01*
X112370710Y-114239523D01*
X112370502Y-114478218D01*
X112461654Y-114698823D01*
X112605000Y-114842420D01*
X112605000Y-115251480D01*
X112521641Y-115334693D01*
X112430104Y-115555139D01*
X112429896Y-115793834D01*
X112521048Y-116014439D01*
X112605000Y-116098538D01*
X112605000Y-118745000D01*
X112628844Y-118864871D01*
X112637351Y-118907641D01*
X112729480Y-119045520D01*
X113699999Y-120016039D01*
X113699896Y-120133824D01*
X113791048Y-120354429D01*
X113959683Y-120523359D01*
X114180129Y-120614896D01*
X114418824Y-120615104D01*
X114639429Y-120523952D01*
X114808359Y-120355317D01*
X114899896Y-120134871D01*
X114900104Y-119896176D01*
X114862431Y-119805000D01*
X115146470Y-119805000D01*
X115229683Y-119888359D01*
X115450129Y-119979896D01*
X115688824Y-119980104D01*
X115909429Y-119888952D01*
X116078359Y-119720317D01*
X116169896Y-119499871D01*
X116170104Y-119261176D01*
X116078952Y-119040571D01*
X115910317Y-118871641D01*
X115689871Y-118780104D01*
X115544978Y-118779978D01*
X115545103Y-118636175D01*
X115453951Y-118415570D01*
X115285316Y-118246640D01*
X115064870Y-118155103D01*
X114946040Y-118154999D01*
X114725000Y-117933960D01*
X114725000Y-116628530D01*
X114808359Y-116545317D01*
X114899896Y-116324871D01*
X114900104Y-116086176D01*
X114808952Y-115865571D01*
X114640317Y-115696641D01*
X114419871Y-115605104D01*
X114181176Y-115604896D01*
X114090000Y-115642569D01*
X114090000Y-114169876D01*
X114074112Y-114089999D01*
X114071286Y-114075796D01*
X114124739Y-114205161D01*
X114293374Y-114374091D01*
X114513820Y-114465628D01*
X114632650Y-114465732D01*
X114633170Y-114466252D01*
X114633173Y-114466254D01*
X117050000Y-116883081D01*
X117050000Y-122131470D01*
X116966641Y-122214683D01*
X116875104Y-122435129D01*
X116874896Y-122673824D01*
X116966048Y-122894429D01*
X117134683Y-123063359D01*
X117355129Y-123154896D01*
X117593824Y-123155104D01*
X117814429Y-123063952D01*
X117983359Y-122895317D01*
X118074896Y-122674871D01*
X118075104Y-122436176D01*
X117983952Y-122215571D01*
X117900000Y-122131472D01*
X117900000Y-116707041D01*
X117867649Y-116544401D01*
X117867649Y-116544400D01*
X117775520Y-116406521D01*
X116422801Y-115053802D01*
X119414896Y-115053802D01*
X119506048Y-115274407D01*
X119674683Y-115443337D01*
X119895129Y-115534874D01*
X120133824Y-115535082D01*
X120255085Y-115484978D01*
X122327160Y-115484978D01*
X123266362Y-116424180D01*
X123316048Y-116544429D01*
X123484683Y-116713359D01*
X123705129Y-116804896D01*
X123943824Y-116805104D01*
X124164429Y-116713952D01*
X124333359Y-116545317D01*
X124424896Y-116324871D01*
X124425104Y-116086176D01*
X124333952Y-115865571D01*
X124165317Y-115696641D01*
X124044143Y-115646325D01*
X122943887Y-114546069D01*
X122765454Y-114426844D01*
X122554978Y-114384978D01*
X120255034Y-114384978D01*
X120134871Y-114335082D01*
X119896176Y-114334874D01*
X119675571Y-114426026D01*
X119506641Y-114594661D01*
X119415104Y-114815107D01*
X119414896Y-115053802D01*
X116422801Y-115053802D01*
X115234213Y-113865214D01*
X115234211Y-113865211D01*
X115233692Y-113864692D01*
X115233795Y-113746908D01*
X115142643Y-113526303D01*
X114974008Y-113357373D01*
X114753562Y-113265836D01*
X114514867Y-113265628D01*
X114294262Y-113356780D01*
X114125332Y-113525415D01*
X114033795Y-113745861D01*
X114033599Y-113971242D01*
X113965520Y-113869356D01*
X113377563Y-113281399D01*
X113377666Y-113163614D01*
X113286514Y-112943009D01*
X113117879Y-112774079D01*
X112897433Y-112682542D01*
X112658738Y-112682334D01*
X112438133Y-112773486D01*
X112269203Y-112942121D01*
X112177666Y-113162567D01*
X112177458Y-113401262D01*
X109449778Y-113401262D01*
X110666040Y-112185000D01*
X114758960Y-112185000D01*
X115672088Y-113098128D01*
X115671985Y-113215913D01*
X115763137Y-113436518D01*
X115931772Y-113605448D01*
X116152218Y-113696985D01*
X116390913Y-113697193D01*
X116611518Y-113606041D01*
X116780448Y-113437406D01*
X116871985Y-113216960D01*
X116872193Y-112978265D01*
X116781041Y-112757660D01*
X116612406Y-112588730D01*
X116391960Y-112497193D01*
X116273130Y-112497089D01*
X115235520Y-111459480D01*
X115097641Y-111367351D01*
X115070657Y-111361984D01*
X114935000Y-111335000D01*
X110490000Y-111335000D01*
X110327359Y-111367351D01*
X110189480Y-111459480D01*
X108583961Y-113064999D01*
X108466176Y-113064896D01*
X108245571Y-113156048D01*
X108076641Y-113324683D01*
X107985104Y-113545129D01*
X107984896Y-113783824D01*
X100375000Y-113783824D01*
X100375000Y-109973824D01*
X101634896Y-109973824D01*
X101726048Y-110194429D01*
X101894683Y-110363359D01*
X102115129Y-110454896D01*
X102353824Y-110455104D01*
X102574429Y-110363952D01*
X102743359Y-110195317D01*
X102834896Y-109974871D01*
X102835000Y-109856040D01*
X104316040Y-108375000D01*
X105646491Y-108375000D01*
X105729704Y-108458359D01*
X105950150Y-108549896D01*
X106188845Y-108550104D01*
X106409450Y-108458952D01*
X106578380Y-108290317D01*
X106669917Y-108069871D01*
X106670125Y-107831176D01*
X106578973Y-107610571D01*
X106410338Y-107441641D01*
X106189892Y-107350104D01*
X105951197Y-107349896D01*
X105730592Y-107441048D01*
X105646493Y-107525000D01*
X104140000Y-107525000D01*
X103977359Y-107557351D01*
X103839480Y-107649480D01*
X102233961Y-109254999D01*
X102116176Y-109254896D01*
X101895571Y-109346048D01*
X101726641Y-109514683D01*
X101635104Y-109735129D01*
X101634896Y-109973824D01*
X100375000Y-109973824D01*
X100375000Y-105641243D01*
X102999609Y-105641243D01*
X103170104Y-106052867D01*
X103489948Y-106375095D01*
X103908756Y-106550396D01*
X104090000Y-106497530D01*
X104090000Y-105460000D01*
X104190000Y-105460000D01*
X104190000Y-106497530D01*
X104371244Y-106550396D01*
X104790052Y-106375095D01*
X105109896Y-106052867D01*
X105280391Y-105641243D01*
X105227451Y-105460000D01*
X104190000Y-105460000D01*
X104090000Y-105460000D01*
X103052549Y-105460000D01*
X102999609Y-105641243D01*
X100375000Y-105641243D01*
X100375000Y-105410000D01*
X105493604Y-105410000D01*
X105582178Y-105855290D01*
X105834415Y-106232789D01*
X106211914Y-106485026D01*
X106657204Y-106573600D01*
X106702796Y-106573600D01*
X107148086Y-106485026D01*
X107525585Y-106232789D01*
X107777822Y-105855290D01*
X107866396Y-105410000D01*
X107777822Y-104964710D01*
X107525585Y-104587211D01*
X107148086Y-104334974D01*
X106702796Y-104246400D01*
X106657204Y-104246400D01*
X106211914Y-104334974D01*
X105834415Y-104587211D01*
X105582178Y-104964710D01*
X105493604Y-105410000D01*
X100375000Y-105410000D01*
X100375000Y-105178757D01*
X102999609Y-105178757D01*
X103052549Y-105360000D01*
X104090000Y-105360000D01*
X104090000Y-104322470D01*
X104190000Y-104322470D01*
X104190000Y-105360000D01*
X105227451Y-105360000D01*
X105280391Y-105178757D01*
X105109896Y-104767133D01*
X104790052Y-104444905D01*
X104371244Y-104269604D01*
X104190000Y-104322470D01*
X104090000Y-104322470D01*
X103908756Y-104269604D01*
X103489948Y-104444905D01*
X103170104Y-104767133D01*
X102999609Y-105178757D01*
X100375000Y-105178757D01*
X100375000Y-103101243D01*
X102999609Y-103101243D01*
X103170104Y-103512867D01*
X103489948Y-103835095D01*
X103908756Y-104010396D01*
X104090000Y-103957530D01*
X104090000Y-102920000D01*
X104190000Y-102920000D01*
X104190000Y-103957530D01*
X104371244Y-104010396D01*
X104790052Y-103835095D01*
X105109896Y-103512867D01*
X105280391Y-103101243D01*
X105227451Y-102920000D01*
X104190000Y-102920000D01*
X104090000Y-102920000D01*
X103052549Y-102920000D01*
X102999609Y-103101243D01*
X100375000Y-103101243D01*
X100375000Y-102870000D01*
X105493604Y-102870000D01*
X105582178Y-103315290D01*
X105834415Y-103692789D01*
X106211914Y-103945026D01*
X106657204Y-104033600D01*
X106702796Y-104033600D01*
X107148086Y-103945026D01*
X107525585Y-103692789D01*
X107777822Y-103315290D01*
X107866396Y-102870000D01*
X108033604Y-102870000D01*
X108122178Y-103315290D01*
X108374415Y-103692789D01*
X108751914Y-103945026D01*
X109197204Y-104033600D01*
X109242796Y-104033600D01*
X109688086Y-103945026D01*
X109691622Y-103942663D01*
X109783078Y-104034119D01*
X109783081Y-104034121D01*
X110156399Y-104407440D01*
X110156399Y-104723124D01*
X110065585Y-104587211D01*
X109688086Y-104334974D01*
X109242796Y-104246400D01*
X109197204Y-104246400D01*
X108751914Y-104334974D01*
X108374415Y-104587211D01*
X108122178Y-104964710D01*
X108033604Y-105410000D01*
X108122178Y-105855290D01*
X108374415Y-106232789D01*
X108751914Y-106485026D01*
X109197204Y-106573600D01*
X109242796Y-106573600D01*
X109688086Y-106485026D01*
X109691622Y-106482663D01*
X109783078Y-106574119D01*
X109783081Y-106574121D01*
X110538092Y-107329133D01*
X110675971Y-107421261D01*
X110838612Y-107453612D01*
X112131436Y-107453612D01*
X118008343Y-113330520D01*
X118048532Y-113357373D01*
X118146224Y-113422649D01*
X118308864Y-113455000D01*
X120226470Y-113455000D01*
X120309683Y-113538359D01*
X120530129Y-113629896D01*
X120768824Y-113630104D01*
X120989429Y-113538952D01*
X121158359Y-113370317D01*
X121249896Y-113149871D01*
X121250104Y-112911176D01*
X121212431Y-112820000D01*
X121496470Y-112820000D01*
X121579683Y-112903359D01*
X121800129Y-112994896D01*
X122038824Y-112995104D01*
X122259429Y-112903952D01*
X122428359Y-112735317D01*
X122519896Y-112514871D01*
X122520031Y-112359970D01*
X122673824Y-112360104D01*
X122894429Y-112268952D01*
X123063359Y-112100317D01*
X123154896Y-111879871D01*
X123155104Y-111641176D01*
X123117431Y-111550000D01*
X123401470Y-111550000D01*
X123484683Y-111633359D01*
X123705129Y-111724896D01*
X123943824Y-111725104D01*
X124164429Y-111633952D01*
X124333359Y-111465317D01*
X124424896Y-111244871D01*
X124425031Y-111089970D01*
X124578824Y-111090104D01*
X124799429Y-110998952D01*
X124968359Y-110830317D01*
X125059896Y-110609871D01*
X125060104Y-110371176D01*
X124968952Y-110150571D01*
X124800317Y-109981641D01*
X124579871Y-109890104D01*
X124391643Y-109889940D01*
X124424896Y-109809858D01*
X124425035Y-109650256D01*
X124645013Y-109559363D01*
X124813943Y-109390728D01*
X124855672Y-109290233D01*
X125021541Y-109456392D01*
X125241987Y-109547929D01*
X125480682Y-109548137D01*
X125701287Y-109456985D01*
X125870217Y-109288350D01*
X125961754Y-109067904D01*
X125961962Y-108829209D01*
X125870810Y-108608604D01*
X125702175Y-108439674D01*
X125481729Y-108348137D01*
X125362898Y-108348033D01*
X125139755Y-108124890D01*
X125001876Y-108032761D01*
X124974892Y-108027394D01*
X124839235Y-108000410D01*
X119015451Y-108000410D01*
X118535000Y-107519960D01*
X118535000Y-104140000D01*
X118502649Y-103977360D01*
X118448259Y-103895960D01*
X118410520Y-103839479D01*
X117917197Y-103346157D01*
X117937822Y-103315290D01*
X118026396Y-102870000D01*
X119280000Y-102870000D01*
X119280000Y-105410000D01*
X119287612Y-105448268D01*
X119309289Y-105480711D01*
X120579289Y-106750711D01*
X120611732Y-106772388D01*
X120650000Y-106780000D01*
X123190000Y-106780000D01*
X123228268Y-106772388D01*
X123260711Y-106750711D01*
X124370179Y-105641243D01*
X125859609Y-105641243D01*
X126030104Y-106052867D01*
X126349948Y-106375095D01*
X126768756Y-106550396D01*
X126950000Y-106497530D01*
X126950000Y-105460000D01*
X127050000Y-105460000D01*
X127050000Y-106497530D01*
X127231244Y-106550396D01*
X127650052Y-106375095D01*
X127969896Y-106052867D01*
X128140391Y-105641243D01*
X128087451Y-105460000D01*
X127050000Y-105460000D01*
X126950000Y-105460000D01*
X125912549Y-105460000D01*
X125859609Y-105641243D01*
X124370179Y-105641243D01*
X124530711Y-105480711D01*
X124552388Y-105448268D01*
X124560000Y-105410000D01*
X128353604Y-105410000D01*
X128442178Y-105855290D01*
X128694415Y-106232789D01*
X129071914Y-106485026D01*
X129517204Y-106573600D01*
X129562796Y-106573600D01*
X130008086Y-106485026D01*
X130385585Y-106232789D01*
X130637822Y-105855290D01*
X130726396Y-105410000D01*
X130893604Y-105410000D01*
X130982178Y-105855290D01*
X131234415Y-106232789D01*
X131611914Y-106485026D01*
X132057204Y-106573600D01*
X132102796Y-106573600D01*
X132548086Y-106485026D01*
X132925585Y-106232789D01*
X133177822Y-105855290D01*
X133266396Y-105410000D01*
X133433604Y-105410000D01*
X133522178Y-105855290D01*
X133774415Y-106232789D01*
X134151914Y-106485026D01*
X134597204Y-106573600D01*
X134642796Y-106573600D01*
X135088086Y-106485026D01*
X135465585Y-106232789D01*
X135717822Y-105855290D01*
X135806396Y-105410000D01*
X135973604Y-105410000D01*
X136062178Y-105855290D01*
X136314415Y-106232789D01*
X136691914Y-106485026D01*
X137137204Y-106573600D01*
X137182796Y-106573600D01*
X137628086Y-106485026D01*
X138005585Y-106232789D01*
X138257822Y-105855290D01*
X138346396Y-105410000D01*
X138257822Y-104964710D01*
X138005585Y-104587211D01*
X137944508Y-104546400D01*
X138530523Y-104546400D01*
X138530523Y-106273600D01*
X138553807Y-106390654D01*
X138620112Y-106489888D01*
X138719346Y-106556193D01*
X138836400Y-106579477D01*
X140563600Y-106579477D01*
X140680654Y-106556193D01*
X140779888Y-106489888D01*
X140846193Y-106390654D01*
X140869477Y-106273600D01*
X140869477Y-104546400D01*
X140846193Y-104429346D01*
X140779888Y-104330112D01*
X140680654Y-104263807D01*
X140563600Y-104240523D01*
X138836400Y-104240523D01*
X138719346Y-104263807D01*
X138620112Y-104330112D01*
X138553807Y-104429346D01*
X138530523Y-104546400D01*
X137944508Y-104546400D01*
X137628086Y-104334974D01*
X137182796Y-104246400D01*
X137137204Y-104246400D01*
X136691914Y-104334974D01*
X136314415Y-104587211D01*
X136062178Y-104964710D01*
X135973604Y-105410000D01*
X135806396Y-105410000D01*
X135717822Y-104964710D01*
X135465585Y-104587211D01*
X135088086Y-104334974D01*
X134642796Y-104246400D01*
X134597204Y-104246400D01*
X134151914Y-104334974D01*
X133774415Y-104587211D01*
X133522178Y-104964710D01*
X133433604Y-105410000D01*
X133266396Y-105410000D01*
X133177822Y-104964710D01*
X132925585Y-104587211D01*
X132548086Y-104334974D01*
X132102796Y-104246400D01*
X132057204Y-104246400D01*
X131611914Y-104334974D01*
X131234415Y-104587211D01*
X130982178Y-104964710D01*
X130893604Y-105410000D01*
X130726396Y-105410000D01*
X130637822Y-104964710D01*
X130385585Y-104587211D01*
X130008086Y-104334974D01*
X129562796Y-104246400D01*
X129517204Y-104246400D01*
X129071914Y-104334974D01*
X128694415Y-104587211D01*
X128442178Y-104964710D01*
X128353604Y-105410000D01*
X124560000Y-105410000D01*
X124560000Y-105178757D01*
X125859609Y-105178757D01*
X125912549Y-105360000D01*
X126950000Y-105360000D01*
X126950000Y-104322470D01*
X127050000Y-104322470D01*
X127050000Y-105360000D01*
X128087451Y-105360000D01*
X128140391Y-105178757D01*
X127969896Y-104767133D01*
X127650052Y-104444905D01*
X127231244Y-104269604D01*
X127050000Y-104322470D01*
X126950000Y-104322470D01*
X126768756Y-104269604D01*
X126349948Y-104444905D01*
X126030104Y-104767133D01*
X125859609Y-105178757D01*
X124560000Y-105178757D01*
X124560000Y-103101243D01*
X125859609Y-103101243D01*
X126030104Y-103512867D01*
X126349948Y-103835095D01*
X126768756Y-104010396D01*
X126950000Y-103957530D01*
X126950000Y-102920000D01*
X127050000Y-102920000D01*
X127050000Y-103957530D01*
X127231244Y-104010396D01*
X127650052Y-103835095D01*
X127969896Y-103512867D01*
X128140391Y-103101243D01*
X128087451Y-102920000D01*
X127050000Y-102920000D01*
X126950000Y-102920000D01*
X125912549Y-102920000D01*
X125859609Y-103101243D01*
X124560000Y-103101243D01*
X124560000Y-102870000D01*
X128353604Y-102870000D01*
X128442178Y-103315290D01*
X128694415Y-103692789D01*
X129071914Y-103945026D01*
X129517204Y-104033600D01*
X129562796Y-104033600D01*
X130008086Y-103945026D01*
X130385585Y-103692789D01*
X130637822Y-103315290D01*
X130726396Y-102870000D01*
X130893604Y-102870000D01*
X130982178Y-103315290D01*
X131234415Y-103692789D01*
X131611914Y-103945026D01*
X132057204Y-104033600D01*
X132102796Y-104033600D01*
X132548086Y-103945026D01*
X132925585Y-103692789D01*
X133177822Y-103315290D01*
X133266396Y-102870000D01*
X133433604Y-102870000D01*
X133522178Y-103315290D01*
X133774415Y-103692789D01*
X134151914Y-103945026D01*
X134597204Y-104033600D01*
X134642796Y-104033600D01*
X135088086Y-103945026D01*
X135465585Y-103692789D01*
X135717822Y-103315290D01*
X135806396Y-102870000D01*
X135973604Y-102870000D01*
X136062178Y-103315290D01*
X136314415Y-103692789D01*
X136691914Y-103945026D01*
X137137204Y-104033600D01*
X137182796Y-104033600D01*
X137628086Y-103945026D01*
X138005585Y-103692789D01*
X138257822Y-103315290D01*
X138346396Y-102870000D01*
X138513604Y-102870000D01*
X138602178Y-103315290D01*
X138854415Y-103692789D01*
X139231914Y-103945026D01*
X139677204Y-104033600D01*
X139722796Y-104033600D01*
X140168086Y-103945026D01*
X140545585Y-103692789D01*
X140797822Y-103315290D01*
X140886396Y-102870000D01*
X140797822Y-102424710D01*
X140545585Y-102047211D01*
X140168086Y-101794974D01*
X139722796Y-101706400D01*
X139677204Y-101706400D01*
X139231914Y-101794974D01*
X138854415Y-102047211D01*
X138602178Y-102424710D01*
X138513604Y-102870000D01*
X138346396Y-102870000D01*
X138257822Y-102424710D01*
X138005585Y-102047211D01*
X137628086Y-101794974D01*
X137182796Y-101706400D01*
X137137204Y-101706400D01*
X136691914Y-101794974D01*
X136314415Y-102047211D01*
X136062178Y-102424710D01*
X135973604Y-102870000D01*
X135806396Y-102870000D01*
X135717822Y-102424710D01*
X135465585Y-102047211D01*
X135088086Y-101794974D01*
X134642796Y-101706400D01*
X134597204Y-101706400D01*
X134151914Y-101794974D01*
X133774415Y-102047211D01*
X133522178Y-102424710D01*
X133433604Y-102870000D01*
X133266396Y-102870000D01*
X133177822Y-102424710D01*
X132925585Y-102047211D01*
X132548086Y-101794974D01*
X132102796Y-101706400D01*
X132057204Y-101706400D01*
X131611914Y-101794974D01*
X131234415Y-102047211D01*
X130982178Y-102424710D01*
X130893604Y-102870000D01*
X130726396Y-102870000D01*
X130637822Y-102424710D01*
X130385585Y-102047211D01*
X130008086Y-101794974D01*
X129562796Y-101706400D01*
X129517204Y-101706400D01*
X129071914Y-101794974D01*
X128694415Y-102047211D01*
X128442178Y-102424710D01*
X128353604Y-102870000D01*
X124560000Y-102870000D01*
X124552388Y-102831732D01*
X124530711Y-102799289D01*
X124370179Y-102638757D01*
X125859609Y-102638757D01*
X125912549Y-102820000D01*
X126950000Y-102820000D01*
X126950000Y-101782470D01*
X127050000Y-101782470D01*
X127050000Y-102820000D01*
X128087451Y-102820000D01*
X128140391Y-102638757D01*
X127969896Y-102227133D01*
X127650052Y-101904905D01*
X127231244Y-101729604D01*
X127050000Y-101782470D01*
X126950000Y-101782470D01*
X126768756Y-101729604D01*
X126349948Y-101904905D01*
X126030104Y-102227133D01*
X125859609Y-102638757D01*
X124370179Y-102638757D01*
X123260711Y-101529289D01*
X123228268Y-101507612D01*
X123190000Y-101500000D01*
X120650000Y-101500000D01*
X120611732Y-101507612D01*
X120579289Y-101529289D01*
X119309289Y-102799289D01*
X119287612Y-102831732D01*
X119280000Y-102870000D01*
X118026396Y-102870000D01*
X117937822Y-102424710D01*
X117685585Y-102047211D01*
X117308086Y-101794974D01*
X116862796Y-101706400D01*
X116817204Y-101706400D01*
X116371914Y-101794974D01*
X115994415Y-102047211D01*
X115742178Y-102424710D01*
X115653604Y-102870000D01*
X115742178Y-103315290D01*
X115994415Y-103692789D01*
X116371914Y-103945026D01*
X116817204Y-104033600D01*
X116862796Y-104033600D01*
X117308086Y-103945026D01*
X117311622Y-103942663D01*
X117609482Y-104240523D01*
X115976400Y-104240523D01*
X115913601Y-104253015D01*
X115913601Y-104058601D01*
X115908628Y-104033600D01*
X115881250Y-103895960D01*
X115789122Y-103758081D01*
X115377197Y-103346157D01*
X115397822Y-103315290D01*
X115486396Y-102870000D01*
X115397822Y-102424710D01*
X115145585Y-102047211D01*
X114768086Y-101794974D01*
X114322796Y-101706400D01*
X114277204Y-101706400D01*
X113831914Y-101794974D01*
X113454415Y-102047211D01*
X113202178Y-102424710D01*
X113113604Y-102870000D01*
X113202178Y-103315290D01*
X113454415Y-103692789D01*
X113831914Y-103945026D01*
X114277204Y-104033600D01*
X114322796Y-104033600D01*
X114768086Y-103945026D01*
X114771622Y-103942663D01*
X115063601Y-104234642D01*
X115063601Y-104532431D01*
X114768086Y-104334974D01*
X114322796Y-104246400D01*
X114277204Y-104246400D01*
X113831914Y-104334974D01*
X113546399Y-104525749D01*
X113546399Y-104231399D01*
X113514048Y-104068759D01*
X113514048Y-104068758D01*
X113421920Y-103930879D01*
X112924121Y-103433081D01*
X112924119Y-103433078D01*
X112837198Y-103346157D01*
X112857822Y-103315290D01*
X112946396Y-102870000D01*
X112857822Y-102424710D01*
X112605585Y-102047211D01*
X112228086Y-101794974D01*
X111782796Y-101706400D01*
X111737204Y-101706400D01*
X111291914Y-101794974D01*
X110914415Y-102047211D01*
X110662178Y-102424710D01*
X110573604Y-102870000D01*
X110662178Y-103315290D01*
X110914415Y-103692789D01*
X111291914Y-103945026D01*
X111737204Y-104033600D01*
X111782796Y-104033600D01*
X112228086Y-103945026D01*
X112231622Y-103942663D01*
X112323078Y-104034119D01*
X112323081Y-104034121D01*
X112696399Y-104407440D01*
X112696399Y-104723124D01*
X112605585Y-104587211D01*
X112228086Y-104334974D01*
X111782796Y-104246400D01*
X111737204Y-104246400D01*
X111291914Y-104334974D01*
X111006399Y-104525749D01*
X111006399Y-104231399D01*
X110974048Y-104068759D01*
X110974048Y-104068758D01*
X110881920Y-103930879D01*
X110384121Y-103433081D01*
X110384119Y-103433078D01*
X110297198Y-103346157D01*
X110317822Y-103315290D01*
X110406396Y-102870000D01*
X110317822Y-102424710D01*
X110065585Y-102047211D01*
X109688086Y-101794974D01*
X109242796Y-101706400D01*
X109197204Y-101706400D01*
X108751914Y-101794974D01*
X108374415Y-102047211D01*
X108122178Y-102424710D01*
X108033604Y-102870000D01*
X107866396Y-102870000D01*
X107777822Y-102424710D01*
X107525585Y-102047211D01*
X107148086Y-101794974D01*
X106702796Y-101706400D01*
X106657204Y-101706400D01*
X106211914Y-101794974D01*
X105834415Y-102047211D01*
X105582178Y-102424710D01*
X105493604Y-102870000D01*
X100375000Y-102870000D01*
X100375000Y-102638757D01*
X102999609Y-102638757D01*
X103052549Y-102820000D01*
X104090000Y-102820000D01*
X104090000Y-101782470D01*
X104190000Y-101782470D01*
X104190000Y-102820000D01*
X105227451Y-102820000D01*
X105280391Y-102638757D01*
X105109896Y-102227133D01*
X104790052Y-101904905D01*
X104371244Y-101729604D01*
X104190000Y-101782470D01*
X104090000Y-101782470D01*
X103908756Y-101729604D01*
X103489948Y-101904905D01*
X103170104Y-102227133D01*
X102999609Y-102638757D01*
X100375000Y-102638757D01*
X100375000Y-100375000D01*
X149625000Y-100375000D01*
X149625000Y-149625000D01*
X149625000Y-149625000D01*
G37*
X149625000Y-149625000D02*
X100375000Y-149625000D01*
X100375000Y-143764000D01*
X102445000Y-143764000D01*
X102445000Y-146050000D01*
X102466164Y-146156400D01*
X102477351Y-146212641D01*
X102569480Y-146350520D01*
X103062803Y-146843843D01*
X103042178Y-146874710D01*
X102953604Y-147320000D01*
X103042178Y-147765290D01*
X103294415Y-148142789D01*
X103671914Y-148395026D01*
X104117204Y-148483600D01*
X104162796Y-148483600D01*
X104608086Y-148395026D01*
X104985585Y-148142789D01*
X105237822Y-147765290D01*
X105326396Y-147320000D01*
X105493604Y-147320000D01*
X105582178Y-147765290D01*
X105834415Y-148142789D01*
X106211914Y-148395026D01*
X106657204Y-148483600D01*
X106702796Y-148483600D01*
X107148086Y-148395026D01*
X107525585Y-148142789D01*
X107777822Y-147765290D01*
X107866396Y-147320000D01*
X107777822Y-146874710D01*
X107525585Y-146497211D01*
X107148086Y-146244974D01*
X106702796Y-146156400D01*
X106657204Y-146156400D01*
X106211914Y-146244974D01*
X105834415Y-146497211D01*
X105582178Y-146874710D01*
X105493604Y-147320000D01*
X105326396Y-147320000D01*
X105237822Y-146874710D01*
X104985585Y-146497211D01*
X104608086Y-146244974D01*
X104162796Y-146156400D01*
X104117204Y-146156400D01*
X103671914Y-146244974D01*
X103668377Y-146247337D01*
X103370517Y-145949477D01*
X105003600Y-145949477D01*
X105120654Y-145926193D01*
X105219888Y-145859888D01*
X105286193Y-145760654D01*
X105309477Y-145643600D01*
X105309477Y-144211563D01*
X107254686Y-142266354D01*
X109373475Y-142266354D01*
X107730879Y-143908951D01*
X107638750Y-144046830D01*
X107638750Y-144046831D01*
X107626527Y-144108281D01*
X107525585Y-143957211D01*
X107148086Y-143704974D01*
X106702796Y-143616400D01*
X106657204Y-143616400D01*
X106211914Y-143704974D01*
X105834415Y-143957211D01*
X105582178Y-144334710D01*
X105493604Y-144780000D01*
X105582178Y-145225290D01*
X105834415Y-145602789D01*
X106211914Y-145855026D01*
X106657204Y-145943600D01*
X106702796Y-145943600D01*
X107148086Y-145855026D01*
X107525585Y-145602789D01*
X107606399Y-145481842D01*
X107606399Y-146131399D01*
X107633383Y-146267056D01*
X107638750Y-146294040D01*
X107730879Y-146431919D01*
X108142803Y-146843843D01*
X108122178Y-146874710D01*
X108033604Y-147320000D01*
X108122178Y-147765290D01*
X108374415Y-148142789D01*
X108751914Y-148395026D01*
X109197204Y-148483600D01*
X109242796Y-148483600D01*
X109688086Y-148395026D01*
X110065585Y-148142789D01*
X110317822Y-147765290D01*
X110406396Y-147320000D01*
X110317822Y-146874710D01*
X110065585Y-146497211D01*
X109688086Y-146244974D01*
X109242796Y-146156400D01*
X109197204Y-146156400D01*
X108751914Y-146244974D01*
X108748377Y-146247337D01*
X108456399Y-145955359D01*
X108456399Y-145657569D01*
X108751914Y-145855026D01*
X109197204Y-145943600D01*
X109242796Y-145943600D01*
X109688086Y-145855026D01*
X110065585Y-145602789D01*
X110146399Y-145481842D01*
X110146399Y-146131399D01*
X110173383Y-146267056D01*
X110178750Y-146294040D01*
X110270879Y-146431919D01*
X110682803Y-146843843D01*
X110662178Y-146874710D01*
X110573604Y-147320000D01*
X110662178Y-147765290D01*
X110914415Y-148142789D01*
X111291914Y-148395026D01*
X111737204Y-148483600D01*
X111782796Y-148483600D01*
X112228086Y-148395026D01*
X112605585Y-148142789D01*
X112857822Y-147765290D01*
X112946396Y-147320000D01*
X113113604Y-147320000D01*
X113202178Y-147765290D01*
X113454415Y-148142789D01*
X113831914Y-148395026D01*
X114277204Y-148483600D01*
X114322796Y-148483600D01*
X114768086Y-148395026D01*
X115145585Y-148142789D01*
X115397822Y-147765290D01*
X115440398Y-147551243D01*
X115699609Y-147551243D01*
X115870104Y-147962867D01*
X116189948Y-148285095D01*
X116608756Y-148460396D01*
X116790000Y-148407530D01*
X116790000Y-147370000D01*
X116890000Y-147370000D01*
X116890000Y-148407530D01*
X117071244Y-148460396D01*
X117490052Y-148285095D01*
X117809896Y-147962867D01*
X117980391Y-147551243D01*
X117927451Y-147370000D01*
X116890000Y-147370000D01*
X116790000Y-147370000D01*
X115752549Y-147370000D01*
X115699609Y-147551243D01*
X115440398Y-147551243D01*
X115486396Y-147320000D01*
X115440399Y-147088757D01*
X115699609Y-147088757D01*
X115752549Y-147270000D01*
X116790000Y-147270000D01*
X116790000Y-146232470D01*
X116890000Y-146232470D01*
X116890000Y-147270000D01*
X117927451Y-147270000D01*
X117980391Y-147088757D01*
X117809896Y-146677133D01*
X117490052Y-146354905D01*
X117071244Y-146179604D01*
X116890000Y-146232470D01*
X116790000Y-146232470D01*
X116608756Y-146179604D01*
X116189948Y-146354905D01*
X115870104Y-146677133D01*
X115699609Y-147088757D01*
X115440399Y-147088757D01*
X115397822Y-146874710D01*
X115145585Y-146497211D01*
X114768086Y-146244974D01*
X114322796Y-146156400D01*
X114277204Y-146156400D01*
X113831914Y-146244974D01*
X113454415Y-146497211D01*
X113202178Y-146874710D01*
X113113604Y-147320000D01*
X112946396Y-147320000D01*
X112857822Y-146874710D01*
X112605585Y-146497211D01*
X112228086Y-146244974D01*
X111782796Y-146156400D01*
X111737204Y-146156400D01*
X111291914Y-146244974D01*
X111288377Y-146247337D01*
X110996399Y-145955359D01*
X110996399Y-145657569D01*
X111291914Y-145855026D01*
X111737204Y-145943600D01*
X111782796Y-145943600D01*
X112228086Y-145855026D01*
X112605585Y-145602789D01*
X112857822Y-145225290D01*
X112946396Y-144780000D01*
X112857822Y-144334710D01*
X112837197Y-144303843D01*
X113114642Y-144026399D01*
X113408185Y-144026399D01*
X113202178Y-144334710D01*
X113113604Y-144780000D01*
X113202178Y-145225290D01*
X113454415Y-145602789D01*
X113831914Y-145855026D01*
X114277204Y-145943600D01*
X114322796Y-145943600D01*
X114768086Y-145855026D01*
X115145585Y-145602789D01*
X115397822Y-145225290D01*
X115440398Y-145011243D01*
X115699609Y-145011243D01*
X115870104Y-145422867D01*
X116189948Y-145745095D01*
X116608756Y-145920396D01*
X116790000Y-145867530D01*
X116790000Y-144830000D01*
X116890000Y-144830000D01*
X116890000Y-145867530D01*
X117071244Y-145920396D01*
X117490052Y-145745095D01*
X117809896Y-145422867D01*
X117980391Y-145011243D01*
X117927451Y-144830000D01*
X116890000Y-144830000D01*
X116790000Y-144830000D01*
X115752549Y-144830000D01*
X115699609Y-145011243D01*
X115440398Y-145011243D01*
X115486396Y-144780000D01*
X119280000Y-144780000D01*
X119280000Y-147320000D01*
X119287612Y-147358268D01*
X119309289Y-147390711D01*
X120579289Y-148660711D01*
X120611732Y-148682388D01*
X120650000Y-148690000D01*
X123190000Y-148690000D01*
X123228268Y-148682388D01*
X123260711Y-148660711D01*
X124530711Y-147390711D01*
X124552388Y-147358268D01*
X124560000Y-147320000D01*
X125813604Y-147320000D01*
X125902178Y-147765290D01*
X126154415Y-148142789D01*
X126531914Y-148395026D01*
X126977204Y-148483600D01*
X127022796Y-148483600D01*
X127468086Y-148395026D01*
X127845585Y-148142789D01*
X128097822Y-147765290D01*
X128186396Y-147320000D01*
X128353604Y-147320000D01*
X128442178Y-147765290D01*
X128694415Y-148142789D01*
X129071914Y-148395026D01*
X129517204Y-148483600D01*
X129562796Y-148483600D01*
X130008086Y-148395026D01*
X130385585Y-148142789D01*
X130637822Y-147765290D01*
X130726396Y-147320000D01*
X130893604Y-147320000D01*
X130982178Y-147765290D01*
X131234415Y-148142789D01*
X131611914Y-148395026D01*
X132057204Y-148483600D01*
X132102796Y-148483600D01*
X132548086Y-148395026D01*
X132925585Y-148142789D01*
X133177822Y-147765290D01*
X133266396Y-147320000D01*
X133433604Y-147320000D01*
X133522178Y-147765290D01*
X133774415Y-148142789D01*
X134151914Y-148395026D01*
X134597204Y-148483600D01*
X134642796Y-148483600D01*
X135088086Y-148395026D01*
X135465585Y-148142789D01*
X135717822Y-147765290D01*
X135806396Y-147320000D01*
X135973604Y-147320000D01*
X136062178Y-147765290D01*
X136314415Y-148142789D01*
X136691914Y-148395026D01*
X137137204Y-148483600D01*
X137182796Y-148483600D01*
X137628086Y-148395026D01*
X138005585Y-148142789D01*
X138257822Y-147765290D01*
X138300398Y-147551243D01*
X138559609Y-147551243D01*
X138730104Y-147962867D01*
X139049948Y-148285095D01*
X139468756Y-148460396D01*
X139650000Y-148407530D01*
X139650000Y-147370000D01*
X139750000Y-147370000D01*
X139750000Y-148407530D01*
X139931244Y-148460396D01*
X140350052Y-148285095D01*
X140669896Y-147962867D01*
X140840391Y-147551243D01*
X140787451Y-147370000D01*
X139750000Y-147370000D01*
X139650000Y-147370000D01*
X138612549Y-147370000D01*
X138559609Y-147551243D01*
X138300398Y-147551243D01*
X138346396Y-147320000D01*
X138300399Y-147088757D01*
X138559609Y-147088757D01*
X138612549Y-147270000D01*
X139650000Y-147270000D01*
X139650000Y-146232470D01*
X139750000Y-146232470D01*
X139750000Y-147270000D01*
X140787451Y-147270000D01*
X140840391Y-147088757D01*
X140669896Y-146677133D01*
X140350052Y-146354905D01*
X139931244Y-146179604D01*
X139750000Y-146232470D01*
X139650000Y-146232470D01*
X139468756Y-146179604D01*
X139049948Y-146354905D01*
X138730104Y-146677133D01*
X138559609Y-147088757D01*
X138300399Y-147088757D01*
X138257822Y-146874710D01*
X138005585Y-146497211D01*
X137628086Y-146244974D01*
X137182796Y-146156400D01*
X137137204Y-146156400D01*
X136691914Y-146244974D01*
X136314415Y-146497211D01*
X136062178Y-146874710D01*
X135973604Y-147320000D01*
X135806396Y-147320000D01*
X135717822Y-146874710D01*
X135465585Y-146497211D01*
X135088086Y-146244974D01*
X134642796Y-146156400D01*
X134597204Y-146156400D01*
X134151914Y-146244974D01*
X133774415Y-146497211D01*
X133522178Y-146874710D01*
X133433604Y-147320000D01*
X133266396Y-147320000D01*
X133177822Y-146874710D01*
X132925585Y-146497211D01*
X132548086Y-146244974D01*
X132102796Y-146156400D01*
X132057204Y-146156400D01*
X131611914Y-146244974D01*
X131234415Y-146497211D01*
X130982178Y-146874710D01*
X130893604Y-147320000D01*
X130726396Y-147320000D01*
X130637822Y-146874710D01*
X130385585Y-146497211D01*
X130008086Y-146244974D01*
X129562796Y-146156400D01*
X129517204Y-146156400D01*
X129071914Y-146244974D01*
X128694415Y-146497211D01*
X128442178Y-146874710D01*
X128353604Y-147320000D01*
X128186396Y-147320000D01*
X128097822Y-146874710D01*
X127845585Y-146497211D01*
X127468086Y-146244974D01*
X127022796Y-146156400D01*
X126977204Y-146156400D01*
X126531914Y-146244974D01*
X126154415Y-146497211D01*
X125902178Y-146874710D01*
X125813604Y-147320000D01*
X124560000Y-147320000D01*
X124560000Y-144780000D01*
X124552388Y-144741732D01*
X124530711Y-144709289D01*
X123737822Y-143916400D01*
X125830523Y-143916400D01*
X125830523Y-145643600D01*
X125853807Y-145760654D01*
X125920112Y-145859888D01*
X126019346Y-145926193D01*
X126136400Y-145949477D01*
X127863600Y-145949477D01*
X127980654Y-145926193D01*
X128079888Y-145859888D01*
X128146193Y-145760654D01*
X128169477Y-145643600D01*
X128169477Y-144780000D01*
X128353604Y-144780000D01*
X128442178Y-145225290D01*
X128694415Y-145602789D01*
X129071914Y-145855026D01*
X129517204Y-145943600D01*
X129562796Y-145943600D01*
X130008086Y-145855026D01*
X130385585Y-145602789D01*
X130637822Y-145225290D01*
X130726396Y-144780000D01*
X130893604Y-144780000D01*
X130982178Y-145225290D01*
X131234415Y-145602789D01*
X131611914Y-145855026D01*
X132057204Y-145943600D01*
X132102796Y-145943600D01*
X132548086Y-145855026D01*
X132925585Y-145602789D01*
X133177822Y-145225290D01*
X133266396Y-144780000D01*
X133433604Y-144780000D01*
X133522178Y-145225290D01*
X133774415Y-145602789D01*
X134151914Y-145855026D01*
X134597204Y-145943600D01*
X134642796Y-145943600D01*
X135088086Y-145855026D01*
X135465585Y-145602789D01*
X135717822Y-145225290D01*
X135806396Y-144780000D01*
X135973604Y-144780000D01*
X136062178Y-145225290D01*
X136314415Y-145602789D01*
X136691914Y-145855026D01*
X137137204Y-145943600D01*
X137182796Y-145943600D01*
X137628086Y-145855026D01*
X138005585Y-145602789D01*
X138257822Y-145225290D01*
X138300398Y-145011243D01*
X138559609Y-145011243D01*
X138730104Y-145422867D01*
X139049948Y-145745095D01*
X139468756Y-145920396D01*
X139650000Y-145867530D01*
X139650000Y-144830000D01*
X139750000Y-144830000D01*
X139750000Y-145867530D01*
X139931244Y-145920396D01*
X140350052Y-145745095D01*
X140669896Y-145422867D01*
X140840391Y-145011243D01*
X140787451Y-144830000D01*
X139750000Y-144830000D01*
X139650000Y-144830000D01*
X138612549Y-144830000D01*
X138559609Y-145011243D01*
X138300398Y-145011243D01*
X138346396Y-144780000D01*
X138300399Y-144548757D01*
X138559609Y-144548757D01*
X138612549Y-144730000D01*
X139650000Y-144730000D01*
X139650000Y-143692470D01*
X139750000Y-143692470D01*
X139750000Y-144730000D01*
X140787451Y-144730000D01*
X140840391Y-144548757D01*
X140669896Y-144137133D01*
X140350052Y-143814905D01*
X139931244Y-143639604D01*
X139750000Y-143692470D01*
X139650000Y-143692470D01*
X139468756Y-143639604D01*
X139049948Y-143814905D01*
X138730104Y-144137133D01*
X138559609Y-144548757D01*
X138300399Y-144548757D01*
X138257822Y-144334710D01*
X138005585Y-143957211D01*
X137628086Y-143704974D01*
X137182796Y-143616400D01*
X137137204Y-143616400D01*
X136691914Y-143704974D01*
X136314415Y-143957211D01*
X136062178Y-144334710D01*
X135973604Y-144780000D01*
X135806396Y-144780000D01*
X135717822Y-144334710D01*
X135465585Y-143957211D01*
X135088086Y-143704974D01*
X134642796Y-143616400D01*
X134597204Y-143616400D01*
X134151914Y-143704974D01*
X133774415Y-143957211D01*
X133522178Y-144334710D01*
X133433604Y-144780000D01*
X133266396Y-144780000D01*
X133177822Y-144334710D01*
X132925585Y-143957211D01*
X132548086Y-143704974D01*
X132102796Y-143616400D01*
X132057204Y-143616400D01*
X131611914Y-143704974D01*
X131234415Y-143957211D01*
X130982178Y-144334710D01*
X130893604Y-144780000D01*
X130726396Y-144780000D01*
X130637822Y-144334710D01*
X130385585Y-143957211D01*
X130008086Y-143704974D01*
X129562796Y-143616400D01*
X129517204Y-143616400D01*
X129071914Y-143704974D01*
X128694415Y-143957211D01*
X128442178Y-144334710D01*
X128353604Y-144780000D01*
X128169477Y-144780000D01*
X128169477Y-143916400D01*
X128146193Y-143799346D01*
X128079888Y-143700112D01*
X127980654Y-143633807D01*
X127863600Y-143610523D01*
X126136400Y-143610523D01*
X126019346Y-143633807D01*
X125920112Y-143700112D01*
X125853807Y-143799346D01*
X125830523Y-143916400D01*
X123737822Y-143916400D01*
X123260711Y-143439289D01*
X123228268Y-143417612D01*
X123190000Y-143410000D01*
X120650000Y-143410000D01*
X120611732Y-143417612D01*
X120579289Y-143439289D01*
X119309289Y-144709289D01*
X119287612Y-144741732D01*
X119280000Y-144780000D01*
X115486396Y-144780000D01*
X115397822Y-144334710D01*
X115191815Y-144026399D01*
X115980019Y-144026399D01*
X115870104Y-144137133D01*
X115699609Y-144548757D01*
X115752549Y-144730000D01*
X116790000Y-144730000D01*
X116790000Y-143692470D01*
X116890000Y-143692470D01*
X116890000Y-144730000D01*
X117927451Y-144730000D01*
X117980391Y-144548757D01*
X117809896Y-144137133D01*
X117490052Y-143814905D01*
X117071244Y-143639604D01*
X116890000Y-143692470D01*
X116790000Y-143692470D01*
X116661153Y-143654887D01*
X119328123Y-140987918D01*
X119328123Y-142621000D01*
X119351407Y-142738054D01*
X119417712Y-142837288D01*
X119516946Y-142903593D01*
X119634000Y-142926877D01*
X121666000Y-142926877D01*
X121783054Y-142903593D01*
X121882288Y-142837288D01*
X121948593Y-142738054D01*
X121971877Y-142621000D01*
X121971877Y-142122840D01*
X121974175Y-142134393D01*
X122259447Y-142561335D01*
X122686389Y-142846607D01*
X123190000Y-142946782D01*
X123693611Y-142846607D01*
X124120553Y-142561335D01*
X124405825Y-142134393D01*
X124506000Y-141630782D01*
X124506000Y-141579218D01*
X124465657Y-141376400D01*
X143610523Y-141376400D01*
X143610523Y-143103600D01*
X143633807Y-143220654D01*
X143700112Y-143319888D01*
X143799346Y-143386193D01*
X143916400Y-143409477D01*
X145643600Y-143409477D01*
X145760654Y-143386193D01*
X145859888Y-143319888D01*
X145926193Y-143220654D01*
X145949477Y-143103600D01*
X145949477Y-142217204D01*
X146156400Y-142217204D01*
X146156400Y-142262796D01*
X146244974Y-142708086D01*
X146497211Y-143085585D01*
X146874710Y-143337822D01*
X147320000Y-143426396D01*
X147765290Y-143337822D01*
X148142789Y-143085585D01*
X148395026Y-142708086D01*
X148483600Y-142262796D01*
X148483600Y-142217204D01*
X148395026Y-141771914D01*
X148142789Y-141394415D01*
X147765290Y-141142178D01*
X147320000Y-141053604D01*
X146874710Y-141142178D01*
X146497211Y-141394415D01*
X146244974Y-141771914D01*
X146156400Y-142217204D01*
X145949477Y-142217204D01*
X145949477Y-141376400D01*
X145926193Y-141259346D01*
X145859888Y-141160112D01*
X145760654Y-141093807D01*
X145643600Y-141070523D01*
X143916400Y-141070523D01*
X143799346Y-141093807D01*
X143700112Y-141160112D01*
X143633807Y-141259346D01*
X143610523Y-141376400D01*
X124465657Y-141376400D01*
X124405825Y-141075607D01*
X124120553Y-140648665D01*
X123693611Y-140363393D01*
X123190000Y-140263218D01*
X122686389Y-140363393D01*
X122259447Y-140648665D01*
X121974175Y-141075607D01*
X121971877Y-141087160D01*
X121971877Y-140589000D01*
X121948593Y-140471946D01*
X121882288Y-140372712D01*
X121783054Y-140306407D01*
X121666000Y-140283123D01*
X120032918Y-140283123D01*
X120638837Y-139677204D01*
X143616400Y-139677204D01*
X143616400Y-139722796D01*
X143704974Y-140168086D01*
X143957211Y-140545585D01*
X144334710Y-140797822D01*
X144780000Y-140886396D01*
X145225290Y-140797822D01*
X145602789Y-140545585D01*
X145855026Y-140168086D01*
X145943600Y-139722796D01*
X145943600Y-139677204D01*
X146156400Y-139677204D01*
X146156400Y-139722796D01*
X146244974Y-140168086D01*
X146497211Y-140545585D01*
X146874710Y-140797822D01*
X147320000Y-140886396D01*
X147765290Y-140797822D01*
X148142789Y-140545585D01*
X148395026Y-140168086D01*
X148483600Y-139722796D01*
X148483600Y-139677204D01*
X148395026Y-139231914D01*
X148142789Y-138854415D01*
X147765290Y-138602178D01*
X147320000Y-138513604D01*
X146874710Y-138602178D01*
X146497211Y-138854415D01*
X146244974Y-139231914D01*
X146156400Y-139677204D01*
X145943600Y-139677204D01*
X145855026Y-139231914D01*
X145602789Y-138854415D01*
X145225290Y-138602178D01*
X144780000Y-138513604D01*
X144334710Y-138602178D01*
X143957211Y-138854415D01*
X143704974Y-139231914D01*
X143616400Y-139677204D01*
X120638837Y-139677204D01*
X122045008Y-138271033D01*
X122124232Y-138303929D01*
X122362927Y-138304137D01*
X122583532Y-138212985D01*
X122752462Y-138044350D01*
X122843999Y-137823904D01*
X122844207Y-137585209D01*
X122753055Y-137364604D01*
X122584420Y-137195674D01*
X122513276Y-137166132D01*
X122542204Y-137137204D01*
X143616400Y-137137204D01*
X143616400Y-137182796D01*
X143704974Y-137628086D01*
X143957211Y-138005585D01*
X144334710Y-138257822D01*
X144780000Y-138346396D01*
X145225290Y-138257822D01*
X145602789Y-138005585D01*
X145855026Y-137628086D01*
X145943600Y-137182796D01*
X145943600Y-137137204D01*
X146156400Y-137137204D01*
X146156400Y-137182796D01*
X146244974Y-137628086D01*
X146497211Y-138005585D01*
X146874710Y-138257822D01*
X147320000Y-138346396D01*
X147765290Y-138257822D01*
X148142789Y-138005585D01*
X148395026Y-137628086D01*
X148483600Y-137182796D01*
X148483600Y-137137204D01*
X148395026Y-136691914D01*
X148142789Y-136314415D01*
X147765290Y-136062178D01*
X147320000Y-135973604D01*
X146874710Y-136062178D01*
X146497211Y-136314415D01*
X146244974Y-136691914D01*
X146156400Y-137137204D01*
X145943600Y-137137204D01*
X145855026Y-136691914D01*
X145602789Y-136314415D01*
X145225290Y-136062178D01*
X144780000Y-135973604D01*
X144334710Y-136062178D01*
X143957211Y-136314415D01*
X143704974Y-136691914D01*
X143616400Y-137137204D01*
X122542204Y-137137204D01*
X122572417Y-137106991D01*
X122640679Y-137078786D01*
X122809609Y-136910151D01*
X122901146Y-136689705D01*
X122901354Y-136451010D01*
X122810202Y-136230405D01*
X122641567Y-136061475D01*
X122421121Y-135969938D01*
X122182426Y-135969730D01*
X121961821Y-136060882D01*
X121792891Y-136229517D01*
X121701354Y-136449963D01*
X121701146Y-136688658D01*
X121726736Y-136750590D01*
X121644136Y-136833190D01*
X121598981Y-136723905D01*
X121430346Y-136554975D01*
X121209900Y-136463438D01*
X120971205Y-136463230D01*
X120750600Y-136554382D01*
X120650545Y-136654262D01*
X120650545Y-136421181D01*
X120699944Y-136421224D01*
X120920549Y-136330072D01*
X121089479Y-136161437D01*
X121181016Y-135940991D01*
X121181224Y-135702296D01*
X121090072Y-135481691D01*
X120921437Y-135312761D01*
X120700991Y-135221224D01*
X120462296Y-135221016D01*
X120241691Y-135312168D01*
X120072761Y-135480803D01*
X119981224Y-135701249D01*
X119981120Y-135820080D01*
X119980603Y-135820597D01*
X119980600Y-135820599D01*
X119925025Y-135876175D01*
X119832896Y-136014054D01*
X119832896Y-136014055D01*
X119805002Y-136154288D01*
X119805002Y-135043538D01*
X119888369Y-134960317D01*
X119979906Y-134739871D01*
X119980114Y-134501176D01*
X119888962Y-134280571D01*
X119720327Y-134111641D01*
X119499881Y-134020104D01*
X119261186Y-134019896D01*
X119040581Y-134111048D01*
X118871651Y-134279683D01*
X118780114Y-134500129D01*
X118779906Y-134738824D01*
X118871058Y-134959429D01*
X118955002Y-135043520D01*
X118955002Y-135254995D01*
X118955001Y-135255000D01*
X118955002Y-135255005D01*
X118955002Y-137618957D01*
X118535000Y-138038959D01*
X118535000Y-135043530D01*
X118618359Y-134960317D01*
X118709896Y-134739871D01*
X118710104Y-134501176D01*
X118618952Y-134280571D01*
X118450317Y-134111641D01*
X118229871Y-134020104D01*
X117991176Y-134019896D01*
X117770571Y-134111048D01*
X117601641Y-134279683D01*
X117510104Y-134500129D01*
X117509896Y-134738824D01*
X117601048Y-134959429D01*
X117685000Y-135043528D01*
X117685000Y-138253959D01*
X114962615Y-140976345D01*
X106883655Y-140976345D01*
X106721015Y-141008696D01*
X106721013Y-141008697D01*
X106721014Y-141008697D01*
X106583134Y-141100825D01*
X104598960Y-143085000D01*
X103124000Y-143085000D01*
X102961360Y-143117351D01*
X102961358Y-143117352D01*
X102961359Y-143117352D01*
X102823479Y-143209480D01*
X102569480Y-143463480D01*
X102477351Y-143601359D01*
X102477351Y-143601360D01*
X102445000Y-143764000D01*
X100375000Y-143764000D01*
X100375000Y-135319471D01*
X100621399Y-135319471D01*
X100621399Y-137241399D01*
X100645729Y-137363716D01*
X100653750Y-137404040D01*
X100745879Y-137541919D01*
X101157803Y-137953843D01*
X101137178Y-137984710D01*
X101048604Y-138430000D01*
X101137178Y-138875290D01*
X101389415Y-139252789D01*
X101766914Y-139505026D01*
X102212204Y-139593600D01*
X102257796Y-139593600D01*
X102703086Y-139505026D01*
X103080585Y-139252789D01*
X103332822Y-138875290D01*
X103421396Y-138430000D01*
X103332822Y-137984710D01*
X103080585Y-137607211D01*
X102703086Y-137354974D01*
X102257796Y-137266400D01*
X102212204Y-137266400D01*
X101766914Y-137354974D01*
X101763377Y-137357337D01*
X101471399Y-137065359D01*
X101471399Y-136767569D01*
X101766914Y-136965026D01*
X102212204Y-137053600D01*
X102257796Y-137053600D01*
X102703086Y-136965026D01*
X103080585Y-136712789D01*
X103332822Y-136335290D01*
X103421396Y-135890000D01*
X103332822Y-135444710D01*
X103312198Y-135413843D01*
X103332429Y-135393612D01*
X103711321Y-135393612D01*
X103677178Y-135444710D01*
X103588604Y-135890000D01*
X103677178Y-136335290D01*
X103929415Y-136712789D01*
X104306914Y-136965026D01*
X104752204Y-137053600D01*
X104797796Y-137053600D01*
X105243086Y-136965026D01*
X105620585Y-136712789D01*
X105872822Y-136335290D01*
X105961396Y-135890000D01*
X105872822Y-135444710D01*
X105666815Y-135136399D01*
X105960388Y-135136399D01*
X106079481Y-135255492D01*
X106079484Y-135255494D01*
X106079999Y-135256009D01*
X106079896Y-135373794D01*
X106171048Y-135594399D01*
X106339683Y-135763329D01*
X106560129Y-135854866D01*
X106798824Y-135855074D01*
X107019429Y-135763922D01*
X107188359Y-135595287D01*
X107279896Y-135374841D01*
X107280104Y-135136146D01*
X107188952Y-134915541D01*
X107020317Y-134746611D01*
X106799871Y-134655074D01*
X106681040Y-134654970D01*
X106680524Y-134654454D01*
X106680522Y-134654451D01*
X106436949Y-134410879D01*
X106299070Y-134318750D01*
X106272086Y-134313383D01*
X106136429Y-134286399D01*
X105450556Y-134286399D01*
X105620585Y-134172789D01*
X105872822Y-133795290D01*
X105876858Y-133775000D01*
X108161470Y-133775000D01*
X108244683Y-133858359D01*
X108465129Y-133949896D01*
X108703824Y-133950104D01*
X108924429Y-133858952D01*
X109093359Y-133690317D01*
X109184896Y-133469871D01*
X109185104Y-133231176D01*
X109093952Y-133010571D01*
X108925317Y-132841641D01*
X108704871Y-132750104D01*
X108466176Y-132749896D01*
X108245571Y-132841048D01*
X108161472Y-132925000D01*
X105876858Y-132925000D01*
X105872822Y-132904710D01*
X105620585Y-132527211D01*
X105587344Y-132505000D01*
X111114960Y-132505000D01*
X105777664Y-137842296D01*
X105620585Y-137607211D01*
X105243086Y-137354974D01*
X104797796Y-137266400D01*
X104752204Y-137266400D01*
X104306914Y-137354974D01*
X103929415Y-137607211D01*
X103677178Y-137984710D01*
X103588604Y-138430000D01*
X103677178Y-138875290D01*
X103929415Y-139252789D01*
X103962656Y-139275000D01*
X103505000Y-139275000D01*
X103342360Y-139307351D01*
X103342358Y-139307352D01*
X103342359Y-139307352D01*
X103204479Y-139399480D01*
X102706622Y-139897337D01*
X102703086Y-139894974D01*
X102257796Y-139806400D01*
X102212204Y-139806400D01*
X101766914Y-139894974D01*
X101389415Y-140147211D01*
X101137178Y-140524710D01*
X101048604Y-140970000D01*
X101137178Y-141415290D01*
X101389415Y-141792789D01*
X101766914Y-142045026D01*
X102212204Y-142133600D01*
X102257796Y-142133600D01*
X102703086Y-142045026D01*
X103080585Y-141792789D01*
X103332822Y-141415290D01*
X103421396Y-140970000D01*
X103332822Y-140524710D01*
X103312197Y-140493843D01*
X103681041Y-140125000D01*
X103962656Y-140125000D01*
X103929415Y-140147211D01*
X103677178Y-140524710D01*
X103588604Y-140970000D01*
X103677178Y-141415290D01*
X103929415Y-141792789D01*
X104306914Y-142045026D01*
X104752204Y-142133600D01*
X104797796Y-142133600D01*
X105243086Y-142045026D01*
X105620585Y-141792789D01*
X105872822Y-141415290D01*
X105961396Y-140970000D01*
X105872822Y-140524710D01*
X105852197Y-140493843D01*
X111607216Y-134738824D01*
X112048896Y-134738824D01*
X112140048Y-134959429D01*
X112308683Y-135128359D01*
X112480000Y-135199496D01*
X112480000Y-139459966D01*
X112430104Y-139580129D01*
X112429896Y-139818824D01*
X112521048Y-140039429D01*
X112689683Y-140208359D01*
X112910129Y-140299896D01*
X113148824Y-140300104D01*
X113369429Y-140208952D01*
X113538359Y-140040317D01*
X113629896Y-139819871D01*
X113630104Y-139581176D01*
X113580000Y-139459915D01*
X113580000Y-135170000D01*
X114059966Y-135170000D01*
X114180129Y-135219896D01*
X114418824Y-135220104D01*
X114639429Y-135128952D01*
X114808359Y-134960317D01*
X114899896Y-134739871D01*
X114900104Y-134501176D01*
X114808952Y-134280571D01*
X114640317Y-134111641D01*
X114621492Y-134103824D01*
X114969896Y-134103824D01*
X115061048Y-134324429D01*
X115145000Y-134408528D01*
X115145000Y-138641470D01*
X115061641Y-138724683D01*
X114970104Y-138945129D01*
X114969896Y-139183824D01*
X115061048Y-139404429D01*
X115229683Y-139573359D01*
X115450129Y-139664896D01*
X115688824Y-139665104D01*
X115909429Y-139573952D01*
X116078359Y-139405317D01*
X116169896Y-139184871D01*
X116170104Y-138946176D01*
X116078952Y-138725571D01*
X115995000Y-138641472D01*
X115995000Y-134408530D01*
X116078359Y-134325317D01*
X116169896Y-134104871D01*
X116170104Y-133866176D01*
X116078952Y-133645571D01*
X115910317Y-133476641D01*
X115689871Y-133385104D01*
X115451176Y-133384896D01*
X115230571Y-133476048D01*
X115061641Y-133644683D01*
X114970104Y-133865129D01*
X114969896Y-134103824D01*
X114621492Y-134103824D01*
X114419871Y-134020104D01*
X114181176Y-134019896D01*
X114059915Y-134070000D01*
X112889034Y-134070000D01*
X112768871Y-134020104D01*
X112530176Y-134019896D01*
X112309571Y-134111048D01*
X112140641Y-134279683D01*
X112049104Y-134500129D01*
X112048896Y-134738824D01*
X111607216Y-134738824D01*
X114600520Y-131745521D01*
X114692648Y-131607641D01*
X114692649Y-131607640D01*
X114725000Y-131445000D01*
X114725000Y-130810000D01*
X115905000Y-130810000D01*
X115905000Y-132715000D01*
X115927836Y-132829805D01*
X115992868Y-132927132D01*
X116090195Y-132992164D01*
X116205000Y-133015000D01*
X116949756Y-133015000D01*
X116966048Y-133054429D01*
X117134683Y-133223359D01*
X117355129Y-133314896D01*
X117593824Y-133315104D01*
X117814429Y-133223952D01*
X117898528Y-133140000D01*
X124671470Y-133140000D01*
X124754683Y-133223359D01*
X124975129Y-133314896D01*
X125213824Y-133315104D01*
X125434429Y-133223952D01*
X125603359Y-133055317D01*
X125620100Y-133015000D01*
X127635000Y-133015000D01*
X127749805Y-132992164D01*
X127847132Y-132927132D01*
X131039112Y-129735152D01*
X135924999Y-134621039D01*
X135924896Y-134738824D01*
X136016048Y-134959429D01*
X136184683Y-135128359D01*
X136405129Y-135219896D01*
X136643824Y-135220104D01*
X136864429Y-135128952D01*
X137033359Y-134960317D01*
X137124896Y-134739871D01*
X137125020Y-134597204D01*
X143616400Y-134597204D01*
X143616400Y-134642796D01*
X143704974Y-135088086D01*
X143957211Y-135465585D01*
X144334710Y-135717822D01*
X144780000Y-135806396D01*
X145225290Y-135717822D01*
X145602789Y-135465585D01*
X145855026Y-135088086D01*
X145943600Y-134642796D01*
X145943600Y-134597204D01*
X146156400Y-134597204D01*
X146156400Y-134642796D01*
X146244974Y-135088086D01*
X146497211Y-135465585D01*
X146874710Y-135717822D01*
X147320000Y-135806396D01*
X147765290Y-135717822D01*
X148142789Y-135465585D01*
X148395026Y-135088086D01*
X148483600Y-134642796D01*
X148483600Y-134597204D01*
X148395026Y-134151914D01*
X148142789Y-133774415D01*
X147765290Y-133522178D01*
X147320000Y-133433604D01*
X146874710Y-133522178D01*
X146497211Y-133774415D01*
X146244974Y-134151914D01*
X146156400Y-134597204D01*
X145943600Y-134597204D01*
X145855026Y-134151914D01*
X145602789Y-133774415D01*
X145225290Y-133522178D01*
X144780000Y-133433604D01*
X144334710Y-133522178D01*
X143957211Y-133774415D01*
X143704974Y-134151914D01*
X143616400Y-134597204D01*
X137125020Y-134597204D01*
X137125104Y-134501176D01*
X137033952Y-134280571D01*
X136865317Y-134111641D01*
X136644871Y-134020104D01*
X136526040Y-134020000D01*
X134563244Y-132057204D01*
X143616400Y-132057204D01*
X143616400Y-132102796D01*
X143704974Y-132548086D01*
X143957211Y-132925585D01*
X144334710Y-133177822D01*
X144780000Y-133266396D01*
X145225290Y-133177822D01*
X145602789Y-132925585D01*
X145855026Y-132548086D01*
X145943600Y-132102796D01*
X145943600Y-132057204D01*
X146156400Y-132057204D01*
X146156400Y-132102796D01*
X146244974Y-132548086D01*
X146497211Y-132925585D01*
X146874710Y-133177822D01*
X147320000Y-133266396D01*
X147765290Y-133177822D01*
X148142789Y-132925585D01*
X148395026Y-132548086D01*
X148483600Y-132102796D01*
X148483600Y-132057204D01*
X148395026Y-131611914D01*
X148142789Y-131234415D01*
X147765290Y-130982178D01*
X147320000Y-130893604D01*
X146874710Y-130982178D01*
X146497211Y-131234415D01*
X146244974Y-131611914D01*
X146156400Y-132057204D01*
X145943600Y-132057204D01*
X145855026Y-131611914D01*
X145602789Y-131234415D01*
X145225290Y-130982178D01*
X144780000Y-130893604D01*
X144334710Y-130982178D01*
X143957211Y-131234415D01*
X143704974Y-131611914D01*
X143616400Y-132057204D01*
X134563244Y-132057204D01*
X132277284Y-129771244D01*
X143639604Y-129771244D01*
X143814905Y-130190052D01*
X144137133Y-130509896D01*
X144548757Y-130680391D01*
X144730000Y-130627451D01*
X144730000Y-129590000D01*
X144830000Y-129590000D01*
X144830000Y-130627451D01*
X145011243Y-130680391D01*
X145422867Y-130509896D01*
X145745095Y-130190052D01*
X145920396Y-129771244D01*
X146179604Y-129771244D01*
X146354905Y-130190052D01*
X146677133Y-130509896D01*
X147088757Y-130680391D01*
X147270000Y-130627451D01*
X147270000Y-129590000D01*
X147370000Y-129590000D01*
X147370000Y-130627451D01*
X147551243Y-130680391D01*
X147962867Y-130509896D01*
X148285095Y-130190052D01*
X148460396Y-129771244D01*
X148407530Y-129590000D01*
X147370000Y-129590000D01*
X147270000Y-129590000D01*
X146232470Y-129590000D01*
X146179604Y-129771244D01*
X145920396Y-129771244D01*
X145867530Y-129590000D01*
X144830000Y-129590000D01*
X144730000Y-129590000D01*
X143692470Y-129590000D01*
X143639604Y-129771244D01*
X132277284Y-129771244D01*
X131814796Y-129308756D01*
X143639604Y-129308756D01*
X143692470Y-129490000D01*
X144730000Y-129490000D01*
X144730000Y-128452549D01*
X144830000Y-128452549D01*
X144830000Y-129490000D01*
X145867530Y-129490000D01*
X145920396Y-129308756D01*
X146179604Y-129308756D01*
X146232470Y-129490000D01*
X147270000Y-129490000D01*
X147270000Y-128452549D01*
X147370000Y-128452549D01*
X147370000Y-129490000D01*
X148407530Y-129490000D01*
X148460396Y-129308756D01*
X148285095Y-128889948D01*
X147962867Y-128570104D01*
X147551243Y-128399609D01*
X147370000Y-128452549D01*
X147270000Y-128452549D01*
X147088757Y-128399609D01*
X146677133Y-128570104D01*
X146354905Y-128889948D01*
X146179604Y-129308756D01*
X145920396Y-129308756D01*
X145745095Y-128889948D01*
X145422867Y-128570104D01*
X145011243Y-128399609D01*
X144830000Y-128452549D01*
X144730000Y-128452549D01*
X144548757Y-128399609D01*
X144137133Y-128570104D01*
X143814905Y-128889948D01*
X143639604Y-129308756D01*
X131814796Y-129308756D01*
X131640152Y-129134112D01*
X136102132Y-124672132D01*
X136167164Y-124574805D01*
X136190000Y-124460000D01*
X136167164Y-124345195D01*
X136102132Y-124247868D01*
X135044264Y-123190000D01*
X143410000Y-123190000D01*
X143410000Y-125730000D01*
X143417612Y-125768268D01*
X143439289Y-125800711D01*
X144709289Y-127070711D01*
X144741732Y-127092388D01*
X144780000Y-127100000D01*
X147320000Y-127100000D01*
X147358268Y-127092388D01*
X147390711Y-127070711D01*
X148660711Y-125800711D01*
X148682388Y-125768268D01*
X148690000Y-125730000D01*
X148690000Y-123190000D01*
X148682388Y-123151732D01*
X148660711Y-123119289D01*
X147390711Y-121849289D01*
X147358268Y-121827612D01*
X147320000Y-121820000D01*
X144780000Y-121820000D01*
X144741732Y-121827612D01*
X144709289Y-121849289D01*
X143439289Y-123119289D01*
X143417612Y-123151732D01*
X143410000Y-123190000D01*
X135044264Y-123190000D01*
X131110000Y-119255736D01*
X131110000Y-118516400D01*
X143610523Y-118516400D01*
X143610523Y-120243600D01*
X143633807Y-120360654D01*
X143700112Y-120459888D01*
X143799346Y-120526193D01*
X143916400Y-120549477D01*
X145643600Y-120549477D01*
X145760654Y-120526193D01*
X145859888Y-120459888D01*
X145926193Y-120360654D01*
X145949477Y-120243600D01*
X145949477Y-119357204D01*
X146156400Y-119357204D01*
X146156400Y-119402796D01*
X146244974Y-119848086D01*
X146497211Y-120225585D01*
X146874710Y-120477822D01*
X147320000Y-120566396D01*
X147765290Y-120477822D01*
X148142789Y-120225585D01*
X148395026Y-119848086D01*
X148483600Y-119402796D01*
X148483600Y-119357204D01*
X148395026Y-118911914D01*
X148142789Y-118534415D01*
X147765290Y-118282178D01*
X147320000Y-118193604D01*
X146874710Y-118282178D01*
X146497211Y-118534415D01*
X146244974Y-118911914D01*
X146156400Y-119357204D01*
X145949477Y-119357204D01*
X145949477Y-118516400D01*
X145926193Y-118399346D01*
X145859888Y-118300112D01*
X145760654Y-118233807D01*
X145643600Y-118210523D01*
X143916400Y-118210523D01*
X143799346Y-118233807D01*
X143700112Y-118300112D01*
X143633807Y-118399346D01*
X143610523Y-118516400D01*
X131110000Y-118516400D01*
X131110000Y-116958824D01*
X138464896Y-116958824D01*
X138556048Y-117179429D01*
X138724683Y-117348359D01*
X138945129Y-117439896D01*
X139183824Y-117440104D01*
X139404429Y-117348952D01*
X139573359Y-117180317D01*
X139623675Y-117059143D01*
X139865614Y-116817204D01*
X143616400Y-116817204D01*
X143616400Y-116862796D01*
X143704974Y-117308086D01*
X143957211Y-117685585D01*
X144334710Y-117937822D01*
X144780000Y-118026396D01*
X145225290Y-117937822D01*
X145602789Y-117685585D01*
X145855026Y-117308086D01*
X145943600Y-116862796D01*
X145943600Y-116817204D01*
X146156400Y-116817204D01*
X146156400Y-116862796D01*
X146244974Y-117308086D01*
X146497211Y-117685585D01*
X146874710Y-117937822D01*
X147320000Y-118026396D01*
X147765290Y-117937822D01*
X148142789Y-117685585D01*
X148395026Y-117308086D01*
X148483600Y-116862796D01*
X148483600Y-116817204D01*
X148395026Y-116371914D01*
X148142789Y-115994415D01*
X147765290Y-115742178D01*
X147320000Y-115653604D01*
X146874710Y-115742178D01*
X146497211Y-115994415D01*
X146244974Y-116371914D01*
X146156400Y-116817204D01*
X145943600Y-116817204D01*
X145855026Y-116371914D01*
X145602789Y-115994415D01*
X145225290Y-115742178D01*
X144780000Y-115653604D01*
X144334710Y-115742178D01*
X143957211Y-115994415D01*
X143704974Y-116371914D01*
X143616400Y-116817204D01*
X139865614Y-116817204D01*
X141358909Y-115323909D01*
X141478134Y-115145476D01*
X141520000Y-114935000D01*
X141520000Y-114277204D01*
X143616400Y-114277204D01*
X143616400Y-114322796D01*
X143704974Y-114768086D01*
X143957211Y-115145585D01*
X144334710Y-115397822D01*
X144780000Y-115486396D01*
X145225290Y-115397822D01*
X145602789Y-115145585D01*
X145855026Y-114768086D01*
X145943600Y-114322796D01*
X145943600Y-114277204D01*
X146156400Y-114277204D01*
X146156400Y-114322796D01*
X146244974Y-114768086D01*
X146497211Y-115145585D01*
X146874710Y-115397822D01*
X147320000Y-115486396D01*
X147765290Y-115397822D01*
X148142789Y-115145585D01*
X148395026Y-114768086D01*
X148483600Y-114322796D01*
X148483600Y-114277204D01*
X148395026Y-113831914D01*
X148142789Y-113454415D01*
X147765290Y-113202178D01*
X147320000Y-113113604D01*
X146874710Y-113202178D01*
X146497211Y-113454415D01*
X146244974Y-113831914D01*
X146156400Y-114277204D01*
X145943600Y-114277204D01*
X145855026Y-113831914D01*
X145602789Y-113454415D01*
X145225290Y-113202178D01*
X144780000Y-113113604D01*
X144334710Y-113202178D01*
X143957211Y-113454415D01*
X143704974Y-113831914D01*
X143616400Y-114277204D01*
X141520000Y-114277204D01*
X141520000Y-113905034D01*
X141569896Y-113784871D01*
X141570104Y-113546176D01*
X141478952Y-113325571D01*
X141310317Y-113156641D01*
X141089871Y-113065104D01*
X140851176Y-113064896D01*
X140630571Y-113156048D01*
X140461641Y-113324683D01*
X140370104Y-113545129D01*
X140369896Y-113783824D01*
X140420000Y-113905085D01*
X140420000Y-114707182D01*
X138845820Y-116281362D01*
X138725571Y-116331048D01*
X138556641Y-116499683D01*
X138465104Y-116720129D01*
X138464896Y-116958824D01*
X131110000Y-116958824D01*
X131110000Y-113148824D01*
X136559896Y-113148824D01*
X136651048Y-113369429D01*
X136819683Y-113538359D01*
X137040129Y-113629896D01*
X137278824Y-113630104D01*
X137499429Y-113538952D01*
X137583528Y-113455000D01*
X139700000Y-113455000D01*
X139835657Y-113428016D01*
X139862641Y-113422649D01*
X140000520Y-113330520D01*
X140971039Y-112360001D01*
X141088824Y-112360104D01*
X141309429Y-112268952D01*
X141478359Y-112100317D01*
X141569896Y-111879871D01*
X141570020Y-111737204D01*
X143616400Y-111737204D01*
X143616400Y-111782796D01*
X143704974Y-112228086D01*
X143957211Y-112605585D01*
X144334710Y-112857822D01*
X144780000Y-112946396D01*
X145225290Y-112857822D01*
X145602789Y-112605585D01*
X145855026Y-112228086D01*
X145943600Y-111782796D01*
X145943600Y-111737204D01*
X146156400Y-111737204D01*
X146156400Y-111782796D01*
X146244974Y-112228086D01*
X146497211Y-112605585D01*
X146874710Y-112857822D01*
X147320000Y-112946396D01*
X147765290Y-112857822D01*
X148142789Y-112605585D01*
X148395026Y-112228086D01*
X148483600Y-111782796D01*
X148483600Y-111737204D01*
X148395026Y-111291914D01*
X148142789Y-110914415D01*
X147765290Y-110662178D01*
X147320000Y-110573604D01*
X146874710Y-110662178D01*
X146497211Y-110914415D01*
X146244974Y-111291914D01*
X146156400Y-111737204D01*
X145943600Y-111737204D01*
X145855026Y-111291914D01*
X145602789Y-110914415D01*
X145225290Y-110662178D01*
X144780000Y-110573604D01*
X144334710Y-110662178D01*
X143957211Y-110914415D01*
X143704974Y-111291914D01*
X143616400Y-111737204D01*
X141570020Y-111737204D01*
X141570104Y-111641176D01*
X141478952Y-111420571D01*
X141310317Y-111251641D01*
X141089871Y-111160104D01*
X140851176Y-111159896D01*
X140630571Y-111251048D01*
X140461641Y-111419683D01*
X140370104Y-111640129D01*
X140370000Y-111758959D01*
X139523960Y-112605000D01*
X137583530Y-112605000D01*
X137500317Y-112521641D01*
X137279871Y-112430104D01*
X137041176Y-112429896D01*
X136820571Y-112521048D01*
X136651641Y-112689683D01*
X136560104Y-112910129D01*
X136559896Y-113148824D01*
X131110000Y-113148824D01*
X131110000Y-110477507D01*
X131183810Y-110477571D01*
X131404415Y-110386419D01*
X131511020Y-110280000D01*
X134697960Y-110280000D01*
X136351480Y-111933521D01*
X136489359Y-112025649D01*
X136652000Y-112058000D01*
X138557000Y-112058000D01*
X138692657Y-112031016D01*
X138719641Y-112025649D01*
X138857520Y-111933520D01*
X139701039Y-111090001D01*
X139818824Y-111090104D01*
X140039429Y-110998952D01*
X140208359Y-110830317D01*
X140299896Y-110609871D01*
X140300104Y-110371176D01*
X140208952Y-110150571D01*
X140040317Y-109981641D01*
X139819871Y-109890104D01*
X139581176Y-109889896D01*
X139360571Y-109981048D01*
X139191641Y-110149683D01*
X139100104Y-110370129D01*
X139100000Y-110488960D01*
X138783759Y-110805201D01*
X138864867Y-110609871D01*
X138865075Y-110371176D01*
X138773923Y-110150571D01*
X138605288Y-109981641D01*
X138384842Y-109890104D01*
X138146147Y-109889896D01*
X137925542Y-109981048D01*
X137756612Y-110149683D01*
X137718622Y-110241174D01*
X137655991Y-110089595D01*
X137487356Y-109920665D01*
X137266910Y-109829128D01*
X137148080Y-109829024D01*
X136516260Y-109197204D01*
X143616400Y-109197204D01*
X143616400Y-109242796D01*
X143704974Y-109688086D01*
X143957211Y-110065585D01*
X144334710Y-110317822D01*
X144780000Y-110406396D01*
X145225290Y-110317822D01*
X145602789Y-110065585D01*
X145855026Y-109688086D01*
X145943600Y-109242796D01*
X145943600Y-109197204D01*
X146156400Y-109197204D01*
X146156400Y-109242796D01*
X146244974Y-109688086D01*
X146497211Y-110065585D01*
X146874710Y-110317822D01*
X147320000Y-110406396D01*
X147765290Y-110317822D01*
X148142789Y-110065585D01*
X148395026Y-109688086D01*
X148483600Y-109242796D01*
X148483600Y-109197204D01*
X148395026Y-108751914D01*
X148142789Y-108374415D01*
X147765290Y-108122178D01*
X147320000Y-108033604D01*
X146874710Y-108122178D01*
X146497211Y-108374415D01*
X146244974Y-108751914D01*
X146156400Y-109197204D01*
X145943600Y-109197204D01*
X145855026Y-108751914D01*
X145602789Y-108374415D01*
X145225290Y-108122178D01*
X144780000Y-108033604D01*
X144334710Y-108122178D01*
X143957211Y-108374415D01*
X143704974Y-108751914D01*
X143616400Y-109197204D01*
X136516260Y-109197204D01*
X135431528Y-108112473D01*
X135366204Y-108068824D01*
X139734896Y-108068824D01*
X139826048Y-108289429D01*
X139994683Y-108458359D01*
X140215129Y-108549896D01*
X140453824Y-108550104D01*
X140674429Y-108458952D01*
X140843359Y-108290317D01*
X140934896Y-108069871D01*
X140935000Y-107951041D01*
X141974797Y-106911244D01*
X143639604Y-106911244D01*
X143814905Y-107330052D01*
X144137133Y-107649896D01*
X144548757Y-107820391D01*
X144730000Y-107767451D01*
X144730000Y-106730000D01*
X144830000Y-106730000D01*
X144830000Y-107767451D01*
X145011243Y-107820391D01*
X145422867Y-107649896D01*
X145745095Y-107330052D01*
X145920396Y-106911244D01*
X146179604Y-106911244D01*
X146354905Y-107330052D01*
X146677133Y-107649896D01*
X147088757Y-107820391D01*
X147270000Y-107767451D01*
X147270000Y-106730000D01*
X147370000Y-106730000D01*
X147370000Y-107767451D01*
X147551243Y-107820391D01*
X147962867Y-107649896D01*
X148285095Y-107330052D01*
X148460396Y-106911244D01*
X148407530Y-106730000D01*
X147370000Y-106730000D01*
X147270000Y-106730000D01*
X146232470Y-106730000D01*
X146179604Y-106911244D01*
X145920396Y-106911244D01*
X145867530Y-106730000D01*
X144830000Y-106730000D01*
X144730000Y-106730000D01*
X143692470Y-106730000D01*
X143639604Y-106911244D01*
X141974797Y-106911244D01*
X142437285Y-106448756D01*
X143639604Y-106448756D01*
X143692470Y-106630000D01*
X144730000Y-106630000D01*
X144730000Y-105592549D01*
X144830000Y-105592549D01*
X144830000Y-106630000D01*
X145867530Y-106630000D01*
X145920396Y-106448756D01*
X146179604Y-106448756D01*
X146232470Y-106630000D01*
X147270000Y-106630000D01*
X147270000Y-105592549D01*
X147370000Y-105592549D01*
X147370000Y-106630000D01*
X148407530Y-106630000D01*
X148460396Y-106448756D01*
X148285095Y-106029948D01*
X147962867Y-105710104D01*
X147551243Y-105539609D01*
X147370000Y-105592549D01*
X147270000Y-105592549D01*
X147088757Y-105539609D01*
X146677133Y-105710104D01*
X146354905Y-106029948D01*
X146179604Y-106448756D01*
X145920396Y-106448756D01*
X145745095Y-106029948D01*
X145422867Y-105710104D01*
X145011243Y-105539609D01*
X144830000Y-105592549D01*
X144730000Y-105592549D01*
X144548757Y-105539609D01*
X144137133Y-105710104D01*
X143814905Y-106029948D01*
X143639604Y-106448756D01*
X142437285Y-106448756D01*
X143175520Y-105710521D01*
X143267648Y-105572641D01*
X143267649Y-105572640D01*
X143300000Y-105410000D01*
X143300000Y-103293530D01*
X143383359Y-103210317D01*
X143474896Y-102989871D01*
X143475104Y-102751176D01*
X143383952Y-102530571D01*
X143215317Y-102361641D01*
X142994871Y-102270104D01*
X142756176Y-102269896D01*
X142535571Y-102361048D01*
X142366641Y-102529683D01*
X142275104Y-102750129D01*
X142274896Y-102988824D01*
X142366048Y-103209429D01*
X142450000Y-103293528D01*
X142450000Y-105233959D01*
X140333961Y-107349999D01*
X140216176Y-107349896D01*
X139995571Y-107441048D01*
X139826641Y-107609683D01*
X139735104Y-107830129D01*
X139734896Y-108068824D01*
X135366204Y-108068824D01*
X135293649Y-108020344D01*
X135266665Y-108014977D01*
X135131008Y-107987993D01*
X131110000Y-107987993D01*
X131110000Y-107315000D01*
X131087164Y-107200195D01*
X131022132Y-107102868D01*
X130924805Y-107037836D01*
X130810000Y-107015000D01*
X128270000Y-107015000D01*
X128155195Y-107037836D01*
X128057868Y-107102868D01*
X127992836Y-107200195D01*
X127970000Y-107315000D01*
X127970000Y-111000736D01*
X126152868Y-112817868D01*
X126087836Y-112915195D01*
X126065000Y-113030000D01*
X126065000Y-116314698D01*
X126025571Y-116330990D01*
X125856641Y-116499625D01*
X125765104Y-116720071D01*
X125765000Y-116838901D01*
X123601832Y-119002070D01*
X123484139Y-119001967D01*
X123263534Y-119093119D01*
X123094604Y-119261754D01*
X123003067Y-119482200D01*
X123002859Y-119720895D01*
X123019519Y-119761217D01*
X120174272Y-122606464D01*
X120134871Y-122590104D01*
X119896176Y-122589896D01*
X119675571Y-122681048D01*
X119506641Y-122849683D01*
X119415104Y-123070129D01*
X119414896Y-123308824D01*
X119506048Y-123529429D01*
X119674683Y-123698359D01*
X119895129Y-123789896D01*
X120013959Y-123790000D01*
X121953959Y-125730000D01*
X121283961Y-126399999D01*
X121166176Y-126399896D01*
X120945571Y-126491048D01*
X120776641Y-126659683D01*
X120685104Y-126880129D01*
X120684896Y-127118824D01*
X120701566Y-127159170D01*
X117350736Y-130510000D01*
X116205000Y-130510000D01*
X116090195Y-130532836D01*
X115992868Y-130597868D01*
X115927836Y-130695195D01*
X115905000Y-130810000D01*
X114725000Y-130810000D01*
X114725000Y-129963530D01*
X114808359Y-129880317D01*
X114899896Y-129659871D01*
X114899896Y-129658824D01*
X114969896Y-129658824D01*
X115061048Y-129879429D01*
X115229683Y-130048359D01*
X115450129Y-130139896D01*
X115688824Y-130140104D01*
X115909429Y-130048952D01*
X116078359Y-129880317D01*
X116128675Y-129759143D01*
X118329179Y-127558638D01*
X118449429Y-127508952D01*
X118618359Y-127340317D01*
X118709896Y-127119871D01*
X118710104Y-126881176D01*
X118618952Y-126660571D01*
X118450317Y-126491641D01*
X118229871Y-126400104D01*
X117991176Y-126399896D01*
X117770571Y-126491048D01*
X117601641Y-126659683D01*
X117551325Y-126780858D01*
X115350820Y-128981362D01*
X115230571Y-129031048D01*
X115061641Y-129199683D01*
X114970104Y-129420129D01*
X114969896Y-129658824D01*
X114899896Y-129658824D01*
X114900104Y-129421176D01*
X114808952Y-129200571D01*
X114640317Y-129031641D01*
X114419871Y-128940104D01*
X114231101Y-128939940D01*
X114300522Y-128870519D01*
X114300524Y-128870516D01*
X114301039Y-128870001D01*
X114418824Y-128870104D01*
X114639429Y-128778952D01*
X114808359Y-128610317D01*
X114899896Y-128389871D01*
X114900104Y-128151176D01*
X114808952Y-127930571D01*
X114640317Y-127761641D01*
X114419871Y-127670104D01*
X114181176Y-127669896D01*
X113960571Y-127761048D01*
X113791641Y-127929683D01*
X113700104Y-128150129D01*
X113700000Y-128268960D01*
X113699484Y-128269476D01*
X113699481Y-128269478D01*
X113471230Y-128497730D01*
X113370317Y-128396641D01*
X113149871Y-128305104D01*
X112961101Y-128304940D01*
X113031039Y-128235001D01*
X113148824Y-128235104D01*
X113369429Y-128143952D01*
X113538359Y-127975317D01*
X113629896Y-127754871D01*
X113630104Y-127516176D01*
X113538952Y-127295571D01*
X113370317Y-127126641D01*
X113149871Y-127035104D01*
X112911176Y-127034896D01*
X112690571Y-127126048D01*
X112521641Y-127294683D01*
X112430104Y-127515129D01*
X112430000Y-127633959D01*
X112094480Y-127969480D01*
X112002351Y-128107359D01*
X112002351Y-128107360D01*
X111970000Y-128270000D01*
X111970000Y-130646691D01*
X110961692Y-131655000D01*
X104285870Y-131655000D01*
X104150213Y-131681984D01*
X104123229Y-131687351D01*
X103985350Y-131779480D01*
X103380881Y-132383949D01*
X103352928Y-132316464D01*
X103268537Y-132232072D01*
X103158274Y-132186400D01*
X102360000Y-132186400D01*
X102285000Y-132261400D01*
X102285000Y-133300000D01*
X102305000Y-133300000D01*
X102305000Y-133400000D01*
X102285000Y-133400000D01*
X102285000Y-133420000D01*
X102185000Y-133420000D01*
X102185000Y-133400000D01*
X101146400Y-133400000D01*
X101071400Y-133475000D01*
X101071400Y-134273273D01*
X101117072Y-134383536D01*
X101201463Y-134467928D01*
X101268949Y-134495881D01*
X100745879Y-135018951D01*
X100653750Y-135156830D01*
X100648383Y-135183814D01*
X100621399Y-135319471D01*
X100375000Y-135319471D01*
X100375000Y-132426727D01*
X101071400Y-132426727D01*
X101071400Y-133225000D01*
X101146400Y-133300000D01*
X102185000Y-133300000D01*
X102185000Y-132261400D01*
X102110000Y-132186400D01*
X101311726Y-132186400D01*
X101201463Y-132232072D01*
X101117072Y-132316464D01*
X101071400Y-132426727D01*
X100375000Y-132426727D01*
X100375000Y-127959100D01*
X100636480Y-127959100D01*
X100697376Y-128265247D01*
X100870795Y-128524785D01*
X101130333Y-128698204D01*
X101436480Y-128759100D01*
X102028600Y-128759100D01*
X102334747Y-128698204D01*
X102594285Y-128524785D01*
X102767704Y-128265247D01*
X102828600Y-127959100D01*
X102767704Y-127652953D01*
X102594285Y-127393415D01*
X102334747Y-127219996D01*
X102028600Y-127159100D01*
X101436480Y-127159100D01*
X101130333Y-127219996D01*
X100870795Y-127393415D01*
X100697376Y-127652953D01*
X100636480Y-127959100D01*
X100375000Y-127959100D01*
X100375000Y-126790978D01*
X103657540Y-126790978D01*
X103657540Y-127127222D01*
X103716533Y-127423802D01*
X103884532Y-127675230D01*
X104135960Y-127843229D01*
X104432540Y-127902222D01*
X104729120Y-127843229D01*
X104980548Y-127675230D01*
X105148547Y-127423802D01*
X105207540Y-127127222D01*
X105207540Y-126790978D01*
X105148547Y-126494398D01*
X104980548Y-126242970D01*
X104729120Y-126074971D01*
X104432540Y-126015978D01*
X104135960Y-126074971D01*
X103884532Y-126242970D01*
X103716533Y-126494398D01*
X103657540Y-126790978D01*
X100375000Y-126790978D01*
X100375000Y-120959100D01*
X100636480Y-120959100D01*
X100697376Y-121265247D01*
X100870795Y-121524785D01*
X101130333Y-121698204D01*
X101436480Y-121759100D01*
X102028600Y-121759100D01*
X102334747Y-121698204D01*
X102594285Y-121524785D01*
X102767704Y-121265247D01*
X102828600Y-120959100D01*
X102790753Y-120768824D01*
X102904896Y-120768824D01*
X102996048Y-120989429D01*
X103080000Y-121073528D01*
X103080000Y-123190000D01*
X103103844Y-123309871D01*
X103112351Y-123352641D01*
X103204480Y-123490520D01*
X106255000Y-126541040D01*
X106255000Y-128481470D01*
X106171641Y-128564683D01*
X106080104Y-128785129D01*
X106079896Y-129023824D01*
X106171048Y-129244429D01*
X106339683Y-129413359D01*
X106560129Y-129504896D01*
X106798824Y-129505104D01*
X107019429Y-129413952D01*
X107188359Y-129245317D01*
X107279896Y-129024871D01*
X107280104Y-128786176D01*
X107188952Y-128565571D01*
X107105000Y-128481472D01*
X107105000Y-126365000D01*
X107072649Y-126202360D01*
X107072649Y-126202359D01*
X106980520Y-126064480D01*
X103930000Y-123013960D01*
X103930000Y-122705611D01*
X104135960Y-122843229D01*
X104432540Y-122902222D01*
X104729120Y-122843229D01*
X104980548Y-122675230D01*
X105148547Y-122423802D01*
X105207540Y-122127222D01*
X105207540Y-121790978D01*
X105148547Y-121494398D01*
X104980548Y-121242970D01*
X104729120Y-121074971D01*
X104432540Y-121015978D01*
X104135960Y-121074971D01*
X103930000Y-121212589D01*
X103930000Y-121073530D01*
X104013359Y-120990317D01*
X104104896Y-120769871D01*
X104104896Y-120768824D01*
X104809896Y-120768824D01*
X104901048Y-120989429D01*
X105069683Y-121158359D01*
X105290129Y-121249896D01*
X105408959Y-121250000D01*
X110700000Y-126541041D01*
X110700000Y-126576470D01*
X110616641Y-126659683D01*
X110525104Y-126880129D01*
X110524896Y-127118824D01*
X110616048Y-127339429D01*
X110784683Y-127508359D01*
X111005129Y-127599896D01*
X111243824Y-127600104D01*
X111464429Y-127508952D01*
X111633359Y-127340317D01*
X111724896Y-127119871D01*
X111725104Y-126881176D01*
X111633952Y-126660571D01*
X111550000Y-126576472D01*
X111550000Y-126365000D01*
X111517649Y-126202360D01*
X111517649Y-126202359D01*
X111425521Y-126064480D01*
X110574865Y-125213824D01*
X112429896Y-125213824D01*
X112521048Y-125434429D01*
X112689683Y-125603359D01*
X112910129Y-125694896D01*
X113028959Y-125695000D01*
X113364480Y-126030521D01*
X113502359Y-126122649D01*
X113665000Y-126155000D01*
X117051478Y-126155000D01*
X117134691Y-126238359D01*
X117355137Y-126329896D01*
X117593832Y-126330104D01*
X117814437Y-126238952D01*
X117983367Y-126070317D01*
X118074904Y-125849871D01*
X118075112Y-125611176D01*
X117983960Y-125390571D01*
X117815325Y-125221641D01*
X117594879Y-125130104D01*
X117356184Y-125129896D01*
X117135579Y-125221048D01*
X117051480Y-125305000D01*
X113841041Y-125305000D01*
X113630001Y-125093961D01*
X113630104Y-124976176D01*
X113538952Y-124755571D01*
X113370317Y-124586641D01*
X113149871Y-124495104D01*
X112911176Y-124494896D01*
X112690571Y-124586048D01*
X112521641Y-124754683D01*
X112430104Y-124975129D01*
X112429896Y-125213824D01*
X110574865Y-125213824D01*
X106010001Y-120648961D01*
X106010104Y-120531176D01*
X105918952Y-120310571D01*
X105750317Y-120141641D01*
X105731492Y-120133824D01*
X109889896Y-120133824D01*
X109981048Y-120354429D01*
X110149683Y-120523359D01*
X110370129Y-120614896D01*
X110608824Y-120615104D01*
X110829429Y-120523952D01*
X110998359Y-120355317D01*
X111089896Y-120134871D01*
X111090000Y-120016041D01*
X111301041Y-119805000D01*
X111583960Y-119805000D01*
X113064999Y-121286039D01*
X113064896Y-121403824D01*
X113156048Y-121624429D01*
X113324683Y-121793359D01*
X113545129Y-121884896D01*
X113783824Y-121885104D01*
X114004429Y-121793952D01*
X114173359Y-121625317D01*
X114264896Y-121404871D01*
X114265104Y-121166176D01*
X114173952Y-120945571D01*
X114005317Y-120776641D01*
X113784871Y-120685104D01*
X113666040Y-120685000D01*
X112185000Y-119203960D01*
X112185000Y-118533530D01*
X112268359Y-118450317D01*
X112359896Y-118229871D01*
X112360104Y-117991176D01*
X112268952Y-117770571D01*
X112100317Y-117601641D01*
X111879871Y-117510104D01*
X111641176Y-117509896D01*
X111420571Y-117601048D01*
X111251641Y-117769683D01*
X111160104Y-117990129D01*
X111159896Y-118228824D01*
X111251048Y-118449429D01*
X111335000Y-118533528D01*
X111335000Y-118955000D01*
X111125000Y-118955000D01*
X110962359Y-118987351D01*
X110824480Y-119079479D01*
X110488961Y-119414999D01*
X110371176Y-119414896D01*
X110150571Y-119506048D01*
X109981641Y-119674683D01*
X109890104Y-119895129D01*
X109889896Y-120133824D01*
X105731492Y-120133824D01*
X105529871Y-120050104D01*
X105291176Y-120049896D01*
X105070571Y-120141048D01*
X104901641Y-120309683D01*
X104810104Y-120530129D01*
X104809896Y-120768824D01*
X104104896Y-120768824D01*
X104105104Y-120531176D01*
X104013952Y-120310571D01*
X103845317Y-120141641D01*
X103624871Y-120050104D01*
X103386176Y-120049896D01*
X103165571Y-120141048D01*
X102996641Y-120309683D01*
X102905104Y-120530129D01*
X102904896Y-120768824D01*
X102790753Y-120768824D01*
X102767704Y-120652953D01*
X102594285Y-120393415D01*
X102334747Y-120219996D01*
X102028600Y-120159100D01*
X101436480Y-120159100D01*
X101130333Y-120219996D01*
X100870795Y-120393415D01*
X100697376Y-120652953D01*
X100636480Y-120959100D01*
X100375000Y-120959100D01*
X100375000Y-113783824D01*
X107984896Y-113783824D01*
X108076048Y-114004429D01*
X108244683Y-114173359D01*
X108465129Y-114264896D01*
X108703824Y-114265104D01*
X108924429Y-114173952D01*
X109093359Y-114005317D01*
X109184896Y-113784871D01*
X109185000Y-113666040D01*
X109449778Y-113401262D01*
X112177458Y-113401262D01*
X112268610Y-113621867D01*
X112437245Y-113790797D01*
X112616403Y-113865190D01*
X112462247Y-114019077D01*
X112370710Y-114239523D01*
X112370502Y-114478218D01*
X112461654Y-114698823D01*
X112605000Y-114842420D01*
X112605000Y-115251480D01*
X112521641Y-115334693D01*
X112430104Y-115555139D01*
X112429896Y-115793834D01*
X112521048Y-116014439D01*
X112605000Y-116098538D01*
X112605000Y-118745000D01*
X112628844Y-118864871D01*
X112637351Y-118907641D01*
X112729480Y-119045520D01*
X113699999Y-120016039D01*
X113699896Y-120133824D01*
X113791048Y-120354429D01*
X113959683Y-120523359D01*
X114180129Y-120614896D01*
X114418824Y-120615104D01*
X114639429Y-120523952D01*
X114808359Y-120355317D01*
X114899896Y-120134871D01*
X114900104Y-119896176D01*
X114862431Y-119805000D01*
X115146470Y-119805000D01*
X115229683Y-119888359D01*
X115450129Y-119979896D01*
X115688824Y-119980104D01*
X115909429Y-119888952D01*
X116078359Y-119720317D01*
X116169896Y-119499871D01*
X116170104Y-119261176D01*
X116078952Y-119040571D01*
X115910317Y-118871641D01*
X115689871Y-118780104D01*
X115544978Y-118779978D01*
X115545103Y-118636175D01*
X115453951Y-118415570D01*
X115285316Y-118246640D01*
X115064870Y-118155103D01*
X114946040Y-118154999D01*
X114725000Y-117933960D01*
X114725000Y-116628530D01*
X114808359Y-116545317D01*
X114899896Y-116324871D01*
X114900104Y-116086176D01*
X114808952Y-115865571D01*
X114640317Y-115696641D01*
X114419871Y-115605104D01*
X114181176Y-115604896D01*
X114090000Y-115642569D01*
X114090000Y-114169876D01*
X114074112Y-114089999D01*
X114071286Y-114075796D01*
X114124739Y-114205161D01*
X114293374Y-114374091D01*
X114513820Y-114465628D01*
X114632650Y-114465732D01*
X114633170Y-114466252D01*
X114633173Y-114466254D01*
X117050000Y-116883081D01*
X117050000Y-122131470D01*
X116966641Y-122214683D01*
X116875104Y-122435129D01*
X116874896Y-122673824D01*
X116966048Y-122894429D01*
X117134683Y-123063359D01*
X117355129Y-123154896D01*
X117593824Y-123155104D01*
X117814429Y-123063952D01*
X117983359Y-122895317D01*
X118074896Y-122674871D01*
X118075104Y-122436176D01*
X117983952Y-122215571D01*
X117900000Y-122131472D01*
X117900000Y-116707041D01*
X117867649Y-116544401D01*
X117867649Y-116544400D01*
X117775520Y-116406521D01*
X116422801Y-115053802D01*
X119414896Y-115053802D01*
X119506048Y-115274407D01*
X119674683Y-115443337D01*
X119895129Y-115534874D01*
X120133824Y-115535082D01*
X120255085Y-115484978D01*
X122327160Y-115484978D01*
X123266362Y-116424180D01*
X123316048Y-116544429D01*
X123484683Y-116713359D01*
X123705129Y-116804896D01*
X123943824Y-116805104D01*
X124164429Y-116713952D01*
X124333359Y-116545317D01*
X124424896Y-116324871D01*
X124425104Y-116086176D01*
X124333952Y-115865571D01*
X124165317Y-115696641D01*
X124044143Y-115646325D01*
X122943887Y-114546069D01*
X122765454Y-114426844D01*
X122554978Y-114384978D01*
X120255034Y-114384978D01*
X120134871Y-114335082D01*
X119896176Y-114334874D01*
X119675571Y-114426026D01*
X119506641Y-114594661D01*
X119415104Y-114815107D01*
X119414896Y-115053802D01*
X116422801Y-115053802D01*
X115234213Y-113865214D01*
X115234211Y-113865211D01*
X115233692Y-113864692D01*
X115233795Y-113746908D01*
X115142643Y-113526303D01*
X114974008Y-113357373D01*
X114753562Y-113265836D01*
X114514867Y-113265628D01*
X114294262Y-113356780D01*
X114125332Y-113525415D01*
X114033795Y-113745861D01*
X114033599Y-113971242D01*
X113965520Y-113869356D01*
X113377563Y-113281399D01*
X113377666Y-113163614D01*
X113286514Y-112943009D01*
X113117879Y-112774079D01*
X112897433Y-112682542D01*
X112658738Y-112682334D01*
X112438133Y-112773486D01*
X112269203Y-112942121D01*
X112177666Y-113162567D01*
X112177458Y-113401262D01*
X109449778Y-113401262D01*
X110666040Y-112185000D01*
X114758960Y-112185000D01*
X115672088Y-113098128D01*
X115671985Y-113215913D01*
X115763137Y-113436518D01*
X115931772Y-113605448D01*
X116152218Y-113696985D01*
X116390913Y-113697193D01*
X116611518Y-113606041D01*
X116780448Y-113437406D01*
X116871985Y-113216960D01*
X116872193Y-112978265D01*
X116781041Y-112757660D01*
X116612406Y-112588730D01*
X116391960Y-112497193D01*
X116273130Y-112497089D01*
X115235520Y-111459480D01*
X115097641Y-111367351D01*
X115070657Y-111361984D01*
X114935000Y-111335000D01*
X110490000Y-111335000D01*
X110327359Y-111367351D01*
X110189480Y-111459480D01*
X108583961Y-113064999D01*
X108466176Y-113064896D01*
X108245571Y-113156048D01*
X108076641Y-113324683D01*
X107985104Y-113545129D01*
X107984896Y-113783824D01*
X100375000Y-113783824D01*
X100375000Y-109973824D01*
X101634896Y-109973824D01*
X101726048Y-110194429D01*
X101894683Y-110363359D01*
X102115129Y-110454896D01*
X102353824Y-110455104D01*
X102574429Y-110363952D01*
X102743359Y-110195317D01*
X102834896Y-109974871D01*
X102835000Y-109856040D01*
X104316040Y-108375000D01*
X105646491Y-108375000D01*
X105729704Y-108458359D01*
X105950150Y-108549896D01*
X106188845Y-108550104D01*
X106409450Y-108458952D01*
X106578380Y-108290317D01*
X106669917Y-108069871D01*
X106670125Y-107831176D01*
X106578973Y-107610571D01*
X106410338Y-107441641D01*
X106189892Y-107350104D01*
X105951197Y-107349896D01*
X105730592Y-107441048D01*
X105646493Y-107525000D01*
X104140000Y-107525000D01*
X103977359Y-107557351D01*
X103839480Y-107649480D01*
X102233961Y-109254999D01*
X102116176Y-109254896D01*
X101895571Y-109346048D01*
X101726641Y-109514683D01*
X101635104Y-109735129D01*
X101634896Y-109973824D01*
X100375000Y-109973824D01*
X100375000Y-105641243D01*
X102999609Y-105641243D01*
X103170104Y-106052867D01*
X103489948Y-106375095D01*
X103908756Y-106550396D01*
X104090000Y-106497530D01*
X104090000Y-105460000D01*
X104190000Y-105460000D01*
X104190000Y-106497530D01*
X104371244Y-106550396D01*
X104790052Y-106375095D01*
X105109896Y-106052867D01*
X105280391Y-105641243D01*
X105227451Y-105460000D01*
X104190000Y-105460000D01*
X104090000Y-105460000D01*
X103052549Y-105460000D01*
X102999609Y-105641243D01*
X100375000Y-105641243D01*
X100375000Y-105410000D01*
X105493604Y-105410000D01*
X105582178Y-105855290D01*
X105834415Y-106232789D01*
X106211914Y-106485026D01*
X106657204Y-106573600D01*
X106702796Y-106573600D01*
X107148086Y-106485026D01*
X107525585Y-106232789D01*
X107777822Y-105855290D01*
X107866396Y-105410000D01*
X107777822Y-104964710D01*
X107525585Y-104587211D01*
X107148086Y-104334974D01*
X106702796Y-104246400D01*
X106657204Y-104246400D01*
X106211914Y-104334974D01*
X105834415Y-104587211D01*
X105582178Y-104964710D01*
X105493604Y-105410000D01*
X100375000Y-105410000D01*
X100375000Y-105178757D01*
X102999609Y-105178757D01*
X103052549Y-105360000D01*
X104090000Y-105360000D01*
X104090000Y-104322470D01*
X104190000Y-104322470D01*
X104190000Y-105360000D01*
X105227451Y-105360000D01*
X105280391Y-105178757D01*
X105109896Y-104767133D01*
X104790052Y-104444905D01*
X104371244Y-104269604D01*
X104190000Y-104322470D01*
X104090000Y-104322470D01*
X103908756Y-104269604D01*
X103489948Y-104444905D01*
X103170104Y-104767133D01*
X102999609Y-105178757D01*
X100375000Y-105178757D01*
X100375000Y-103101243D01*
X102999609Y-103101243D01*
X103170104Y-103512867D01*
X103489948Y-103835095D01*
X103908756Y-104010396D01*
X104090000Y-103957530D01*
X104090000Y-102920000D01*
X104190000Y-102920000D01*
X104190000Y-103957530D01*
X104371244Y-104010396D01*
X104790052Y-103835095D01*
X105109896Y-103512867D01*
X105280391Y-103101243D01*
X105227451Y-102920000D01*
X104190000Y-102920000D01*
X104090000Y-102920000D01*
X103052549Y-102920000D01*
X102999609Y-103101243D01*
X100375000Y-103101243D01*
X100375000Y-102870000D01*
X105493604Y-102870000D01*
X105582178Y-103315290D01*
X105834415Y-103692789D01*
X106211914Y-103945026D01*
X106657204Y-104033600D01*
X106702796Y-104033600D01*
X107148086Y-103945026D01*
X107525585Y-103692789D01*
X107777822Y-103315290D01*
X107866396Y-102870000D01*
X108033604Y-102870000D01*
X108122178Y-103315290D01*
X108374415Y-103692789D01*
X108751914Y-103945026D01*
X109197204Y-104033600D01*
X109242796Y-104033600D01*
X109688086Y-103945026D01*
X109691622Y-103942663D01*
X109783078Y-104034119D01*
X109783081Y-104034121D01*
X110156399Y-104407440D01*
X110156399Y-104723124D01*
X110065585Y-104587211D01*
X109688086Y-104334974D01*
X109242796Y-104246400D01*
X109197204Y-104246400D01*
X108751914Y-104334974D01*
X108374415Y-104587211D01*
X108122178Y-104964710D01*
X108033604Y-105410000D01*
X108122178Y-105855290D01*
X108374415Y-106232789D01*
X108751914Y-106485026D01*
X109197204Y-106573600D01*
X109242796Y-106573600D01*
X109688086Y-106485026D01*
X109691622Y-106482663D01*
X109783078Y-106574119D01*
X109783081Y-106574121D01*
X110538092Y-107329133D01*
X110675971Y-107421261D01*
X110838612Y-107453612D01*
X112131436Y-107453612D01*
X118008343Y-113330520D01*
X118048532Y-113357373D01*
X118146224Y-113422649D01*
X118308864Y-113455000D01*
X120226470Y-113455000D01*
X120309683Y-113538359D01*
X120530129Y-113629896D01*
X120768824Y-113630104D01*
X120989429Y-113538952D01*
X121158359Y-113370317D01*
X121249896Y-113149871D01*
X121250104Y-112911176D01*
X121212431Y-112820000D01*
X121496470Y-112820000D01*
X121579683Y-112903359D01*
X121800129Y-112994896D01*
X122038824Y-112995104D01*
X122259429Y-112903952D01*
X122428359Y-112735317D01*
X122519896Y-112514871D01*
X122520031Y-112359970D01*
X122673824Y-112360104D01*
X122894429Y-112268952D01*
X123063359Y-112100317D01*
X123154896Y-111879871D01*
X123155104Y-111641176D01*
X123117431Y-111550000D01*
X123401470Y-111550000D01*
X123484683Y-111633359D01*
X123705129Y-111724896D01*
X123943824Y-111725104D01*
X124164429Y-111633952D01*
X124333359Y-111465317D01*
X124424896Y-111244871D01*
X124425031Y-111089970D01*
X124578824Y-111090104D01*
X124799429Y-110998952D01*
X124968359Y-110830317D01*
X125059896Y-110609871D01*
X125060104Y-110371176D01*
X124968952Y-110150571D01*
X124800317Y-109981641D01*
X124579871Y-109890104D01*
X124391643Y-109889940D01*
X124424896Y-109809858D01*
X124425035Y-109650256D01*
X124645013Y-109559363D01*
X124813943Y-109390728D01*
X124855672Y-109290233D01*
X125021541Y-109456392D01*
X125241987Y-109547929D01*
X125480682Y-109548137D01*
X125701287Y-109456985D01*
X125870217Y-109288350D01*
X125961754Y-109067904D01*
X125961962Y-108829209D01*
X125870810Y-108608604D01*
X125702175Y-108439674D01*
X125481729Y-108348137D01*
X125362898Y-108348033D01*
X125139755Y-108124890D01*
X125001876Y-108032761D01*
X124974892Y-108027394D01*
X124839235Y-108000410D01*
X119015451Y-108000410D01*
X118535000Y-107519960D01*
X118535000Y-104140000D01*
X118502649Y-103977360D01*
X118448259Y-103895960D01*
X118410520Y-103839479D01*
X117917197Y-103346157D01*
X117937822Y-103315290D01*
X118026396Y-102870000D01*
X119280000Y-102870000D01*
X119280000Y-105410000D01*
X119287612Y-105448268D01*
X119309289Y-105480711D01*
X120579289Y-106750711D01*
X120611732Y-106772388D01*
X120650000Y-106780000D01*
X123190000Y-106780000D01*
X123228268Y-106772388D01*
X123260711Y-106750711D01*
X124370179Y-105641243D01*
X125859609Y-105641243D01*
X126030104Y-106052867D01*
X126349948Y-106375095D01*
X126768756Y-106550396D01*
X126950000Y-106497530D01*
X126950000Y-105460000D01*
X127050000Y-105460000D01*
X127050000Y-106497530D01*
X127231244Y-106550396D01*
X127650052Y-106375095D01*
X127969896Y-106052867D01*
X128140391Y-105641243D01*
X128087451Y-105460000D01*
X127050000Y-105460000D01*
X126950000Y-105460000D01*
X125912549Y-105460000D01*
X125859609Y-105641243D01*
X124370179Y-105641243D01*
X124530711Y-105480711D01*
X124552388Y-105448268D01*
X124560000Y-105410000D01*
X128353604Y-105410000D01*
X128442178Y-105855290D01*
X128694415Y-106232789D01*
X129071914Y-106485026D01*
X129517204Y-106573600D01*
X129562796Y-106573600D01*
X130008086Y-106485026D01*
X130385585Y-106232789D01*
X130637822Y-105855290D01*
X130726396Y-105410000D01*
X130893604Y-105410000D01*
X130982178Y-105855290D01*
X131234415Y-106232789D01*
X131611914Y-106485026D01*
X132057204Y-106573600D01*
X132102796Y-106573600D01*
X132548086Y-106485026D01*
X132925585Y-106232789D01*
X133177822Y-105855290D01*
X133266396Y-105410000D01*
X133433604Y-105410000D01*
X133522178Y-105855290D01*
X133774415Y-106232789D01*
X134151914Y-106485026D01*
X134597204Y-106573600D01*
X134642796Y-106573600D01*
X135088086Y-106485026D01*
X135465585Y-106232789D01*
X135717822Y-105855290D01*
X135806396Y-105410000D01*
X135973604Y-105410000D01*
X136062178Y-105855290D01*
X136314415Y-106232789D01*
X136691914Y-106485026D01*
X137137204Y-106573600D01*
X137182796Y-106573600D01*
X137628086Y-106485026D01*
X138005585Y-106232789D01*
X138257822Y-105855290D01*
X138346396Y-105410000D01*
X138257822Y-104964710D01*
X138005585Y-104587211D01*
X137944508Y-104546400D01*
X138530523Y-104546400D01*
X138530523Y-106273600D01*
X138553807Y-106390654D01*
X138620112Y-106489888D01*
X138719346Y-106556193D01*
X138836400Y-106579477D01*
X140563600Y-106579477D01*
X140680654Y-106556193D01*
X140779888Y-106489888D01*
X140846193Y-106390654D01*
X140869477Y-106273600D01*
X140869477Y-104546400D01*
X140846193Y-104429346D01*
X140779888Y-104330112D01*
X140680654Y-104263807D01*
X140563600Y-104240523D01*
X138836400Y-104240523D01*
X138719346Y-104263807D01*
X138620112Y-104330112D01*
X138553807Y-104429346D01*
X138530523Y-104546400D01*
X137944508Y-104546400D01*
X137628086Y-104334974D01*
X137182796Y-104246400D01*
X137137204Y-104246400D01*
X136691914Y-104334974D01*
X136314415Y-104587211D01*
X136062178Y-104964710D01*
X135973604Y-105410000D01*
X135806396Y-105410000D01*
X135717822Y-104964710D01*
X135465585Y-104587211D01*
X135088086Y-104334974D01*
X134642796Y-104246400D01*
X134597204Y-104246400D01*
X134151914Y-104334974D01*
X133774415Y-104587211D01*
X133522178Y-104964710D01*
X133433604Y-105410000D01*
X133266396Y-105410000D01*
X133177822Y-104964710D01*
X132925585Y-104587211D01*
X132548086Y-104334974D01*
X132102796Y-104246400D01*
X132057204Y-104246400D01*
X131611914Y-104334974D01*
X131234415Y-104587211D01*
X130982178Y-104964710D01*
X130893604Y-105410000D01*
X130726396Y-105410000D01*
X130637822Y-104964710D01*
X130385585Y-104587211D01*
X130008086Y-104334974D01*
X129562796Y-104246400D01*
X129517204Y-104246400D01*
X129071914Y-104334974D01*
X128694415Y-104587211D01*
X128442178Y-104964710D01*
X128353604Y-105410000D01*
X124560000Y-105410000D01*
X124560000Y-105178757D01*
X125859609Y-105178757D01*
X125912549Y-105360000D01*
X126950000Y-105360000D01*
X126950000Y-104322470D01*
X127050000Y-104322470D01*
X127050000Y-105360000D01*
X128087451Y-105360000D01*
X128140391Y-105178757D01*
X127969896Y-104767133D01*
X127650052Y-104444905D01*
X127231244Y-104269604D01*
X127050000Y-104322470D01*
X126950000Y-104322470D01*
X126768756Y-104269604D01*
X126349948Y-104444905D01*
X126030104Y-104767133D01*
X125859609Y-105178757D01*
X124560000Y-105178757D01*
X124560000Y-103101243D01*
X125859609Y-103101243D01*
X126030104Y-103512867D01*
X126349948Y-103835095D01*
X126768756Y-104010396D01*
X126950000Y-103957530D01*
X126950000Y-102920000D01*
X127050000Y-102920000D01*
X127050000Y-103957530D01*
X127231244Y-104010396D01*
X127650052Y-103835095D01*
X127969896Y-103512867D01*
X128140391Y-103101243D01*
X128087451Y-102920000D01*
X127050000Y-102920000D01*
X126950000Y-102920000D01*
X125912549Y-102920000D01*
X125859609Y-103101243D01*
X124560000Y-103101243D01*
X124560000Y-102870000D01*
X128353604Y-102870000D01*
X128442178Y-103315290D01*
X128694415Y-103692789D01*
X129071914Y-103945026D01*
X129517204Y-104033600D01*
X129562796Y-104033600D01*
X130008086Y-103945026D01*
X130385585Y-103692789D01*
X130637822Y-103315290D01*
X130726396Y-102870000D01*
X130893604Y-102870000D01*
X130982178Y-103315290D01*
X131234415Y-103692789D01*
X131611914Y-103945026D01*
X132057204Y-104033600D01*
X132102796Y-104033600D01*
X132548086Y-103945026D01*
X132925585Y-103692789D01*
X133177822Y-103315290D01*
X133266396Y-102870000D01*
X133433604Y-102870000D01*
X133522178Y-103315290D01*
X133774415Y-103692789D01*
X134151914Y-103945026D01*
X134597204Y-104033600D01*
X134642796Y-104033600D01*
X135088086Y-103945026D01*
X135465585Y-103692789D01*
X135717822Y-103315290D01*
X135806396Y-102870000D01*
X135973604Y-102870000D01*
X136062178Y-103315290D01*
X136314415Y-103692789D01*
X136691914Y-103945026D01*
X137137204Y-104033600D01*
X137182796Y-104033600D01*
X137628086Y-103945026D01*
X138005585Y-103692789D01*
X138257822Y-103315290D01*
X138346396Y-102870000D01*
X138513604Y-102870000D01*
X138602178Y-103315290D01*
X138854415Y-103692789D01*
X139231914Y-103945026D01*
X139677204Y-104033600D01*
X139722796Y-104033600D01*
X140168086Y-103945026D01*
X140545585Y-103692789D01*
X140797822Y-103315290D01*
X140886396Y-102870000D01*
X140797822Y-102424710D01*
X140545585Y-102047211D01*
X140168086Y-101794974D01*
X139722796Y-101706400D01*
X139677204Y-101706400D01*
X139231914Y-101794974D01*
X138854415Y-102047211D01*
X138602178Y-102424710D01*
X138513604Y-102870000D01*
X138346396Y-102870000D01*
X138257822Y-102424710D01*
X138005585Y-102047211D01*
X137628086Y-101794974D01*
X137182796Y-101706400D01*
X137137204Y-101706400D01*
X136691914Y-101794974D01*
X136314415Y-102047211D01*
X136062178Y-102424710D01*
X135973604Y-102870000D01*
X135806396Y-102870000D01*
X135717822Y-102424710D01*
X135465585Y-102047211D01*
X135088086Y-101794974D01*
X134642796Y-101706400D01*
X134597204Y-101706400D01*
X134151914Y-101794974D01*
X133774415Y-102047211D01*
X133522178Y-102424710D01*
X133433604Y-102870000D01*
X133266396Y-102870000D01*
X133177822Y-102424710D01*
X132925585Y-102047211D01*
X132548086Y-101794974D01*
X132102796Y-101706400D01*
X132057204Y-101706400D01*
X131611914Y-101794974D01*
X131234415Y-102047211D01*
X130982178Y-102424710D01*
X130893604Y-102870000D01*
X130726396Y-102870000D01*
X130637822Y-102424710D01*
X130385585Y-102047211D01*
X130008086Y-101794974D01*
X129562796Y-101706400D01*
X129517204Y-101706400D01*
X129071914Y-101794974D01*
X128694415Y-102047211D01*
X128442178Y-102424710D01*
X128353604Y-102870000D01*
X124560000Y-102870000D01*
X124552388Y-102831732D01*
X124530711Y-102799289D01*
X124370179Y-102638757D01*
X125859609Y-102638757D01*
X125912549Y-102820000D01*
X126950000Y-102820000D01*
X126950000Y-101782470D01*
X127050000Y-101782470D01*
X127050000Y-102820000D01*
X128087451Y-102820000D01*
X128140391Y-102638757D01*
X127969896Y-102227133D01*
X127650052Y-101904905D01*
X127231244Y-101729604D01*
X127050000Y-101782470D01*
X126950000Y-101782470D01*
X126768756Y-101729604D01*
X126349948Y-101904905D01*
X126030104Y-102227133D01*
X125859609Y-102638757D01*
X124370179Y-102638757D01*
X123260711Y-101529289D01*
X123228268Y-101507612D01*
X123190000Y-101500000D01*
X120650000Y-101500000D01*
X120611732Y-101507612D01*
X120579289Y-101529289D01*
X119309289Y-102799289D01*
X119287612Y-102831732D01*
X119280000Y-102870000D01*
X118026396Y-102870000D01*
X117937822Y-102424710D01*
X117685585Y-102047211D01*
X117308086Y-101794974D01*
X116862796Y-101706400D01*
X116817204Y-101706400D01*
X116371914Y-101794974D01*
X115994415Y-102047211D01*
X115742178Y-102424710D01*
X115653604Y-102870000D01*
X115742178Y-103315290D01*
X115994415Y-103692789D01*
X116371914Y-103945026D01*
X116817204Y-104033600D01*
X116862796Y-104033600D01*
X117308086Y-103945026D01*
X117311622Y-103942663D01*
X117609482Y-104240523D01*
X115976400Y-104240523D01*
X115913601Y-104253015D01*
X115913601Y-104058601D01*
X115908628Y-104033600D01*
X115881250Y-103895960D01*
X115789122Y-103758081D01*
X115377197Y-103346157D01*
X115397822Y-103315290D01*
X115486396Y-102870000D01*
X115397822Y-102424710D01*
X115145585Y-102047211D01*
X114768086Y-101794974D01*
X114322796Y-101706400D01*
X114277204Y-101706400D01*
X113831914Y-101794974D01*
X113454415Y-102047211D01*
X113202178Y-102424710D01*
X113113604Y-102870000D01*
X113202178Y-103315290D01*
X113454415Y-103692789D01*
X113831914Y-103945026D01*
X114277204Y-104033600D01*
X114322796Y-104033600D01*
X114768086Y-103945026D01*
X114771622Y-103942663D01*
X115063601Y-104234642D01*
X115063601Y-104532431D01*
X114768086Y-104334974D01*
X114322796Y-104246400D01*
X114277204Y-104246400D01*
X113831914Y-104334974D01*
X113546399Y-104525749D01*
X113546399Y-104231399D01*
X113514048Y-104068759D01*
X113514048Y-104068758D01*
X113421920Y-103930879D01*
X112924121Y-103433081D01*
X112924119Y-103433078D01*
X112837198Y-103346157D01*
X112857822Y-103315290D01*
X112946396Y-102870000D01*
X112857822Y-102424710D01*
X112605585Y-102047211D01*
X112228086Y-101794974D01*
X111782796Y-101706400D01*
X111737204Y-101706400D01*
X111291914Y-101794974D01*
X110914415Y-102047211D01*
X110662178Y-102424710D01*
X110573604Y-102870000D01*
X110662178Y-103315290D01*
X110914415Y-103692789D01*
X111291914Y-103945026D01*
X111737204Y-104033600D01*
X111782796Y-104033600D01*
X112228086Y-103945026D01*
X112231622Y-103942663D01*
X112323078Y-104034119D01*
X112323081Y-104034121D01*
X112696399Y-104407440D01*
X112696399Y-104723124D01*
X112605585Y-104587211D01*
X112228086Y-104334974D01*
X111782796Y-104246400D01*
X111737204Y-104246400D01*
X111291914Y-104334974D01*
X111006399Y-104525749D01*
X111006399Y-104231399D01*
X110974048Y-104068759D01*
X110974048Y-104068758D01*
X110881920Y-103930879D01*
X110384121Y-103433081D01*
X110384119Y-103433078D01*
X110297198Y-103346157D01*
X110317822Y-103315290D01*
X110406396Y-102870000D01*
X110317822Y-102424710D01*
X110065585Y-102047211D01*
X109688086Y-101794974D01*
X109242796Y-101706400D01*
X109197204Y-101706400D01*
X108751914Y-101794974D01*
X108374415Y-102047211D01*
X108122178Y-102424710D01*
X108033604Y-102870000D01*
X107866396Y-102870000D01*
X107777822Y-102424710D01*
X107525585Y-102047211D01*
X107148086Y-101794974D01*
X106702796Y-101706400D01*
X106657204Y-101706400D01*
X106211914Y-101794974D01*
X105834415Y-102047211D01*
X105582178Y-102424710D01*
X105493604Y-102870000D01*
X100375000Y-102870000D01*
X100375000Y-102638757D01*
X102999609Y-102638757D01*
X103052549Y-102820000D01*
X104090000Y-102820000D01*
X104090000Y-101782470D01*
X104190000Y-101782470D01*
X104190000Y-102820000D01*
X105227451Y-102820000D01*
X105280391Y-102638757D01*
X105109896Y-102227133D01*
X104790052Y-101904905D01*
X104371244Y-101729604D01*
X104190000Y-101782470D01*
X104090000Y-101782470D01*
X103908756Y-101729604D01*
X103489948Y-101904905D01*
X103170104Y-102227133D01*
X102999609Y-102638757D01*
X100375000Y-102638757D01*
X100375000Y-100375000D01*
X149625000Y-100375000D01*
X149625000Y-149625000D01*
D22*
G36*
X130683000Y-108537816D02*
X130660394Y-108547157D01*
X130483862Y-108723381D01*
X130388206Y-108953747D01*
X130387988Y-109203183D01*
X130483242Y-109433715D01*
X130552513Y-109503107D01*
X130533751Y-109521836D01*
X130438095Y-109752202D01*
X130437877Y-110001638D01*
X130533131Y-110232170D01*
X130683000Y-110382301D01*
X130683000Y-119380000D01*
X130692667Y-119428601D01*
X130720197Y-119469803D01*
X135710394Y-124460000D01*
X127582394Y-132588000D01*
X125720940Y-132588000D01*
X125626855Y-132360297D01*
X125450631Y-132183765D01*
X125220265Y-132088109D01*
X124970829Y-132087891D01*
X124740297Y-132183145D01*
X124660302Y-132263000D01*
X117909728Y-132263000D01*
X117830631Y-132183765D01*
X117600265Y-132088109D01*
X117350829Y-132087891D01*
X117120297Y-132183145D01*
X116943765Y-132359369D01*
X116848829Y-132588000D01*
X116332000Y-132588000D01*
X116332000Y-130937000D01*
X117475000Y-130937000D01*
X117523601Y-130927333D01*
X117564803Y-130899803D01*
X120932197Y-127532409D01*
X121159735Y-127626891D01*
X121409171Y-127627109D01*
X121639703Y-127531855D01*
X121816235Y-127355631D01*
X121911891Y-127125265D01*
X121911990Y-127012234D01*
X122874612Y-126049612D01*
X122972594Y-125902973D01*
X123006999Y-125730000D01*
X122972594Y-125557027D01*
X122874612Y-125410387D01*
X121413396Y-123949171D01*
X124467891Y-123949171D01*
X124563145Y-124179703D01*
X124739369Y-124356235D01*
X124860553Y-124406555D01*
X126418463Y-125964464D01*
X126468145Y-126084703D01*
X126644369Y-126261235D01*
X126874735Y-126356891D01*
X127124171Y-126357109D01*
X127354703Y-126261855D01*
X127531235Y-126085631D01*
X127626891Y-125855265D01*
X127627109Y-125605829D01*
X127531855Y-125375297D01*
X127355631Y-125198765D01*
X127234446Y-125148445D01*
X125676536Y-123590534D01*
X125626855Y-123470297D01*
X125450631Y-123293765D01*
X125220265Y-123198109D01*
X124970829Y-123197891D01*
X124740297Y-123293145D01*
X124563765Y-123469369D01*
X124468109Y-123699735D01*
X124467891Y-123949171D01*
X121413396Y-123949171D01*
X120642011Y-123177787D01*
X120642109Y-123065829D01*
X120547573Y-122837033D01*
X123250136Y-120134470D01*
X123477698Y-120228962D01*
X123727134Y-120229180D01*
X123957666Y-120133926D01*
X124134198Y-119957702D01*
X124229854Y-119727336D01*
X124229953Y-119614213D01*
X125609995Y-118234171D01*
X127642891Y-118234171D01*
X127693000Y-118355444D01*
X127693000Y-120404588D01*
X127643109Y-120524739D01*
X127642891Y-120774175D01*
X127738145Y-121004707D01*
X127914369Y-121181239D01*
X128035560Y-121231562D01*
X129593463Y-122789464D01*
X129643145Y-122909703D01*
X129819369Y-123086235D01*
X130049735Y-123181891D01*
X130299171Y-123182109D01*
X130529703Y-123086855D01*
X130706235Y-122910631D01*
X130801891Y-122680265D01*
X130802109Y-122430829D01*
X130706855Y-122200297D01*
X130530631Y-122023765D01*
X130409446Y-121973445D01*
X128851533Y-120415531D01*
X128847000Y-120404560D01*
X128847000Y-118355416D01*
X128896891Y-118235265D01*
X128897109Y-117985829D01*
X128801855Y-117755297D01*
X128625631Y-117578765D01*
X128395265Y-117483109D01*
X128145829Y-117482891D01*
X127915297Y-117578145D01*
X127738765Y-117754369D01*
X127643109Y-117984735D01*
X127642891Y-118234171D01*
X125609995Y-118234171D01*
X126377213Y-117466953D01*
X126489171Y-117467051D01*
X126719703Y-117371797D01*
X126896235Y-117195573D01*
X126991891Y-116965207D01*
X126992109Y-116715771D01*
X126896855Y-116485239D01*
X126720631Y-116308707D01*
X126492000Y-116213771D01*
X126492000Y-113082606D01*
X128359803Y-111214803D01*
X128387333Y-111173601D01*
X128397000Y-111125000D01*
X128397000Y-107442000D01*
X130683000Y-107442000D01*
X130683000Y-108537816D01*
X130683000Y-108537816D01*
G37*
X130683000Y-108537816D02*
X130660394Y-108547157D01*
X130483862Y-108723381D01*
X130388206Y-108953747D01*
X130387988Y-109203183D01*
X130483242Y-109433715D01*
X130552513Y-109503107D01*
X130533751Y-109521836D01*
X130438095Y-109752202D01*
X130437877Y-110001638D01*
X130533131Y-110232170D01*
X130683000Y-110382301D01*
X130683000Y-119380000D01*
X130692667Y-119428601D01*
X130720197Y-119469803D01*
X135710394Y-124460000D01*
X127582394Y-132588000D01*
X125720940Y-132588000D01*
X125626855Y-132360297D01*
X125450631Y-132183765D01*
X125220265Y-132088109D01*
X124970829Y-132087891D01*
X124740297Y-132183145D01*
X124660302Y-132263000D01*
X117909728Y-132263000D01*
X117830631Y-132183765D01*
X117600265Y-132088109D01*
X117350829Y-132087891D01*
X117120297Y-132183145D01*
X116943765Y-132359369D01*
X116848829Y-132588000D01*
X116332000Y-132588000D01*
X116332000Y-130937000D01*
X117475000Y-130937000D01*
X117523601Y-130927333D01*
X117564803Y-130899803D01*
X120932197Y-127532409D01*
X121159735Y-127626891D01*
X121409171Y-127627109D01*
X121639703Y-127531855D01*
X121816235Y-127355631D01*
X121911891Y-127125265D01*
X121911990Y-127012234D01*
X122874612Y-126049612D01*
X122972594Y-125902973D01*
X123006999Y-125730000D01*
X122972594Y-125557027D01*
X122874612Y-125410387D01*
X121413396Y-123949171D01*
X124467891Y-123949171D01*
X124563145Y-124179703D01*
X124739369Y-124356235D01*
X124860553Y-124406555D01*
X126418463Y-125964464D01*
X126468145Y-126084703D01*
X126644369Y-126261235D01*
X126874735Y-126356891D01*
X127124171Y-126357109D01*
X127354703Y-126261855D01*
X127531235Y-126085631D01*
X127626891Y-125855265D01*
X127627109Y-125605829D01*
X127531855Y-125375297D01*
X127355631Y-125198765D01*
X127234446Y-125148445D01*
X125676536Y-123590534D01*
X125626855Y-123470297D01*
X125450631Y-123293765D01*
X125220265Y-123198109D01*
X124970829Y-123197891D01*
X124740297Y-123293145D01*
X124563765Y-123469369D01*
X124468109Y-123699735D01*
X124467891Y-123949171D01*
X121413396Y-123949171D01*
X120642011Y-123177787D01*
X120642109Y-123065829D01*
X120547573Y-122837033D01*
X123250136Y-120134470D01*
X123477698Y-120228962D01*
X123727134Y-120229180D01*
X123957666Y-120133926D01*
X124134198Y-119957702D01*
X124229854Y-119727336D01*
X124229953Y-119614213D01*
X125609995Y-118234171D01*
X127642891Y-118234171D01*
X127693000Y-118355444D01*
X127693000Y-120404588D01*
X127643109Y-120524739D01*
X127642891Y-120774175D01*
X127738145Y-121004707D01*
X127914369Y-121181239D01*
X128035560Y-121231562D01*
X129593463Y-122789464D01*
X129643145Y-122909703D01*
X129819369Y-123086235D01*
X130049735Y-123181891D01*
X130299171Y-123182109D01*
X130529703Y-123086855D01*
X130706235Y-122910631D01*
X130801891Y-122680265D01*
X130802109Y-122430829D01*
X130706855Y-122200297D01*
X130530631Y-122023765D01*
X130409446Y-121973445D01*
X128851533Y-120415531D01*
X128847000Y-120404560D01*
X128847000Y-118355416D01*
X128896891Y-118235265D01*
X128897109Y-117985829D01*
X128801855Y-117755297D01*
X128625631Y-117578765D01*
X128395265Y-117483109D01*
X128145829Y-117482891D01*
X127915297Y-117578145D01*
X127738765Y-117754369D01*
X127643109Y-117984735D01*
X127642891Y-118234171D01*
X125609995Y-118234171D01*
X126377213Y-117466953D01*
X126489171Y-117467051D01*
X126719703Y-117371797D01*
X126896235Y-117195573D01*
X126991891Y-116965207D01*
X126992109Y-116715771D01*
X126896855Y-116485239D01*
X126720631Y-116308707D01*
X126492000Y-116213771D01*
X126492000Y-113082606D01*
X128359803Y-111214803D01*
X128387333Y-111173601D01*
X128397000Y-111125000D01*
X128397000Y-107442000D01*
X130683000Y-107442000D01*
X130683000Y-108537816D01*
M02*
