G04 #@! TF.FileFunction,Legend,Top*
%FSLAX46Y46*%
G04 Gerber Fmt 4.6, Leading zero omitted, Abs format (unit mm)*
G04 Created by KiCad (PCBNEW 0.201602101416+6546~42~ubuntu14.04.1-product) date Thu 11 Feb 2016 08:58:18 AM CET*
%MOMM*%
G01*
G04 APERTURE LIST*
%ADD10C,0.100000*%
%ADD11C,0.200000*%
%ADD12C,0.150000*%
G04 APERTURE END LIST*
D10*
D11*
X148590000Y-124460000D02*
G75*
G03X148590000Y-124460000I-2540000J0D01*
G01*
X124460000Y-146050000D02*
G75*
G03X124460000Y-146050000I-2540000J0D01*
G01*
X124460000Y-104140000D02*
G75*
G03X124460000Y-104140000I-2540000J0D01*
G01*
D12*
X114970000Y-131795000D02*
X114970000Y-131095000D01*
X116170000Y-131095000D02*
X116170000Y-131795000D01*
X142659623Y-124460000D02*
X141917161Y-123717538D01*
X128270000Y-138849623D02*
X127527538Y-138107161D01*
X113880377Y-124460000D02*
X114622839Y-125202462D01*
X128270000Y-110070377D02*
X129012462Y-110812839D01*
X142659623Y-124460000D02*
X141917161Y-125202462D01*
X128270000Y-110070377D02*
X127527538Y-110812839D01*
X113880377Y-124460000D02*
X114622839Y-123717538D01*
X128270000Y-138849623D02*
X129012462Y-138107161D01*
X141917161Y-123717538D02*
X142836400Y-122798299D01*
X99052540Y-120109100D02*
X99052540Y-128809100D01*
X105457540Y-120109100D02*
X105457540Y-128809100D01*
X105457540Y-128809100D02*
X99052540Y-128809100D01*
X100282540Y-128809100D02*
X100282540Y-120109100D01*
X99052540Y-120109100D02*
X105457540Y-120109100D01*
X103055000Y-117925000D02*
X103580000Y-117925000D01*
X103055000Y-110675000D02*
X103580000Y-110675000D01*
X110305000Y-110675000D02*
X109780000Y-110675000D01*
X110305000Y-117925000D02*
X109780000Y-117925000D01*
X103055000Y-117925000D02*
X103055000Y-117400000D01*
X110305000Y-117925000D02*
X110305000Y-117400000D01*
X110305000Y-110675000D02*
X110305000Y-111200000D01*
X103055000Y-110675000D02*
X103055000Y-111200000D01*
X103580000Y-117925000D02*
X103580000Y-119300000D01*
X138080000Y-111160000D02*
X138780000Y-111160000D01*
X138780000Y-112360000D02*
X138080000Y-112360000D01*
X138080000Y-113700000D02*
X138780000Y-113700000D01*
X138780000Y-114900000D02*
X138080000Y-114900000D01*
X122790000Y-139665000D02*
X124340000Y-139665000D01*
X122790000Y-138465000D02*
X124340000Y-138465000D01*
X138930000Y-109895000D02*
X137930000Y-109895000D01*
X137930000Y-108545000D02*
X138930000Y-108545000D01*
X119380000Y-114046000D02*
X114300000Y-114046000D01*
X114300000Y-114046000D02*
X114300000Y-109474000D01*
X114300000Y-109474000D02*
X119380000Y-109474000D01*
X119380000Y-109474000D02*
X119380000Y-114046000D01*
X119380000Y-112522000D02*
X118872000Y-112522000D01*
X118872000Y-112522000D02*
X118872000Y-111252000D01*
X118872000Y-111252000D02*
X119380000Y-111252000D01*
X104640000Y-108625000D02*
X103640000Y-108625000D01*
X103640000Y-107275000D02*
X104640000Y-107275000D01*
X109720000Y-127675000D02*
X108720000Y-127675000D01*
X108720000Y-126325000D02*
X109720000Y-126325000D01*
X108720000Y-120610000D02*
X109720000Y-120610000D01*
X109720000Y-121960000D02*
X108720000Y-121960000D01*
X108720000Y-124420000D02*
X109720000Y-124420000D01*
X109720000Y-125770000D02*
X108720000Y-125770000D01*
X121785000Y-109260000D02*
X120785000Y-109260000D01*
X120785000Y-107910000D02*
X121785000Y-107910000D01*
X108720000Y-122515000D02*
X109720000Y-122515000D01*
X109720000Y-123865000D02*
X108720000Y-123865000D01*
X102870000Y-92770000D02*
X102870000Y-101600000D01*
X105410000Y-92770000D02*
X102870000Y-92770000D01*
X105410000Y-101600000D02*
X102870000Y-101600000D01*
X102870000Y-101600000D02*
X102870000Y-92770000D01*
X105410000Y-101600000D02*
X105410000Y-92770000D01*
X107950000Y-101600000D02*
X105410000Y-101600000D01*
X107950000Y-92770000D02*
X105410000Y-92770000D01*
X105410000Y-92770000D02*
X105410000Y-101600000D01*
X107950000Y-92770000D02*
X107950000Y-101600000D01*
X110490000Y-92770000D02*
X107950000Y-92770000D01*
X110490000Y-101600000D02*
X107950000Y-101600000D01*
X107950000Y-101600000D02*
X107950000Y-92770000D01*
X110490000Y-101600000D02*
X110490000Y-92770000D01*
X113030000Y-101600000D02*
X110490000Y-101600000D01*
X113030000Y-92770000D02*
X110490000Y-92770000D01*
X110490000Y-92770000D02*
X110490000Y-101600000D01*
X113030000Y-92770000D02*
X113030000Y-101600000D01*
X115570000Y-92770000D02*
X113030000Y-92770000D01*
X115570000Y-101600000D02*
X113030000Y-101600000D01*
X113030000Y-101600000D02*
X113030000Y-92770000D01*
X115570000Y-101600000D02*
X115570000Y-92770000D01*
X118110000Y-101600000D02*
X115570000Y-101600000D01*
X116840000Y-106560000D02*
X118390000Y-106560000D01*
X118390000Y-106560000D02*
X118390000Y-105410000D01*
X118110000Y-101600000D02*
X118110000Y-92770000D01*
X118110000Y-92770000D02*
X115570000Y-92770000D01*
X115570000Y-92770000D02*
X115570000Y-101600000D01*
X125730000Y-92770000D02*
X125730000Y-101600000D01*
X128270000Y-92770000D02*
X125730000Y-92770000D01*
X128270000Y-101600000D02*
X125730000Y-101600000D01*
X125730000Y-101600000D02*
X125730000Y-92770000D01*
X128270000Y-101600000D02*
X128270000Y-92770000D01*
X130810000Y-101600000D02*
X128270000Y-101600000D01*
X130810000Y-92770000D02*
X128270000Y-92770000D01*
X128270000Y-92770000D02*
X128270000Y-101600000D01*
X130810000Y-92770000D02*
X130810000Y-101600000D01*
X133350000Y-92770000D02*
X130810000Y-92770000D01*
X133350000Y-101600000D02*
X130810000Y-101600000D01*
X130810000Y-101600000D02*
X130810000Y-92770000D01*
X133350000Y-101600000D02*
X133350000Y-92770000D01*
X135890000Y-101600000D02*
X133350000Y-101600000D01*
X135890000Y-92770000D02*
X133350000Y-92770000D01*
X133350000Y-92770000D02*
X133350000Y-101600000D01*
X135890000Y-92770000D02*
X135890000Y-101600000D01*
X138430000Y-92770000D02*
X135890000Y-92770000D01*
X138430000Y-101600000D02*
X135890000Y-101600000D01*
X135890000Y-101600000D02*
X135890000Y-92770000D01*
X138430000Y-101600000D02*
X138430000Y-92770000D01*
X140970000Y-101600000D02*
X138430000Y-101600000D01*
X139700000Y-106560000D02*
X141250000Y-106560000D01*
X141250000Y-106560000D02*
X141250000Y-105410000D01*
X140970000Y-101600000D02*
X140970000Y-92770000D01*
X140970000Y-92770000D02*
X138430000Y-92770000D01*
X138430000Y-92770000D02*
X138430000Y-101600000D01*
X157420000Y-105410000D02*
X148590000Y-105410000D01*
X157420000Y-107950000D02*
X157420000Y-105410000D01*
X148590000Y-107950000D02*
X148590000Y-105410000D01*
X148590000Y-105410000D02*
X157420000Y-105410000D01*
X148590000Y-107950000D02*
X157420000Y-107950000D01*
X148590000Y-110490000D02*
X148590000Y-107950000D01*
X157420000Y-110490000D02*
X157420000Y-107950000D01*
X157420000Y-107950000D02*
X148590000Y-107950000D01*
X157420000Y-110490000D02*
X148590000Y-110490000D01*
X157420000Y-113030000D02*
X157420000Y-110490000D01*
X148590000Y-113030000D02*
X148590000Y-110490000D01*
X148590000Y-110490000D02*
X157420000Y-110490000D01*
X148590000Y-113030000D02*
X157420000Y-113030000D01*
X148590000Y-115570000D02*
X148590000Y-113030000D01*
X157420000Y-115570000D02*
X157420000Y-113030000D01*
X157420000Y-113030000D02*
X148590000Y-113030000D01*
X157420000Y-115570000D02*
X148590000Y-115570000D01*
X157420000Y-118110000D02*
X157420000Y-115570000D01*
X148590000Y-118110000D02*
X148590000Y-115570000D01*
X148590000Y-115570000D02*
X157420000Y-115570000D01*
X148590000Y-118110000D02*
X157420000Y-118110000D01*
X148590000Y-120650000D02*
X148590000Y-118110000D01*
X143630000Y-119380000D02*
X143630000Y-120930000D01*
X143630000Y-120930000D02*
X144780000Y-120930000D01*
X148590000Y-120650000D02*
X157420000Y-120650000D01*
X157420000Y-120650000D02*
X157420000Y-118110000D01*
X157420000Y-118110000D02*
X148590000Y-118110000D01*
X157420000Y-128270000D02*
X148590000Y-128270000D01*
X157420000Y-130810000D02*
X157420000Y-128270000D01*
X148590000Y-130810000D02*
X148590000Y-128270000D01*
X148590000Y-128270000D02*
X157420000Y-128270000D01*
X148590000Y-130810000D02*
X157420000Y-130810000D01*
X148590000Y-133350000D02*
X148590000Y-130810000D01*
X157420000Y-133350000D02*
X157420000Y-130810000D01*
X157420000Y-130810000D02*
X148590000Y-130810000D01*
X157420000Y-133350000D02*
X148590000Y-133350000D01*
X157420000Y-135890000D02*
X157420000Y-133350000D01*
X148590000Y-135890000D02*
X148590000Y-133350000D01*
X148590000Y-133350000D02*
X157420000Y-133350000D01*
X148590000Y-135890000D02*
X157420000Y-135890000D01*
X148590000Y-138430000D02*
X148590000Y-135890000D01*
X157420000Y-138430000D02*
X157420000Y-135890000D01*
X157420000Y-135890000D02*
X148590000Y-135890000D01*
X157420000Y-138430000D02*
X148590000Y-138430000D01*
X157420000Y-140970000D02*
X157420000Y-138430000D01*
X148590000Y-140970000D02*
X148590000Y-138430000D01*
X148590000Y-138430000D02*
X157420000Y-138430000D01*
X148590000Y-140970000D02*
X157420000Y-140970000D01*
X148590000Y-143510000D02*
X148590000Y-140970000D01*
X143630000Y-142240000D02*
X143630000Y-143790000D01*
X143630000Y-143790000D02*
X144780000Y-143790000D01*
X148590000Y-143510000D02*
X157420000Y-143510000D01*
X157420000Y-143510000D02*
X157420000Y-140970000D01*
X157420000Y-140970000D02*
X148590000Y-140970000D01*
X140970000Y-157420000D02*
X140970000Y-148590000D01*
X138430000Y-157420000D02*
X140970000Y-157420000D01*
X138430000Y-148590000D02*
X140970000Y-148590000D01*
X140970000Y-148590000D02*
X140970000Y-157420000D01*
X138430000Y-148590000D02*
X138430000Y-157420000D01*
X135890000Y-148590000D02*
X138430000Y-148590000D01*
X135890000Y-157420000D02*
X138430000Y-157420000D01*
X138430000Y-157420000D02*
X138430000Y-148590000D01*
X135890000Y-157420000D02*
X135890000Y-148590000D01*
X133350000Y-157420000D02*
X135890000Y-157420000D01*
X133350000Y-148590000D02*
X135890000Y-148590000D01*
X135890000Y-148590000D02*
X135890000Y-157420000D01*
X133350000Y-148590000D02*
X133350000Y-157420000D01*
X130810000Y-148590000D02*
X133350000Y-148590000D01*
X130810000Y-157420000D02*
X133350000Y-157420000D01*
X133350000Y-157420000D02*
X133350000Y-148590000D01*
X130810000Y-157420000D02*
X130810000Y-148590000D01*
X128270000Y-157420000D02*
X130810000Y-157420000D01*
X128270000Y-148590000D02*
X130810000Y-148590000D01*
X130810000Y-148590000D02*
X130810000Y-157420000D01*
X128270000Y-148590000D02*
X128270000Y-157420000D01*
X125730000Y-148590000D02*
X128270000Y-148590000D01*
X127000000Y-143630000D02*
X125450000Y-143630000D01*
X125450000Y-143630000D02*
X125450000Y-144780000D01*
X125730000Y-148590000D02*
X125730000Y-157420000D01*
X125730000Y-157420000D02*
X128270000Y-157420000D01*
X128270000Y-157420000D02*
X128270000Y-148590000D01*
X118110000Y-157420000D02*
X118110000Y-148590000D01*
X115570000Y-157420000D02*
X118110000Y-157420000D01*
X115570000Y-148590000D02*
X118110000Y-148590000D01*
X118110000Y-148590000D02*
X118110000Y-157420000D01*
X115570000Y-148590000D02*
X115570000Y-157420000D01*
X113030000Y-148590000D02*
X115570000Y-148590000D01*
X113030000Y-157420000D02*
X115570000Y-157420000D01*
X115570000Y-157420000D02*
X115570000Y-148590000D01*
X113030000Y-157420000D02*
X113030000Y-148590000D01*
X110490000Y-157420000D02*
X113030000Y-157420000D01*
X110490000Y-148590000D02*
X113030000Y-148590000D01*
X113030000Y-148590000D02*
X113030000Y-157420000D01*
X110490000Y-148590000D02*
X110490000Y-157420000D01*
X107950000Y-148590000D02*
X110490000Y-148590000D01*
X107950000Y-157420000D02*
X110490000Y-157420000D01*
X110490000Y-157420000D02*
X110490000Y-148590000D01*
X107950000Y-157420000D02*
X107950000Y-148590000D01*
X105410000Y-157420000D02*
X107950000Y-157420000D01*
X105410000Y-148590000D02*
X107950000Y-148590000D01*
X107950000Y-148590000D02*
X107950000Y-157420000D01*
X105410000Y-148590000D02*
X105410000Y-157420000D01*
X102870000Y-148590000D02*
X105410000Y-148590000D01*
X104140000Y-143630000D02*
X102590000Y-143630000D01*
X102590000Y-143630000D02*
X102590000Y-144780000D01*
X102870000Y-148590000D02*
X102870000Y-157420000D01*
X102870000Y-157420000D02*
X105410000Y-157420000D01*
X105410000Y-157420000D02*
X105410000Y-148590000D01*
X111410000Y-107350000D02*
X112110000Y-107350000D01*
X112110000Y-108550000D02*
X111410000Y-108550000D01*
X107600000Y-107350000D02*
X108300000Y-107350000D01*
X108300000Y-108550000D02*
X107600000Y-108550000D01*
X136810000Y-140370000D02*
X137510000Y-140370000D01*
X137510000Y-141570000D02*
X136810000Y-141570000D01*
X136810000Y-137830000D02*
X137510000Y-137830000D01*
X137510000Y-139030000D02*
X136810000Y-139030000D01*
X118710000Y-136175000D02*
X118710000Y-136875000D01*
X117510000Y-136875000D02*
X117510000Y-136175000D01*
X116170000Y-136175000D02*
X116170000Y-136875000D01*
X114970000Y-136875000D02*
X114970000Y-136175000D01*
X112430000Y-131795000D02*
X112430000Y-131095000D01*
X113630000Y-131095000D02*
X113630000Y-131795000D01*
X131222000Y-107604000D02*
X131922000Y-107604000D01*
X131922000Y-108804000D02*
X131222000Y-108804000D01*
X128366000Y-108804000D02*
X127666000Y-108804000D01*
X127666000Y-107604000D02*
X128366000Y-107604000D01*
X109720000Y-129580000D02*
X108720000Y-129580000D01*
X108720000Y-128230000D02*
X109720000Y-128230000D01*
X137660000Y-136565000D02*
X136660000Y-136565000D01*
X136660000Y-135215000D02*
X137660000Y-135215000D01*
X110140000Y-139100000D02*
X110840000Y-139100000D01*
X110840000Y-140300000D02*
X110140000Y-140300000D01*
X109500000Y-134900000D02*
X109500000Y-135115000D01*
X112750000Y-134900000D02*
X112750000Y-135115000D01*
X112750000Y-138150000D02*
X112750000Y-137935000D01*
X109500000Y-138150000D02*
X109500000Y-137935000D01*
X109500000Y-134900000D02*
X112750000Y-134900000D01*
X109500000Y-138150000D02*
X112750000Y-138150000D01*
X109500000Y-135115000D02*
X108575000Y-135115000D01*
X141640000Y-105760000D02*
X141640000Y-105060000D01*
X142840000Y-105060000D02*
X142840000Y-105760000D01*
X142840000Y-109505000D02*
X142840000Y-110205000D01*
X141640000Y-110205000D02*
X141640000Y-109505000D01*
X100965000Y-134620000D02*
X100965000Y-142240000D01*
X100965000Y-142240000D02*
X106045000Y-142240000D01*
X106045000Y-142240000D02*
X106045000Y-132080000D01*
X106045000Y-132080000D02*
X103505000Y-132080000D01*
X102235000Y-131800000D02*
X100685000Y-131800000D01*
X103505000Y-132080000D02*
X103505000Y-134620000D01*
X103505000Y-134620000D02*
X100965000Y-134620000D01*
X100685000Y-131800000D02*
X100685000Y-133350000D01*
X121920000Y-140335000D02*
X124460000Y-140335000D01*
X119100000Y-140055000D02*
X120650000Y-140055000D01*
X121920000Y-140335000D02*
X121920000Y-142875000D01*
X120650000Y-143155000D02*
X119100000Y-143155000D01*
X119100000Y-143155000D02*
X119100000Y-140055000D01*
X121920000Y-142875000D02*
X124460000Y-142875000D01*
X124460000Y-142875000D02*
X124460000Y-140335000D01*
X110871000Y-132715000D02*
G75*
G03X110871000Y-132715000I-127000J0D01*
G01*
X110744000Y-130175000D02*
X107696000Y-130175000D01*
X110744000Y-132715000D02*
X110744000Y-130175000D01*
X107696000Y-132715000D02*
X110744000Y-132715000D01*
X107696000Y-130175000D02*
X107696000Y-132715000D01*
X106565000Y-138955980D02*
X106565000Y-141655980D01*
X108065000Y-138955980D02*
X108065000Y-141655980D01*
X107165000Y-140455980D02*
X107415000Y-140455980D01*
X107415000Y-140455980D02*
X107265000Y-140305980D01*
X107665000Y-140205980D02*
X106965000Y-140205980D01*
X107315000Y-140555980D02*
X107315000Y-140905980D01*
X107315000Y-140205980D02*
X107665000Y-140555980D01*
X107665000Y-140555980D02*
X106965000Y-140555980D01*
X106965000Y-140555980D02*
X107315000Y-140205980D01*
X147650000Y-146570000D02*
X144950000Y-146570000D01*
X147650000Y-148070000D02*
X144950000Y-148070000D01*
X146150000Y-147170000D02*
X146150000Y-147420000D01*
X146150000Y-147420000D02*
X146300000Y-147270000D01*
X146400000Y-147670000D02*
X146400000Y-146970000D01*
X146050000Y-147320000D02*
X145700000Y-147320000D01*
X146400000Y-147320000D02*
X146050000Y-147670000D01*
X146050000Y-147670000D02*
X146050000Y-146970000D01*
X146050000Y-146970000D02*
X146400000Y-147320000D01*
X147650000Y-102120000D02*
X144950000Y-102120000D01*
X147650000Y-103620000D02*
X144950000Y-103620000D01*
X146150000Y-102720000D02*
X146150000Y-102970000D01*
X146150000Y-102970000D02*
X146300000Y-102820000D01*
X146400000Y-103220000D02*
X146400000Y-102520000D01*
X146050000Y-102870000D02*
X145700000Y-102870000D01*
X146400000Y-102870000D02*
X146050000Y-103220000D01*
X146050000Y-103220000D02*
X146050000Y-102520000D01*
X146050000Y-102520000D02*
X146400000Y-102870000D01*
X109875000Y-140930000D02*
X110875000Y-140930000D01*
X110875000Y-142280000D02*
X109875000Y-142280000D01*
X141565000Y-145915000D02*
X141565000Y-144915000D01*
X142915000Y-144915000D02*
X142915000Y-145915000D01*
X136565000Y-112530000D02*
X136565000Y-113530000D01*
X135215000Y-113530000D02*
X135215000Y-112530000D01*
X114927143Y-134342143D02*
X114879524Y-134389762D01*
X114736667Y-134437381D01*
X114641429Y-134437381D01*
X114498571Y-134389762D01*
X114403333Y-134294524D01*
X114355714Y-134199286D01*
X114308095Y-134008810D01*
X114308095Y-133865952D01*
X114355714Y-133675476D01*
X114403333Y-133580238D01*
X114498571Y-133485000D01*
X114641429Y-133437381D01*
X114736667Y-133437381D01*
X114879524Y-133485000D01*
X114927143Y-133532619D01*
X115879524Y-134437381D02*
X115308095Y-134437381D01*
X115593809Y-134437381D02*
X115593809Y-133437381D01*
X115498571Y-133580238D01*
X115403333Y-133675476D01*
X115308095Y-133723095D01*
X116498571Y-133437381D02*
X116593810Y-133437381D01*
X116689048Y-133485000D01*
X116736667Y-133532619D01*
X116784286Y-133627857D01*
X116831905Y-133818333D01*
X116831905Y-134056429D01*
X116784286Y-134246905D01*
X116736667Y-134342143D01*
X116689048Y-134389762D01*
X116593810Y-134437381D01*
X116498571Y-134437381D01*
X116403333Y-134389762D01*
X116355714Y-134342143D01*
X116308095Y-134246905D01*
X116260476Y-134056429D01*
X116260476Y-133818333D01*
X116308095Y-133627857D01*
X116355714Y-133532619D01*
X116403333Y-133485000D01*
X116498571Y-133437381D01*
X136165184Y-133432680D02*
X136737604Y-134005100D01*
X136838619Y-134038772D01*
X136905962Y-134038772D01*
X137006977Y-134005100D01*
X137141665Y-133870412D01*
X137175337Y-133769397D01*
X137175337Y-133702054D01*
X137141665Y-133601039D01*
X136569245Y-133028619D01*
X136939634Y-132792917D02*
X136939634Y-132725573D01*
X136973306Y-132624558D01*
X137141665Y-132456199D01*
X137242680Y-132422527D01*
X137310024Y-132422527D01*
X137411039Y-132456199D01*
X137478382Y-132523542D01*
X137545726Y-132658229D01*
X137545726Y-133466352D01*
X137983459Y-133028619D01*
X107132381Y-125198095D02*
X106132381Y-125198095D01*
X106132381Y-124817142D01*
X106180000Y-124721904D01*
X106227619Y-124674285D01*
X106322857Y-124626666D01*
X106465714Y-124626666D01*
X106560952Y-124674285D01*
X106608571Y-124721904D01*
X106656190Y-124817142D01*
X106656190Y-125198095D01*
X106132381Y-124293333D02*
X106132381Y-123626666D01*
X107132381Y-124055238D01*
X101473095Y-109307381D02*
X101473095Y-110116905D01*
X101520714Y-110212143D01*
X101568333Y-110259762D01*
X101663571Y-110307381D01*
X101854048Y-110307381D01*
X101949286Y-110259762D01*
X101996905Y-110212143D01*
X102044524Y-110116905D01*
X102044524Y-109307381D01*
X103044524Y-110307381D02*
X102473095Y-110307381D01*
X102758809Y-110307381D02*
X102758809Y-109307381D01*
X102663571Y-109450238D01*
X102568333Y-109545476D01*
X102473095Y-109593095D01*
X140803334Y-112117143D02*
X140755715Y-112164762D01*
X140612858Y-112212381D01*
X140517620Y-112212381D01*
X140374762Y-112164762D01*
X140279524Y-112069524D01*
X140231905Y-111974286D01*
X140184286Y-111783810D01*
X140184286Y-111640952D01*
X140231905Y-111450476D01*
X140279524Y-111355238D01*
X140374762Y-111260000D01*
X140517620Y-111212381D01*
X140612858Y-111212381D01*
X140755715Y-111260000D01*
X140803334Y-111307619D01*
X141755715Y-112212381D02*
X141184286Y-112212381D01*
X141470000Y-112212381D02*
X141470000Y-111212381D01*
X141374762Y-111355238D01*
X141279524Y-111450476D01*
X141184286Y-111498095D01*
X140803334Y-114657143D02*
X140755715Y-114704762D01*
X140612858Y-114752381D01*
X140517620Y-114752381D01*
X140374762Y-114704762D01*
X140279524Y-114609524D01*
X140231905Y-114514286D01*
X140184286Y-114323810D01*
X140184286Y-114180952D01*
X140231905Y-113990476D01*
X140279524Y-113895238D01*
X140374762Y-113800000D01*
X140517620Y-113752381D01*
X140612858Y-113752381D01*
X140755715Y-113800000D01*
X140803334Y-113847619D01*
X141184286Y-113847619D02*
X141231905Y-113800000D01*
X141327143Y-113752381D01*
X141565239Y-113752381D01*
X141660477Y-113800000D01*
X141708096Y-113847619D01*
X141755715Y-113942857D01*
X141755715Y-114038095D01*
X141708096Y-114180952D01*
X141136667Y-114752381D01*
X141755715Y-114752381D01*
X122451905Y-138017381D02*
X122451905Y-137017381D01*
X122690000Y-137017381D01*
X122832858Y-137065000D01*
X122928096Y-137160238D01*
X122975715Y-137255476D01*
X123023334Y-137445952D01*
X123023334Y-137588810D01*
X122975715Y-137779286D01*
X122928096Y-137874524D01*
X122832858Y-137969762D01*
X122690000Y-138017381D01*
X122451905Y-138017381D01*
X123880477Y-137350714D02*
X123880477Y-138017381D01*
X123642381Y-136969762D02*
X123404286Y-137684048D01*
X124023334Y-137684048D01*
X140803334Y-109672381D02*
X140470000Y-109196190D01*
X140231905Y-109672381D02*
X140231905Y-108672381D01*
X140612858Y-108672381D01*
X140708096Y-108720000D01*
X140755715Y-108767619D01*
X140803334Y-108862857D01*
X140803334Y-109005714D01*
X140755715Y-109100952D01*
X140708096Y-109148571D01*
X140612858Y-109196190D01*
X140231905Y-109196190D01*
X141755715Y-109672381D02*
X141184286Y-109672381D01*
X141470000Y-109672381D02*
X141470000Y-108672381D01*
X141374762Y-108815238D01*
X141279524Y-108910476D01*
X141184286Y-108958095D01*
X119888095Y-110577381D02*
X119888095Y-111386905D01*
X119935714Y-111482143D01*
X119983333Y-111529762D01*
X120078571Y-111577381D01*
X120269048Y-111577381D01*
X120364286Y-111529762D01*
X120411905Y-111482143D01*
X120459524Y-111386905D01*
X120459524Y-110577381D01*
X120840476Y-110577381D02*
X121459524Y-110577381D01*
X121126190Y-110958333D01*
X121269048Y-110958333D01*
X121364286Y-111005952D01*
X121411905Y-111053571D01*
X121459524Y-111148810D01*
X121459524Y-111386905D01*
X121411905Y-111482143D01*
X121364286Y-111529762D01*
X121269048Y-111577381D01*
X120983333Y-111577381D01*
X120888095Y-111529762D01*
X120840476Y-111482143D01*
X101433334Y-108402381D02*
X101100000Y-107926190D01*
X100861905Y-108402381D02*
X100861905Y-107402381D01*
X101242858Y-107402381D01*
X101338096Y-107450000D01*
X101385715Y-107497619D01*
X101433334Y-107592857D01*
X101433334Y-107735714D01*
X101385715Y-107830952D01*
X101338096Y-107878571D01*
X101242858Y-107926190D01*
X100861905Y-107926190D01*
X101814286Y-107497619D02*
X101861905Y-107450000D01*
X101957143Y-107402381D01*
X102195239Y-107402381D01*
X102290477Y-107450000D01*
X102338096Y-107497619D01*
X102385715Y-107592857D01*
X102385715Y-107688095D01*
X102338096Y-107830952D01*
X101766667Y-108402381D01*
X102385715Y-108402381D01*
X111593334Y-127452381D02*
X111260000Y-126976190D01*
X111021905Y-127452381D02*
X111021905Y-126452381D01*
X111402858Y-126452381D01*
X111498096Y-126500000D01*
X111545715Y-126547619D01*
X111593334Y-126642857D01*
X111593334Y-126785714D01*
X111545715Y-126880952D01*
X111498096Y-126928571D01*
X111402858Y-126976190D01*
X111021905Y-126976190D01*
X111926667Y-126452381D02*
X112545715Y-126452381D01*
X112212381Y-126833333D01*
X112355239Y-126833333D01*
X112450477Y-126880952D01*
X112498096Y-126928571D01*
X112545715Y-127023810D01*
X112545715Y-127261905D01*
X112498096Y-127357143D01*
X112450477Y-127404762D01*
X112355239Y-127452381D01*
X112069524Y-127452381D01*
X111974286Y-127404762D01*
X111926667Y-127357143D01*
X111593334Y-121737381D02*
X111260000Y-121261190D01*
X111021905Y-121737381D02*
X111021905Y-120737381D01*
X111402858Y-120737381D01*
X111498096Y-120785000D01*
X111545715Y-120832619D01*
X111593334Y-120927857D01*
X111593334Y-121070714D01*
X111545715Y-121165952D01*
X111498096Y-121213571D01*
X111402858Y-121261190D01*
X111021905Y-121261190D01*
X112450477Y-121070714D02*
X112450477Y-121737381D01*
X112212381Y-120689762D02*
X111974286Y-121404048D01*
X112593334Y-121404048D01*
X111593334Y-125547381D02*
X111260000Y-125071190D01*
X111021905Y-125547381D02*
X111021905Y-124547381D01*
X111402858Y-124547381D01*
X111498096Y-124595000D01*
X111545715Y-124642619D01*
X111593334Y-124737857D01*
X111593334Y-124880714D01*
X111545715Y-124975952D01*
X111498096Y-125023571D01*
X111402858Y-125071190D01*
X111021905Y-125071190D01*
X112498096Y-124547381D02*
X112021905Y-124547381D01*
X111974286Y-125023571D01*
X112021905Y-124975952D01*
X112117143Y-124928333D01*
X112355239Y-124928333D01*
X112450477Y-124975952D01*
X112498096Y-125023571D01*
X112545715Y-125118810D01*
X112545715Y-125356905D01*
X112498096Y-125452143D01*
X112450477Y-125499762D01*
X112355239Y-125547381D01*
X112117143Y-125547381D01*
X112021905Y-125499762D01*
X111974286Y-125452143D01*
X123658334Y-109037381D02*
X123325000Y-108561190D01*
X123086905Y-109037381D02*
X123086905Y-108037381D01*
X123467858Y-108037381D01*
X123563096Y-108085000D01*
X123610715Y-108132619D01*
X123658334Y-108227857D01*
X123658334Y-108370714D01*
X123610715Y-108465952D01*
X123563096Y-108513571D01*
X123467858Y-108561190D01*
X123086905Y-108561190D01*
X124515477Y-108037381D02*
X124325000Y-108037381D01*
X124229762Y-108085000D01*
X124182143Y-108132619D01*
X124086905Y-108275476D01*
X124039286Y-108465952D01*
X124039286Y-108846905D01*
X124086905Y-108942143D01*
X124134524Y-108989762D01*
X124229762Y-109037381D01*
X124420239Y-109037381D01*
X124515477Y-108989762D01*
X124563096Y-108942143D01*
X124610715Y-108846905D01*
X124610715Y-108608810D01*
X124563096Y-108513571D01*
X124515477Y-108465952D01*
X124420239Y-108418333D01*
X124229762Y-108418333D01*
X124134524Y-108465952D01*
X124086905Y-108513571D01*
X124039286Y-108608810D01*
X111593334Y-123642381D02*
X111260000Y-123166190D01*
X111021905Y-123642381D02*
X111021905Y-122642381D01*
X111402858Y-122642381D01*
X111498096Y-122690000D01*
X111545715Y-122737619D01*
X111593334Y-122832857D01*
X111593334Y-122975714D01*
X111545715Y-123070952D01*
X111498096Y-123118571D01*
X111402858Y-123166190D01*
X111021905Y-123166190D01*
X111926667Y-122642381D02*
X112593334Y-122642381D01*
X112164762Y-123642381D01*
X109751905Y-107767381D02*
X109751905Y-106767381D01*
X110132858Y-106767381D01*
X110228096Y-106815000D01*
X110275715Y-106862619D01*
X110323334Y-106957857D01*
X110323334Y-107100714D01*
X110275715Y-107195952D01*
X110228096Y-107243571D01*
X110132858Y-107291190D01*
X109751905Y-107291190D01*
X111275715Y-107767381D02*
X110704286Y-107767381D01*
X110990000Y-107767381D02*
X110990000Y-106767381D01*
X110894762Y-106910238D01*
X110799524Y-107005476D01*
X110704286Y-107053095D01*
X132611905Y-107767381D02*
X132611905Y-106767381D01*
X132992858Y-106767381D01*
X133088096Y-106815000D01*
X133135715Y-106862619D01*
X133183334Y-106957857D01*
X133183334Y-107100714D01*
X133135715Y-107195952D01*
X133088096Y-107243571D01*
X132992858Y-107291190D01*
X132611905Y-107291190D01*
X133564286Y-106862619D02*
X133611905Y-106815000D01*
X133707143Y-106767381D01*
X133945239Y-106767381D01*
X134040477Y-106815000D01*
X134088096Y-106862619D01*
X134135715Y-106957857D01*
X134135715Y-107053095D01*
X134088096Y-107195952D01*
X133516667Y-107767381D01*
X134135715Y-107767381D01*
X143327381Y-113768095D02*
X142327381Y-113768095D01*
X142327381Y-113387142D01*
X142375000Y-113291904D01*
X142422619Y-113244285D01*
X142517857Y-113196666D01*
X142660714Y-113196666D01*
X142755952Y-113244285D01*
X142803571Y-113291904D01*
X142851190Y-113387142D01*
X142851190Y-113768095D01*
X142327381Y-112863333D02*
X142327381Y-112244285D01*
X142708333Y-112577619D01*
X142708333Y-112434761D01*
X142755952Y-112339523D01*
X142803571Y-112291904D01*
X142898810Y-112244285D01*
X143136905Y-112244285D01*
X143232143Y-112291904D01*
X143279762Y-112339523D01*
X143327381Y-112434761D01*
X143327381Y-112720476D01*
X143279762Y-112815714D01*
X143232143Y-112863333D01*
X143327381Y-136628095D02*
X142327381Y-136628095D01*
X142327381Y-136247142D01*
X142375000Y-136151904D01*
X142422619Y-136104285D01*
X142517857Y-136056666D01*
X142660714Y-136056666D01*
X142755952Y-136104285D01*
X142803571Y-136151904D01*
X142851190Y-136247142D01*
X142851190Y-136628095D01*
X142660714Y-135199523D02*
X143327381Y-135199523D01*
X142279762Y-135437619D02*
X142994048Y-135675714D01*
X142994048Y-135056666D01*
X132611905Y-143327381D02*
X132611905Y-142327381D01*
X132992858Y-142327381D01*
X133088096Y-142375000D01*
X133135715Y-142422619D01*
X133183334Y-142517857D01*
X133183334Y-142660714D01*
X133135715Y-142755952D01*
X133088096Y-142803571D01*
X132992858Y-142851190D01*
X132611905Y-142851190D01*
X134088096Y-142327381D02*
X133611905Y-142327381D01*
X133564286Y-142803571D01*
X133611905Y-142755952D01*
X133707143Y-142708333D01*
X133945239Y-142708333D01*
X134040477Y-142755952D01*
X134088096Y-142803571D01*
X134135715Y-142898810D01*
X134135715Y-143136905D01*
X134088096Y-143232143D01*
X134040477Y-143279762D01*
X133945239Y-143327381D01*
X133707143Y-143327381D01*
X133611905Y-143279762D01*
X133564286Y-143232143D01*
X109751905Y-143327381D02*
X109751905Y-142327381D01*
X110132858Y-142327381D01*
X110228096Y-142375000D01*
X110275715Y-142422619D01*
X110323334Y-142517857D01*
X110323334Y-142660714D01*
X110275715Y-142755952D01*
X110228096Y-142803571D01*
X110132858Y-142851190D01*
X109751905Y-142851190D01*
X111180477Y-142327381D02*
X110990000Y-142327381D01*
X110894762Y-142375000D01*
X110847143Y-142422619D01*
X110751905Y-142565476D01*
X110704286Y-142755952D01*
X110704286Y-143136905D01*
X110751905Y-143232143D01*
X110799524Y-143279762D01*
X110894762Y-143327381D01*
X111085239Y-143327381D01*
X111180477Y-143279762D01*
X111228096Y-143232143D01*
X111275715Y-143136905D01*
X111275715Y-142898810D01*
X111228096Y-142803571D01*
X111180477Y-142755952D01*
X111085239Y-142708333D01*
X110894762Y-142708333D01*
X110799524Y-142755952D01*
X110751905Y-142803571D01*
X110704286Y-142898810D01*
X112863334Y-109577143D02*
X112815715Y-109624762D01*
X112672858Y-109672381D01*
X112577620Y-109672381D01*
X112434762Y-109624762D01*
X112339524Y-109529524D01*
X112291905Y-109434286D01*
X112244286Y-109243810D01*
X112244286Y-109100952D01*
X112291905Y-108910476D01*
X112339524Y-108815238D01*
X112434762Y-108720000D01*
X112577620Y-108672381D01*
X112672858Y-108672381D01*
X112815715Y-108720000D01*
X112863334Y-108767619D01*
X113196667Y-108672381D02*
X113815715Y-108672381D01*
X113482381Y-109053333D01*
X113625239Y-109053333D01*
X113720477Y-109100952D01*
X113768096Y-109148571D01*
X113815715Y-109243810D01*
X113815715Y-109481905D01*
X113768096Y-109577143D01*
X113720477Y-109624762D01*
X113625239Y-109672381D01*
X113339524Y-109672381D01*
X113244286Y-109624762D01*
X113196667Y-109577143D01*
X110323334Y-109577143D02*
X110275715Y-109624762D01*
X110132858Y-109672381D01*
X110037620Y-109672381D01*
X109894762Y-109624762D01*
X109799524Y-109529524D01*
X109751905Y-109434286D01*
X109704286Y-109243810D01*
X109704286Y-109100952D01*
X109751905Y-108910476D01*
X109799524Y-108815238D01*
X109894762Y-108720000D01*
X110037620Y-108672381D01*
X110132858Y-108672381D01*
X110275715Y-108720000D01*
X110323334Y-108767619D01*
X111180477Y-109005714D02*
X111180477Y-109672381D01*
X110942381Y-108624762D02*
X110704286Y-109339048D01*
X111323334Y-109339048D01*
X139533334Y-141327143D02*
X139485715Y-141374762D01*
X139342858Y-141422381D01*
X139247620Y-141422381D01*
X139104762Y-141374762D01*
X139009524Y-141279524D01*
X138961905Y-141184286D01*
X138914286Y-140993810D01*
X138914286Y-140850952D01*
X138961905Y-140660476D01*
X139009524Y-140565238D01*
X139104762Y-140470000D01*
X139247620Y-140422381D01*
X139342858Y-140422381D01*
X139485715Y-140470000D01*
X139533334Y-140517619D01*
X140438096Y-140422381D02*
X139961905Y-140422381D01*
X139914286Y-140898571D01*
X139961905Y-140850952D01*
X140057143Y-140803333D01*
X140295239Y-140803333D01*
X140390477Y-140850952D01*
X140438096Y-140898571D01*
X140485715Y-140993810D01*
X140485715Y-141231905D01*
X140438096Y-141327143D01*
X140390477Y-141374762D01*
X140295239Y-141422381D01*
X140057143Y-141422381D01*
X139961905Y-141374762D01*
X139914286Y-141327143D01*
X139533334Y-138787143D02*
X139485715Y-138834762D01*
X139342858Y-138882381D01*
X139247620Y-138882381D01*
X139104762Y-138834762D01*
X139009524Y-138739524D01*
X138961905Y-138644286D01*
X138914286Y-138453810D01*
X138914286Y-138310952D01*
X138961905Y-138120476D01*
X139009524Y-138025238D01*
X139104762Y-137930000D01*
X139247620Y-137882381D01*
X139342858Y-137882381D01*
X139485715Y-137930000D01*
X139533334Y-137977619D01*
X140390477Y-137882381D02*
X140200000Y-137882381D01*
X140104762Y-137930000D01*
X140057143Y-137977619D01*
X139961905Y-138120476D01*
X139914286Y-138310952D01*
X139914286Y-138691905D01*
X139961905Y-138787143D01*
X140009524Y-138834762D01*
X140104762Y-138882381D01*
X140295239Y-138882381D01*
X140390477Y-138834762D01*
X140438096Y-138787143D01*
X140485715Y-138691905D01*
X140485715Y-138453810D01*
X140438096Y-138358571D01*
X140390477Y-138310952D01*
X140295239Y-138263333D01*
X140104762Y-138263333D01*
X140009524Y-138310952D01*
X139961905Y-138358571D01*
X139914286Y-138453810D01*
X119848334Y-136882143D02*
X119800715Y-136929762D01*
X119657858Y-136977381D01*
X119562620Y-136977381D01*
X119419762Y-136929762D01*
X119324524Y-136834524D01*
X119276905Y-136739286D01*
X119229286Y-136548810D01*
X119229286Y-136405952D01*
X119276905Y-136215476D01*
X119324524Y-136120238D01*
X119419762Y-136025000D01*
X119562620Y-135977381D01*
X119657858Y-135977381D01*
X119800715Y-136025000D01*
X119848334Y-136072619D01*
X120181667Y-135977381D02*
X120848334Y-135977381D01*
X120419762Y-136977381D01*
X115403334Y-139422143D02*
X115355715Y-139469762D01*
X115212858Y-139517381D01*
X115117620Y-139517381D01*
X114974762Y-139469762D01*
X114879524Y-139374524D01*
X114831905Y-139279286D01*
X114784286Y-139088810D01*
X114784286Y-138945952D01*
X114831905Y-138755476D01*
X114879524Y-138660238D01*
X114974762Y-138565000D01*
X115117620Y-138517381D01*
X115212858Y-138517381D01*
X115355715Y-138565000D01*
X115403334Y-138612619D01*
X115974762Y-138945952D02*
X115879524Y-138898333D01*
X115831905Y-138850714D01*
X115784286Y-138755476D01*
X115784286Y-138707857D01*
X115831905Y-138612619D01*
X115879524Y-138565000D01*
X115974762Y-138517381D01*
X116165239Y-138517381D01*
X116260477Y-138565000D01*
X116308096Y-138612619D01*
X116355715Y-138707857D01*
X116355715Y-138755476D01*
X116308096Y-138850714D01*
X116260477Y-138898333D01*
X116165239Y-138945952D01*
X115974762Y-138945952D01*
X115879524Y-138993571D01*
X115831905Y-139041190D01*
X115784286Y-139136429D01*
X115784286Y-139326905D01*
X115831905Y-139422143D01*
X115879524Y-139469762D01*
X115974762Y-139517381D01*
X116165239Y-139517381D01*
X116260477Y-139469762D01*
X116308096Y-139422143D01*
X116355715Y-139326905D01*
X116355715Y-139136429D01*
X116308096Y-139041190D01*
X116260477Y-138993571D01*
X116165239Y-138945952D01*
X112863334Y-134342143D02*
X112815715Y-134389762D01*
X112672858Y-134437381D01*
X112577620Y-134437381D01*
X112434762Y-134389762D01*
X112339524Y-134294524D01*
X112291905Y-134199286D01*
X112244286Y-134008810D01*
X112244286Y-133865952D01*
X112291905Y-133675476D01*
X112339524Y-133580238D01*
X112434762Y-133485000D01*
X112577620Y-133437381D01*
X112672858Y-133437381D01*
X112815715Y-133485000D01*
X112863334Y-133532619D01*
X113339524Y-134437381D02*
X113530000Y-134437381D01*
X113625239Y-134389762D01*
X113672858Y-134342143D01*
X113768096Y-134199286D01*
X113815715Y-134008810D01*
X113815715Y-133627857D01*
X113768096Y-133532619D01*
X113720477Y-133485000D01*
X113625239Y-133437381D01*
X113434762Y-133437381D01*
X113339524Y-133485000D01*
X113291905Y-133532619D01*
X113244286Y-133627857D01*
X113244286Y-133865952D01*
X113291905Y-133961190D01*
X113339524Y-134008810D01*
X113434762Y-134056429D01*
X113625239Y-134056429D01*
X113720477Y-134008810D01*
X113768096Y-133961190D01*
X113815715Y-133865952D01*
X131437143Y-110085143D02*
X131389524Y-110132762D01*
X131246667Y-110180381D01*
X131151429Y-110180381D01*
X131008571Y-110132762D01*
X130913333Y-110037524D01*
X130865714Y-109942286D01*
X130818095Y-109751810D01*
X130818095Y-109608952D01*
X130865714Y-109418476D01*
X130913333Y-109323238D01*
X131008571Y-109228000D01*
X131151429Y-109180381D01*
X131246667Y-109180381D01*
X131389524Y-109228000D01*
X131437143Y-109275619D01*
X132389524Y-110180381D02*
X131818095Y-110180381D01*
X132103809Y-110180381D02*
X132103809Y-109180381D01*
X132008571Y-109323238D01*
X131913333Y-109418476D01*
X131818095Y-109466095D01*
X133341905Y-110180381D02*
X132770476Y-110180381D01*
X133056190Y-110180381D02*
X133056190Y-109180381D01*
X132960952Y-109323238D01*
X132865714Y-109418476D01*
X132770476Y-109466095D01*
X127373143Y-107545143D02*
X127325524Y-107592762D01*
X127182667Y-107640381D01*
X127087429Y-107640381D01*
X126944571Y-107592762D01*
X126849333Y-107497524D01*
X126801714Y-107402286D01*
X126754095Y-107211810D01*
X126754095Y-107068952D01*
X126801714Y-106878476D01*
X126849333Y-106783238D01*
X126944571Y-106688000D01*
X127087429Y-106640381D01*
X127182667Y-106640381D01*
X127325524Y-106688000D01*
X127373143Y-106735619D01*
X128325524Y-107640381D02*
X127754095Y-107640381D01*
X128039809Y-107640381D02*
X128039809Y-106640381D01*
X127944571Y-106783238D01*
X127849333Y-106878476D01*
X127754095Y-106926095D01*
X128706476Y-106735619D02*
X128754095Y-106688000D01*
X128849333Y-106640381D01*
X129087429Y-106640381D01*
X129182667Y-106688000D01*
X129230286Y-106735619D01*
X129277905Y-106830857D01*
X129277905Y-106926095D01*
X129230286Y-107068952D01*
X128658857Y-107640381D01*
X129277905Y-107640381D01*
X111593334Y-129357381D02*
X111260000Y-128881190D01*
X111021905Y-129357381D02*
X111021905Y-128357381D01*
X111402858Y-128357381D01*
X111498096Y-128405000D01*
X111545715Y-128452619D01*
X111593334Y-128547857D01*
X111593334Y-128690714D01*
X111545715Y-128785952D01*
X111498096Y-128833571D01*
X111402858Y-128881190D01*
X111021905Y-128881190D01*
X112164762Y-128785952D02*
X112069524Y-128738333D01*
X112021905Y-128690714D01*
X111974286Y-128595476D01*
X111974286Y-128547857D01*
X112021905Y-128452619D01*
X112069524Y-128405000D01*
X112164762Y-128357381D01*
X112355239Y-128357381D01*
X112450477Y-128405000D01*
X112498096Y-128452619D01*
X112545715Y-128547857D01*
X112545715Y-128595476D01*
X112498096Y-128690714D01*
X112450477Y-128738333D01*
X112355239Y-128785952D01*
X112164762Y-128785952D01*
X112069524Y-128833571D01*
X112021905Y-128881190D01*
X111974286Y-128976429D01*
X111974286Y-129166905D01*
X112021905Y-129262143D01*
X112069524Y-129309762D01*
X112164762Y-129357381D01*
X112355239Y-129357381D01*
X112450477Y-129309762D01*
X112498096Y-129262143D01*
X112545715Y-129166905D01*
X112545715Y-128976429D01*
X112498096Y-128881190D01*
X112450477Y-128833571D01*
X112355239Y-128785952D01*
X139533334Y-136342381D02*
X139200000Y-135866190D01*
X138961905Y-136342381D02*
X138961905Y-135342381D01*
X139342858Y-135342381D01*
X139438096Y-135390000D01*
X139485715Y-135437619D01*
X139533334Y-135532857D01*
X139533334Y-135675714D01*
X139485715Y-135770952D01*
X139438096Y-135818571D01*
X139342858Y-135866190D01*
X138961905Y-135866190D01*
X140009524Y-136342381D02*
X140200000Y-136342381D01*
X140295239Y-136294762D01*
X140342858Y-136247143D01*
X140438096Y-136104286D01*
X140485715Y-135913810D01*
X140485715Y-135532857D01*
X140438096Y-135437619D01*
X140390477Y-135390000D01*
X140295239Y-135342381D01*
X140104762Y-135342381D01*
X140009524Y-135390000D01*
X139961905Y-135437619D01*
X139914286Y-135532857D01*
X139914286Y-135770952D01*
X139961905Y-135866190D01*
X140009524Y-135913810D01*
X140104762Y-135961429D01*
X140295239Y-135961429D01*
X140390477Y-135913810D01*
X140438096Y-135866190D01*
X140485715Y-135770952D01*
X113387143Y-140342857D02*
X113434762Y-140390476D01*
X113482381Y-140533333D01*
X113482381Y-140628571D01*
X113434762Y-140771429D01*
X113339524Y-140866667D01*
X113244286Y-140914286D01*
X113053810Y-140961905D01*
X112910952Y-140961905D01*
X112720476Y-140914286D01*
X112625238Y-140866667D01*
X112530000Y-140771429D01*
X112482381Y-140628571D01*
X112482381Y-140533333D01*
X112530000Y-140390476D01*
X112577619Y-140342857D01*
X113482381Y-139390476D02*
X113482381Y-139961905D01*
X113482381Y-139676191D02*
X112482381Y-139676191D01*
X112625238Y-139771429D01*
X112720476Y-139866667D01*
X112768095Y-139961905D01*
X112482381Y-139057143D02*
X112482381Y-138438095D01*
X112863333Y-138771429D01*
X112863333Y-138628571D01*
X112910952Y-138533333D01*
X112958571Y-138485714D01*
X113053810Y-138438095D01*
X113291905Y-138438095D01*
X113387143Y-138485714D01*
X113434762Y-138533333D01*
X113482381Y-138628571D01*
X113482381Y-138914286D01*
X113434762Y-139009524D01*
X113387143Y-139057143D01*
X108458095Y-133437381D02*
X108458095Y-134246905D01*
X108505714Y-134342143D01*
X108553333Y-134389762D01*
X108648571Y-134437381D01*
X108839048Y-134437381D01*
X108934286Y-134389762D01*
X108981905Y-134342143D01*
X109029524Y-134246905D01*
X109029524Y-133437381D01*
X109981905Y-133437381D02*
X109505714Y-133437381D01*
X109458095Y-133913571D01*
X109505714Y-133865952D01*
X109600952Y-133818333D01*
X109839048Y-133818333D01*
X109934286Y-133865952D01*
X109981905Y-133913571D01*
X110029524Y-134008810D01*
X110029524Y-134246905D01*
X109981905Y-134342143D01*
X109934286Y-134389762D01*
X109839048Y-134437381D01*
X109600952Y-134437381D01*
X109505714Y-134389762D01*
X109458095Y-134342143D01*
X142597143Y-102992857D02*
X142644762Y-103040476D01*
X142692381Y-103183333D01*
X142692381Y-103278571D01*
X142644762Y-103421429D01*
X142549524Y-103516667D01*
X142454286Y-103564286D01*
X142263810Y-103611905D01*
X142120952Y-103611905D01*
X141930476Y-103564286D01*
X141835238Y-103516667D01*
X141740000Y-103421429D01*
X141692381Y-103278571D01*
X141692381Y-103183333D01*
X141740000Y-103040476D01*
X141787619Y-102992857D01*
X142692381Y-102040476D02*
X142692381Y-102611905D01*
X142692381Y-102326191D02*
X141692381Y-102326191D01*
X141835238Y-102421429D01*
X141930476Y-102516667D01*
X141978095Y-102611905D01*
X142025714Y-101183333D02*
X142692381Y-101183333D01*
X141644762Y-101421429D02*
X142359048Y-101659524D01*
X142359048Y-101040476D01*
X140962143Y-108307143D02*
X140914524Y-108354762D01*
X140771667Y-108402381D01*
X140676429Y-108402381D01*
X140533571Y-108354762D01*
X140438333Y-108259524D01*
X140390714Y-108164286D01*
X140343095Y-107973810D01*
X140343095Y-107830952D01*
X140390714Y-107640476D01*
X140438333Y-107545238D01*
X140533571Y-107450000D01*
X140676429Y-107402381D01*
X140771667Y-107402381D01*
X140914524Y-107450000D01*
X140962143Y-107497619D01*
X141914524Y-108402381D02*
X141343095Y-108402381D01*
X141628809Y-108402381D02*
X141628809Y-107402381D01*
X141533571Y-107545238D01*
X141438333Y-107640476D01*
X141343095Y-107688095D01*
X142819286Y-107402381D02*
X142343095Y-107402381D01*
X142295476Y-107878571D01*
X142343095Y-107830952D01*
X142438333Y-107783333D01*
X142676429Y-107783333D01*
X142771667Y-107830952D01*
X142819286Y-107878571D01*
X142866905Y-107973810D01*
X142866905Y-108211905D01*
X142819286Y-108307143D01*
X142771667Y-108354762D01*
X142676429Y-108402381D01*
X142438333Y-108402381D01*
X142343095Y-108354762D01*
X142295476Y-108307143D01*
X100861905Y-131262381D02*
X100861905Y-130262381D01*
X101242858Y-130262381D01*
X101338096Y-130310000D01*
X101385715Y-130357619D01*
X101433334Y-130452857D01*
X101433334Y-130595714D01*
X101385715Y-130690952D01*
X101338096Y-130738571D01*
X101242858Y-130786190D01*
X100861905Y-130786190D01*
X102004762Y-130690952D02*
X101909524Y-130643333D01*
X101861905Y-130595714D01*
X101814286Y-130500476D01*
X101814286Y-130452857D01*
X101861905Y-130357619D01*
X101909524Y-130310000D01*
X102004762Y-130262381D01*
X102195239Y-130262381D01*
X102290477Y-130310000D01*
X102338096Y-130357619D01*
X102385715Y-130452857D01*
X102385715Y-130500476D01*
X102338096Y-130595714D01*
X102290477Y-130643333D01*
X102195239Y-130690952D01*
X102004762Y-130690952D01*
X101909524Y-130738571D01*
X101861905Y-130786190D01*
X101814286Y-130881429D01*
X101814286Y-131071905D01*
X101861905Y-131167143D01*
X101909524Y-131214762D01*
X102004762Y-131262381D01*
X102195239Y-131262381D01*
X102290477Y-131214762D01*
X102338096Y-131167143D01*
X102385715Y-131071905D01*
X102385715Y-130881429D01*
X102338096Y-130786190D01*
X102290477Y-130738571D01*
X102195239Y-130690952D01*
X126182381Y-142343095D02*
X125182381Y-142343095D01*
X125182381Y-141962142D01*
X125230000Y-141866904D01*
X125277619Y-141819285D01*
X125372857Y-141771666D01*
X125515714Y-141771666D01*
X125610952Y-141819285D01*
X125658571Y-141866904D01*
X125706190Y-141962142D01*
X125706190Y-142343095D01*
X126182381Y-141295476D02*
X126182381Y-141105000D01*
X126134762Y-141009761D01*
X126087143Y-140962142D01*
X125944286Y-140866904D01*
X125753810Y-140819285D01*
X125372857Y-140819285D01*
X125277619Y-140866904D01*
X125230000Y-140914523D01*
X125182381Y-141009761D01*
X125182381Y-141200238D01*
X125230000Y-141295476D01*
X125277619Y-141343095D01*
X125372857Y-141390714D01*
X125610952Y-141390714D01*
X125706190Y-141343095D01*
X125753810Y-141295476D01*
X125801429Y-141200238D01*
X125801429Y-141009761D01*
X125753810Y-140914523D01*
X125706190Y-140866904D01*
X125610952Y-140819285D01*
X105283095Y-130262381D02*
X105283095Y-131071905D01*
X105330714Y-131167143D01*
X105378333Y-131214762D01*
X105473571Y-131262381D01*
X105664048Y-131262381D01*
X105759286Y-131214762D01*
X105806905Y-131167143D01*
X105854524Y-131071905D01*
X105854524Y-130262381D01*
X106759286Y-130595714D02*
X106759286Y-131262381D01*
X106521190Y-130214762D02*
X106283095Y-130929048D01*
X106902143Y-130929048D01*
X107767381Y-138533095D02*
X106767381Y-138533095D01*
X106767381Y-138295000D01*
X106815000Y-138152142D01*
X106910238Y-138056904D01*
X107005476Y-138009285D01*
X107195952Y-137961666D01*
X107338810Y-137961666D01*
X107529286Y-138009285D01*
X107624524Y-138056904D01*
X107719762Y-138152142D01*
X107767381Y-138295000D01*
X107767381Y-138533095D01*
X106767381Y-137628333D02*
X106767381Y-137009285D01*
X107148333Y-137342619D01*
X107148333Y-137199761D01*
X107195952Y-137104523D01*
X107243571Y-137056904D01*
X107338810Y-137009285D01*
X107576905Y-137009285D01*
X107672143Y-137056904D01*
X107719762Y-137104523D01*
X107767381Y-137199761D01*
X107767381Y-137485476D01*
X107719762Y-137580714D01*
X107672143Y-137628333D01*
X145311905Y-149522381D02*
X145311905Y-148522381D01*
X145550000Y-148522381D01*
X145692858Y-148570000D01*
X145788096Y-148665238D01*
X145835715Y-148760476D01*
X145883334Y-148950952D01*
X145883334Y-149093810D01*
X145835715Y-149284286D01*
X145788096Y-149379524D01*
X145692858Y-149474762D01*
X145550000Y-149522381D01*
X145311905Y-149522381D01*
X146835715Y-149522381D02*
X146264286Y-149522381D01*
X146550000Y-149522381D02*
X146550000Y-148522381D01*
X146454762Y-148665238D01*
X146359524Y-148760476D01*
X146264286Y-148808095D01*
X145311905Y-101417381D02*
X145311905Y-100417381D01*
X145550000Y-100417381D01*
X145692858Y-100465000D01*
X145788096Y-100560238D01*
X145835715Y-100655476D01*
X145883334Y-100845952D01*
X145883334Y-100988810D01*
X145835715Y-101179286D01*
X145788096Y-101274524D01*
X145692858Y-101369762D01*
X145550000Y-101417381D01*
X145311905Y-101417381D01*
X146264286Y-100512619D02*
X146311905Y-100465000D01*
X146407143Y-100417381D01*
X146645239Y-100417381D01*
X146740477Y-100465000D01*
X146788096Y-100512619D01*
X146835715Y-100607857D01*
X146835715Y-100703095D01*
X146788096Y-100845952D01*
X146216667Y-101417381D01*
X146835715Y-101417381D01*
X112387143Y-142057381D02*
X112053809Y-141581190D01*
X111815714Y-142057381D02*
X111815714Y-141057381D01*
X112196667Y-141057381D01*
X112291905Y-141105000D01*
X112339524Y-141152619D01*
X112387143Y-141247857D01*
X112387143Y-141390714D01*
X112339524Y-141485952D01*
X112291905Y-141533571D01*
X112196667Y-141581190D01*
X111815714Y-141581190D01*
X113339524Y-142057381D02*
X112768095Y-142057381D01*
X113053809Y-142057381D02*
X113053809Y-141057381D01*
X112958571Y-141200238D01*
X112863333Y-141295476D01*
X112768095Y-141343095D01*
X113958571Y-141057381D02*
X114053810Y-141057381D01*
X114149048Y-141105000D01*
X114196667Y-141152619D01*
X114244286Y-141247857D01*
X114291905Y-141438333D01*
X114291905Y-141676429D01*
X114244286Y-141866905D01*
X114196667Y-141962143D01*
X114149048Y-142009762D01*
X114053810Y-142057381D01*
X113958571Y-142057381D01*
X113863333Y-142009762D01*
X113815714Y-141962143D01*
X113768095Y-141866905D01*
X113720476Y-141676429D01*
X113720476Y-141438333D01*
X113768095Y-141247857D01*
X113815714Y-141152619D01*
X113863333Y-141105000D01*
X113958571Y-141057381D01*
X144137143Y-145867381D02*
X143803809Y-145391190D01*
X143565714Y-145867381D02*
X143565714Y-144867381D01*
X143946667Y-144867381D01*
X144041905Y-144915000D01*
X144089524Y-144962619D01*
X144137143Y-145057857D01*
X144137143Y-145200714D01*
X144089524Y-145295952D01*
X144041905Y-145343571D01*
X143946667Y-145391190D01*
X143565714Y-145391190D01*
X145089524Y-145867381D02*
X144518095Y-145867381D01*
X144803809Y-145867381D02*
X144803809Y-144867381D01*
X144708571Y-145010238D01*
X144613333Y-145105476D01*
X144518095Y-145153095D01*
X146041905Y-145867381D02*
X145470476Y-145867381D01*
X145756190Y-145867381D02*
X145756190Y-144867381D01*
X145660952Y-145010238D01*
X145565714Y-145105476D01*
X145470476Y-145153095D01*
X134442381Y-111767857D02*
X133966190Y-112101191D01*
X134442381Y-112339286D02*
X133442381Y-112339286D01*
X133442381Y-111958333D01*
X133490000Y-111863095D01*
X133537619Y-111815476D01*
X133632857Y-111767857D01*
X133775714Y-111767857D01*
X133870952Y-111815476D01*
X133918571Y-111863095D01*
X133966190Y-111958333D01*
X133966190Y-112339286D01*
X134442381Y-110815476D02*
X134442381Y-111386905D01*
X134442381Y-111101191D02*
X133442381Y-111101191D01*
X133585238Y-111196429D01*
X133680476Y-111291667D01*
X133728095Y-111386905D01*
X133537619Y-110434524D02*
X133490000Y-110386905D01*
X133442381Y-110291667D01*
X133442381Y-110053571D01*
X133490000Y-109958333D01*
X133537619Y-109910714D01*
X133632857Y-109863095D01*
X133728095Y-109863095D01*
X133870952Y-109910714D01*
X134442381Y-110482143D01*
X134442381Y-109863095D01*
M02*
