G04 #@! TF.FileFunction,Soldermask,Bot*
%FSLAX46Y46*%
G04 Gerber Fmt 4.6, Leading zero omitted, Abs format (unit mm)*
G04 Created by KiCad (PCBNEW 0.201602101416+6546~42~ubuntu14.04.1-product) date Thu 11 Feb 2016 08:58:18 AM CET*
%MOMM*%
G01*
G04 APERTURE LIST*
%ADD10C,0.100000*%
%ADD11O,1.350000X1.650000*%
%ADD12O,1.950000X1.400000*%
%ADD13R,2.127200X2.127200*%
%ADD14O,2.127200X2.127200*%
%ADD15R,2.432000X2.432000*%
%ADD16O,2.432000X2.432000*%
%ADD17C,3.900000*%
G04 APERTURE END LIST*
D10*
D11*
X104432540Y-121959100D03*
X104432540Y-126959100D03*
D12*
X101732540Y-120959100D03*
X101732540Y-127959100D03*
D13*
X116840000Y-105410000D03*
D14*
X116840000Y-102870000D03*
X114300000Y-105410000D03*
X114300000Y-102870000D03*
X111760000Y-105410000D03*
X111760000Y-102870000D03*
X109220000Y-105410000D03*
X109220000Y-102870000D03*
X106680000Y-105410000D03*
X106680000Y-102870000D03*
X104140000Y-105410000D03*
X104140000Y-102870000D03*
D13*
X139700000Y-105410000D03*
D14*
X139700000Y-102870000D03*
X137160000Y-105410000D03*
X137160000Y-102870000D03*
X134620000Y-105410000D03*
X134620000Y-102870000D03*
X132080000Y-105410000D03*
X132080000Y-102870000D03*
X129540000Y-105410000D03*
X129540000Y-102870000D03*
X127000000Y-105410000D03*
X127000000Y-102870000D03*
D13*
X144780000Y-119380000D03*
D14*
X147320000Y-119380000D03*
X144780000Y-116840000D03*
X147320000Y-116840000D03*
X144780000Y-114300000D03*
X147320000Y-114300000D03*
X144780000Y-111760000D03*
X147320000Y-111760000D03*
X144780000Y-109220000D03*
X147320000Y-109220000D03*
X144780000Y-106680000D03*
X147320000Y-106680000D03*
D13*
X144780000Y-142240000D03*
D14*
X147320000Y-142240000D03*
X144780000Y-139700000D03*
X147320000Y-139700000D03*
X144780000Y-137160000D03*
X147320000Y-137160000D03*
X144780000Y-134620000D03*
X147320000Y-134620000D03*
X144780000Y-132080000D03*
X147320000Y-132080000D03*
X144780000Y-129540000D03*
X147320000Y-129540000D03*
D13*
X127000000Y-144780000D03*
D14*
X127000000Y-147320000D03*
X129540000Y-144780000D03*
X129540000Y-147320000D03*
X132080000Y-144780000D03*
X132080000Y-147320000D03*
X134620000Y-144780000D03*
X134620000Y-147320000D03*
X137160000Y-144780000D03*
X137160000Y-147320000D03*
X139700000Y-144780000D03*
X139700000Y-147320000D03*
D13*
X104140000Y-144780000D03*
D14*
X104140000Y-147320000D03*
X106680000Y-144780000D03*
X106680000Y-147320000D03*
X109220000Y-144780000D03*
X109220000Y-147320000D03*
X111760000Y-144780000D03*
X111760000Y-147320000D03*
X114300000Y-144780000D03*
X114300000Y-147320000D03*
X116840000Y-144780000D03*
X116840000Y-147320000D03*
D13*
X102235000Y-133350000D03*
D14*
X104775000Y-133350000D03*
X102235000Y-135890000D03*
X104775000Y-135890000D03*
X102235000Y-138430000D03*
X104775000Y-138430000D03*
X102235000Y-140970000D03*
X104775000Y-140970000D03*
D15*
X120650000Y-141605000D03*
D16*
X123190000Y-141605000D03*
D17*
X146050000Y-124460000D03*
X121920000Y-146050000D03*
X121920000Y-104140000D03*
M02*
