G04 #@! TF.FileFunction,Soldermask,Top*
%FSLAX46Y46*%
G04 Gerber Fmt 4.6, Leading zero omitted, Abs format (unit mm)*
G04 Created by KiCad (PCBNEW 0.201602101416+6546~42~ubuntu14.04.1-product) date Thu 11 Feb 2016 08:58:18 AM CET*
%MOMM*%
G01*
G04 APERTURE LIST*
%ADD10C,0.100000*%
%ADD11R,1.150000X1.200000*%
%ADD12R,1.750000X0.800000*%
%ADD13O,1.350000X1.650000*%
%ADD14O,1.950000X1.400000*%
%ADD15R,0.650000X1.700000*%
%ADD16R,1.700000X0.650000*%
%ADD17R,1.200000X1.150000*%
%ADD18R,1.000000X1.100000*%
%ADD19R,0.900000X1.300000*%
%ADD20R,0.908000X1.543000*%
%ADD21R,2.127200X2.127200*%
%ADD22O,2.127200X2.127200*%
%ADD23R,1.290000X0.820000*%
%ADD24R,1.240000X1.340000*%
%ADD25R,2.432000X2.432000*%
%ADD26O,2.432000X2.432000*%
%ADD27R,1.450000X1.050000*%
%ADD28C,3.900000*%
%ADD29R,1.598880X1.598880*%
%ADD30R,1.300000X0.900000*%
G04 APERTURE END LIST*
D10*
D11*
X115570000Y-132195000D03*
X115570000Y-130695000D03*
D10*
G36*
X142465169Y-122144226D02*
X142960143Y-122639200D01*
X141581285Y-124018058D01*
X141086311Y-123523084D01*
X142465169Y-122144226D01*
X142465169Y-122144226D01*
G37*
G36*
X142111616Y-121790672D02*
X142606590Y-122285646D01*
X141227732Y-123664504D01*
X140732758Y-123169530D01*
X142111616Y-121790672D01*
X142111616Y-121790672D01*
G37*
G36*
X141758062Y-121437119D02*
X142253036Y-121932093D01*
X140874178Y-123310951D01*
X140379204Y-122815977D01*
X141758062Y-121437119D01*
X141758062Y-121437119D01*
G37*
G36*
X141404509Y-121083566D02*
X141899483Y-121578540D01*
X140520625Y-122957398D01*
X140025651Y-122462424D01*
X141404509Y-121083566D01*
X141404509Y-121083566D01*
G37*
G36*
X141050955Y-120730012D02*
X141545929Y-121224986D01*
X140167071Y-122603844D01*
X139672097Y-122108870D01*
X141050955Y-120730012D01*
X141050955Y-120730012D01*
G37*
G36*
X140697402Y-120376459D02*
X141192376Y-120871433D01*
X139813518Y-122250291D01*
X139318544Y-121755317D01*
X140697402Y-120376459D01*
X140697402Y-120376459D01*
G37*
G36*
X140343849Y-120022905D02*
X140838823Y-120517879D01*
X139459965Y-121896737D01*
X138964991Y-121401763D01*
X140343849Y-120022905D01*
X140343849Y-120022905D01*
G37*
G36*
X139990295Y-119669352D02*
X140485269Y-120164326D01*
X139106411Y-121543184D01*
X138611437Y-121048210D01*
X139990295Y-119669352D01*
X139990295Y-119669352D01*
G37*
G36*
X139636742Y-119315799D02*
X140131716Y-119810773D01*
X138752858Y-121189631D01*
X138257884Y-120694657D01*
X139636742Y-119315799D01*
X139636742Y-119315799D01*
G37*
G36*
X139283188Y-118962245D02*
X139778162Y-119457219D01*
X138399304Y-120836077D01*
X137904330Y-120341103D01*
X139283188Y-118962245D01*
X139283188Y-118962245D01*
G37*
G36*
X138929635Y-118608692D02*
X139424609Y-119103666D01*
X138045751Y-120482524D01*
X137550777Y-119987550D01*
X138929635Y-118608692D01*
X138929635Y-118608692D01*
G37*
G36*
X138576082Y-118255138D02*
X139071056Y-118750112D01*
X137692198Y-120128970D01*
X137197224Y-119633996D01*
X138576082Y-118255138D01*
X138576082Y-118255138D01*
G37*
G36*
X138222528Y-117901585D02*
X138717502Y-118396559D01*
X137338644Y-119775417D01*
X136843670Y-119280443D01*
X138222528Y-117901585D01*
X138222528Y-117901585D01*
G37*
G36*
X137868975Y-117548032D02*
X138363949Y-118043006D01*
X136985091Y-119421864D01*
X136490117Y-118926890D01*
X137868975Y-117548032D01*
X137868975Y-117548032D01*
G37*
G36*
X137515421Y-117194478D02*
X138010395Y-117689452D01*
X136631537Y-119068310D01*
X136136563Y-118573336D01*
X137515421Y-117194478D01*
X137515421Y-117194478D01*
G37*
G36*
X137161868Y-116840925D02*
X137656842Y-117335899D01*
X136277984Y-118714757D01*
X135783010Y-118219783D01*
X137161868Y-116840925D01*
X137161868Y-116840925D01*
G37*
G36*
X136808315Y-116487372D02*
X137303289Y-116982346D01*
X135924431Y-118361204D01*
X135429457Y-117866230D01*
X136808315Y-116487372D01*
X136808315Y-116487372D01*
G37*
G36*
X136454761Y-116133818D02*
X136949735Y-116628792D01*
X135570877Y-118007650D01*
X135075903Y-117512676D01*
X136454761Y-116133818D01*
X136454761Y-116133818D01*
G37*
G36*
X136101208Y-115780265D02*
X136596182Y-116275239D01*
X135217324Y-117654097D01*
X134722350Y-117159123D01*
X136101208Y-115780265D01*
X136101208Y-115780265D01*
G37*
G36*
X135747654Y-115426711D02*
X136242628Y-115921685D01*
X134863770Y-117300543D01*
X134368796Y-116805569D01*
X135747654Y-115426711D01*
X135747654Y-115426711D01*
G37*
G36*
X135394101Y-115073158D02*
X135889075Y-115568132D01*
X134510217Y-116946990D01*
X134015243Y-116452016D01*
X135394101Y-115073158D01*
X135394101Y-115073158D01*
G37*
G36*
X135040548Y-114719605D02*
X135535522Y-115214579D01*
X134156664Y-116593437D01*
X133661690Y-116098463D01*
X135040548Y-114719605D01*
X135040548Y-114719605D01*
G37*
G36*
X134686994Y-114366051D02*
X135181968Y-114861025D01*
X133803110Y-116239883D01*
X133308136Y-115744909D01*
X134686994Y-114366051D01*
X134686994Y-114366051D01*
G37*
G36*
X134333441Y-114012498D02*
X134828415Y-114507472D01*
X133449557Y-115886330D01*
X132954583Y-115391356D01*
X134333441Y-114012498D01*
X134333441Y-114012498D01*
G37*
G36*
X133979888Y-113658944D02*
X134474862Y-114153918D01*
X133096004Y-115532776D01*
X132601030Y-115037802D01*
X133979888Y-113658944D01*
X133979888Y-113658944D01*
G37*
G36*
X133626334Y-113305391D02*
X134121308Y-113800365D01*
X132742450Y-115179223D01*
X132247476Y-114684249D01*
X133626334Y-113305391D01*
X133626334Y-113305391D01*
G37*
G36*
X133272781Y-112951838D02*
X133767755Y-113446812D01*
X132388897Y-114825670D01*
X131893923Y-114330696D01*
X133272781Y-112951838D01*
X133272781Y-112951838D01*
G37*
G36*
X132919227Y-112598284D02*
X133414201Y-113093258D01*
X132035343Y-114472116D01*
X131540369Y-113977142D01*
X132919227Y-112598284D01*
X132919227Y-112598284D01*
G37*
G36*
X132565674Y-112244731D02*
X133060648Y-112739705D01*
X131681790Y-114118563D01*
X131186816Y-113623589D01*
X132565674Y-112244731D01*
X132565674Y-112244731D01*
G37*
G36*
X132212121Y-111891177D02*
X132707095Y-112386151D01*
X131328237Y-113765009D01*
X130833263Y-113270035D01*
X132212121Y-111891177D01*
X132212121Y-111891177D01*
G37*
G36*
X131858567Y-111537624D02*
X132353541Y-112032598D01*
X130974683Y-113411456D01*
X130479709Y-112916482D01*
X131858567Y-111537624D01*
X131858567Y-111537624D01*
G37*
G36*
X131505014Y-111184071D02*
X131999988Y-111679045D01*
X130621130Y-113057903D01*
X130126156Y-112562929D01*
X131505014Y-111184071D01*
X131505014Y-111184071D01*
G37*
G36*
X131151460Y-110830517D02*
X131646434Y-111325491D01*
X130267576Y-112704349D01*
X129772602Y-112209375D01*
X131151460Y-110830517D01*
X131151460Y-110830517D01*
G37*
G36*
X130797907Y-110476964D02*
X131292881Y-110971938D01*
X129914023Y-112350796D01*
X129419049Y-111855822D01*
X130797907Y-110476964D01*
X130797907Y-110476964D01*
G37*
G36*
X130444354Y-110123410D02*
X130939328Y-110618384D01*
X129560470Y-111997242D01*
X129065496Y-111502268D01*
X130444354Y-110123410D01*
X130444354Y-110123410D01*
G37*
G36*
X130090800Y-109769857D02*
X130585774Y-110264831D01*
X129206916Y-111643689D01*
X128711942Y-111148715D01*
X130090800Y-109769857D01*
X130090800Y-109769857D01*
G37*
G36*
X125954226Y-110264831D02*
X126449200Y-109769857D01*
X127828058Y-111148715D01*
X127333084Y-111643689D01*
X125954226Y-110264831D01*
X125954226Y-110264831D01*
G37*
G36*
X125600672Y-110618384D02*
X126095646Y-110123410D01*
X127474504Y-111502268D01*
X126979530Y-111997242D01*
X125600672Y-110618384D01*
X125600672Y-110618384D01*
G37*
G36*
X125247119Y-110971938D02*
X125742093Y-110476964D01*
X127120951Y-111855822D01*
X126625977Y-112350796D01*
X125247119Y-110971938D01*
X125247119Y-110971938D01*
G37*
G36*
X124893566Y-111325491D02*
X125388540Y-110830517D01*
X126767398Y-112209375D01*
X126272424Y-112704349D01*
X124893566Y-111325491D01*
X124893566Y-111325491D01*
G37*
G36*
X124540012Y-111679045D02*
X125034986Y-111184071D01*
X126413844Y-112562929D01*
X125918870Y-113057903D01*
X124540012Y-111679045D01*
X124540012Y-111679045D01*
G37*
G36*
X124186459Y-112032598D02*
X124681433Y-111537624D01*
X126060291Y-112916482D01*
X125565317Y-113411456D01*
X124186459Y-112032598D01*
X124186459Y-112032598D01*
G37*
G36*
X123832905Y-112386151D02*
X124327879Y-111891177D01*
X125706737Y-113270035D01*
X125211763Y-113765009D01*
X123832905Y-112386151D01*
X123832905Y-112386151D01*
G37*
G36*
X123479352Y-112739705D02*
X123974326Y-112244731D01*
X125353184Y-113623589D01*
X124858210Y-114118563D01*
X123479352Y-112739705D01*
X123479352Y-112739705D01*
G37*
G36*
X123125799Y-113093258D02*
X123620773Y-112598284D01*
X124999631Y-113977142D01*
X124504657Y-114472116D01*
X123125799Y-113093258D01*
X123125799Y-113093258D01*
G37*
G36*
X122772245Y-113446812D02*
X123267219Y-112951838D01*
X124646077Y-114330696D01*
X124151103Y-114825670D01*
X122772245Y-113446812D01*
X122772245Y-113446812D01*
G37*
G36*
X122418692Y-113800365D02*
X122913666Y-113305391D01*
X124292524Y-114684249D01*
X123797550Y-115179223D01*
X122418692Y-113800365D01*
X122418692Y-113800365D01*
G37*
G36*
X122065138Y-114153918D02*
X122560112Y-113658944D01*
X123938970Y-115037802D01*
X123443996Y-115532776D01*
X122065138Y-114153918D01*
X122065138Y-114153918D01*
G37*
G36*
X121711585Y-114507472D02*
X122206559Y-114012498D01*
X123585417Y-115391356D01*
X123090443Y-115886330D01*
X121711585Y-114507472D01*
X121711585Y-114507472D01*
G37*
G36*
X121358032Y-114861025D02*
X121853006Y-114366051D01*
X123231864Y-115744909D01*
X122736890Y-116239883D01*
X121358032Y-114861025D01*
X121358032Y-114861025D01*
G37*
G36*
X121004478Y-115214579D02*
X121499452Y-114719605D01*
X122878310Y-116098463D01*
X122383336Y-116593437D01*
X121004478Y-115214579D01*
X121004478Y-115214579D01*
G37*
G36*
X120650925Y-115568132D02*
X121145899Y-115073158D01*
X122524757Y-116452016D01*
X122029783Y-116946990D01*
X120650925Y-115568132D01*
X120650925Y-115568132D01*
G37*
G36*
X120297372Y-115921685D02*
X120792346Y-115426711D01*
X122171204Y-116805569D01*
X121676230Y-117300543D01*
X120297372Y-115921685D01*
X120297372Y-115921685D01*
G37*
G36*
X119943818Y-116275239D02*
X120438792Y-115780265D01*
X121817650Y-117159123D01*
X121322676Y-117654097D01*
X119943818Y-116275239D01*
X119943818Y-116275239D01*
G37*
G36*
X119590265Y-116628792D02*
X120085239Y-116133818D01*
X121464097Y-117512676D01*
X120969123Y-118007650D01*
X119590265Y-116628792D01*
X119590265Y-116628792D01*
G37*
G36*
X119236711Y-116982346D02*
X119731685Y-116487372D01*
X121110543Y-117866230D01*
X120615569Y-118361204D01*
X119236711Y-116982346D01*
X119236711Y-116982346D01*
G37*
G36*
X118883158Y-117335899D02*
X119378132Y-116840925D01*
X120756990Y-118219783D01*
X120262016Y-118714757D01*
X118883158Y-117335899D01*
X118883158Y-117335899D01*
G37*
G36*
X118529605Y-117689452D02*
X119024579Y-117194478D01*
X120403437Y-118573336D01*
X119908463Y-119068310D01*
X118529605Y-117689452D01*
X118529605Y-117689452D01*
G37*
G36*
X118176051Y-118043006D02*
X118671025Y-117548032D01*
X120049883Y-118926890D01*
X119554909Y-119421864D01*
X118176051Y-118043006D01*
X118176051Y-118043006D01*
G37*
G36*
X117822498Y-118396559D02*
X118317472Y-117901585D01*
X119696330Y-119280443D01*
X119201356Y-119775417D01*
X117822498Y-118396559D01*
X117822498Y-118396559D01*
G37*
G36*
X117468944Y-118750112D02*
X117963918Y-118255138D01*
X119342776Y-119633996D01*
X118847802Y-120128970D01*
X117468944Y-118750112D01*
X117468944Y-118750112D01*
G37*
G36*
X117115391Y-119103666D02*
X117610365Y-118608692D01*
X118989223Y-119987550D01*
X118494249Y-120482524D01*
X117115391Y-119103666D01*
X117115391Y-119103666D01*
G37*
G36*
X116761838Y-119457219D02*
X117256812Y-118962245D01*
X118635670Y-120341103D01*
X118140696Y-120836077D01*
X116761838Y-119457219D01*
X116761838Y-119457219D01*
G37*
G36*
X116408284Y-119810773D02*
X116903258Y-119315799D01*
X118282116Y-120694657D01*
X117787142Y-121189631D01*
X116408284Y-119810773D01*
X116408284Y-119810773D01*
G37*
G36*
X116054731Y-120164326D02*
X116549705Y-119669352D01*
X117928563Y-121048210D01*
X117433589Y-121543184D01*
X116054731Y-120164326D01*
X116054731Y-120164326D01*
G37*
G36*
X115701177Y-120517879D02*
X116196151Y-120022905D01*
X117575009Y-121401763D01*
X117080035Y-121896737D01*
X115701177Y-120517879D01*
X115701177Y-120517879D01*
G37*
G36*
X115347624Y-120871433D02*
X115842598Y-120376459D01*
X117221456Y-121755317D01*
X116726482Y-122250291D01*
X115347624Y-120871433D01*
X115347624Y-120871433D01*
G37*
G36*
X114994071Y-121224986D02*
X115489045Y-120730012D01*
X116867903Y-122108870D01*
X116372929Y-122603844D01*
X114994071Y-121224986D01*
X114994071Y-121224986D01*
G37*
G36*
X114640517Y-121578540D02*
X115135491Y-121083566D01*
X116514349Y-122462424D01*
X116019375Y-122957398D01*
X114640517Y-121578540D01*
X114640517Y-121578540D01*
G37*
G36*
X114286964Y-121932093D02*
X114781938Y-121437119D01*
X116160796Y-122815977D01*
X115665822Y-123310951D01*
X114286964Y-121932093D01*
X114286964Y-121932093D01*
G37*
G36*
X113933410Y-122285646D02*
X114428384Y-121790672D01*
X115807242Y-123169530D01*
X115312268Y-123664504D01*
X113933410Y-122285646D01*
X113933410Y-122285646D01*
G37*
G36*
X113579857Y-122639200D02*
X114074831Y-122144226D01*
X115453689Y-123523084D01*
X114958715Y-124018058D01*
X113579857Y-122639200D01*
X113579857Y-122639200D01*
G37*
G36*
X114958715Y-124901942D02*
X115453689Y-125396916D01*
X114074831Y-126775774D01*
X113579857Y-126280800D01*
X114958715Y-124901942D01*
X114958715Y-124901942D01*
G37*
G36*
X115312268Y-125255496D02*
X115807242Y-125750470D01*
X114428384Y-127129328D01*
X113933410Y-126634354D01*
X115312268Y-125255496D01*
X115312268Y-125255496D01*
G37*
G36*
X115665822Y-125609049D02*
X116160796Y-126104023D01*
X114781938Y-127482881D01*
X114286964Y-126987907D01*
X115665822Y-125609049D01*
X115665822Y-125609049D01*
G37*
G36*
X116019375Y-125962602D02*
X116514349Y-126457576D01*
X115135491Y-127836434D01*
X114640517Y-127341460D01*
X116019375Y-125962602D01*
X116019375Y-125962602D01*
G37*
G36*
X116372929Y-126316156D02*
X116867903Y-126811130D01*
X115489045Y-128189988D01*
X114994071Y-127695014D01*
X116372929Y-126316156D01*
X116372929Y-126316156D01*
G37*
G36*
X116726482Y-126669709D02*
X117221456Y-127164683D01*
X115842598Y-128543541D01*
X115347624Y-128048567D01*
X116726482Y-126669709D01*
X116726482Y-126669709D01*
G37*
G36*
X117080035Y-127023263D02*
X117575009Y-127518237D01*
X116196151Y-128897095D01*
X115701177Y-128402121D01*
X117080035Y-127023263D01*
X117080035Y-127023263D01*
G37*
G36*
X117433589Y-127376816D02*
X117928563Y-127871790D01*
X116549705Y-129250648D01*
X116054731Y-128755674D01*
X117433589Y-127376816D01*
X117433589Y-127376816D01*
G37*
G36*
X117787142Y-127730369D02*
X118282116Y-128225343D01*
X116903258Y-129604201D01*
X116408284Y-129109227D01*
X117787142Y-127730369D01*
X117787142Y-127730369D01*
G37*
G36*
X118140696Y-128083923D02*
X118635670Y-128578897D01*
X117256812Y-129957755D01*
X116761838Y-129462781D01*
X118140696Y-128083923D01*
X118140696Y-128083923D01*
G37*
G36*
X118494249Y-128437476D02*
X118989223Y-128932450D01*
X117610365Y-130311308D01*
X117115391Y-129816334D01*
X118494249Y-128437476D01*
X118494249Y-128437476D01*
G37*
G36*
X118847802Y-128791030D02*
X119342776Y-129286004D01*
X117963918Y-130664862D01*
X117468944Y-130169888D01*
X118847802Y-128791030D01*
X118847802Y-128791030D01*
G37*
G36*
X119201356Y-129144583D02*
X119696330Y-129639557D01*
X118317472Y-131018415D01*
X117822498Y-130523441D01*
X119201356Y-129144583D01*
X119201356Y-129144583D01*
G37*
G36*
X119554909Y-129498136D02*
X120049883Y-129993110D01*
X118671025Y-131371968D01*
X118176051Y-130876994D01*
X119554909Y-129498136D01*
X119554909Y-129498136D01*
G37*
G36*
X119908463Y-129851690D02*
X120403437Y-130346664D01*
X119024579Y-131725522D01*
X118529605Y-131230548D01*
X119908463Y-129851690D01*
X119908463Y-129851690D01*
G37*
G36*
X120262016Y-130205243D02*
X120756990Y-130700217D01*
X119378132Y-132079075D01*
X118883158Y-131584101D01*
X120262016Y-130205243D01*
X120262016Y-130205243D01*
G37*
G36*
X120615569Y-130558796D02*
X121110543Y-131053770D01*
X119731685Y-132432628D01*
X119236711Y-131937654D01*
X120615569Y-130558796D01*
X120615569Y-130558796D01*
G37*
G36*
X120969123Y-130912350D02*
X121464097Y-131407324D01*
X120085239Y-132786182D01*
X119590265Y-132291208D01*
X120969123Y-130912350D01*
X120969123Y-130912350D01*
G37*
G36*
X121322676Y-131265903D02*
X121817650Y-131760877D01*
X120438792Y-133139735D01*
X119943818Y-132644761D01*
X121322676Y-131265903D01*
X121322676Y-131265903D01*
G37*
G36*
X121676230Y-131619457D02*
X122171204Y-132114431D01*
X120792346Y-133493289D01*
X120297372Y-132998315D01*
X121676230Y-131619457D01*
X121676230Y-131619457D01*
G37*
G36*
X122029783Y-131973010D02*
X122524757Y-132467984D01*
X121145899Y-133846842D01*
X120650925Y-133351868D01*
X122029783Y-131973010D01*
X122029783Y-131973010D01*
G37*
G36*
X122383336Y-132326563D02*
X122878310Y-132821537D01*
X121499452Y-134200395D01*
X121004478Y-133705421D01*
X122383336Y-132326563D01*
X122383336Y-132326563D01*
G37*
G36*
X122736890Y-132680117D02*
X123231864Y-133175091D01*
X121853006Y-134553949D01*
X121358032Y-134058975D01*
X122736890Y-132680117D01*
X122736890Y-132680117D01*
G37*
G36*
X123090443Y-133033670D02*
X123585417Y-133528644D01*
X122206559Y-134907502D01*
X121711585Y-134412528D01*
X123090443Y-133033670D01*
X123090443Y-133033670D01*
G37*
G36*
X123443996Y-133387224D02*
X123938970Y-133882198D01*
X122560112Y-135261056D01*
X122065138Y-134766082D01*
X123443996Y-133387224D01*
X123443996Y-133387224D01*
G37*
G36*
X123797550Y-133740777D02*
X124292524Y-134235751D01*
X122913666Y-135614609D01*
X122418692Y-135119635D01*
X123797550Y-133740777D01*
X123797550Y-133740777D01*
G37*
G36*
X124151103Y-134094330D02*
X124646077Y-134589304D01*
X123267219Y-135968162D01*
X122772245Y-135473188D01*
X124151103Y-134094330D01*
X124151103Y-134094330D01*
G37*
G36*
X124504657Y-134447884D02*
X124999631Y-134942858D01*
X123620773Y-136321716D01*
X123125799Y-135826742D01*
X124504657Y-134447884D01*
X124504657Y-134447884D01*
G37*
G36*
X124858210Y-134801437D02*
X125353184Y-135296411D01*
X123974326Y-136675269D01*
X123479352Y-136180295D01*
X124858210Y-134801437D01*
X124858210Y-134801437D01*
G37*
G36*
X125211763Y-135154991D02*
X125706737Y-135649965D01*
X124327879Y-137028823D01*
X123832905Y-136533849D01*
X125211763Y-135154991D01*
X125211763Y-135154991D01*
G37*
G36*
X125565317Y-135508544D02*
X126060291Y-136003518D01*
X124681433Y-137382376D01*
X124186459Y-136887402D01*
X125565317Y-135508544D01*
X125565317Y-135508544D01*
G37*
G36*
X125918870Y-135862097D02*
X126413844Y-136357071D01*
X125034986Y-137735929D01*
X124540012Y-137240955D01*
X125918870Y-135862097D01*
X125918870Y-135862097D01*
G37*
G36*
X126272424Y-136215651D02*
X126767398Y-136710625D01*
X125388540Y-138089483D01*
X124893566Y-137594509D01*
X126272424Y-136215651D01*
X126272424Y-136215651D01*
G37*
G36*
X126625977Y-136569204D02*
X127120951Y-137064178D01*
X125742093Y-138443036D01*
X125247119Y-137948062D01*
X126625977Y-136569204D01*
X126625977Y-136569204D01*
G37*
G36*
X126979530Y-136922758D02*
X127474504Y-137417732D01*
X126095646Y-138796590D01*
X125600672Y-138301616D01*
X126979530Y-136922758D01*
X126979530Y-136922758D01*
G37*
G36*
X127333084Y-137276311D02*
X127828058Y-137771285D01*
X126449200Y-139150143D01*
X125954226Y-138655169D01*
X127333084Y-137276311D01*
X127333084Y-137276311D01*
G37*
G36*
X128711942Y-137771285D02*
X129206916Y-137276311D01*
X130585774Y-138655169D01*
X130090800Y-139150143D01*
X128711942Y-137771285D01*
X128711942Y-137771285D01*
G37*
G36*
X129065496Y-137417732D02*
X129560470Y-136922758D01*
X130939328Y-138301616D01*
X130444354Y-138796590D01*
X129065496Y-137417732D01*
X129065496Y-137417732D01*
G37*
G36*
X129419049Y-137064178D02*
X129914023Y-136569204D01*
X131292881Y-137948062D01*
X130797907Y-138443036D01*
X129419049Y-137064178D01*
X129419049Y-137064178D01*
G37*
G36*
X129772602Y-136710625D02*
X130267576Y-136215651D01*
X131646434Y-137594509D01*
X131151460Y-138089483D01*
X129772602Y-136710625D01*
X129772602Y-136710625D01*
G37*
G36*
X130126156Y-136357071D02*
X130621130Y-135862097D01*
X131999988Y-137240955D01*
X131505014Y-137735929D01*
X130126156Y-136357071D01*
X130126156Y-136357071D01*
G37*
G36*
X130479709Y-136003518D02*
X130974683Y-135508544D01*
X132353541Y-136887402D01*
X131858567Y-137382376D01*
X130479709Y-136003518D01*
X130479709Y-136003518D01*
G37*
G36*
X130833263Y-135649965D02*
X131328237Y-135154991D01*
X132707095Y-136533849D01*
X132212121Y-137028823D01*
X130833263Y-135649965D01*
X130833263Y-135649965D01*
G37*
G36*
X131186816Y-135296411D02*
X131681790Y-134801437D01*
X133060648Y-136180295D01*
X132565674Y-136675269D01*
X131186816Y-135296411D01*
X131186816Y-135296411D01*
G37*
G36*
X131540369Y-134942858D02*
X132035343Y-134447884D01*
X133414201Y-135826742D01*
X132919227Y-136321716D01*
X131540369Y-134942858D01*
X131540369Y-134942858D01*
G37*
G36*
X131893923Y-134589304D02*
X132388897Y-134094330D01*
X133767755Y-135473188D01*
X133272781Y-135968162D01*
X131893923Y-134589304D01*
X131893923Y-134589304D01*
G37*
G36*
X132247476Y-134235751D02*
X132742450Y-133740777D01*
X134121308Y-135119635D01*
X133626334Y-135614609D01*
X132247476Y-134235751D01*
X132247476Y-134235751D01*
G37*
G36*
X132601030Y-133882198D02*
X133096004Y-133387224D01*
X134474862Y-134766082D01*
X133979888Y-135261056D01*
X132601030Y-133882198D01*
X132601030Y-133882198D01*
G37*
G36*
X132954583Y-133528644D02*
X133449557Y-133033670D01*
X134828415Y-134412528D01*
X134333441Y-134907502D01*
X132954583Y-133528644D01*
X132954583Y-133528644D01*
G37*
G36*
X133308136Y-133175091D02*
X133803110Y-132680117D01*
X135181968Y-134058975D01*
X134686994Y-134553949D01*
X133308136Y-133175091D01*
X133308136Y-133175091D01*
G37*
G36*
X133661690Y-132821537D02*
X134156664Y-132326563D01*
X135535522Y-133705421D01*
X135040548Y-134200395D01*
X133661690Y-132821537D01*
X133661690Y-132821537D01*
G37*
G36*
X134015243Y-132467984D02*
X134510217Y-131973010D01*
X135889075Y-133351868D01*
X135394101Y-133846842D01*
X134015243Y-132467984D01*
X134015243Y-132467984D01*
G37*
G36*
X134368796Y-132114431D02*
X134863770Y-131619457D01*
X136242628Y-132998315D01*
X135747654Y-133493289D01*
X134368796Y-132114431D01*
X134368796Y-132114431D01*
G37*
G36*
X134722350Y-131760877D02*
X135217324Y-131265903D01*
X136596182Y-132644761D01*
X136101208Y-133139735D01*
X134722350Y-131760877D01*
X134722350Y-131760877D01*
G37*
G36*
X135075903Y-131407324D02*
X135570877Y-130912350D01*
X136949735Y-132291208D01*
X136454761Y-132786182D01*
X135075903Y-131407324D01*
X135075903Y-131407324D01*
G37*
G36*
X135429457Y-131053770D02*
X135924431Y-130558796D01*
X137303289Y-131937654D01*
X136808315Y-132432628D01*
X135429457Y-131053770D01*
X135429457Y-131053770D01*
G37*
G36*
X135783010Y-130700217D02*
X136277984Y-130205243D01*
X137656842Y-131584101D01*
X137161868Y-132079075D01*
X135783010Y-130700217D01*
X135783010Y-130700217D01*
G37*
G36*
X136136563Y-130346664D02*
X136631537Y-129851690D01*
X138010395Y-131230548D01*
X137515421Y-131725522D01*
X136136563Y-130346664D01*
X136136563Y-130346664D01*
G37*
G36*
X136490117Y-129993110D02*
X136985091Y-129498136D01*
X138363949Y-130876994D01*
X137868975Y-131371968D01*
X136490117Y-129993110D01*
X136490117Y-129993110D01*
G37*
G36*
X136843670Y-129639557D02*
X137338644Y-129144583D01*
X138717502Y-130523441D01*
X138222528Y-131018415D01*
X136843670Y-129639557D01*
X136843670Y-129639557D01*
G37*
G36*
X137197224Y-129286004D02*
X137692198Y-128791030D01*
X139071056Y-130169888D01*
X138576082Y-130664862D01*
X137197224Y-129286004D01*
X137197224Y-129286004D01*
G37*
G36*
X137550777Y-128932450D02*
X138045751Y-128437476D01*
X139424609Y-129816334D01*
X138929635Y-130311308D01*
X137550777Y-128932450D01*
X137550777Y-128932450D01*
G37*
G36*
X137904330Y-128578897D02*
X138399304Y-128083923D01*
X139778162Y-129462781D01*
X139283188Y-129957755D01*
X137904330Y-128578897D01*
X137904330Y-128578897D01*
G37*
G36*
X138257884Y-128225343D02*
X138752858Y-127730369D01*
X140131716Y-129109227D01*
X139636742Y-129604201D01*
X138257884Y-128225343D01*
X138257884Y-128225343D01*
G37*
G36*
X138611437Y-127871790D02*
X139106411Y-127376816D01*
X140485269Y-128755674D01*
X139990295Y-129250648D01*
X138611437Y-127871790D01*
X138611437Y-127871790D01*
G37*
G36*
X138964991Y-127518237D02*
X139459965Y-127023263D01*
X140838823Y-128402121D01*
X140343849Y-128897095D01*
X138964991Y-127518237D01*
X138964991Y-127518237D01*
G37*
G36*
X139318544Y-127164683D02*
X139813518Y-126669709D01*
X141192376Y-128048567D01*
X140697402Y-128543541D01*
X139318544Y-127164683D01*
X139318544Y-127164683D01*
G37*
G36*
X139672097Y-126811130D02*
X140167071Y-126316156D01*
X141545929Y-127695014D01*
X141050955Y-128189988D01*
X139672097Y-126811130D01*
X139672097Y-126811130D01*
G37*
G36*
X140025651Y-126457576D02*
X140520625Y-125962602D01*
X141899483Y-127341460D01*
X141404509Y-127836434D01*
X140025651Y-126457576D01*
X140025651Y-126457576D01*
G37*
G36*
X140379204Y-126104023D02*
X140874178Y-125609049D01*
X142253036Y-126987907D01*
X141758062Y-127482881D01*
X140379204Y-126104023D01*
X140379204Y-126104023D01*
G37*
G36*
X140732758Y-125750470D02*
X141227732Y-125255496D01*
X142606590Y-126634354D01*
X142111616Y-127129328D01*
X140732758Y-125750470D01*
X140732758Y-125750470D01*
G37*
G36*
X141086311Y-125396916D02*
X141581285Y-124901942D01*
X142960143Y-126280800D01*
X142465169Y-126775774D01*
X141086311Y-125396916D01*
X141086311Y-125396916D01*
G37*
D12*
X104432540Y-123159100D03*
X104432540Y-123809100D03*
X104432540Y-124459100D03*
X104432540Y-125109100D03*
X104432540Y-125759100D03*
D13*
X104432540Y-121959100D03*
X104432540Y-126959100D03*
D14*
X101732540Y-120959100D03*
X101732540Y-127959100D03*
D15*
X103930000Y-118650000D03*
X104430000Y-118650000D03*
X104930000Y-118650000D03*
X105430000Y-118650000D03*
X105930000Y-118650000D03*
X106430000Y-118650000D03*
X106930000Y-118650000D03*
X107430000Y-118650000D03*
X107930000Y-118650000D03*
X108430000Y-118650000D03*
X108930000Y-118650000D03*
X109430000Y-118650000D03*
D16*
X111030000Y-117050000D03*
X111030000Y-116550000D03*
X111030000Y-116050000D03*
X111030000Y-115550000D03*
X111030000Y-115050000D03*
X111030000Y-114550000D03*
X111030000Y-114050000D03*
X111030000Y-113550000D03*
X111030000Y-113050000D03*
X111030000Y-112550000D03*
X111030000Y-112050000D03*
X111030000Y-111550000D03*
D15*
X109430000Y-109950000D03*
X108930000Y-109950000D03*
X108430000Y-109950000D03*
X107930000Y-109950000D03*
X107430000Y-109950000D03*
X106930000Y-109950000D03*
X106430000Y-109950000D03*
X105930000Y-109950000D03*
X105430000Y-109950000D03*
X104930000Y-109950000D03*
X104430000Y-109950000D03*
X103930000Y-109950000D03*
D16*
X102330000Y-111550000D03*
X102330000Y-112050000D03*
X102330000Y-112550000D03*
X102330000Y-113050000D03*
X102330000Y-113550000D03*
X102330000Y-114050000D03*
X102330000Y-114550000D03*
X102330000Y-115050000D03*
X102330000Y-115550000D03*
X102330000Y-116050000D03*
X102330000Y-116550000D03*
X102330000Y-117050000D03*
D17*
X137680000Y-111760000D03*
X139180000Y-111760000D03*
X137680000Y-114300000D03*
X139180000Y-114300000D03*
D18*
X122490000Y-139065000D03*
X123890000Y-139065000D03*
D19*
X137680000Y-109220000D03*
X139180000Y-109220000D03*
D20*
X118745000Y-114935000D03*
X117475000Y-114935000D03*
X116205000Y-114935000D03*
X114935000Y-114935000D03*
X114935000Y-108585000D03*
X116205000Y-108585000D03*
X117475000Y-108585000D03*
X118745000Y-108585000D03*
D19*
X103390000Y-107950000D03*
X104890000Y-107950000D03*
X108470000Y-127000000D03*
X109970000Y-127000000D03*
X109970000Y-121285000D03*
X108470000Y-121285000D03*
X109970000Y-125095000D03*
X108470000Y-125095000D03*
X120535000Y-108585000D03*
X122035000Y-108585000D03*
X109970000Y-123190000D03*
X108470000Y-123190000D03*
D21*
X116840000Y-105410000D03*
D22*
X116840000Y-102870000D03*
X114300000Y-105410000D03*
X114300000Y-102870000D03*
X111760000Y-105410000D03*
X111760000Y-102870000D03*
X109220000Y-105410000D03*
X109220000Y-102870000D03*
X106680000Y-105410000D03*
X106680000Y-102870000D03*
X104140000Y-105410000D03*
X104140000Y-102870000D03*
D21*
X139700000Y-105410000D03*
D22*
X139700000Y-102870000D03*
X137160000Y-105410000D03*
X137160000Y-102870000D03*
X134620000Y-105410000D03*
X134620000Y-102870000D03*
X132080000Y-105410000D03*
X132080000Y-102870000D03*
X129540000Y-105410000D03*
X129540000Y-102870000D03*
X127000000Y-105410000D03*
X127000000Y-102870000D03*
D21*
X144780000Y-119380000D03*
D22*
X147320000Y-119380000D03*
X144780000Y-116840000D03*
X147320000Y-116840000D03*
X144780000Y-114300000D03*
X147320000Y-114300000D03*
X144780000Y-111760000D03*
X147320000Y-111760000D03*
X144780000Y-109220000D03*
X147320000Y-109220000D03*
X144780000Y-106680000D03*
X147320000Y-106680000D03*
D21*
X144780000Y-142240000D03*
D22*
X147320000Y-142240000D03*
X144780000Y-139700000D03*
X147320000Y-139700000D03*
X144780000Y-137160000D03*
X147320000Y-137160000D03*
X144780000Y-134620000D03*
X147320000Y-134620000D03*
X144780000Y-132080000D03*
X147320000Y-132080000D03*
X144780000Y-129540000D03*
X147320000Y-129540000D03*
D21*
X127000000Y-144780000D03*
D22*
X127000000Y-147320000D03*
X129540000Y-144780000D03*
X129540000Y-147320000D03*
X132080000Y-144780000D03*
X132080000Y-147320000D03*
X134620000Y-144780000D03*
X134620000Y-147320000D03*
X137160000Y-144780000D03*
X137160000Y-147320000D03*
X139700000Y-144780000D03*
X139700000Y-147320000D03*
D21*
X104140000Y-144780000D03*
D22*
X104140000Y-147320000D03*
X106680000Y-144780000D03*
X106680000Y-147320000D03*
X109220000Y-144780000D03*
X109220000Y-147320000D03*
X111760000Y-144780000D03*
X111760000Y-147320000D03*
X114300000Y-144780000D03*
X114300000Y-147320000D03*
X116840000Y-144780000D03*
X116840000Y-147320000D03*
D17*
X111010000Y-107950000D03*
X112510000Y-107950000D03*
X107200000Y-107950000D03*
X108700000Y-107950000D03*
X136410000Y-140970000D03*
X137910000Y-140970000D03*
X136410000Y-138430000D03*
X137910000Y-138430000D03*
D11*
X118110000Y-135775000D03*
X118110000Y-137275000D03*
X115570000Y-135775000D03*
X115570000Y-137275000D03*
X113030000Y-132195000D03*
X113030000Y-130695000D03*
D17*
X130822000Y-108204000D03*
X132322000Y-108204000D03*
X128766000Y-108204000D03*
X127266000Y-108204000D03*
D19*
X108470000Y-128905000D03*
X109970000Y-128905000D03*
X136410000Y-135890000D03*
X137910000Y-135890000D03*
D17*
X109740000Y-139700000D03*
X111240000Y-139700000D03*
D23*
X109020000Y-135550000D03*
X109020000Y-136200000D03*
X109020000Y-136850000D03*
X109020000Y-137500000D03*
X113230000Y-137500000D03*
X113230000Y-136850000D03*
X113230000Y-136200000D03*
X113230000Y-135550000D03*
D24*
X111545000Y-136995000D03*
X111545000Y-136055000D03*
X110705000Y-136995000D03*
X110705000Y-136055000D03*
D11*
X142240000Y-106160000D03*
X142240000Y-104660000D03*
X142240000Y-109105000D03*
X142240000Y-110605000D03*
D21*
X102235000Y-133350000D03*
D22*
X104775000Y-133350000D03*
X102235000Y-135890000D03*
X104775000Y-135890000D03*
X102235000Y-138430000D03*
X104775000Y-138430000D03*
X102235000Y-140970000D03*
X104775000Y-140970000D03*
D25*
X120650000Y-141605000D03*
D26*
X123190000Y-141605000D03*
D27*
X110245000Y-132120000D03*
X110245000Y-130770000D03*
X108195000Y-130770000D03*
X108195000Y-132120000D03*
D28*
X146050000Y-124460000D03*
X121920000Y-146050000D03*
X121920000Y-104140000D03*
D29*
X107315000Y-141605000D03*
X107315000Y-139506960D03*
X145000980Y-147320000D03*
X147099020Y-147320000D03*
X145000980Y-102870000D03*
X147099020Y-102870000D03*
D19*
X111125000Y-141605000D03*
X109625000Y-141605000D03*
D30*
X142240000Y-144665000D03*
X142240000Y-146165000D03*
X135890000Y-113780000D03*
X135890000Y-112280000D03*
M02*
