M48
;DRILL file {KiCad 0.201602101416+6546~42~ubuntu14.04.1-product} date Thu 11 Feb 2016 08:51:47 AM CET
;FORMAT={-:-/ absolute / inch / decimal}
FMAT,2
INCH,TZ
T1C0.016
T2C0.020
T3C0.022
T4C0.040
T5C0.138
%
G90
G05
M72
T1
X4.Y-4.2
X4.025Y-4.325
X4.075Y-4.75
X4.1Y-4.4311
X4.1311Y-4.6
X4.15Y-4.75
X4.176Y-4.25
X4.2Y-4.6
X4.2Y-5.075
X4.2Y-5.325
X4.275Y-4.4
X4.275Y-4.475
X4.275Y-4.575
X4.275Y-5.25
X4.35Y-4.725
X4.375Y-5.
X4.4Y-4.65
X4.4Y-5.125
X4.435Y-5.3
X4.4401Y-4.4599
X4.4477Y-4.5023
X4.45Y-4.5541
X4.45Y-4.925
X4.45Y-5.025
X4.45Y-5.075
X4.45Y-5.5
X4.475Y-4.775
X4.5Y-4.575
X4.5Y-4.725
X4.5Y-5.05
X4.5Y-5.1
X4.5Y-5.3
X4.5131Y-4.4829
X4.5254Y-4.6754
X4.55Y-4.7
X4.55Y-5.1
X4.55Y-5.275
X4.55Y-5.475
X4.575Y-4.9
X4.5776Y-4.4526
X4.6Y-5.35
X4.6008Y-5.185
X4.625Y-4.825
X4.625Y-5.225
X4.625Y-4.95
X4.6254Y-4.4556
X4.65Y-5.
X4.65Y-5.3
X4.7Y-5.025
X4.7Y-5.3
X4.725Y-4.525
X4.725Y-4.85
X4.7473Y-5.3473
X4.75Y-4.45
X4.7673Y-5.3962
X4.775Y-4.7
X4.775Y-5.
X4.8Y-4.425
X4.8Y-5.15
X4.8128Y-5.4214
X4.815Y-5.3768
X4.825Y-4.4
X4.8663Y-4.7087
X4.875Y-4.3185
X4.875Y-4.375
X4.875Y-4.575
X4.8939Y-4.2933
X4.9Y-4.225
X4.9Y-4.35
X4.925Y-4.525
X4.925Y-4.875
X4.925Y-5.225
X4.9355Y-4.2893
X4.95Y-4.675
X4.95Y-5.275
X4.975Y-4.6
X5.Y-4.475
X5.Y-4.95
X5.05Y-4.65
X5.05Y-4.75
X5.05Y-5.15
X5.1Y-4.7
X5.11Y-4.26
X5.125Y-4.825
X5.1581Y-4.2944
X5.16Y-4.3259
X5.175Y-4.575
X5.2201Y-5.1799
X5.35Y-5.075
X5.375Y-5.3
X5.3995Y-4.3476
X5.4Y-4.45
X5.4435Y-4.35
X5.45Y-4.85
X5.475Y-4.6
X5.5Y-4.35
X5.525Y-4.25
X5.55Y-4.4
X5.55Y-4.475
X5.6Y-4.225
X5.625Y-4.05
T4
X4.025Y-5.25
X4.025Y-5.35
X4.025Y-5.45
X4.025Y-5.55
X4.1Y-4.05
X4.1Y-4.15
X4.1Y-5.7
X4.1Y-5.8
X4.125Y-5.25
X4.125Y-5.35
X4.125Y-5.45
X4.125Y-5.55
X4.2Y-4.05
X4.2Y-4.15
X4.2Y-5.7
X4.2Y-5.8
X4.3Y-4.05
X4.3Y-4.15
X4.3Y-5.7
X4.3Y-5.8
X4.4Y-4.05
X4.4Y-4.15
X4.4Y-5.7
X4.4Y-5.8
X4.5Y-4.05
X4.5Y-4.15
X4.5Y-5.7
X4.5Y-5.8
X4.6Y-4.05
X4.6Y-4.15
X4.6Y-5.7
X4.6Y-5.8
X4.75Y-5.575
X4.85Y-5.575
X5.Y-4.05
X5.Y-4.15
X5.Y-5.7
X5.Y-5.8
X5.1Y-4.05
X5.1Y-4.15
X5.1Y-5.7
X5.1Y-5.8
X5.2Y-4.05
X5.2Y-4.15
X5.2Y-5.7
X5.2Y-5.8
X5.3Y-4.05
X5.3Y-4.15
X5.3Y-5.7
X5.3Y-5.8
X5.4Y-4.05
X5.4Y-4.15
X5.4Y-5.7
X5.4Y-5.8
X5.5Y-4.05
X5.5Y-4.15
X5.5Y-5.7
X5.5Y-5.8
X5.7Y-4.2
X5.7Y-4.3
X5.7Y-4.4
X5.7Y-4.5
X5.7Y-4.6
X5.7Y-4.7
X5.7Y-5.1
X5.7Y-5.2
X5.7Y-5.3
X5.7Y-5.4
X5.7Y-5.5
X5.7Y-5.6
X5.8Y-4.2
X5.8Y-4.3
X5.8Y-4.4
X5.8Y-4.5
X5.8Y-4.6
X5.8Y-4.7
X5.8Y-5.1
X5.8Y-5.2
X5.8Y-5.3
X5.8Y-5.4
X5.8Y-5.5
X5.8Y-5.6
T5
X4.8Y-4.1
X4.8Y-5.75
X5.75Y-4.9
T2
X3.9924Y-4.7622G85X4.018Y-4.7622
G05
X3.9924Y-5.0378G85X4.018Y-5.0378
G05
T3
X4.1115Y-4.7956G85X4.1115Y-4.8074
G05
X4.1115Y-4.9925G85X4.1115Y-5.0043
G05
T0
M30
