<svg version="1.1" viewBox="0.0 0.0 960.0 720.0" fill="none" stroke="none" stroke-linecap="square" stroke-miterlimit="10" xmlns:xlink="http://www.w3.org/1999/xlink" xmlns="http://www.w3.org/2000/svg"><clipPath id="p.0"><path d="m0 0l960.0 0l0 720.0l-960.0 0l0 -720.0z" clip-rule="nonzero"/></clipPath><g clip-path="url(#p.0)"><path fill="#000000" fill-opacity="0.0" d="m0 0l960.0 0l0 720.0l-960.0 0z" fill-rule="evenodd"/><path fill="#cfe2f3" d="m238.89764 217.64305l0 0c0 -27.93605 30.021606 -50.582687 67.055115 -50.582687l0 0c37.03351 0 67.055115 22.646637 67.055115 50.582687l0 0c0 27.936035 -30.021606 50.582657 -67.055115 50.582657l0 0c-37.03351 0 -67.055115 -22.646622 -67.055115 -50.582657z" fill-rule="evenodd"/><path stroke="#000000" stroke-width="1.0" stroke-linejoin="round" stroke-linecap="butt" d="m238.89764 217.64305l0 0c0 -27.93605 30.021606 -50.582687 67.055115 -50.582687l0 0c37.03351 0 67.055115 22.646637 67.055115 50.582687l0 0c0 27.936035 -30.021606 50.582657 -67.055115 50.582657l0 0c-37.03351 0 -67.055115 -22.646622 -67.055115 -50.582657z" fill-rule="evenodd"/><path fill="#000000" d="m299.6997 224.56305l5.125 -13.359375l1.90625 0l5.46875 13.359375l-2.015625 0l-1.546875 -4.046875l-5.59375 0l-1.46875 4.046875l-1.875 0zm3.859375 -5.484375l4.53125 0l-1.40625 -3.703125q-0.625 -1.6875 -0.9375 -2.765625q-0.265625 1.28125 -0.71875 2.546875l-1.46875 3.921875z" fill-rule="nonzero"/><path fill="#cfe2f3" d="m464.89764 217.64305l0 0c0 -27.93605 30.021606 -50.582687 67.055115 -50.582687l0 0c37.03351 0 67.055115 22.646637 67.055115 50.582687l0 0c0 27.936035 -30.021606 50.582657 -67.055115 50.582657l0 0c-37.03351 0 -67.055115 -22.646622 -67.055115 -50.582657z" fill-rule="evenodd"/><path stroke="#000000" stroke-width="1.0" stroke-linejoin="round" stroke-linecap="butt" d="m464.89764 217.64305l0 0c0 -27.93605 30.021606 -50.582687 67.055115 -50.582687l0 0c37.03351 0 67.055115 22.646637 67.055115 50.582687l0 0c0 27.936035 -30.021606 50.582657 -67.055115 50.582657l0 0c-37.03351 0 -67.055115 -22.646622 -67.055115 -50.582657z" fill-rule="evenodd"/><path fill="#000000" d="m527.09033 224.56305l0 -13.359375l5.015625 0q1.53125 0 2.453125 0.40625q0.921875 0.40625 1.4375 1.25q0.53125 0.84375 0.53125 1.765625q0 0.859375 -0.46875 1.625q-0.453125 0.75 -1.390625 1.203125q1.203125 0.359375 1.859375 1.21875q0.65625 0.859375 0.65625 2.015625q0 0.9375 -0.40625 1.75q-0.390625 0.796875 -0.984375 1.234375q-0.578125 0.4375 -1.453125 0.671875q-0.875 0.21875 -2.15625 0.21875l-5.09375 0zm1.78125 -7.75l2.875 0q1.1875 0 1.6875 -0.140625q0.671875 -0.203125 1.015625 -0.671875q0.34375 -0.46875 0.34375 -1.171875q0 -0.65625 -0.328125 -1.15625q-0.3125 -0.515625 -0.90625 -0.703125q-0.59375 -0.1875 -2.03125 -0.1875l-2.65625 0l0 4.03125zm0 6.171875l3.3125 0q0.859375 0 1.203125 -0.0625q0.609375 -0.109375 1.015625 -0.359375q0.421875 -0.265625 0.6875 -0.75q0.265625 -0.484375 0.265625 -1.125q0 -0.75 -0.390625 -1.296875q-0.375 -0.546875 -1.0625 -0.765625q-0.671875 -0.234375 -1.953125 -0.234375l-3.078125 0l0 4.59375z" fill-rule="nonzero"/><path fill="#cfe2f3" d="m690.89764 217.64305l0 0c0 -27.93605 30.021606 -50.582687 67.055115 -50.582687l0 0c37.03351 0 67.055115 22.646637 67.055115 50.582687l0 0c0 27.936035 -30.021606 50.582657 -67.055115 50.582657l0 0c-37.03351 0 -67.055115 -22.646622 -67.055115 -50.582657z" fill-rule="evenodd"/><path stroke="#000000" stroke-width="1.0" stroke-linejoin="round" stroke-linecap="butt" d="m690.89764 217.64305l0 0c0 -27.93605 30.021606 -50.582687 67.055115 -50.582687l0 0c37.03351 0 67.055115 22.646637 67.055115 50.582687l0 0c0 27.936035 -30.021606 50.582657 -67.055115 50.582657l0 0c-37.03351 0 -67.055115 -22.646622 -67.055115 -50.582657z" fill-rule="evenodd"/><path fill="#000000" d="m762.18506 219.87555l1.765625 0.453125q-0.5625 2.171875 -2.0 3.328125q-1.4375 1.140625 -3.53125 1.140625q-2.15625 0 -3.515625 -0.875q-1.34375 -0.890625 -2.0625 -2.546875q-0.703125 -1.671875 -0.703125 -3.59375q0 -2.078125 0.796875 -3.625q0.796875 -1.5625 2.265625 -2.359375q1.484375 -0.8125 3.25 -0.8125q2.0 0 3.359375 1.015625q1.375 1.015625 1.90625 2.875l-1.734375 0.40625q-0.46875 -1.453125 -1.359375 -2.109375q-0.875 -0.671875 -2.203125 -0.671875q-1.546875 0 -2.578125 0.734375q-1.03125 0.734375 -1.453125 1.984375q-0.421875 1.234375 -0.421875 2.5625q0 1.703125 0.5 2.96875q0.5 1.265625 1.546875 1.90625q1.046875 0.625 2.265625 0.625q1.484375 0 2.515625 -0.859375q1.03125 -0.859375 1.390625 -2.546875z" fill-rule="nonzero"/><path fill="#cfe2f3" d="m690.89764 475.0551l0 0c0 -27.936035 30.021606 -50.582672 67.055115 -50.582672l0 0c37.03351 0 67.055115 22.646637 67.055115 50.582672l0 0c0 27.936035 -30.021606 50.582703 -67.055115 50.582703l0 0c-37.03351 0 -67.055115 -22.646667 -67.055115 -50.582703z" fill-rule="evenodd"/><path stroke="#000000" stroke-width="1.0" stroke-linejoin="round" stroke-linecap="butt" d="m690.89764 475.0551l0 0c0 -27.936035 30.021606 -50.582672 67.055115 -50.582672l0 0c37.03351 0 67.055115 22.646637 67.055115 50.582672l0 0c0 27.936035 -30.021606 50.582703 -67.055115 50.582703l0 0c-37.03351 0 -67.055115 -22.646667 -67.055115 -50.582703z" fill-rule="evenodd"/><path fill="#000000" d="m752.6538 481.97513l0 -13.359375l4.609375 0q1.546875 0 2.375 0.203125q1.140625 0.25 1.953125 0.953125q1.0625 0.890625 1.578125 2.28125q0.53125 1.390625 0.53125 3.171875q0 1.515625 -0.359375 2.703125q-0.359375 1.171875 -0.921875 1.9375q-0.546875 0.765625 -1.203125 1.21875q-0.65625 0.4375 -1.59375 0.671875q-0.9375 0.21875 -2.140625 0.21875l-4.828125 0zm1.765625 -1.578125l2.859375 0q1.3125 0 2.0625 -0.234375q0.75 -0.25 1.203125 -0.703125q0.625 -0.625 0.96875 -1.6875q0.359375 -1.0625 0.359375 -2.578125q0 -2.09375 -0.6875 -3.21875q-0.6875 -1.125 -1.671875 -1.5q-0.703125 -0.28125 -2.28125 -0.28125l-2.8125 0l0 10.203125z" fill-rule="nonzero"/><path fill="#000000" fill-opacity="0.0" d="m373.00787 217.64305l91.90552 0" fill-rule="evenodd"/><path stroke="#000000" stroke-width="1.0" stroke-linejoin="round" stroke-linecap="butt" d="m373.00787 217.64305l85.90552 0" fill-rule="evenodd"/><path fill="#000000" stroke="#000000" stroke-width="1.0" stroke-linecap="butt" d="m458.9134 219.29478l4.538086 -1.6517334l-4.538086 -1.6517334z" fill-rule="evenodd"/><path fill="#000000" fill-opacity="0.0" d="m349.5433 175.6273l138.83466 0l0 42.015747l-138.83466 0z" fill-rule="evenodd"/><path fill="#000000" d="m386.48074 191.07855l0 -1.890625l1.640625 0l0 1.890625l-1.640625 0zm0 11.46875l0 -9.671875l1.640625 0l0 9.671875l-1.640625 0zm12.769836 -7.859375l-8.828125 0l0 -1.515625l8.828125 0l0 1.515625zm0 4.0625l-8.828125 0l0 -1.53125l8.828125 0l0 1.53125zm7.9887085 3.796875l-1.640625 0l0 -10.453125q-0.59375 0.5625 -1.5625 1.140625q-0.953125 0.5625 -1.71875 0.84375l0 -1.59375q1.375 -0.640625 2.40625 -1.5625q1.03125 -0.921875 1.453125 -1.78125l1.0625 0l0 13.40625zm5.078827 0l0 -1.875l1.8750305 0l0 1.875q0 1.03125 -0.375 1.65625q-0.35940552 0.640625 -1.1562805 0.984375l-0.453125 -0.703125q0.515625 -0.21875 0.765625 -0.671875q0.25 -0.4375 0.28125 -1.265625l-0.9375 0zm9.335388 -4.84375q0 -2.6875 1.484375 -3.96875q1.25 -1.078125 3.046875 -1.078125q2.0 0 3.265625 1.3125q1.265625 1.296875 1.265625 3.609375q0 1.859375 -0.5625 2.9375q-0.5625 1.0625 -1.640625 1.65625q-1.0625 0.59375 -2.328125 0.59375q-2.03125 0 -3.28125 -1.296875q-1.25 -1.3125 -1.25 -3.765625zm1.6875 0q0 1.859375 0.796875 2.796875q0.8125 0.921875 2.046875 0.921875q1.21875 0 2.03125 -0.921875q0.8125 -0.9375 0.8125 -2.84375q0 -1.796875 -0.8125 -2.71875q-0.8125 -0.921875 -2.03125 -0.921875q-1.234375 0 -2.046875 0.921875q-0.796875 0.90625 -0.796875 2.765625zm17.922577 -3.015625l-8.828125 0l0 -1.515625l8.828125 0l0 1.515625zm0 4.0625l-8.828125 0l0 -1.53125l8.828125 0l0 1.53125zm7.9887085 3.796875l-1.640625 0l0 -10.453125q-0.59375 0.5625 -1.5625 1.140625q-0.953125 0.5625 -1.71875 0.84375l0 -1.59375q1.375 -0.640625 2.40625 -1.5625q1.03125 -0.921875 1.453125 -1.78125l1.0625 0l0 13.40625z" fill-rule="nonzero"/><path fill="#000000" fill-opacity="0.0" d="m599.0079 217.64305l91.90552 0" fill-rule="evenodd"/><path stroke="#000000" stroke-width="1.0" stroke-linejoin="round" stroke-linecap="butt" d="m599.0079 217.64305l85.90552 0" fill-rule="evenodd"/><path fill="#000000" stroke="#000000" stroke-width="1.0" stroke-linecap="butt" d="m684.9134 219.29478l4.538086 -1.6517334l-4.538086 -1.6517334z" fill-rule="evenodd"/><path fill="#000000" fill-opacity="0.0" d="m579.3565 253.398l131.18109 185.88976" fill-rule="evenodd"/><path stroke="#000000" stroke-width="1.0" stroke-linejoin="round" stroke-linecap="butt" d="m579.35657 253.39801l127.72162 180.98752" fill-rule="evenodd"/><path fill="#000000" stroke="#000000" stroke-width="1.0" stroke-linecap="butt" d="m705.72864 435.3379l3.9661255 2.7554321l-1.2670898 -4.6601562z" fill-rule="evenodd"/><path fill="#000000" fill-opacity="0.0" d="m690.89764 475.0551l-384.9449 -206.83466" fill-rule="evenodd"/><path stroke="#000000" stroke-width="1.0" stroke-linejoin="round" stroke-linecap="butt" d="m690.89764 475.0551l-379.65952 -203.99478" fill-rule="evenodd"/><path fill="#000000" stroke="#000000" stroke-width="1.0" stroke-linecap="butt" d="m312.0199 269.60535l-4.779358 -0.6929321l3.2157898 3.6029358z" fill-rule="evenodd"/><path fill="#000000" fill-opacity="0.0" d="m757.95276 424.47244l0 -156.25198" fill-rule="evenodd"/><path stroke="#000000" stroke-width="1.0" stroke-linejoin="round" stroke-linecap="butt" d="m757.95276 424.47244l0 -150.25198" fill-rule="evenodd"/><path fill="#000000" stroke="#000000" stroke-width="1.0" stroke-linecap="butt" d="m759.6045 274.22046l-1.6517334 -4.538086l-1.6517334 4.538086z" fill-rule="evenodd"/><path fill="#000000" fill-opacity="0.0" d="m757.95276 167.06036c0 -12.5 11.850403 -26.850388 23.700806 -25.0c11.850403 1.8503876 23.700745 19.90158 23.700745 39.803146" fill-rule="evenodd"/><path stroke="#000000" stroke-width="1.0" stroke-linejoin="round" stroke-linecap="butt" d="m757.95276 167.06036c0 -12.5 11.850403 -26.850388 23.700806 -25.0c5.925171 0.9252014 11.850403 5.900589 16.29425 13.132385c2.2219849 3.6158905 4.0736084 7.7958984 5.369751 12.315765c0.6480713 2.2599335 1.1572266 4.604843 1.5044556 7.0066833c0.043395996 0.30023193 0.084228516 0.6013489 0.122558594 0.9032898c0.019104004 0.15098572 0.037597656 0.3021698 0.055419922 0.45355225l2.4414062E-4 0.0019378662" fill-rule="evenodd"/><path fill="#000000" stroke="#000000" stroke-width="1.0" stroke-linecap="butt" d="m803.3514 175.97145l1.916687 4.4327087l1.3810425 -4.627655z" fill-rule="evenodd"/><path fill="#000000" fill-opacity="0.0" d="m575.5302 180.68636l138.8346 0l0 42.015747l-138.8346 0z" fill-rule="evenodd"/><path fill="#000000" d="m612.46765 196.1376l0 -1.890625l1.640625 0l0 1.890625l-1.640625 0zm0 11.46875l0 -9.671875l1.640625 0l0 9.671875l-1.640625 0zm12.769775 -7.859375l-8.828125 0l0 -1.515625l8.828125 0l0 1.515625zm0 4.0625l-8.828125 0l0 -1.53125l8.828125 0l0 1.53125zm1.8168335 -2.796875q0 -2.359375 0.484375 -3.796875q0.484375 -1.453125 1.4375 -2.234375q0.96875 -0.78125 2.421875 -0.78125q1.078125 0 1.890625 0.4375q0.8125 0.421875 1.328125 1.25q0.53125 0.8125 0.828125 1.984375q0.3125 1.15625 0.3125 3.140625q0 2.359375 -0.484375 3.8125q-0.484375 1.4375 -1.453125 2.234375q-0.953125 0.78125 -2.421875 0.78125q-1.921875 0 -3.03125 -1.390625q-1.3125 -1.671875 -1.3125 -5.4375zm1.671875 0q0 3.296875 0.765625 4.390625q0.78125 1.078125 1.90625 1.078125q1.140625 0 1.90625 -1.09375q0.765625 -1.09375 0.765625 -4.375q0 -3.296875 -0.765625 -4.375q-0.765625 -1.078125 -1.921875 -1.078125q-1.125 0 -1.796875 0.953125q-0.859375 1.21875 -0.859375 4.5zm9.578857 6.59375l0 -1.875l1.875 0l0 1.875q0 1.03125 -0.375 1.65625q-0.359375 0.640625 -1.15625 0.984375l-0.453125 -0.703125q0.515625 -0.21875 0.765625 -0.671875q0.25 -0.4375 0.28125 -1.265625l-0.9375 0zm9.335388 -4.84375q0 -2.6875 1.484375 -3.96875q1.25 -1.078125 3.046875 -1.078125q2.0 0 3.265625 1.3125q1.265625 1.296875 1.265625 3.609375q0 1.859375 -0.5625 2.9375q-0.5625 1.0625 -1.640625 1.65625q-1.0625 0.59375 -2.328125 0.59375q-2.03125 0 -3.28125 -1.296875q-1.25 -1.3125 -1.25 -3.765625zm1.6875 0q0 1.859375 0.796875 2.796875q0.8125 0.921875 2.046875 0.921875q1.21875 0 2.03125 -0.921875q0.8125 -0.9375 0.8125 -2.84375q0 -1.796875 -0.8125 -2.71875q-0.8125 -0.921875 -2.03125 -0.921875q-1.234375 0 -2.046875 0.921875q-0.796875 0.90625 -0.796875 2.765625zm17.922607 -3.015625l-8.828125 0l0 -1.515625l8.828125 0l0 1.515625zm0 4.0625l-8.828125 0l0 -1.53125l8.828125 0l0 1.53125zm1.8168335 -2.796875q0 -2.359375 0.484375 -3.796875q0.484375 -1.453125 1.4375 -2.234375q0.96875 -0.78125 2.421875 -0.78125q1.078125 0 1.890625 0.4375q0.8125 0.421875 1.328125 1.25q0.53125 0.8125 0.828125 1.984375q0.3125 1.15625 0.3125 3.140625q0 2.359375 -0.484375 3.8125q-0.484375 1.4375 -1.453125 2.234375q-0.953125 0.78125 -2.421875 0.78125q-1.921875 0 -3.03125 -1.390625q-1.3125 -1.671875 -1.3125 -5.4375zm1.671875 0q0 3.296875 0.765625 4.390625q0.78125 1.078125 1.90625 1.078125q1.140625 0 1.90625 -1.09375q0.765625 -1.09375 0.765625 -4.375q0 -3.296875 -0.765625 -4.375q-0.765625 -1.078125 -1.921875 -1.078125q-1.125 0 -1.796875 0.953125q-0.859375 1.21875 -0.859375 4.5z" fill-rule="nonzero"/><path fill="#000000" fill-opacity="0.0" d="m212.82152 100.04462l138.83464 0l0 42.015747l-138.83464 0z" fill-rule="evenodd"/><path fill="#000000" d="m249.75897 115.495865l0 -1.890625l1.640625 0l0 1.890625l-1.640625 0zm0 11.46875l0 -9.671875l1.640625 0l0 9.671875l-1.640625 0zm12.769836 -7.859375l-8.82814 0l0 -1.515625l8.82814 0l0 1.515625zm0 4.0625l-8.82814 0l0 -1.53125l8.82814 0l0 1.53125zm1.8168335 -2.796875q0 -2.359375 0.484375 -3.796875q0.484375 -1.453125 1.4375 -2.234375q0.96875 -0.78125 2.421875 -0.78125q1.078125 0 1.890625 0.4375q0.8125 0.421875 1.328125 1.25q0.53125 0.8125 0.828125 1.984375q0.3125 1.15625 0.3125 3.140625q0 2.359375 -0.484375 3.8125q-0.484375 1.4375 -1.453125 2.234375q-0.953125 0.78125 -2.421875 0.78125q-1.921875 0 -3.03125 -1.390625q-1.3125 -1.671875 -1.3125 -5.4375zm1.671875 0q0 3.296875 0.765625 4.390625q0.78125 1.078125 1.90625 1.078125q1.140625 0 1.90625 -1.09375q0.765625 -1.09375 0.765625 -4.375q0 -3.296875 -0.765625 -4.375q-0.765625 -1.078125 -1.921875 -1.078125q-1.125 0 -1.796875 0.953125q-0.859375 1.21875 -0.859375 4.5zm9.578827 6.59375l0 -1.875l1.875 0l0 1.875q0 1.03125 -0.375 1.65625q-0.359375 0.640625 -1.15625 0.984375l-0.453125 -0.703125q0.515625 -0.21875 0.765625 -0.671875q0.25 -0.4375 0.28125 -1.265625l-0.9375 0zm9.335358 -4.84375q0 -2.6875 1.484375 -3.96875q1.25 -1.078125 3.046875 -1.078125q2.0 0 3.265625 1.3125q1.265625 1.296875 1.265625 3.609375q0 1.859375 -0.5625 2.9375q-0.5625 1.0625 -1.640625 1.65625q-1.0625 0.59375 -2.328125 0.59375q-2.03125 0 -3.28125 -1.296875q-1.25 -1.3125 -1.25 -3.765625zm1.6875 0q0 1.859375 0.796875 2.796875q0.8125 0.921875 2.046875 0.921875q1.21875 0 2.03125 -0.921875q0.8125 -0.9375 0.8125 -2.84375q0 -1.796875 -0.8125 -2.71875q-0.8125 -0.921875 -2.03125 -0.921875q-1.234375 0 -2.046875 0.921875q-0.796875 0.90625 -0.796875 2.765625zm17.922607 -3.015625l-8.828125 0l0 -1.515625l8.828125 0l0 1.515625zm0 4.0625l-8.828125 0l0 -1.53125l8.828125 0l0 1.53125zm7.9887085 3.796875l-1.640625 0l0 -10.453125q-0.59375 0.5625 -1.5625 1.140625q-0.953125 0.5625 -1.71875 0.84375l0 -1.59375q1.375 -0.640625 2.40625 -1.5625q1.03125 -0.921875 1.453125 -1.78125l1.0625 0l0 13.40625z" fill-rule="nonzero"/><path fill="#000000" fill-opacity="0.0" d="m258.53763 181.87569c0 -19.907639 11.850403 -37.96489 23.700775 -39.815292c11.850403 -1.8503876 23.700806 12.506073 23.700806 25.012146" fill-rule="evenodd"/><path stroke="#000000" stroke-width="1.0" stroke-linejoin="round" stroke-linecap="butt" d="m258.53763 181.8757c0 -19.907654 11.850403 -37.964905 23.700775 -39.815308c5.9252014 -0.92518616 11.850403 2.2013245 16.294312 7.122406c2.2219543 2.4605255 4.073578 5.3697205 5.36969 8.445374c0.32406616 0.7689209 0.6133728 1.5482483 0.86505127 2.3335724c0.06295776 0.19633484 0.12350464 0.3930359 0.18170166 0.5900421l0.1633606 0.5779724" fill-rule="evenodd"/><path fill="#000000" stroke="#000000" stroke-width="1.0" stroke-linecap="butt" d="m303.47653 161.35733l2.261261 4.2672424l1.0107117 -4.7223816z" fill-rule="evenodd"/><path fill="#000000" fill-opacity="0.0" d="m709.54333 100.04462l138.8346 0l0 42.015747l-138.8346 0z" fill-rule="evenodd"/><path fill="#000000" d="m746.4808 115.495865l0 -1.890625l1.640625 0l0 1.890625l-1.640625 0zm0 11.46875l0 -9.671875l1.640625 0l0 9.671875l-1.640625 0zm12.769775 -7.859375l-8.828125 0l0 -1.515625l8.828125 0l0 1.515625zm0 4.0625l-8.828125 0l0 -1.53125l8.828125 0l0 1.53125zm7.9887085 3.796875l-1.640625 0l0 -10.453125q-0.59375 0.5625 -1.5625 1.140625q-0.953125 0.5625 -1.71875 0.84375l0 -1.59375q1.375 -0.640625 2.40625 -1.5625q1.03125 -0.921875 1.453125 -1.78125l1.0625 0l0 13.40625zm5.0788574 0l0 -1.875l1.875 0l0 1.875q0 1.03125 -0.375 1.65625q-0.359375 0.640625 -1.15625 0.984375l-0.453125 -0.703125q0.515625 -0.21875 0.765625 -0.671875q0.25 -0.4375 0.28125 -1.265625l-0.9375 0zm9.335388 -4.84375q0 -2.6875 1.484375 -3.96875q1.25 -1.078125 3.046875 -1.078125q2.0 0 3.265625 1.3125q1.265625 1.296875 1.265625 3.609375q0 1.859375 -0.5625 2.9375q-0.5625 1.0625 -1.640625 1.65625q-1.0625 0.59375 -2.328125 0.59375q-2.03125 0 -3.28125 -1.296875q-1.25 -1.3125 -1.25 -3.765625zm1.6875 0q0 1.859375 0.796875 2.796875q0.8125 0.921875 2.046875 0.921875q1.21875 0 2.03125 -0.921875q0.8125 -0.9375 0.8125 -2.84375q0 -1.796875 -0.8125 -2.71875q-0.8125 -0.921875 -2.03125 -0.921875q-1.234375 0 -2.046875 0.921875q-0.796875 0.90625 -0.796875 2.765625zm17.922607 -3.015625l-8.828125 0l0 -1.515625l8.828125 0l0 1.515625zm0 4.0625l-8.828125 0l0 -1.53125l8.828125 0l0 1.53125zm7.9887085 3.796875l-1.640625 0l0 -10.453125q-0.59375 0.5625 -1.5625 1.140625q-0.953125 0.5625 -1.71875 0.84375l0 -1.59375q1.375 -0.640625 2.40625 -1.5625q1.03125 -0.921875 1.453125 -1.78125l1.0625 0l0 13.40625z" fill-rule="nonzero"/><path fill="#000000" fill-opacity="0.0" d="m799.9685 285.2966l0 138.83463l-42.015747 0l0 -138.83463z" fill-rule="evenodd"/><path fill="#000000" d="m784.5173 322.23404l1.890625 0l0 1.640625l-1.890625 0l0 -1.640625zm-11.46875 0l9.671875 0l0 1.640625l-9.671875 0l0 -1.640625zm7.859375 12.769806l0 -8.828125l1.515625 0l0 8.828125l-1.515625 0zm-4.0625 0l0 -8.828125l1.53125 0l0 8.828125l-1.53125 0zm2.796875 1.8168335q2.359375 0 3.796875 0.484375q1.453125 0.484375 2.234375 1.4375q0.78125 0.96875 0.78125 2.421875q0 1.078125 -0.4375 1.890625q-0.421875 0.8125 -1.25 1.328125q-0.8125 0.53125 -1.984375 0.828125q-1.15625 0.3125 -3.140625 0.3125q-2.359375 0 -3.8125 -0.484375q-1.4375 -0.484375 -2.234375 -1.453125q-0.78125 -0.953125 -0.78125 -2.421875q0 -1.921875 1.390625 -3.03125q1.671875 -1.3125 5.4375 -1.3125zm0 1.671875q-3.296875 0 -4.390625 0.765625q-1.078125 0.78125 -1.078125 1.90625q0 1.140625 1.09375 1.90625q1.09375 0.765625 4.375 0.765625q3.296875 0 4.375 -0.765625q1.078125 -0.765625 1.078125 -1.921875q0 -1.125 -0.953125 -1.796875q-1.21875 -0.859375 -4.5 -0.859375zm-6.59375 9.578857l1.875 0l0 1.875l-1.875 0q-1.03125 0 -1.65625 -0.375q-0.640625 -0.359375 -0.984375 -1.15625l0.703125 -0.453125q0.21875 0.515625 0.671875 0.765625q0.4375 0.25 1.265625 0.28125l0 -0.9375zm4.84375 9.335358q2.6875 0 3.96875 1.484375q1.078125 1.25 1.078125 3.046875q0 2.0 -1.3125 3.265625q-1.296875 1.265625 -3.609375 1.265625q-1.859375 0 -2.9375 -0.5625q-1.0625 -0.5625 -1.65625 -1.640625q-0.59375 -1.0625 -0.59375 -2.328125q0 -2.03125 1.296875 -3.28125q1.3125 -1.25 3.765625 -1.25zm0 1.6875q-1.859375 0 -2.796875 0.796875q-0.921875 0.8125 -0.921875 2.046875q0 1.21875 0.921875 2.03125q0.9375 0.8125 2.84375 0.8125q1.796875 0 2.71875 -0.8125q0.921875 -0.8125 0.921875 -2.03125q0 -1.234375 -0.921875 -2.046875q-0.90625 -0.796875 -2.765625 -0.796875zm3.015625 17.922607l0 -8.828125l1.515625 0l0 8.828125l-1.515625 0zm-4.0625 0l0 -8.828125l1.53125 0l0 8.828125l-1.53125 0zm-3.796875 7.9887085l0 -1.640625l10.453125 0q-0.5625 -0.59375 -1.140625 -1.5625q-0.5625 -0.953125 -0.84375 -1.71875l1.59375 0q0.640625 1.375 1.5625 2.40625q0.921875 1.03125 1.78125 1.453125l0 1.0625l-13.40625 0z" fill-rule="nonzero"/><path fill="#000000" fill-opacity="0.0" d="m644.92944 277.43585l79.6535 113.73227l-34.456665 24.062988l-79.653564 -113.73227z" fill-rule="evenodd"/><path fill="#000000" d="m653.4558 316.54465l1.5501099 -1.082489l0.9411621 1.3438416l-1.5501099 1.082489l-0.9411621 -1.3438416zm-9.402832 6.5665283l7.9296875 -5.5377197l0.9411621 1.3438416l-7.9296875 5.537689l-0.9411621 -1.343811zm13.769165 5.959717l-5.064331 -7.2310486l1.2426147 -0.86776733l5.064331 7.2310486l-1.2426147 0.86776733zm-3.3306885 2.3260193l-5.064331 -7.2310486l1.2554321 -0.8767395l5.064331 7.231079l-1.2554321 0.876709zm1.4699097 8.717438l-0.9411621 -1.3438416l8.570129 -5.985016q-0.8017578 -0.1642456 -1.8314819 -0.6267395q-1.0079346 -0.45864868 -1.6777344 -0.92474365l1.3066406 -0.9125061q1.3140259 0.75946045 2.661438 1.0763245q1.3473511 0.316864 2.2939453 0.17037964l0.6095581 0.8703003l-10.991333 7.6758423zm2.9135132 4.160034l1.5372314 -1.0735474l1.0756226 1.5357971l-1.5372314 1.0735474q-0.84552 0.5904541 -1.5730591 0.6411438q-0.7313843 0.07244873 -1.4703369 -0.38345337l0.31652832 -0.7737427q0.4751587 0.29708862 0.99005127 0.24243164q0.50213623 -0.045715332 1.1989746 -0.4942627l-0.53778076 -0.7679138zm9.326538 4.8731995q2.2033691 -1.5387268 4.1053467 -1.056488q1.6010132 0.4065857 2.631836 1.8783875q1.1472778 1.6381836 0.7972412 3.4263306q-0.33721924 1.7792053 -2.2331543 3.103241q-1.5244141 1.0646057 -2.731018 1.2211609q-1.1937866 0.14758301 -2.2990723 -0.39553833q-1.0963135 -0.5303345 -1.8223267 -1.5669861q-1.1652832 -1.6637878 -0.8190918 -3.4302063q0.3590088 -1.7753296 2.3702393 -3.1799011zm0.9680786 1.3822327q-1.5244751 1.0646057 -1.8359375 2.2540894q-0.2897339 1.1933289 0.418396 2.2044067q0.6991577 0.9982605 1.9210205 1.1359558q1.2347412 0.12875366 2.7976074 -0.9627075q1.4732056 -1.0288086 1.7629395 -2.2221375q0.28967285 -1.1933594 -0.40942383 -2.1916199q-0.7081299 -1.0110779 -1.9300537 -1.1487427q-1.2001343 -0.1338501 -2.7245483 0.9307556zm12.753845 12.953644l-5.064331 -7.2310486l1.2426147 -0.86776733l5.064331 7.2310486l-1.2426147 0.86776733zm-3.3306885 2.3260193l-5.064331 -7.2310486l1.2554321 -0.8767395l5.064331 7.231079l-1.2554321 0.876709zm3.3353271 -0.113220215q1.9343262 -1.3508606 3.390747 -1.7771606q1.4692383 -0.4352417 2.6565552 -0.101867676q1.196228 0.3461914 2.0298462 1.536438q0.61846924 0.88308716 0.7258911 1.7990723q0.12023926 0.907074 -0.26293945 1.8035583q-0.36138916 0.9003601 -1.1518555 1.8144836q-0.76867676 0.91799927 -2.39563 2.0541687q-1.9343872 1.3508606 -3.4036255 1.7861328q-1.4564209 0.42630005 -2.6654663 0.08905029q-1.1873169 -0.33340454 -2.0298462 -1.536438q-1.102478 -1.5741882 -0.5988159 -3.2790833q0.61779785 -2.032318 3.7051392 -4.1883545zm0.9590454 1.3694458q-2.702942 1.8876343 -3.1604614 3.1409912q-0.43579102 1.2572021 0.20959473 2.1786804q0.6543579 0.93429565 1.9902954 0.93518066q1.3359375 8.8500977E-4 4.026123 -1.8778381q2.702942 -1.8876343 3.147705 -3.1320496q0.44470215 -1.2444153 -0.21862793 -2.1914978q-0.64538574 -0.9214783 -1.8121948 -0.9260864q-1.4922485 -0.0061035156 -4.182434 1.8726196z" fill-rule="nonzero"/><path fill="#000000" fill-opacity="0.0" d="m480.57867 320.48523l122.6142 65.165344l-19.811035 37.039368l-122.6142 -65.165344z" fill-rule="evenodd"/><path fill="#000000" d="m505.91742 351.44977l0.8916931 -1.6671448l1.4487305 0.7699585l-0.8916931 1.6671448l-1.4487305 -0.7699585zm-5.4091187 10.113098l4.5616455 -8.528595l1.4487305 0.769928l-4.5616455 8.5286255l-1.4487305 -0.7699585zm14.983032 -0.93740845l-7.7955933 -4.143097l0.71484375 -1.3364563l7.795532 4.1430664l-0.7147827 1.3364868zm-1.9160767 3.5822754l-7.795532 -4.1430664l0.7221985 -1.3502502l7.7955627 4.1430664l-0.722229 1.3502502zm5.26355 7.0971985l-1.4487305 -0.7699585l4.9301147 -9.217499q-0.7895508 0.21734619 -1.9176636 0.27252197q-1.1069946 0.048675537 -1.9157104 -0.06262207l0.751709 -1.405365q1.5162964 0.08041382 2.8617554 -0.24853516q1.345398 -0.32891846 2.12323 -0.8887329l0.9382324 0.4986267l-6.322937 11.821564zm4.4848022 2.383545l0.8843384 -1.6533813l1.6557007 0.87994385l-0.8843384 1.6533813q-0.48638916 0.9093323 -1.1123047 1.2844849q-0.6194458 0.39624023 -1.4852295 0.32537842l-0.06854248 -0.8326721q0.5584717 0.049102783 0.99298096 -0.2331543q0.427063 -0.26846313 0.8452759 -0.9840088l-0.82788086 -0.43997192zm10.528015 0.10992432q1.2675171 -2.3698425 3.1825562 -2.803009q1.6123047 -0.3640442 3.1989746 0.47921753q1.7660522 0.93862915 2.2646484 2.6899414q0.5059204 1.7375488 -0.5847168 3.776703q-0.8769531 1.6395874 -1.8821411 2.3262634q-0.99786377 0.6729431 -2.2299194 0.69052124q-1.2182617 0.024932861 -2.3358765 -0.56903076q-1.7936401 -0.9532776 -2.2857666 -2.6834717q-0.48480225 -1.743988 0.6722412 -3.907135zm1.4901123 0.79193115q-0.8769531 1.6395874 -0.6154785 2.840271q0.28271484 1.1942139 1.3726807 1.7734985q1.0762329 0.57196045 2.2284546 0.14038086q1.159668 -0.44537354 2.0587158 -2.1263123q0.84747314 -1.5844727 0.56481934 -2.7786865q-0.28271484 -1.1942139 -1.3588867 -1.7661743q-1.0900269 -0.57928467 -2.2422485 -0.14770508q-1.1311035 0.42514038 -2.0080566 2.0647278zm17.248596 5.752014l-7.7955933 -4.143097l0.71484375 -1.3364563l7.795532 4.1430664l-0.7147827 1.3364868zm-1.9160767 3.5822754l-7.795532 -4.1430664l0.72216797 -1.3502502l7.7955933 4.1430664l-0.722229 1.3502502zm2.923462 -1.613617q1.112793 -2.0804749 2.2185059 -3.120758q1.1130371 -1.0540161 2.3231812 -1.2956238q1.223877 -0.23425293 2.50708 0.44769287q0.95202637 0.50598145 1.4631348 1.2730713q0.51849365 0.7532959 0.5831909 1.7255249q0.0859375 0.9657898 -0.20458984 2.1384583q-0.26940918 1.1662292 -1.2053223 2.9160461q-1.112793 2.0804749 -2.22583 3.1345215q-1.1057129 1.0402527 -2.336975 1.2882996q-1.210144 0.24160767 -2.50708 -0.44769287q-1.6970825 -0.901947 -2.020874 -2.6488342q-0.37042236 -2.09021 1.4055786 -5.4107056zm1.4763184 0.78460693q-1.5549316 2.9071655 -1.3947144 4.230957q0.18139648 1.3173218 1.1748047 1.8453064q1.0072021 0.5352783 2.1991577 -0.06985474q1.1918945 -0.6051636 2.739502 -3.4985657q1.5549316 -2.9071655 1.3873291 -4.217163q-0.16760254 -1.3099976 -1.1885986 -1.8526306q-0.9934082 -0.5279541 -2.036255 -0.0028076172q-1.3336182 0.6713867 -2.8812256 3.5647583z" fill-rule="nonzero"/><path fill="#000000" d="m179.70341 311.0735l0 0c0 -11.010895 8.20694 -19.937012 18.330704 -19.937012l0 0c4.861603 0 9.524094 2.1004944 12.961777 5.8394165c3.4376678 3.738922 5.368927 8.809967 5.368927 14.097595l0 0c0 11.010895 -8.206924 19.937012 -18.330704 19.937012l0 0c-10.123764 0 -18.330704 -8.926117 -18.330704 -19.937012z" fill-rule="evenodd"/><path stroke="#000000" stroke-width="1.0" stroke-linejoin="round" stroke-linecap="butt" d="m179.70341 311.0735l0 0c0 -11.010895 8.20694 -19.937012 18.330704 -19.937012l0 0c4.861603 0 9.524094 2.1004944 12.961777 5.8394165c3.4376678 3.738922 5.368927 8.809967 5.368927 14.097595l0 0c0 11.010895 -8.206924 19.937012 -18.330704 19.937012l0 0c-10.123764 0 -18.330704 -8.926117 -18.330704 -19.937012z" fill-rule="evenodd"/><path fill="#000000" fill-opacity="0.0" d="m210.9959 296.9759l47.527542 -43.55905" fill-rule="evenodd"/><path stroke="#000000" stroke-width="1.0" stroke-linejoin="round" stroke-linecap="butt" d="m210.9959 296.9759l43.10428 -39.505096" fill-rule="evenodd"/><path fill="#000000" stroke="#000000" stroke-width="1.0" stroke-linecap="butt" d="m255.21617 258.68848l2.229538 -4.2838745l-4.461548 1.8485107z" fill-rule="evenodd"/><path fill="#000000" fill-opacity="0.0" d="m710.5376 181.87569c0 -19.907654 -89.29132 -39.823196 -178.58264 -39.815323c-89.29135 0.007873535 -178.58267 19.939163 -178.58267 39.878326" fill-rule="evenodd"/><path stroke="#000000" stroke-width="1.0" stroke-linejoin="round" stroke-linecap="butt" d="m710.53766 181.8757c0 -19.90767 -89.29132 -39.82321 -178.5827 -39.81534c-44.64566 0.0039367676 -89.29132 4.9887238 -122.77557 12.464935c-16.742126 3.7380981 -30.693909 8.09906 -40.460144 12.771683c-4.8831177 2.3363037 -8.719849 4.750534 -11.335785 7.2037964c-0.6539917 0.61331177 -1.23172 1.229065 -1.7303467 1.8466492l-0.024963379 0.03149414" fill-rule="evenodd"/><path fill="#000000" stroke="#000000" stroke-width="1.0" stroke-linecap="butt" d="m354.09763 175.7579l-0.1756897 4.8261414l3.2367554 -3.5841064z" fill-rule="evenodd"/><path fill="#000000" fill-opacity="0.0" d="m462.53674 100.043304l138.83466 0l0 42.015747l-138.83466 0z" fill-rule="evenodd"/><path fill="#000000" d="m499.47418 115.49455l0 -1.890625l1.640625 0l0 1.890625l-1.640625 0zm0 11.46875l0 -9.671875l1.640625 0l0 9.671875l-1.640625 0zm12.769836 -7.859375l-8.828125 0l0 -1.515625l8.828125 0l0 1.515625zm0 4.0625l-8.828125 0l0 -1.53125l8.828125 0l0 1.53125zm1.8168335 -2.796875q0 -2.359375 0.484375 -3.796875q0.484375 -1.453125 1.4375 -2.234375q0.96875 -0.78125 2.421875 -0.78125q1.078125 0 1.890625 0.4375q0.8125 0.421875 1.328125 1.25q0.53125 0.8125 0.828125 1.984375q0.3125 1.15625 0.3125 3.140625q0 2.359375 -0.484375 3.8125q-0.484375 1.4375 -1.453125 2.234375q-0.953125 0.78125 -2.421875 0.78125q-1.921875 0 -3.03125 -1.390625q-1.3125 -1.671875 -1.3125 -5.4375zm1.671875 0q0 3.296875 0.765625 4.390625q0.78125 1.078125 1.90625 1.078125q1.140625 0 1.90625 -1.09375q0.765625 -1.09375 0.765625 -4.375q0 -3.296875 -0.765625 -4.375q-0.765625 -1.078125 -1.921875 -1.078125q-1.125 0 -1.796875 0.953125q-0.859375 1.21875 -0.859375 4.5zm9.578857 6.59375l0 -1.875l1.875 0l0 1.875q0 1.03125 -0.375 1.65625q-0.359375 0.640625 -1.15625 0.984375l-0.453125 -0.703125q0.515625 -0.21875 0.765625 -0.671875q0.25 -0.4375 0.28125 -1.265625l-0.9375 0zm9.335327 -4.84375q0 -2.6875 1.484375 -3.96875q1.25 -1.078125 3.046875 -1.078125q2.0 0 3.265625 1.3125q1.265625 1.296875 1.265625 3.609375q0 1.859375 -0.5625 2.9375q-0.5625 1.0625 -1.640625 1.65625q-1.0625 0.59375 -2.328125 0.59375q-2.03125 0 -3.28125 -1.296875q-1.25 -1.3125 -1.25 -3.765625zm1.6875 0q0 1.859375 0.796875 2.796875q0.8125 0.921875 2.046875 0.921875q1.21875 0 2.03125 -0.921875q0.8125 -0.9375 0.8125 -2.84375q0 -1.796875 -0.8125 -2.71875q-0.8125 -0.921875 -2.03125 -0.921875q-1.234375 0 -2.046875 0.921875q-0.796875 0.90625 -0.796875 2.765625zm17.922607 -3.015625l-8.828125 0l0 -1.515625l8.828125 0l0 1.515625zm0 4.0625l-8.828125 0l0 -1.53125l8.828125 0l0 1.53125zm1.8168335 -2.796875q0 -2.359375 0.484375 -3.796875q0.484375 -1.453125 1.4375 -2.234375q0.96875 -0.78125 2.421875 -0.78125q1.078125 0 1.890625 0.4375q0.8125 0.421875 1.328125 1.25q0.53125 0.8125 0.828125 1.984375q0.3125 1.15625 0.3125 3.140625q0 2.359375 -0.484375 3.8125q-0.484375 1.4375 -1.453125 2.234375q-0.953125 0.78125 -2.421875 0.78125q-1.921875 0 -3.03125 -1.390625q-1.3125 -1.671875 -1.3125 -5.4375zm1.671875 0q0 3.296875 0.765625 4.390625q0.78125 1.078125 1.90625 1.078125q1.140625 0 1.90625 -1.09375q0.765625 -1.09375 0.765625 -4.375q0 -3.296875 -0.765625 -4.375q-0.765625 -1.078125 -1.921875 -1.078125q-1.125 0 -1.796875 0.953125q-0.859375 1.21875 -0.859375 4.5z" fill-rule="nonzero"/></g></svg>