<?xml version="1.0" encoding="UTF-8" standalone="no"?>
<svg
   version="1.1"
   viewBox="0 0 700 450"
   fill="none"
   stroke="none"
   stroke-linecap="square"
   stroke-miterlimit="10"
   id="svg123"
   sodipodi:docname="example_fsm.svg"
   width="700"
   height="450"
   inkscape:version="1.1.1 (eb90963e84, 2021-10-02)"
   xmlns:inkscape="http://www.inkscape.org/namespaces/inkscape"
   xmlns:sodipodi="http://sodipodi.sourceforge.net/DTD/sodipodi-0.dtd"
   xmlns="http://www.w3.org/2000/svg"
   xmlns:svg="http://www.w3.org/2000/svg">
  <defs
     id="defs127" />
  <sodipodi:namedview
     id="namedview125"
     pagecolor="#ffffff"
     bordercolor="#666666"
     borderopacity="1.0"
     inkscape:pageshadow="2"
     inkscape:pageopacity="0.0"
     inkscape:pagecheckerboard="0"
     showgrid="false"
     width="700px"
     inkscape:zoom="0.78319765"
     inkscape:cx="307.07447"
     inkscape:cy="446.24751"
     inkscape:window-width="1864"
     inkscape:window-height="1016"
     inkscape:window-x="56"
     inkscape:window-y="27"
     inkscape:window-maximized="1"
     inkscape:current-layer="svg123" />
  <clipPath
     id="p.0">
    <path
       d="M 0,0 H 960 V 720 H 0 Z"
       clip-rule="nonzero"
       id="path2" />
  </clipPath>
  <g
     clip-path="url(#p.0)"
     id="g121"
     transform="translate(-158.12914,-94.602711)">
    <path
       fill="#000000"
       fill-opacity="0"
       d="M 0,0 H 960 V 720 H 0 Z"
       fill-rule="evenodd"
       id="path5" />
    <path
       fill="#cfe2f3"
       d="m 238.89764,217.64305 v 0 c 0,-27.93605 30.02161,-50.58269 67.05512,-50.58269 v 0 c 37.0335,0 67.05511,22.64664 67.05511,50.58269 v 0 c 0,27.93603 -30.02161,50.58266 -67.05511,50.58266 v 0 c -37.03351,0 -67.05512,-22.64663 -67.05512,-50.58266 z"
       fill-rule="evenodd"
       id="path7" />
    <path
       stroke="#000000"
       stroke-width="1"
       stroke-linejoin="round"
       stroke-linecap="butt"
       d="m 238.89764,217.64305 v 0 c 0,-27.93605 30.02161,-50.58269 67.05512,-50.58269 v 0 c 37.0335,0 67.05511,22.64664 67.05511,50.58269 v 0 c 0,27.93603 -30.02161,50.58266 -67.05511,50.58266 v 0 c -37.03351,0 -67.05512,-22.64663 -67.05512,-50.58266 z"
       fill-rule="evenodd"
       id="path9" />
    <path
       fill="#000000"
       d="m 299.6997,224.56305 5.125,-13.35938 h 1.90625 l 5.46875,13.35938 h -2.01563 l -1.54687,-4.04688 h -5.59375 l -1.46875,4.04688 z m 3.85937,-5.48438 h 4.53125 l -1.40625,-3.70312 q -0.625,-1.6875 -0.9375,-2.76563 -0.26562,1.28125 -0.71875,2.54688 z"
       fill-rule="nonzero"
       id="path11" />
    <path
       fill="#cfe2f3"
       d="m 464.89764,217.64305 v 0 c 0,-27.93605 30.02161,-50.58269 67.05512,-50.58269 v 0 c 37.0335,0 67.05511,22.64664 67.05511,50.58269 v 0 c 0,27.93603 -30.02161,50.58266 -67.05511,50.58266 v 0 c -37.03351,0 -67.05512,-22.64663 -67.05512,-50.58266 z"
       fill-rule="evenodd"
       id="path13" />
    <path
       stroke="#000000"
       stroke-width="1"
       stroke-linejoin="round"
       stroke-linecap="butt"
       d="m 464.89764,217.64305 v 0 c 0,-27.93605 30.02161,-50.58269 67.05512,-50.58269 v 0 c 37.0335,0 67.05511,22.64664 67.05511,50.58269 v 0 c 0,27.93603 -30.02161,50.58266 -67.05511,50.58266 v 0 c -37.03351,0 -67.05512,-22.64663 -67.05512,-50.58266 z"
       fill-rule="evenodd"
       id="path15" />
    <path
       fill="#000000"
       d="m 527.09033,224.56305 v -13.35938 h 5.01562 q 1.53125,0 2.45313,0.40625 0.92187,0.40625 1.4375,1.25 0.53125,0.84375 0.53125,1.76563 0,0.85937 -0.46875,1.625 -0.45313,0.75 -1.39063,1.20312 1.20313,0.35938 1.85938,1.21875 0.65625,0.85938 0.65625,2.01563 0,0.9375 -0.40625,1.75 -0.39063,0.79687 -0.98438,1.23437 -0.57812,0.4375 -1.45312,0.67188 -0.875,0.21875 -2.15625,0.21875 z m 1.78125,-7.75 h 2.875 q 1.1875,0 1.6875,-0.14063 0.67187,-0.20312 1.01562,-0.67187 0.34375,-0.46875 0.34375,-1.17188 0,-0.65625 -0.32812,-1.15625 -0.3125,-0.51562 -0.90625,-0.70312 -0.59375,-0.1875 -2.03125,-0.1875 h -2.65625 z m 0,6.17187 h 3.3125 q 0.85937,0 1.20312,-0.0625 0.60938,-0.10937 1.01563,-0.35937 0.42187,-0.26563 0.6875,-0.75 0.26562,-0.48438 0.26562,-1.125 0,-0.75 -0.39062,-1.29688 -0.375,-0.54687 -1.0625,-0.76562 -0.67188,-0.23438 -1.95313,-0.23438 h -3.07812 z"
       fill-rule="nonzero"
       id="path17" />
    <path
       fill="#cfe2f3"
       d="m 690.89764,217.64305 v 0 c 0,-27.93605 30.02161,-50.58269 67.05512,-50.58269 v 0 c 37.0335,0 67.05511,22.64664 67.05511,50.58269 v 0 c 0,27.93603 -30.02161,50.58266 -67.05511,50.58266 v 0 c -37.03351,0 -67.05512,-22.64663 -67.05512,-50.58266 z"
       fill-rule="evenodd"
       id="path19" />
    <path
       stroke="#000000"
       stroke-width="1"
       stroke-linejoin="round"
       stroke-linecap="butt"
       d="m 690.89764,217.64305 v 0 c 0,-27.93605 30.02161,-50.58269 67.05512,-50.58269 v 0 c 37.0335,0 67.05511,22.64664 67.05511,50.58269 v 0 c 0,27.93603 -30.02161,50.58266 -67.05511,50.58266 v 0 c -37.03351,0 -67.05512,-22.64663 -67.05512,-50.58266 z"
       fill-rule="evenodd"
       id="path21" />
    <path
       fill="#000000"
       d="m 762.18506,219.87555 1.76563,0.45312 q -0.5625,2.17188 -2,3.32813 -1.4375,1.14062 -3.53125,1.14062 -2.15625,0 -3.51563,-0.875 -1.34375,-0.89062 -2.0625,-2.54687 -0.70312,-1.67188 -0.70312,-3.59375 0,-2.07813 0.79687,-3.625 0.79688,-1.5625 2.26563,-2.35938 1.48437,-0.8125 3.25,-0.8125 2,0 3.35937,1.01563 1.375,1.01562 1.90625,2.875 l -1.73437,0.40625 q -0.46875,-1.45313 -1.35938,-2.10938 -0.875,-0.67187 -2.20312,-0.67187 -1.54688,0 -2.57813,0.73437 -1.03125,0.73438 -1.45312,1.98438 -0.42188,1.23437 -0.42188,2.5625 0,1.70312 0.5,2.96875 0.5,1.26562 1.54688,1.90625 1.04687,0.625 2.26562,0.625 1.48438,0 2.51563,-0.85938 1.03125,-0.85937 1.39062,-2.54687 z"
       fill-rule="nonzero"
       id="path23" />
    <path
       fill="#cfe2f3"
       d="m 690.89764,475.0551 v 0 c 0,-27.93604 30.02161,-50.58267 67.05512,-50.58267 v 0 c 37.0335,0 67.05511,22.64663 67.05511,50.58267 v 0 c 0,27.93603 -30.02161,50.5827 -67.05511,50.5827 v 0 c -37.03351,0 -67.05512,-22.64666 -67.05512,-50.5827 z"
       fill-rule="evenodd"
       id="path25" />
    <path
       stroke="#000000"
       stroke-width="1"
       stroke-linejoin="round"
       stroke-linecap="butt"
       d="m 690.89764,475.0551 v 0 c 0,-27.93604 30.02161,-50.58267 67.05512,-50.58267 v 0 c 37.0335,0 67.05511,22.64663 67.05511,50.58267 v 0 c 0,27.93603 -30.02161,50.5827 -67.05511,50.5827 v 0 c -37.03351,0 -67.05512,-22.64666 -67.05512,-50.5827 z"
       fill-rule="evenodd"
       id="path27" />
    <path
       fill="#000000"
       d="m 752.6538,481.97513 v -13.35938 h 4.60938 q 1.54687,0 2.375,0.20313 1.14062,0.25 1.95312,0.95312 1.0625,0.89063 1.57813,2.28125 0.53125,1.39063 0.53125,3.17188 0,1.51562 -0.35938,2.70312 -0.35937,1.17188 -0.92187,1.9375 -0.54688,0.76563 -1.20313,1.21875 -0.65625,0.4375 -1.59375,0.67188 -0.9375,0.21875 -2.14062,0.21875 z m 1.76563,-1.57813 h 2.85937 q 1.3125,0 2.0625,-0.23437 0.75,-0.25 1.20313,-0.70313 0.625,-0.625 0.96875,-1.6875 0.35937,-1.0625 0.35937,-2.57812 0,-2.09375 -0.6875,-3.21875 -0.6875,-1.125 -1.67187,-1.5 -0.70313,-0.28125 -2.28125,-0.28125 h -2.8125 z"
       fill-rule="nonzero"
       id="path29" />
    <path
       fill="#000000"
       fill-opacity="0"
       d="m 373.00787,217.64305 h 91.90552"
       fill-rule="evenodd"
       id="path31" />
    <path
       stroke="#000000"
       stroke-width="1"
       stroke-linejoin="round"
       stroke-linecap="butt"
       d="m 373.00787,217.64305 h 85.90552"
       fill-rule="evenodd"
       id="path33" />
    <path
       fill="#000000"
       stroke="#000000"
       stroke-width="1"
       stroke-linecap="butt"
       d="m 458.9134,219.29478 4.53809,-1.65173 -4.53809,-1.65174 z"
       fill-rule="evenodd"
       id="path35" />
    <path
       fill="#000000"
       fill-opacity="0"
       d="m 349.5433,175.6273 h 138.83466 v 42.01575 H 349.5433 Z"
       fill-rule="evenodd"
       id="path37" />
    <path
       fill="#000000"
       d="m 386.48074,191.07855 v -1.89063 h 1.64063 v 1.89063 z m 0,11.46875 v -9.67188 h 1.64063 v 9.67188 z m 12.76984,-7.85938 h -8.82813 v -1.51562 h 8.82813 z m 0,4.0625 h -8.82813 v -1.53125 h 8.82813 z m 7.9887,3.79688 h -1.64062 v -10.45313 q -0.59375,0.5625 -1.5625,1.14063 -0.95313,0.5625 -1.71875,0.84375 v -1.59375 q 1.375,-0.64063 2.40625,-1.5625 1.03125,-0.92188 1.45312,-1.78125 h 1.0625 z m 5.07883,0 v -1.875 h 1.87503 v 1.875 q 0,1.03125 -0.375,1.65625 -0.3594,0.64062 -1.15628,0.98437 l -0.45312,-0.70312 q 0.51562,-0.21875 0.76562,-0.67188 0.25,-0.4375 0.28125,-1.26562 z m 9.33539,-4.84375 q 0,-2.6875 1.48437,-3.96875 1.25,-1.07813 3.04688,-1.07813 2,0 3.26562,1.3125 1.26563,1.29688 1.26563,3.60938 0,1.85937 -0.5625,2.9375 -0.5625,1.0625 -1.64063,1.65625 -1.0625,0.59375 -2.32812,0.59375 -2.03125,0 -3.28125,-1.29688 -1.25,-1.3125 -1.25,-3.76562 z m 1.6875,0 q 0,1.85937 0.79687,2.79687 0.8125,0.92188 2.04688,0.92188 1.21875,0 2.03125,-0.92188 0.8125,-0.9375 0.8125,-2.84375 0,-1.79687 -0.8125,-2.71875 -0.8125,-0.92187 -2.03125,-0.92187 -1.23438,0 -2.04688,0.92187 -0.79687,0.90625 -0.79687,2.76563 z m 17.92258,-3.01563 h -8.82813 v -1.51562 h 8.82813 z m 0,4.0625 h -8.82813 v -1.53125 h 8.82813 z m 7.9887,3.79688 h -1.64062 v -10.45313 q -0.59375,0.5625 -1.5625,1.14063 -0.95313,0.5625 -1.71875,0.84375 v -1.59375 q 1.375,-0.64063 2.40625,-1.5625 1.03125,-0.92188 1.45312,-1.78125 h 1.0625 z"
       fill-rule="nonzero"
       id="path39" />
    <path
       fill="#000000"
       fill-opacity="0"
       d="m 599.0079,217.64305 h 91.90552"
       fill-rule="evenodd"
       id="path41" />
    <path
       stroke="#000000"
       stroke-width="1"
       stroke-linejoin="round"
       stroke-linecap="butt"
       d="m 599.0079,217.64305 h 85.90552"
       fill-rule="evenodd"
       id="path43" />
    <path
       fill="#000000"
       stroke="#000000"
       stroke-width="1"
       stroke-linecap="butt"
       d="m 684.9134,219.29478 4.53809,-1.65173 -4.53809,-1.65174 z"
       fill-rule="evenodd"
       id="path45" />
    <path
       fill="#000000"
       fill-opacity="0"
       d="M 579.3565,253.398 710.53759,439.28776"
       fill-rule="evenodd"
       id="path47" />
    <path
       stroke="#000000"
       stroke-width="1"
       stroke-linejoin="round"
       stroke-linecap="butt"
       d="M 579.35657,253.39801 707.07819,434.38553"
       fill-rule="evenodd"
       id="path49" />
    <path
       fill="#000000"
       stroke="#000000"
       stroke-width="1"
       stroke-linecap="butt"
       d="m 705.72864,435.3379 3.96613,2.75543 -1.26709,-4.66015 z"
       fill-rule="evenodd"
       id="path51" />
    <path
       fill="#000000"
       fill-opacity="0"
       d="M 690.89764,475.0551 305.95274,268.22044"
       fill-rule="evenodd"
       id="path53" />
    <path
       stroke="#000000"
       stroke-width="1"
       stroke-linejoin="round"
       stroke-linecap="butt"
       d="M 690.89764,475.0551 311.23812,271.06032"
       fill-rule="evenodd"
       id="path55" />
    <path
       fill="#000000"
       stroke="#000000"
       stroke-width="1"
       stroke-linecap="butt"
       d="m 312.0199,269.60535 -4.77936,-0.69293 3.21579,3.60293 z"
       fill-rule="evenodd"
       id="path57" />
    <path
       fill="#000000"
       fill-opacity="0"
       d="M 757.95276,424.47244 V 268.22046"
       fill-rule="evenodd"
       id="path59" />
    <path
       stroke="#000000"
       stroke-width="1"
       stroke-linejoin="round"
       stroke-linecap="butt"
       d="M 757.95276,424.47244 V 274.22046"
       fill-rule="evenodd"
       id="path61" />
    <path
       fill="#000000"
       stroke="#000000"
       stroke-width="1"
       stroke-linecap="butt"
       d="m 759.6045,274.22046 -1.65173,-4.53809 -1.65174,4.53809 z"
       fill-rule="evenodd"
       id="path63" />
    <path
       fill="#000000"
       fill-opacity="0"
       d="m 757.95276,167.06036 c 0,-12.5 11.8504,-26.85039 23.70081,-25 11.8504,1.85039 23.70074,19.90158 23.70074,39.80315"
       fill-rule="evenodd"
       id="path65" />
    <path
       stroke="#000000"
       stroke-width="1"
       stroke-linejoin="round"
       stroke-linecap="butt"
       d="m 757.95276,167.06036 c 0,-12.5 11.8504,-26.85039 23.70081,-25 5.92517,0.9252 11.8504,5.90059 16.29425,13.13238 2.22198,3.6159 4.0736,7.7959 5.36975,12.31577 0.64807,2.25993 1.15722,4.60484 1.50445,7.00668 0.0434,0.30024 0.0842,0.60135 0.12256,0.90329 0.0191,0.15099 0.0376,0.30217 0.0554,0.45356 l 2.5e-4,0.002"
       fill-rule="evenodd"
       id="path67" />
    <path
       fill="#000000"
       stroke="#000000"
       stroke-width="1"
       stroke-linecap="butt"
       d="m 803.3514,175.97145 1.91669,4.43271 1.38104,-4.62766 z"
       fill-rule="evenodd"
       id="path69" />
    <path
       fill="#000000"
       fill-opacity="0"
       d="m 575.5302,180.68636 h 138.8346 v 42.01575 H 575.5302 Z"
       fill-rule="evenodd"
       id="path71" />
    <path
       fill="#000000"
       d="m 612.46765,196.1376 v -1.89063 h 1.64063 v 1.89063 z m 0,11.46875 v -9.67188 h 1.64063 v 9.67188 z m 12.76978,-7.85938 h -8.82813 v -1.51562 h 8.82813 z m 0,4.0625 h -8.82813 v -1.53125 h 8.82813 z m 1.81683,-2.79687 q 0,-2.35938 0.48437,-3.79688 0.48438,-1.45312 1.4375,-2.23437 0.96875,-0.78125 2.42188,-0.78125 1.07812,0 1.89062,0.4375 0.8125,0.42187 1.32813,1.25 0.53125,0.8125 0.82812,1.98437 0.3125,1.15625 0.3125,3.14063 0,2.35937 -0.48437,3.8125 -0.48438,1.4375 -1.45313,2.23437 -0.95312,0.78125 -2.42187,0.78125 -1.92188,0 -3.03125,-1.39062 -1.3125,-1.67188 -1.3125,-5.4375 z m 1.67187,0 q 0,3.29687 0.76563,4.39062 0.78125,1.07813 1.90625,1.07813 1.14062,0 1.90625,-1.09375 0.76562,-1.09375 0.76562,-4.375 0,-3.29688 -0.76562,-4.375 -0.76563,-1.07813 -1.92188,-1.07813 -1.125,0 -1.79687,0.95313 -0.85938,1.21875 -0.85938,4.5 z m 9.57886,6.59375 v -1.875 h 1.875 v 1.875 q 0,1.03125 -0.375,1.65625 -0.35937,0.64062 -1.15625,0.98437 l -0.45312,-0.70312 q 0.51562,-0.21875 0.76562,-0.67188 0.25,-0.4375 0.28125,-1.26562 z m 9.33539,-4.84375 q 0,-2.6875 1.48437,-3.96875 1.25,-1.07813 3.04688,-1.07813 2,0 3.26562,1.3125 1.26563,1.29688 1.26563,3.60938 0,1.85937 -0.5625,2.9375 -0.5625,1.0625 -1.64063,1.65625 -1.0625,0.59375 -2.32812,0.59375 -2.03125,0 -3.28125,-1.29688 -1.25,-1.3125 -1.25,-3.76562 z m 1.6875,0 q 0,1.85937 0.79687,2.79687 0.8125,0.92188 2.04688,0.92188 1.21875,0 2.03125,-0.92188 0.8125,-0.9375 0.8125,-2.84375 0,-1.79687 -0.8125,-2.71875 -0.8125,-0.92187 -2.03125,-0.92187 -1.23438,0 -2.04688,0.92187 -0.79687,0.90625 -0.79687,2.76563 z m 17.92261,-3.01563 h -8.82813 v -1.51562 h 8.82813 z m 0,4.0625 h -8.82813 v -1.53125 h 8.82813 z m 1.81683,-2.79687 q 0,-2.35938 0.48437,-3.79688 0.48438,-1.45312 1.4375,-2.23437 0.96875,-0.78125 2.42188,-0.78125 1.07812,0 1.89062,0.4375 0.8125,0.42187 1.32813,1.25 0.53125,0.8125 0.82812,1.98437 0.3125,1.15625 0.3125,3.14063 0,2.35937 -0.48437,3.8125 -0.48438,1.4375 -1.45313,2.23437 -0.95312,0.78125 -2.42187,0.78125 -1.92188,0 -3.03125,-1.39062 -1.3125,-1.67188 -1.3125,-5.4375 z m 1.67187,0 q 0,3.29687 0.76563,4.39062 0.78125,1.07813 1.90625,1.07813 1.14062,0 1.90625,-1.09375 0.76562,-1.09375 0.76562,-4.375 0,-3.29688 -0.76562,-4.375 -0.76563,-1.07813 -1.92188,-1.07813 -1.125,0 -1.79687,0.95313 -0.85938,1.21875 -0.85938,4.5 z"
       fill-rule="nonzero"
       id="path73" />
    <path
       fill="#000000"
       fill-opacity="0"
       d="m 212.82152,100.04462 h 138.83464 v 42.01575 H 212.82152 Z"
       fill-rule="evenodd"
       id="path75" />
    <path
       fill="#000000"
       d="m 249.75897,115.49586 v -1.89062 h 1.64062 v 1.89062 z m 0,11.46875 v -9.67187 h 1.64062 v 9.67187 z m 12.76984,-7.85937 h -8.82814 v -1.51563 h 8.82814 z m 0,4.0625 h -8.82814 v -1.53125 h 8.82814 z m 1.81683,-2.79688 q 0,-2.35937 0.48437,-3.79687 0.48438,-1.45313 1.4375,-2.23438 0.96875,-0.78125 2.42188,-0.78125 1.07812,0 1.89062,0.4375 0.8125,0.42188 1.32813,1.25 0.53125,0.8125 0.82812,1.98438 0.3125,1.15625 0.3125,3.14062 0,2.35938 -0.48437,3.8125 -0.48438,1.4375 -1.45313,2.23438 -0.95312,0.78125 -2.42187,0.78125 -1.92188,0 -3.03125,-1.39063 -1.3125,-1.67187 -1.3125,-5.4375 z m 1.67187,0 q 0,3.29688 0.76563,4.39063 0.78125,1.07812 1.90625,1.07812 1.14062,0 1.90625,-1.09375 0.76562,-1.09375 0.76562,-4.375 0,-3.29687 -0.76562,-4.375 -0.76563,-1.07812 -1.92188,-1.07812 -1.125,0 -1.79687,0.95312 -0.85938,1.21875 -0.85938,4.5 z m 9.57883,6.59375 v -1.875 h 1.875 v 1.875 q 0,1.03125 -0.375,1.65625 -0.35937,0.64063 -1.15625,0.98438 l -0.45312,-0.70313 q 0.51562,-0.21875 0.76562,-0.67187 0.25,-0.4375 0.28125,-1.26563 z m 9.33536,-4.84375 q 0,-2.6875 1.48437,-3.96875 1.25,-1.07812 3.04688,-1.07812 2,0 3.26562,1.3125 1.26563,1.29687 1.26563,3.60937 0,1.85938 -0.5625,2.9375 -0.5625,1.0625 -1.64063,1.65625 -1.0625,0.59375 -2.32812,0.59375 -2.03125,0 -3.28125,-1.29687 -1.25,-1.3125 -1.25,-3.76563 z m 1.6875,0 q 0,1.85938 0.79687,2.79688 0.8125,0.92187 2.04688,0.92187 1.21875,0 2.03125,-0.92187 0.8125,-0.9375 0.8125,-2.84375 0,-1.79688 -0.8125,-2.71875 -0.8125,-0.92188 -2.03125,-0.92188 -1.23438,0 -2.04688,0.92188 -0.79687,0.90625 -0.79687,2.76562 z m 17.92261,-3.01562 h -8.82813 v -1.51563 h 8.82813 z m 0,4.0625 h -8.82813 v -1.53125 h 8.82813 z m 7.9887,3.79687 h -1.64062 v -10.45312 q -0.59375,0.5625 -1.5625,1.14062 -0.95313,0.5625 -1.71875,0.84375 v -1.59375 q 1.375,-0.64062 2.40625,-1.5625 1.03125,-0.92187 1.45312,-1.78125 h 1.0625 z"
       fill-rule="nonzero"
       id="path77" />
    <path
       fill="#000000"
       fill-opacity="0"
       d="m 258.53763,181.87569 c 0,-19.90764 11.8504,-37.96489 23.70077,-39.81529 11.85041,-1.85039 23.70081,12.50607 23.70081,25.01214"
       fill-rule="evenodd"
       id="path79" />
    <path
       stroke="#000000"
       stroke-width="1"
       stroke-linejoin="round"
       stroke-linecap="butt"
       d="m 258.53763,181.8757 c 0,-19.90765 11.8504,-37.96491 23.70077,-39.81531 5.92521,-0.92518 11.85041,2.20133 16.29432,7.12241 2.22195,2.46052 4.07357,5.36972 5.36969,8.44537 0.32406,0.76892 0.61337,1.54825 0.86505,2.33357 0.063,0.19634 0.1235,0.39304 0.1817,0.59005 l 0.16336,0.57797"
       fill-rule="evenodd"
       id="path81" />
    <path
       fill="#000000"
       stroke="#000000"
       stroke-width="1"
       stroke-linecap="butt"
       d="m 303.47653,161.35733 2.26126,4.26724 1.01071,-4.72238 z"
       fill-rule="evenodd"
       id="path83" />
    <path
       fill="#000000"
       fill-opacity="0"
       d="m 709.54333,100.04462 h 138.8346 v 42.01575 h -138.8346 z"
       fill-rule="evenodd"
       id="path85" />
    <path
       fill="#000000"
       d="m 746.4808,115.49586 v -1.89062 h 1.64063 v 1.89062 z m 0,11.46875 v -9.67187 h 1.64063 v 9.67187 z m 12.76978,-7.85937 h -8.82813 v -1.51563 h 8.82813 z m 0,4.0625 h -8.82813 v -1.53125 h 8.82813 z m 7.9887,3.79687 h -1.64062 v -10.45312 q -0.59375,0.5625 -1.5625,1.14062 -0.95313,0.5625 -1.71875,0.84375 v -1.59375 q 1.375,-0.64062 2.40625,-1.5625 1.03125,-0.92187 1.45312,-1.78125 h 1.0625 z m 5.07886,0 v -1.875 h 1.875 v 1.875 q 0,1.03125 -0.375,1.65625 -0.35937,0.64063 -1.15625,0.98438 l -0.45312,-0.70313 q 0.51562,-0.21875 0.76562,-0.67187 0.25,-0.4375 0.28125,-1.26563 z m 9.33539,-4.84375 q 0,-2.6875 1.48437,-3.96875 1.25,-1.07812 3.04688,-1.07812 2,0 3.26562,1.3125 1.26563,1.29687 1.26563,3.60937 0,1.85938 -0.5625,2.9375 -0.5625,1.0625 -1.64063,1.65625 -1.0625,0.59375 -2.32812,0.59375 -2.03125,0 -3.28125,-1.29687 -1.25,-1.3125 -1.25,-3.76563 z m 1.6875,0 q 0,1.85938 0.79687,2.79688 0.8125,0.92187 2.04688,0.92187 1.21875,0 2.03125,-0.92187 0.8125,-0.9375 0.8125,-2.84375 0,-1.79688 -0.8125,-2.71875 -0.8125,-0.92188 -2.03125,-0.92188 -1.23438,0 -2.04688,0.92188 -0.79687,0.90625 -0.79687,2.76562 z m 17.92261,-3.01562 h -8.82813 v -1.51563 h 8.82813 z m 0,4.0625 h -8.82813 v -1.53125 h 8.82813 z m 7.9887,3.79687 h -1.64062 v -10.45312 q -0.59375,0.5625 -1.5625,1.14062 -0.95313,0.5625 -1.71875,0.84375 v -1.59375 q 1.375,-0.64062 2.40625,-1.5625 1.03125,-0.92187 1.45312,-1.78125 h 1.0625 z"
       fill-rule="nonzero"
       id="path87" />
    <path
       fill="#000000"
       fill-opacity="0"
       d="M 799.9685,285.2966 V 424.13123 H 757.95275 V 285.2966 Z"
       fill-rule="evenodd"
       id="path89" />
    <path
       fill="#000000"
       d="m 784.5173,322.23404 h 1.89062 v 1.64062 h -1.89062 z m -11.46875,0 h 9.67187 v 1.64062 h -9.67187 z m 7.85937,12.76981 v -8.82813 h 1.51563 v 8.82813 z m -4.0625,0 v -8.82813 h 1.53125 v 8.82813 z m 2.79688,1.81683 q 2.35937,0 3.79687,0.48437 1.45313,0.48438 2.23438,1.4375 0.78125,0.96875 0.78125,2.42188 0,1.07812 -0.4375,1.89062 -0.42188,0.8125 -1.25,1.32813 -0.8125,0.53125 -1.98438,0.82812 -1.15625,0.3125 -3.14062,0.3125 -2.35938,0 -3.8125,-0.48437 -1.4375,-0.48438 -2.23438,-1.45313 -0.78125,-0.95312 -0.78125,-2.42187 0,-1.92188 1.39063,-3.03125 1.67187,-1.3125 5.4375,-1.3125 z m 0,1.67187 q -3.29688,0 -4.39063,0.76563 -1.07812,0.78125 -1.07812,1.90625 0,1.14062 1.09375,1.90625 1.09375,0.76562 4.375,0.76562 3.29687,0 4.375,-0.76562 1.07812,-0.76563 1.07812,-1.92188 0,-1.125 -0.95312,-1.79687 -1.21875,-0.85938 -4.5,-0.85938 z m -6.59375,9.57886 h 1.875 v 1.875 h -1.875 q -1.03125,0 -1.65625,-0.375 -0.64063,-0.35937 -0.98438,-1.15625 l 0.70313,-0.45312 q 0.21875,0.51562 0.67187,0.76562 0.4375,0.25 1.26563,0.28125 z m 4.84375,9.33536 q 2.6875,0 3.96875,1.48437 1.07812,1.25 1.07812,3.04688 0,2 -1.3125,3.26562 -1.29687,1.26563 -3.60937,1.26563 -1.85938,0 -2.9375,-0.5625 -1.0625,-0.5625 -1.65625,-1.64063 -0.59375,-1.0625 -0.59375,-2.32812 0,-2.03125 1.29687,-3.28125 1.3125,-1.25 3.76563,-1.25 z m 0,1.6875 q -1.85938,0 -2.79688,0.79687 -0.92187,0.8125 -0.92187,2.04688 0,1.21875 0.92187,2.03125 0.9375,0.8125 2.84375,0.8125 1.79688,0 2.71875,-0.8125 0.92188,-0.8125 0.92188,-2.03125 0,-1.23438 -0.92188,-2.04688 -0.90625,-0.79687 -2.76562,-0.79687 z m 3.01562,17.92261 v -8.82813 h 1.51563 v 8.82813 z m -4.0625,0 v -8.82813 h 1.53125 v 8.82813 z m -3.79687,7.9887 v -1.64062 h 10.45312 q -0.5625,-0.59375 -1.14062,-1.5625 -0.5625,-0.95313 -0.84375,-1.71875 h 1.59375 q 0.64062,1.375 1.5625,2.40625 0.92187,1.03125 1.78125,1.45312 v 1.0625 z"
       fill-rule="nonzero"
       id="path91" />
    <path
       fill="#000000"
       fill-opacity="0"
       d="m 644.92944,277.43585 79.6535,113.73227 -34.45667,24.06299 -79.65356,-113.73227 z"
       fill-rule="evenodd"
       id="path93" />
    <path
       fill="#000000"
       d="m 653.4558,316.54465 1.55011,-1.08249 0.94116,1.34384 -1.55011,1.08249 z m -9.40283,6.56653 7.92969,-5.53772 0.94116,1.34384 -7.92969,5.53769 z m 13.76916,5.95972 -5.06433,-7.23105 1.24262,-0.86777 5.06433,7.23105 z m -3.33069,2.32601 -5.06433,-7.23104 1.25544,-0.87674 5.06433,7.23108 z m 1.46991,8.71744 -0.94116,-1.34384 8.57013,-5.98501 q -0.80176,-0.16425 -1.83148,-0.62674 -1.00794,-0.45865 -1.67774,-0.92475 l 1.30665,-0.9125 q 1.31402,0.75946 2.66143,1.07632 1.34735,0.31686 2.29395,0.17038 l 0.60956,0.8703 z m 2.91352,4.16004 1.53723,-1.07355 1.07562,1.5358 -1.53723,1.07354 q -0.84552,0.59046 -1.57306,0.64115 -0.73138,0.0725 -1.47034,-0.38346 l 0.31653,-0.77374 q 0.47516,0.29709 0.99005,0.24243 0.50214,-0.0457 1.19898,-0.49426 z m 9.32654,4.8732 q 2.20336,-1.53873 4.10534,-1.05649 1.60102,0.40658 2.63184,1.87839 1.14728,1.63818 0.79724,3.42633 -0.33722,1.7792 -2.23315,3.10324 -1.52442,1.0646 -2.73102,1.22116 -1.19379,0.14758 -2.29908,-0.39554 -1.09631,-0.53033 -1.82232,-1.56699 -1.16529,-1.66378 -0.81909,-3.4302 0.35901,-1.77533 2.37024,-3.1799 z m 0.96807,1.38223 q -1.52447,1.0646 -1.83593,2.25409 -0.28974,1.19333 0.41839,2.2044 0.69916,0.99827 1.92102,1.13596 1.23474,0.12875 2.79761,-0.96271 1.47321,-1.02881 1.76294,-2.22213 0.28967,-1.19336 -0.40942,-2.19162 -0.70813,-1.01108 -1.93006,-1.14875 -1.20013,-0.13385 -2.72455,0.93076 z m 12.75385,12.95364 -5.06433,-7.23105 1.24261,-0.86776 5.06433,7.23105 z m -3.33069,2.32602 -5.06433,-7.23105 1.25543,-0.87674 5.06433,7.23108 z m 3.33533,-0.11322 q 1.93432,-1.35086 3.39074,-1.77716 1.46924,-0.43524 2.65656,-0.10187 1.19623,0.3462 2.02985,1.53644 0.61847,0.88309 0.72589,1.79907 0.12024,0.90708 -0.26294,1.80356 -0.36139,0.90036 -1.15186,1.81449 -0.76867,0.918 -2.39563,2.05416 -1.93439,1.35087 -3.40362,1.78614 -1.45642,0.4263 -2.66547,0.089 -1.18732,-0.33341 -2.02985,-1.53644 -1.10247,-1.57419 -0.59881,-3.27908 0.6178,-2.03232 3.70514,-4.18836 z m 0.95904,1.36945 q -2.70294,1.88763 -3.16046,3.14099 -0.43579,1.2572 0.2096,2.17868 0.65435,0.93429 1.99029,0.93518 1.33594,8.8e-4 4.02612,-1.87784 2.70295,-1.88763 3.14771,-3.13205 0.4447,-1.24441 -0.21863,-2.1915 -0.64538,-0.92147 -1.81219,-0.92608 -1.49225,-0.006 -4.18244,1.87262 z"
       fill-rule="nonzero"
       id="path95" />
    <path
       fill="#000000"
       fill-opacity="0"
       d="m 480.57867,320.48523 122.6142,65.16534 -19.81103,37.03937 -122.6142,-65.16534 z"
       fill-rule="evenodd"
       id="path97" />
    <path
       fill="#000000"
       d="m 505.91742,351.44977 0.89169,-1.66714 1.44873,0.76995 -0.89169,1.66715 z m -5.40912,10.1131 4.56165,-8.5286 1.44873,0.76993 -4.56165,8.52863 z m 14.98303,-0.93741 -7.79559,-4.1431 0.71484,-1.33645 7.79554,4.14306 z m -1.91607,3.58227 -7.79554,-4.14306 0.7222,-1.35025 7.79557,4.14306 z m 5.26355,7.0972 -1.44873,-0.76996 4.93011,-9.21749 q -0.78955,0.21734 -1.91766,0.27252 -1.107,0.0487 -1.91571,-0.0626 l 0.75171,-1.40537 q 1.51629,0.0804 2.86175,-0.24853 1.3454,-0.32892 2.12323,-0.88874 l 0.93823,0.49863 z m 4.4848,2.38355 0.88434,-1.65338 1.6557,0.87994 -0.88434,1.65338 q -0.48639,0.90933 -1.11231,1.28449 -0.61944,0.39624 -1.48522,0.32538 l -0.0686,-0.83268 q 0.55847,0.0491 0.99298,-0.23315 0.42707,-0.26846 0.84528,-0.98401 z m 10.52801,0.10992 q 1.26752,-2.36984 3.18256,-2.80301 1.6123,-0.36404 3.19897,0.47922 1.76606,0.93863 2.26465,2.68994 0.50592,1.73755 -0.58471,3.77671 -0.87696,1.63958 -1.88214,2.32626 -0.99787,0.67294 -2.22992,0.69052 -1.21827,0.0249 -2.33588,-0.56903 -1.79364,-0.95328 -2.28577,-2.68347 -0.4848,-1.74399 0.67224,-3.90714 z m 1.49012,0.79193 q -0.87696,1.63959 -0.61548,2.84027 0.28271,1.19422 1.37268,1.7735 1.07623,0.57196 2.22845,0.14038 1.15967,-0.44537 2.05872,-2.12631 0.84747,-1.58447 0.56482,-2.77868 -0.28272,-1.19422 -1.35889,-1.76618 -1.09003,-0.57928 -2.24225,-0.1477 -1.1311,0.42514 -2.00805,2.06472 z m 17.24859,5.75202 -7.79559,-4.1431 0.71484,-1.33646 7.79553,4.14307 z m -1.91607,3.58227 -7.79554,-4.14306 0.72217,-1.35025 7.79559,4.14306 z m 2.92346,-1.61361 q 1.11279,-2.08048 2.2185,-3.12076 1.11304,-1.05402 2.32318,-1.29563 1.22388,-0.23425 2.50708,0.4477 0.95203,0.50598 1.46314,1.27307 0.51849,0.75329 0.58319,1.72552 0.0859,0.96579 -0.20459,2.13846 -0.26941,1.16623 -1.20532,2.91605 -1.11279,2.08047 -2.22583,3.13452 -1.10571,1.04025 -2.33698,1.2883 -1.21014,0.24161 -2.50708,-0.44769 -1.69708,-0.90195 -2.02087,-2.64884 -0.37042,-2.09021 1.40558,-5.4107 z m 1.47632,0.7846 q -1.55494,2.90717 -1.39472,4.23096 0.1814,1.31732 1.17481,1.84531 1.0072,0.53527 2.19915,-0.0699 1.1919,-0.60516 2.73951,-3.49856 1.55493,-2.90717 1.38732,-4.21717 -0.1676,-1.30999 -1.18859,-1.85263 -0.99341,-0.52795 -2.03626,-0.003 -1.33362,0.67139 -2.88122,3.56476 z"
       fill-rule="nonzero"
       id="path99" />
    <path
       fill="#000000"
       d="m 179.70341,311.0735 v 0 c 0,-11.01089 8.20694,-19.93701 18.3307,-19.93701 v 0 c 4.86161,0 9.5241,2.10049 12.96178,5.83941 3.43767,3.73893 5.36893,8.80997 5.36893,14.0976 v 0 c 0,11.01089 -8.20693,19.93701 -18.33071,19.93701 v 0 c -10.12376,0 -18.3307,-8.92612 -18.3307,-19.93701 z"
       fill-rule="evenodd"
       id="path101" />
    <path
       stroke="#000000"
       stroke-width="1"
       stroke-linejoin="round"
       stroke-linecap="butt"
       d="m 179.70341,311.0735 v 0 c 0,-11.01089 8.20694,-19.93701 18.3307,-19.93701 v 0 c 4.86161,0 9.5241,2.10049 12.96178,5.83941 3.43767,3.73893 5.36893,8.80997 5.36893,14.0976 v 0 c 0,11.01089 -8.20693,19.93701 -18.33071,19.93701 v 0 c -10.12376,0 -18.3307,-8.92612 -18.3307,-19.93701 z"
       fill-rule="evenodd"
       id="path103" />
    <path
       fill="#000000"
       fill-opacity="0"
       d="m 210.9959,296.9759 47.52754,-43.55905"
       fill-rule="evenodd"
       id="path105" />
    <path
       stroke="#000000"
       stroke-width="1"
       stroke-linejoin="round"
       stroke-linecap="butt"
       d="m 210.9959,296.9759 43.10428,-39.5051"
       fill-rule="evenodd"
       id="path107" />
    <path
       fill="#000000"
       stroke="#000000"
       stroke-width="1"
       stroke-linecap="butt"
       d="m 255.21617,258.68848 2.22954,-4.28387 -4.46155,1.84851 z"
       fill-rule="evenodd"
       id="path109" />
    <path
       fill="#000000"
       fill-opacity="0"
       d="m 710.5376,181.87569 c 0,-19.90765 -89.29132,-39.8232 -178.58264,-39.81532 -89.29135,0.008 -178.58267,19.93916 -178.58267,39.87832"
       fill-rule="evenodd"
       id="path111" />
    <path
       stroke="#000000"
       stroke-width="1"
       stroke-linejoin="round"
       stroke-linecap="butt"
       d="m 710.53766,181.8757 c 0,-19.90767 -89.29132,-39.82321 -178.5827,-39.81534 -44.64566,0.004 -89.29132,4.98872 -122.77557,12.46493 -16.74213,3.7381 -30.69391,8.09906 -40.46014,12.77169 -4.88312,2.3363 -8.71985,4.75053 -11.33579,7.20379 -0.65399,0.61332 -1.23172,1.22907 -1.73035,1.84665 l -0.025,0.0315"
       fill-rule="evenodd"
       id="path113" />
    <path
       fill="#000000"
       stroke="#000000"
       stroke-width="1"
       stroke-linecap="butt"
       d="m 354.09763,175.7579 -0.17569,4.82614 3.23676,-3.5841 z"
       fill-rule="evenodd"
       id="path115" />
    <path
       fill="#000000"
       fill-opacity="0"
       d="M 462.53674,100.0433 H 601.3714 v 42.01575 H 462.53674 Z"
       fill-rule="evenodd"
       id="path117" />
    <path
       fill="#000000"
       d="m 499.47418,115.49455 v -1.89062 h 1.64062 v 1.89062 z m 0,11.46875 v -9.67187 h 1.64062 v 9.67187 z m 12.76984,-7.85937 h -8.82813 v -1.51563 h 8.82813 z m 0,4.0625 h -8.82813 v -1.53125 h 8.82813 z m 1.81683,-2.79688 q 0,-2.35937 0.48437,-3.79687 0.48438,-1.45313 1.4375,-2.23438 0.96875,-0.78125 2.42188,-0.78125 1.07812,0 1.89062,0.4375 0.8125,0.42188 1.32813,1.25 0.53125,0.8125 0.82812,1.98438 0.3125,1.15625 0.3125,3.14062 0,2.35938 -0.48437,3.8125 -0.48438,1.4375 -1.45313,2.23438 -0.95312,0.78125 -2.42187,0.78125 -1.92188,0 -3.03125,-1.39063 -1.3125,-1.67187 -1.3125,-5.4375 z m 1.67187,0 q 0,3.29688 0.76563,4.39063 0.78125,1.07812 1.90625,1.07812 1.14062,0 1.90625,-1.09375 0.76562,-1.09375 0.76562,-4.375 0,-3.29687 -0.76562,-4.375 -0.76563,-1.07812 -1.92188,-1.07812 -1.125,0 -1.79687,0.95312 -0.85938,1.21875 -0.85938,4.5 z m 9.57886,6.59375 v -1.875 h 1.875 v 1.875 q 0,1.03125 -0.375,1.65625 -0.35937,0.64062 -1.15625,0.98437 l -0.45312,-0.70312 q 0.51562,-0.21875 0.76562,-0.67188 0.25,-0.43749 0.28125,-1.26562 z m 9.33533,-4.84375 q 0,-2.6875 1.48437,-3.96875 1.25,-1.07812 3.04688,-1.07812 2,0 3.26562,1.3125 1.26563,1.29687 1.26563,3.60937 0,1.85938 -0.5625,2.9375 -0.5625,1.0625 -1.64063,1.65625 -1.0625,0.59375 -2.32812,0.59375 -2.03125,0 -3.28125,-1.29687 -1.25,-1.3125 -1.25,-3.76563 z m 1.6875,0 q 0,1.85938 0.79687,2.79688 0.8125,0.92187 2.04688,0.92187 1.21875,0 2.03125,-0.92187 0.8125,-0.9375 0.8125,-2.84375 0,-1.79688 -0.8125,-2.71875 -0.8125,-0.92188 -2.03125,-0.92188 -1.23438,0 -2.04688,0.92188 -0.79687,0.90625 -0.79687,2.76562 z m 17.92261,-3.01562 h -8.82813 v -1.51563 h 8.82813 z m 0,4.0625 h -8.82813 v -1.53125 h 8.82813 z m 1.81683,-2.79688 q 0,-2.35937 0.48437,-3.79687 0.48438,-1.45313 1.4375,-2.23438 0.96875,-0.78125 2.42188,-0.78125 1.07812,0 1.89062,0.4375 0.8125,0.42188 1.32813,1.25 0.53125,0.8125 0.82812,1.98438 0.3125,1.15625 0.3125,3.14062 0,2.35938 -0.48437,3.8125 -0.48438,1.4375 -1.45313,2.23438 -0.95312,0.78125 -2.42187,0.78125 -1.92188,0 -3.03125,-1.39063 -1.3125,-1.67187 -1.3125,-5.4375 z m 1.67187,0 q 0,3.29688 0.76563,4.39063 0.78125,1.07812 1.90625,1.07812 1.14062,0 1.90625,-1.09375 0.76562,-1.09375 0.76562,-4.375 0,-3.29687 -0.76562,-4.375 -0.76563,-1.07812 -1.92188,-1.07812 -1.125,0 -1.79687,0.95312 -0.85938,1.21875 -0.85938,4.5 z"
       fill-rule="nonzero"
       id="path119" />
  </g>
</svg>
