%
T1C.035F197S55
X-003Y0
X-002Y0
X-003Y001
X-002Y001
X-003Y002
X-002Y002
X-003Y003
X-002Y003
X-003Y004
X-002Y004
X-003Y005
X-002Y005
X-003Y006
X-002Y006
X-003Y007
X-002Y007
X-003Y008
X-002Y008
X-003Y009
X-002Y009
X-003Y011
X-002Y011
X-003Y012
X-002Y012
X-003Y013
X-002Y013
X-003Y014
X-002Y014
X-003Y015
X-002Y015
X-003Y016
X-002Y016
X-003Y017
X-002Y017
X-003Y018
X-002Y018
X-003Y019
X-002Y019
X-003Y02
X-002Y02
X0Y021
X001Y021
X002Y021
X003Y021
X004Y021
X001Y02
X002Y02
X003Y02
X004Y02
X0Y02
X002Y0
X003Y0
X004Y0
X0Y0
X001Y0
X001Y-001
X002Y-001
X004Y-001
X0Y-001
X003Y-001
X005Y-001
X006Y-001
X009Y-001
X008Y-001
X007Y-001
X005Y0
X006Y0
X007Y0
X008Y0
X009Y0
X007Y02
X008Y02
X009Y02
X006Y02
X005Y02
X005Y021
X006Y021
X007Y021
X008Y021
X009Y021
X011Y021
X012Y021
X013Y021
X014Y021
X011Y02
X012Y02
X013Y02
X014Y02
X014Y0
X011Y0
X012Y0
X013Y0
X012Y-001
X014Y-001
X011Y-001
X013Y-001
X016Y-001
X015Y-001
X019Y-001
X017Y-001
X018Y-001
X016Y0
X019Y0
X017Y0
X015Y0
X018Y0
X016Y02
X015Y02
X017Y02
X018Y02
X019Y02
X019Y021
X017Y021
X015Y021
X018Y021
X016Y021
X02Y021
X02Y02
X023Y02
X022Y02
X023Y019
X022Y019
X023Y018
X022Y018
X023Y017
X022Y017
X023Y016
X022Y016
X023Y015
X022Y015
X023Y014
X022Y014
X023Y013
X022Y013
X022Y012
X023Y012
X022Y011
X023Y011
X023Y009
X022Y009
X023Y008
X022Y008
X023Y007
X022Y007
X022Y006
X023Y006
X023Y005
X022Y005
X022Y004
X023Y004
X022Y003
X023Y003
X022Y002
X023Y002
X023Y001
X022Y001
X023Y0
X022Y0
X02Y0
X02Y-001
M30
