*
*
G04 PADS Layout (Build Number 2007.42.1) generated Gerber (RS-274-X) file*
G04 PC Version=2.1*
*
%IN "fq144breakoutboard_blz."*%
*
%MOIN*%
*
%FSLAX35Y35*%
*
*
*
*
G04 PC Standard Apertures*
*
*
G04 Thermal Relief Aperture macro.*
%AMTER*
1,1,$1,0,0*
1,0,$1-$2,0,0*
21,0,$3,$4,0,0,45*
21,0,$3,$4,0,0,135*
%
*
*
G04 Annular Aperture macro.*
%AMANN*
1,1,$1,0,0*
1,0,$2,0,0*
%
*
*
G04 Odd Aperture macro.*
%AMODD*
1,1,$1,0,0*
1,0,$1-0.005,0,0*
%
*
*
G04 PC Custom Aperture Macros*
*
*
*
*
*
*
G04 PC Aperture Table*
*
%ADD010C,0.012*%
%ADD011C,0.07*%
*
*
*
*
G04 PC Copper Outlines (0)*
G04 Layer Name fq144breakoutboard_blz. - dark (0)*
%LPD*%
*
*
G04 PC Area=Custom_Thermal*
*
G04 PC Custom Flashes*
G04 Layer Name fq144breakoutboard_blz. - flashes*
%LPD*%
*
*
G04 PC Circuitry*
G04 Layer Name fq144breakoutboard_blz. - circuitry*
%LPD*%
*
G54D10*
G01X1955325Y1634440D02*
X1960425D01*
X1955325Y1632472D02*
X1960425D01*
X1955325Y1630504D02*
X1960425D01*
X1955325Y1628536D02*
X1960425D01*
X1955325Y1626568D02*
X1960425D01*
X1955325Y1624600D02*
X1960425D01*
X1955325Y1622632D02*
X1960425D01*
X1955325Y1620664D02*
X1960425D01*
X1955325Y1618696D02*
X1960425D01*
X1955325Y1616728D02*
X1960425D01*
X1955325Y1614760D02*
X1960425D01*
X1955325Y1612792D02*
X1960425D01*
X1955325Y1610824D02*
X1960425D01*
X1955325Y1608856D02*
X1960425D01*
X1955325Y1606888D02*
X1960425D01*
X1955325Y1604920D02*
X1960425D01*
X1955325Y1602952D02*
X1960425D01*
X1955325Y1600984D02*
X1960425D01*
X1955325Y1599016D02*
X1960425D01*
X1955325Y1597048D02*
X1960425D01*
X1955325Y1595080D02*
X1960425D01*
X1955325Y1593112D02*
X1960425D01*
X1955325Y1591144D02*
X1960425D01*
X1955325Y1589176D02*
X1960425D01*
X1955325Y1587208D02*
X1960425D01*
X1955325Y1585240D02*
X1960425D01*
X1955325Y1583272D02*
X1960425D01*
X1955325Y1581304D02*
X1960425D01*
X1955325Y1579336D02*
X1960425D01*
X1955325Y1577368D02*
X1960425D01*
X1955325Y1575400D02*
X1960425D01*
X1955325Y1573432D02*
X1960425D01*
X1955325Y1571464D02*
X1960425D01*
X1955325Y1569496D02*
X1960425D01*
X1955325Y1567528D02*
X1960425D01*
X1955325Y1565560D02*
X1960425D01*
X1965560Y1555325D02*
Y1560425D01*
X1967528Y1555325D02*
Y1560425D01*
X1969496Y1555325D02*
Y1560425D01*
X1971464Y1555325D02*
Y1560425D01*
X1973432Y1555325D02*
Y1560425D01*
X1975400Y1555325D02*
Y1560425D01*
X1977368Y1555325D02*
Y1560425D01*
X1979336Y1555325D02*
Y1560425D01*
X1981304Y1555325D02*
Y1560425D01*
X1983272Y1555325D02*
Y1560425D01*
X1985240Y1555325D02*
Y1560425D01*
X1987208Y1555325D02*
Y1560425D01*
X1989176Y1555325D02*
Y1560425D01*
X1991144Y1555325D02*
Y1560425D01*
X1993112Y1555325D02*
Y1560425D01*
X1995080Y1555325D02*
Y1560425D01*
X1997048Y1555325D02*
Y1560425D01*
X1999016Y1555325D02*
Y1560425D01*
X2000984Y1555325D02*
Y1560425D01*
X2002952Y1555325D02*
Y1560425D01*
X2004920Y1555325D02*
Y1560425D01*
X2006888Y1555325D02*
Y1560425D01*
X2008856Y1555325D02*
Y1560425D01*
X2010824Y1555325D02*
Y1560425D01*
X2012792Y1555325D02*
Y1560425D01*
X2014760Y1555325D02*
Y1560425D01*
X2016728Y1555325D02*
Y1560425D01*
X2018696Y1555325D02*
Y1560425D01*
X2020664Y1555325D02*
Y1560425D01*
X2022632Y1555325D02*
Y1560425D01*
X2024600Y1555325D02*
Y1560425D01*
X2026568Y1555325D02*
Y1560425D01*
X2028536Y1555325D02*
Y1560425D01*
X2030504Y1555325D02*
Y1560425D01*
X2032472Y1555325D02*
Y1560425D01*
X2034440Y1555325D02*
Y1560425D01*
X2039575Y1565560D02*
X2044675D01*
X2039575Y1567528D02*
X2044675D01*
X2039575Y1569496D02*
X2044675D01*
X2039575Y1571464D02*
X2044675D01*
X2039575Y1573432D02*
X2044675D01*
X2039575Y1575400D02*
X2044675D01*
X2039575Y1577368D02*
X2044675D01*
X2039575Y1579336D02*
X2044675D01*
X2039575Y1581304D02*
X2044675D01*
X2039575Y1583272D02*
X2044675D01*
X2039575Y1585240D02*
X2044675D01*
X2039575Y1587208D02*
X2044675D01*
X2039575Y1589176D02*
X2044675D01*
X2039575Y1591144D02*
X2044675D01*
X2039575Y1593112D02*
X2044675D01*
X2039575Y1595080D02*
X2044675D01*
X2039575Y1597048D02*
X2044675D01*
X2039575Y1599016D02*
X2044675D01*
X2039575Y1600984D02*
X2044675D01*
X2039575Y1602952D02*
X2044675D01*
X2039575Y1604920D02*
X2044675D01*
X2039575Y1606888D02*
X2044675D01*
X2039575Y1608856D02*
X2044675D01*
X2039575Y1610824D02*
X2044675D01*
X2039575Y1612792D02*
X2044675D01*
X2039575Y1614760D02*
X2044675D01*
X2039575Y1616728D02*
X2044675D01*
X2039575Y1618696D02*
X2044675D01*
X2039575Y1620664D02*
X2044675D01*
X2039575Y1622632D02*
X2044675D01*
X2039575Y1624600D02*
X2044675D01*
X2039575Y1626568D02*
X2044675D01*
X2039575Y1628536D02*
X2044675D01*
X2039575Y1630504D02*
X2044675D01*
X2039575Y1632472D02*
X2044675D01*
X2039575Y1634440D02*
X2044675D01*
X2034440Y1639575D02*
Y1644675D01*
X2032472Y1639575D02*
Y1644675D01*
X2030504Y1639575D02*
Y1644675D01*
X2028536Y1639575D02*
Y1644675D01*
X2026568Y1639575D02*
Y1644675D01*
X2024600Y1639575D02*
Y1644675D01*
X2022632Y1639575D02*
Y1644675D01*
X2020664Y1639575D02*
Y1644675D01*
X2018696Y1639575D02*
Y1644675D01*
X2016728Y1639575D02*
Y1644675D01*
X2014760Y1639575D02*
Y1644675D01*
X2012792Y1639575D02*
Y1644675D01*
X2010824Y1639575D02*
Y1644675D01*
X2008856Y1639575D02*
Y1644675D01*
X2006888Y1639575D02*
Y1644675D01*
X2004920Y1639575D02*
Y1644675D01*
X2002952Y1639575D02*
Y1644675D01*
X2000984Y1639575D02*
Y1644675D01*
X1999016Y1639575D02*
Y1644675D01*
X1997048Y1639575D02*
Y1644675D01*
X1995080Y1639575D02*
Y1644675D01*
X1993112Y1639575D02*
Y1644675D01*
X1991144Y1639575D02*
Y1644675D01*
X1989176Y1639575D02*
Y1644675D01*
X1987208Y1639575D02*
Y1644675D01*
X1985240Y1639575D02*
Y1644675D01*
X1983272Y1639575D02*
Y1644675D01*
X1981304Y1639575D02*
Y1644675D01*
X1979336Y1639575D02*
Y1644675D01*
X1977368Y1639575D02*
Y1644675D01*
X1975400Y1639575D02*
Y1644675D01*
X1973432Y1639575D02*
Y1644675D01*
X1971464Y1639575D02*
Y1644675D01*
X1969496Y1639575D02*
Y1644675D01*
X1967528Y1639575D02*
Y1644675D01*
X1965560Y1639575D02*
Y1644675D01*
X1870000Y1550000D02*
X1875300Y1554700D01*
X1914330*
X1946838Y1587208*
X1957875*
X1870000Y1540000D02*
X1875300Y1544700D01*
X1911169*
X1949741Y1583272*
X1957875*
X1870000Y1530000D02*
X1875300Y1534700D01*
X1906597*
X1951233Y1579336*
X1957875*
X1870000Y1520000D02*
X1875300Y1524700D01*
X1901729*
X1952429Y1575400*
X1957875*
X1870000Y1510000D02*
X1875300Y1514700D01*
X1896828*
X1953592Y1571464*
X1957875*
X1870000Y1500000D02*
X1875300Y1504700D01*
X1891919*
X1954747Y1567528*
X1957875*
X1955300Y1514257D02*
Y1495300D01*
X1960000Y1490000*
X1945300Y1511636D02*
Y1495300D01*
X1950000Y1490000*
X1935300Y1502685D02*
Y1494700D01*
X1940000Y1490000*
X1925300Y1506507D02*
Y1495300D01*
X1930000Y1490000*
X1915300Y1505065D02*
Y1495300D01*
X1920000Y1490000*
X1915300Y1505065D02*
X1965560Y1555325D01*
Y1557875*
X1925300Y1506507D02*
X1969496Y1550703D01*
Y1557875*
X1935300Y1502685D02*
X1940000Y1507385D01*
Y1513806*
X1973432Y1547238*
Y1557875*
X1945300Y1511636D02*
X1977368Y1543704D01*
Y1557875*
X1955300Y1514257D02*
X1981304Y1540261D01*
Y1557875*
X1950000Y1500000D02*
Y1512633D01*
X1979336Y1541969*
Y1557875*
X1940000Y1500000D02*
Y1504770D01*
X1941849Y1506619*
Y1511916*
X1975400Y1545467*
Y1557875*
X1930000Y1500000D02*
X1938151Y1508151D01*
Y1515657*
X1971464Y1548971*
Y1557875*
X1920000Y1500000D02*
X1923412Y1503412D01*
Y1508295*
X1967528Y1552412*
Y1557875*
X1880000Y1550000D02*
X1913050D01*
X1948290Y1585240*
X1957875*
X1880000Y1540000D02*
X1909183D01*
X1950487Y1581304*
X1957875*
X1880000Y1530000D02*
X1904463D01*
X1951831Y1577368*
X1957875*
X1880000Y1520000D02*
X1899579D01*
X1953011Y1573432*
X1957875*
X1880000Y1510000D02*
X1894674D01*
X1954170Y1569496*
X1957875*
X1880000Y1500000D02*
X1880423Y1499577D01*
X1883747Y1502900*
X1887100*
X1890000Y1500000*
X1891332*
X1922692Y1531360*
Y1532927*
X1955325Y1565560*
X1957875*
X1985300Y1512978D02*
Y1495300D01*
X1990000Y1490000*
X1975300Y1516807D02*
Y1495300D01*
X1980000Y1490000*
X1965300Y1516654D02*
Y1495300D01*
X1970000Y1490000*
X1985300Y1512978D02*
X1993112Y1520790D01*
Y1557875*
X1965300Y1516654D02*
X1985240Y1536594D01*
Y1557875*
X1975300Y1516807D02*
X1989176Y1530683D01*
Y1557875*
X2034440D02*
X2042548D01*
X2069612Y1530811*
Y1530388*
X2100000Y1500000*
X2032472Y1557875D02*
Y1554747D01*
X2054963Y1532256*
X2064391*
X2095000Y1501647*
Y1495000*
X2100000Y1490000*
X2030504Y1557875D02*
Y1553525D01*
X2054029Y1530000*
X2060000*
X2090000Y1500000*
X2028536Y1557875D02*
Y1552947D01*
X2053283Y1528200*
X2058447*
X2085000Y1501647*
Y1495000*
X2090000Y1490000*
X2026568Y1557875D02*
Y1552370D01*
X2052538Y1526400*
X2053600*
X2080000Y1500000*
X2024600Y1557875D02*
Y1551792D01*
X2051792Y1524600*
X2052047*
X2075000Y1501647*
Y1495000*
X2080000Y1490000*
X2022632Y1557875D02*
Y1547368D01*
X2070000Y1500000*
X2020664Y1557875D02*
Y1546426D01*
X2065000Y1502090*
Y1495000*
X2070000Y1490000*
X2018696Y1557875D02*
Y1545484D01*
X2055840Y1508340*
Y1504160*
X2060000Y1500000*
X2016728Y1557875D02*
Y1544389D01*
X2053203Y1507914*
Y1503848*
X2055000Y1502051*
Y1495000*
X2060000Y1490000*
X2014760Y1557875D02*
Y1542991D01*
X2046618Y1511133*
Y1503382*
X2050000Y1500000*
X2012792Y1557875D02*
Y1540791D01*
X2044759Y1508824*
Y1495241*
X2050000Y1490000*
X2010824Y1557875D02*
Y1538329D01*
X2036618Y1512536*
Y1503382*
X2040000Y1500000*
X2008856Y1557875D02*
Y1535539D01*
X2034759Y1509636*
Y1495241*
X2040000Y1490000*
X2006888Y1557875D02*
Y1532335D01*
X2026619Y1512605*
Y1503381*
X2030000Y1500000*
X2004920Y1557875D02*
Y1528640D01*
X2024761Y1508799*
Y1495239*
X2030000Y1490000*
X2002952Y1557875D02*
Y1524449D01*
X2016618Y1510783*
Y1503382*
X2020000Y1500000*
X2000984Y1557875D02*
Y1519947D01*
X2014759Y1506172*
Y1495241*
X2020000Y1490000*
X1999016Y1557875D02*
Y1510984D01*
X2010000Y1500000*
X1997048Y1557875D02*
Y1501979D01*
X2005632Y1493394*
X2006606*
X2010000Y1490000*
X1990000Y1500000D02*
Y1509916D01*
X1995080Y1514996*
Y1557875*
X1980000Y1500000D02*
Y1515017D01*
X1991144Y1526161*
Y1557875*
X1970000Y1500000D02*
Y1516910D01*
X1987208Y1534118*
Y1557875*
X1960000Y1500000D02*
Y1515285D01*
X1983272Y1538557*
Y1557875*
X1870000Y1630000D02*
X1875300Y1634700D01*
X1903949*
X1923889Y1614760*
X1957875*
X1870000Y1620000D02*
X1875300Y1624700D01*
X1903147*
X1917023Y1610824*
X1957875*
X1870000Y1610000D02*
X1875300Y1614700D01*
X1897579*
X1905391Y1606888*
X1957875*
X1870000Y1590000D02*
X1882952Y1602952D01*
X1957875*
X1870000Y1580000D02*
X1875300Y1584700D01*
X1892272*
X1906588Y1599016*
X1957875*
X1870000Y1570000D02*
X1875300Y1574700D01*
X1906311*
X1926691Y1595080*
X1957875*
X1870000Y1560000D02*
X1875300Y1564700D01*
X1913608*
X1940052Y1591144*
X1957875*
X1880000Y1630000D02*
X1903248D01*
X1920456Y1612792*
X1957875*
X1880000Y1620000D02*
X1900063D01*
X1911207Y1608856*
X1957875*
X1880000Y1610000D02*
X1892217D01*
X1897297Y1604920*
X1957875*
X1880000Y1590000D02*
X1890984Y1600984D01*
X1957875*
X1880000Y1580000D02*
X1899592D01*
X1916640Y1597048*
X1957875*
X1880000Y1570000D02*
X1910260D01*
X1933372Y1593112*
X1957875*
X1880000Y1560000D02*
X1914269D01*
X1943445Y1589176*
X1957875*
X2042125Y1634440D02*
X2044675D01*
X2106853Y1696618*
X2116618*
X2120000Y1700000*
X2042125Y1632472D02*
X2047665D01*
X2109952Y1694759*
X2124759*
X2130000Y1700000*
X2042125Y1630504D02*
X2049433D01*
X2108929Y1690000*
X2120000*
X2042125Y1628536D02*
X2050509D01*
X2106973Y1685000*
X2125000*
X2130000Y1690000*
X2042125Y1626568D02*
X2052082D01*
X2105514Y1680000*
X2120000*
X2042125Y1624600D02*
X2053734D01*
X2104134Y1675000*
X2125000*
X2130000Y1680000*
X2042125Y1622632D02*
X2055598D01*
X2102966Y1670000*
X2120000*
X2042125Y1620664D02*
X2057853D01*
X2102189Y1665000*
X2125000*
X2130000Y1670000*
X2042125Y1618696D02*
X2060242D01*
X2101546Y1660000*
X2120000*
X2042125Y1616728D02*
X2062897D01*
X2101169Y1655000*
X2125000*
X2130000Y1660000*
X2042125Y1614760D02*
X2065760D01*
X2101000Y1650000*
X2120000*
X2042125Y1612792D02*
X2068785D01*
X2100993Y1645000*
X2125000*
X2130000Y1650000*
X2042125Y1610824D02*
X2071990D01*
X2101166Y1640000*
X2120000*
X2042125Y1608856D02*
X2075482D01*
X2101626Y1635000*
X2125000*
X2130000Y1640000*
X2042125Y1606888D02*
X2079441D01*
X2102553Y1630000*
X2120000*
X2042125Y1604920D02*
X2084113D01*
X2104193Y1625000*
X2125000*
X2130000Y1630000*
X2042125Y1602952D02*
X2089786D01*
X2103463Y1616629*
X2116629*
X2120000Y1620000*
X2042125Y1600984D02*
X2096702D01*
X2110500Y1614782*
X2124782*
X2130000Y1620000*
X2042125Y1599016D02*
X2109016D01*
X2120000Y1610000*
X2042125Y1597048D02*
X2117048D01*
X2130000Y1610000*
X2042125Y1595080D02*
X2101329D01*
X2106409Y1590000*
X2120000*
X2042125Y1593112D02*
X2091860D01*
X2099672Y1585300*
X2124700*
X2130000Y1590000*
X2042125Y1591144D02*
X2083081D01*
X2094225Y1580000*
X2120000*
X2042125Y1589176D02*
X2075685D01*
X2089561Y1575300*
X2124700*
X2130000Y1580000*
X2042125Y1587208D02*
X2070025D01*
X2087233Y1570000*
X2120000*
X2042125Y1585240D02*
X2065788D01*
X2085728Y1565300*
X2124700*
X2130000Y1570000*
X2042125Y1583272D02*
X2062107D01*
X2085379Y1560000*
X2120000*
X2042125Y1581304D02*
X2058575D01*
X2084579Y1555300*
X2124700*
X2130000Y1560000*
X2042125Y1579336D02*
X2055209D01*
X2084545Y1550000*
X2120000*
X2042125Y1577368D02*
X2052071D01*
X2084139Y1545300*
X2124700*
X2130000Y1550000*
X2042125Y1575400D02*
X2049545D01*
X2084945Y1540000*
X2120000*
X2042125Y1573432D02*
X2047849D01*
X2085981Y1535300*
X2124700*
X2130000Y1540000*
X2042125Y1571464D02*
X2046824D01*
X2088288Y1530000*
X2120000*
X2042125Y1569496D02*
X2046130D01*
X2090326Y1525300*
X2124700*
X2130000Y1530000*
X2042125Y1567528D02*
X2045552D01*
X2093080Y1520000*
X2120000*
X2042125Y1565560D02*
X2044675D01*
X2094935Y1515300*
X2124700*
X2130000Y1520000*
X1870000Y1680000D02*
X1875300Y1684700D01*
X1905065*
X1955325Y1634440*
X1957875*
X1870000Y1670000D02*
X1875300Y1674700D01*
X1903045*
X1947241Y1630504*
X1957875*
X1870000Y1660000D02*
X1875300Y1664700D01*
X1902387*
X1940519Y1626568*
X1957875*
X1870000Y1650000D02*
X1875300Y1654700D01*
X1902293*
X1934361Y1622632*
X1957875*
X1870000Y1640000D02*
X1875300Y1644700D01*
X1902877*
X1928881Y1618696*
X1957875*
X1950000Y1710000D02*
X1955000Y1705000D01*
Y1697949*
X1987208Y1665741*
Y1642125*
X1940000Y1710000D02*
X1945000Y1705000D01*
Y1697949*
X1983272Y1659677*
Y1642125*
X1930000Y1710000D02*
X1935000Y1705000D01*
Y1697949*
X1979336Y1653613*
Y1642125*
X1920000Y1710000D02*
X1925000Y1705000D01*
Y1698353*
X1957953Y1665400*
X1958785*
X1975400Y1648785*
Y1642125*
X1910000Y1710000D02*
X1915000Y1705000D01*
Y1698353*
X1951553Y1661800*
X1957294*
X1971464Y1647630*
Y1642125*
X1900000Y1710000D02*
X1905000Y1705000D01*
Y1698353*
X1951016Y1652338*
X1951016D02*
X1961665D01*
X1961665D02*
X1967528Y1646475D01*
Y1642125*
X1950000Y1700000D02*
X1985240Y1664760D01*
Y1642125*
X1940000Y1700000D02*
X1981304Y1658696D01*
Y1642125*
X1930000Y1700000D02*
X1977368Y1652632D01*
Y1642125*
X1920000Y1700000D02*
X1956400Y1663600D01*
X1958040*
X1973432Y1648208*
Y1642125*
X1910000Y1700000D02*
X1950000Y1660000D01*
X1956549*
X1969496Y1647053*
Y1642125*
X1900000Y1700000D02*
X1957875Y1642125D01*
X1965560*
X1880000Y1680000D02*
X1903144D01*
X1950672Y1632472*
X1957875*
X1880000Y1670000D02*
X1902416D01*
X1943880Y1628536*
X1957875*
X1880000Y1660000D02*
X1901871D01*
X1937271Y1624600*
X1957875*
X1880000Y1650000D02*
X1902116D01*
X1931452Y1620664*
X1957875*
X1880000Y1640000D02*
X1903113D01*
X1926385Y1616728*
X1957875*
X2006888Y1642125D02*
Y1676709D01*
X2014700Y1684521*
X2034440Y1642125D02*
Y1644675D01*
X2084700Y1694935*
X2026568Y1642125D02*
Y1647449D01*
X2064700Y1685581*
X2022632Y1642125D02*
Y1649392D01*
X2054700Y1681460*
X2018696Y1642125D02*
Y1652326D01*
X2044700Y1678330*
X2014760Y1642125D02*
Y1657206D01*
X2034700Y1677146*
X2028536Y1642125D02*
Y1646631D01*
X2070000Y1688095*
X2024600Y1642125D02*
Y1648268D01*
X2060000Y1683668*
X2020664Y1642125D02*
Y1650516D01*
X2050000Y1679852*
X2010824Y1642125D02*
Y1665161D01*
X2024700Y1679037*
X2016728Y1642125D02*
Y1654135D01*
X2040000Y1677407*
X2012792Y1642125D02*
Y1660276D01*
X2030000Y1677484*
X2008856Y1642125D02*
Y1670046D01*
X2020000Y1681190*
X2004920Y1642125D02*
Y1683372D01*
X2010000Y1688452*
X2030504Y1642125D02*
Y1645830D01*
X2074700Y1690026*
X2032472Y1642125D02*
Y1645253D01*
X2076588Y1689369*
X2030000Y1710000D02*
X2034700Y1704700D01*
Y1677146*
X2020000Y1710000D02*
X2024700Y1704700D01*
Y1679037*
X2010000Y1710000D02*
X2014700Y1704700D01*
Y1684521*
X2030000Y1700000D02*
Y1677484D01*
X2020000Y1700000D02*
Y1681190D01*
X2010000Y1700000D02*
Y1688452D01*
X1990000Y1710000D02*
X1993394Y1706606D01*
X1994368*
X2002952Y1698021*
Y1642125*
X1980000Y1710000D02*
X1985000Y1705000D01*
Y1697949*
X1999016Y1683933*
Y1642125*
X1970000Y1710000D02*
X1975000Y1705000D01*
Y1697949*
X1995080Y1677869*
Y1642125*
X1960000Y1710000D02*
X1965000Y1705000D01*
Y1697949*
X1991144Y1671805*
Y1642125*
X1990000Y1700000D02*
X2000984Y1689016D01*
Y1642125*
X1980000Y1700000D02*
X1997048Y1682952D01*
Y1642125*
X1970000Y1700000D02*
X1993112Y1676888D01*
Y1642125*
X1960000Y1700000D02*
X1989176Y1670824D01*
Y1642125*
X2076588Y1689369D02*
Y1696588D01*
X2080000Y1700000*
Y1710000D02*
X2084700Y1704700D01*
Y1694935*
X2070000Y1710000D02*
X2074700Y1704700D01*
Y1690026*
X2060000Y1710000D02*
X2064700Y1704700D01*
Y1685581*
X2050000Y1710000D02*
X2054700Y1704700D01*
Y1681460*
X2040000Y1710000D02*
X2044700Y1704700D01*
Y1678330*
X2070000Y1700000D02*
Y1688095D01*
X2060000Y1700000D02*
Y1683668D01*
X2050000Y1700000D02*
Y1679852D01*
X2040000Y1700000D02*
Y1677407D01*
G54D11*
X1900000Y1700000D03*
X1910000D03*
X1920000D03*
X1930000D03*
X1940000D03*
X1950000D03*
X1960000D03*
X1970000D03*
X1980000D03*
X1990000D03*
X1900000Y1710000D03*
X1910000D03*
X1920000D03*
X1930000D03*
X1940000D03*
X1950000D03*
X1960000D03*
X1970000D03*
X1980000D03*
X1990000D03*
X2010000D03*
X2020000D03*
X2030000D03*
X2040000D03*
X2050000D03*
X2060000D03*
X2070000D03*
X2080000D03*
X2090000D03*
X2100000D03*
X2010000Y1700000D03*
X2020000D03*
X2030000D03*
X2040000D03*
X2050000D03*
X2060000D03*
X2070000D03*
X2080000D03*
X2090000D03*
X2100000D03*
X1900000Y1490000D03*
X1910000D03*
X1920000D03*
X1930000D03*
X1940000D03*
X1950000D03*
X1960000D03*
X1970000D03*
X1980000D03*
X1990000D03*
X1900000Y1500000D03*
X1910000D03*
X1920000D03*
X1930000D03*
X1940000D03*
X1950000D03*
X1960000D03*
X1970000D03*
X1980000D03*
X1990000D03*
X2010000Y1490000D03*
X2020000D03*
X2030000D03*
X2040000D03*
X2050000D03*
X2060000D03*
X2070000D03*
X2080000D03*
X2090000D03*
X2100000D03*
X2010000Y1500000D03*
X2020000D03*
X2030000D03*
X2040000D03*
X2050000D03*
X2060000D03*
X2070000D03*
X2080000D03*
X2090000D03*
X2100000D03*
X1870000D03*
Y1510000D03*
Y1520000D03*
Y1530000D03*
Y1540000D03*
Y1550000D03*
Y1560000D03*
Y1570000D03*
Y1580000D03*
Y1590000D03*
Y1610000D03*
Y1620000D03*
Y1630000D03*
Y1640000D03*
Y1650000D03*
Y1660000D03*
Y1670000D03*
Y1680000D03*
Y1690000D03*
Y1700000D03*
X1880000Y1500000D03*
Y1510000D03*
Y1520000D03*
Y1530000D03*
Y1540000D03*
Y1550000D03*
Y1560000D03*
Y1570000D03*
Y1580000D03*
Y1590000D03*
Y1610000D03*
Y1620000D03*
Y1630000D03*
Y1640000D03*
Y1650000D03*
Y1660000D03*
Y1670000D03*
Y1680000D03*
Y1690000D03*
Y1700000D03*
X2130000Y1500000D03*
Y1510000D03*
Y1520000D03*
Y1530000D03*
Y1540000D03*
Y1550000D03*
Y1560000D03*
Y1570000D03*
Y1580000D03*
Y1590000D03*
Y1610000D03*
Y1620000D03*
Y1630000D03*
Y1640000D03*
Y1650000D03*
Y1660000D03*
Y1670000D03*
Y1680000D03*
Y1690000D03*
Y1700000D03*
X2120000Y1610000D03*
Y1620000D03*
Y1630000D03*
Y1640000D03*
Y1650000D03*
Y1660000D03*
Y1670000D03*
Y1680000D03*
Y1690000D03*
Y1700000D03*
Y1500000D03*
Y1510000D03*
Y1520000D03*
Y1530000D03*
Y1540000D03*
Y1550000D03*
Y1560000D03*
Y1570000D03*
Y1580000D03*
Y1590000D03*
X0Y0D02*
M02*
