  0
SECTION
  2
ENTITIES
  0
LINE
 10
6.97335880865
 20
-0.610136809136
 11
6.97335880865
 21
0.610136809136
  0
LINE
 10
6.97335880865
 20
0.610136809136
 11
6.98398971367
 21
0.611463555203
  0
LINE
 10
6.98398971367
 20
0.611463555203
 11
7.01564699801
 21
0.617006644448
  0
LINE
 10
7.01564699801
 20
0.617006644448
 11
7.0678322441
 21
0.629084548552
  0
LINE
 10
7.0678322441
 20
0.629084548552
 11
7.13985567428
 21
0.649969961256
  0
LINE
 10
7.13985567428
 20
0.649969961256
 11
7.23083988403
 21
0.681875774325
  0
LINE
 10
7.23083988403
 20
0.681875774325
 11
7.33972453792
 21
0.726941337074
  0
LINE
 10
7.33972453792
 20
0.726941337074
 11
7.46527200758
 21
0.787219062811
  0
LINE
 10
7.46527200758
 20
0.787219062811
 11
7.60607392727
 21
0.864661444146
  0
LINE
 10
7.60607392727
 20
0.864661444146
 11
7.76055863836
 21
0.961108537424
  0
LINE
 10
7.76055863836
 20
0.961108537424
 11
7.92699949052
 21
1.0782759746
  0
LINE
 10
6.61864526172
 20
2.27893284227
 11
6.62889671295
 21
2.28204477804
  0
LINE
 10
6.62889671295
 20
2.28204477804
 11
6.66007165878
 21
2.28985709161
  0
LINE
 10
6.66007165878
 20
2.28985709161
 11
6.71265777947
 21
2.30004902899
  0
LINE
 10
6.71265777947
 20
2.30004902899
 11
6.7869493196
 21
2.31026382329
  0
LINE
 10
6.7869493196
 20
2.31026382329
 11
6.88304479444
 21
2.31812302474
  0
LINE
 10
6.88304479444
 20
2.31812302474
 11
7.00084569112
 21
2.3212409632
  0
LINE
 10
7.00084569112
 20
2.3212409632
 11
7.14005617157
 21
2.31723927701
  0
LINE
 10
7.14005617157
 20
2.31723927701
 11
7.30018377994
 21
2.30376144147
  0
LINE
 10
7.30018377994
 20
2.30376144147
 11
7.48054115299
 21
2.27848723029
  0
LINE
 10
7.48054115299
 20
2.27848723029
 11
7.68024872752
 21
2.23914704376
  0
LINE
 10
7.92699949052
 20
1.0782759746
 11
7.92699949051
 21
1.0782759746
  0
LINE
 10
7.68024872752
 20
2.23914704376
 11
7.68024872751
 21
2.23914704376
  0
LINE
 10
7.92699949051
 20
1.0782759746
 11
7.68024872751
 21
2.23914704376
  0
LINE
 10
6.61864526172
 20
2.27893284227
 11
6.12231526659
 21
3.39370826332
  0
LINE
 10
6.12231526659
 20
3.39370826332
 11
6.13148744534
 21
3.39924428478
  0
LINE
 10
6.13148744534
 20
3.39924428478
 11
6.15815323614
 21
3.41718432635
  0
LINE
 10
6.15815323614
 20
3.41718432635
 11
6.20091430449
 21
3.44944369259
  0
LINE
 10
6.20091430449
 20
3.44944369259
 11
6.25821611932
 21
3.49781803471
  0
LINE
 10
6.25821611932
 20
3.49781803471
 11
6.32835706755
 21
3.56397205736
  0
LINE
 10
6.32835706755
 20
3.56397205736
 11
6.40949833281
 21
3.64942887611
  0
LINE
 10
6.40949833281
 20
3.64942887611
 11
6.49967449362
 21
3.75556007501
  0
LINE
 10
6.49967449362
 20
3.75556007501
 11
6.59680479356
 21
3.88357651086
  0
LINE
 10
6.59680479356
 20
3.88357651086
 11
6.6987050327
 21
4.03451990762
  0
LINE
 10
6.6987050327
 20
4.03451990762
 11
6.80310002709
 21
4.20925528112
  0
LINE
 10
5.11950782053
 20
4.77395430178
 11
5.12760724893
 21
4.78096683744
  0
LINE
 10
5.12760724893
 20
4.78096683744
 11
5.15290942489
 21
4.80078373382
  0
LINE
 10
5.15290942489
 20
4.80078373382
 11
5.19680380218
 21
4.83148323412
  0
LINE
 10
5.19680380218
 20
4.83148323412
 11
5.26051777007
 21
4.8710320047
  0
LINE
 10
5.26051777007
 20
4.8710320047
 11
5.34510872939
 21
4.91729729333
  0
LINE
 10
5.34510872939
 20
4.91729729333
 11
5.45145702364
 21
4.96805961312
  0
LINE
 10
5.45145702364
 20
4.96805961312
 11
5.58025975811
 21
5.02102589438
  0
LINE
 10
5.58025975811
 20
5.02102589438
 11
5.73202553697
 21
5.07384304483
  0
LINE
 10
5.73202553697
 20
5.07384304483
 11
5.90707014368
 21
5.12411185649
  0
LINE
 10
5.90707014368
 20
5.12411185649
 11
6.10551318666
 21
5.16940119624
  0
LINE
 10
6.80310002709
 20
4.20925528112
 11
6.80310002708
 21
4.20925528111
  0
LINE
 10
6.10551318666
 20
5.16940119624
 11
6.10551318665
 21
5.16940119623
  0
LINE
 10
6.80310002708
 20
4.20925528111
 11
6.10551318665
 21
5.16940119623
  0
LINE
 10
5.11950782053
 20
4.77395430178
 11
4.21266779545
 21
5.5904767279
  0
LINE
 10
4.21266779545
 20
5.5904767279
 11
4.2187952949
 21
5.59926479636
  0
LINE
 10
4.2187952949
 20
5.59926479636
 11
4.23585883467
 21
5.62649979408
  0
LINE
 10
4.23585883467
 20
5.62649979408
 11
4.2618019481
 21
5.67336268497
  0
LINE
 10
4.2618019481
 20
5.67336268497
 11
4.29447414322
 21
5.74086159328
  0
LINE
 10
4.29447414322
 20
5.74086159328
 11
4.33164382277
 21
5.82982519401
  0
LINE
 10
4.33164382277
 20
5.82982519401
 11
4.37101163749
 21
5.94089700845
  0
LINE
 10
4.37101163749
 20
5.94089700845
 11
4.41022421202
 21
6.07453063205
  0
LINE
 10
4.41022421202
 20
6.07453063205
 11
4.44688818096
 21
6.23098591767
  0
LINE
 10
4.44688818096
 20
6.23098591767
 11
4.47858447106
 21
6.41032613333
  0
LINE
 10
4.47858447106
 20
6.41032613333
 11
4.50288276474
 21
6.61241610965
  0
LINE
 10
2.73516096791
 20
6.44351569251
 11
2.73970790872
 21
6.45321629693
  0
LINE
 10
2.73970790872
 20
6.45321629693
 11
2.75476233872
 21
6.48161125471
  0
LINE
 10
2.75476233872
 20
6.48161125471
 11
2.78237523602
 21
6.52751009543
  0
LINE
 10
2.78237523602
 20
6.52751009543
 11
2.82449490778
 21
6.58955450057
  0
LINE
 10
2.82449490778
 20
6.58955450057
 11
2.88295480624
 21
6.66622618767
  0
LINE
 10
2.88295480624
 20
6.66622618767
 11
2.95946191184
 21
6.75585562253
  0
LINE
 10
2.95946191184
 20
6.75585562253
 11
3.05558573741
 21
6.85663152002
  0
LINE
 10
3.05558573741
 20
6.85663152002
 11
3.17274800484
 21
6.96661109133
  0
LINE
 10
3.17274800484
 20
6.96661109133
 11
3.31221304248
 21
7.0837309916
  0
LINE
 10
3.31221304248
 20
7.0837309916
 11
3.47507894898
 21
7.20581891935
  0
LINE
 10
4.50288276474
 20
6.61241610965
 11
4.50288276473
 21
6.61241610964
  0
LINE
 10
3.47507894898
 20
7.20581891935
 11
3.47507894898
 21
7.20581891934
  0
LINE
 10
4.50288276473
 20
6.61241610964
 11
3.47507894898
 21
7.20581891934
  0
LINE
 10
2.73516096791
 20
6.44351569251
 11
1.57461179159
 21
6.82060097834
  0
LINE
 10
1.57461179159
 20
6.82060097834
 11
1.57663511141
 21
6.83112155692
  0
LINE
 10
1.57663511141
 20
6.83112155692
 11
1.58114595912
 21
6.86294233226
  0
LINE
 10
1.58114595912
 20
6.86294233226
 11
1.58578531762
 21
6.91630572824
  0
LINE
 10
1.58578531762
 20
6.91630572824
 11
1.58817857369
 21
6.99125802829
  0
LINE
 10
1.58817857369
 20
6.99125802829
 11
1.58595000929
 21
7.08764859231
  0
LINE
 10
1.58595000929
 20
7.08764859231
 11
1.57673732066
 21
7.20513007667
  0
LINE
 10
1.57673732066
 20
7.20513007667
 11
1.55820609854
 21
7.34315965743
  0
LINE
 10
1.55820609854
 20
7.34315965743
 11
1.52806420315
 21
7.50100125258
  0
LINE
 10
1.52806420315
 20
7.50100125258
 11
1.48407596771
 21
7.67772873461
  0
LINE
 10
1.48407596771
 20
7.67772873461
 11
1.42407616497
 21
7.87223012091
  0
LINE
 10
-0.122120064226
 20
6.9989346825
 11
-0.121911818378
 21
7.00964603304
  0
LINE
 10
-0.121911818378
 20
7.00964603304
 11
-0.11970818204
 21
7.04170930607
  0
LINE
 10
-0.11970818204
 20
7.04170930607
 11
-0.113151285537
 21
7.09487116068
  0
LINE
 10
-0.113151285537
 20
7.09487116068
 11
-0.0999087837846
 21
7.16868315906
  0
LINE
 10
-0.0999087837846
 20
7.16868315906
 11
-0.0776881937247
 21
7.2625040134
  0
LINE
 10
-0.0776881937247
 20
7.2625040134
 11
-0.0442510503878
 21
7.37550281978
  0
LINE
 10
-0.0442510503878
 20
7.37550281978
 11
0.00257318358943
 21
7.50666326531
  0
LINE
 10
0.00257318358943
 20
7.50666326531
 11
0.0648735191662
 21
7.65478879046
  0
LINE
 10
0.0648735191662
 20
7.65478879046
 11
0.144644215727
 21
7.81850868459
  0
LINE
 10
0.144644215727
 20
7.81850868459
 11
0.243771990921
 21
7.9962850885
  0
LINE
 10
1.42407616497
 20
7.87223012091
 11
1.42407616496
 21
7.8722301209
  0
LINE
 10
0.243771990921
 20
7.9962850885
 11
0.24377199092
 21
7.99628508849
  0
LINE
 10
1.42407616496
 20
7.8722301209
 11
0.24377199092
 21
7.99628508849
  0
LINE
 10
-0.122120064226
 20
6.9989346825
 11
-1.33570889594
 21
6.87138135642
  0
LINE
 10
-1.33570889594
 20
6.87138135642
 11
-1.33813960612
 21
6.8818153415
  0
LINE
 10
-1.33813960612
 20
6.8818153415
 11
-1.34696141702
 21
6.91271979333
  0
LINE
 10
-1.34696141702
 20
6.91271979333
 11
-1.36442800068
 21
6.96335667843
  0
LINE
 10
-1.36442800068
 20
6.96335667843
 11
-1.39272749939
 21
7.03280243662
  0
LINE
 10
-1.39272749939
 20
7.03280243662
 11
-1.4339689687
 21
7.11995315974
  0
LINE
 10
-1.4339689687
 20
7.11995315974
 11
-1.49016920313
 21
7.22353069808
  0
LINE
 10
-1.49016920313
 20
7.22353069808
 11
-1.56324000525
 21
7.34208966753
  0
LINE
 10
-1.56324000525
 20
7.34208966753
 11
-1.6549759574
 21
7.47402532646
  0
LINE
 10
-1.6549759574
 20
7.47402532646
 11
-1.76704275286
 21
7.61758228769
  0
LINE
 10
-1.76704275286
 20
7.61758228769
 11
-1.90096614106
 21
7.7708640273
  0
LINE
 10
-2.95828542783
 20
6.34417428256
 11
-2.96245188454
 21
6.35404428941
  0
LINE
 10
-2.96245188454
 20
6.35404428941
 11
-2.97348007061
 21
6.38423184649
  0
LINE
 10
-2.97348007061
 20
6.38423184649
 11
-2.98911292188
 21
6.43546454736
  0
LINE
 10
-2.98911292188
 20
6.43546454736
 11
-3.00703733899
 21
6.50828137391
  0
LINE
 10
-3.00703733899
 20
6.50828137391
 11
-3.02489819922
 21
6.60302891743
  0
LINE
 10
-3.02489819922
 20
6.60302891743
 11
-3.04031260399
 21
6.71985857515
  0
LINE
 10
-3.04031260399
 20
6.71985857515
 11
-3.05088429705
 21
6.85872473613
  0
LINE
 10
-3.05088429705
 20
6.85872473613
 11
-3.05421818733
 21
7.01938396615
  0
LINE
 10
-3.05421818733
 20
7.01938396615
 11
-3.04793490998
 21
7.20139519709
  0
LINE
 10
-3.04793490998
 20
7.20139519709
 11
-3.02968535897
 21
7.40412092188
  0
LINE
 10
-1.90096614106
 20
7.7708640273
 11
-1.90096614105
 21
7.77086402729
  0
LINE
 10
-3.02968535897
 20
7.40412092188
 11
-3.02968535896
 21
7.40412092187
  0
LINE
 10
-1.90096614105
 20
7.77086402729
 11
-3.02968535896
 21
7.40412092187
  0
LINE
 10
-2.95828542783
 20
6.34417428256
 11
-4.01507338082
 21
5.73403747342
  0
LINE
 10
-4.01507338082
 20
5.73403747342
 11
-4.02153782913
 21
5.74258073421
  0
LINE
 10
-4.02153782913
 20
5.74258073421
 11
-4.0421669274
 21
5.76722520204
  0
LINE
 10
-4.0421669274
 20
5.76722520204
 11
-4.07871932223
 21
5.8063799988
  0
LINE
 10
-4.07871932223
 20
5.8063799988
 11
-4.13281833528
 21
5.85831141265
  0
LINE
 10
-4.13281833528
 20
5.85831141265
 11
-4.2059416848
 21
5.9211531431
  0
LINE
 10
-4.2059416848
 20
5.9211531431
 11
-4.29941193393
 21
5.99291723808
  0
LINE
 10
-4.29941193393
 20
5.99291723808
 11
-4.41438771053
 21
6.07150567332
  0
LINE
 10
-4.41438771053
 20
6.07150567332
 11
-4.55185573994
 21
6.15472252201
  0
LINE
 10
-4.55185573994
 20
6.15472252201
 11
-4.71262372838
 21
6.24028665967
  0
LINE
 10
-4.71262372838
 20
6.24028665967
 11
-4.89731413156
 21
6.32584494728
  0
LINE
 10
-5.28293636578
 20
4.59244851415
 11
-5.29075710684
 21
4.59977056346
  0
LINE
 10
-5.29075710684
 20
4.59977056346
 11
-5.31311024175
 21
4.62286270172
  0
LINE
 10
-5.31311024175
 20
4.62286270172
 11
-5.34822977879
 21
4.66330764944
  0
LINE
 10
-5.34822977879
 20
4.66330764944
 11
-5.39422182021
 21
4.72253861333
  0
LINE
 10
-5.39422182021
 20
4.72253861333
 11
-5.44907582574
 21
4.801830135
  0
LINE
 10
-5.44907582574
 20
4.801830135
 11
-5.51067648799
 21
4.90228973488
  0
LINE
 10
-5.51067648799
 20
4.90228973488
 11
-5.57681616632
 21
5.02485039052
  0
LINE
 10
-5.57681616632
 20
5.02485039052
 11
-5.64520782254
 21
5.17026388499
  0
LINE
 10
-5.64520782254
 20
5.17026388499
 11
-5.71349840013
 21
5.33909505739
  0
LINE
 10
-5.71349840013
 20
5.33909505739
 11
-5.77928258646
 21
5.53171698354
  0
LINE
 10
-4.89731413156
 20
6.32584494728
 11
-4.89731413155
 21
6.32584494727
  0
LINE
 10
-5.77928258646
 20
5.53171698354
 11
-5.77928258646
 21
5.53171698353
  0
LINE
 10
-4.89731413155
 20
6.32584494727
 11
-5.77928258646
 21
5.53171698353
  0
LINE
 10
-5.28293636578
 20
4.59244851415
 11
-6.00019520236
 21
3.60522641918
  0
LINE
 10
-6.00019520236
 20
3.60522641918
 11
-6.00957562696
 21
3.61040174826
  0
LINE
 10
-6.00957562696
 20
3.61040174826
 11
-6.0384450541
 21
3.62452497972
  0
LINE
 10
-6.0384450541
 20
3.62452497972
 11
-6.08776301895
 21
3.64542746808
  0
LINE
 10
-6.08776301895
 20
3.64542746808
 11
-6.15830733553
 21
3.67086512435
  0
LINE
 10
-6.15830733553
 20
3.67086512435
 11
-6.25066887383
 21
3.69853195604
  0
LINE
 10
-6.25066887383
 20
3.69853195604
 11
-6.36524728242
 21
3.72607394367
  0
LINE
 10
-6.36524728242
 20
3.72607394367
 11
-6.50224767721
 21
3.7511031903
  0
LINE
 10
-6.50224767721
 20
3.7511031903
 11
-6.66167831273
 21
3.7712122796
  0
LINE
 10
-6.66167831273
 20
3.7712122796
 11
-6.84334924843
 21
3.78398877696
  0
LINE
 10
-6.84334924843
 20
3.78398877696
 11
-7.04687201801
 21
3.78702980738
  0
LINE
 10
-6.69411961212
 20
2.04664667656
 11
-6.70424236034
 21
2.05015471948
  0
LINE
 10
-6.70424236034
 20
2.05015471948
 11
-6.73405538401
 21
2.06215859844
  0
LINE
 10
-6.73405538401
 20
2.06215859844
 11
-6.7825891198
 21
2.08482249411
  0
LINE
 10
-6.7825891198
 20
2.08482249411
 11
-6.84869634375
 21
2.12022602358
  0
LINE
 10
-6.84869634375
 20
2.12022602358
 11
-6.93105873868
 21
2.17035129897
  0
LINE
 10
-6.93105873868
 20
2.17035129897
 11
-7.02819434429
 21
2.23707046355
  0
LINE
 10
-7.02819434429
 20
2.23707046355
 11
-7.13846585665
 21
2.32213376305
  0
LINE
 10
-7.13846585665
 20
2.32213376305
 11
-7.26008974013
 21
2.42715820774
  0
LINE
 10
-7.26008974013
 20
2.42715820774
 11
-7.39114611139
 21
2.55361687812
  0
LINE
 10
-7.39114611139
 20
2.55361687812
 11
-7.52958935163
 21
2.70282892467
  0
LINE
 10
-7.04687201801
 20
3.78702980738
 11
-7.046872018
 21
3.78702980738
  0
LINE
 10
-7.52958935163
 20
2.70282892467
 11
-7.52958935162
 21
2.70282892467
  0
LINE
 10
-7.046872018
 20
3.78702980738
 11
-7.52958935162
 21
2.70282892467
  0
LINE
 10
-6.69411961212
 20
2.04664667656
 11
-6.94782876335
 21
0.853038964609
  0
LINE
 10
-6.94782876335
 20
0.853038964609
 11
-6.95850320361
 21
0.853951500565
  0
LINE
 10
-6.95850320361
 20
0.853951500565
 11
-6.99062117339
 21
0.855111460634
  0
LINE
 10
-6.99062117339
 20
0.855111460634
 11
-7.04417718412
 21
0.854147410463
  0
LINE
 10
-7.04417718412
 20
0.854147410463
 11
-7.118969051
 21
0.848692907282
  0
LINE
 10
-7.118969051
 20
0.848692907282
 11
-7.21459862902
 21
0.836400993666
  0
LINE
 10
-7.21459862902
 20
0.836400993666
 11
-7.33047354933
 21
0.814958614082
  0
LINE
 10
-7.33047354933
 20
0.814958614082
 11
-7.46580994944
 21
0.78210088797
  0
LINE
 10
-7.46580994944
 20
0.78210088797
 11
-7.6196361858
 21
0.735625173665
  0
LINE
 10
-7.6196361858
 20
0.735625173665
 11
-7.79079751354
 21
0.673404858266
  0
LINE
 10
-7.79079751354
 20
0.673404858266
 11
-7.97796171372
 21
0.593402809703
  0
LINE
 10
-6.94782876335
 20
-0.853038964609
 11
-6.95850320361
 21
-0.853951500565
  0
LINE
 10
-6.95850320361
 20
-0.853951500565
 11
-6.99062117339
 21
-0.855111460634
  0
LINE
 10
-6.99062117339
 20
-0.855111460634
 11
-7.04417718412
 21
-0.854147410463
  0
LINE
 10
-7.04417718412
 20
-0.854147410463
 11
-7.118969051
 21
-0.848692907282
  0
LINE
 10
-7.118969051
 20
-0.848692907282
 11
-7.21459862902
 21
-0.836400993666
  0
LINE
 10
-7.21459862902
 20
-0.836400993666
 11
-7.33047354933
 21
-0.814958614082
  0
LINE
 10
-7.33047354933
 20
-0.814958614082
 11
-7.46580994944
 21
-0.78210088797
  0
LINE
 10
-7.46580994944
 20
-0.78210088797
 11
-7.6196361858
 21
-0.735625173665
  0
LINE
 10
-7.6196361858
 20
-0.735625173665
 11
-7.79079751354
 21
-0.673404858266
  0
LINE
 10
-7.79079751354
 20
-0.673404858266
 11
-7.97796171372
 21
-0.593402809703
  0
LINE
 10
-7.97796171372
 20
0.593402809703
 11
-7.97796171371
 21
0.593402809702
  0
LINE
 10
-7.97796171372
 20
-0.593402809703
 11
-7.97796171371
 21
-0.593402809702
  0
LINE
 10
-7.97796171371
 20
0.593402809702
 11
-7.97796171371
 21
-0.593402809702
  0
LINE
 10
-6.94782876335
 20
-0.853038964609
 11
-6.69411961212
 21
-2.04664667656
  0
LINE
 10
-6.69411961212
 20
-2.04664667656
 11
-6.70424236034
 21
-2.05015471948
  0
LINE
 10
-6.70424236034
 20
-2.05015471948
 11
-6.73405538401
 21
-2.06215859844
  0
LINE
 10
-6.73405538401
 20
-2.06215859844
 11
-6.7825891198
 21
-2.08482249411
  0
LINE
 10
-6.7825891198
 20
-2.08482249411
 11
-6.84869634375
 21
-2.12022602358
  0
LINE
 10
-6.84869634375
 20
-2.12022602358
 11
-6.93105873868
 21
-2.17035129897
  0
LINE
 10
-6.93105873868
 20
-2.17035129897
 11
-7.02819434429
 21
-2.23707046355
  0
LINE
 10
-7.02819434429
 20
-2.23707046355
 11
-7.13846585665
 21
-2.32213376305
  0
LINE
 10
-7.13846585665
 20
-2.32213376305
 11
-7.26008974013
 21
-2.42715820774
  0
LINE
 10
-7.26008974013
 20
-2.42715820774
 11
-7.39114611139
 21
-2.55361687812
  0
LINE
 10
-7.39114611139
 20
-2.55361687812
 11
-7.52958935163
 21
-2.70282892467
  0
LINE
 10
-6.00019520236
 20
-3.60522641918
 11
-6.00957562696
 21
-3.61040174826
  0
LINE
 10
-6.00957562696
 20
-3.61040174826
 11
-6.0384450541
 21
-3.62452497972
  0
LINE
 10
-6.0384450541
 20
-3.62452497972
 11
-6.08776301895
 21
-3.64542746808
  0
LINE
 10
-6.08776301895
 20
-3.64542746808
 11
-6.15830733553
 21
-3.67086512435
  0
LINE
 10
-6.15830733553
 20
-3.67086512435
 11
-6.25066887383
 21
-3.69853195604
  0
LINE
 10
-6.25066887383
 20
-3.69853195604
 11
-6.36524728242
 21
-3.72607394367
  0
LINE
 10
-6.36524728242
 20
-3.72607394367
 11
-6.50224767721
 21
-3.7511031903
  0
LINE
 10
-6.50224767721
 20
-3.7511031903
 11
-6.66167831273
 21
-3.7712122796
  0
LINE
 10
-6.66167831273
 20
-3.7712122796
 11
-6.84334924843
 21
-3.78398877696
  0
LINE
 10
-6.84334924843
 20
-3.78398877696
 11
-7.04687201801
 21
-3.78702980738
  0
LINE
 10
-7.52958935163
 20
-2.70282892467
 11
-7.52958935162
 21
-2.70282892467
  0
LINE
 10
-7.04687201801
 20
-3.78702980738
 11
-7.046872018
 21
-3.78702980738
  0
LINE
 10
-7.52958935162
 20
-2.70282892467
 11
-7.046872018
 21
-3.78702980738
  0
LINE
 10
-6.00019520236
 20
-3.60522641918
 11
-5.28293636578
 21
-4.59244851415
  0
LINE
 10
-5.28293636578
 20
-4.59244851415
 11
-5.29075710684
 21
-4.59977056346
  0
LINE
 10
-5.29075710684
 20
-4.59977056346
 11
-5.31311024175
 21
-4.62286270172
  0
LINE
 10
-5.31311024175
 20
-4.62286270172
 11
-5.34822977879
 21
-4.66330764944
  0
LINE
 10
-5.34822977879
 20
-4.66330764944
 11
-5.39422182021
 21
-4.72253861333
  0
LINE
 10
-5.39422182021
 20
-4.72253861333
 11
-5.44907582574
 21
-4.801830135
  0
LINE
 10
-5.44907582574
 20
-4.801830135
 11
-5.51067648799
 21
-4.90228973488
  0
LINE
 10
-5.51067648799
 20
-4.90228973488
 11
-5.57681616632
 21
-5.02485039052
  0
LINE
 10
-5.57681616632
 20
-5.02485039052
 11
-5.64520782254
 21
-5.17026388499
  0
LINE
 10
-5.64520782254
 20
-5.17026388499
 11
-5.71349840013
 21
-5.33909505739
  0
LINE
 10
-5.71349840013
 20
-5.33909505739
 11
-5.77928258646
 21
-5.53171698354
  0
LINE
 10
-4.01507338082
 20
-5.73403747342
 11
-4.02153782913
 21
-5.74258073421
  0
LINE
 10
-4.02153782913
 20
-5.74258073421
 11
-4.0421669274
 21
-5.76722520204
  0
LINE
 10
-4.0421669274
 20
-5.76722520204
 11
-4.07871932223
 21
-5.8063799988
  0
LINE
 10
-4.07871932223
 20
-5.8063799988
 11
-4.13281833528
 21
-5.85831141265
  0
LINE
 10
-4.13281833528
 20
-5.85831141265
 11
-4.2059416848
 21
-5.9211531431
  0
LINE
 10
-4.2059416848
 20
-5.9211531431
 11
-4.29941193393
 21
-5.99291723808
  0
LINE
 10
-4.29941193393
 20
-5.99291723808
 11
-4.41438771053
 21
-6.07150567332
  0
LINE
 10
-4.41438771053
 20
-6.07150567332
 11
-4.55185573994
 21
-6.15472252201
  0
LINE
 10
-4.55185573994
 20
-6.15472252201
 11
-4.71262372838
 21
-6.24028665967
  0
LINE
 10
-4.71262372838
 20
-6.24028665967
 11
-4.89731413156
 21
-6.32584494728
  0
LINE
 10
-5.77928258646
 20
-5.53171698354
 11
-5.77928258646
 21
-5.53171698353
  0
LINE
 10
-4.89731413156
 20
-6.32584494728
 11
-4.89731413155
 21
-6.32584494727
  0
LINE
 10
-5.77928258646
 20
-5.53171698353
 11
-4.89731413155
 21
-6.32584494727
  0
LINE
 10
-4.01507338082
 20
-5.73403747342
 11
-2.95828542783
 21
-6.34417428256
  0
LINE
 10
-2.95828542783
 20
-6.34417428256
 11
-2.96245188454
 21
-6.35404428941
  0
LINE
 10
-2.96245188454
 20
-6.35404428941
 11
-2.97348007061
 21
-6.38423184649
  0
LINE
 10
-2.97348007061
 20
-6.38423184649
 11
-2.98911292188
 21
-6.43546454736
  0
LINE
 10
-2.98911292188
 20
-6.43546454736
 11
-3.00703733899
 21
-6.50828137391
  0
LINE
 10
-3.00703733899
 20
-6.50828137391
 11
-3.02489819922
 21
-6.60302891743
  0
LINE
 10
-3.02489819922
 20
-6.60302891743
 11
-3.04031260399
 21
-6.71985857515
  0
LINE
 10
-3.04031260399
 20
-6.71985857515
 11
-3.05088429705
 21
-6.85872473613
  0
LINE
 10
-3.05088429705
 20
-6.85872473613
 11
-3.05421818733
 21
-7.01938396615
  0
LINE
 10
-3.05421818733
 20
-7.01938396615
 11
-3.04793490998
 21
-7.20139519709
  0
LINE
 10
-3.04793490998
 20
-7.20139519709
 11
-3.02968535897
 21
-7.40412092188
  0
LINE
 10
-1.33570889594
 20
-6.87138135642
 11
-1.33813960612
 21
-6.8818153415
  0
LINE
 10
-1.33813960612
 20
-6.8818153415
 11
-1.34696141702
 21
-6.91271979333
  0
LINE
 10
-1.34696141702
 20
-6.91271979333
 11
-1.36442800068
 21
-6.96335667843
  0
LINE
 10
-1.36442800068
 20
-6.96335667843
 11
-1.39272749939
 21
-7.03280243662
  0
LINE
 10
-1.39272749939
 20
-7.03280243662
 11
-1.4339689687
 21
-7.11995315974
  0
LINE
 10
-1.4339689687
 20
-7.11995315974
 11
-1.49016920313
 21
-7.22353069808
  0
LINE
 10
-1.49016920313
 20
-7.22353069808
 11
-1.56324000525
 21
-7.34208966753
  0
LINE
 10
-1.56324000525
 20
-7.34208966753
 11
-1.6549759574
 21
-7.47402532646
  0
LINE
 10
-1.6549759574
 20
-7.47402532646
 11
-1.76704275286
 21
-7.61758228769
  0
LINE
 10
-1.76704275286
 20
-7.61758228769
 11
-1.90096614106
 21
-7.7708640273
  0
LINE
 10
-3.02968535897
 20
-7.40412092188
 11
-3.02968535896
 21
-7.40412092187
  0
LINE
 10
-1.90096614106
 20
-7.7708640273
 11
-1.90096614105
 21
-7.77086402729
  0
LINE
 10
-3.02968535896
 20
-7.40412092187
 11
-1.90096614105
 21
-7.77086402729
  0
LINE
 10
-1.33570889594
 20
-6.87138135642
 11
-0.122120064226
 21
-6.9989346825
  0
LINE
 10
-0.122120064226
 20
-6.9989346825
 11
-0.121911818378
 21
-7.00964603304
  0
LINE
 10
-0.121911818378
 20
-7.00964603304
 11
-0.11970818204
 21
-7.04170930607
  0
LINE
 10
-0.11970818204
 20
-7.04170930607
 11
-0.113151285537
 21
-7.09487116068
  0
LINE
 10
-0.113151285537
 20
-7.09487116068
 11
-0.0999087837846
 21
-7.16868315906
  0
LINE
 10
-0.0999087837846
 20
-7.16868315906
 11
-0.0776881937247
 21
-7.2625040134
  0
LINE
 10
-0.0776881937247
 20
-7.2625040134
 11
-0.0442510503878
 21
-7.37550281978
  0
LINE
 10
-0.0442510503878
 20
-7.37550281978
 11
0.00257318358942
 21
-7.50666326531
  0
LINE
 10
0.00257318358942
 20
-7.50666326531
 11
0.0648735191662
 21
-7.65478879046
  0
LINE
 10
0.0648735191662
 20
-7.65478879046
 11
0.144644215727
 21
-7.81850868459
  0
LINE
 10
0.144644215727
 20
-7.81850868459
 11
0.243771990921
 21
-7.9962850885
  0
LINE
 10
1.57461179159
 20
-6.82060097834
 11
1.57663511141
 21
-6.83112155692
  0
LINE
 10
1.57663511141
 20
-6.83112155692
 11
1.58114595912
 21
-6.86294233226
  0
LINE
 10
1.58114595912
 20
-6.86294233226
 11
1.58578531762
 21
-6.91630572824
  0
LINE
 10
1.58578531762
 20
-6.91630572824
 11
1.58817857369
 21
-6.99125802829
  0
LINE
 10
1.58817857369
 20
-6.99125802829
 11
1.58595000929
 21
-7.08764859231
  0
LINE
 10
1.58595000929
 20
-7.08764859231
 11
1.57673732066
 21
-7.20513007667
  0
LINE
 10
1.57673732066
 20
-7.20513007667
 11
1.55820609854
 21
-7.34315965743
  0
LINE
 10
1.55820609854
 20
-7.34315965743
 11
1.52806420315
 21
-7.50100125258
  0
LINE
 10
1.52806420315
 20
-7.50100125258
 11
1.48407596771
 21
-7.67772873461
  0
LINE
 10
1.48407596771
 20
-7.67772873461
 11
1.42407616497
 21
-7.87223012091
  0
LINE
 10
0.243771990921
 20
-7.9962850885
 11
0.24377199092
 21
-7.99628508849
  0
LINE
 10
1.42407616497
 20
-7.87223012091
 11
1.42407616496
 21
-7.8722301209
  0
LINE
 10
0.24377199092
 20
-7.99628508849
 11
1.42407616496
 21
-7.8722301209
  0
LINE
 10
1.57461179159
 20
-6.82060097834
 11
2.73516096791
 21
-6.44351569251
  0
LINE
 10
2.73516096791
 20
-6.44351569251
 11
2.73970790872
 21
-6.45321629693
  0
LINE
 10
2.73970790872
 20
-6.45321629693
 11
2.75476233872
 21
-6.48161125471
  0
LINE
 10
2.75476233872
 20
-6.48161125471
 11
2.78237523602
 21
-6.52751009543
  0
LINE
 10
2.78237523602
 20
-6.52751009543
 11
2.82449490778
 21
-6.58955450057
  0
LINE
 10
2.82449490778
 20
-6.58955450057
 11
2.88295480624
 21
-6.66622618767
  0
LINE
 10
2.88295480624
 20
-6.66622618767
 11
2.95946191184
 21
-6.75585562253
  0
LINE
 10
2.95946191184
 20
-6.75585562253
 11
3.05558573741
 21
-6.85663152002
  0
LINE
 10
3.05558573741
 20
-6.85663152002
 11
3.17274800484
 21
-6.96661109133
  0
LINE
 10
3.17274800484
 20
-6.96661109133
 11
3.31221304248
 21
-7.0837309916
  0
LINE
 10
3.31221304248
 20
-7.0837309916
 11
3.47507894898
 21
-7.20581891935
  0
LINE
 10
4.21266779545
 20
-5.5904767279
 11
4.2187952949
 21
-5.59926479636
  0
LINE
 10
4.2187952949
 20
-5.59926479636
 11
4.23585883467
 21
-5.62649979408
  0
LINE
 10
4.23585883467
 20
-5.62649979408
 11
4.2618019481
 21
-5.67336268497
  0
LINE
 10
4.2618019481
 20
-5.67336268497
 11
4.29447414322
 21
-5.74086159328
  0
LINE
 10
4.29447414322
 20
-5.74086159328
 11
4.33164382277
 21
-5.82982519401
  0
LINE
 10
4.33164382277
 20
-5.82982519401
 11
4.37101163749
 21
-5.94089700845
  0
LINE
 10
4.37101163749
 20
-5.94089700845
 11
4.41022421202
 21
-6.07453063205
  0
LINE
 10
4.41022421202
 20
-6.07453063205
 11
4.44688818096
 21
-6.23098591767
  0
LINE
 10
4.44688818096
 20
-6.23098591767
 11
4.47858447106
 21
-6.41032613333
  0
LINE
 10
4.47858447106
 20
-6.41032613333
 11
4.50288276474
 21
-6.61241610965
  0
LINE
 10
3.47507894898
 20
-7.20581891935
 11
3.47507894898
 21
-7.20581891934
  0
LINE
 10
4.50288276474
 20
-6.61241610965
 11
4.50288276473
 21
-6.61241610964
  0
LINE
 10
3.47507894898
 20
-7.20581891934
 11
4.50288276473
 21
-6.61241610964
  0
LINE
 10
4.21266779545
 20
-5.5904767279
 11
5.11950782053
 21
-4.77395430178
  0
LINE
 10
5.11950782053
 20
-4.77395430178
 11
5.12760724893
 21
-4.78096683744
  0
LINE
 10
5.12760724893
 20
-4.78096683744
 11
5.15290942489
 21
-4.80078373382
  0
LINE
 10
5.15290942489
 20
-4.80078373382
 11
5.19680380218
 21
-4.83148323412
  0
LINE
 10
5.19680380218
 20
-4.83148323412
 11
5.26051777007
 21
-4.8710320047
  0
LINE
 10
5.26051777007
 20
-4.8710320047
 11
5.34510872939
 21
-4.91729729333
  0
LINE
 10
5.34510872939
 20
-4.91729729333
 11
5.45145702364
 21
-4.96805961312
  0
LINE
 10
5.45145702364
 20
-4.96805961312
 11
5.58025975811
 21
-5.02102589438
  0
LINE
 10
5.58025975811
 20
-5.02102589438
 11
5.73202553697
 21
-5.07384304483
  0
LINE
 10
5.73202553697
 20
-5.07384304483
 11
5.90707014368
 21
-5.12411185649
  0
LINE
 10
5.90707014368
 20
-5.12411185649
 11
6.10551318666
 21
-5.16940119624
  0
LINE
 10
6.12231526659
 20
-3.39370826332
 11
6.13148744534
 21
-3.39924428478
  0
LINE
 10
6.13148744534
 20
-3.39924428478
 11
6.15815323614
 21
-3.41718432635
  0
LINE
 10
6.15815323614
 20
-3.41718432635
 11
6.20091430449
 21
-3.44944369259
  0
LINE
 10
6.20091430449
 20
-3.44944369259
 11
6.25821611932
 21
-3.49781803471
  0
LINE
 10
6.25821611932
 20
-3.49781803471
 11
6.32835706755
 21
-3.56397205736
  0
LINE
 10
6.32835706755
 20
-3.56397205736
 11
6.40949833281
 21
-3.64942887611
  0
LINE
 10
6.40949833281
 20
-3.64942887611
 11
6.49967449362
 21
-3.75556007501
  0
LINE
 10
6.49967449362
 20
-3.75556007501
 11
6.59680479356
 21
-3.88357651086
  0
LINE
 10
6.59680479356
 20
-3.88357651086
 11
6.6987050327
 21
-4.03451990762
  0
LINE
 10
6.6987050327
 20
-4.03451990762
 11
6.80310002709
 21
-4.20925528112
  0
LINE
 10
6.10551318666
 20
-5.16940119624
 11
6.10551318665
 21
-5.16940119623
  0
LINE
 10
6.80310002709
 20
-4.20925528112
 11
6.80310002708
 21
-4.20925528111
  0
LINE
 10
6.10551318665
 20
-5.16940119623
 11
6.80310002708
 21
-4.20925528111
  0
LINE
 10
6.12231526659
 20
-3.39370826332
 11
6.61864526172
 21
-2.27893284227
  0
LINE
 10
6.61864526172
 20
-2.27893284227
 11
6.62889671295
 21
-2.28204477804
  0
LINE
 10
6.62889671295
 20
-2.28204477804
 11
6.66007165878
 21
-2.28985709161
  0
LINE
 10
6.66007165878
 20
-2.28985709161
 11
6.71265777947
 21
-2.30004902899
  0
LINE
 10
6.71265777947
 20
-2.30004902899
 11
6.7869493196
 21
-2.31026382329
  0
LINE
 10
6.7869493196
 20
-2.31026382329
 11
6.88304479444
 21
-2.31812302474
  0
LINE
 10
6.88304479444
 20
-2.31812302474
 11
7.00084569112
 21
-2.3212409632
  0
LINE
 10
7.00084569112
 20
-2.3212409632
 11
7.14005617157
 21
-2.31723927701
  0
LINE
 10
7.14005617157
 20
-2.31723927701
 11
7.30018377994
 21
-2.30376144147
  0
LINE
 10
7.30018377994
 20
-2.30376144147
 11
7.48054115299
 21
-2.27848723029
  0
LINE
 10
7.48054115299
 20
-2.27848723029
 11
7.68024872752
 21
-2.23914704376
  0
LINE
 10
6.97335880865
 20
-0.610136809136
 11
6.98398971367
 21
-0.611463555203
  0
LINE
 10
6.98398971367
 20
-0.611463555203
 11
7.01564699801
 21
-0.617006644448
  0
LINE
 10
7.01564699801
 20
-0.617006644448
 11
7.0678322441
 21
-0.629084548552
  0
LINE
 10
7.0678322441
 20
-0.629084548552
 11
7.13985567428
 21
-0.649969961256
  0
LINE
 10
7.13985567428
 20
-0.649969961256
 11
7.23083988403
 21
-0.681875774325
  0
LINE
 10
7.23083988403
 20
-0.681875774325
 11
7.33972453792
 21
-0.726941337074
  0
LINE
 10
7.33972453792
 20
-0.726941337074
 11
7.46527200758
 21
-0.787219062811
  0
LINE
 10
7.46527200758
 20
-0.787219062811
 11
7.60607392727
 21
-0.864661444146
  0
LINE
 10
7.60607392727
 20
-0.864661444146
 11
7.76055863836
 21
-0.961108537424
  0
LINE
 10
7.76055863836
 20
-0.961108537424
 11
7.92699949052
 21
-1.0782759746
  0
LINE
 10
7.68024872752
 20
-2.23914704376
 11
7.68024872751
 21
-2.23914704376
  0
LINE
 10
7.92699949052
 20
-1.0782759746
 11
7.92699949051
 21
-1.0782759746
  0
LINE
 10
7.68024872751
 20
-2.23914704376
 11
7.92699949051
 21
-1.0782759746
  0
ENDSEC
  0
EOF
