  0
SECTION
  2
ENTITIES
  0
LINE
 10
9.4784197293
 20
-0.639968307954
 11
9.4784197293
 21
0.639968307954
  0
LINE
 10
9.4784197293
 20
0.639968307954
 11
9.48889406641
 21
0.641006549525
  0
LINE
 10
9.48889406641
 20
0.641006549525
 11
9.52015841998
 21
0.645432923436
  0
LINE
 10
9.52015841998
 20
0.645432923436
 11
9.5718709244
 21
0.655199974654
  0
LINE
 10
9.5718709244
 20
0.655199974654
 11
9.64355236613
 21
0.67223341341
  0
LINE
 10
9.64355236613
 20
0.67223341341
 11
9.73458805333
 21
0.698423533818
  0
LINE
 10
9.73458805333
 20
0.698423533818
 11
9.84423018791
 21
0.73561675377
  0
LINE
 10
9.84423018791
 20
0.73561675377
 11
9.97160073232
 21
0.785607304306
  0
LINE
 10
9.97160073232
 20
0.785607304306
 11
10.1156947622
 21
0.850129096225
  0
LINE
 10
10.1156947622
 20
0.850129096225
 11
10.2753842941
 21
0.930847791173
  0
LINE
 10
10.2753842941
 20
0.930847791173
 11
10.4494225769
 21
1.02935310382
  0
LINE
 10
9.21227393075
 20
2.32034674667
 11
9.2225564516
 21
2.32259606843
  0
LINE
 10
9.2225564516
 20
2.32259606843
 11
9.25365844355
 21
2.32804755325
  0
LINE
 10
9.25365844355
 20
2.32804755325
 11
9.30585814267
 21
2.33473857823
  0
LINE
 10
9.30585814267
 20
2.33473857823
 11
9.37929486697
 21
2.34068959898
  0
LINE
 10
9.37929486697
 20
2.34068959898
 11
9.47396814279
 21
2.34391288875
  0
LINE
 10
9.47396814279
 20
2.34391288875
 11
9.58973734638
 21
2.34242131743
  0
LINE
 10
9.58973734638
 20
2.34242131743
 11
9.7263218623
 21
2.3342371414
  0
LINE
 10
9.7263218623
 20
2.3342371414
 11
9.88330175856
 21
2.31740077476
  0
LINE
 10
9.88330175856
 20
2.31740077476
 11
10.060118977
 21
2.28997951314
  0
LINE
 10
10.060118977
 20
2.28997951314
 11
10.2560790356
 21
2.25007618071
  0
LINE
 10
10.4494225769
 20
1.02935310382
 11
10.4494225768
 21
1.02935310381
  0
LINE
 10
10.2560790356
 20
2.25007618071
 11
10.2560790354
 21
2.25007618068
  0
LINE
 10
10.4494225768
 20
1.02935310381
 11
10.2560790354
 21
2.25007618068
  0
LINE
 10
9.21227393075
 20
2.32034674667
 11
8.81675176471
 21
3.53763880568
  0
LINE
 10
8.81675176471
 20
3.53763880568
 11
8.82639261698
 21
3.54186298026
  0
LINE
 10
8.82639261698
 20
3.54186298026
 11
8.85475895941
 21
3.55573392858
  0
LINE
 10
8.85475895941
 20
3.55573392858
 11
8.90092228891
 21
3.58100298898
  0
LINE
 10
8.90092228891
 20
3.58100298898
 11
8.96383176911
 21
3.61935353557
  0
LINE
 10
8.96383176911
 20
3.61935353557
 11
9.04231866035
 21
3.67239339469
  0
LINE
 10
9.04231866035
 20
3.67239339469
 11
9.13510118986
 21
3.74164753177
  0
LINE
 10
9.13510118986
 20
3.74164753177
 11
9.24078984643
 21
3.82855103342
  0
LINE
 10
9.24078984643
 20
3.82855103342
 11
9.35789308227
 21
3.93444240808
  0
LINE
 10
9.35789308227
 20
3.93444240808
 11
9.48482340371
 21
4.06055722809
  0
LINE
 10
9.48482340371
 20
4.06055722809
 11
9.61990383097
 21
4.20802213462
  0
LINE
 10
8.04436657417
 20
5.05353009493
 11
8.05345075398
 21
5.05884680073
  0
LINE
 10
8.05345075398
 20
5.05884680073
 11
8.08134590464
 21
5.07364251496
  0
LINE
 10
8.08134590464
 20
5.07364251496
 11
8.12892312821
 21
5.096136652
  0
LINE
 10
8.12892312821
 20
5.096136652
 11
8.19692663685
 21
5.12448960489
  0
LINE
 10
8.19692663685
 20
5.12448960489
 11
8.28597022142
 21
5.15681078676
  0
LINE
 10
8.28597022142
 20
5.15681078676
 11
8.39653419776
 21
5.19116686948
  0
LINE
 10
8.39653419776
 20
5.19116686948
 11
8.52896284113
 21
5.22559019211
  0
LINE
 10
8.52896284113
 20
5.22559019211
 11
8.68346231781
 21
5.25808731164
  0
LINE
 10
8.68346231781
 20
5.25808731164
 11
8.86009912145
 21
5.28664766749
  0
LINE
 10
8.86009912145
 20
5.28664766749
 11
9.05879901993
 21
5.30925233146
  0
LINE
 10
9.61990383097
 20
4.20802213462
 11
9.61990383086
 21
4.20802213457
  0
LINE
 10
9.05879901993
 20
5.30925233146
 11
9.05879901982
 21
5.3092523314
  0
LINE
 10
9.61990383086
 20
4.20802213457
 11
9.05879901982
 21
5.3092523314
  0
LINE
 10
8.04436657417
 20
5.05353009493
 11
7.29203870747
 21
6.08902056892
  0
LINE
 10
7.29203870747
 20
6.08902056892
 11
7.29990236111
 21
6.09601718487
  0
LINE
 10
7.29990236111
 20
6.09601718487
 11
7.32259399716
 21
6.11797492254
  0
LINE
 10
7.32259399716
 20
6.11797492254
 11
7.3586893634
 21
6.15627248042
  0
LINE
 10
7.3586893634
 20
6.15627248042
 11
7.40666886384
 21
6.21218611616
  0
LINE
 10
7.40666886384
 20
6.21218611616
 11
7.46492411535
 21
6.28688380302
  0
LINE
 10
7.46492411535
 20
6.28688380302
 11
7.53176483935
 21
6.38141977977
  0
LINE
 10
7.53176483935
 20
6.38141977977
 11
7.605426066
 21
6.49672951229
  0
LINE
 10
7.605426066
 20
6.49672951229
 11
7.6840756272
 21
6.63362508416
  0
LINE
 10
7.6840756272
 20
6.63362508416
 11
7.76582191389
 21
6.79279103195
  0
LINE
 10
7.76582191389
 20
6.79279103195
 11
7.84872187228
 21
6.97478063987
  0
LINE
 10
6.08902056892
 20
7.29203870747
 11
6.09601718487
 21
7.29990236111
  0
LINE
 10
6.09601718487
 20
7.29990236111
 11
6.11797492254
 21
7.32259399716
  0
LINE
 10
6.11797492254
 20
7.32259399716
 11
6.15627248042
 21
7.3586893634
  0
LINE
 10
6.15627248042
 20
7.3586893634
 11
6.21218611616
 21
7.40666886384
  0
LINE
 10
6.21218611616
 20
7.40666886384
 11
6.28688380302
 21
7.46492411535
  0
LINE
 10
6.28688380302
 20
7.46492411535
 11
6.38141977977
 21
7.53176483935
  0
LINE
 10
6.38141977977
 20
7.53176483935
 11
6.49672951229
 21
7.605426066
  0
LINE
 10
6.49672951229
 20
7.605426066
 11
6.63362508416
 21
7.6840756272
  0
LINE
 10
6.63362508416
 20
7.6840756272
 11
6.79279103195
 21
7.76582191389
  0
LINE
 10
6.79279103195
 20
7.76582191389
 11
6.97478063987
 21
7.84872187228
  0
LINE
 10
7.84872187228
 20
6.97478063987
 11
7.84872187218
 21
6.97478063978
  0
LINE
 10
6.97478063987
 20
7.84872187228
 11
6.97478063978
 21
7.84872187218
  0
LINE
 10
7.84872187218
 20
6.97478063978
 11
6.97478063978
 21
7.84872187218
  0
LINE
 10
6.08902056892
 20
7.29203870747
 11
5.05353009493
 21
8.04436657417
  0
LINE
 10
5.05353009493
 20
8.04436657417
 11
5.05884680073
 21
8.05345075398
  0
LINE
 10
5.05884680073
 20
8.05345075398
 11
5.07364251496
 21
8.08134590464
  0
LINE
 10
5.07364251496
 20
8.08134590464
 11
5.096136652
 21
8.12892312821
  0
LINE
 10
5.096136652
 20
8.12892312821
 11
5.12448960489
 21
8.19692663685
  0
LINE
 10
5.12448960489
 20
8.19692663685
 11
5.15681078676
 21
8.28597022142
  0
LINE
 10
5.15681078676
 20
8.28597022142
 11
5.19116686948
 21
8.39653419776
  0
LINE
 10
5.19116686948
 20
8.39653419776
 11
5.22559019211
 21
8.52896284113
  0
LINE
 10
5.22559019211
 20
8.52896284113
 11
5.25808731164
 21
8.68346231781
  0
LINE
 10
5.25808731164
 20
8.68346231781
 11
5.28664766749
 21
8.86009912145
  0
LINE
 10
5.28664766749
 20
8.86009912145
 11
5.30925233146
 21
9.05879901993
  0
LINE
 10
3.53763880568
 20
8.81675176471
 11
3.54186298026
 21
8.82639261698
  0
LINE
 10
3.54186298026
 20
8.82639261698
 11
3.55573392858
 21
8.85475895941
  0
LINE
 10
3.55573392858
 20
8.85475895941
 11
3.58100298898
 21
8.90092228891
  0
LINE
 10
3.58100298898
 20
8.90092228891
 11
3.61935353557
 21
8.96383176911
  0
LINE
 10
3.61935353557
 20
8.96383176911
 11
3.67239339469
 21
9.04231866035
  0
LINE
 10
3.67239339469
 20
9.04231866035
 11
3.74164753177
 21
9.13510118986
  0
LINE
 10
3.74164753177
 20
9.13510118986
 11
3.82855103342
 21
9.24078984643
  0
LINE
 10
3.82855103342
 20
9.24078984643
 11
3.93444240808
 21
9.35789308227
  0
LINE
 10
3.93444240808
 20
9.35789308227
 11
4.06055722809
 21
9.48482340371
  0
LINE
 10
4.06055722809
 20
9.48482340371
 11
4.20802213462
 21
9.61990383097
  0
LINE
 10
5.30925233146
 20
9.05879901993
 11
5.3092523314
 21
9.05879901982
  0
LINE
 10
4.20802213462
 20
9.61990383097
 11
4.20802213457
 21
9.61990383086
  0
LINE
 10
5.3092523314
 20
9.05879901982
 11
4.20802213457
 21
9.61990383086
  0
LINE
 10
3.53763880568
 20
8.81675176471
 11
2.32034674667
 21
9.21227393075
  0
LINE
 10
2.32034674667
 20
9.21227393075
 11
2.32259606843
 21
9.2225564516
  0
LINE
 10
2.32259606843
 20
9.2225564516
 11
2.32804755325
 21
9.25365844355
  0
LINE
 10
2.32804755325
 20
9.25365844355
 11
2.33473857823
 21
9.30585814267
  0
LINE
 10
2.33473857823
 20
9.30585814267
 11
2.34068959898
 21
9.37929486697
  0
LINE
 10
2.34068959898
 20
9.37929486697
 11
2.34391288875
 21
9.47396814279
  0
LINE
 10
2.34391288875
 20
9.47396814279
 11
2.34242131743
 21
9.58973734638
  0
LINE
 10
2.34242131743
 20
9.58973734638
 11
2.3342371414
 21
9.7263218623
  0
LINE
 10
2.3342371414
 20
9.7263218623
 11
2.31740077476
 21
9.88330175856
  0
LINE
 10
2.31740077476
 20
9.88330175856
 11
2.28997951314
 21
10.060118977
  0
LINE
 10
2.28997951314
 20
10.060118977
 11
2.25007618071
 21
10.2560790356
  0
LINE
 10
0.639968307954
 20
9.4784197293
 11
0.641006549525
 21
9.48889406641
  0
LINE
 10
0.641006549525
 20
9.48889406641
 11
0.645432923436
 21
9.52015841998
  0
LINE
 10
0.645432923436
 20
9.52015841998
 11
0.655199974654
 21
9.5718709244
  0
LINE
 10
0.655199974654
 20
9.5718709244
 11
0.67223341341
 21
9.64355236613
  0
LINE
 10
0.67223341341
 20
9.64355236613
 11
0.698423533818
 21
9.73458805333
  0
LINE
 10
0.698423533818
 20
9.73458805333
 11
0.73561675377
 21
9.84423018791
  0
LINE
 10
0.73561675377
 20
9.84423018791
 11
0.785607304306
 21
9.97160073232
  0
LINE
 10
0.785607304306
 20
9.97160073232
 11
0.850129096225
 21
10.1156947622
  0
LINE
 10
0.850129096225
 20
10.1156947622
 11
0.930847791173
 21
10.2753842941
  0
LINE
 10
0.930847791173
 20
10.2753842941
 11
1.02935310382
 21
10.4494225769
  0
LINE
 10
2.25007618071
 20
10.2560790356
 11
2.25007618068
 21
10.2560790354
  0
LINE
 10
1.02935310382
 20
10.4494225769
 11
1.02935310381
 21
10.4494225768
  0
LINE
 10
2.25007618068
 20
10.2560790354
 11
1.02935310381
 21
10.4494225768
  0
LINE
 10
0.639968307954
 20
9.4784197293
 11
-0.639968307954
 21
9.4784197293
  0
LINE
 10
-0.639968307954
 20
9.4784197293
 11
-0.641006549525
 21
9.48889406641
  0
LINE
 10
-0.641006549525
 20
9.48889406641
 11
-0.645432923436
 21
9.52015841998
  0
LINE
 10
-0.645432923436
 20
9.52015841998
 11
-0.655199974654
 21
9.5718709244
  0
LINE
 10
-0.655199974654
 20
9.5718709244
 11
-0.67223341341
 21
9.64355236613
  0
LINE
 10
-0.67223341341
 20
9.64355236613
 11
-0.698423533818
 21
9.73458805333
  0
LINE
 10
-0.698423533818
 20
9.73458805333
 11
-0.73561675377
 21
9.84423018791
  0
LINE
 10
-0.73561675377
 20
9.84423018791
 11
-0.785607304306
 21
9.97160073232
  0
LINE
 10
-0.785607304306
 20
9.97160073232
 11
-0.850129096225
 21
10.1156947622
  0
LINE
 10
-0.850129096225
 20
10.1156947622
 11
-0.930847791173
 21
10.2753842941
  0
LINE
 10
-0.930847791173
 20
10.2753842941
 11
-1.02935310382
 21
10.4494225769
  0
LINE
 10
-2.32034674667
 20
9.21227393075
 11
-2.32259606843
 21
9.2225564516
  0
LINE
 10
-2.32259606843
 20
9.2225564516
 11
-2.32804755325
 21
9.25365844355
  0
LINE
 10
-2.32804755325
 20
9.25365844355
 11
-2.33473857823
 21
9.30585814267
  0
LINE
 10
-2.33473857823
 20
9.30585814267
 11
-2.34068959898
 21
9.37929486697
  0
LINE
 10
-2.34068959898
 20
9.37929486697
 11
-2.34391288875
 21
9.47396814279
  0
LINE
 10
-2.34391288875
 20
9.47396814279
 11
-2.34242131743
 21
9.58973734638
  0
LINE
 10
-2.34242131743
 20
9.58973734638
 11
-2.3342371414
 21
9.7263218623
  0
LINE
 10
-2.3342371414
 20
9.7263218623
 11
-2.31740077476
 21
9.88330175856
  0
LINE
 10
-2.31740077476
 20
9.88330175856
 11
-2.28997951314
 21
10.060118977
  0
LINE
 10
-2.28997951314
 20
10.060118977
 11
-2.25007618071
 21
10.2560790356
  0
LINE
 10
-1.02935310382
 20
10.4494225769
 11
-1.02935310381
 21
10.4494225768
  0
LINE
 10
-2.25007618071
 20
10.2560790356
 11
-2.25007618068
 21
10.2560790354
  0
LINE
 10
-1.02935310381
 20
10.4494225768
 11
-2.25007618068
 21
10.2560790354
  0
LINE
 10
-2.32034674667
 20
9.21227393075
 11
-3.53763880568
 21
8.81675176471
  0
LINE
 10
-3.53763880568
 20
8.81675176471
 11
-3.54186298026
 21
8.82639261698
  0
LINE
 10
-3.54186298026
 20
8.82639261698
 11
-3.55573392858
 21
8.85475895941
  0
LINE
 10
-3.55573392858
 20
8.85475895941
 11
-3.58100298898
 21
8.90092228891
  0
LINE
 10
-3.58100298898
 20
8.90092228891
 11
-3.61935353557
 21
8.96383176911
  0
LINE
 10
-3.61935353557
 20
8.96383176911
 11
-3.67239339469
 21
9.04231866035
  0
LINE
 10
-3.67239339469
 20
9.04231866035
 11
-3.74164753177
 21
9.13510118986
  0
LINE
 10
-3.74164753177
 20
9.13510118986
 11
-3.82855103342
 21
9.24078984643
  0
LINE
 10
-3.82855103342
 20
9.24078984643
 11
-3.93444240808
 21
9.35789308227
  0
LINE
 10
-3.93444240808
 20
9.35789308227
 11
-4.06055722809
 21
9.48482340371
  0
LINE
 10
-4.06055722809
 20
9.48482340371
 11
-4.20802213462
 21
9.61990383097
  0
LINE
 10
-5.05353009493
 20
8.04436657417
 11
-5.05884680073
 21
8.05345075398
  0
LINE
 10
-5.05884680073
 20
8.05345075398
 11
-5.07364251496
 21
8.08134590464
  0
LINE
 10
-5.07364251496
 20
8.08134590464
 11
-5.096136652
 21
8.12892312821
  0
LINE
 10
-5.096136652
 20
8.12892312821
 11
-5.12448960489
 21
8.19692663685
  0
LINE
 10
-5.12448960489
 20
8.19692663685
 11
-5.15681078676
 21
8.28597022142
  0
LINE
 10
-5.15681078676
 20
8.28597022142
 11
-5.19116686948
 21
8.39653419776
  0
LINE
 10
-5.19116686948
 20
8.39653419776
 11
-5.22559019211
 21
8.52896284113
  0
LINE
 10
-5.22559019211
 20
8.52896284113
 11
-5.25808731164
 21
8.68346231781
  0
LINE
 10
-5.25808731164
 20
8.68346231781
 11
-5.28664766749
 21
8.86009912145
  0
LINE
 10
-5.28664766749
 20
8.86009912145
 11
-5.30925233146
 21
9.05879901993
  0
LINE
 10
-4.20802213462
 20
9.61990383097
 11
-4.20802213457
 21
9.61990383086
  0
LINE
 10
-5.30925233146
 20
9.05879901993
 11
-5.3092523314
 21
9.05879901982
  0
LINE
 10
-4.20802213457
 20
9.61990383086
 11
-5.3092523314
 21
9.05879901982
  0
LINE
 10
-5.05353009493
 20
8.04436657417
 11
-6.08902056892
 21
7.29203870747
  0
LINE
 10
-6.08902056892
 20
7.29203870747
 11
-6.09601718487
 21
7.29990236111
  0
LINE
 10
-6.09601718487
 20
7.29990236111
 11
-6.11797492254
 21
7.32259399716
  0
LINE
 10
-6.11797492254
 20
7.32259399716
 11
-6.15627248042
 21
7.3586893634
  0
LINE
 10
-6.15627248042
 20
7.3586893634
 11
-6.21218611616
 21
7.40666886384
  0
LINE
 10
-6.21218611616
 20
7.40666886384
 11
-6.28688380302
 21
7.46492411535
  0
LINE
 10
-6.28688380302
 20
7.46492411535
 11
-6.38141977977
 21
7.53176483935
  0
LINE
 10
-6.38141977977
 20
7.53176483935
 11
-6.49672951229
 21
7.605426066
  0
LINE
 10
-6.49672951229
 20
7.605426066
 11
-6.63362508416
 21
7.6840756272
  0
LINE
 10
-6.63362508416
 20
7.6840756272
 11
-6.79279103195
 21
7.76582191389
  0
LINE
 10
-6.79279103195
 20
7.76582191389
 11
-6.97478063987
 21
7.84872187228
  0
LINE
 10
-7.29203870747
 20
6.08902056892
 11
-7.29990236111
 21
6.09601718487
  0
LINE
 10
-7.29990236111
 20
6.09601718487
 11
-7.32259399716
 21
6.11797492254
  0
LINE
 10
-7.32259399716
 20
6.11797492254
 11
-7.3586893634
 21
6.15627248042
  0
LINE
 10
-7.3586893634
 20
6.15627248042
 11
-7.40666886384
 21
6.21218611616
  0
LINE
 10
-7.40666886384
 20
6.21218611616
 11
-7.46492411535
 21
6.28688380302
  0
LINE
 10
-7.46492411535
 20
6.28688380302
 11
-7.53176483935
 21
6.38141977977
  0
LINE
 10
-7.53176483935
 20
6.38141977977
 11
-7.605426066
 21
6.49672951229
  0
LINE
 10
-7.605426066
 20
6.49672951229
 11
-7.6840756272
 21
6.63362508416
  0
LINE
 10
-7.6840756272
 20
6.63362508416
 11
-7.76582191389
 21
6.79279103195
  0
LINE
 10
-7.76582191389
 20
6.79279103195
 11
-7.84872187228
 21
6.97478063987
  0
LINE
 10
-6.97478063987
 20
7.84872187228
 11
-6.97478063978
 21
7.84872187218
  0
LINE
 10
-7.84872187228
 20
6.97478063987
 11
-7.84872187218
 21
6.97478063978
  0
LINE
 10
-6.97478063978
 20
7.84872187218
 11
-7.84872187218
 21
6.97478063978
  0
LINE
 10
-7.29203870747
 20
6.08902056892
 11
-8.04436657417
 21
5.05353009493
  0
LINE
 10
-8.04436657417
 20
5.05353009493
 11
-8.05345075398
 21
5.05884680073
  0
LINE
 10
-8.05345075398
 20
5.05884680073
 11
-8.08134590464
 21
5.07364251496
  0
LINE
 10
-8.08134590464
 20
5.07364251496
 11
-8.12892312821
 21
5.096136652
  0
LINE
 10
-8.12892312821
 20
5.096136652
 11
-8.19692663685
 21
5.12448960489
  0
LINE
 10
-8.19692663685
 20
5.12448960489
 11
-8.28597022142
 21
5.15681078676
  0
LINE
 10
-8.28597022142
 20
5.15681078676
 11
-8.39653419776
 21
5.19116686948
  0
LINE
 10
-8.39653419776
 20
5.19116686948
 11
-8.52896284113
 21
5.22559019211
  0
LINE
 10
-8.52896284113
 20
5.22559019211
 11
-8.68346231781
 21
5.25808731164
  0
LINE
 10
-8.68346231781
 20
5.25808731164
 11
-8.86009912145
 21
5.28664766749
  0
LINE
 10
-8.86009912145
 20
5.28664766749
 11
-9.05879901993
 21
5.30925233146
  0
LINE
 10
-8.81675176471
 20
3.53763880568
 11
-8.82639261698
 21
3.54186298026
  0
LINE
 10
-8.82639261698
 20
3.54186298026
 11
-8.85475895941
 21
3.55573392858
  0
LINE
 10
-8.85475895941
 20
3.55573392858
 11
-8.90092228891
 21
3.58100298898
  0
LINE
 10
-8.90092228891
 20
3.58100298898
 11
-8.96383176911
 21
3.61935353557
  0
LINE
 10
-8.96383176911
 20
3.61935353557
 11
-9.04231866035
 21
3.67239339469
  0
LINE
 10
-9.04231866035
 20
3.67239339469
 11
-9.13510118986
 21
3.74164753177
  0
LINE
 10
-9.13510118986
 20
3.74164753177
 11
-9.24078984643
 21
3.82855103342
  0
LINE
 10
-9.24078984643
 20
3.82855103342
 11
-9.35789308227
 21
3.93444240808
  0
LINE
 10
-9.35789308227
 20
3.93444240808
 11
-9.48482340371
 21
4.06055722809
  0
LINE
 10
-9.48482340371
 20
4.06055722809
 11
-9.61990383097
 21
4.20802213462
  0
LINE
 10
-9.05879901993
 20
5.30925233146
 11
-9.05879901982
 21
5.3092523314
  0
LINE
 10
-9.61990383097
 20
4.20802213462
 11
-9.61990383086
 21
4.20802213457
  0
LINE
 10
-9.05879901982
 20
5.3092523314
 11
-9.61990383086
 21
4.20802213457
  0
LINE
 10
-8.81675176471
 20
3.53763880568
 11
-9.21227393075
 21
2.32034674667
  0
LINE
 10
-9.21227393075
 20
2.32034674667
 11
-9.2225564516
 21
2.32259606843
  0
LINE
 10
-9.2225564516
 20
2.32259606843
 11
-9.25365844355
 21
2.32804755325
  0
LINE
 10
-9.25365844355
 20
2.32804755325
 11
-9.30585814267
 21
2.33473857823
  0
LINE
 10
-9.30585814267
 20
2.33473857823
 11
-9.37929486697
 21
2.34068959898
  0
LINE
 10
-9.37929486697
 20
2.34068959898
 11
-9.47396814279
 21
2.34391288875
  0
LINE
 10
-9.47396814279
 20
2.34391288875
 11
-9.58973734638
 21
2.34242131743
  0
LINE
 10
-9.58973734638
 20
2.34242131743
 11
-9.7263218623
 21
2.3342371414
  0
LINE
 10
-9.7263218623
 20
2.3342371414
 11
-9.88330175856
 21
2.31740077476
  0
LINE
 10
-9.88330175856
 20
2.31740077476
 11
-10.060118977
 21
2.28997951314
  0
LINE
 10
-10.060118977
 20
2.28997951314
 11
-10.2560790356
 21
2.25007618071
  0
LINE
 10
-9.4784197293
 20
0.639968307954
 11
-9.48889406641
 21
0.641006549525
  0
LINE
 10
-9.48889406641
 20
0.641006549525
 11
-9.52015841998
 21
0.645432923436
  0
LINE
 10
-9.52015841998
 20
0.645432923436
 11
-9.5718709244
 21
0.655199974654
  0
LINE
 10
-9.5718709244
 20
0.655199974654
 11
-9.64355236613
 21
0.67223341341
  0
LINE
 10
-9.64355236613
 20
0.67223341341
 11
-9.73458805333
 21
0.698423533818
  0
LINE
 10
-9.73458805333
 20
0.698423533818
 11
-9.84423018791
 21
0.73561675377
  0
LINE
 10
-9.84423018791
 20
0.73561675377
 11
-9.97160073232
 21
0.785607304306
  0
LINE
 10
-9.97160073232
 20
0.785607304306
 11
-10.1156947622
 21
0.850129096225
  0
LINE
 10
-10.1156947622
 20
0.850129096225
 11
-10.2753842941
 21
0.930847791173
  0
LINE
 10
-10.2753842941
 20
0.930847791173
 11
-10.4494225769
 21
1.02935310382
  0
LINE
 10
-10.2560790356
 20
2.25007618071
 11
-10.2560790354
 21
2.25007618068
  0
LINE
 10
-10.4494225769
 20
1.02935310382
 11
-10.4494225768
 21
1.02935310381
  0
LINE
 10
-10.2560790354
 20
2.25007618068
 11
-10.4494225768
 21
1.02935310381
  0
LINE
 10
-9.4784197293
 20
0.639968307954
 11
-9.4784197293
 21
-0.639968307954
  0
LINE
 10
-9.4784197293
 20
-0.639968307954
 11
-9.48889406641
 21
-0.641006549525
  0
LINE
 10
-9.48889406641
 20
-0.641006549525
 11
-9.52015841998
 21
-0.645432923436
  0
LINE
 10
-9.52015841998
 20
-0.645432923436
 11
-9.5718709244
 21
-0.655199974654
  0
LINE
 10
-9.5718709244
 20
-0.655199974654
 11
-9.64355236613
 21
-0.67223341341
  0
LINE
 10
-9.64355236613
 20
-0.67223341341
 11
-9.73458805333
 21
-0.698423533818
  0
LINE
 10
-9.73458805333
 20
-0.698423533818
 11
-9.84423018791
 21
-0.73561675377
  0
LINE
 10
-9.84423018791
 20
-0.73561675377
 11
-9.97160073232
 21
-0.785607304306
  0
LINE
 10
-9.97160073232
 20
-0.785607304306
 11
-10.1156947622
 21
-0.850129096225
  0
LINE
 10
-10.1156947622
 20
-0.850129096225
 11
-10.2753842941
 21
-0.930847791173
  0
LINE
 10
-10.2753842941
 20
-0.930847791173
 11
-10.4494225769
 21
-1.02935310382
  0
LINE
 10
-9.21227393075
 20
-2.32034674667
 11
-9.2225564516
 21
-2.32259606843
  0
LINE
 10
-9.2225564516
 20
-2.32259606843
 11
-9.25365844355
 21
-2.32804755325
  0
LINE
 10
-9.25365844355
 20
-2.32804755325
 11
-9.30585814267
 21
-2.33473857823
  0
LINE
 10
-9.30585814267
 20
-2.33473857823
 11
-9.37929486697
 21
-2.34068959898
  0
LINE
 10
-9.37929486697
 20
-2.34068959898
 11
-9.47396814279
 21
-2.34391288875
  0
LINE
 10
-9.47396814279
 20
-2.34391288875
 11
-9.58973734638
 21
-2.34242131743
  0
LINE
 10
-9.58973734638
 20
-2.34242131743
 11
-9.7263218623
 21
-2.3342371414
  0
LINE
 10
-9.7263218623
 20
-2.3342371414
 11
-9.88330175856
 21
-2.31740077476
  0
LINE
 10
-9.88330175856
 20
-2.31740077476
 11
-10.060118977
 21
-2.28997951314
  0
LINE
 10
-10.060118977
 20
-2.28997951314
 11
-10.2560790356
 21
-2.25007618071
  0
LINE
 10
-10.4494225769
 20
-1.02935310382
 11
-10.4494225768
 21
-1.02935310381
  0
LINE
 10
-10.2560790356
 20
-2.25007618071
 11
-10.2560790354
 21
-2.25007618068
  0
LINE
 10
-10.4494225768
 20
-1.02935310381
 11
-10.2560790354
 21
-2.25007618068
  0
LINE
 10
-9.21227393075
 20
-2.32034674667
 11
-8.81675176471
 21
-3.53763880568
  0
LINE
 10
-8.81675176471
 20
-3.53763880568
 11
-8.82639261698
 21
-3.54186298026
  0
LINE
 10
-8.82639261698
 20
-3.54186298026
 11
-8.85475895941
 21
-3.55573392858
  0
LINE
 10
-8.85475895941
 20
-3.55573392858
 11
-8.90092228891
 21
-3.58100298898
  0
LINE
 10
-8.90092228891
 20
-3.58100298898
 11
-8.96383176911
 21
-3.61935353557
  0
LINE
 10
-8.96383176911
 20
-3.61935353557
 11
-9.04231866035
 21
-3.67239339469
  0
LINE
 10
-9.04231866035
 20
-3.67239339469
 11
-9.13510118986
 21
-3.74164753177
  0
LINE
 10
-9.13510118986
 20
-3.74164753177
 11
-9.24078984643
 21
-3.82855103342
  0
LINE
 10
-9.24078984643
 20
-3.82855103342
 11
-9.35789308227
 21
-3.93444240808
  0
LINE
 10
-9.35789308227
 20
-3.93444240808
 11
-9.48482340371
 21
-4.06055722809
  0
LINE
 10
-9.48482340371
 20
-4.06055722809
 11
-9.61990383097
 21
-4.20802213462
  0
LINE
 10
-8.04436657417
 20
-5.05353009493
 11
-8.05345075398
 21
-5.05884680073
  0
LINE
 10
-8.05345075398
 20
-5.05884680073
 11
-8.08134590464
 21
-5.07364251496
  0
LINE
 10
-8.08134590464
 20
-5.07364251496
 11
-8.12892312821
 21
-5.096136652
  0
LINE
 10
-8.12892312821
 20
-5.096136652
 11
-8.19692663685
 21
-5.12448960489
  0
LINE
 10
-8.19692663685
 20
-5.12448960489
 11
-8.28597022142
 21
-5.15681078676
  0
LINE
 10
-8.28597022142
 20
-5.15681078676
 11
-8.39653419776
 21
-5.19116686948
  0
LINE
 10
-8.39653419776
 20
-5.19116686948
 11
-8.52896284113
 21
-5.22559019211
  0
LINE
 10
-8.52896284113
 20
-5.22559019211
 11
-8.68346231781
 21
-5.25808731164
  0
LINE
 10
-8.68346231781
 20
-5.25808731164
 11
-8.86009912145
 21
-5.28664766749
  0
LINE
 10
-8.86009912145
 20
-5.28664766749
 11
-9.05879901993
 21
-5.30925233146
  0
LINE
 10
-9.61990383097
 20
-4.20802213462
 11
-9.61990383086
 21
-4.20802213457
  0
LINE
 10
-9.05879901993
 20
-5.30925233146
 11
-9.05879901982
 21
-5.3092523314
  0
LINE
 10
-9.61990383086
 20
-4.20802213457
 11
-9.05879901982
 21
-5.3092523314
  0
LINE
 10
-8.04436657417
 20
-5.05353009493
 11
-7.29203870747
 21
-6.08902056892
  0
LINE
 10
-7.29203870747
 20
-6.08902056892
 11
-7.29990236111
 21
-6.09601718487
  0
LINE
 10
-7.29990236111
 20
-6.09601718487
 11
-7.32259399716
 21
-6.11797492254
  0
LINE
 10
-7.32259399716
 20
-6.11797492254
 11
-7.3586893634
 21
-6.15627248042
  0
LINE
 10
-7.3586893634
 20
-6.15627248042
 11
-7.40666886384
 21
-6.21218611616
  0
LINE
 10
-7.40666886384
 20
-6.21218611616
 11
-7.46492411535
 21
-6.28688380302
  0
LINE
 10
-7.46492411535
 20
-6.28688380302
 11
-7.53176483935
 21
-6.38141977977
  0
LINE
 10
-7.53176483935
 20
-6.38141977977
 11
-7.605426066
 21
-6.49672951229
  0
LINE
 10
-7.605426066
 20
-6.49672951229
 11
-7.6840756272
 21
-6.63362508416
  0
LINE
 10
-7.6840756272
 20
-6.63362508416
 11
-7.76582191389
 21
-6.79279103195
  0
LINE
 10
-7.76582191389
 20
-6.79279103195
 11
-7.84872187228
 21
-6.97478063987
  0
LINE
 10
-6.08902056892
 20
-7.29203870747
 11
-6.09601718487
 21
-7.29990236111
  0
LINE
 10
-6.09601718487
 20
-7.29990236111
 11
-6.11797492254
 21
-7.32259399716
  0
LINE
 10
-6.11797492254
 20
-7.32259399716
 11
-6.15627248042
 21
-7.3586893634
  0
LINE
 10
-6.15627248042
 20
-7.3586893634
 11
-6.21218611616
 21
-7.40666886384
  0
LINE
 10
-6.21218611616
 20
-7.40666886384
 11
-6.28688380302
 21
-7.46492411535
  0
LINE
 10
-6.28688380302
 20
-7.46492411535
 11
-6.38141977977
 21
-7.53176483935
  0
LINE
 10
-6.38141977977
 20
-7.53176483935
 11
-6.49672951229
 21
-7.605426066
  0
LINE
 10
-6.49672951229
 20
-7.605426066
 11
-6.63362508416
 21
-7.6840756272
  0
LINE
 10
-6.63362508416
 20
-7.6840756272
 11
-6.79279103195
 21
-7.76582191389
  0
LINE
 10
-6.79279103195
 20
-7.76582191389
 11
-6.97478063987
 21
-7.84872187228
  0
LINE
 10
-7.84872187228
 20
-6.97478063987
 11
-7.84872187218
 21
-6.97478063978
  0
LINE
 10
-6.97478063987
 20
-7.84872187228
 11
-6.97478063978
 21
-7.84872187218
  0
LINE
 10
-7.84872187218
 20
-6.97478063978
 11
-6.97478063978
 21
-7.84872187218
  0
LINE
 10
-6.08902056892
 20
-7.29203870747
 11
-5.05353009493
 21
-8.04436657417
  0
LINE
 10
-5.05353009493
 20
-8.04436657417
 11
-5.05884680073
 21
-8.05345075398
  0
LINE
 10
-5.05884680073
 20
-8.05345075398
 11
-5.07364251496
 21
-8.08134590464
  0
LINE
 10
-5.07364251496
 20
-8.08134590464
 11
-5.096136652
 21
-8.12892312821
  0
LINE
 10
-5.096136652
 20
-8.12892312821
 11
-5.12448960489
 21
-8.19692663685
  0
LINE
 10
-5.12448960489
 20
-8.19692663685
 11
-5.15681078676
 21
-8.28597022142
  0
LINE
 10
-5.15681078676
 20
-8.28597022142
 11
-5.19116686948
 21
-8.39653419776
  0
LINE
 10
-5.19116686948
 20
-8.39653419776
 11
-5.22559019211
 21
-8.52896284113
  0
LINE
 10
-5.22559019211
 20
-8.52896284113
 11
-5.25808731164
 21
-8.68346231781
  0
LINE
 10
-5.25808731164
 20
-8.68346231781
 11
-5.28664766749
 21
-8.86009912145
  0
LINE
 10
-5.28664766749
 20
-8.86009912145
 11
-5.30925233146
 21
-9.05879901993
  0
LINE
 10
-3.53763880568
 20
-8.81675176471
 11
-3.54186298026
 21
-8.82639261698
  0
LINE
 10
-3.54186298026
 20
-8.82639261698
 11
-3.55573392858
 21
-8.85475895941
  0
LINE
 10
-3.55573392858
 20
-8.85475895941
 11
-3.58100298898
 21
-8.90092228891
  0
LINE
 10
-3.58100298898
 20
-8.90092228891
 11
-3.61935353557
 21
-8.96383176911
  0
LINE
 10
-3.61935353557
 20
-8.96383176911
 11
-3.67239339469
 21
-9.04231866035
  0
LINE
 10
-3.67239339469
 20
-9.04231866035
 11
-3.74164753177
 21
-9.13510118986
  0
LINE
 10
-3.74164753177
 20
-9.13510118986
 11
-3.82855103342
 21
-9.24078984643
  0
LINE
 10
-3.82855103342
 20
-9.24078984643
 11
-3.93444240808
 21
-9.35789308227
  0
LINE
 10
-3.93444240808
 20
-9.35789308227
 11
-4.06055722809
 21
-9.48482340371
  0
LINE
 10
-4.06055722809
 20
-9.48482340371
 11
-4.20802213462
 21
-9.61990383097
  0
LINE
 10
-5.30925233146
 20
-9.05879901993
 11
-5.3092523314
 21
-9.05879901982
  0
LINE
 10
-4.20802213462
 20
-9.61990383097
 11
-4.20802213457
 21
-9.61990383086
  0
LINE
 10
-5.3092523314
 20
-9.05879901982
 11
-4.20802213457
 21
-9.61990383086
  0
LINE
 10
-3.53763880568
 20
-8.81675176471
 11
-2.32034674667
 21
-9.21227393075
  0
LINE
 10
-2.32034674667
 20
-9.21227393075
 11
-2.32259606843
 21
-9.2225564516
  0
LINE
 10
-2.32259606843
 20
-9.2225564516
 11
-2.32804755325
 21
-9.25365844355
  0
LINE
 10
-2.32804755325
 20
-9.25365844355
 11
-2.33473857823
 21
-9.30585814267
  0
LINE
 10
-2.33473857823
 20
-9.30585814267
 11
-2.34068959898
 21
-9.37929486697
  0
LINE
 10
-2.34068959898
 20
-9.37929486697
 11
-2.34391288875
 21
-9.47396814279
  0
LINE
 10
-2.34391288875
 20
-9.47396814279
 11
-2.34242131743
 21
-9.58973734638
  0
LINE
 10
-2.34242131743
 20
-9.58973734638
 11
-2.3342371414
 21
-9.7263218623
  0
LINE
 10
-2.3342371414
 20
-9.7263218623
 11
-2.31740077476
 21
-9.88330175856
  0
LINE
 10
-2.31740077476
 20
-9.88330175856
 11
-2.28997951314
 21
-10.060118977
  0
LINE
 10
-2.28997951314
 20
-10.060118977
 11
-2.25007618071
 21
-10.2560790356
  0
LINE
 10
-0.639968307954
 20
-9.4784197293
 11
-0.641006549525
 21
-9.48889406641
  0
LINE
 10
-0.641006549525
 20
-9.48889406641
 11
-0.645432923436
 21
-9.52015841998
  0
LINE
 10
-0.645432923436
 20
-9.52015841998
 11
-0.655199974654
 21
-9.5718709244
  0
LINE
 10
-0.655199974654
 20
-9.5718709244
 11
-0.67223341341
 21
-9.64355236613
  0
LINE
 10
-0.67223341341
 20
-9.64355236613
 11
-0.698423533818
 21
-9.73458805333
  0
LINE
 10
-0.698423533818
 20
-9.73458805333
 11
-0.73561675377
 21
-9.84423018791
  0
LINE
 10
-0.73561675377
 20
-9.84423018791
 11
-0.785607304306
 21
-9.97160073232
  0
LINE
 10
-0.785607304306
 20
-9.97160073232
 11
-0.850129096225
 21
-10.1156947622
  0
LINE
 10
-0.850129096225
 20
-10.1156947622
 11
-0.930847791173
 21
-10.2753842941
  0
LINE
 10
-0.930847791173
 20
-10.2753842941
 11
-1.02935310382
 21
-10.4494225769
  0
LINE
 10
-2.25007618071
 20
-10.2560790356
 11
-2.25007618068
 21
-10.2560790354
  0
LINE
 10
-1.02935310382
 20
-10.4494225769
 11
-1.02935310381
 21
-10.4494225768
  0
LINE
 10
-2.25007618068
 20
-10.2560790354
 11
-1.02935310381
 21
-10.4494225768
  0
LINE
 10
-0.639968307954
 20
-9.4784197293
 11
0.639968307954
 21
-9.4784197293
  0
LINE
 10
0.639968307954
 20
-9.4784197293
 11
0.641006549525
 21
-9.48889406641
  0
LINE
 10
0.641006549525
 20
-9.48889406641
 11
0.645432923436
 21
-9.52015841998
  0
LINE
 10
0.645432923436
 20
-9.52015841998
 11
0.655199974654
 21
-9.5718709244
  0
LINE
 10
0.655199974654
 20
-9.5718709244
 11
0.67223341341
 21
-9.64355236613
  0
LINE
 10
0.67223341341
 20
-9.64355236613
 11
0.698423533818
 21
-9.73458805333
  0
LINE
 10
0.698423533818
 20
-9.73458805333
 11
0.73561675377
 21
-9.84423018791
  0
LINE
 10
0.73561675377
 20
-9.84423018791
 11
0.785607304306
 21
-9.97160073232
  0
LINE
 10
0.785607304306
 20
-9.97160073232
 11
0.850129096225
 21
-10.1156947622
  0
LINE
 10
0.850129096225
 20
-10.1156947622
 11
0.930847791172
 21
-10.2753842941
  0
LINE
 10
0.930847791172
 20
-10.2753842941
 11
1.02935310382
 21
-10.4494225769
  0
LINE
 10
2.32034674667
 20
-9.21227393075
 11
2.32259606843
 21
-9.2225564516
  0
LINE
 10
2.32259606843
 20
-9.2225564516
 11
2.32804755325
 21
-9.25365844355
  0
LINE
 10
2.32804755325
 20
-9.25365844355
 11
2.33473857823
 21
-9.30585814267
  0
LINE
 10
2.33473857823
 20
-9.30585814267
 11
2.34068959898
 21
-9.37929486697
  0
LINE
 10
2.34068959898
 20
-9.37929486697
 11
2.34391288875
 21
-9.47396814279
  0
LINE
 10
2.34391288875
 20
-9.47396814279
 11
2.34242131743
 21
-9.58973734638
  0
LINE
 10
2.34242131743
 20
-9.58973734638
 11
2.3342371414
 21
-9.7263218623
  0
LINE
 10
2.3342371414
 20
-9.7263218623
 11
2.31740077476
 21
-9.88330175856
  0
LINE
 10
2.31740077476
 20
-9.88330175856
 11
2.28997951314
 21
-10.060118977
  0
LINE
 10
2.28997951314
 20
-10.060118977
 11
2.25007618071
 21
-10.2560790356
  0
LINE
 10
1.02935310382
 20
-10.4494225769
 11
1.02935310381
 21
-10.4494225768
  0
LINE
 10
2.25007618071
 20
-10.2560790356
 11
2.25007618068
 21
-10.2560790354
  0
LINE
 10
1.02935310381
 20
-10.4494225768
 11
2.25007618068
 21
-10.2560790354
  0
LINE
 10
2.32034674667
 20
-9.21227393075
 11
3.53763880568
 21
-8.81675176471
  0
LINE
 10
3.53763880568
 20
-8.81675176471
 11
3.54186298026
 21
-8.82639261698
  0
LINE
 10
3.54186298026
 20
-8.82639261698
 11
3.55573392858
 21
-8.85475895941
  0
LINE
 10
3.55573392858
 20
-8.85475895941
 11
3.58100298898
 21
-8.90092228891
  0
LINE
 10
3.58100298898
 20
-8.90092228891
 11
3.61935353557
 21
-8.96383176911
  0
LINE
 10
3.61935353557
 20
-8.96383176911
 11
3.67239339469
 21
-9.04231866035
  0
LINE
 10
3.67239339469
 20
-9.04231866035
 11
3.74164753177
 21
-9.13510118986
  0
LINE
 10
3.74164753177
 20
-9.13510118986
 11
3.82855103342
 21
-9.24078984643
  0
LINE
 10
3.82855103342
 20
-9.24078984643
 11
3.93444240808
 21
-9.35789308227
  0
LINE
 10
3.93444240808
 20
-9.35789308227
 11
4.06055722809
 21
-9.48482340371
  0
LINE
 10
4.06055722809
 20
-9.48482340371
 11
4.20802213462
 21
-9.61990383097
  0
LINE
 10
5.05353009493
 20
-8.04436657417
 11
5.05884680073
 21
-8.05345075398
  0
LINE
 10
5.05884680073
 20
-8.05345075398
 11
5.07364251496
 21
-8.08134590464
  0
LINE
 10
5.07364251496
 20
-8.08134590464
 11
5.096136652
 21
-8.12892312821
  0
LINE
 10
5.096136652
 20
-8.12892312821
 11
5.12448960489
 21
-8.19692663685
  0
LINE
 10
5.12448960489
 20
-8.19692663685
 11
5.15681078676
 21
-8.28597022142
  0
LINE
 10
5.15681078676
 20
-8.28597022142
 11
5.19116686948
 21
-8.39653419776
  0
LINE
 10
5.19116686948
 20
-8.39653419776
 11
5.22559019211
 21
-8.52896284113
  0
LINE
 10
5.22559019211
 20
-8.52896284113
 11
5.25808731164
 21
-8.68346231781
  0
LINE
 10
5.25808731164
 20
-8.68346231781
 11
5.28664766749
 21
-8.86009912145
  0
LINE
 10
5.28664766749
 20
-8.86009912145
 11
5.30925233146
 21
-9.05879901993
  0
LINE
 10
4.20802213462
 20
-9.61990383097
 11
4.20802213457
 21
-9.61990383086
  0
LINE
 10
5.30925233146
 20
-9.05879901993
 11
5.3092523314
 21
-9.05879901982
  0
LINE
 10
4.20802213457
 20
-9.61990383086
 11
5.3092523314
 21
-9.05879901982
  0
LINE
 10
5.05353009493
 20
-8.04436657417
 11
6.08902056892
 21
-7.29203870747
  0
LINE
 10
6.08902056892
 20
-7.29203870747
 11
6.09601718487
 21
-7.29990236111
  0
LINE
 10
6.09601718487
 20
-7.29990236111
 11
6.11797492254
 21
-7.32259399716
  0
LINE
 10
6.11797492254
 20
-7.32259399716
 11
6.15627248042
 21
-7.3586893634
  0
LINE
 10
6.15627248042
 20
-7.3586893634
 11
6.21218611616
 21
-7.40666886384
  0
LINE
 10
6.21218611616
 20
-7.40666886384
 11
6.28688380302
 21
-7.46492411535
  0
LINE
 10
6.28688380302
 20
-7.46492411535
 11
6.38141977977
 21
-7.53176483935
  0
LINE
 10
6.38141977977
 20
-7.53176483935
 11
6.49672951229
 21
-7.605426066
  0
LINE
 10
6.49672951229
 20
-7.605426066
 11
6.63362508416
 21
-7.6840756272
  0
LINE
 10
6.63362508416
 20
-7.6840756272
 11
6.79279103195
 21
-7.76582191389
  0
LINE
 10
6.79279103195
 20
-7.76582191389
 11
6.97478063987
 21
-7.84872187228
  0
LINE
 10
7.29203870747
 20
-6.08902056892
 11
7.29990236111
 21
-6.09601718487
  0
LINE
 10
7.29990236111
 20
-6.09601718487
 11
7.32259399716
 21
-6.11797492254
  0
LINE
 10
7.32259399716
 20
-6.11797492254
 11
7.3586893634
 21
-6.15627248042
  0
LINE
 10
7.3586893634
 20
-6.15627248042
 11
7.40666886384
 21
-6.21218611616
  0
LINE
 10
7.40666886384
 20
-6.21218611616
 11
7.46492411535
 21
-6.28688380302
  0
LINE
 10
7.46492411535
 20
-6.28688380302
 11
7.53176483935
 21
-6.38141977977
  0
LINE
 10
7.53176483935
 20
-6.38141977977
 11
7.605426066
 21
-6.49672951229
  0
LINE
 10
7.605426066
 20
-6.49672951229
 11
7.6840756272
 21
-6.63362508416
  0
LINE
 10
7.6840756272
 20
-6.63362508416
 11
7.76582191389
 21
-6.79279103195
  0
LINE
 10
7.76582191389
 20
-6.79279103195
 11
7.84872187228
 21
-6.97478063987
  0
LINE
 10
6.97478063987
 20
-7.84872187228
 11
6.97478063978
 21
-7.84872187218
  0
LINE
 10
7.84872187228
 20
-6.97478063987
 11
7.84872187218
 21
-6.97478063978
  0
LINE
 10
6.97478063978
 20
-7.84872187218
 11
7.84872187218
 21
-6.97478063978
  0
LINE
 10
7.29203870747
 20
-6.08902056892
 11
8.04436657417
 21
-5.05353009493
  0
LINE
 10
8.04436657417
 20
-5.05353009493
 11
8.05345075398
 21
-5.05884680073
  0
LINE
 10
8.05345075398
 20
-5.05884680073
 11
8.08134590464
 21
-5.07364251496
  0
LINE
 10
8.08134590464
 20
-5.07364251496
 11
8.12892312821
 21
-5.096136652
  0
LINE
 10
8.12892312821
 20
-5.096136652
 11
8.19692663685
 21
-5.12448960489
  0
LINE
 10
8.19692663685
 20
-5.12448960489
 11
8.28597022142
 21
-5.15681078676
  0
LINE
 10
8.28597022142
 20
-5.15681078676
 11
8.39653419776
 21
-5.19116686948
  0
LINE
 10
8.39653419776
 20
-5.19116686948
 11
8.52896284113
 21
-5.22559019211
  0
LINE
 10
8.52896284113
 20
-5.22559019211
 11
8.68346231781
 21
-5.25808731164
  0
LINE
 10
8.68346231781
 20
-5.25808731164
 11
8.86009912145
 21
-5.28664766749
  0
LINE
 10
8.86009912145
 20
-5.28664766749
 11
9.05879901993
 21
-5.30925233146
  0
LINE
 10
8.81675176471
 20
-3.53763880568
 11
8.82639261698
 21
-3.54186298026
  0
LINE
 10
8.82639261698
 20
-3.54186298026
 11
8.85475895941
 21
-3.55573392858
  0
LINE
 10
8.85475895941
 20
-3.55573392858
 11
8.90092228891
 21
-3.58100298898
  0
LINE
 10
8.90092228891
 20
-3.58100298898
 11
8.96383176911
 21
-3.61935353557
  0
LINE
 10
8.96383176911
 20
-3.61935353557
 11
9.04231866035
 21
-3.67239339469
  0
LINE
 10
9.04231866035
 20
-3.67239339469
 11
9.13510118986
 21
-3.74164753177
  0
LINE
 10
9.13510118986
 20
-3.74164753177
 11
9.24078984643
 21
-3.82855103342
  0
LINE
 10
9.24078984643
 20
-3.82855103342
 11
9.35789308227
 21
-3.93444240808
  0
LINE
 10
9.35789308227
 20
-3.93444240808
 11
9.48482340371
 21
-4.06055722809
  0
LINE
 10
9.48482340371
 20
-4.06055722809
 11
9.61990383097
 21
-4.20802213462
  0
LINE
 10
9.05879901993
 20
-5.30925233146
 11
9.05879901982
 21
-5.3092523314
  0
LINE
 10
9.61990383097
 20
-4.20802213462
 11
9.61990383086
 21
-4.20802213457
  0
LINE
 10
9.05879901982
 20
-5.3092523314
 11
9.61990383086
 21
-4.20802213457
  0
LINE
 10
8.81675176471
 20
-3.53763880568
 11
9.21227393075
 21
-2.32034674667
  0
LINE
 10
9.21227393075
 20
-2.32034674667
 11
9.2225564516
 21
-2.32259606843
  0
LINE
 10
9.2225564516
 20
-2.32259606843
 11
9.25365844355
 21
-2.32804755325
  0
LINE
 10
9.25365844355
 20
-2.32804755325
 11
9.30585814267
 21
-2.33473857823
  0
LINE
 10
9.30585814267
 20
-2.33473857823
 11
9.37929486697
 21
-2.34068959898
  0
LINE
 10
9.37929486697
 20
-2.34068959898
 11
9.47396814279
 21
-2.34391288875
  0
LINE
 10
9.47396814279
 20
-2.34391288875
 11
9.58973734638
 21
-2.34242131743
  0
LINE
 10
9.58973734638
 20
-2.34242131743
 11
9.7263218623
 21
-2.3342371414
  0
LINE
 10
9.7263218623
 20
-2.3342371414
 11
9.88330175856
 21
-2.31740077476
  0
LINE
 10
9.88330175856
 20
-2.31740077476
 11
10.060118977
 21
-2.28997951314
  0
LINE
 10
10.060118977
 20
-2.28997951314
 11
10.2560790356
 21
-2.25007618071
  0
LINE
 10
9.4784197293
 20
-0.639968307954
 11
9.48889406641
 21
-0.641006549525
  0
LINE
 10
9.48889406641
 20
-0.641006549525
 11
9.52015841998
 21
-0.645432923436
  0
LINE
 10
9.52015841998
 20
-0.645432923436
 11
9.5718709244
 21
-0.655199974654
  0
LINE
 10
9.5718709244
 20
-0.655199974654
 11
9.64355236613
 21
-0.67223341341
  0
LINE
 10
9.64355236613
 20
-0.67223341341
 11
9.73458805333
 21
-0.698423533818
  0
LINE
 10
9.73458805333
 20
-0.698423533818
 11
9.84423018791
 21
-0.73561675377
  0
LINE
 10
9.84423018791
 20
-0.73561675377
 11
9.97160073232
 21
-0.785607304306
  0
LINE
 10
9.97160073232
 20
-0.785607304306
 11
10.1156947622
 21
-0.850129096225
  0
LINE
 10
10.1156947622
 20
-0.850129096225
 11
10.2753842941
 21
-0.930847791173
  0
LINE
 10
10.2753842941
 20
-0.930847791173
 11
10.4494225769
 21
-1.02935310382
  0
LINE
 10
10.2560790356
 20
-2.25007618071
 11
10.2560790354
 21
-2.25007618068
  0
LINE
 10
10.4494225769
 20
-1.02935310382
 11
10.4494225768
 21
-1.02935310381
  0
LINE
 10
10.2560790354
 20
-2.25007618068
 11
10.4494225768
 21
-1.02935310381
  0
ENDSEC
  0
EOF
