  0
SECTION
  2
ENTITIES
  0
LINE
 10
34.8667940432
 20
-3.05068404568
 11
34.8667940432
 21
3.05068404568
  0
LINE
 10
34.8667940432
 20
3.05068404568
 11
34.9199485684
 21
3.05731777601
  0
LINE
 10
34.9199485684
 20
3.05731777601
 11
35.0782349901
 21
3.08503322224
  0
LINE
 10
35.0782349901
 20
3.08503322224
 11
35.3391612205
 21
3.14542274276
  0
LINE
 10
35.3391612205
 20
3.14542274276
 11
35.6992783714
 21
3.24984980628
  0
LINE
 10
35.6992783714
 20
3.24984980628
 11
36.1541994201
 21
3.40937887162
  0
LINE
 10
36.1541994201
 20
3.40937887162
 11
36.6986226896
 21
3.63470668537
  0
LINE
 10
36.6986226896
 20
3.63470668537
 11
37.3263600379
 21
3.93609531406
  0
LINE
 10
37.3263600379
 20
3.93609531406
 11
38.0303696364
 21
4.32330722073
  0
LINE
 10
38.0303696364
 20
4.32330722073
 11
38.8027931918
 21
4.80554268712
  0
LINE
 10
38.8027931918
 20
4.80554268712
 11
39.6349974526
 21
5.391379873
  0
LINE
 10
33.0932263086
 20
11.3946642113
 11
33.1444835648
 21
11.4102238902
  0
LINE
 10
33.1444835648
 20
11.4102238902
 11
33.3003582939
 21
11.449285458
  0
LINE
 10
33.3003582939
 20
11.449285458
 11
33.5632888973
 21
11.5002451449
  0
LINE
 10
33.5632888973
 20
11.5002451449
 11
33.934746598
 21
11.5513191165
  0
LINE
 10
33.934746598
 20
11.5513191165
 11
34.4152239722
 21
11.5906151237
  0
LINE
 10
34.4152239722
 20
11.5906151237
 11
35.0042284556
 21
11.606204816
  0
LINE
 10
35.0042284556
 20
11.606204816
 11
35.7002808578
 21
11.5861963851
  0
LINE
 10
35.7002808578
 20
11.5861963851
 11
36.5009188997
 21
11.5188072073
  0
LINE
 10
36.5009188997
 20
11.5188072073
 11
37.4027057649
 21
11.3924361515
  0
LINE
 10
37.4027057649
 20
11.3924361515
 11
38.4012436376
 21
11.1957352188
  0
LINE
 10
39.6349974526
 20
5.391379873
 11
39.6349974526
 21
5.39137987299
  0
LINE
 10
38.4012436376
 20
11.1957352188
 11
38.4012436376
 21
11.1957352188
  0
LINE
 10
39.6349974526
 20
5.39137987299
 11
38.4012436376
 21
11.1957352188
  0
LINE
 10
33.0932263086
 20
11.3946642113
 11
30.6115763329
 21
16.9685413166
  0
LINE
 10
30.6115763329
 20
16.9685413166
 11
30.6574372267
 21
16.9962214239
  0
LINE
 10
30.6574372267
 20
16.9962214239
 11
30.7907661807
 21
17.0859216317
  0
LINE
 10
30.7907661807
 20
17.0859216317
 11
31.0045715225
 21
17.247218463
  0
LINE
 10
31.0045715225
 20
17.247218463
 11
31.2910805966
 21
17.4890901735
  0
LINE
 10
31.2910805966
 20
17.4890901735
 11
31.6417853377
 21
17.8198602868
  0
LINE
 10
31.6417853377
 20
17.8198602868
 11
32.047491664
 21
18.2471443806
  0
LINE
 10
32.047491664
 20
18.2471443806
 11
32.4983724681
 21
18.7778003751
  0
LINE
 10
32.4983724681
 20
18.7778003751
 11
32.9840239678
 21
19.4178825543
  0
LINE
 10
32.9840239678
 20
19.4178825543
 11
33.4935251635
 21
20.1725995381
  0
LINE
 10
33.4935251635
 20
20.1725995381
 11
34.0155001354
 21
21.0462764056
  0
LINE
 10
25.5975391027
 20
23.8697715089
 11
25.6380362446
 21
23.9048341872
  0
LINE
 10
25.6380362446
 20
23.9048341872
 11
25.7645471244
 21
24.0039186691
  0
LINE
 10
25.7645471244
 20
24.0039186691
 11
25.9840190109
 21
24.1574161706
  0
LINE
 10
25.9840190109
 20
24.1574161706
 11
26.3025888503
 21
24.3551600235
  0
LINE
 10
26.3025888503
 20
24.3551600235
 11
26.725543647
 21
24.5864864667
  0
LINE
 10
26.725543647
 20
24.5864864667
 11
27.2572851182
 21
24.8402980656
  0
LINE
 10
27.2572851182
 20
24.8402980656
 11
27.9012987906
 21
25.1051294719
  0
LINE
 10
27.9012987906
 20
25.1051294719
 11
28.6601276849
 21
25.3692152242
  0
LINE
 10
28.6601276849
 20
25.3692152242
 11
29.5353507184
 21
25.6205592824
  0
LINE
 10
29.5353507184
 20
25.6205592824
 11
30.5275659333
 21
25.8470059812
  0
LINE
 10
34.0155001354
 20
21.0462764056
 11
34.0155001354
 21
21.0462764056
  0
LINE
 10
30.5275659333
 20
25.8470059812
 11
30.5275659333
 21
25.8470059812
  0
LINE
 10
34.0155001354
 20
21.0462764056
 11
30.5275659333
 21
25.8470059812
  0
LINE
 10
25.5975391027
 20
23.8697715089
 11
21.0633389772
 21
27.9523836395
  0
LINE
 10
21.0633389772
 20
27.9523836395
 11
21.0939764745
 21
27.9963239818
  0
LINE
 10
21.0939764745
 20
27.9963239818
 11
21.1792941734
 21
28.1324989704
  0
LINE
 10
21.1792941734
 20
28.1324989704
 11
21.3090097405
 21
28.3668134249
  0
LINE
 10
21.3090097405
 20
28.3668134249
 11
21.4723707161
 21
28.7043079664
  0
LINE
 10
21.4723707161
 20
28.7043079664
 11
21.6582191139
 21
29.14912597
  0
LINE
 10
21.6582191139
 20
29.14912597
 11
21.8550581875
 21
29.7044850422
  0
LINE
 10
21.8550581875
 20
29.7044850422
 11
22.0511210601
 21
30.3726531603
  0
LINE
 10
22.0511210601
 20
30.3726531603
 11
22.2344409048
 21
31.1549295883
  0
LINE
 10
22.2344409048
 20
31.1549295883
 11
22.3929223553
 21
32.0516306667
  0
LINE
 10
22.3929223553
 20
32.0516306667
 11
22.5144138237
 21
33.0620805483
  0
LINE
 10
13.6758048395
 20
32.2175784626
 11
13.6985395436
 21
32.2660814846
  0
LINE
 10
13.6985395436
 20
32.2660814846
 11
13.7738116936
 21
32.4080562735
  0
LINE
 10
13.7738116936
 20
32.4080562735
 11
13.9118761801
 21
32.6375504772
  0
LINE
 10
13.9118761801
 20
32.6375504772
 11
14.1224745389
 21
32.9477725028
  0
LINE
 10
14.1224745389
 20
32.9477725028
 11
14.4147740312
 21
33.3311309384
  0
LINE
 10
14.4147740312
 20
33.3311309384
 11
14.7973095592
 21
33.7792781126
  0
LINE
 10
14.7973095592
 20
33.7792781126
 11
15.2779286871
 21
34.2831576001
  0
LINE
 10
15.2779286871
 20
34.2831576001
 11
15.8637400242
 21
34.8330554567
  0
LINE
 10
15.8637400242
 20
34.8330554567
 11
16.5610652124
 21
35.418654958
  0
LINE
 10
16.5610652124
 20
35.418654958
 11
17.3753947449
 21
36.0290945968
  0
LINE
 10
22.5144138237
 20
33.0620805483
 11
22.5144138237
 21
33.0620805482
  0
LINE
 10
17.3753947449
 20
36.0290945968
 11
17.3753947449
 21
36.0290945967
  0
LINE
 10
22.5144138237
 20
33.0620805482
 11
17.3753947449
 21
36.0290945967
  0
LINE
 10
13.6758048395
 20
32.2175784626
 11
7.87305895793
 21
34.1030048917
  0
LINE
 10
7.87305895793
 20
34.1030048917
 11
7.88317555706
 21
34.1556077846
  0
LINE
 10
7.88317555706
 20
34.1556077846
 11
7.90572979561
 21
34.3147116613
  0
LINE
 10
7.90572979561
 20
34.3147116613
 11
7.92892658809
 21
34.5815286412
  0
LINE
 10
7.92892658809
 20
34.5815286412
 11
7.94089286844
 21
34.9562901414
  0
LINE
 10
7.94089286844
 20
34.9562901414
 11
7.92975004647
 21
35.4382429615
  0
LINE
 10
7.92975004647
 20
35.4382429615
 11
7.88368660329
 21
36.0256503833
  0
LINE
 10
7.88368660329
 20
36.0256503833
 11
7.79103049268
 21
36.7157982872
  0
LINE
 10
7.79103049268
 20
36.7157982872
 11
7.64032101577
 21
37.5050062629
  0
LINE
 10
7.64032101577
 20
37.5050062629
 11
7.42037983856
 21
38.388643673
  0
LINE
 10
7.42037983856
 20
38.388643673
 11
7.12038082483
 21
39.3611506045
  0
LINE
 10
-0.610600321132
 20
34.9946734125
 11
-0.60955909189
 21
35.0482301652
  0
LINE
 10
-0.60955909189
 20
35.0482301652
 11
-0.598540910198
 21
35.2085465303
  0
LINE
 10
-0.598540910198
 20
35.2085465303
 11
-0.565756427683
 21
35.4743558034
  0
LINE
 10
-0.565756427683
 20
35.4743558034
 11
-0.499543918923
 21
35.8434157953
  0
LINE
 10
-0.499543918923
 20
35.8434157953
 11
-0.388440968624
 21
36.312520067
  0
LINE
 10
-0.388440968624
 20
36.312520067
 11
-0.221255251939
 21
36.8775140989
  0
LINE
 10
-0.221255251939
 20
36.8775140989
 11
0.0128659179471
 21
37.5333163266
  0
LINE
 10
0.0128659179471
 20
37.5333163266
 11
0.324367595831
 21
38.2739439523
  0
LINE
 10
0.324367595831
 20
38.2739439523
 11
0.723221078636
 21
39.0925434229
  0
LINE
 10
0.723221078636
 20
39.0925434229
 11
1.2188599546
 21
39.9814254425
  0
LINE
 10
7.12038082483
 20
39.3611506045
 11
7.12038082482
 21
39.3611506045
  0
LINE
 10
1.2188599546
 20
39.9814254425
 11
1.2188599546
 21
39.9814254425
  0
LINE
 10
7.12038082482
 20
39.3611506045
 11
1.2188599546
 21
39.9814254425
  0
LINE
 10
-0.610600321132
 20
34.9946734125
 11
-6.67854447969
 21
34.3569067821
  0
LINE
 10
-6.67854447969
 20
34.3569067821
 11
-6.69069803058
 21
34.4090767075
  0
LINE
 10
-6.69069803058
 20
34.4090767075
 11
-6.73480708511
 21
34.5635989666
  0
LINE
 10
-6.73480708511
 20
34.5635989666
 11
-6.82214000341
 21
34.8167833921
  0
LINE
 10
-6.82214000341
 20
34.8167833921
 11
-6.96363749693
 21
35.1640121831
  0
LINE
 10
-6.96363749693
 20
35.1640121831
 11
-7.16984484349
 21
35.5997657987
  0
LINE
 10
-7.16984484349
 20
35.5997657987
 11
-7.45084601563
 21
36.1176534904
  0
LINE
 10
-7.45084601563
 20
36.1176534904
 11
-7.81620002623
 21
36.7104483377
  0
LINE
 10
-7.81620002623
 20
36.7104483377
 11
-8.27487978701
 21
37.3701266323
  0
LINE
 10
-8.27487978701
 20
37.3701266323
 11
-8.8352137643
 21
38.0879114384
  0
LINE
 10
-8.8352137643
 20
38.0879114384
 11
-9.50483070528
 21
38.8543201365
  0
LINE
 10
-14.7914271391
 20
31.7208714128
 11
-14.8122594227
 21
31.770221447
  0
LINE
 10
-14.8122594227
 20
31.770221447
 11
-14.8674003531
 21
31.9211592324
  0
LINE
 10
-14.8674003531
 20
31.9211592324
 11
-14.9455646094
 21
32.1773227368
  0
LINE
 10
-14.9455646094
 20
32.1773227368
 11
-15.035186695
 21
32.5414068695
  0
LINE
 10
-15.035186695
 20
32.5414068695
 11
-15.1244909961
 21
33.0151445871
  0
LINE
 10
-15.1244909961
 20
33.0151445871
 11
-15.20156302
 21
33.5992928758
  0
LINE
 10
-15.20156302
 20
33.5992928758
 11
-15.2544214853
 21
34.2936236807
  0
LINE
 10
-15.2544214853
 20
34.2936236807
 11
-15.2710909367
 21
35.0969198308
  0
LINE
 10
-15.2710909367
 20
35.0969198308
 11
-15.2396745499
 21
36.0069759855
  0
LINE
 10
-15.2396745499
 20
36.0069759855
 11
-15.1484267948
 21
37.0206046094
  0
LINE
 10
-9.50483070528
 20
38.8543201365
 11
-9.50483070527
 21
38.8543201364
  0
LINE
 10
-15.1484267948
 20
37.0206046094
 11
-15.1484267948
 21
37.0206046094
  0
LINE
 10
-9.50483070527
 20
38.8543201364
 11
-15.1484267948
 21
37.0206046094
  0
LINE
 10
-14.7914271391
 20
31.7208714128
 11
-20.0753669041
 21
28.6701873671
  0
LINE
 10
-20.0753669041
 20
28.6701873671
 11
-20.1076891456
 21
28.712903671
  0
LINE
 10
-20.1076891456
 20
28.712903671
 11
-20.210834637
 21
28.8361260102
  0
LINE
 10
-20.210834637
 20
28.8361260102
 11
-20.3935966111
 21
29.031899994
  0
LINE
 10
-20.3935966111
 20
29.031899994
 11
-20.6640916764
 21
29.2915570632
  0
LINE
 10
-20.6640916764
 20
29.2915570632
 11
-21.029708424
 21
29.6057657155
  0
LINE
 10
-21.029708424
 20
29.6057657155
 11
-21.4970596696
 21
29.9645861904
  0
LINE
 10
-21.4970596696
 20
29.9645861904
 11
-22.0719385527
 21
30.3575283666
  0
LINE
 10
-22.0719385527
 20
30.3575283666
 11
-22.7592786997
 21
30.77361261
  0
LINE
 10
-22.7592786997
 20
30.77361261
 11
-23.5631186419
 21
31.2014332983
  0
LINE
 10
-23.5631186419
 20
31.2014332983
 11
-24.4865706578
 21
31.6292247364
  0
LINE
 10
-26.4146818289
 20
22.9622425708
 11
-26.4537855342
 21
22.9988528173
  0
LINE
 10
-26.4537855342
 20
22.9988528173
 11
-26.5655512088
 21
23.1143135086
  0
LINE
 10
-26.5655512088
 20
23.1143135086
 11
-26.7411488939
 21
23.3165382472
  0
LINE
 10
-26.7411488939
 20
23.3165382472
 11
-26.9711091011
 21
23.6126930666
  0
LINE
 10
-26.9711091011
 20
23.6126930666
 11
-27.2453791287
 21
24.009150675
  0
LINE
 10
-27.2453791287
 20
24.009150675
 11
-27.55338244
 21
24.5114486744
  0
LINE
 10
-27.55338244
 20
24.5114486744
 11
-27.8840808316
 21
25.1242519526
  0
LINE
 10
-27.8840808316
 20
25.1242519526
 11
-28.2260391127
 21
25.851319425
  0
LINE
 10
-28.2260391127
 20
25.851319425
 11
-28.5674920006
 21
26.695475287
  0
LINE
 10
-28.5674920006
 20
26.695475287
 11
-28.8964129323
 21
27.6585849177
  0
LINE
 10
-24.4865706578
 20
31.6292247364
 11
-24.4865706577
 21
31.6292247364
  0
LINE
 10
-28.8964129323
 20
27.6585849177
 11
-28.8964129323
 21
27.6585849176
  0
LINE
 10
-24.4865706577
 20
31.6292247364
 11
-28.8964129323
 21
27.6585849176
  0
LINE
 10
-26.4146818289
 20
22.9622425708
 11
-30.0009760118
 21
18.0261320959
  0
LINE
 10
-30.0009760118
 20
18.0261320959
 11
-30.0478781348
 21
18.0520087413
  0
LINE
 10
-30.0478781348
 20
18.0520087413
 11
-30.1922252705
 21
18.1226248986
  0
LINE
 10
-30.1922252705
 20
18.1226248986
 11
-30.4388150948
 21
18.2271373404
  0
LINE
 10
-30.4388150948
 20
18.2271373404
 11
-30.7915366777
 21
18.3543256217
  0
LINE
 10
-30.7915366777
 20
18.3543256217
 11
-31.2533443691
 21
18.4926597802
  0
LINE
 10
-31.2533443691
 20
18.4926597802
 11
-31.8262364121
 21
18.6303697184
  0
LINE
 10
-31.8262364121
 20
18.6303697184
 11
-32.5112383861
 21
18.7555159515
  0
LINE
 10
-32.5112383861
 20
18.7555159515
 11
-33.3083915636
 21
18.856061398
  0
LINE
 10
-33.3083915636
 20
18.856061398
 11
-34.2167462421
 21
18.9199438848
  0
LINE
 10
-34.2167462421
 20
18.9199438848
 11
-35.23436009
 21
18.9351490369
  0
LINE
 10
-33.4705980606
 20
10.2332333828
 11
-33.5212118017
 21
10.2507735974
  0
LINE
 10
-33.5212118017
 20
10.2507735974
 11
-33.67027692
 21
10.3107929922
  0
LINE
 10
-33.67027692
 20
10.3107929922
 11
-33.912945599
 21
10.4241124706
  0
LINE
 10
-33.912945599
 20
10.4241124706
 11
-34.2434817188
 21
10.6011301179
  0
LINE
 10
-34.2434817188
 20
10.6011301179
 11
-34.6552936934
 21
10.8517564949
  0
LINE
 10
-34.6552936934
 20
10.8517564949
 11
-35.1409717215
 21
11.1853523177
  0
LINE
 10
-35.1409717215
 20
11.1853523177
 11
-35.6923292833
 21
11.6106688153
  0
LINE
 10
-35.6923292833
 20
11.6106688153
 11
-36.3004487006
 21
12.1357910387
  0
LINE
 10
-36.3004487006
 20
12.1357910387
 11
-36.955730557
 21
12.7680843906
  0
LINE
 10
-36.955730557
 20
12.7680843906
 11
-37.6479467581
 21
13.5141446233
  0
LINE
 10
-35.23436009
 20
18.9351490369
 11
-35.23436009
 21
18.9351490369
  0
LINE
 10
-37.6479467581
 20
13.5141446233
 11
-37.6479467581
 21
13.5141446233
  0
LINE
 10
-35.23436009
 20
18.9351490369
 11
-37.6479467581
 21
13.5141446233
  0
LINE
 10
-33.4705980606
 20
10.2332333828
 11
-34.7391438168
 21
4.26519482305
  0
LINE
 10
-34.7391438168
 20
4.26519482305
 11
-34.7925160181
 21
4.26975750283
  0
LINE
 10
-34.7925160181
 20
4.26975750283
 11
-34.953105867
 21
4.27555730317
  0
LINE
 10
-34.953105867
 20
4.27555730317
 11
-35.2208859206
 21
4.27073705231
  0
LINE
 10
-35.2208859206
 20
4.27073705231
 11
-35.594845255
 21
4.24346453641
  0
LINE
 10
-35.594845255
 20
4.24346453641
 11
-36.0729931451
 21
4.18200496833
  0
LINE
 10
-36.0729931451
 20
4.18200496833
 11
-36.6523677466
 21
4.07479307041
  0
LINE
 10
-36.6523677466
 20
4.07479307041
 11
-37.3290497472
 21
3.91050443985
  0
LINE
 10
-37.3290497472
 20
3.91050443985
 11
-38.098180929
 21
3.67812586833
  0
LINE
 10
-38.098180929
 20
3.67812586833
 11
-38.9539875677
 21
3.36702429133
  0
LINE
 10
-38.9539875677
 20
3.36702429133
 11
-39.8898085686
 21
2.96701404852
  0
LINE
 10
-34.7391438168
 20
-4.26519482305
 11
-34.7925160181
 21
-4.26975750283
  0
LINE
 10
-34.7925160181
 20
-4.26975750283
 11
-34.953105867
 21
-4.27555730317
  0
LINE
 10
-34.953105867
 20
-4.27555730317
 11
-35.2208859206
 21
-4.27073705231
  0
LINE
 10
-35.2208859206
 20
-4.27073705231
 11
-35.594845255
 21
-4.24346453641
  0
LINE
 10
-35.594845255
 20
-4.24346453641
 11
-36.0729931451
 21
-4.18200496833
  0
LINE
 10
-36.0729931451
 20
-4.18200496833
 11
-36.6523677466
 21
-4.07479307041
  0
LINE
 10
-36.6523677466
 20
-4.07479307041
 11
-37.3290497472
 21
-3.91050443985
  0
LINE
 10
-37.3290497472
 20
-3.91050443985
 11
-38.098180929
 21
-3.67812586833
  0
LINE
 10
-38.098180929
 20
-3.67812586833
 11
-38.9539875677
 21
-3.36702429133
  0
LINE
 10
-38.9539875677
 20
-3.36702429133
 11
-39.8898085686
 21
-2.96701404852
  0
LINE
 10
-39.8898085686
 20
2.96701404852
 11
-39.8898085686
 21
2.96701404851
  0
LINE
 10
-39.8898085686
 20
-2.96701404852
 11
-39.8898085686
 21
-2.96701404851
  0
LINE
 10
-39.8898085686
 20
2.96701404851
 11
-39.8898085686
 21
-2.96701404851
  0
LINE
 10
-34.7391438168
 20
-4.26519482305
 11
-33.4705980606
 21
-10.2332333828
  0
LINE
 10
-33.4705980606
 20
-10.2332333828
 11
-33.5212118017
 21
-10.2507735974
  0
LINE
 10
-33.5212118017
 20
-10.2507735974
 11
-33.67027692
 21
-10.3107929922
  0
LINE
 10
-33.67027692
 20
-10.3107929922
 11
-33.912945599
 21
-10.4241124706
  0
LINE
 10
-33.912945599
 20
-10.4241124706
 11
-34.2434817188
 21
-10.6011301179
  0
LINE
 10
-34.2434817188
 20
-10.6011301179
 11
-34.6552936934
 21
-10.8517564949
  0
LINE
 10
-34.6552936934
 20
-10.8517564949
 11
-35.1409717215
 21
-11.1853523177
  0
LINE
 10
-35.1409717215
 20
-11.1853523177
 11
-35.6923292833
 21
-11.6106688153
  0
LINE
 10
-35.6923292833
 20
-11.6106688153
 11
-36.3004487006
 21
-12.1357910387
  0
LINE
 10
-36.3004487006
 20
-12.1357910387
 11
-36.955730557
 21
-12.7680843906
  0
LINE
 10
-36.955730557
 20
-12.7680843906
 11
-37.6479467581
 21
-13.5141446233
  0
LINE
 10
-30.0009760118
 20
-18.0261320959
 11
-30.0478781348
 21
-18.0520087413
  0
LINE
 10
-30.0478781348
 20
-18.0520087413
 11
-30.1922252705
 21
-18.1226248986
  0
LINE
 10
-30.1922252705
 20
-18.1226248986
 11
-30.4388150948
 21
-18.2271373404
  0
LINE
 10
-30.4388150948
 20
-18.2271373404
 11
-30.7915366777
 21
-18.3543256217
  0
LINE
 10
-30.7915366777
 20
-18.3543256217
 11
-31.2533443691
 21
-18.4926597802
  0
LINE
 10
-31.2533443691
 20
-18.4926597802
 11
-31.8262364121
 21
-18.6303697184
  0
LINE
 10
-31.8262364121
 20
-18.6303697184
 11
-32.5112383861
 21
-18.7555159515
  0
LINE
 10
-32.5112383861
 20
-18.7555159515
 11
-33.3083915636
 21
-18.856061398
  0
LINE
 10
-33.3083915636
 20
-18.856061398
 11
-34.2167462421
 21
-18.9199438848
  0
LINE
 10
-34.2167462421
 20
-18.9199438848
 11
-35.23436009
 21
-18.9351490369
  0
LINE
 10
-37.6479467581
 20
-13.5141446233
 11
-37.6479467581
 21
-13.5141446233
  0
LINE
 10
-35.23436009
 20
-18.9351490369
 11
-35.23436009
 21
-18.9351490369
  0
LINE
 10
-37.6479467581
 20
-13.5141446233
 11
-35.23436009
 21
-18.9351490369
  0
LINE
 10
-30.0009760118
 20
-18.0261320959
 11
-26.4146818289
 21
-22.9622425708
  0
LINE
 10
-26.4146818289
 20
-22.9622425708
 11
-26.4537855342
 21
-22.9988528173
  0
LINE
 10
-26.4537855342
 20
-22.9988528173
 11
-26.5655512088
 21
-23.1143135086
  0
LINE
 10
-26.5655512088
 20
-23.1143135086
 11
-26.7411488939
 21
-23.3165382472
  0
LINE
 10
-26.7411488939
 20
-23.3165382472
 11
-26.9711091011
 21
-23.6126930666
  0
LINE
 10
-26.9711091011
 20
-23.6126930666
 11
-27.2453791287
 21
-24.009150675
  0
LINE
 10
-27.2453791287
 20
-24.009150675
 11
-27.55338244
 21
-24.5114486744
  0
LINE
 10
-27.55338244
 20
-24.5114486744
 11
-27.8840808316
 21
-25.1242519526
  0
LINE
 10
-27.8840808316
 20
-25.1242519526
 11
-28.2260391127
 21
-25.851319425
  0
LINE
 10
-28.2260391127
 20
-25.851319425
 11
-28.5674920006
 21
-26.695475287
  0
LINE
 10
-28.5674920006
 20
-26.695475287
 11
-28.8964129323
 21
-27.6585849177
  0
LINE
 10
-20.0753669041
 20
-28.6701873671
 11
-20.1076891456
 21
-28.712903671
  0
LINE
 10
-20.1076891456
 20
-28.712903671
 11
-20.210834637
 21
-28.8361260102
  0
LINE
 10
-20.210834637
 20
-28.8361260102
 11
-20.3935966111
 21
-29.031899994
  0
LINE
 10
-20.3935966111
 20
-29.031899994
 11
-20.6640916764
 21
-29.2915570632
  0
LINE
 10
-20.6640916764
 20
-29.2915570632
 11
-21.029708424
 21
-29.6057657155
  0
LINE
 10
-21.029708424
 20
-29.6057657155
 11
-21.4970596696
 21
-29.9645861904
  0
LINE
 10
-21.4970596696
 20
-29.9645861904
 11
-22.0719385527
 21
-30.3575283666
  0
LINE
 10
-22.0719385527
 20
-30.3575283666
 11
-22.7592786997
 21
-30.77361261
  0
LINE
 10
-22.7592786997
 20
-30.77361261
 11
-23.5631186419
 21
-31.2014332983
  0
LINE
 10
-23.5631186419
 20
-31.2014332983
 11
-24.4865706578
 21
-31.6292247364
  0
LINE
 10
-28.8964129323
 20
-27.6585849177
 11
-28.8964129323
 21
-27.6585849176
  0
LINE
 10
-24.4865706578
 20
-31.6292247364
 11
-24.4865706577
 21
-31.6292247364
  0
LINE
 10
-28.8964129323
 20
-27.6585849176
 11
-24.4865706577
 21
-31.6292247364
  0
LINE
 10
-20.0753669041
 20
-28.6701873671
 11
-14.7914271391
 21
-31.7208714128
  0
LINE
 10
-14.7914271391
 20
-31.7208714128
 11
-14.8122594227
 21
-31.770221447
  0
LINE
 10
-14.8122594227
 20
-31.770221447
 11
-14.8674003531
 21
-31.9211592324
  0
LINE
 10
-14.8674003531
 20
-31.9211592324
 11
-14.9455646094
 21
-32.1773227368
  0
LINE
 10
-14.9455646094
 20
-32.1773227368
 11
-15.035186695
 21
-32.5414068695
  0
LINE
 10
-15.035186695
 20
-32.5414068695
 11
-15.1244909961
 21
-33.0151445871
  0
LINE
 10
-15.1244909961
 20
-33.0151445871
 11
-15.20156302
 21
-33.5992928758
  0
LINE
 10
-15.20156302
 20
-33.5992928758
 11
-15.2544214853
 21
-34.2936236807
  0
LINE
 10
-15.2544214853
 20
-34.2936236807
 11
-15.2710909367
 21
-35.0969198308
  0
LINE
 10
-15.2710909367
 20
-35.0969198308
 11
-15.2396745499
 21
-36.0069759855
  0
LINE
 10
-15.2396745499
 20
-36.0069759855
 11
-15.1484267948
 21
-37.0206046094
  0
LINE
 10
-6.67854447969
 20
-34.3569067821
 11
-6.69069803058
 21
-34.4090767075
  0
LINE
 10
-6.69069803058
 20
-34.4090767075
 11
-6.73480708511
 21
-34.5635989666
  0
LINE
 10
-6.73480708511
 20
-34.5635989666
 11
-6.82214000341
 21
-34.8167833921
  0
LINE
 10
-6.82214000341
 20
-34.8167833921
 11
-6.96363749693
 21
-35.1640121831
  0
LINE
 10
-6.96363749693
 20
-35.1640121831
 11
-7.16984484349
 21
-35.5997657987
  0
LINE
 10
-7.16984484349
 20
-35.5997657987
 11
-7.45084601563
 21
-36.1176534904
  0
LINE
 10
-7.45084601563
 20
-36.1176534904
 11
-7.81620002623
 21
-36.7104483377
  0
LINE
 10
-7.81620002623
 20
-36.7104483377
 11
-8.27487978701
 21
-37.3701266323
  0
LINE
 10
-8.27487978701
 20
-37.3701266323
 11
-8.8352137643
 21
-38.0879114384
  0
LINE
 10
-8.8352137643
 20
-38.0879114384
 11
-9.50483070528
 21
-38.8543201365
  0
LINE
 10
-15.1484267948
 20
-37.0206046094
 11
-15.1484267948
 21
-37.0206046094
  0
LINE
 10
-9.50483070528
 20
-38.8543201365
 11
-9.50483070527
 21
-38.8543201364
  0
LINE
 10
-15.1484267948
 20
-37.0206046094
 11
-9.50483070527
 21
-38.8543201364
  0
LINE
 10
-6.67854447969
 20
-34.3569067821
 11
-0.610600321132
 21
-34.9946734125
  0
LINE
 10
-0.610600321132
 20
-34.9946734125
 11
-0.60955909189
 21
-35.0482301652
  0
LINE
 10
-0.60955909189
 20
-35.0482301652
 11
-0.598540910199
 21
-35.2085465303
  0
LINE
 10
-0.598540910199
 20
-35.2085465303
 11
-0.565756427683
 21
-35.4743558034
  0
LINE
 10
-0.565756427683
 20
-35.4743558034
 11
-0.499543918923
 21
-35.8434157953
  0
LINE
 10
-0.499543918923
 20
-35.8434157953
 11
-0.388440968624
 21
-36.312520067
  0
LINE
 10
-0.388440968624
 20
-36.312520067
 11
-0.221255251939
 21
-36.8775140989
  0
LINE
 10
-0.221255251939
 20
-36.8775140989
 11
0.0128659179471
 21
-37.5333163266
  0
LINE
 10
0.0128659179471
 20
-37.5333163266
 11
0.324367595831
 21
-38.2739439523
  0
LINE
 10
0.324367595831
 20
-38.2739439523
 11
0.723221078636
 21
-39.0925434229
  0
LINE
 10
0.723221078636
 20
-39.0925434229
 11
1.2188599546
 21
-39.9814254425
  0
LINE
 10
7.87305895793
 20
-34.1030048917
 11
7.88317555706
 21
-34.1556077846
  0
LINE
 10
7.88317555706
 20
-34.1556077846
 11
7.90572979561
 21
-34.3147116613
  0
LINE
 10
7.90572979561
 20
-34.3147116613
 11
7.92892658809
 21
-34.5815286412
  0
LINE
 10
7.92892658809
 20
-34.5815286412
 11
7.94089286844
 21
-34.9562901414
  0
LINE
 10
7.94089286844
 20
-34.9562901414
 11
7.92975004647
 21
-35.4382429615
  0
LINE
 10
7.92975004647
 20
-35.4382429615
 11
7.88368660329
 21
-36.0256503833
  0
LINE
 10
7.88368660329
 20
-36.0256503833
 11
7.79103049268
 21
-36.7157982872
  0
LINE
 10
7.79103049268
 20
-36.7157982872
 11
7.64032101577
 21
-37.5050062629
  0
LINE
 10
7.64032101577
 20
-37.5050062629
 11
7.42037983856
 21
-38.388643673
  0
LINE
 10
7.42037983856
 20
-38.388643673
 11
7.12038082483
 21
-39.3611506045
  0
LINE
 10
1.2188599546
 20
-39.9814254425
 11
1.2188599546
 21
-39.9814254425
  0
LINE
 10
7.12038082483
 20
-39.3611506045
 11
7.12038082482
 21
-39.3611506045
  0
LINE
 10
1.2188599546
 20
-39.9814254425
 11
7.12038082482
 21
-39.3611506045
  0
LINE
 10
7.87305895793
 20
-34.1030048917
 11
13.6758048395
 21
-32.2175784626
  0
LINE
 10
13.6758048395
 20
-32.2175784626
 11
13.6985395436
 21
-32.2660814846
  0
LINE
 10
13.6985395436
 20
-32.2660814846
 11
13.7738116936
 21
-32.4080562735
  0
LINE
 10
13.7738116936
 20
-32.4080562735
 11
13.9118761801
 21
-32.6375504772
  0
LINE
 10
13.9118761801
 20
-32.6375504772
 11
14.1224745389
 21
-32.9477725028
  0
LINE
 10
14.1224745389
 20
-32.9477725028
 11
14.4147740312
 21
-33.3311309384
  0
LINE
 10
14.4147740312
 20
-33.3311309384
 11
14.7973095592
 21
-33.7792781126
  0
LINE
 10
14.7973095592
 20
-33.7792781126
 11
15.2779286871
 21
-34.2831576001
  0
LINE
 10
15.2779286871
 20
-34.2831576001
 11
15.8637400242
 21
-34.8330554567
  0
LINE
 10
15.8637400242
 20
-34.8330554567
 11
16.5610652124
 21
-35.418654958
  0
LINE
 10
16.5610652124
 20
-35.418654958
 11
17.3753947449
 21
-36.0290945968
  0
LINE
 10
21.0633389772
 20
-27.9523836395
 11
21.0939764745
 21
-27.9963239818
  0
LINE
 10
21.0939764745
 20
-27.9963239818
 11
21.1792941734
 21
-28.1324989704
  0
LINE
 10
21.1792941734
 20
-28.1324989704
 11
21.3090097405
 21
-28.3668134249
  0
LINE
 10
21.3090097405
 20
-28.3668134249
 11
21.4723707161
 21
-28.7043079664
  0
LINE
 10
21.4723707161
 20
-28.7043079664
 11
21.6582191139
 21
-29.14912597
  0
LINE
 10
21.6582191139
 20
-29.14912597
 11
21.8550581875
 21
-29.7044850422
  0
LINE
 10
21.8550581875
 20
-29.7044850422
 11
22.0511210601
 21
-30.3726531603
  0
LINE
 10
22.0511210601
 20
-30.3726531603
 11
22.2344409048
 21
-31.1549295883
  0
LINE
 10
22.2344409048
 20
-31.1549295883
 11
22.3929223553
 21
-32.0516306667
  0
LINE
 10
22.3929223553
 20
-32.0516306667
 11
22.5144138237
 21
-33.0620805483
  0
LINE
 10
17.3753947449
 20
-36.0290945968
 11
17.3753947449
 21
-36.0290945967
  0
LINE
 10
22.5144138237
 20
-33.0620805483
 11
22.5144138237
 21
-33.0620805482
  0
LINE
 10
17.3753947449
 20
-36.0290945967
 11
22.5144138237
 21
-33.0620805482
  0
LINE
 10
21.0633389772
 20
-27.9523836395
 11
25.5975391027
 21
-23.8697715089
  0
LINE
 10
25.5975391027
 20
-23.8697715089
 11
25.6380362446
 21
-23.9048341872
  0
LINE
 10
25.6380362446
 20
-23.9048341872
 11
25.7645471244
 21
-24.0039186691
  0
LINE
 10
25.7645471244
 20
-24.0039186691
 11
25.9840190109
 21
-24.1574161706
  0
LINE
 10
25.9840190109
 20
-24.1574161706
 11
26.3025888503
 21
-24.3551600235
  0
LINE
 10
26.3025888503
 20
-24.3551600235
 11
26.725543647
 21
-24.5864864667
  0
LINE
 10
26.725543647
 20
-24.5864864667
 11
27.2572851182
 21
-24.8402980656
  0
LINE
 10
27.2572851182
 20
-24.8402980656
 11
27.9012987906
 21
-25.1051294719
  0
LINE
 10
27.9012987906
 20
-25.1051294719
 11
28.6601276849
 21
-25.3692152242
  0
LINE
 10
28.6601276849
 20
-25.3692152242
 11
29.5353507184
 21
-25.6205592824
  0
LINE
 10
29.5353507184
 20
-25.6205592824
 11
30.5275659333
 21
-25.8470059812
  0
LINE
 10
30.6115763329
 20
-16.9685413166
 11
30.6574372267
 21
-16.9962214239
  0
LINE
 10
30.6574372267
 20
-16.9962214239
 11
30.7907661807
 21
-17.0859216317
  0
LINE
 10
30.7907661807
 20
-17.0859216317
 11
31.0045715225
 21
-17.247218463
  0
LINE
 10
31.0045715225
 20
-17.247218463
 11
31.2910805966
 21
-17.4890901735
  0
LINE
 10
31.2910805966
 20
-17.4890901735
 11
31.6417853377
 21
-17.8198602868
  0
LINE
 10
31.6417853377
 20
-17.8198602868
 11
32.047491664
 21
-18.2471443806
  0
LINE
 10
32.047491664
 20
-18.2471443806
 11
32.4983724681
 21
-18.7778003751
  0
LINE
 10
32.4983724681
 20
-18.7778003751
 11
32.9840239678
 21
-19.4178825543
  0
LINE
 10
32.9840239678
 20
-19.4178825543
 11
33.4935251635
 21
-20.1725995381
  0
LINE
 10
33.4935251635
 20
-20.1725995381
 11
34.0155001354
 21
-21.0462764056
  0
LINE
 10
30.5275659333
 20
-25.8470059812
 11
30.5275659333
 21
-25.8470059812
  0
LINE
 10
34.0155001354
 20
-21.0462764056
 11
34.0155001354
 21
-21.0462764056
  0
LINE
 10
30.5275659333
 20
-25.8470059812
 11
34.0155001354
 21
-21.0462764056
  0
LINE
 10
30.6115763329
 20
-16.9685413166
 11
33.0932263086
 21
-11.3946642113
  0
LINE
 10
33.0932263086
 20
-11.3946642113
 11
33.1444835648
 21
-11.4102238902
  0
LINE
 10
33.1444835648
 20
-11.4102238902
 11
33.3003582939
 21
-11.449285458
  0
LINE
 10
33.3003582939
 20
-11.449285458
 11
33.5632888973
 21
-11.5002451449
  0
LINE
 10
33.5632888973
 20
-11.5002451449
 11
33.934746598
 21
-11.5513191165
  0
LINE
 10
33.934746598
 20
-11.5513191165
 11
34.4152239722
 21
-11.5906151237
  0
LINE
 10
34.4152239722
 20
-11.5906151237
 11
35.0042284556
 21
-11.606204816
  0
LINE
 10
35.0042284556
 20
-11.606204816
 11
35.7002808578
 21
-11.5861963851
  0
LINE
 10
35.7002808578
 20
-11.5861963851
 11
36.5009188997
 21
-11.5188072073
  0
LINE
 10
36.5009188997
 20
-11.5188072073
 11
37.4027057649
 21
-11.3924361515
  0
LINE
 10
37.4027057649
 20
-11.3924361515
 11
38.4012436376
 21
-11.1957352188
  0
LINE
 10
34.8667940432
 20
-3.05068404568
 11
34.9199485684
 21
-3.05731777601
  0
LINE
 10
34.9199485684
 20
-3.05731777601
 11
35.0782349901
 21
-3.08503322224
  0
LINE
 10
35.0782349901
 20
-3.08503322224
 11
35.3391612205
 21
-3.14542274276
  0
LINE
 10
35.3391612205
 20
-3.14542274276
 11
35.6992783714
 21
-3.24984980628
  0
LINE
 10
35.6992783714
 20
-3.24984980628
 11
36.1541994201
 21
-3.40937887162
  0
LINE
 10
36.1541994201
 20
-3.40937887162
 11
36.6986226896
 21
-3.63470668537
  0
LINE
 10
36.6986226896
 20
-3.63470668537
 11
37.3263600379
 21
-3.93609531406
  0
LINE
 10
37.3263600379
 20
-3.93609531406
 11
38.0303696364
 21
-4.32330722073
  0
LINE
 10
38.0303696364
 20
-4.32330722073
 11
38.8027931918
 21
-4.80554268712
  0
LINE
 10
38.8027931918
 20
-4.80554268712
 11
39.6349974526
 21
-5.391379873
  0
LINE
 10
38.4012436376
 20
-11.1957352188
 11
38.4012436376
 21
-11.1957352188
  0
LINE
 10
39.6349974526
 20
-5.391379873
 11
39.6349974526
 21
-5.39137987299
  0
LINE
 10
38.4012436376
 20
-11.1957352188
 11
39.6349974526
 21
-5.39137987299
  0
ENDSEC
  0
EOF
