  0
SECTION
  2
ENTITIES
  0
LINE
 10
122.449580188
 20
-3.51430102726
 11
122.449580188
 21
3.51430102726
  0
LINE
 10
122.449580188
 20
3.51430102726
 11
122.500540817
 21
3.51674560262
  0
LINE
 10
122.500540817
 20
3.51674560262
 11
122.653182701
 21
3.52799850214
  0
LINE
 10
122.653182701
 20
3.52799850214
 11
122.906955145
 21
3.55392418189
  0
LINE
 10
122.906955145
 20
3.55392418189
 11
123.261053891
 21
3.60036020756
  0
LINE
 10
123.261053891
 20
3.60036020756
 11
123.714422285
 21
3.67310751195
  0
LINE
 10
123.714422285
 20
3.67310751195
 11
124.265752785
 21
3.77792069921
  0
LINE
 10
124.265752785
 20
3.77792069921
 11
124.913488833
 21
3.92049840801
  0
LINE
 10
124.913488833
 20
3.92049840801
 11
125.655827058
 21
4.10647374576
  0
LINE
 10
125.655827058
 20
4.10647374576
 11
126.490719836
 21
4.34140480567
  0
LINE
 10
126.490719836
 20
4.34140480567
 11
127.415878184
 21
4.6307652788
  0
LINE
 10
121.924487386
 20
11.8604121196
 11
121.975352561
 21
11.8643738808
  0
LINE
 10
121.975352561
 20
11.8643738808
 11
122.128201181
 21
11.8723408146
  0
LINE
 10
122.128201181
 20
11.8723408146
 11
122.383221902
 21
11.8784256876
  0
LINE
 10
122.383221902
 20
11.8784256876
 11
122.740348452
 21
11.8767361648
  0
LINE
 10
122.740348452
 20
11.8767361648
 11
123.199259555
 21
11.8613846214
  0
LINE
 10
123.199259555
 20
11.8613846214
 11
123.759379226
 21
11.8264979518
  0
LINE
 10
123.759379226
 20
11.8264979518
 11
124.419877406
 21
11.7662273642
  0
LINE
 10
124.419877406
 20
11.7662273642
 11
125.179670963
 21
11.6747581476
  0
LINE
 10
125.179670963
 20
11.6747581476
 11
126.037425032
 21
11.5463194009
  0
LINE
 10
126.037425032
 20
11.5463194009
 11
126.991554713
 21
11.3751937088
  0
LINE
 10
127.415878184
 20
4.6307652788
 11
127.415878182
 21
4.63076527875
  0
LINE
 10
126.991554713
 20
11.3751937088
 11
126.991554712
 21
11.3751937086
  0
LINE
 10
127.415878182
 20
4.63076527875
 11
126.991554712
 21
11.3751937086
  0
LINE
 10
121.924487386
 20
11.8604121196
 11
121.043569963
 21
18.8335915476
  0
LINE
 10
121.043569963
 20
18.8335915476
 11
121.093822365
 21
18.8424039071
  0
LINE
 10
121.093822365
 20
18.8424039071
 11
121.24385026
 21
18.872699175
  0
LINE
 10
121.24385026
 20
18.872699175
 11
121.492372283
 21
18.930226544
  0
LINE
 10
121.492372283
 20
18.930226544
 11
121.837858878
 21
19.0206767487
  0
LINE
 10
121.837858878
 20
19.0206767487
 11
122.278534672
 21
19.1496725456
  0
LINE
 10
122.278534672
 20
19.1496725456
 11
122.812381191
 21
19.322759284
  0
LINE
 10
122.812381191
 20
19.322759284
 11
123.437139921
 21
19.5453955783
  0
LINE
 10
123.437139921
 20
19.5453955783
 11
124.150315697
 21
19.8229440951
  0
LINE
 10
124.150315697
 20
19.8229440951
 11
124.949180427
 21
20.160662465
  0
LINE
 10
124.949180427
 20
20.160662465
 11
125.830777141
 21
20.5636943316
  0
LINE
 10
119.476572584
 20
27.0480794823
 11
119.526540131
 21
27.0583851007
  0
LINE
 10
119.526540131
 20
27.0583851007
 11
119.677184972
 21
27.0854462246
  0
LINE
 10
119.677184972
 20
27.0854462246
 11
119.929432143
 21
27.1234456882
  0
LINE
 10
119.929432143
 20
27.1234456882
 11
120.283954396
 21
27.1665293131
  0
LINE
 10
120.283954396
 20
27.1665293131
 11
120.741170907
 21
27.2088156336
  0
LINE
 10
120.741170907
 20
27.2088156336
 11
121.301246325
 21
27.2444056653
  0
LINE
 10
121.301246325
 20
27.2444056653
 11
121.964090188
 21
27.267392702
  0
LINE
 10
121.964090188
 20
27.267392702
 11
122.729356679
 21
27.2718721309
  0
LINE
 10
122.729356679
 20
27.2718721309
 11
123.596444743
 21
27.251951253
  0
LINE
 10
123.596444743
 20
27.251951253
 11
124.564498564
 21
27.2017590963
  0
LINE
 10
125.830777141
 20
20.5636943316
 11
125.830777139
 21
20.5636943314
  0
LINE
 10
124.564498564
 20
27.2017590963
 11
124.564498562
 21
27.201759096
  0
LINE
 10
125.830777139
 20
20.5636943314
 11
124.564498562
 21
27.201759096
  0
LINE
 10
119.476572584
 20
27.0480794823
 11
117.728630332
 21
33.8558650785
  0
LINE
 10
117.728630332
 20
33.8558650785
 11
117.777381997
 21
33.870906246
  0
LINE
 10
117.777381997
 20
33.870906246
 11
117.922429873
 21
33.9197661079
  0
LINE
 10
117.922429873
 20
33.9197661079
 11
118.161782135
 21
34.0079879252
  0
LINE
 10
118.161782135
 20
34.0079879252
 11
118.493208048
 21
34.1410258551
  0
LINE
 10
118.493208048
 20
34.1410258551
 11
118.914241521
 21
34.3242358038
  0
LINE
 10
118.914241521
 20
34.3242358038
 11
119.422184981
 21
34.562866412
  0
LINE
 10
119.422184981
 20
34.562866412
 11
120.014113575
 21
34.8620501845
  0
LINE
 10
120.014113575
 20
34.8620501845
 11
120.686879694
 21
35.2267947744
  0
LINE
 10
120.686879694
 20
35.2267947744
 11
121.437117801
 21
35.6619744338
  0
LINE
 10
121.437117801
 20
35.6619744338
 11
122.261249574
 21
36.1723216407
  0
LINE
 10
115.14444086
 20
41.8091824738
 11
115.192722762
 21
41.8256694236
  0
LINE
 10
115.192722762
 20
41.8256694236
 11
115.338788065
 21
41.8713979675
  0
LINE
 10
115.338788065
 20
41.8713979675
 11
115.584283595
 21
41.9407127475
  0
LINE
 10
115.584283595
 20
41.9407127475
 11
115.930610525
 21
42.0278900655
  0
LINE
 10
115.930610525
 20
42.0278900655
 11
116.378921866
 21
42.1271473695
  0
LINE
 10
116.378921866
 20
42.1271473695
 11
116.930120309
 21
42.2326528265
  0
LINE
 10
116.930120309
 20
42.2326528265
 11
117.58485641
 21
42.3385349682
  0
LINE
 10
117.58485641
 20
42.3385349682
 11
118.343527124
 21
42.4388923992
  0
LINE
 10
118.343527124
 20
42.4388923992
 11
119.206274689
 21
42.5278035544
  0
LINE
 10
119.206274689
 20
42.5278035544
 11
120.172985861
 21
42.5993364934
  0
LINE
 10
122.261249574
 20
36.1723216407
 11
122.261249573
 21
36.1723216403
  0
LINE
 10
120.172985861
 20
42.5993364934
 11
120.172985859
 21
42.5993364929
  0
LINE
 10
122.261249573
 20
36.1723216403
 11
120.172985859
 21
42.5993364929
  0
LINE
 10
115.14444086
 20
41.8091824738
 11
112.557039872
 21
48.3442113927
  0
LINE
 10
112.557039872
 20
48.3442113927
 11
112.603521958
 21
48.3652441599
  0
LINE
 10
112.603521958
 20
48.3652441599
 11
112.741302324
 21
48.4318980665
  0
LINE
 10
112.741302324
 20
48.4318980665
 11
112.967710096
 21
48.5494230214
  0
LINE
 10
112.967710096
 20
48.5494230214
 11
113.279848543
 21
48.722950589
  0
LINE
 10
113.279848543
 20
48.722950589
 11
113.674599746
 21
48.9574853591
  0
LINE
 10
113.674599746
 20
48.9574853591
 11
114.148629574
 21
49.2578964898
  0
LINE
 10
114.148629574
 20
49.2578964898
 11
114.698392964
 21
49.6289094337
  0
LINE
 10
114.698392964
 20
49.6289094337
 11
115.320139503
 21
50.0750978567
  0
LINE
 10
115.320139503
 20
50.0750978567
 11
116.009919284
 21
50.6008757624
  0
LINE
 10
116.009919284
 20
50.6008757624
 11
116.763589067
 21
51.2104898292
  0
LINE
 10
108.996412519
 20
55.9109296821
 11
109.042247342
 21
55.9333379543
  0
LINE
 10
109.042247342
 20
55.9333379543
 11
109.18142957
 21
55.9970127517
  0
LINE
 10
109.18142957
 20
55.9970127517
 11
109.416301849
 21
56.0965497127
  0
LINE
 10
109.416301849
 20
56.0965497127
 11
109.748971672
 21
56.2264458854
  0
LINE
 10
109.748971672
 20
56.2264458854
 11
110.181307705
 21
56.3811088259
  0
LINE
 10
110.181307705
 20
56.3811088259
 11
110.714936444
 21
56.554865824
  0
LINE
 10
110.714936444
 20
56.554865824
 11
111.351239204
 21
56.7419732461
  0
LINE
 10
111.351239204
 20
56.7419732461
 11
112.091349452
 21
56.9366259826
  0
LINE
 10
112.091349452
 20
56.9366259826
 11
112.936150472
 21
57.1329669888
  0
LINE
 10
112.936150472
 20
57.1329669888
 11
113.886273383
 21
57.3250969064
  0
LINE
 10
116.763589067
 20
51.2104898292
 11
116.763589066
 21
51.2104898286
  0
LINE
 10
113.886273383
 20
57.3250969064
 11
113.886273382
 21
57.3250969057
  0
LINE
 10
116.763589066
 20
51.2104898286
 11
113.886273382
 21
57.3250969057
  0
LINE
 10
108.996412519
 20
55.9109296821
 11
105.610357656
 21
62.0701406138
  0
LINE
 10
105.610357656
 20
62.0701406138
 11
105.653837112
 21
62.0968332815
  0
LINE
 10
105.653837112
 20
62.0968332815
 11
105.782177089
 21
62.1802300609
  0
LINE
 10
105.782177089
 20
62.1802300609
 11
105.992069785
 21
62.3252047146
  0
LINE
 10
105.992069785
 20
62.3252047146
 11
106.279998156
 21
62.5364852863
  0
LINE
 10
106.279998156
 20
62.5364852863
 11
106.642241627
 21
62.8186461244
  0
LINE
 10
106.642241627
 20
62.8186461244
 11
107.074882089
 21
63.1761001148
  0
LINE
 10
107.074882089
 20
63.1761001148
 11
107.57381018
 21
63.6130911342
  0
LINE
 10
107.57381018
 20
63.6130911342
 11
108.134731823
 21
64.1336867323
  0
LINE
 10
108.134731823
 20
64.1336867323
 11
108.75317504
 21
64.7417710527
  0
LINE
 10
108.75317504
 20
64.7417710527
 11
109.424497009
 21
65.4410380014
  0
LINE
 10
101.129445642
 20
69.1309281297
 11
101.172110542
 21
69.1589043325
  0
LINE
 10
101.172110542
 20
69.1589043325
 11
101.302214709
 21
69.2395211938
  0
LINE
 10
101.302214709
 20
69.2395211938
 11
101.522759661
 21
69.3677105784
  0
LINE
 10
101.522759661
 20
69.3677105784
 11
101.836525976
 21
69.5382770657
  0
LINE
 10
101.836525976
 20
69.5382770657
 11
102.246068503
 21
69.7459065157
  0
LINE
 10
102.246068503
 20
69.7459065157
 11
102.753711894
 21
69.9851748032
  0
LINE
 10
102.753711894
 20
69.9851748032
 11
103.361546438
 21
70.2505567099
  0
LINE
 10
103.361546438
 20
70.2505567099
 11
104.071424239
 21
70.536434962
  0
LINE
 10
104.071424239
 20
70.536434962
 11
104.884955697
 21
70.8371094042
  0
LINE
 10
104.884955697
 20
70.8371094042
 11
105.803506342
 21
71.1468062968
  0
LINE
 10
109.424497009
 20
65.4410380014
 11
109.424497008
 21
65.4410380006
  0
LINE
 10
105.803506342
 20
71.1468062968
 11
105.80350634
 21
71.1468062959
  0
LINE
 10
109.424497008
 20
65.4410380006
 11
105.80350634
 21
71.1468062959
  0
LINE
 10
101.129445642
 20
69.1309281297
 11
96.9981370105
 21
74.8171866385
  0
LINE
 10
96.9981370105
 20
74.8171866385
 11
97.0379281395
 21
74.8491182473
  0
LINE
 10
97.0379281395
 20
74.8491182473
 11
97.1548037293
 21
74.9479426825
  0
LINE
 10
97.1548037293
 20
74.9479426825
 11
97.3448712171
 21
75.1180806981
  0
LINE
 10
97.3448712171
 20
75.1180806981
 11
97.6040487098
 21
75.3637822532
  0
LINE
 10
97.6040487098
 20
75.3637822532
 11
97.9280716522
 21
75.6891193143
  0
LINE
 10
97.9280716522
 20
75.6891193143
 11
98.3124997509
 21
76.0979789014
  0
LINE
 10
98.3124997509
 20
76.0979789014
 11
98.7527241467
 21
76.5940563869
  0
LINE
 10
98.7527241467
 20
76.5940563869
 11
99.2439748255
 21
77.1808490566
  0
LINE
 10
99.2439748255
 20
77.1808490566
 11
99.781328259
 21
77.8616499387
  0
LINE
 10
99.781328259
 20
77.8616499387
 11
100.359715266
 21
78.6395419118
  0
LINE
 10
91.6676069958
 20
81.2606905439
 11
91.7064291221
 21
81.2937934758
  0
LINE
 10
91.7064291221
 20
81.2937934758
 11
91.8254034065
 21
81.390081025
  0
LINE
 10
91.8254034065
 20
81.390081025
 11
92.0281429058
 21
81.54490121
  0
LINE
 10
92.0281429058
 20
81.54490121
 11
92.3180574302
 21
81.7534480764
  0
LINE
 10
92.3180574302
 20
81.7534480764
 11
92.6983477224
 21
82.0107695955
  0
LINE
 10
92.6983477224
 20
82.0107695955
 11
93.1719999246
 21
82.3117757687
  0
LINE
 10
93.1719999246
 20
82.3117757687
 11
93.74178034
 21
82.6512469288
  0
LINE
 10
93.74178034
 20
82.6512469288
 11
94.4102304962
 21
83.0238422256
  0
LINE
 10
94.4102304962
 20
83.0238422256
 11
95.1796625158
 21
83.4241082883
  0
LINE
 10
95.1796625158
 20
83.4241082883
 11
96.0521548011
 21
83.8464880508
  0
LINE
 10
100.359715266
 20
78.6395419118
 11
100.359715265
 21
78.6395419108
  0
LINE
 10
96.0521548011
 20
83.8464880508
 11
96.0521548
 21
83.8464880498
  0
LINE
 10
100.359715265
 20
78.6395419108
 11
96.0521548
 21
83.8464880498
  0
LINE
 10
91.6676069958
 20
81.2606905439
 11
86.8561978006
 21
86.3843209363
  0
LINE
 10
86.8561978006
 20
86.3843209363
 11
86.8916730729
 21
86.4209879057
  0
LINE
 10
86.8916730729
 20
86.4209879057
 11
86.9952410778
 21
86.5336814763
  0
LINE
 10
86.9952410778
 20
86.5336814763
 11
87.162485879
 21
86.7262996757
  0
LINE
 10
87.162485879
 20
86.7262996757
 11
87.3888251094
 21
87.0025473539
  0
LINE
 10
87.3888251094
 20
87.0025473539
 11
87.6695174882
 21
87.3659298782
  0
LINE
 10
87.6695174882
 20
87.3659298782
 11
87.9996705624
 21
87.8197471019
  0
LINE
 10
87.9996705624
 20
87.8197471019
 11
88.374248662
 21
88.3670876154
  0
LINE
 10
88.374248662
 20
88.3670876154
 11
88.7880810597
 21
89.0108232856
  0
LINE
 10
88.7880810597
 20
89.0108232856
 11
89.235870325
 21
89.7536040928
  0
LINE
 10
89.235870325
 20
89.7536040928
 11
89.7122008614
 21
90.5978532692
  0
LINE
 10
80.7601154273
 20
92.1089233254
 11
80.794482532
 21
92.1466309335
  0
LINE
 10
80.794482532
 20
92.1466309335
 11
80.9004506388
 21
92.2570706583
  0
LINE
 10
80.9004506388
 20
92.2570706583
 11
81.0821873622
 21
92.436080037
  0
LINE
 10
81.0821873622
 20
92.436080037
 11
81.3436779708
 21
92.6793183738
  0
LINE
 10
81.3436779708
 20
92.6793183738
 11
81.6887186224
 21
92.9822738479
  0
LINE
 10
81.6887186224
 20
92.9822738479
 11
82.1209098585
 21
93.3402708596
  0
LINE
 10
82.1209098585
 20
93.3402708596
 11
82.643650367
 21
93.7484776101
  0
LINE
 10
82.643650367
 20
93.7484776101
 11
83.2601310207
 21
94.2019139013
  0
LINE
 10
83.2601310207
 20
94.2019139013
 11
83.9733291991
 21
94.6954591495
  0
LINE
 10
83.9733291991
 20
94.6954591495
 11
84.7860034007
 21
95.2238606008
  0
LINE
 10
89.7122008614
 20
90.5978532692
 11
89.7122008603
 21
90.5978532681
  0
LINE
 10
84.7860034007
 20
95.2238606008
 11
84.7860033997
 21
95.2238605997
  0
LINE
 10
89.7122008603
 20
90.5978532681
 11
84.7860033997
 21
95.2238605997
  0
LINE
 10
80.7601154273
 20
92.1089233254
 11
75.3444844661
 21
96.5891228894
  0
LINE
 10
75.3444844661
 20
96.5891228894
 11
75.3750844154
 21
96.6299469594
  0
LINE
 10
75.3750844154
 20
96.6299469594
 11
75.463711506
 21
96.7547324205
  0
LINE
 10
75.463711506
 20
96.7547324205
 11
75.6054960702
 21
96.9667930995
  0
LINE
 10
75.6054960702
 20
96.9667930995
 11
75.7954275334
 21
97.2692303099
  0
LINE
 10
75.7954275334
 20
97.2692303099
 11
76.0283626622
 21
97.664927538
  0
LINE
 10
76.0283626622
 20
97.664927538
 11
76.2990340007
 21
98.1565454297
  0
LINE
 10
76.2990340007
 20
98.1565454297
 11
76.6020584837
 21
98.7465170842
  0
LINE
 10
76.6020584837
 20
98.7465170842
 11
76.9319462163
 21
99.4370436589
  0
LINE
 10
76.9319462163
 20
99.4370436589
 11
77.283109409
 21
100.230090294
  0
LINE
 10
77.283109409
 20
100.230090294
 11
77.6498714577
 21
101.12738236
  0
LINE
 10
68.5789885948
 20
101.504543363
 11
68.6083586882
 21
101.546260976
  0
LINE
 10
68.6083586882
 20
101.546260976
 11
68.6996494369
 21
101.669111176
  0
LINE
 10
68.6996494369
 20
101.669111176
 11
68.8575172877
 21
101.869486663
  0
LINE
 10
68.8575172877
 20
101.869486663
 11
69.0864601175
 21
102.143580457
  0
LINE
 10
69.0864601175
 20
102.143580457
 11
69.3908096313
 21
102.487392097
  0
LINE
 10
69.3908096313
 20
102.487392097
 11
69.7747239873
 21
102.89673412
  0
LINE
 10
69.7747239873
 20
102.89673412
 11
70.2421806588
 21
103.367238797
  0
LINE
 10
70.2421806588
 20
103.367238797
 11
70.7969695418
 21
103.894365121
  0
LINE
 10
70.7969695418
 20
103.894365121
 11
71.4426863176
 21
104.473406052
  0
LINE
 10
71.4426863176
 20
104.473406052
 11
72.1827260779
 21
105.099495985
  0
LINE
 10
77.6498714577
 20
101.12738236
 11
77.6498714567
 21
101.127382359
  0
LINE
 10
72.1827260779
 20
105.099495985
 11
72.1827260771
 21
105.099495984
  0
LINE
 10
77.6498714567
 20
101.127382359
 11
72.1827260771
 21
105.099495984
  0
LINE
 10
68.5789885948
 20
101.504543363
 11
62.6445436029
 21
105.270656675
  0
LINE
 10
62.6445436029
 20
105.270656675
 11
62.6697856498
 21
105.314994026
  0
LINE
 10
62.6697856498
 20
105.314994026
 11
62.7420741239
 21
105.449903436
  0
LINE
 10
62.7420741239
 20
105.449903436
 11
62.8561624239
 21
105.678062271
  0
LINE
 10
62.8561624239
 20
105.678062271
 11
63.0066907873
 21
106.001919398
  0
LINE
 10
63.0066907873
 20
106.001919398
 11
63.1881951399
 21
106.423690948
  0
LINE
 10
63.1881951399
 20
106.423690948
 11
63.395116094
 21
106.9453564
  0
LINE
 10
63.395116094
 20
106.9453564
 11
63.6218080832
 21
107.56865499
  0
LINE
 10
63.6218080832
 20
107.56865499
 11
63.862548624
 21
108.295082453
  0
LINE
 10
63.862548624
 20
108.295082453
 11
64.111547691
 21
109.125888097
  0
LINE
 10
64.111547691
 20
109.125888097
 11
64.3629571953
 21
110.062072221
  0
LINE
 10
55.316330145
 20
109.299376116
 11
55.3402400431
 21
109.344445821
  0
LINE
 10
55.3402400431
 20
109.344445821
 11
55.4154137243
 21
109.477769076
  0
LINE
 10
55.4154137243
 20
109.477769076
 11
55.5469230321
 21
109.696350631
  0
LINE
 10
55.5469230321
 20
109.696350631
 11
55.7397075179
 21
109.996977258
  0
LINE
 10
55.7397075179
 20
109.996977258
 11
55.9985661203
 21
110.376222949
  0
LINE
 10
55.9985661203
 20
110.376222949
 11
56.3281490375
 21
110.830454416
  0
LINE
 10
56.3281490375
 20
110.830454416
 11
56.7329498009
 21
111.355836879
  0
LINE
 10
56.7329498009
 20
111.355836879
 11
57.2172975612
 21
111.94834014
  0
LINE
 10
57.2172975612
 20
111.94834014
 11
57.7853495952
 21
112.603744931
  0
LINE
 10
57.7853495952
 20
112.603744931
 11
58.4410840451
 21
113.317649535
  0
LINE
 10
64.3629571953
 20
110.062072221
 11
64.3629571945
 21
110.062072219
  0
LINE
 10
58.4410840451
 20
113.317649535
 11
58.4410840444
 21
113.317649533
  0
LINE
 10
64.3629571945
 20
110.062072219
 11
58.4410840444
 21
113.317649533
  0
LINE
 10
55.316330145
 20
109.299376116
 11
48.956660865
 21
112.292009319
  0
LINE
 10
48.956660865
 20
112.292009319
 11
48.9761469274
 21
112.339160724
  0
LINE
 10
48.9761469274
 20
112.339160724
 11
49.0309567527
 21
112.482066481
  0
LINE
 10
49.0309567527
 20
112.482066481
 11
49.1155495477
 21
112.722725272
  0
LINE
 10
49.1155495477
 20
112.722725272
 11
49.2243008891
 21
113.062894895
  0
LINE
 10
49.2243008891
 20
113.062894895
 11
49.3515120334
 21
113.504089178
  0
LINE
 10
49.3515120334
 20
113.504089178
 11
49.4914193361
 21
114.047575214
  0
LINE
 10
49.4914193361
 20
114.047575214
 11
49.6382037635
 21
114.694370949
  0
LINE
 10
49.6382037635
 20
114.694370949
 11
49.7860004904
 21
115.445243104
  0
LINE
 10
49.7860004904
 20
115.445243104
 11
49.9289085675
 21
116.300705456
  0
LINE
 10
49.9289085675
 20
116.300705456
 11
50.0610006493
 21
117.261017454
  0
LINE
 10
41.1813001245
 20
115.370492415
 11
41.199372754
 21
115.418203437
  0
LINE
 10
41.199372754
 20
115.418203437
 11
41.2572438336
 21
115.559897158
  0
LINE
 10
41.2572438336
 20
115.559897158
 11
41.3603206182
 21
115.793237619
  0
LINE
 10
41.3603206182
 20
115.793237619
 11
41.5139064334
 21
116.115656019
  0
LINE
 10
41.5139064334
 20
116.115656019
 11
41.7231917696
 21
116.52435483
  0
LINE
 10
41.7231917696
 20
116.52435483
 11
41.9932455285
 21
117.016312239
  0
LINE
 10
41.9932455285
 20
117.016312239
 11
42.3290064341
 21
117.588286893
  0
LINE
 10
42.3290064341
 20
117.588286893
 11
42.7352746181
 21
118.23682296
  0
LINE
 10
42.7352746181
 20
118.23682296
 11
43.2167033904
 21
118.958255486
  0
LINE
 10
43.2167033904
 20
118.958255486
 11
43.7777912058
 21
119.748716058
  0
LINE
 10
50.0610006493
 20
117.261017454
 11
50.0610006487
 21
117.261017453
  0
LINE
 10
43.7777912058
 20
119.748716058
 11
43.7777912053
 21
119.748716057
  0
LINE
 10
50.0610006487
 20
117.261017453
 11
43.7777912053
 21
119.748716057
  0
LINE
 10
41.1813001245
 20
115.370492415
 11
34.4967023401
 21
117.542449896
  0
LINE
 10
34.4967023401
 20
117.542449896
 11
34.5101251109
 21
117.591671749
  0
LINE
 10
34.5101251109
 20
117.591671749
 11
34.5465919037
 21
117.740320145
  0
LINE
 10
34.5465919037
 20
117.740320145
 11
34.600355115
 21
117.989683557
  0
LINE
 10
34.600355115
 20
117.989683557
 11
34.6656143606
 21
118.340800999
  0
LINE
 10
34.6656143606
 20
118.340800999
 11
34.736526101
 21
118.794460117
  0
LINE
 10
34.736526101
 20
118.794460117
 11
34.8072133305
 21
119.351195638
  0
LINE
 10
34.8072133305
 20
119.351195638
 11
34.871775318
 21
120.011288162
  0
LINE
 10
34.871775318
 20
120.011288162
 11
34.9242973883
 21
120.774763308
  0
LINE
 10
34.9242973883
 20
120.774763308
 11
34.9588607297
 21
121.641391215
  0
LINE
 10
34.9588607297
 20
121.641391215
 11
34.9695522181
 21
122.610686394
  0
LINE
 10
26.3968164004
 20
119.62214713
 11
26.4087667452
 21
119.671747037
  0
LINE
 10
26.4087667452
 20
119.671747037
 11
26.4484225618
 21
119.819576631
  0
LINE
 10
26.4484225618
 20
119.819576631
 11
26.5214412407
 21
120.063996079
  0
LINE
 10
26.5214412407
 20
120.063996079
 11
26.6334062453
 21
120.40312152
  0
LINE
 10
26.6334062453
 20
120.40312152
 11
26.7898177605
 21
120.834828028
  0
LINE
 10
26.7898177605
 20
120.834828028
 11
26.996083452
 21
121.356752916
  0
LINE
 10
26.996083452
 20
121.356752916
 11
27.2575093497
 21
121.966299379
  0
LINE
 10
27.2575093497
 20
121.966299379
 11
27.5792908654
 21
122.66064045
  0
LINE
 10
27.5792908654
 20
122.66064045
 11
27.9665039566
 21
123.436723291
  0
LINE
 10
27.9665039566
 20
123.436723291
 11
28.4240964476
 21
124.291273795
  0
LINE
 10
34.9695522181
 20
122.610686394
 11
34.9695522177
 21
122.610686393
  0
LINE
 10
28.4240964476
 20
124.291273795
 11
28.4240964473
 21
124.291273793
  0
LINE
 10
34.9695522177
 20
122.610686393
 11
28.4240964473
 21
124.291273793
  0
LINE
 10
26.3968164004
 20
119.62214713
 11
19.4927102119
 21
120.939175822
  0
LINE
 10
19.4927102119
 20
120.939175822
 11
19.4998580062
 21
120.989691866
  0
LINE
 10
19.4998580062
 20
120.989691866
 11
19.5174066633
 21
121.141738625
  0
LINE
 10
19.5174066633
 20
121.141738625
 11
19.5394924128
 21
121.39587405
  0
LINE
 10
19.5394924128
 20
121.39587405
 11
19.5602303855
 21
121.752401978
  0
LINE
 10
19.5602303855
 20
121.752401978
 11
19.5737244014
 21
122.211371456
  0
LINE
 10
19.5737244014
 20
122.211371456
 11
19.5740767778
 21
122.77257641
  0
LINE
 10
19.5740767778
 20
122.77257641
 11
19.5553981443
 21
123.43555567
  0
LINE
 10
19.5553981443
 20
123.43555567
 11
19.5118172536
 21
124.199593348
  0
LINE
 10
19.5118172536
 20
124.199593348
 11
19.4374907749
 21
125.06371957
  0
LINE
 10
19.4374907749
 20
125.06371957
 11
19.3266130587
 21
126.026711566
  0
LINE
 10
11.1960391131
 20
121.987289125
 11
11.201678709
 21
122.037995698
  0
LINE
 10
11.201678709
 20
122.037995698
 11
11.2224938667
 21
122.189629803
  0
LINE
 10
11.2224938667
 20
122.189629803
 11
11.2643028916
 21
122.441273598
  0
LINE
 10
11.2643028916
 20
122.441273598
 11
11.3328813307
 21
122.79175787
  0
LINE
 10
11.3328813307
 20
122.79175787
 11
11.4339523219
 21
123.239663803
  0
LINE
 10
11.4339523219
 20
123.239663803
 11
11.5731770128
 21
123.783325105
  0
LINE
 10
11.5731770128
 20
123.783325105
 11
11.75614506
 21
124.420830465
  0
LINE
 10
11.75614506
 20
124.420830465
 11
11.9883652207
 21
125.150026367
  0
LINE
 10
11.9883652207
 20
125.150026367
 11
12.2752560491
 21
125.968520231
  0
LINE
 10
12.2752560491
 20
125.968520231
 11
12.6221367088
 21
126.873683896
  0
LINE
 10
19.3266130587
 20
126.026711566
 11
19.3266130584
 21
126.026711564
  0
LINE
 10
12.6221367088
 20
126.873683896
 11
12.6221367086
 21
126.873683894
  0
LINE
 10
19.3266130584
 20
126.026711564
 11
12.6221367086
 21
126.873683894
  0
LINE
 10
11.1960391131
 20
121.987289125
 11
4.18130639923
 21
122.4286187
  0
LINE
 10
4.18130639923
 20
122.4286187
 11
4.182066492
 21
122.479632265
  0
LINE
 10
4.182066492
 20
122.479632265
 11
4.1804202607
 21
122.632679521
  0
LINE
 10
4.1804202607
 20
122.632679521
 11
4.17048024297
 21
122.88757909
  0
LINE
 10
4.17048024297
 20
122.88757909
 11
4.14636989246
 21
123.243894846
  0
LINE
 10
4.14636989246
 20
123.243894846
 11
4.10223337522
 21
123.700936461
  0
LINE
 10
4.10223337522
 20
123.700936461
 11
4.03224534141
 21
124.257760312
  0
LINE
 10
4.03224534141
 20
124.257760312
 11
3.93062066008
 21
124.913170728
  0
LINE
 10
3.93062066008
 20
124.913170728
 11
3.791624105
 21
125.665721607
  0
LINE
 10
3.791624105
 20
125.665721607
 11
3.60957997915
 21
126.513718358
  0
LINE
 10
3.60957997915
 20
126.513718358
 11
3.37888166611
 21
127.455220211
  0
LINE
 10
-4.18130639923
 20
122.4286187
 11
-4.182066492
 21
122.479632265
  0
LINE
 10
-4.182066492
 20
122.479632265
 11
-4.1804202607
 21
122.632679521
  0
LINE
 10
-4.1804202607
 20
122.632679521
 11
-4.17048024297
 21
122.88757909
  0
LINE
 10
-4.17048024297
 20
122.88757909
 11
-4.14636989246
 21
123.243894846
  0
LINE
 10
-4.14636989246
 20
123.243894846
 11
-4.10223337522
 21
123.700936461
  0
LINE
 10
-4.10223337522
 20
123.700936461
 11
-4.03224534141
 21
124.257760312
  0
LINE
 10
-4.03224534141
 20
124.257760312
 11
-3.93062066008
 21
124.913170728
  0
LINE
 10
-3.93062066008
 20
124.913170728
 11
-3.791624105
 21
125.665721607
  0
LINE
 10
-3.791624105
 20
125.665721607
 11
-3.60957997915
 21
126.513718358
  0
LINE
 10
-3.60957997915
 20
126.513718358
 11
-3.37888166611
 21
127.455220211
  0
LINE
 10
3.37888166611
 20
127.455220211
 11
3.37888166607
 21
127.45522021
  0
LINE
 10
-3.37888166611
 20
127.455220211
 11
-3.37888166607
 21
127.45522021
  0
LINE
 10
3.37888166607
 20
127.45522021
 11
-3.37888166607
 21
127.45522021
  0
LINE
 10
-4.18130639923
 20
122.4286187
 11
-11.1960391131
 21
121.987289125
  0
LINE
 10
-11.1960391131
 20
121.987289125
 11
-11.201678709
 21
122.037995698
  0
LINE
 10
-11.201678709
 20
122.037995698
 11
-11.2224938667
 21
122.189629803
  0
LINE
 10
-11.2224938667
 20
122.189629803
 11
-11.2643028916
 21
122.441273598
  0
LINE
 10
-11.2643028916
 20
122.441273598
 11
-11.3328813307
 21
122.79175787
  0
LINE
 10
-11.3328813307
 20
122.79175787
 11
-11.4339523219
 21
123.239663803
  0
LINE
 10
-11.4339523219
 20
123.239663803
 11
-11.5731770128
 21
123.783325105
  0
LINE
 10
-11.5731770128
 20
123.783325105
 11
-11.75614506
 21
124.420830465
  0
LINE
 10
-11.75614506
 20
124.420830465
 11
-11.9883652207
 21
125.150026367
  0
LINE
 10
-11.9883652207
 20
125.150026367
 11
-12.2752560491
 21
125.968520231
  0
LINE
 10
-12.2752560491
 20
125.968520231
 11
-12.6221367088
 21
126.873683896
  0
LINE
 10
-19.4927102119
 20
120.939175822
 11
-19.4998580062
 21
120.989691866
  0
LINE
 10
-19.4998580062
 20
120.989691866
 11
-19.5174066633
 21
121.141738625
  0
LINE
 10
-19.5174066633
 20
121.141738625
 11
-19.5394924128
 21
121.39587405
  0
LINE
 10
-19.5394924128
 20
121.39587405
 11
-19.5602303855
 21
121.752401978
  0
LINE
 10
-19.5602303855
 20
121.752401978
 11
-19.5737244014
 21
122.211371456
  0
LINE
 10
-19.5737244014
 20
122.211371456
 11
-19.5740767778
 21
122.77257641
  0
LINE
 10
-19.5740767778
 20
122.77257641
 11
-19.5553981443
 21
123.43555567
  0
LINE
 10
-19.5553981443
 20
123.43555567
 11
-19.5118172536
 21
124.199593348
  0
LINE
 10
-19.5118172536
 20
124.199593348
 11
-19.4374907749
 21
125.06371957
  0
LINE
 10
-19.4374907749
 20
125.06371957
 11
-19.3266130587
 21
126.026711566
  0
LINE
 10
-12.6221367088
 20
126.873683896
 11
-12.6221367086
 21
126.873683894
  0
LINE
 10
-19.3266130587
 20
126.026711566
 11
-19.3266130584
 21
126.026711564
  0
LINE
 10
-12.6221367086
 20
126.873683894
 11
-19.3266130584
 21
126.026711564
  0
LINE
 10
-19.4927102119
 20
120.939175822
 11
-26.3968164004
 21
119.62214713
  0
LINE
 10
-26.3968164004
 20
119.62214713
 11
-26.4087667452
 21
119.671747037
  0
LINE
 10
-26.4087667452
 20
119.671747037
 11
-26.4484225618
 21
119.819576631
  0
LINE
 10
-26.4484225618
 20
119.819576631
 11
-26.5214412407
 21
120.063996079
  0
LINE
 10
-26.5214412407
 20
120.063996079
 11
-26.6334062453
 21
120.40312152
  0
LINE
 10
-26.6334062453
 20
120.40312152
 11
-26.7898177605
 21
120.834828028
  0
LINE
 10
-26.7898177605
 20
120.834828028
 11
-26.996083452
 21
121.356752916
  0
LINE
 10
-26.996083452
 20
121.356752916
 11
-27.2575093497
 21
121.966299379
  0
LINE
 10
-27.2575093497
 20
121.966299379
 11
-27.5792908654
 21
122.66064045
  0
LINE
 10
-27.5792908654
 20
122.66064045
 11
-27.9665039566
 21
123.436723291
  0
LINE
 10
-27.9665039566
 20
123.436723291
 11
-28.4240964476
 21
124.291273795
  0
LINE
 10
-34.4967023401
 20
117.542449896
 11
-34.5101251109
 21
117.591671749
  0
LINE
 10
-34.5101251109
 20
117.591671749
 11
-34.5465919037
 21
117.740320145
  0
LINE
 10
-34.5465919037
 20
117.740320145
 11
-34.600355115
 21
117.989683557
  0
LINE
 10
-34.600355115
 20
117.989683557
 11
-34.6656143606
 21
118.340800999
  0
LINE
 10
-34.6656143606
 20
118.340800999
 11
-34.736526101
 21
118.794460117
  0
LINE
 10
-34.736526101
 20
118.794460117
 11
-34.8072133305
 21
119.351195638
  0
LINE
 10
-34.8072133305
 20
119.351195638
 11
-34.871775318
 21
120.011288162
  0
LINE
 10
-34.871775318
 20
120.011288162
 11
-34.9242973883
 21
120.774763308
  0
LINE
 10
-34.9242973883
 20
120.774763308
 11
-34.9588607297
 21
121.641391215
  0
LINE
 10
-34.9588607297
 20
121.641391215
 11
-34.9695522181
 21
122.610686394
  0
LINE
 10
-28.4240964476
 20
124.291273795
 11
-28.4240964473
 21
124.291273793
  0
LINE
 10
-34.9695522181
 20
122.610686394
 11
-34.9695522177
 21
122.610686393
  0
LINE
 10
-28.4240964473
 20
124.291273793
 11
-34.9695522177
 21
122.610686393
  0
LINE
 10
-34.4967023401
 20
117.542449896
 11
-41.1813001245
 21
115.370492415
  0
LINE
 10
-41.1813001245
 20
115.370492415
 11
-41.199372754
 21
115.418203437
  0
LINE
 10
-41.199372754
 20
115.418203437
 11
-41.2572438336
 21
115.559897158
  0
LINE
 10
-41.2572438336
 20
115.559897158
 11
-41.3603206182
 21
115.793237619
  0
LINE
 10
-41.3603206182
 20
115.793237619
 11
-41.5139064334
 21
116.115656019
  0
LINE
 10
-41.5139064334
 20
116.115656019
 11
-41.7231917696
 21
116.52435483
  0
LINE
 10
-41.7231917696
 20
116.52435483
 11
-41.9932455285
 21
117.016312239
  0
LINE
 10
-41.9932455285
 20
117.016312239
 11
-42.3290064341
 21
117.588286893
  0
LINE
 10
-42.3290064341
 20
117.588286893
 11
-42.7352746181
 21
118.23682296
  0
LINE
 10
-42.7352746181
 20
118.23682296
 11
-43.2167033904
 21
118.958255486
  0
LINE
 10
-43.2167033904
 20
118.958255486
 11
-43.7777912058
 21
119.748716058
  0
LINE
 10
-48.956660865
 20
112.292009319
 11
-48.9761469274
 21
112.339160724
  0
LINE
 10
-48.9761469274
 20
112.339160724
 11
-49.0309567527
 21
112.482066481
  0
LINE
 10
-49.0309567527
 20
112.482066481
 11
-49.1155495477
 21
112.722725272
  0
LINE
 10
-49.1155495477
 20
112.722725272
 11
-49.2243008891
 21
113.062894895
  0
LINE
 10
-49.2243008891
 20
113.062894895
 11
-49.3515120334
 21
113.504089178
  0
LINE
 10
-49.3515120334
 20
113.504089178
 11
-49.4914193361
 21
114.047575214
  0
LINE
 10
-49.4914193361
 20
114.047575214
 11
-49.6382037635
 21
114.694370949
  0
LINE
 10
-49.6382037635
 20
114.694370949
 11
-49.7860004904
 21
115.445243104
  0
LINE
 10
-49.7860004904
 20
115.445243104
 11
-49.9289085675
 21
116.300705456
  0
LINE
 10
-49.9289085675
 20
116.300705456
 11
-50.0610006493
 21
117.261017454
  0
LINE
 10
-43.7777912058
 20
119.748716058
 11
-43.7777912053
 21
119.748716057
  0
LINE
 10
-50.0610006493
 20
117.261017454
 11
-50.0610006487
 21
117.261017453
  0
LINE
 10
-43.7777912053
 20
119.748716057
 11
-50.0610006487
 21
117.261017453
  0
LINE
 10
-48.956660865
 20
112.292009319
 11
-55.316330145
 21
109.299376116
  0
LINE
 10
-55.316330145
 20
109.299376116
 11
-55.3402400431
 21
109.344445821
  0
LINE
 10
-55.3402400431
 20
109.344445821
 11
-55.4154137243
 21
109.477769076
  0
LINE
 10
-55.4154137243
 20
109.477769076
 11
-55.5469230321
 21
109.696350631
  0
LINE
 10
-55.5469230321
 20
109.696350631
 11
-55.7397075179
 21
109.996977258
  0
LINE
 10
-55.7397075179
 20
109.996977258
 11
-55.9985661203
 21
110.376222949
  0
LINE
 10
-55.9985661203
 20
110.376222949
 11
-56.3281490375
 21
110.830454416
  0
LINE
 10
-56.3281490375
 20
110.830454416
 11
-56.7329498009
 21
111.355836879
  0
LINE
 10
-56.7329498009
 20
111.355836879
 11
-57.2172975612
 21
111.94834014
  0
LINE
 10
-57.2172975612
 20
111.94834014
 11
-57.7853495952
 21
112.603744931
  0
LINE
 10
-57.7853495952
 20
112.603744931
 11
-58.4410840451
 21
113.317649535
  0
LINE
 10
-62.6445436029
 20
105.270656675
 11
-62.6697856498
 21
105.314994026
  0
LINE
 10
-62.6697856498
 20
105.314994026
 11
-62.7420741239
 21
105.449903436
  0
LINE
 10
-62.7420741239
 20
105.449903436
 11
-62.8561624239
 21
105.678062271
  0
LINE
 10
-62.8561624239
 20
105.678062271
 11
-63.0066907873
 21
106.001919398
  0
LINE
 10
-63.0066907873
 20
106.001919398
 11
-63.1881951399
 21
106.423690948
  0
LINE
 10
-63.1881951399
 20
106.423690948
 11
-63.395116094
 21
106.9453564
  0
LINE
 10
-63.395116094
 20
106.9453564
 11
-63.6218080832
 21
107.56865499
  0
LINE
 10
-63.6218080832
 20
107.56865499
 11
-63.862548624
 21
108.295082453
  0
LINE
 10
-63.862548624
 20
108.295082453
 11
-64.111547691
 21
109.125888097
  0
LINE
 10
-64.111547691
 20
109.125888097
 11
-64.3629571953
 21
110.062072221
  0
LINE
 10
-58.4410840451
 20
113.317649535
 11
-58.4410840444
 21
113.317649533
  0
LINE
 10
-64.3629571953
 20
110.062072221
 11
-64.3629571945
 21
110.062072219
  0
LINE
 10
-58.4410840444
 20
113.317649533
 11
-64.3629571945
 21
110.062072219
  0
LINE
 10
-62.6445436029
 20
105.270656675
 11
-68.5789885948
 21
101.504543363
  0
LINE
 10
-68.5789885948
 20
101.504543363
 11
-68.6083586882
 21
101.546260976
  0
LINE
 10
-68.6083586882
 20
101.546260976
 11
-68.6996494369
 21
101.669111176
  0
LINE
 10
-68.6996494369
 20
101.669111176
 11
-68.8575172877
 21
101.869486663
  0
LINE
 10
-68.8575172877
 20
101.869486663
 11
-69.0864601175
 21
102.143580457
  0
LINE
 10
-69.0864601175
 20
102.143580457
 11
-69.3908096313
 21
102.487392097
  0
LINE
 10
-69.3908096313
 20
102.487392097
 11
-69.7747239873
 21
102.89673412
  0
LINE
 10
-69.7747239873
 20
102.89673412
 11
-70.2421806588
 21
103.367238797
  0
LINE
 10
-70.2421806588
 20
103.367238797
 11
-70.7969695418
 21
103.894365121
  0
LINE
 10
-70.7969695418
 20
103.894365121
 11
-71.4426863176
 21
104.473406052
  0
LINE
 10
-71.4426863176
 20
104.473406052
 11
-72.1827260779
 21
105.099495985
  0
LINE
 10
-75.3444844661
 20
96.5891228894
 11
-75.3750844154
 21
96.6299469594
  0
LINE
 10
-75.3750844154
 20
96.6299469594
 11
-75.463711506
 21
96.7547324205
  0
LINE
 10
-75.463711506
 20
96.7547324205
 11
-75.6054960702
 21
96.9667930995
  0
LINE
 10
-75.6054960702
 20
96.9667930995
 11
-75.7954275334
 21
97.2692303099
  0
LINE
 10
-75.7954275334
 20
97.2692303099
 11
-76.0283626622
 21
97.664927538
  0
LINE
 10
-76.0283626622
 20
97.664927538
 11
-76.2990340007
 21
98.1565454297
  0
LINE
 10
-76.2990340007
 20
98.1565454297
 11
-76.6020584837
 21
98.7465170842
  0
LINE
 10
-76.6020584837
 20
98.7465170842
 11
-76.9319462163
 21
99.4370436589
  0
LINE
 10
-76.9319462163
 20
99.4370436589
 11
-77.283109409
 21
100.230090294
  0
LINE
 10
-77.283109409
 20
100.230090294
 11
-77.6498714577
 21
101.12738236
  0
LINE
 10
-72.1827260779
 20
105.099495985
 11
-72.1827260771
 21
105.099495984
  0
LINE
 10
-77.6498714577
 20
101.12738236
 11
-77.6498714567
 21
101.127382359
  0
LINE
 10
-72.1827260771
 20
105.099495984
 11
-77.6498714567
 21
101.127382359
  0
LINE
 10
-75.3444844661
 20
96.5891228894
 11
-80.7601154273
 21
92.1089233254
  0
LINE
 10
-80.7601154273
 20
92.1089233254
 11
-80.794482532
 21
92.1466309335
  0
LINE
 10
-80.794482532
 20
92.1466309335
 11
-80.9004506388
 21
92.2570706583
  0
LINE
 10
-80.9004506388
 20
92.2570706583
 11
-81.0821873622
 21
92.436080037
  0
LINE
 10
-81.0821873622
 20
92.436080037
 11
-81.3436779708
 21
92.6793183738
  0
LINE
 10
-81.3436779708
 20
92.6793183738
 11
-81.6887186224
 21
92.9822738479
  0
LINE
 10
-81.6887186224
 20
92.9822738479
 11
-82.1209098585
 21
93.3402708596
  0
LINE
 10
-82.1209098585
 20
93.3402708596
 11
-82.643650367
 21
93.7484776101
  0
LINE
 10
-82.643650367
 20
93.7484776101
 11
-83.2601310207
 21
94.2019139013
  0
LINE
 10
-83.2601310207
 20
94.2019139013
 11
-83.9733291991
 21
94.6954591495
  0
LINE
 10
-83.9733291991
 20
94.6954591495
 11
-84.7860034007
 21
95.2238606008
  0
LINE
 10
-86.8561978006
 20
86.3843209363
 11
-86.8916730729
 21
86.4209879057
  0
LINE
 10
-86.8916730729
 20
86.4209879057
 11
-86.9952410778
 21
86.5336814763
  0
LINE
 10
-86.9952410778
 20
86.5336814763
 11
-87.162485879
 21
86.7262996757
  0
LINE
 10
-87.162485879
 20
86.7262996757
 11
-87.3888251094
 21
87.0025473539
  0
LINE
 10
-87.3888251094
 20
87.0025473539
 11
-87.6695174882
 21
87.3659298782
  0
LINE
 10
-87.6695174882
 20
87.3659298782
 11
-87.9996705624
 21
87.8197471019
  0
LINE
 10
-87.9996705624
 20
87.8197471019
 11
-88.374248662
 21
88.3670876154
  0
LINE
 10
-88.374248662
 20
88.3670876154
 11
-88.7880810597
 21
89.0108232856
  0
LINE
 10
-88.7880810597
 20
89.0108232856
 11
-89.235870325
 21
89.7536040928
  0
LINE
 10
-89.235870325
 20
89.7536040928
 11
-89.7122008614
 21
90.5978532692
  0
LINE
 10
-84.7860034007
 20
95.2238606008
 11
-84.7860033997
 21
95.2238605997
  0
LINE
 10
-89.7122008614
 20
90.5978532692
 11
-89.7122008603
 21
90.5978532681
  0
LINE
 10
-84.7860033997
 20
95.2238605997
 11
-89.7122008603
 21
90.5978532681
  0
LINE
 10
-86.8561978006
 20
86.3843209363
 11
-91.6676069958
 21
81.2606905439
  0
LINE
 10
-91.6676069958
 20
81.2606905439
 11
-91.7064291221
 21
81.2937934758
  0
LINE
 10
-91.7064291221
 20
81.2937934758
 11
-91.8254034065
 21
81.390081025
  0
LINE
 10
-91.8254034065
 20
81.390081025
 11
-92.0281429058
 21
81.54490121
  0
LINE
 10
-92.0281429058
 20
81.54490121
 11
-92.3180574302
 21
81.7534480764
  0
LINE
 10
-92.3180574302
 20
81.7534480764
 11
-92.6983477224
 21
82.0107695955
  0
LINE
 10
-92.6983477224
 20
82.0107695955
 11
-93.1719999246
 21
82.3117757687
  0
LINE
 10
-93.1719999246
 20
82.3117757687
 11
-93.74178034
 21
82.6512469288
  0
LINE
 10
-93.74178034
 20
82.6512469288
 11
-94.4102304962
 21
83.0238422256
  0
LINE
 10
-94.4102304962
 20
83.0238422256
 11
-95.1796625158
 21
83.4241082883
  0
LINE
 10
-95.1796625158
 20
83.4241082883
 11
-96.0521548011
 21
83.8464880508
  0
LINE
 10
-96.9981370105
 20
74.8171866385
 11
-97.0379281395
 21
74.8491182473
  0
LINE
 10
-97.0379281395
 20
74.8491182473
 11
-97.1548037293
 21
74.9479426825
  0
LINE
 10
-97.1548037293
 20
74.9479426825
 11
-97.3448712171
 21
75.1180806981
  0
LINE
 10
-97.3448712171
 20
75.1180806981
 11
-97.6040487098
 21
75.3637822532
  0
LINE
 10
-97.6040487098
 20
75.3637822532
 11
-97.9280716522
 21
75.6891193143
  0
LINE
 10
-97.9280716522
 20
75.6891193143
 11
-98.3124997509
 21
76.0979789014
  0
LINE
 10
-98.3124997509
 20
76.0979789014
 11
-98.7527241467
 21
76.5940563869
  0
LINE
 10
-98.7527241467
 20
76.5940563869
 11
-99.2439748255
 21
77.1808490566
  0
LINE
 10
-99.2439748255
 20
77.1808490566
 11
-99.781328259
 21
77.8616499387
  0
LINE
 10
-99.781328259
 20
77.8616499387
 11
-100.359715266
 21
78.6395419118
  0
LINE
 10
-96.0521548011
 20
83.8464880508
 11
-96.0521548
 21
83.8464880498
  0
LINE
 10
-100.359715266
 20
78.6395419118
 11
-100.359715265
 21
78.6395419108
  0
LINE
 10
-96.0521548
 20
83.8464880498
 11
-100.359715265
 21
78.6395419108
  0
LINE
 10
-96.9981370105
 20
74.8171866385
 11
-101.129445642
 21
69.1309281297
  0
LINE
 10
-101.129445642
 20
69.1309281297
 11
-101.172110542
 21
69.1589043325
  0
LINE
 10
-101.172110542
 20
69.1589043325
 11
-101.302214709
 21
69.2395211938
  0
LINE
 10
-101.302214709
 20
69.2395211938
 11
-101.522759661
 21
69.3677105784
  0
LINE
 10
-101.522759661
 20
69.3677105784
 11
-101.836525976
 21
69.5382770657
  0
LINE
 10
-101.836525976
 20
69.5382770657
 11
-102.246068503
 21
69.7459065157
  0
LINE
 10
-102.246068503
 20
69.7459065157
 11
-102.753711894
 21
69.9851748032
  0
LINE
 10
-102.753711894
 20
69.9851748032
 11
-103.361546438
 21
70.2505567099
  0
LINE
 10
-103.361546438
 20
70.2505567099
 11
-104.071424239
 21
70.536434962
  0
LINE
 10
-104.071424239
 20
70.536434962
 11
-104.884955697
 21
70.8371094042
  0
LINE
 10
-104.884955697
 20
70.8371094042
 11
-105.803506342
 21
71.1468062968
  0
LINE
 10
-105.610357656
 20
62.0701406138
 11
-105.653837112
 21
62.0968332815
  0
LINE
 10
-105.653837112
 20
62.0968332815
 11
-105.782177089
 21
62.1802300609
  0
LINE
 10
-105.782177089
 20
62.1802300609
 11
-105.992069785
 21
62.3252047146
  0
LINE
 10
-105.992069785
 20
62.3252047146
 11
-106.279998156
 21
62.5364852863
  0
LINE
 10
-106.279998156
 20
62.5364852863
 11
-106.642241627
 21
62.8186461244
  0
LINE
 10
-106.642241627
 20
62.8186461244
 11
-107.074882089
 21
63.1761001148
  0
LINE
 10
-107.074882089
 20
63.1761001148
 11
-107.57381018
 21
63.6130911342
  0
LINE
 10
-107.57381018
 20
63.6130911342
 11
-108.134731823
 21
64.1336867323
  0
LINE
 10
-108.134731823
 20
64.1336867323
 11
-108.75317504
 21
64.7417710527
  0
LINE
 10
-108.75317504
 20
64.7417710527
 11
-109.424497009
 21
65.4410380014
  0
LINE
 10
-105.803506342
 20
71.1468062968
 11
-105.80350634
 21
71.1468062959
  0
LINE
 10
-109.424497009
 20
65.4410380014
 11
-109.424497008
 21
65.4410380006
  0
LINE
 10
-105.80350634
 20
71.1468062959
 11
-109.424497008
 21
65.4410380006
  0
LINE
 10
-105.610357656
 20
62.0701406138
 11
-108.996412519
 21
55.9109296821
  0
LINE
 10
-108.996412519
 20
55.9109296821
 11
-109.042247342
 21
55.9333379543
  0
LINE
 10
-109.042247342
 20
55.9333379543
 11
-109.18142957
 21
55.9970127517
  0
LINE
 10
-109.18142957
 20
55.9970127517
 11
-109.416301849
 21
56.0965497127
  0
LINE
 10
-109.416301849
 20
56.0965497127
 11
-109.748971672
 21
56.2264458854
  0
LINE
 10
-109.748971672
 20
56.2264458854
 11
-110.181307705
 21
56.3811088259
  0
LINE
 10
-110.181307705
 20
56.3811088259
 11
-110.714936444
 21
56.554865824
  0
LINE
 10
-110.714936444
 20
56.554865824
 11
-111.351239204
 21
56.7419732461
  0
LINE
 10
-111.351239204
 20
56.7419732461
 11
-112.091349452
 21
56.9366259826
  0
LINE
 10
-112.091349452
 20
56.9366259826
 11
-112.936150472
 21
57.1329669888
  0
LINE
 10
-112.936150472
 20
57.1329669888
 11
-113.886273383
 21
57.3250969064
  0
LINE
 10
-112.557039872
 20
48.3442113927
 11
-112.603521958
 21
48.3652441599
  0
LINE
 10
-112.603521958
 20
48.3652441599
 11
-112.741302324
 21
48.4318980665
  0
LINE
 10
-112.741302324
 20
48.4318980665
 11
-112.967710096
 21
48.5494230214
  0
LINE
 10
-112.967710096
 20
48.5494230214
 11
-113.279848543
 21
48.722950589
  0
LINE
 10
-113.279848543
 20
48.722950589
 11
-113.674599746
 21
48.9574853591
  0
LINE
 10
-113.674599746
 20
48.9574853591
 11
-114.148629574
 21
49.2578964898
  0
LINE
 10
-114.148629574
 20
49.2578964898
 11
-114.698392964
 21
49.6289094337
  0
LINE
 10
-114.698392964
 20
49.6289094337
 11
-115.320139503
 21
50.0750978567
  0
LINE
 10
-115.320139503
 20
50.0750978567
 11
-116.009919284
 21
50.6008757624
  0
LINE
 10
-116.009919284
 20
50.6008757624
 11
-116.763589067
 21
51.2104898292
  0
LINE
 10
-113.886273383
 20
57.3250969064
 11
-113.886273382
 21
57.3250969057
  0
LINE
 10
-116.763589067
 20
51.2104898292
 11
-116.763589066
 21
51.2104898286
  0
LINE
 10
-113.886273382
 20
57.3250969057
 11
-116.763589066
 21
51.2104898286
  0
LINE
 10
-112.557039872
 20
48.3442113927
 11
-115.14444086
 21
41.8091824738
  0
LINE
 10
-115.14444086
 20
41.8091824738
 11
-115.192722762
 21
41.8256694236
  0
LINE
 10
-115.192722762
 20
41.8256694236
 11
-115.338788065
 21
41.8713979675
  0
LINE
 10
-115.338788065
 20
41.8713979675
 11
-115.584283595
 21
41.9407127475
  0
LINE
 10
-115.584283595
 20
41.9407127475
 11
-115.930610525
 21
42.0278900655
  0
LINE
 10
-115.930610525
 20
42.0278900655
 11
-116.378921866
 21
42.1271473695
  0
LINE
 10
-116.378921866
 20
42.1271473695
 11
-116.930120309
 21
42.2326528265
  0
LINE
 10
-116.930120309
 20
42.2326528265
 11
-117.58485641
 21
42.3385349682
  0
LINE
 10
-117.58485641
 20
42.3385349682
 11
-118.343527124
 21
42.4388923992
  0
LINE
 10
-118.343527124
 20
42.4388923992
 11
-119.206274689
 21
42.5278035544
  0
LINE
 10
-119.206274689
 20
42.5278035544
 11
-120.172985861
 21
42.5993364934
  0
LINE
 10
-117.728630332
 20
33.8558650785
 11
-117.777381997
 21
33.870906246
  0
LINE
 10
-117.777381997
 20
33.870906246
 11
-117.922429873
 21
33.9197661079
  0
LINE
 10
-117.922429873
 20
33.9197661079
 11
-118.161782135
 21
34.0079879252
  0
LINE
 10
-118.161782135
 20
34.0079879252
 11
-118.493208048
 21
34.1410258551
  0
LINE
 10
-118.493208048
 20
34.1410258551
 11
-118.914241521
 21
34.3242358038
  0
LINE
 10
-118.914241521
 20
34.3242358038
 11
-119.422184981
 21
34.562866412
  0
LINE
 10
-119.422184981
 20
34.562866412
 11
-120.014113575
 21
34.8620501845
  0
LINE
 10
-120.014113575
 20
34.8620501845
 11
-120.686879694
 21
35.2267947744
  0
LINE
 10
-120.686879694
 20
35.2267947744
 11
-121.437117801
 21
35.6619744338
  0
LINE
 10
-121.437117801
 20
35.6619744338
 11
-122.261249574
 21
36.1723216407
  0
LINE
 10
-120.172985861
 20
42.5993364934
 11
-120.172985859
 21
42.5993364929
  0
LINE
 10
-122.261249574
 20
36.1723216407
 11
-122.261249573
 21
36.1723216403
  0
LINE
 10
-120.172985859
 20
42.5993364929
 11
-122.261249573
 21
36.1723216403
  0
LINE
 10
-117.728630332
 20
33.8558650785
 11
-119.476572584
 21
27.0480794823
  0
LINE
 10
-119.476572584
 20
27.0480794823
 11
-119.526540131
 21
27.0583851007
  0
LINE
 10
-119.526540131
 20
27.0583851007
 11
-119.677184972
 21
27.0854462246
  0
LINE
 10
-119.677184972
 20
27.0854462246
 11
-119.929432143
 21
27.1234456882
  0
LINE
 10
-119.929432143
 20
27.1234456882
 11
-120.283954396
 21
27.1665293131
  0
LINE
 10
-120.283954396
 20
27.1665293131
 11
-120.741170907
 21
27.2088156336
  0
LINE
 10
-120.741170907
 20
27.2088156336
 11
-121.301246325
 21
27.2444056653
  0
LINE
 10
-121.301246325
 20
27.2444056653
 11
-121.964090188
 21
27.267392702
  0
LINE
 10
-121.964090188
 20
27.267392702
 11
-122.729356679
 21
27.2718721309
  0
LINE
 10
-122.729356679
 20
27.2718721309
 11
-123.596444743
 21
27.251951253
  0
LINE
 10
-123.596444743
 20
27.251951253
 11
-124.564498564
 21
27.2017590963
  0
LINE
 10
-121.043569963
 20
18.8335915476
 11
-121.093822365
 21
18.8424039071
  0
LINE
 10
-121.093822365
 20
18.8424039071
 11
-121.24385026
 21
18.872699175
  0
LINE
 10
-121.24385026
 20
18.872699175
 11
-121.492372283
 21
18.930226544
  0
LINE
 10
-121.492372283
 20
18.930226544
 11
-121.837858878
 21
19.0206767487
  0
LINE
 10
-121.837858878
 20
19.0206767487
 11
-122.278534672
 21
19.1496725456
  0
LINE
 10
-122.278534672
 20
19.1496725456
 11
-122.812381191
 21
19.322759284
  0
LINE
 10
-122.812381191
 20
19.322759284
 11
-123.437139921
 21
19.5453955783
  0
LINE
 10
-123.437139921
 20
19.5453955783
 11
-124.150315697
 21
19.8229440951
  0
LINE
 10
-124.150315697
 20
19.8229440951
 11
-124.949180427
 21
20.160662465
  0
LINE
 10
-124.949180427
 20
20.160662465
 11
-125.830777141
 21
20.5636943316
  0
LINE
 10
-124.564498564
 20
27.2017590963
 11
-124.564498562
 21
27.201759096
  0
LINE
 10
-125.830777141
 20
20.5636943316
 11
-125.830777139
 21
20.5636943314
  0
LINE
 10
-124.564498562
 20
27.201759096
 11
-125.830777139
 21
20.5636943314
  0
LINE
 10
-121.043569963
 20
18.8335915476
 11
-121.924487386
 21
11.8604121196
  0
LINE
 10
-121.924487386
 20
11.8604121196
 11
-121.975352561
 21
11.8643738808
  0
LINE
 10
-121.975352561
 20
11.8643738808
 11
-122.128201181
 21
11.8723408146
  0
LINE
 10
-122.128201181
 20
11.8723408146
 11
-122.383221902
 21
11.8784256876
  0
LINE
 10
-122.383221902
 20
11.8784256876
 11
-122.740348452
 21
11.8767361648
  0
LINE
 10
-122.740348452
 20
11.8767361648
 11
-123.199259555
 21
11.8613846214
  0
LINE
 10
-123.199259555
 20
11.8613846214
 11
-123.759379226
 21
11.8264979518
  0
LINE
 10
-123.759379226
 20
11.8264979518
 11
-124.419877406
 21
11.7662273642
  0
LINE
 10
-124.419877406
 20
11.7662273642
 11
-125.179670963
 21
11.6747581476
  0
LINE
 10
-125.179670963
 20
11.6747581476
 11
-126.037425032
 21
11.5463194009
  0
LINE
 10
-126.037425032
 20
11.5463194009
 11
-126.991554713
 21
11.3751937088
  0
LINE
 10
-122.449580188
 20
3.51430102726
 11
-122.500540817
 21
3.51674560262
  0
LINE
 10
-122.500540817
 20
3.51674560262
 11
-122.653182701
 21
3.52799850214
  0
LINE
 10
-122.653182701
 20
3.52799850214
 11
-122.906955145
 21
3.55392418189
  0
LINE
 10
-122.906955145
 20
3.55392418189
 11
-123.261053891
 21
3.60036020756
  0
LINE
 10
-123.261053891
 20
3.60036020756
 11
-123.714422285
 21
3.67310751195
  0
LINE
 10
-123.714422285
 20
3.67310751195
 11
-124.265752785
 21
3.77792069921
  0
LINE
 10
-124.265752785
 20
3.77792069921
 11
-124.913488833
 21
3.92049840801
  0
LINE
 10
-124.913488833
 20
3.92049840801
 11
-125.655827058
 21
4.10647374576
  0
LINE
 10
-125.655827058
 20
4.10647374576
 11
-126.490719836
 21
4.34140480567
  0
LINE
 10
-126.490719836
 20
4.34140480567
 11
-127.415878184
 21
4.6307652788
  0
LINE
 10
-126.991554713
 20
11.3751937088
 11
-126.991554712
 21
11.3751937086
  0
LINE
 10
-127.415878184
 20
4.6307652788
 11
-127.415878182
 21
4.63076527875
  0
LINE
 10
-126.991554712
 20
11.3751937086
 11
-127.415878182
 21
4.63076527875
  0
LINE
 10
-122.449580188
 20
3.51430102726
 11
-122.449580188
 21
-3.51430102726
  0
LINE
 10
-122.449580188
 20
-3.51430102726
 11
-122.500540817
 21
-3.51674560262
  0
LINE
 10
-122.500540817
 20
-3.51674560262
 11
-122.653182701
 21
-3.52799850214
  0
LINE
 10
-122.653182701
 20
-3.52799850214
 11
-122.906955145
 21
-3.55392418189
  0
LINE
 10
-122.906955145
 20
-3.55392418189
 11
-123.261053891
 21
-3.60036020756
  0
LINE
 10
-123.261053891
 20
-3.60036020756
 11
-123.714422285
 21
-3.67310751195
  0
LINE
 10
-123.714422285
 20
-3.67310751195
 11
-124.265752785
 21
-3.77792069921
  0
LINE
 10
-124.265752785
 20
-3.77792069921
 11
-124.913488833
 21
-3.92049840801
  0
LINE
 10
-124.913488833
 20
-3.92049840801
 11
-125.655827058
 21
-4.10647374576
  0
LINE
 10
-125.655827058
 20
-4.10647374576
 11
-126.490719836
 21
-4.34140480567
  0
LINE
 10
-126.490719836
 20
-4.34140480567
 11
-127.415878184
 21
-4.6307652788
  0
LINE
 10
-121.924487386
 20
-11.8604121196
 11
-121.975352561
 21
-11.8643738808
  0
LINE
 10
-121.975352561
 20
-11.8643738808
 11
-122.128201181
 21
-11.8723408146
  0
LINE
 10
-122.128201181
 20
-11.8723408146
 11
-122.383221902
 21
-11.8784256876
  0
LINE
 10
-122.383221902
 20
-11.8784256876
 11
-122.740348452
 21
-11.8767361648
  0
LINE
 10
-122.740348452
 20
-11.8767361648
 11
-123.199259555
 21
-11.8613846214
  0
LINE
 10
-123.199259555
 20
-11.8613846214
 11
-123.759379226
 21
-11.8264979518
  0
LINE
 10
-123.759379226
 20
-11.8264979518
 11
-124.419877406
 21
-11.7662273642
  0
LINE
 10
-124.419877406
 20
-11.7662273642
 11
-125.179670963
 21
-11.6747581476
  0
LINE
 10
-125.179670963
 20
-11.6747581476
 11
-126.037425032
 21
-11.5463194009
  0
LINE
 10
-126.037425032
 20
-11.5463194009
 11
-126.991554713
 21
-11.3751937088
  0
LINE
 10
-127.415878184
 20
-4.6307652788
 11
-127.415878182
 21
-4.63076527875
  0
LINE
 10
-126.991554713
 20
-11.3751937088
 11
-126.991554712
 21
-11.3751937086
  0
LINE
 10
-127.415878182
 20
-4.63076527875
 11
-126.991554712
 21
-11.3751937086
  0
LINE
 10
-121.924487386
 20
-11.8604121196
 11
-121.043569963
 21
-18.8335915476
  0
LINE
 10
-121.043569963
 20
-18.8335915476
 11
-121.093822365
 21
-18.8424039071
  0
LINE
 10
-121.093822365
 20
-18.8424039071
 11
-121.24385026
 21
-18.872699175
  0
LINE
 10
-121.24385026
 20
-18.872699175
 11
-121.492372283
 21
-18.930226544
  0
LINE
 10
-121.492372283
 20
-18.930226544
 11
-121.837858878
 21
-19.0206767487
  0
LINE
 10
-121.837858878
 20
-19.0206767487
 11
-122.278534672
 21
-19.1496725456
  0
LINE
 10
-122.278534672
 20
-19.1496725456
 11
-122.812381191
 21
-19.322759284
  0
LINE
 10
-122.812381191
 20
-19.322759284
 11
-123.437139921
 21
-19.5453955783
  0
LINE
 10
-123.437139921
 20
-19.5453955783
 11
-124.150315697
 21
-19.8229440951
  0
LINE
 10
-124.150315697
 20
-19.8229440951
 11
-124.949180427
 21
-20.160662465
  0
LINE
 10
-124.949180427
 20
-20.160662465
 11
-125.830777141
 21
-20.5636943316
  0
LINE
 10
-119.476572584
 20
-27.0480794823
 11
-119.526540131
 21
-27.0583851007
  0
LINE
 10
-119.526540131
 20
-27.0583851007
 11
-119.677184972
 21
-27.0854462246
  0
LINE
 10
-119.677184972
 20
-27.0854462246
 11
-119.929432143
 21
-27.1234456882
  0
LINE
 10
-119.929432143
 20
-27.1234456882
 11
-120.283954396
 21
-27.1665293131
  0
LINE
 10
-120.283954396
 20
-27.1665293131
 11
-120.741170907
 21
-27.2088156336
  0
LINE
 10
-120.741170907
 20
-27.2088156336
 11
-121.301246325
 21
-27.2444056653
  0
LINE
 10
-121.301246325
 20
-27.2444056653
 11
-121.964090188
 21
-27.267392702
  0
LINE
 10
-121.964090188
 20
-27.267392702
 11
-122.729356679
 21
-27.2718721309
  0
LINE
 10
-122.729356679
 20
-27.2718721309
 11
-123.596444743
 21
-27.251951253
  0
LINE
 10
-123.596444743
 20
-27.251951253
 11
-124.564498564
 21
-27.2017590963
  0
LINE
 10
-125.830777141
 20
-20.5636943316
 11
-125.830777139
 21
-20.5636943314
  0
LINE
 10
-124.564498564
 20
-27.2017590963
 11
-124.564498562
 21
-27.201759096
  0
LINE
 10
-125.830777139
 20
-20.5636943314
 11
-124.564498562
 21
-27.201759096
  0
LINE
 10
-119.476572584
 20
-27.0480794823
 11
-117.728630332
 21
-33.8558650785
  0
LINE
 10
-117.728630332
 20
-33.8558650785
 11
-117.777381997
 21
-33.870906246
  0
LINE
 10
-117.777381997
 20
-33.870906246
 11
-117.922429873
 21
-33.9197661079
  0
LINE
 10
-117.922429873
 20
-33.9197661079
 11
-118.161782135
 21
-34.0079879252
  0
LINE
 10
-118.161782135
 20
-34.0079879252
 11
-118.493208048
 21
-34.1410258551
  0
LINE
 10
-118.493208048
 20
-34.1410258551
 11
-118.914241521
 21
-34.3242358038
  0
LINE
 10
-118.914241521
 20
-34.3242358038
 11
-119.422184981
 21
-34.562866412
  0
LINE
 10
-119.422184981
 20
-34.562866412
 11
-120.014113575
 21
-34.8620501845
  0
LINE
 10
-120.014113575
 20
-34.8620501845
 11
-120.686879694
 21
-35.2267947744
  0
LINE
 10
-120.686879694
 20
-35.2267947744
 11
-121.437117801
 21
-35.6619744338
  0
LINE
 10
-121.437117801
 20
-35.6619744338
 11
-122.261249574
 21
-36.1723216407
  0
LINE
 10
-115.14444086
 20
-41.8091824738
 11
-115.192722762
 21
-41.8256694236
  0
LINE
 10
-115.192722762
 20
-41.8256694236
 11
-115.338788065
 21
-41.8713979675
  0
LINE
 10
-115.338788065
 20
-41.8713979675
 11
-115.584283595
 21
-41.9407127475
  0
LINE
 10
-115.584283595
 20
-41.9407127475
 11
-115.930610525
 21
-42.0278900655
  0
LINE
 10
-115.930610525
 20
-42.0278900655
 11
-116.378921866
 21
-42.1271473695
  0
LINE
 10
-116.378921866
 20
-42.1271473695
 11
-116.930120309
 21
-42.2326528265
  0
LINE
 10
-116.930120309
 20
-42.2326528265
 11
-117.58485641
 21
-42.3385349682
  0
LINE
 10
-117.58485641
 20
-42.3385349682
 11
-118.343527124
 21
-42.4388923992
  0
LINE
 10
-118.343527124
 20
-42.4388923992
 11
-119.206274689
 21
-42.5278035544
  0
LINE
 10
-119.206274689
 20
-42.5278035544
 11
-120.172985861
 21
-42.5993364934
  0
LINE
 10
-122.261249574
 20
-36.1723216407
 11
-122.261249573
 21
-36.1723216403
  0
LINE
 10
-120.172985861
 20
-42.5993364934
 11
-120.172985859
 21
-42.5993364929
  0
LINE
 10
-122.261249573
 20
-36.1723216403
 11
-120.172985859
 21
-42.5993364929
  0
LINE
 10
-115.14444086
 20
-41.8091824738
 11
-112.557039872
 21
-48.3442113927
  0
LINE
 10
-112.557039872
 20
-48.3442113927
 11
-112.603521958
 21
-48.3652441599
  0
LINE
 10
-112.603521958
 20
-48.3652441599
 11
-112.741302324
 21
-48.4318980665
  0
LINE
 10
-112.741302324
 20
-48.4318980665
 11
-112.967710096
 21
-48.5494230214
  0
LINE
 10
-112.967710096
 20
-48.5494230214
 11
-113.279848543
 21
-48.722950589
  0
LINE
 10
-113.279848543
 20
-48.722950589
 11
-113.674599746
 21
-48.9574853591
  0
LINE
 10
-113.674599746
 20
-48.9574853591
 11
-114.148629574
 21
-49.2578964898
  0
LINE
 10
-114.148629574
 20
-49.2578964898
 11
-114.698392964
 21
-49.6289094337
  0
LINE
 10
-114.698392964
 20
-49.6289094337
 11
-115.320139503
 21
-50.0750978567
  0
LINE
 10
-115.320139503
 20
-50.0750978567
 11
-116.009919284
 21
-50.6008757624
  0
LINE
 10
-116.009919284
 20
-50.6008757624
 11
-116.763589067
 21
-51.2104898292
  0
LINE
 10
-108.996412519
 20
-55.9109296821
 11
-109.042247342
 21
-55.9333379543
  0
LINE
 10
-109.042247342
 20
-55.9333379543
 11
-109.18142957
 21
-55.9970127517
  0
LINE
 10
-109.18142957
 20
-55.9970127517
 11
-109.416301849
 21
-56.0965497127
  0
LINE
 10
-109.416301849
 20
-56.0965497127
 11
-109.748971672
 21
-56.2264458854
  0
LINE
 10
-109.748971672
 20
-56.2264458854
 11
-110.181307705
 21
-56.3811088259
  0
LINE
 10
-110.181307705
 20
-56.3811088259
 11
-110.714936444
 21
-56.554865824
  0
LINE
 10
-110.714936444
 20
-56.554865824
 11
-111.351239204
 21
-56.7419732461
  0
LINE
 10
-111.351239204
 20
-56.7419732461
 11
-112.091349452
 21
-56.9366259826
  0
LINE
 10
-112.091349452
 20
-56.9366259826
 11
-112.936150472
 21
-57.1329669888
  0
LINE
 10
-112.936150472
 20
-57.1329669888
 11
-113.886273383
 21
-57.3250969064
  0
LINE
 10
-116.763589067
 20
-51.2104898292
 11
-116.763589066
 21
-51.2104898286
  0
LINE
 10
-113.886273383
 20
-57.3250969064
 11
-113.886273382
 21
-57.3250969057
  0
LINE
 10
-116.763589066
 20
-51.2104898286
 11
-113.886273382
 21
-57.3250969057
  0
LINE
 10
-108.996412519
 20
-55.9109296821
 11
-105.610357656
 21
-62.0701406138
  0
LINE
 10
-105.610357656
 20
-62.0701406138
 11
-105.653837112
 21
-62.0968332815
  0
LINE
 10
-105.653837112
 20
-62.0968332815
 11
-105.782177089
 21
-62.1802300609
  0
LINE
 10
-105.782177089
 20
-62.1802300609
 11
-105.992069785
 21
-62.3252047146
  0
LINE
 10
-105.992069785
 20
-62.3252047146
 11
-106.279998156
 21
-62.5364852863
  0
LINE
 10
-106.279998156
 20
-62.5364852863
 11
-106.642241627
 21
-62.8186461244
  0
LINE
 10
-106.642241627
 20
-62.8186461244
 11
-107.074882089
 21
-63.1761001148
  0
LINE
 10
-107.074882089
 20
-63.1761001148
 11
-107.57381018
 21
-63.6130911342
  0
LINE
 10
-107.57381018
 20
-63.6130911342
 11
-108.134731823
 21
-64.1336867323
  0
LINE
 10
-108.134731823
 20
-64.1336867323
 11
-108.75317504
 21
-64.7417710527
  0
LINE
 10
-108.75317504
 20
-64.7417710527
 11
-109.424497009
 21
-65.4410380014
  0
LINE
 10
-101.129445642
 20
-69.1309281297
 11
-101.172110542
 21
-69.1589043325
  0
LINE
 10
-101.172110542
 20
-69.1589043325
 11
-101.302214709
 21
-69.2395211938
  0
LINE
 10
-101.302214709
 20
-69.2395211938
 11
-101.522759661
 21
-69.3677105784
  0
LINE
 10
-101.522759661
 20
-69.3677105784
 11
-101.836525976
 21
-69.5382770657
  0
LINE
 10
-101.836525976
 20
-69.5382770657
 11
-102.246068503
 21
-69.7459065157
  0
LINE
 10
-102.246068503
 20
-69.7459065157
 11
-102.753711894
 21
-69.9851748032
  0
LINE
 10
-102.753711894
 20
-69.9851748032
 11
-103.361546438
 21
-70.2505567099
  0
LINE
 10
-103.361546438
 20
-70.2505567099
 11
-104.071424239
 21
-70.536434962
  0
LINE
 10
-104.071424239
 20
-70.536434962
 11
-104.884955697
 21
-70.8371094042
  0
LINE
 10
-104.884955697
 20
-70.8371094042
 11
-105.803506342
 21
-71.1468062968
  0
LINE
 10
-109.424497009
 20
-65.4410380014
 11
-109.424497008
 21
-65.4410380006
  0
LINE
 10
-105.803506342
 20
-71.1468062968
 11
-105.80350634
 21
-71.1468062959
  0
LINE
 10
-109.424497008
 20
-65.4410380006
 11
-105.80350634
 21
-71.1468062959
  0
LINE
 10
-101.129445642
 20
-69.1309281297
 11
-96.9981370105
 21
-74.8171866385
  0
LINE
 10
-96.9981370105
 20
-74.8171866385
 11
-97.0379281395
 21
-74.8491182473
  0
LINE
 10
-97.0379281395
 20
-74.8491182473
 11
-97.1548037293
 21
-74.9479426825
  0
LINE
 10
-97.1548037293
 20
-74.9479426825
 11
-97.3448712171
 21
-75.1180806981
  0
LINE
 10
-97.3448712171
 20
-75.1180806981
 11
-97.6040487098
 21
-75.3637822532
  0
LINE
 10
-97.6040487098
 20
-75.3637822532
 11
-97.9280716522
 21
-75.6891193143
  0
LINE
 10
-97.9280716522
 20
-75.6891193143
 11
-98.3124997509
 21
-76.0979789014
  0
LINE
 10
-98.3124997509
 20
-76.0979789014
 11
-98.7527241467
 21
-76.5940563869
  0
LINE
 10
-98.7527241467
 20
-76.5940563869
 11
-99.2439748255
 21
-77.1808490566
  0
LINE
 10
-99.2439748255
 20
-77.1808490566
 11
-99.781328259
 21
-77.8616499387
  0
LINE
 10
-99.781328259
 20
-77.8616499387
 11
-100.359715266
 21
-78.6395419118
  0
LINE
 10
-91.6676069958
 20
-81.2606905439
 11
-91.7064291221
 21
-81.2937934758
  0
LINE
 10
-91.7064291221
 20
-81.2937934758
 11
-91.8254034065
 21
-81.390081025
  0
LINE
 10
-91.8254034065
 20
-81.390081025
 11
-92.0281429058
 21
-81.54490121
  0
LINE
 10
-92.0281429058
 20
-81.54490121
 11
-92.3180574302
 21
-81.7534480764
  0
LINE
 10
-92.3180574302
 20
-81.7534480764
 11
-92.6983477224
 21
-82.0107695955
  0
LINE
 10
-92.6983477224
 20
-82.0107695955
 11
-93.1719999246
 21
-82.3117757687
  0
LINE
 10
-93.1719999246
 20
-82.3117757687
 11
-93.74178034
 21
-82.6512469288
  0
LINE
 10
-93.74178034
 20
-82.6512469288
 11
-94.4102304962
 21
-83.0238422256
  0
LINE
 10
-94.4102304962
 20
-83.0238422256
 11
-95.1796625158
 21
-83.4241082883
  0
LINE
 10
-95.1796625158
 20
-83.4241082883
 11
-96.0521548011
 21
-83.8464880508
  0
LINE
 10
-100.359715266
 20
-78.6395419118
 11
-100.359715265
 21
-78.6395419108
  0
LINE
 10
-96.0521548011
 20
-83.8464880508
 11
-96.0521548
 21
-83.8464880498
  0
LINE
 10
-100.359715265
 20
-78.6395419108
 11
-96.0521548
 21
-83.8464880498
  0
LINE
 10
-91.6676069958
 20
-81.2606905439
 11
-86.8561978006
 21
-86.3843209363
  0
LINE
 10
-86.8561978006
 20
-86.3843209363
 11
-86.8916730729
 21
-86.4209879057
  0
LINE
 10
-86.8916730729
 20
-86.4209879057
 11
-86.9952410778
 21
-86.5336814763
  0
LINE
 10
-86.9952410778
 20
-86.5336814763
 11
-87.162485879
 21
-86.7262996757
  0
LINE
 10
-87.162485879
 20
-86.7262996757
 11
-87.3888251094
 21
-87.0025473539
  0
LINE
 10
-87.3888251094
 20
-87.0025473539
 11
-87.6695174882
 21
-87.3659298782
  0
LINE
 10
-87.6695174882
 20
-87.3659298782
 11
-87.9996705624
 21
-87.8197471019
  0
LINE
 10
-87.9996705624
 20
-87.8197471019
 11
-88.374248662
 21
-88.3670876154
  0
LINE
 10
-88.374248662
 20
-88.3670876154
 11
-88.7880810597
 21
-89.0108232856
  0
LINE
 10
-88.7880810597
 20
-89.0108232856
 11
-89.235870325
 21
-89.7536040928
  0
LINE
 10
-89.235870325
 20
-89.7536040928
 11
-89.7122008614
 21
-90.5978532692
  0
LINE
 10
-80.7601154273
 20
-92.1089233254
 11
-80.794482532
 21
-92.1466309335
  0
LINE
 10
-80.794482532
 20
-92.1466309335
 11
-80.9004506388
 21
-92.2570706583
  0
LINE
 10
-80.9004506388
 20
-92.2570706583
 11
-81.0821873622
 21
-92.436080037
  0
LINE
 10
-81.0821873622
 20
-92.436080037
 11
-81.3436779708
 21
-92.6793183738
  0
LINE
 10
-81.3436779708
 20
-92.6793183738
 11
-81.6887186224
 21
-92.9822738479
  0
LINE
 10
-81.6887186224
 20
-92.9822738479
 11
-82.1209098585
 21
-93.3402708596
  0
LINE
 10
-82.1209098585
 20
-93.3402708596
 11
-82.643650367
 21
-93.7484776101
  0
LINE
 10
-82.643650367
 20
-93.7484776101
 11
-83.2601310207
 21
-94.2019139013
  0
LINE
 10
-83.2601310207
 20
-94.2019139013
 11
-83.9733291991
 21
-94.6954591495
  0
LINE
 10
-83.9733291991
 20
-94.6954591495
 11
-84.7860034007
 21
-95.2238606008
  0
LINE
 10
-89.7122008614
 20
-90.5978532692
 11
-89.7122008603
 21
-90.5978532681
  0
LINE
 10
-84.7860034007
 20
-95.2238606008
 11
-84.7860033997
 21
-95.2238605997
  0
LINE
 10
-89.7122008603
 20
-90.5978532681
 11
-84.7860033997
 21
-95.2238605997
  0
LINE
 10
-80.7601154273
 20
-92.1089233254
 11
-75.3444844661
 21
-96.5891228894
  0
LINE
 10
-75.3444844661
 20
-96.5891228894
 11
-75.3750844154
 21
-96.6299469594
  0
LINE
 10
-75.3750844154
 20
-96.6299469594
 11
-75.463711506
 21
-96.7547324205
  0
LINE
 10
-75.463711506
 20
-96.7547324205
 11
-75.6054960702
 21
-96.9667930995
  0
LINE
 10
-75.6054960702
 20
-96.9667930995
 11
-75.7954275334
 21
-97.2692303099
  0
LINE
 10
-75.7954275334
 20
-97.2692303099
 11
-76.0283626622
 21
-97.664927538
  0
LINE
 10
-76.0283626622
 20
-97.664927538
 11
-76.2990340007
 21
-98.1565454297
  0
LINE
 10
-76.2990340007
 20
-98.1565454297
 11
-76.6020584837
 21
-98.7465170842
  0
LINE
 10
-76.6020584837
 20
-98.7465170842
 11
-76.9319462163
 21
-99.4370436589
  0
LINE
 10
-76.9319462163
 20
-99.4370436589
 11
-77.283109409
 21
-100.230090294
  0
LINE
 10
-77.283109409
 20
-100.230090294
 11
-77.6498714577
 21
-101.12738236
  0
LINE
 10
-68.5789885948
 20
-101.504543363
 11
-68.6083586882
 21
-101.546260976
  0
LINE
 10
-68.6083586882
 20
-101.546260976
 11
-68.6996494369
 21
-101.669111176
  0
LINE
 10
-68.6996494369
 20
-101.669111176
 11
-68.8575172877
 21
-101.869486663
  0
LINE
 10
-68.8575172877
 20
-101.869486663
 11
-69.0864601175
 21
-102.143580457
  0
LINE
 10
-69.0864601175
 20
-102.143580457
 11
-69.3908096313
 21
-102.487392097
  0
LINE
 10
-69.3908096313
 20
-102.487392097
 11
-69.7747239873
 21
-102.89673412
  0
LINE
 10
-69.7747239873
 20
-102.89673412
 11
-70.2421806588
 21
-103.367238797
  0
LINE
 10
-70.2421806588
 20
-103.367238797
 11
-70.7969695418
 21
-103.894365121
  0
LINE
 10
-70.7969695418
 20
-103.894365121
 11
-71.4426863176
 21
-104.473406052
  0
LINE
 10
-71.4426863176
 20
-104.473406052
 11
-72.1827260779
 21
-105.099495985
  0
LINE
 10
-77.6498714577
 20
-101.12738236
 11
-77.6498714567
 21
-101.127382359
  0
LINE
 10
-72.1827260779
 20
-105.099495985
 11
-72.1827260771
 21
-105.099495984
  0
LINE
 10
-77.6498714567
 20
-101.127382359
 11
-72.1827260771
 21
-105.099495984
  0
LINE
 10
-68.5789885948
 20
-101.504543363
 11
-62.6445436029
 21
-105.270656675
  0
LINE
 10
-62.6445436029
 20
-105.270656675
 11
-62.6697856498
 21
-105.314994026
  0
LINE
 10
-62.6697856498
 20
-105.314994026
 11
-62.7420741239
 21
-105.449903436
  0
LINE
 10
-62.7420741239
 20
-105.449903436
 11
-62.8561624239
 21
-105.678062271
  0
LINE
 10
-62.8561624239
 20
-105.678062271
 11
-63.0066907873
 21
-106.001919398
  0
LINE
 10
-63.0066907873
 20
-106.001919398
 11
-63.1881951399
 21
-106.423690948
  0
LINE
 10
-63.1881951399
 20
-106.423690948
 11
-63.395116094
 21
-106.9453564
  0
LINE
 10
-63.395116094
 20
-106.9453564
 11
-63.6218080832
 21
-107.56865499
  0
LINE
 10
-63.6218080832
 20
-107.56865499
 11
-63.862548624
 21
-108.295082453
  0
LINE
 10
-63.862548624
 20
-108.295082453
 11
-64.111547691
 21
-109.125888097
  0
LINE
 10
-64.111547691
 20
-109.125888097
 11
-64.3629571953
 21
-110.062072221
  0
LINE
 10
-55.316330145
 20
-109.299376116
 11
-55.3402400431
 21
-109.344445821
  0
LINE
 10
-55.3402400431
 20
-109.344445821
 11
-55.4154137243
 21
-109.477769076
  0
LINE
 10
-55.4154137243
 20
-109.477769076
 11
-55.5469230321
 21
-109.696350631
  0
LINE
 10
-55.5469230321
 20
-109.696350631
 11
-55.7397075179
 21
-109.996977258
  0
LINE
 10
-55.7397075179
 20
-109.996977258
 11
-55.9985661203
 21
-110.376222949
  0
LINE
 10
-55.9985661203
 20
-110.376222949
 11
-56.3281490375
 21
-110.830454416
  0
LINE
 10
-56.3281490375
 20
-110.830454416
 11
-56.7329498009
 21
-111.355836879
  0
LINE
 10
-56.7329498009
 20
-111.355836879
 11
-57.2172975612
 21
-111.94834014
  0
LINE
 10
-57.2172975612
 20
-111.94834014
 11
-57.7853495952
 21
-112.603744931
  0
LINE
 10
-57.7853495952
 20
-112.603744931
 11
-58.4410840451
 21
-113.317649535
  0
LINE
 10
-64.3629571953
 20
-110.062072221
 11
-64.3629571945
 21
-110.062072219
  0
LINE
 10
-58.4410840451
 20
-113.317649535
 11
-58.4410840444
 21
-113.317649533
  0
LINE
 10
-64.3629571945
 20
-110.062072219
 11
-58.4410840444
 21
-113.317649533
  0
LINE
 10
-55.316330145
 20
-109.299376116
 11
-48.956660865
 21
-112.292009319
  0
LINE
 10
-48.956660865
 20
-112.292009319
 11
-48.9761469274
 21
-112.339160724
  0
LINE
 10
-48.9761469274
 20
-112.339160724
 11
-49.0309567527
 21
-112.482066481
  0
LINE
 10
-49.0309567527
 20
-112.482066481
 11
-49.1155495477
 21
-112.722725272
  0
LINE
 10
-49.1155495477
 20
-112.722725272
 11
-49.2243008891
 21
-113.062894895
  0
LINE
 10
-49.2243008891
 20
-113.062894895
 11
-49.3515120334
 21
-113.504089178
  0
LINE
 10
-49.3515120334
 20
-113.504089178
 11
-49.4914193361
 21
-114.047575214
  0
LINE
 10
-49.4914193361
 20
-114.047575214
 11
-49.6382037635
 21
-114.694370949
  0
LINE
 10
-49.6382037635
 20
-114.694370949
 11
-49.7860004904
 21
-115.445243104
  0
LINE
 10
-49.7860004904
 20
-115.445243104
 11
-49.9289085675
 21
-116.300705456
  0
LINE
 10
-49.9289085675
 20
-116.300705456
 11
-50.0610006493
 21
-117.261017454
  0
LINE
 10
-41.1813001245
 20
-115.370492415
 11
-41.199372754
 21
-115.418203437
  0
LINE
 10
-41.199372754
 20
-115.418203437
 11
-41.2572438336
 21
-115.559897158
  0
LINE
 10
-41.2572438336
 20
-115.559897158
 11
-41.3603206182
 21
-115.793237619
  0
LINE
 10
-41.3603206182
 20
-115.793237619
 11
-41.5139064334
 21
-116.115656019
  0
LINE
 10
-41.5139064334
 20
-116.115656019
 11
-41.7231917696
 21
-116.52435483
  0
LINE
 10
-41.7231917696
 20
-116.52435483
 11
-41.9932455285
 21
-117.016312239
  0
LINE
 10
-41.9932455285
 20
-117.016312239
 11
-42.3290064341
 21
-117.588286893
  0
LINE
 10
-42.3290064341
 20
-117.588286893
 11
-42.7352746181
 21
-118.23682296
  0
LINE
 10
-42.7352746181
 20
-118.23682296
 11
-43.2167033904
 21
-118.958255486
  0
LINE
 10
-43.2167033904
 20
-118.958255486
 11
-43.7777912058
 21
-119.748716058
  0
LINE
 10
-50.0610006493
 20
-117.261017454
 11
-50.0610006487
 21
-117.261017453
  0
LINE
 10
-43.7777912058
 20
-119.748716058
 11
-43.7777912053
 21
-119.748716057
  0
LINE
 10
-50.0610006487
 20
-117.261017453
 11
-43.7777912053
 21
-119.748716057
  0
LINE
 10
-41.1813001245
 20
-115.370492415
 11
-34.4967023401
 21
-117.542449896
  0
LINE
 10
-34.4967023401
 20
-117.542449896
 11
-34.5101251109
 21
-117.591671749
  0
LINE
 10
-34.5101251109
 20
-117.591671749
 11
-34.5465919037
 21
-117.740320145
  0
LINE
 10
-34.5465919037
 20
-117.740320145
 11
-34.600355115
 21
-117.989683557
  0
LINE
 10
-34.600355115
 20
-117.989683557
 11
-34.6656143606
 21
-118.340800999
  0
LINE
 10
-34.6656143606
 20
-118.340800999
 11
-34.736526101
 21
-118.794460117
  0
LINE
 10
-34.736526101
 20
-118.794460117
 11
-34.8072133305
 21
-119.351195638
  0
LINE
 10
-34.8072133305
 20
-119.351195638
 11
-34.871775318
 21
-120.011288162
  0
LINE
 10
-34.871775318
 20
-120.011288162
 11
-34.9242973883
 21
-120.774763308
  0
LINE
 10
-34.9242973883
 20
-120.774763308
 11
-34.9588607297
 21
-121.641391215
  0
LINE
 10
-34.9588607297
 20
-121.641391215
 11
-34.9695522181
 21
-122.610686394
  0
LINE
 10
-26.3968164004
 20
-119.62214713
 11
-26.4087667452
 21
-119.671747037
  0
LINE
 10
-26.4087667452
 20
-119.671747037
 11
-26.4484225618
 21
-119.819576631
  0
LINE
 10
-26.4484225618
 20
-119.819576631
 11
-26.5214412407
 21
-120.063996079
  0
LINE
 10
-26.5214412407
 20
-120.063996079
 11
-26.6334062453
 21
-120.40312152
  0
LINE
 10
-26.6334062453
 20
-120.40312152
 11
-26.7898177605
 21
-120.834828028
  0
LINE
 10
-26.7898177605
 20
-120.834828028
 11
-26.996083452
 21
-121.356752916
  0
LINE
 10
-26.996083452
 20
-121.356752916
 11
-27.2575093497
 21
-121.966299379
  0
LINE
 10
-27.2575093497
 20
-121.966299379
 11
-27.5792908654
 21
-122.66064045
  0
LINE
 10
-27.5792908654
 20
-122.66064045
 11
-27.9665039566
 21
-123.436723291
  0
LINE
 10
-27.9665039566
 20
-123.436723291
 11
-28.4240964476
 21
-124.291273795
  0
LINE
 10
-34.9695522181
 20
-122.610686394
 11
-34.9695522177
 21
-122.610686393
  0
LINE
 10
-28.4240964476
 20
-124.291273795
 11
-28.4240964473
 21
-124.291273793
  0
LINE
 10
-34.9695522177
 20
-122.610686393
 11
-28.4240964473
 21
-124.291273793
  0
LINE
 10
-26.3968164004
 20
-119.62214713
 11
-19.4927102119
 21
-120.939175822
  0
LINE
 10
-19.4927102119
 20
-120.939175822
 11
-19.4998580062
 21
-120.989691866
  0
LINE
 10
-19.4998580062
 20
-120.989691866
 11
-19.5174066633
 21
-121.141738625
  0
LINE
 10
-19.5174066633
 20
-121.141738625
 11
-19.5394924128
 21
-121.39587405
  0
LINE
 10
-19.5394924128
 20
-121.39587405
 11
-19.5602303855
 21
-121.752401978
  0
LINE
 10
-19.5602303855
 20
-121.752401978
 11
-19.5737244014
 21
-122.211371456
  0
LINE
 10
-19.5737244014
 20
-122.211371456
 11
-19.5740767778
 21
-122.77257641
  0
LINE
 10
-19.5740767778
 20
-122.77257641
 11
-19.5553981443
 21
-123.43555567
  0
LINE
 10
-19.5553981443
 20
-123.43555567
 11
-19.5118172536
 21
-124.199593348
  0
LINE
 10
-19.5118172536
 20
-124.199593348
 11
-19.4374907749
 21
-125.06371957
  0
LINE
 10
-19.4374907749
 20
-125.06371957
 11
-19.3266130587
 21
-126.026711566
  0
LINE
 10
-11.1960391131
 20
-121.987289125
 11
-11.201678709
 21
-122.037995698
  0
LINE
 10
-11.201678709
 20
-122.037995698
 11
-11.2224938667
 21
-122.189629803
  0
LINE
 10
-11.2224938667
 20
-122.189629803
 11
-11.2643028916
 21
-122.441273598
  0
LINE
 10
-11.2643028916
 20
-122.441273598
 11
-11.3328813307
 21
-122.79175787
  0
LINE
 10
-11.3328813307
 20
-122.79175787
 11
-11.4339523219
 21
-123.239663803
  0
LINE
 10
-11.4339523219
 20
-123.239663803
 11
-11.5731770128
 21
-123.783325105
  0
LINE
 10
-11.5731770128
 20
-123.783325105
 11
-11.75614506
 21
-124.420830465
  0
LINE
 10
-11.75614506
 20
-124.420830465
 11
-11.9883652207
 21
-125.150026367
  0
LINE
 10
-11.9883652207
 20
-125.150026367
 11
-12.2752560491
 21
-125.968520231
  0
LINE
 10
-12.2752560491
 20
-125.968520231
 11
-12.6221367088
 21
-126.873683896
  0
LINE
 10
-19.3266130587
 20
-126.026711566
 11
-19.3266130584
 21
-126.026711564
  0
LINE
 10
-12.6221367088
 20
-126.873683896
 11
-12.6221367086
 21
-126.873683894
  0
LINE
 10
-19.3266130584
 20
-126.026711564
 11
-12.6221367086
 21
-126.873683894
  0
LINE
 10
-11.1960391131
 20
-121.987289125
 11
-4.18130639923
 21
-122.4286187
  0
LINE
 10
-4.18130639923
 20
-122.4286187
 11
-4.182066492
 21
-122.479632265
  0
LINE
 10
-4.182066492
 20
-122.479632265
 11
-4.1804202607
 21
-122.632679521
  0
LINE
 10
-4.1804202607
 20
-122.632679521
 11
-4.17048024297
 21
-122.88757909
  0
LINE
 10
-4.17048024297
 20
-122.88757909
 11
-4.14636989246
 21
-123.243894846
  0
LINE
 10
-4.14636989246
 20
-123.243894846
 11
-4.10223337522
 21
-123.700936461
  0
LINE
 10
-4.10223337522
 20
-123.700936461
 11
-4.03224534141
 21
-124.257760312
  0
LINE
 10
-4.03224534141
 20
-124.257760312
 11
-3.93062066008
 21
-124.913170728
  0
LINE
 10
-3.93062066008
 20
-124.913170728
 11
-3.791624105
 21
-125.665721607
  0
LINE
 10
-3.791624105
 20
-125.665721607
 11
-3.60957997915
 21
-126.513718358
  0
LINE
 10
-3.60957997915
 20
-126.513718358
 11
-3.37888166611
 21
-127.455220211
  0
LINE
 10
4.18130639923
 20
-122.4286187
 11
4.182066492
 21
-122.479632265
  0
LINE
 10
4.182066492
 20
-122.479632265
 11
4.1804202607
 21
-122.632679521
  0
LINE
 10
4.1804202607
 20
-122.632679521
 11
4.17048024297
 21
-122.88757909
  0
LINE
 10
4.17048024297
 20
-122.88757909
 11
4.14636989246
 21
-123.243894846
  0
LINE
 10
4.14636989246
 20
-123.243894846
 11
4.10223337522
 21
-123.700936461
  0
LINE
 10
4.10223337522
 20
-123.700936461
 11
4.03224534141
 21
-124.257760312
  0
LINE
 10
4.03224534141
 20
-124.257760312
 11
3.93062066008
 21
-124.913170728
  0
LINE
 10
3.93062066008
 20
-124.913170728
 11
3.791624105
 21
-125.665721607
  0
LINE
 10
3.791624105
 20
-125.665721607
 11
3.60957997915
 21
-126.513718358
  0
LINE
 10
3.60957997915
 20
-126.513718358
 11
3.37888166611
 21
-127.455220211
  0
LINE
 10
-3.37888166611
 20
-127.455220211
 11
-3.37888166607
 21
-127.45522021
  0
LINE
 10
3.37888166611
 20
-127.455220211
 11
3.37888166607
 21
-127.45522021
  0
LINE
 10
-3.37888166607
 20
-127.45522021
 11
3.37888166607
 21
-127.45522021
  0
LINE
 10
4.18130639923
 20
-122.4286187
 11
11.1960391131
 21
-121.987289125
  0
LINE
 10
11.1960391131
 20
-121.987289125
 11
11.201678709
 21
-122.037995698
  0
LINE
 10
11.201678709
 20
-122.037995698
 11
11.2224938667
 21
-122.189629803
  0
LINE
 10
11.2224938667
 20
-122.189629803
 11
11.2643028916
 21
-122.441273598
  0
LINE
 10
11.2643028916
 20
-122.441273598
 11
11.3328813307
 21
-122.79175787
  0
LINE
 10
11.3328813307
 20
-122.79175787
 11
11.4339523219
 21
-123.239663803
  0
LINE
 10
11.4339523219
 20
-123.239663803
 11
11.5731770128
 21
-123.783325105
  0
LINE
 10
11.5731770128
 20
-123.783325105
 11
11.75614506
 21
-124.420830465
  0
LINE
 10
11.75614506
 20
-124.420830465
 11
11.9883652207
 21
-125.150026367
  0
LINE
 10
11.9883652207
 20
-125.150026367
 11
12.2752560491
 21
-125.968520231
  0
LINE
 10
12.2752560491
 20
-125.968520231
 11
12.6221367088
 21
-126.873683896
  0
LINE
 10
19.4927102119
 20
-120.939175822
 11
19.4998580062
 21
-120.989691866
  0
LINE
 10
19.4998580062
 20
-120.989691866
 11
19.5174066633
 21
-121.141738625
  0
LINE
 10
19.5174066633
 20
-121.141738625
 11
19.5394924128
 21
-121.39587405
  0
LINE
 10
19.5394924128
 20
-121.39587405
 11
19.5602303855
 21
-121.752401978
  0
LINE
 10
19.5602303855
 20
-121.752401978
 11
19.5737244014
 21
-122.211371456
  0
LINE
 10
19.5737244014
 20
-122.211371456
 11
19.5740767778
 21
-122.77257641
  0
LINE
 10
19.5740767778
 20
-122.77257641
 11
19.5553981443
 21
-123.43555567
  0
LINE
 10
19.5553981443
 20
-123.43555567
 11
19.5118172536
 21
-124.199593348
  0
LINE
 10
19.5118172536
 20
-124.199593348
 11
19.4374907749
 21
-125.06371957
  0
LINE
 10
19.4374907749
 20
-125.06371957
 11
19.3266130587
 21
-126.026711566
  0
LINE
 10
12.6221367088
 20
-126.873683896
 11
12.6221367086
 21
-126.873683894
  0
LINE
 10
19.3266130587
 20
-126.026711566
 11
19.3266130584
 21
-126.026711564
  0
LINE
 10
12.6221367086
 20
-126.873683894
 11
19.3266130584
 21
-126.026711564
  0
LINE
 10
19.4927102119
 20
-120.939175822
 11
26.3968164004
 21
-119.62214713
  0
LINE
 10
26.3968164004
 20
-119.62214713
 11
26.4087667452
 21
-119.671747037
  0
LINE
 10
26.4087667452
 20
-119.671747037
 11
26.4484225618
 21
-119.819576631
  0
LINE
 10
26.4484225618
 20
-119.819576631
 11
26.5214412407
 21
-120.063996079
  0
LINE
 10
26.5214412407
 20
-120.063996079
 11
26.6334062453
 21
-120.40312152
  0
LINE
 10
26.6334062453
 20
-120.40312152
 11
26.7898177605
 21
-120.834828028
  0
LINE
 10
26.7898177605
 20
-120.834828028
 11
26.996083452
 21
-121.356752916
  0
LINE
 10
26.996083452
 20
-121.356752916
 11
27.2575093497
 21
-121.966299379
  0
LINE
 10
27.2575093497
 20
-121.966299379
 11
27.5792908654
 21
-122.66064045
  0
LINE
 10
27.5792908654
 20
-122.66064045
 11
27.9665039566
 21
-123.436723291
  0
LINE
 10
27.9665039566
 20
-123.436723291
 11
28.4240964476
 21
-124.291273795
  0
LINE
 10
34.4967023401
 20
-117.542449896
 11
34.5101251109
 21
-117.591671749
  0
LINE
 10
34.5101251109
 20
-117.591671749
 11
34.5465919037
 21
-117.740320145
  0
LINE
 10
34.5465919037
 20
-117.740320145
 11
34.600355115
 21
-117.989683557
  0
LINE
 10
34.600355115
 20
-117.989683557
 11
34.6656143606
 21
-118.340800999
  0
LINE
 10
34.6656143606
 20
-118.340800999
 11
34.736526101
 21
-118.794460117
  0
LINE
 10
34.736526101
 20
-118.794460117
 11
34.8072133305
 21
-119.351195638
  0
LINE
 10
34.8072133305
 20
-119.351195638
 11
34.871775318
 21
-120.011288162
  0
LINE
 10
34.871775318
 20
-120.011288162
 11
34.9242973883
 21
-120.774763308
  0
LINE
 10
34.9242973883
 20
-120.774763308
 11
34.9588607297
 21
-121.641391215
  0
LINE
 10
34.9588607297
 20
-121.641391215
 11
34.9695522181
 21
-122.610686394
  0
LINE
 10
28.4240964476
 20
-124.291273795
 11
28.4240964473
 21
-124.291273793
  0
LINE
 10
34.9695522181
 20
-122.610686394
 11
34.9695522177
 21
-122.610686393
  0
LINE
 10
28.4240964473
 20
-124.291273793
 11
34.9695522177
 21
-122.610686393
  0
LINE
 10
34.4967023401
 20
-117.542449896
 11
41.1813001245
 21
-115.370492415
  0
LINE
 10
41.1813001245
 20
-115.370492415
 11
41.199372754
 21
-115.418203437
  0
LINE
 10
41.199372754
 20
-115.418203437
 11
41.2572438336
 21
-115.559897158
  0
LINE
 10
41.2572438336
 20
-115.559897158
 11
41.3603206182
 21
-115.793237619
  0
LINE
 10
41.3603206182
 20
-115.793237619
 11
41.5139064334
 21
-116.115656019
  0
LINE
 10
41.5139064334
 20
-116.115656019
 11
41.7231917696
 21
-116.52435483
  0
LINE
 10
41.7231917696
 20
-116.52435483
 11
41.9932455285
 21
-117.016312239
  0
LINE
 10
41.9932455285
 20
-117.016312239
 11
42.3290064341
 21
-117.588286893
  0
LINE
 10
42.3290064341
 20
-117.588286893
 11
42.7352746181
 21
-118.23682296
  0
LINE
 10
42.7352746181
 20
-118.23682296
 11
43.2167033904
 21
-118.958255486
  0
LINE
 10
43.2167033904
 20
-118.958255486
 11
43.7777912058
 21
-119.748716058
  0
LINE
 10
48.956660865
 20
-112.292009319
 11
48.9761469274
 21
-112.339160724
  0
LINE
 10
48.9761469274
 20
-112.339160724
 11
49.0309567527
 21
-112.482066481
  0
LINE
 10
49.0309567527
 20
-112.482066481
 11
49.1155495477
 21
-112.722725272
  0
LINE
 10
49.1155495477
 20
-112.722725272
 11
49.2243008891
 21
-113.062894895
  0
LINE
 10
49.2243008891
 20
-113.062894895
 11
49.3515120334
 21
-113.504089178
  0
LINE
 10
49.3515120334
 20
-113.504089178
 11
49.4914193361
 21
-114.047575214
  0
LINE
 10
49.4914193361
 20
-114.047575214
 11
49.6382037635
 21
-114.694370949
  0
LINE
 10
49.6382037635
 20
-114.694370949
 11
49.7860004904
 21
-115.445243104
  0
LINE
 10
49.7860004904
 20
-115.445243104
 11
49.9289085675
 21
-116.300705456
  0
LINE
 10
49.9289085675
 20
-116.300705456
 11
50.0610006493
 21
-117.261017454
  0
LINE
 10
43.7777912058
 20
-119.748716058
 11
43.7777912053
 21
-119.748716057
  0
LINE
 10
50.0610006493
 20
-117.261017454
 11
50.0610006487
 21
-117.261017453
  0
LINE
 10
43.7777912053
 20
-119.748716057
 11
50.0610006487
 21
-117.261017453
  0
LINE
 10
48.956660865
 20
-112.292009319
 11
55.316330145
 21
-109.299376116
  0
LINE
 10
55.316330145
 20
-109.299376116
 11
55.3402400431
 21
-109.344445821
  0
LINE
 10
55.3402400431
 20
-109.344445821
 11
55.4154137243
 21
-109.477769076
  0
LINE
 10
55.4154137243
 20
-109.477769076
 11
55.5469230321
 21
-109.696350631
  0
LINE
 10
55.5469230321
 20
-109.696350631
 11
55.7397075179
 21
-109.996977258
  0
LINE
 10
55.7397075179
 20
-109.996977258
 11
55.9985661203
 21
-110.376222949
  0
LINE
 10
55.9985661203
 20
-110.376222949
 11
56.3281490375
 21
-110.830454416
  0
LINE
 10
56.3281490375
 20
-110.830454416
 11
56.7329498009
 21
-111.355836879
  0
LINE
 10
56.7329498009
 20
-111.355836879
 11
57.2172975612
 21
-111.94834014
  0
LINE
 10
57.2172975612
 20
-111.94834014
 11
57.7853495952
 21
-112.603744931
  0
LINE
 10
57.7853495952
 20
-112.603744931
 11
58.4410840451
 21
-113.317649535
  0
LINE
 10
62.6445436029
 20
-105.270656675
 11
62.6697856498
 21
-105.314994026
  0
LINE
 10
62.6697856498
 20
-105.314994026
 11
62.7420741239
 21
-105.449903436
  0
LINE
 10
62.7420741239
 20
-105.449903436
 11
62.8561624239
 21
-105.678062271
  0
LINE
 10
62.8561624239
 20
-105.678062271
 11
63.0066907873
 21
-106.001919398
  0
LINE
 10
63.0066907873
 20
-106.001919398
 11
63.1881951399
 21
-106.423690948
  0
LINE
 10
63.1881951399
 20
-106.423690948
 11
63.395116094
 21
-106.9453564
  0
LINE
 10
63.395116094
 20
-106.9453564
 11
63.6218080832
 21
-107.56865499
  0
LINE
 10
63.6218080832
 20
-107.56865499
 11
63.862548624
 21
-108.295082453
  0
LINE
 10
63.862548624
 20
-108.295082453
 11
64.111547691
 21
-109.125888097
  0
LINE
 10
64.111547691
 20
-109.125888097
 11
64.3629571953
 21
-110.062072221
  0
LINE
 10
58.4410840451
 20
-113.317649535
 11
58.4410840444
 21
-113.317649533
  0
LINE
 10
64.3629571953
 20
-110.062072221
 11
64.3629571945
 21
-110.062072219
  0
LINE
 10
58.4410840444
 20
-113.317649533
 11
64.3629571945
 21
-110.062072219
  0
LINE
 10
62.6445436029
 20
-105.270656675
 11
68.5789885948
 21
-101.504543363
  0
LINE
 10
68.5789885948
 20
-101.504543363
 11
68.6083586882
 21
-101.546260976
  0
LINE
 10
68.6083586882
 20
-101.546260976
 11
68.6996494369
 21
-101.669111176
  0
LINE
 10
68.6996494369
 20
-101.669111176
 11
68.8575172877
 21
-101.869486663
  0
LINE
 10
68.8575172877
 20
-101.869486663
 11
69.0864601175
 21
-102.143580457
  0
LINE
 10
69.0864601175
 20
-102.143580457
 11
69.3908096313
 21
-102.487392097
  0
LINE
 10
69.3908096313
 20
-102.487392097
 11
69.7747239873
 21
-102.89673412
  0
LINE
 10
69.7747239873
 20
-102.89673412
 11
70.2421806588
 21
-103.367238797
  0
LINE
 10
70.2421806588
 20
-103.367238797
 11
70.7969695418
 21
-103.894365121
  0
LINE
 10
70.7969695418
 20
-103.894365121
 11
71.4426863176
 21
-104.473406052
  0
LINE
 10
71.4426863176
 20
-104.473406052
 11
72.1827260779
 21
-105.099495985
  0
LINE
 10
75.3444844661
 20
-96.5891228894
 11
75.3750844154
 21
-96.6299469594
  0
LINE
 10
75.3750844154
 20
-96.6299469594
 11
75.463711506
 21
-96.7547324205
  0
LINE
 10
75.463711506
 20
-96.7547324205
 11
75.6054960702
 21
-96.9667930995
  0
LINE
 10
75.6054960702
 20
-96.9667930995
 11
75.7954275334
 21
-97.2692303099
  0
LINE
 10
75.7954275334
 20
-97.2692303099
 11
76.0283626622
 21
-97.664927538
  0
LINE
 10
76.0283626622
 20
-97.664927538
 11
76.2990340007
 21
-98.1565454297
  0
LINE
 10
76.2990340007
 20
-98.1565454297
 11
76.6020584837
 21
-98.7465170842
  0
LINE
 10
76.6020584837
 20
-98.7465170842
 11
76.9319462163
 21
-99.4370436589
  0
LINE
 10
76.9319462163
 20
-99.4370436589
 11
77.283109409
 21
-100.230090294
  0
LINE
 10
77.283109409
 20
-100.230090294
 11
77.6498714577
 21
-101.12738236
  0
LINE
 10
72.1827260779
 20
-105.099495985
 11
72.1827260771
 21
-105.099495984
  0
LINE
 10
77.6498714577
 20
-101.12738236
 11
77.6498714567
 21
-101.127382359
  0
LINE
 10
72.1827260771
 20
-105.099495984
 11
77.6498714567
 21
-101.127382359
  0
LINE
 10
75.3444844661
 20
-96.5891228894
 11
80.7601154273
 21
-92.1089233254
  0
LINE
 10
80.7601154273
 20
-92.1089233254
 11
80.794482532
 21
-92.1466309335
  0
LINE
 10
80.794482532
 20
-92.1466309335
 11
80.9004506388
 21
-92.2570706583
  0
LINE
 10
80.9004506388
 20
-92.2570706583
 11
81.0821873622
 21
-92.436080037
  0
LINE
 10
81.0821873622
 20
-92.436080037
 11
81.3436779708
 21
-92.6793183738
  0
LINE
 10
81.3436779708
 20
-92.6793183738
 11
81.6887186224
 21
-92.9822738479
  0
LINE
 10
81.6887186224
 20
-92.9822738479
 11
82.1209098585
 21
-93.3402708596
  0
LINE
 10
82.1209098585
 20
-93.3402708596
 11
82.643650367
 21
-93.7484776101
  0
LINE
 10
82.643650367
 20
-93.7484776101
 11
83.2601310207
 21
-94.2019139013
  0
LINE
 10
83.2601310207
 20
-94.2019139013
 11
83.9733291991
 21
-94.6954591495
  0
LINE
 10
83.9733291991
 20
-94.6954591495
 11
84.7860034007
 21
-95.2238606008
  0
LINE
 10
86.8561978006
 20
-86.3843209363
 11
86.8916730729
 21
-86.4209879057
  0
LINE
 10
86.8916730729
 20
-86.4209879057
 11
86.9952410778
 21
-86.5336814763
  0
LINE
 10
86.9952410778
 20
-86.5336814763
 11
87.162485879
 21
-86.7262996757
  0
LINE
 10
87.162485879
 20
-86.7262996757
 11
87.3888251094
 21
-87.0025473539
  0
LINE
 10
87.3888251094
 20
-87.0025473539
 11
87.6695174882
 21
-87.3659298782
  0
LINE
 10
87.6695174882
 20
-87.3659298782
 11
87.9996705624
 21
-87.8197471019
  0
LINE
 10
87.9996705624
 20
-87.8197471019
 11
88.374248662
 21
-88.3670876154
  0
LINE
 10
88.374248662
 20
-88.3670876154
 11
88.7880810597
 21
-89.0108232856
  0
LINE
 10
88.7880810597
 20
-89.0108232856
 11
89.235870325
 21
-89.7536040928
  0
LINE
 10
89.235870325
 20
-89.7536040928
 11
89.7122008614
 21
-90.5978532692
  0
LINE
 10
84.7860034007
 20
-95.2238606008
 11
84.7860033997
 21
-95.2238605997
  0
LINE
 10
89.7122008614
 20
-90.5978532692
 11
89.7122008603
 21
-90.5978532681
  0
LINE
 10
84.7860033997
 20
-95.2238605997
 11
89.7122008603
 21
-90.5978532681
  0
LINE
 10
86.8561978006
 20
-86.3843209363
 11
91.6676069958
 21
-81.2606905439
  0
LINE
 10
91.6676069958
 20
-81.2606905439
 11
91.7064291221
 21
-81.2937934758
  0
LINE
 10
91.7064291221
 20
-81.2937934758
 11
91.8254034065
 21
-81.390081025
  0
LINE
 10
91.8254034065
 20
-81.390081025
 11
92.0281429058
 21
-81.54490121
  0
LINE
 10
92.0281429058
 20
-81.54490121
 11
92.3180574302
 21
-81.7534480764
  0
LINE
 10
92.3180574302
 20
-81.7534480764
 11
92.6983477224
 21
-82.0107695955
  0
LINE
 10
92.6983477224
 20
-82.0107695955
 11
93.1719999246
 21
-82.3117757687
  0
LINE
 10
93.1719999246
 20
-82.3117757687
 11
93.74178034
 21
-82.6512469288
  0
LINE
 10
93.74178034
 20
-82.6512469288
 11
94.4102304962
 21
-83.0238422256
  0
LINE
 10
94.4102304962
 20
-83.0238422256
 11
95.1796625158
 21
-83.4241082883
  0
LINE
 10
95.1796625158
 20
-83.4241082883
 11
96.0521548011
 21
-83.8464880508
  0
LINE
 10
96.9981370105
 20
-74.8171866385
 11
97.0379281395
 21
-74.8491182473
  0
LINE
 10
97.0379281395
 20
-74.8491182473
 11
97.1548037293
 21
-74.9479426825
  0
LINE
 10
97.1548037293
 20
-74.9479426825
 11
97.3448712171
 21
-75.1180806981
  0
LINE
 10
97.3448712171
 20
-75.1180806981
 11
97.6040487098
 21
-75.3637822532
  0
LINE
 10
97.6040487098
 20
-75.3637822532
 11
97.9280716522
 21
-75.6891193143
  0
LINE
 10
97.9280716522
 20
-75.6891193143
 11
98.3124997509
 21
-76.0979789014
  0
LINE
 10
98.3124997509
 20
-76.0979789014
 11
98.7527241467
 21
-76.5940563869
  0
LINE
 10
98.7527241467
 20
-76.5940563869
 11
99.2439748255
 21
-77.1808490566
  0
LINE
 10
99.2439748255
 20
-77.1808490566
 11
99.781328259
 21
-77.8616499387
  0
LINE
 10
99.781328259
 20
-77.8616499387
 11
100.359715266
 21
-78.6395419118
  0
LINE
 10
96.0521548011
 20
-83.8464880508
 11
96.0521548
 21
-83.8464880498
  0
LINE
 10
100.359715266
 20
-78.6395419118
 11
100.359715265
 21
-78.6395419108
  0
LINE
 10
96.0521548
 20
-83.8464880498
 11
100.359715265
 21
-78.6395419108
  0
LINE
 10
96.9981370105
 20
-74.8171866385
 11
101.129445642
 21
-69.1309281297
  0
LINE
 10
101.129445642
 20
-69.1309281297
 11
101.172110542
 21
-69.1589043325
  0
LINE
 10
101.172110542
 20
-69.1589043325
 11
101.302214709
 21
-69.2395211938
  0
LINE
 10
101.302214709
 20
-69.2395211938
 11
101.522759661
 21
-69.3677105784
  0
LINE
 10
101.522759661
 20
-69.3677105784
 11
101.836525976
 21
-69.5382770657
  0
LINE
 10
101.836525976
 20
-69.5382770657
 11
102.246068503
 21
-69.7459065157
  0
LINE
 10
102.246068503
 20
-69.7459065157
 11
102.753711894
 21
-69.9851748032
  0
LINE
 10
102.753711894
 20
-69.9851748032
 11
103.361546438
 21
-70.2505567099
  0
LINE
 10
103.361546438
 20
-70.2505567099
 11
104.071424239
 21
-70.536434962
  0
LINE
 10
104.071424239
 20
-70.536434962
 11
104.884955697
 21
-70.8371094042
  0
LINE
 10
104.884955697
 20
-70.8371094042
 11
105.803506342
 21
-71.1468062968
  0
LINE
 10
105.610357656
 20
-62.0701406138
 11
105.653837112
 21
-62.0968332815
  0
LINE
 10
105.653837112
 20
-62.0968332815
 11
105.782177089
 21
-62.1802300609
  0
LINE
 10
105.782177089
 20
-62.1802300609
 11
105.992069785
 21
-62.3252047146
  0
LINE
 10
105.992069785
 20
-62.3252047146
 11
106.279998156
 21
-62.5364852863
  0
LINE
 10
106.279998156
 20
-62.5364852863
 11
106.642241627
 21
-62.8186461244
  0
LINE
 10
106.642241627
 20
-62.8186461244
 11
107.074882089
 21
-63.1761001148
  0
LINE
 10
107.074882089
 20
-63.1761001148
 11
107.57381018
 21
-63.6130911342
  0
LINE
 10
107.57381018
 20
-63.6130911342
 11
108.134731823
 21
-64.1336867323
  0
LINE
 10
108.134731823
 20
-64.1336867323
 11
108.75317504
 21
-64.7417710527
  0
LINE
 10
108.75317504
 20
-64.7417710527
 11
109.424497009
 21
-65.4410380014
  0
LINE
 10
105.803506342
 20
-71.1468062968
 11
105.80350634
 21
-71.1468062959
  0
LINE
 10
109.424497009
 20
-65.4410380014
 11
109.424497008
 21
-65.4410380006
  0
LINE
 10
105.80350634
 20
-71.1468062959
 11
109.424497008
 21
-65.4410380006
  0
LINE
 10
105.610357656
 20
-62.0701406138
 11
108.996412519
 21
-55.9109296821
  0
LINE
 10
108.996412519
 20
-55.9109296821
 11
109.042247342
 21
-55.9333379543
  0
LINE
 10
109.042247342
 20
-55.9333379543
 11
109.18142957
 21
-55.9970127517
  0
LINE
 10
109.18142957
 20
-55.9970127517
 11
109.416301849
 21
-56.0965497127
  0
LINE
 10
109.416301849
 20
-56.0965497127
 11
109.748971672
 21
-56.2264458854
  0
LINE
 10
109.748971672
 20
-56.2264458854
 11
110.181307705
 21
-56.3811088259
  0
LINE
 10
110.181307705
 20
-56.3811088259
 11
110.714936444
 21
-56.554865824
  0
LINE
 10
110.714936444
 20
-56.554865824
 11
111.351239204
 21
-56.7419732461
  0
LINE
 10
111.351239204
 20
-56.7419732461
 11
112.091349452
 21
-56.9366259826
  0
LINE
 10
112.091349452
 20
-56.9366259826
 11
112.936150472
 21
-57.1329669888
  0
LINE
 10
112.936150472
 20
-57.1329669888
 11
113.886273383
 21
-57.3250969064
  0
LINE
 10
112.557039872
 20
-48.3442113927
 11
112.603521958
 21
-48.3652441599
  0
LINE
 10
112.603521958
 20
-48.3652441599
 11
112.741302324
 21
-48.4318980665
  0
LINE
 10
112.741302324
 20
-48.4318980665
 11
112.967710096
 21
-48.5494230214
  0
LINE
 10
112.967710096
 20
-48.5494230214
 11
113.279848543
 21
-48.722950589
  0
LINE
 10
113.279848543
 20
-48.722950589
 11
113.674599746
 21
-48.9574853591
  0
LINE
 10
113.674599746
 20
-48.9574853591
 11
114.148629574
 21
-49.2578964898
  0
LINE
 10
114.148629574
 20
-49.2578964898
 11
114.698392964
 21
-49.6289094337
  0
LINE
 10
114.698392964
 20
-49.6289094337
 11
115.320139503
 21
-50.0750978567
  0
LINE
 10
115.320139503
 20
-50.0750978567
 11
116.009919284
 21
-50.6008757624
  0
LINE
 10
116.009919284
 20
-50.6008757624
 11
116.763589067
 21
-51.2104898292
  0
LINE
 10
113.886273383
 20
-57.3250969064
 11
113.886273382
 21
-57.3250969057
  0
LINE
 10
116.763589067
 20
-51.2104898292
 11
116.763589066
 21
-51.2104898286
  0
LINE
 10
113.886273382
 20
-57.3250969057
 11
116.763589066
 21
-51.2104898286
  0
LINE
 10
112.557039872
 20
-48.3442113927
 11
115.14444086
 21
-41.8091824738
  0
LINE
 10
115.14444086
 20
-41.8091824738
 11
115.192722762
 21
-41.8256694236
  0
LINE
 10
115.192722762
 20
-41.8256694236
 11
115.338788065
 21
-41.8713979675
  0
LINE
 10
115.338788065
 20
-41.8713979675
 11
115.584283595
 21
-41.9407127475
  0
LINE
 10
115.584283595
 20
-41.9407127475
 11
115.930610525
 21
-42.0278900655
  0
LINE
 10
115.930610525
 20
-42.0278900655
 11
116.378921866
 21
-42.1271473695
  0
LINE
 10
116.378921866
 20
-42.1271473695
 11
116.930120309
 21
-42.2326528265
  0
LINE
 10
116.930120309
 20
-42.2326528265
 11
117.58485641
 21
-42.3385349682
  0
LINE
 10
117.58485641
 20
-42.3385349682
 11
118.343527124
 21
-42.4388923992
  0
LINE
 10
118.343527124
 20
-42.4388923992
 11
119.206274689
 21
-42.5278035544
  0
LINE
 10
119.206274689
 20
-42.5278035544
 11
120.172985861
 21
-42.5993364934
  0
LINE
 10
117.728630332
 20
-33.8558650785
 11
117.777381997
 21
-33.870906246
  0
LINE
 10
117.777381997
 20
-33.870906246
 11
117.922429873
 21
-33.9197661079
  0
LINE
 10
117.922429873
 20
-33.9197661079
 11
118.161782135
 21
-34.0079879252
  0
LINE
 10
118.161782135
 20
-34.0079879252
 11
118.493208048
 21
-34.1410258551
  0
LINE
 10
118.493208048
 20
-34.1410258551
 11
118.914241521
 21
-34.3242358038
  0
LINE
 10
118.914241521
 20
-34.3242358038
 11
119.422184981
 21
-34.562866412
  0
LINE
 10
119.422184981
 20
-34.562866412
 11
120.014113575
 21
-34.8620501845
  0
LINE
 10
120.014113575
 20
-34.8620501845
 11
120.686879694
 21
-35.2267947744
  0
LINE
 10
120.686879694
 20
-35.2267947744
 11
121.437117801
 21
-35.6619744338
  0
LINE
 10
121.437117801
 20
-35.6619744338
 11
122.261249574
 21
-36.1723216407
  0
LINE
 10
120.172985861
 20
-42.5993364934
 11
120.172985859
 21
-42.5993364929
  0
LINE
 10
122.261249574
 20
-36.1723216407
 11
122.261249573
 21
-36.1723216403
  0
LINE
 10
120.172985859
 20
-42.5993364929
 11
122.261249573
 21
-36.1723216403
  0
LINE
 10
117.728630332
 20
-33.8558650785
 11
119.476572584
 21
-27.0480794823
  0
LINE
 10
119.476572584
 20
-27.0480794823
 11
119.526540131
 21
-27.0583851007
  0
LINE
 10
119.526540131
 20
-27.0583851007
 11
119.677184972
 21
-27.0854462246
  0
LINE
 10
119.677184972
 20
-27.0854462246
 11
119.929432143
 21
-27.1234456882
  0
LINE
 10
119.929432143
 20
-27.1234456882
 11
120.283954396
 21
-27.1665293131
  0
LINE
 10
120.283954396
 20
-27.1665293131
 11
120.741170907
 21
-27.2088156336
  0
LINE
 10
120.741170907
 20
-27.2088156336
 11
121.301246325
 21
-27.2444056653
  0
LINE
 10
121.301246325
 20
-27.2444056653
 11
121.964090188
 21
-27.267392702
  0
LINE
 10
121.964090188
 20
-27.267392702
 11
122.729356679
 21
-27.2718721309
  0
LINE
 10
122.729356679
 20
-27.2718721309
 11
123.596444743
 21
-27.251951253
  0
LINE
 10
123.596444743
 20
-27.251951253
 11
124.564498564
 21
-27.2017590963
  0
LINE
 10
121.043569963
 20
-18.8335915476
 11
121.093822365
 21
-18.8424039071
  0
LINE
 10
121.093822365
 20
-18.8424039071
 11
121.24385026
 21
-18.872699175
  0
LINE
 10
121.24385026
 20
-18.872699175
 11
121.492372283
 21
-18.930226544
  0
LINE
 10
121.492372283
 20
-18.930226544
 11
121.837858878
 21
-19.0206767487
  0
LINE
 10
121.837858878
 20
-19.0206767487
 11
122.278534672
 21
-19.1496725456
  0
LINE
 10
122.278534672
 20
-19.1496725456
 11
122.812381191
 21
-19.322759284
  0
LINE
 10
122.812381191
 20
-19.322759284
 11
123.437139921
 21
-19.5453955783
  0
LINE
 10
123.437139921
 20
-19.5453955783
 11
124.150315697
 21
-19.8229440951
  0
LINE
 10
124.150315697
 20
-19.8229440951
 11
124.949180427
 21
-20.160662465
  0
LINE
 10
124.949180427
 20
-20.160662465
 11
125.830777141
 21
-20.5636943316
  0
LINE
 10
124.564498564
 20
-27.2017590963
 11
124.564498562
 21
-27.201759096
  0
LINE
 10
125.830777141
 20
-20.5636943316
 11
125.830777139
 21
-20.5636943314
  0
LINE
 10
124.564498562
 20
-27.201759096
 11
125.830777139
 21
-20.5636943314
  0
LINE
 10
121.043569963
 20
-18.8335915476
 11
121.924487386
 21
-11.8604121196
  0
LINE
 10
121.924487386
 20
-11.8604121196
 11
121.975352561
 21
-11.8643738808
  0
LINE
 10
121.975352561
 20
-11.8643738808
 11
122.128201181
 21
-11.8723408146
  0
LINE
 10
122.128201181
 20
-11.8723408146
 11
122.383221902
 21
-11.8784256876
  0
LINE
 10
122.383221902
 20
-11.8784256876
 11
122.740348452
 21
-11.8767361648
  0
LINE
 10
122.740348452
 20
-11.8767361648
 11
123.199259555
 21
-11.8613846214
  0
LINE
 10
123.199259555
 20
-11.8613846214
 11
123.759379226
 21
-11.8264979518
  0
LINE
 10
123.759379226
 20
-11.8264979518
 11
124.419877406
 21
-11.7662273642
  0
LINE
 10
124.419877406
 20
-11.7662273642
 11
125.179670963
 21
-11.6747581476
  0
LINE
 10
125.179670963
 20
-11.6747581476
 11
126.037425032
 21
-11.5463194009
  0
LINE
 10
126.037425032
 20
-11.5463194009
 11
126.991554713
 21
-11.3751937088
  0
LINE
 10
122.449580188
 20
-3.51430102726
 11
122.500540817
 21
-3.51674560262
  0
LINE
 10
122.500540817
 20
-3.51674560262
 11
122.653182701
 21
-3.52799850214
  0
LINE
 10
122.653182701
 20
-3.52799850214
 11
122.906955145
 21
-3.55392418189
  0
LINE
 10
122.906955145
 20
-3.55392418189
 11
123.261053891
 21
-3.60036020756
  0
LINE
 10
123.261053891
 20
-3.60036020756
 11
123.714422285
 21
-3.67310751195
  0
LINE
 10
123.714422285
 20
-3.67310751195
 11
124.265752785
 21
-3.77792069921
  0
LINE
 10
124.265752785
 20
-3.77792069921
 11
124.913488833
 21
-3.92049840801
  0
LINE
 10
124.913488833
 20
-3.92049840801
 11
125.655827058
 21
-4.10647374576
  0
LINE
 10
125.655827058
 20
-4.10647374576
 11
126.490719836
 21
-4.34140480567
  0
LINE
 10
126.490719836
 20
-4.34140480567
 11
127.415878184
 21
-4.6307652788
  0
LINE
 10
126.991554713
 20
-11.3751937088
 11
126.991554712
 21
-11.3751937086
  0
LINE
 10
127.415878184
 20
-4.6307652788
 11
127.415878182
 21
-4.63076527875
  0
LINE
 10
126.991554712
 20
-11.3751937086
 11
127.415878182
 21
-4.63076527875
  0
ENDSEC
  0
EOF
